<?xml version="1.0" encoding="UTF-8" standalone="no"?>
<!-- Created with Inkscape (http://www.inkscape.org/) -->

<svg
   xmlns:dc="http://purl.org/dc/elements/1.1/"
   xmlns:cc="http://creativecommons.org/ns#"
   xmlns:rdf="http://www.w3.org/1999/02/22-rdf-syntax-ns#"
   xmlns:svg="http://www.w3.org/2000/svg"
   xmlns="http://www.w3.org/2000/svg"
   xmlns:sodipodi="http://sodipodi.sourceforge.net/DTD/sodipodi-0.dtd"
   xmlns:inkscape="http://www.inkscape.org/namespaces/inkscape"
   id="svg2"
   version="1.1"
   inkscape:version="0.91 r13725"
   xml:space="preserve"
   width="253.41248"
   height="191.47862"
   viewBox="0 0 253.41247 191.47862"
   sodipodi:docname="model-comparison.svg"><metadata
     id="metadata8"><rdf:RDF><cc:Work
         rdf:about=""><dc:format>image/svg+xml</dc:format><dc:type
           rdf:resource="http://purl.org/dc/dcmitype/StillImage" /><dc:title></dc:title></cc:Work></rdf:RDF></metadata><defs
     id="defs6"><clipPath
       clipPathUnits="userSpaceOnUse"
       id="clipPath216"><path
         d="m 138.501,722.438 311.471,0 0,-162.142 -311.471,0 0,162.142 z"
         id="path218"
         inkscape:connector-curvature="0" /></clipPath><clipPath
       clipPathUnits="userSpaceOnUse"
       id="clipPath234"><path
         d="m 138.501,722.438 311.471,0 0,-162.142 -311.471,0 0,162.142 z"
         id="path236"
         inkscape:connector-curvature="0" /></clipPath><clipPath
       clipPathUnits="userSpaceOnUse"
       id="clipPath252"><path
         d="m 138.501,722.438 311.471,0 0,-162.142 -311.471,0 0,162.142 z"
         id="path254"
         inkscape:connector-curvature="0" /></clipPath><clipPath
       clipPathUnits="userSpaceOnUse"
       id="clipPath270"><path
         d="m 138.501,722.438 311.471,0 0,-162.142 -311.471,0 0,162.142 z"
         id="path272"
         inkscape:connector-curvature="0" /></clipPath><clipPath
       clipPathUnits="userSpaceOnUse"
       id="clipPath294"><path
         d="m 138.501,722.438 311.471,0 0,-162.142 -311.471,0 0,162.142 z"
         id="path296"
         inkscape:connector-curvature="0" /></clipPath><clipPath
       clipPathUnits="userSpaceOnUse"
       id="clipPath312"><path
         d="m 138.501,722.438 311.471,0 0,-162.142 -311.471,0 0,162.142 z"
         id="path314"
         inkscape:connector-curvature="0" /></clipPath><clipPath
       clipPathUnits="userSpaceOnUse"
       id="clipPath330"><path
         d="m 138.501,722.438 311.471,0 0,-162.142 -311.471,0 0,162.142 z"
         id="path332"
         inkscape:connector-curvature="0" /></clipPath><clipPath
       clipPathUnits="userSpaceOnUse"
       id="clipPath346"><path
         d="m 138.501,722.438 311.471,0 0,-162.142 -311.471,0 0,162.142 z"
         id="path348"
         inkscape:connector-curvature="0" /></clipPath><clipPath
       clipPathUnits="userSpaceOnUse"
       id="clipPath362"><path
         d="m 138.501,722.438 311.471,0 0,-162.142 -311.471,0 0,162.142 z"
         id="path364"
         inkscape:connector-curvature="0" /></clipPath><clipPath
       clipPathUnits="userSpaceOnUse"
       id="clipPath378"><path
         d="m 138.501,722.438 311.471,0 0,-162.142 -311.471,0 0,162.142 z"
         id="path380"
         inkscape:connector-curvature="0" /></clipPath><clipPath
       clipPathUnits="userSpaceOnUse"
       id="clipPath394"><path
         d="m 138.501,722.438 311.471,0 0,-162.142 -311.471,0 0,162.142 z"
         id="path396"
         inkscape:connector-curvature="0" /></clipPath><clipPath
       clipPathUnits="userSpaceOnUse"
       id="clipPath412"><path
         d="m 138.501,722.438 311.471,0 0,-162.142 -311.471,0 0,162.142 z"
         id="path414"
         inkscape:connector-curvature="0" /></clipPath><clipPath
       clipPathUnits="userSpaceOnUse"
       id="clipPath428"><path
         d="m 138.501,722.438 311.471,0 0,-162.142 -311.471,0 0,162.142 z"
         id="path430"
         inkscape:connector-curvature="0" /></clipPath><clipPath
       clipPathUnits="userSpaceOnUse"
       id="clipPath450"><path
         d="m 138.501,722.438 311.471,0 0,-162.142 -311.471,0 0,162.142 z"
         id="path452"
         inkscape:connector-curvature="0" /></clipPath><clipPath
       clipPathUnits="userSpaceOnUse"
       id="clipPath466"><path
         d="m 138.501,722.438 311.471,0 0,-162.142 -311.471,0 0,162.142 z"
         id="path468"
         inkscape:connector-curvature="0" /></clipPath><clipPath
       clipPathUnits="userSpaceOnUse"
       id="clipPath484"><path
         d="m 138.501,722.438 311.471,0 0,-162.142 -311.471,0 0,162.142 z"
         id="path486"
         inkscape:connector-curvature="0" /></clipPath><clipPath
       clipPathUnits="userSpaceOnUse"
       id="clipPath500"><path
         d="m 138.501,722.438 311.471,0 0,-162.142 -311.471,0 0,162.142 z"
         id="path502"
         inkscape:connector-curvature="0" /></clipPath><clipPath
       clipPathUnits="userSpaceOnUse"
       id="clipPath516"><path
         d="m 138.501,722.438 311.471,0 0,-162.142 -311.471,0 0,162.142 z"
         id="path518"
         inkscape:connector-curvature="0" /></clipPath><clipPath
       clipPathUnits="userSpaceOnUse"
       id="clipPath532"><path
         d="m 138.501,722.438 311.471,0 0,-162.142 -311.471,0 0,162.142 z"
         id="path534"
         inkscape:connector-curvature="0" /></clipPath><clipPath
       clipPathUnits="userSpaceOnUse"
       id="clipPath550"><path
         d="m 138.501,722.438 311.471,0 0,-162.142 -311.471,0 0,162.142 z"
         id="path552"
         inkscape:connector-curvature="0" /></clipPath><clipPath
       clipPathUnits="userSpaceOnUse"
       id="clipPath566"><path
         d="m 138.501,722.438 311.471,0 0,-162.142 -311.471,0 0,162.142 z"
         id="path568"
         inkscape:connector-curvature="0" /></clipPath><clipPath
       clipPathUnits="userSpaceOnUse"
       id="clipPath582"><path
         d="m 138.501,722.438 311.471,0 0,-162.142 -311.471,0 0,162.142 z"
         id="path584"
         inkscape:connector-curvature="0" /></clipPath><clipPath
       clipPathUnits="userSpaceOnUse"
       id="clipPath598"><path
         d="m 138.501,722.438 311.471,0 0,-162.142 -311.471,0 0,162.142 z"
         id="path600"
         inkscape:connector-curvature="0" /></clipPath><clipPath
       clipPathUnits="userSpaceOnUse"
       id="clipPath654"><path
         d="m 138.501,722.438 311.471,0 0,-162.142 -311.471,0 0,162.142 z"
         id="path656"
         inkscape:connector-curvature="0" /></clipPath><clipPath
       clipPathUnits="userSpaceOnUse"
       id="clipPath670"><path
         d="m 138.501,722.438 311.471,0 0,-162.142 -311.471,0 0,162.142 z"
         id="path672"
         inkscape:connector-curvature="0" /></clipPath><clipPath
       clipPathUnits="userSpaceOnUse"
       id="clipPath686"><path
         d="m 138.501,722.438 311.471,0 0,-162.142 -311.471,0 0,162.142 z"
         id="path688"
         inkscape:connector-curvature="0" /></clipPath><clipPath
       clipPathUnits="userSpaceOnUse"
       id="clipPath702"><path
         d="m 138.501,722.438 311.471,0 0,-162.142 -311.471,0 0,162.142 z"
         id="path704"
         inkscape:connector-curvature="0" /></clipPath><clipPath
       clipPathUnits="userSpaceOnUse"
       id="clipPath720"><path
         d="m 138.501,722.438 311.471,0 0,-162.142 -311.471,0 0,162.142 z"
         id="path722"
         inkscape:connector-curvature="0" /></clipPath><clipPath
       clipPathUnits="userSpaceOnUse"
       id="clipPath736"><path
         d="m 138.501,722.438 311.471,0 0,-162.142 -311.471,0 0,162.142 z"
         id="path738"
         inkscape:connector-curvature="0" /></clipPath><clipPath
       clipPathUnits="userSpaceOnUse"
       id="clipPath752"><path
         d="m 138.501,722.438 311.471,0 0,-162.142 -311.471,0 0,162.142 z"
         id="path754"
         inkscape:connector-curvature="0" /></clipPath><clipPath
       clipPathUnits="userSpaceOnUse"
       id="clipPath768"><path
         d="m 138.501,722.438 311.471,0 0,-162.142 -311.471,0 0,162.142 z"
         id="path770"
         inkscape:connector-curvature="0" /></clipPath><clipPath
       clipPathUnits="userSpaceOnUse"
       id="clipPath824"><path
         d="m 138.501,722.438 311.471,0 0,-162.142 -311.471,0 0,162.142 z"
         id="path826"
         inkscape:connector-curvature="0" /></clipPath><clipPath
       clipPathUnits="userSpaceOnUse"
       id="clipPath840"><path
         d="m 138.501,722.438 311.471,0 0,-162.142 -311.471,0 0,162.142 z"
         id="path842"
         inkscape:connector-curvature="0" /></clipPath><clipPath
       clipPathUnits="userSpaceOnUse"
       id="clipPath856"><path
         d="m 138.501,722.438 311.471,0 0,-162.142 -311.471,0 0,162.142 z"
         id="path858"
         inkscape:connector-curvature="0" /></clipPath><clipPath
       clipPathUnits="userSpaceOnUse"
       id="clipPath872"><path
         d="m 138.501,722.438 311.471,0 0,-162.142 -311.471,0 0,162.142 z"
         id="path874"
         inkscape:connector-curvature="0" /></clipPath><clipPath
       clipPathUnits="userSpaceOnUse"
       id="clipPath888"><path
         d="m 138.501,722.438 311.471,0 0,-162.142 -311.471,0 0,162.142 z"
         id="path890"
         inkscape:connector-curvature="0" /></clipPath><clipPath
       clipPathUnits="userSpaceOnUse"
       id="clipPath906"><path
         d="m 138.501,722.438 311.471,0 0,-162.142 -311.471,0 0,162.142 z"
         id="path908"
         inkscape:connector-curvature="0" /></clipPath><clipPath
       clipPathUnits="userSpaceOnUse"
       id="clipPath922"><path
         d="m 138.501,722.438 311.471,0 0,-162.142 -311.471,0 0,162.142 z"
         id="path924"
         inkscape:connector-curvature="0" /></clipPath><clipPath
       clipPathUnits="userSpaceOnUse"
       id="clipPath938"><path
         d="m 138.501,722.438 311.471,0 0,-162.142 -311.471,0 0,162.142 z"
         id="path940"
         inkscape:connector-curvature="0" /></clipPath></defs><sodipodi:namedview
     pagecolor="#ffffff"
     bordercolor="#666666"
     borderopacity="1"
     objecttolerance="10"
     gridtolerance="10"
     guidetolerance="10"
     inkscape:pageopacity="0"
     inkscape:pageshadow="2"
     inkscape:window-width="1920"
     inkscape:window-height="1043"
     id="namedview4"
     showgrid="false"
     fit-margin-top="0"
     fit-margin-left="0"
     fit-margin-right="0"
     fit-margin-bottom="0"
     inkscape:zoom="1.5990152"
     inkscape:cx="126.70624"
     inkscape:cy="87.111216"
     inkscape:window-x="0"
     inkscape:window-y="0"
     inkscape:window-maximized="0"
     inkscape:current-layer="layer1" /><g
     id="g10"
     inkscape:groupmode="layer"
     inkscape:label="Analysing recombination in nucleotide sequences"
     transform="matrix(1.25,0,0,-1.25,-315.77153,914.673)"><text
       transform="matrix(1,0,0,-1,54.4252,46.430077)"
       style="font-variant:normal;font-weight:normal;font-size:7.96990013px;font-family:AdvPSSym;-inkscape-font-specification:AdvPSSym;writing-mode:lr-tb;fill:#231f20;fill-opacity:1;fill-rule:nonzero;stroke:none"
       id="text1004"><tspan
         x="0"
         y="0"
         id="tspan1006" /></text>
<g
       id="g5483"
       transform="translate(82.56685,1.9455055)"><path
         d="m 174.16061,626.98746 73.973,0 0,1.5381 -73.973,0 0,-1.5381 z"
         style="fill:#ffffff;fill-opacity:1;fill-rule:nonzero;stroke:none"
         id="path5278"
         inkscape:connector-curvature="0" /><path
         d="m 174.16061,628.52546 73.973,0 0,-1.5381 -73.973,0 0,1.5381 z"
         style="fill:none;stroke:#231f20;stroke-width:0.42699999;stroke-linecap:butt;stroke-linejoin:miter;stroke-miterlimit:14.33600044;stroke-dasharray:none;stroke-opacity:1"
         id="path5280"
         inkscape:connector-curvature="0" /><path
         d="m 174.16061,624.22546 73.973,0 0,1.5381 -73.973,0 0,-1.5381 z"
         style="fill:#ffffff;fill-opacity:1;fill-rule:nonzero;stroke:none"
         id="path5286"
         inkscape:connector-curvature="0" /><path
         d="m 174.16061,625.76346 73.973,0 0,-1.5381 -73.973,0 0,1.5381 z"
         style="fill:none;stroke:#231f20;stroke-width:0.42699999;stroke-linecap:butt;stroke-linejoin:miter;stroke-miterlimit:14.33600044;stroke-dasharray:none;stroke-opacity:1"
         id="path5288"
         inkscape:connector-curvature="0" /><path
         d="m 174.16061,621.46346 73.973,0 0,1.5376 -73.973,0 0,-1.5376 z"
         style="fill:#ffffff;fill-opacity:1;fill-rule:nonzero;stroke:none"
         id="path5294"
         inkscape:connector-curvature="0" /><path
         d="m 174.16061,623.00146 73.973,0 0,-1.5376 -73.973,0 0,1.5376 z"
         style="fill:none;stroke:#231f20;stroke-width:0.42699999;stroke-linecap:butt;stroke-linejoin:miter;stroke-miterlimit:14.33600044;stroke-dasharray:none;stroke-opacity:1"
         id="path5296"
         inkscape:connector-curvature="0" /><path
         d="m 174.16061,618.70046 73.973,0 0,1.538 -73.973,0 0,-1.538 z"
         style="fill:#ffffff;fill-opacity:1;fill-rule:nonzero;stroke:none"
         id="path5302"
         inkscape:connector-curvature="0" /><path
         d="m 174.16061,620.23846 73.973,0 0,-1.538 -73.973,0 0,1.538 z"
         style="fill:none;stroke:#231f20;stroke-width:0.42699999;stroke-linecap:butt;stroke-linejoin:miter;stroke-miterlimit:14.33600044;stroke-dasharray:none;stroke-opacity:1"
         id="path5304"
         inkscape:connector-curvature="0" /></g><g
       id="g5579"><path
         d="m 294.66589,711.83526 0,-9.85611 m -20.85272,0.26779 41.77099,0 m 0,0.43822 0,-26.98775 m -52.59156,0.0918 21.59058,0 m 19.95381,0.0487 21.58683,0 m -21.04748,0.13671 0,-26.98775 m 20.71039,26.98775 0,-26.98775 m -51.91738,53.66838 0,-26.98775 m 10.12018,0.36705 0,-26.98588 m -20.38268,27.30986 0,-26.98962"
         style="fill:none;stroke:#231f20;stroke-width:1.20041263;stroke-linecap:butt;stroke-linejoin:miter;stroke-miterlimit:14.33500004;stroke-dasharray:none;stroke-opacity:1"
         id="path5210"
         inkscape:connector-curvature="0" /><text
         transform="scale(1,-1)"
         style="font-variant:normal;font-weight:normal;font-size:6.79409981px;font-family:Geneva;-inkscape-font-specification:Geneva;writing-mode:lr-tb;fill:#231f20;fill-opacity:1;fill-rule:nonzero;stroke:#3b3738;stroke-width:0.25999999;stroke-linecap:butt;stroke-linejoin:miter;stroke-miterlimit:14.33500004;stroke-dasharray:none;stroke-opacity:1"
         id="text5364"
         x="260.73529"
         y="-641.12445"><tspan
           style="fill:#231f20;fill-opacity:1"
           x="260.73529"
           y="-641.12445"
           id="tspan5366">A</tspan></text>
<g
         style="fill:#231f20;fill-opacity:1"
         transform="translate(79.10817,-1.2544945)"
         id="g5444"><text
           y="-642.37891"
           x="202.32359"
           id="text5372"
           style="font-variant:normal;font-weight:normal;font-size:6.79409981px;font-family:Geneva;-inkscape-font-specification:Geneva;writing-mode:lr-tb;fill:#231f20;fill-opacity:1;stroke:#3b3738;stroke-width:0.25999999;stroke-linecap:butt;stroke-linejoin:miter;stroke-miterlimit:14.33500004;stroke-dasharray:none;stroke-opacity:1"
           transform="scale(1,-1)"><tspan
             style="fill:#231f20;fill-opacity:1"
             id="tspan5374"
             y="-642.37891"
             x="202.32359">B</tspan></text>
<text
           id="text5376"
           style="font-variant:normal;font-weight:normal;font-size:6.79409981px;font-family:Geneva;-inkscape-font-specification:Geneva;writing-mode:lr-tb;fill:#231f20;fill-opacity:1;fill-rule:nonzero;stroke:none"
           transform="scale(1,-1)"
           x="202.32359"
           y="-642.37891"><tspan
             style="fill:#231f20;fill-opacity:1"
             id="tspan5378"
             y="-642.37891"
             x="202.32359">B</tspan><tspan
             style="fill:#231f20;fill-opacity:1"
             id="tspan5380"
             y="-644.34784"
             x="206.64464" /></text>
</g><text
         transform="scale(1,-1)"
         style="font-variant:normal;font-weight:normal;font-size:6.79409981px;font-family:Geneva;-inkscape-font-specification:Geneva;writing-mode:lr-tb;fill:#231f20;fill-opacity:1;fill-rule:nonzero;stroke:#3b3738;stroke-width:0.25999999;stroke-linecap:butt;stroke-linejoin:miter;stroke-miterlimit:14.33500004;stroke-dasharray:none;stroke-opacity:1"
         id="text5382"
         x="302.13666"
         y="-641.12775"><tspan
           style="fill:#231f20;fill-opacity:1"
           x="302.13666"
           y="-641.12775"
           id="tspan5384">C</tspan></text>
<text
         transform="scale(1,-1)"
         style="font-variant:normal;font-weight:normal;font-size:6.79409981px;font-family:Geneva;-inkscape-font-specification:Geneva;writing-mode:lr-tb;fill:#231f20;fill-opacity:1;fill-rule:nonzero;stroke:#3b3738;stroke-width:0.25999999;stroke-linecap:butt;stroke-linejoin:miter;stroke-miterlimit:14.33500004;stroke-dasharray:none;stroke-opacity:1"
         id="text5392"
         x="323.48471"
         y="-641.12445"><tspan
           style="fill:#231f20;fill-opacity:1"
           x="323.48471"
           y="-641.12445"
           id="tspan5394">D</tspan></text>
</g><text
       xml:space="preserve"
       style="font-style:normal;font-variant:normal;font-weight:normal;font-stretch:normal;font-size:14px;line-height:125%;font-family:Lato;-inkscape-font-specification:'Lato, Normal';text-align:start;letter-spacing:0px;word-spacing:0px;writing-mode:lr-tb;text-anchor:start;fill:#000000;fill-opacity:1;stroke:none;stroke-width:1px;stroke-linecap:butt;stroke-linejoin:miter;stroke-opacity:1"
       x="251.86122"
       y="-720.60681"
       id="text5493"
       sodipodi:linespacing="125%"
       transform="scale(1,-1)"><tspan
         sodipodi:role="line"
         id="tspan5495"
         x="251.86122"
         y="-720.60681">6 parameters</tspan></text>
</g><g
     inkscape:groupmode="layer"
     id="layer1"
     inkscape:label="Analysing recombination in nucleotide sequences 1"
     style="display:inline"
     transform="translate(-103.7389,11.590497)">
text
       transform=&quot;matrix(1.25,0,0,1.25,-212.03263,903.0825)&quot;
       style=&quot;font-variant:normal;font-weight:normal;font-size:6.40019989px;font-family:Geneva;-inkscape-font-specification:Geneva;writing-mode:lr-tb;fill:none;stroke:#3b3738;stroke-width:0.25999999;stroke-linecap:butt;stroke-linejoin:miter;stroke-miterlimit:14.33500004;stroke-dasharray:none;stroke-opacity:1&quot;
       id=&quot;text942&quot;
       x=&quot;445.5311&quot;
       y=&quot;-578.77612&quot;&gt;<tspan
   x="445.5311"
   y="-578.77612"
   id="tspan944">D</tspan><g
   style="display:inline"
   id="g5312"
   transform="matrix(1.25,0,0,-1.25,-212.03263,915.0825)"><text
     id="text208"
     style="font-variant:normal;font-weight:normal;font-size:6.40019989px;font-family:Geneva;-inkscape-font-specification:Geneva;writing-mode:lr-tb;fill:#231f20;fill-opacity:1;fill-rule:nonzero;stroke:none"
     transform="matrix(1,0,0,-1,406.1243,678.3899)"><tspan
       id="tspan210"
       sodipodi:role="line"
       y="0"
       x="0 3.8791611">RE</tspan></text>
<path
     inkscape:connector-curvature="0"
     id="path220"
     style="fill:none;stroke:#231f20;stroke-width:1.28199995;stroke-linecap:butt;stroke-linejoin:miter;stroke-miterlimit:14.33500004;stroke-dasharray:none;stroke-opacity:1"
     d="m 409.158,722.466 0,-10.525 m -22.556,0.284 44.611,0 m 0,0.467 0.091,-20.38 m -55.973,-8.342 23.056,0 m 20.743,7.742 23.055,0 m -22.415,-0.254 -0.062,-36.112 m 21.707,36.397 0,-36.311 m -54.468,57.23 0,-28.822 m 10.811,0.392 0,-28.821 m -21.771,29.166 0,-28.821" /><text
     y="-647.78308"
     x="373.15149"
     id="text222"
     style="font-variant:normal;font-weight:normal;font-size:6.79409981px;font-family:Geneva;-inkscape-font-specification:Geneva;writing-mode:lr-tb;fill:#231f20;fill-opacity:1;fill-rule:nonzero;stroke:#3b3738;stroke-width:0.25999999;stroke-linecap:butt;stroke-linejoin:miter;stroke-miterlimit:14.33500004;stroke-dasharray:none;stroke-opacity:1"
     transform="scale(1,-1)"><tspan
       id="tspan224"
       y="-647.78308"
       x="373.15149">A</tspan></text>
<text
     id="text226"
     style="font-variant:normal;font-weight:normal;font-size:6.79409981px;font-family:Geneva;-inkscape-font-specification:Geneva;writing-mode:lr-tb;fill:#231f20;fill-opacity:1;fill-rule:nonzero;stroke:none"
     transform="matrix(1,0,0,-1,373.1515,647.7831)"><tspan
       id="tspan228"
       sodipodi:role="line"
       y="0"
       x="0 22.642017">AB</tspan></text>
<text
     y="-647.78308"
     x="395.7933"
     id="text238"
     style="font-variant:normal;font-weight:normal;font-size:6.79409981px;font-family:Geneva;-inkscape-font-specification:Geneva;writing-mode:lr-tb;fill:none;stroke:#3b3738;stroke-width:0.25999999;stroke-linecap:butt;stroke-linejoin:miter;stroke-miterlimit:14.33500004;stroke-dasharray:none;stroke-opacity:1"
     transform="scale(1,-1)"><tspan
       id="tspan240"
       y="-647.78308"
       x="395.7933">B</tspan></text>
<text
     id="text242"
     style="font-variant:normal;font-weight:normal;font-size:6.79409981px;font-family:Geneva;-inkscape-font-specification:Geneva;writing-mode:lr-tb;fill:#231f20;fill-opacity:1;fill-rule:nonzero;stroke:none"
     transform="matrix(1,0,0,-1,395.7933,647.7831)"><tspan
       id="tspan244"
       y="0"
       x="0">B</tspan><tspan
       id="tspan246"
       y="-1.9689302"
       x="4.3210478">*</tspan></text>
<text
     y="-647.78308"
     x="417.57919"
     id="text256"
     style="font-variant:normal;font-weight:normal;font-size:6.79409981px;font-family:Geneva;-inkscape-font-specification:Geneva;writing-mode:lr-tb;fill:#231f20;fill-opacity:1;fill-rule:nonzero;stroke:#3b3738;stroke-width:0.25999999;stroke-linecap:butt;stroke-linejoin:miter;stroke-miterlimit:14.33500004;stroke-dasharray:none;stroke-opacity:1"
     transform="scale(1,-1)"><tspan
       id="tspan258"
       y="-647.78308"
       x="417.57919">C</tspan></text>
<text
     id="text260"
     style="font-variant:normal;font-weight:normal;font-size:6.79409981px;font-family:Geneva;-inkscape-font-specification:Geneva;writing-mode:lr-tb;fill:#231f20;fill-opacity:1;fill-rule:nonzero;stroke:none"
     transform="matrix(1,0,0,-1,417.5792,647.7831)"><tspan
       id="tspan262"
       y="0"
       x="0">C</tspan><tspan
       id="tspan264"
       y="-1.9689302"
       x="4.4229593">*</tspan></text>
<text
     y="-647.78308"
     x="440.00809"
     id="text274"
     style="font-variant:normal;font-weight:normal;font-size:6.79409981px;font-family:Geneva;-inkscape-font-specification:Geneva;writing-mode:lr-tb;fill:#231f20;fill-opacity:1;fill-rule:nonzero;stroke:#3b3738;stroke-width:0.25999999;stroke-linecap:butt;stroke-linejoin:miter;stroke-miterlimit:14.33500004;stroke-dasharray:none;stroke-opacity:1"
     transform="scale(1,-1)"><tspan
       id="tspan276"
       y="-647.78308"
       x="440.00809">D</tspan></text>
<text
     id="text278"
     style="font-variant:normal;font-weight:normal;font-size:6.79409981px;font-family:Geneva;-inkscape-font-specification:Geneva;writing-mode:lr-tb;fill:#231f20;fill-opacity:1;fill-rule:nonzero;stroke:none"
     transform="matrix(1,0,0,-1,440.0081,647.7831)"><tspan
       id="tspan280"
       y="0"
       x="0">D</tspan></text>
<path
     inkscape:connector-curvature="0"
     id="path282"
     style="fill:#ffffff;fill-opacity:1;fill-rule:nonzero;stroke:none"
     d="m 393.595,666.218 29.264,0 0,9.6874 -29.264,0 0,-9.6874 z" /><path
     inkscape:connector-curvature="0"
     id="path284"
     style="fill:none;stroke:#231f20;stroke-width:1.28199995;stroke-linecap:butt;stroke-linejoin:miter;stroke-miterlimit:14.33500004;stroke-dasharray:none;stroke-opacity:1"
     d="m 397.338,676.366 2.99,0 m 1.281,0 2.991,0 m 1.282,0 2.99,0 m 1.282,0 2.99,0 m 1.282,0 2.99,0 m 1.282,0 1.353,0 m -22.824,-10.465 22.712,-10e-4 m -10.382,9.705 0,-9.707" /></g><path
   transform="matrix(1.25,0,0,-1.25,-212.03263,903.0825)"
   d="m 386.255,618.762 0,-5.263 m -11.135,0.143 22.305,0 m 0,0.234 0,-14.411 m -28.083,0.049 11.529,0 m 10.655,0.026 11.527,0 m -11.239,0.073 0,-14.411 m 11.059,14.411 0,-14.411 m -27.723,28.658 0,-14.411 m 5.404,0.196 0,-14.41 m -10.884,14.583 0,-14.412"
   style="display:inline;fill:none;stroke:#231f20;stroke-width:0.64099997;stroke-linecap:butt;stroke-linejoin:miter;stroke-miterlimit:14.33500004;stroke-dasharray:none;stroke-opacity:1"
   id="path818"
   inkscape:connector-curvature="0" /><text
   transform="matrix(1.25,0,0,1.25,247.00924,179.61237)"
   style="font-variant:normal;font-weight:normal;font-size:6.40019989px;font-family:Geneva;-inkscape-font-specification:Geneva;writing-mode:lr-tb;display:inline;fill:#231f20;fill-opacity:1;fill-rule:nonzero;stroke:none"
   id="text832"><tspan
     x="0 11.229791"
     y="0"
     sodipodi:role="line"
     id="tspan834">AB</tspan></text>
<text
   transform="matrix(1.25,0,0,1.25,275.00912,179.61237)"
   style="font-variant:normal;font-weight:normal;font-size:6.40019989px;font-family:Geneva;-inkscape-font-specification:Geneva;writing-mode:lr-tb;display:inline;fill:#231f20;fill-opacity:1;fill-rule:nonzero;stroke:none"
   id="text864"><tspan
     x="0 11.229791"
     y="0"
     sodipodi:role="line"
     id="tspan866">CD</tspan></text>
<path
   transform="matrix(1.25,0,0,-1.25,-212.03263,903.0825)"
   d="m 430.922,618.716 0,-5.263 m -11.136,0.142 22.307,0 m 0,0.234 0,-14.411 m -28.083,0.049 11.528,0 m 10.655,0.027 11.528,0 m -11.239,0.072 0,-14.41 m 11.058,14.41 0,-14.41 m -27.723,28.657 0,-14.41 m 5.404,0.195 0,-14.409 m -10.883,14.582 0,-14.41"
   style="display:inline;fill:none;stroke:#231f20;stroke-width:0.64099997;stroke-linecap:butt;stroke-linejoin:miter;stroke-miterlimit:14.33500004;stroke-dasharray:none;stroke-opacity:1"
   id="path892"
   inkscape:connector-curvature="0" /><text
   transform="matrix(1.25,0,0,1.25,302.84262,179.61237)"
   style="font-variant:normal;font-weight:normal;font-size:6.40019989px;font-family:Geneva;-inkscape-font-specification:Geneva;writing-mode:lr-tb;display:inline;fill:#231f20;fill-opacity:1;fill-rule:nonzero;stroke:none"
   id="text898"><tspan
     x="0 11.231071"
     y="0"
     sodipodi:role="line"
     id="tspan900">AC</tspan></text>
<text
   transform="matrix(1.25,0,0,1.25,316.88137,179.61237)"
   style="font-variant:normal;font-weight:normal;font-size:6.40019989px;font-family:Geneva;-inkscape-font-specification:Geneva;writing-mode:lr-tb;display:inline;fill:#231f20;fill-opacity:1;fill-rule:nonzero;stroke:none"
   id="text914"><tspan
     x="0 11.168989"
     y="0"
     sodipodi:role="line"
     id="tspan916">CB</tspan></text>
<text
   style="font-variant:normal;font-weight:normal;font-size:8.00024986px;font-family:Geneva;-inkscape-font-specification:Geneva;writing-mode:lr-tb;fill:#231f20;fill-opacity:1;fill-rule:nonzero;stroke:none"
   id="text946"
   x="241.05899"
   y="191.21237"
   transform="translate(103.7389,-11.590497)"><tspan
     x="241.05899"
     y="191.21237"
     id="tspan948">D</tspan></text>
<path
   d="m 148.75514,128.52751 46.1375,0 0,-1.92262 -46.1375,0 0,1.92262 z"
   style="fill:#ffffff;fill-opacity:1;fill-rule:nonzero;stroke:none"
   id="path950"
   inkscape:connector-curvature="0"
   transform="translate(103.7389,-11.590497)" /><path
   d="m 148.75514,126.60501 46.1375,0 0,1.92263 -46.1375,0 0,-1.92263 z"
   style="fill:none;stroke:#231f20;stroke-width:0.53375;stroke-linecap:butt;stroke-linejoin:miter;stroke-miterlimit:14.33600044;stroke-dasharray:none;stroke-opacity:1"
   id="path952"
   inkscape:connector-curvature="0"
   transform="translate(103.7389,-11.590497)" /><path
   d="m 194.93014,128.52751 46.13625,0 0,-1.92262 -46.13625,0 0,1.92262 z"
   style="fill:#e0dfe0;fill-opacity:1;fill-rule:nonzero;stroke:none"
   id="path954"
   inkscape:connector-curvature="0"
   transform="translate(103.7389,-11.590497)" /><path
   d="m 194.93014,126.60501 46.13625,0 0,1.92263 -46.13625,0 0,-1.92263 z"
   style="fill:none;stroke:#231f20;stroke-width:0.53375;stroke-linecap:butt;stroke-linejoin:miter;stroke-miterlimit:14.33600044;stroke-dasharray:none;stroke-opacity:1"
   id="path956"
   inkscape:connector-curvature="0"
   transform="translate(103.7389,-11.590497)" /><path
   d="m 148.75514,131.98001 46.1375,0 0,-1.92263 -46.1375,0 0,1.92263 z"
   style="fill:#ffffff;fill-opacity:1;fill-rule:nonzero;stroke:none"
   id="path958"
   inkscape:connector-curvature="0"
   transform="translate(103.7389,-11.590497)" /><path
   d="m 148.75514,130.05751 46.1375,0 0,1.92262 -46.1375,0 0,-1.92262 z"
   style="fill:none;stroke:#231f20;stroke-width:0.53375;stroke-linecap:butt;stroke-linejoin:miter;stroke-miterlimit:14.33600044;stroke-dasharray:none;stroke-opacity:1"
   id="path960"
   inkscape:connector-curvature="0"
   transform="translate(103.7389,-11.590497)" /><path
   d="m 194.93014,131.98001 46.13625,0 0,-1.92263 -46.13625,0 0,1.92263 z"
   style="fill:#e0dfe0;fill-opacity:1;fill-rule:nonzero;stroke:none"
   id="path962"
   inkscape:connector-curvature="0"
   transform="translate(103.7389,-11.590497)" /><path
   d="m 194.93014,130.05751 46.13625,0 0,1.92262 -46.13625,0 0,-1.92262 z"
   style="fill:none;stroke:#231f20;stroke-width:0.53375;stroke-linecap:butt;stroke-linejoin:miter;stroke-miterlimit:14.33600044;stroke-dasharray:none;stroke-opacity:1"
   id="path964"
   inkscape:connector-curvature="0"
   transform="translate(103.7389,-11.590497)" /><path
   d="m 148.75514,135.43251 46.1375,0 0,-1.922 -46.1375,0 0,1.922 z"
   style="fill:#ffffff;fill-opacity:1;fill-rule:nonzero;stroke:none"
   id="path966"
   inkscape:connector-curvature="0"
   transform="translate(103.7389,-11.590497)" /><path
   d="m 148.75514,133.51001 46.1375,0 0,1.922 -46.1375,0 0,-1.922 z"
   style="fill:none;stroke:#231f20;stroke-width:0.53375;stroke-linecap:butt;stroke-linejoin:miter;stroke-miterlimit:14.33600044;stroke-dasharray:none;stroke-opacity:1"
   id="path968"
   inkscape:connector-curvature="0"
   transform="translate(103.7389,-11.590497)" /><path
   d="m 194.93014,135.43251 46.13625,0 0,-1.922 -46.13625,0 0,1.922 z"
   style="fill:#e0dfe0;fill-opacity:1;fill-rule:nonzero;stroke:none"
   id="path970"
   inkscape:connector-curvature="0"
   transform="translate(103.7389,-11.590497)" /><path
   d="m 194.93014,133.51001 46.13625,0 0,1.922 -46.13625,0 0,-1.922 z"
   style="fill:none;stroke:#231f20;stroke-width:0.53375;stroke-linecap:butt;stroke-linejoin:miter;stroke-miterlimit:14.33600044;stroke-dasharray:none;stroke-opacity:1"
   id="path972"
   inkscape:connector-curvature="0"
   transform="translate(103.7389,-11.590497)" /><path
   d="m 148.75514,138.88626 46.1375,0 0,-1.9225 -46.1375,0 0,1.9225 z"
   style="fill:#ffffff;fill-opacity:1;fill-rule:nonzero;stroke:none"
   id="path974"
   inkscape:connector-curvature="0"
   transform="translate(103.7389,-11.590497)" /><path
   d="m 148.75514,136.96376 46.1375,0 0,1.9225 -46.1375,0 0,-1.9225 z"
   style="fill:none;stroke:#231f20;stroke-width:0.53375;stroke-linecap:butt;stroke-linejoin:miter;stroke-miterlimit:14.33600044;stroke-dasharray:none;stroke-opacity:1"
   id="path976"
   inkscape:connector-curvature="0"
   transform="translate(103.7389,-11.590497)" /><path
   d="m 194.93014,138.88626 46.13625,0 0,-1.9225 -46.13625,0 0,1.9225 z"
   style="fill:#e0dfe0;fill-opacity:1;fill-rule:nonzero;stroke:none"
   id="path978"
   inkscape:connector-curvature="0"
   transform="translate(103.7389,-11.590497)" /><path
   d="m 194.93014,136.96376 46.13625,0 0,1.9225 -46.13625,0 0,-1.9225 z"
   style="fill:none;stroke:#231f20;stroke-width:0.53375;stroke-linecap:butt;stroke-linejoin:miter;stroke-miterlimit:14.33600044;stroke-dasharray:none;stroke-opacity:1"
   id="path980"
   inkscape:connector-curvature="0"
   transform="translate(103.7389,-11.590497)" /><path
   d="m 195.02889,122.79876 0,2.66875 m 0,1.6025 0,2.67 m 0,1.6025 0,2.66875 m 0,1.6025 0,2.67 m 0,1.60125 0,2.67 m 0,1.6025 0,2.67 m 0,1.6025 0,2.67 m 0,1.60125 0,2.67 m 0,1.6025 0,2.67 m 0,1.60125 0,2.67125 m 0,1.60125 0,2.67 m 0,1.6025 0,2.66875 m 0,1.6025 0,2.67 m 0,1.6025 0,2.66875 m 0,1.6025 0,2.67 m 0,1.6025 0,1.28125"
   style="fill:none;stroke:#231f20;stroke-width:0.53375;stroke-linecap:butt;stroke-linejoin:miter;stroke-miterlimit:14.33500004;stroke-dasharray:none;stroke-opacity:1"
   id="path986"
   inkscape:connector-curvature="0"
   transform="translate(103.7389,-11.590497)" /><text
   xml:space="preserve"
   style="font-style:normal;font-variant:normal;font-weight:normal;font-stretch:normal;font-size:17.5px;line-height:125%;font-family:Lato;-inkscape-font-specification:'Lato, Normal';text-align:start;letter-spacing:0px;word-spacing:0px;writing-mode:lr-tb;text-anchor:start;fill:#000000;fill-opacity:1;stroke:none;stroke-width:1px;stroke-linecap:butt;stroke-linejoin:miter;stroke-opacity:1"
   x="132.71832"
   y="12.688266"
   id="text5497"
   sodipodi:linespacing="125%"
   transform="translate(103.7389,-11.590497)"><tspan
     sodipodi:role="line"
     id="tspan5499"
     x="132.71832"
     y="12.688266">12 parameters</tspan></text>
</g></svg>