<?xml version="1.0" encoding="UTF-8" standalone="no"?>
<svg
   xmlns:dc="http://purl.org/dc/elements/1.1/"
   xmlns:cc="http://creativecommons.org/ns#"
   xmlns:rdf="http://www.w3.org/1999/02/22-rdf-syntax-ns#"
   xmlns:svg="http://www.w3.org/2000/svg"
   xmlns="http://www.w3.org/2000/svg"
   viewBox="0 0 253.41247 191.47862"
   height="191.47862"
   width="253.41248"
   xml:space="preserve"
   version="1.1"
   id="svg2"><metadata
     id="metadata8"><rdf:RDF><cc:Work
         rdf:about=""><dc:format>image/svg+xml</dc:format><dc:type
           rdf:resource="http://purl.org/dc/dcmitype/StillImage" /><dc:title /></cc:Work></rdf:RDF></metadata><defs
     id="defs6"><clipPath
       id="clipPath216"
       clipPathUnits="userSpaceOnUse"><path
         id="path218"
         d="m 138.501,722.438 311.471,0 0,-162.142 -311.471,0 0,162.142 z" /></clipPath><clipPath
       id="clipPath234"
       clipPathUnits="userSpaceOnUse"><path
         id="path236"
         d="m 138.501,722.438 311.471,0 0,-162.142 -311.471,0 0,162.142 z" /></clipPath><clipPath
       id="clipPath252"
       clipPathUnits="userSpaceOnUse"><path
         id="path254"
         d="m 138.501,722.438 311.471,0 0,-162.142 -311.471,0 0,162.142 z" /></clipPath><clipPath
       id="clipPath270"
       clipPathUnits="userSpaceOnUse"><path
         id="path272"
         d="m 138.501,722.438 311.471,0 0,-162.142 -311.471,0 0,162.142 z" /></clipPath><clipPath
       id="clipPath294"
       clipPathUnits="userSpaceOnUse"><path
         id="path296"
         d="m 138.501,722.438 311.471,0 0,-162.142 -311.471,0 0,162.142 z" /></clipPath><clipPath
       id="clipPath312"
       clipPathUnits="userSpaceOnUse"><path
         id="path314"
         d="m 138.501,722.438 311.471,0 0,-162.142 -311.471,0 0,162.142 z" /></clipPath><clipPath
       id="clipPath330"
       clipPathUnits="userSpaceOnUse"><path
         id="path332"
         d="m 138.501,722.438 311.471,0 0,-162.142 -311.471,0 0,162.142 z" /></clipPath><clipPath
       id="clipPath346"
       clipPathUnits="userSpaceOnUse"><path
         id="path348"
         d="m 138.501,722.438 311.471,0 0,-162.142 -311.471,0 0,162.142 z" /></clipPath><clipPath
       id="clipPath362"
       clipPathUnits="userSpaceOnUse"><path
         id="path364"
         d="m 138.501,722.438 311.471,0 0,-162.142 -311.471,0 0,162.142 z" /></clipPath><clipPath
       id="clipPath378"
       clipPathUnits="userSpaceOnUse"><path
         id="path380"
         d="m 138.501,722.438 311.471,0 0,-162.142 -311.471,0 0,162.142 z" /></clipPath><clipPath
       id="clipPath394"
       clipPathUnits="userSpaceOnUse"><path
         id="path396"
         d="m 138.501,722.438 311.471,0 0,-162.142 -311.471,0 0,162.142 z" /></clipPath><clipPath
       id="clipPath412"
       clipPathUnits="userSpaceOnUse"><path
         id="path414"
         d="m 138.501,722.438 311.471,0 0,-162.142 -311.471,0 0,162.142 z" /></clipPath><clipPath
       id="clipPath428"
       clipPathUnits="userSpaceOnUse"><path
         id="path430"
         d="m 138.501,722.438 311.471,0 0,-162.142 -311.471,0 0,162.142 z" /></clipPath><clipPath
       id="clipPath450"
       clipPathUnits="userSpaceOnUse"><path
         id="path452"
         d="m 138.501,722.438 311.471,0 0,-162.142 -311.471,0 0,162.142 z" /></clipPath><clipPath
       id="clipPath466"
       clipPathUnits="userSpaceOnUse"><path
         id="path468"
         d="m 138.501,722.438 311.471,0 0,-162.142 -311.471,0 0,162.142 z" /></clipPath><clipPath
       id="clipPath484"
       clipPathUnits="userSpaceOnUse"><path
         id="path486"
         d="m 138.501,722.438 311.471,0 0,-162.142 -311.471,0 0,162.142 z" /></clipPath><clipPath
       id="clipPath500"
       clipPathUnits="userSpaceOnUse"><path
         id="path502"
         d="m 138.501,722.438 311.471,0 0,-162.142 -311.471,0 0,162.142 z" /></clipPath><clipPath
       id="clipPath516"
       clipPathUnits="userSpaceOnUse"><path
         id="path518"
         d="m 138.501,722.438 311.471,0 0,-162.142 -311.471,0 0,162.142 z" /></clipPath><clipPath
       id="clipPath532"
       clipPathUnits="userSpaceOnUse"><path
         id="path534"
         d="m 138.501,722.438 311.471,0 0,-162.142 -311.471,0 0,162.142 z" /></clipPath><clipPath
       id="clipPath550"
       clipPathUnits="userSpaceOnUse"><path
         id="path552"
         d="m 138.501,722.438 311.471,0 0,-162.142 -311.471,0 0,162.142 z" /></clipPath><clipPath
       id="clipPath566"
       clipPathUnits="userSpaceOnUse"><path
         id="path568"
         d="m 138.501,722.438 311.471,0 0,-162.142 -311.471,0 0,162.142 z" /></clipPath><clipPath
       id="clipPath582"
       clipPathUnits="userSpaceOnUse"><path
         id="path584"
         d="m 138.501,722.438 311.471,0 0,-162.142 -311.471,0 0,162.142 z" /></clipPath><clipPath
       id="clipPath598"
       clipPathUnits="userSpaceOnUse"><path
         id="path600"
         d="m 138.501,722.438 311.471,0 0,-162.142 -311.471,0 0,162.142 z" /></clipPath><clipPath
       id="clipPath654"
       clipPathUnits="userSpaceOnUse"><path
         id="path656"
         d="m 138.501,722.438 311.471,0 0,-162.142 -311.471,0 0,162.142 z" /></clipPath><clipPath
       id="clipPath670"
       clipPathUnits="userSpaceOnUse"><path
         id="path672"
         d="m 138.501,722.438 311.471,0 0,-162.142 -311.471,0 0,162.142 z" /></clipPath><clipPath
       id="clipPath686"
       clipPathUnits="userSpaceOnUse"><path
         id="path688"
         d="m 138.501,722.438 311.471,0 0,-162.142 -311.471,0 0,162.142 z" /></clipPath><clipPath
       id="clipPath702"
       clipPathUnits="userSpaceOnUse"><path
         id="path704"
         d="m 138.501,722.438 311.471,0 0,-162.142 -311.471,0 0,162.142 z" /></clipPath><clipPath
       id="clipPath720"
       clipPathUnits="userSpaceOnUse"><path
         id="path722"
         d="m 138.501,722.438 311.471,0 0,-162.142 -311.471,0 0,162.142 z" /></clipPath><clipPath
       id="clipPath736"
       clipPathUnits="userSpaceOnUse"><path
         id="path738"
         d="m 138.501,722.438 311.471,0 0,-162.142 -311.471,0 0,162.142 z" /></clipPath><clipPath
       id="clipPath752"
       clipPathUnits="userSpaceOnUse"><path
         id="path754"
         d="m 138.501,722.438 311.471,0 0,-162.142 -311.471,0 0,162.142 z" /></clipPath><clipPath
       id="clipPath768"
       clipPathUnits="userSpaceOnUse"><path
         id="path770"
         d="m 138.501,722.438 311.471,0 0,-162.142 -311.471,0 0,162.142 z" /></clipPath><clipPath
       id="clipPath824"
       clipPathUnits="userSpaceOnUse"><path
         id="path826"
         d="m 138.501,722.438 311.471,0 0,-162.142 -311.471,0 0,162.142 z" /></clipPath><clipPath
       id="clipPath840"
       clipPathUnits="userSpaceOnUse"><path
         id="path842"
         d="m 138.501,722.438 311.471,0 0,-162.142 -311.471,0 0,162.142 z" /></clipPath><clipPath
       id="clipPath856"
       clipPathUnits="userSpaceOnUse"><path
         id="path858"
         d="m 138.501,722.438 311.471,0 0,-162.142 -311.471,0 0,162.142 z" /></clipPath><clipPath
       id="clipPath872"
       clipPathUnits="userSpaceOnUse"><path
         id="path874"
         d="m 138.501,722.438 311.471,0 0,-162.142 -311.471,0 0,162.142 z" /></clipPath><clipPath
       id="clipPath888"
       clipPathUnits="userSpaceOnUse"><path
         id="path890"
         d="m 138.501,722.438 311.471,0 0,-162.142 -311.471,0 0,162.142 z" /></clipPath><clipPath
       id="clipPath906"
       clipPathUnits="userSpaceOnUse"><path
         id="path908"
         d="m 138.501,722.438 311.471,0 0,-162.142 -311.471,0 0,162.142 z" /></clipPath><clipPath
       id="clipPath922"
       clipPathUnits="userSpaceOnUse"><path
         id="path924"
         d="m 138.501,722.438 311.471,0 0,-162.142 -311.471,0 0,162.142 z" /></clipPath><clipPath
       id="clipPath938"
       clipPathUnits="userSpaceOnUse"><path
         id="path940"
         d="m 138.501,722.438 311.471,0 0,-162.142 -311.471,0 0,162.142 z" /></clipPath></defs><g
     transform="matrix(1.25,0,0,-1.25,-315.77153,914.673)"
     id="g10"><g
       id="text1004"
       style="font-variant:normal;font-weight:normal;font-size:7.96990013px;font-family:AdvPSSym;-inkscape-font-specification:AdvPSSym;writing-mode:lr-tb;fill:#231f20;fill-opacity:1;fill-rule:nonzero;stroke:none"
       transform="matrix(1,0,0,-1,54.4252,46.430077)" /><g
       transform="translate(82.56685,1.9455055)"
       id="g5483"><path
         id="path5278"
         style="fill:#ffffff;fill-opacity:1;fill-rule:nonzero;stroke:none"
         d="m 174.16061,626.98746 73.973,0 0,1.5381 -73.973,0 0,-1.5381 z" /><path
         id="path5280"
         style="fill:none;stroke:#231f20;stroke-width:0.42699999;stroke-linecap:butt;stroke-linejoin:miter;stroke-miterlimit:14.33600044;stroke-dasharray:none;stroke-opacity:1"
         d="m 174.16061,628.52546 73.973,0 0,-1.5381 -73.973,0 0,1.5381 z" /><path
         id="path5286"
         style="fill:#ffffff;fill-opacity:1;fill-rule:nonzero;stroke:none"
         d="m 174.16061,624.22546 73.973,0 0,1.5381 -73.973,0 0,-1.5381 z" /><path
         id="path5288"
         style="fill:none;stroke:#231f20;stroke-width:0.42699999;stroke-linecap:butt;stroke-linejoin:miter;stroke-miterlimit:14.33600044;stroke-dasharray:none;stroke-opacity:1"
         d="m 174.16061,625.76346 73.973,0 0,-1.5381 -73.973,0 0,1.5381 z" /><path
         id="path5294"
         style="fill:#ffffff;fill-opacity:1;fill-rule:nonzero;stroke:none"
         d="m 174.16061,621.46346 73.973,0 0,1.5376 -73.973,0 0,-1.5376 z" /><path
         id="path5296"
         style="fill:none;stroke:#231f20;stroke-width:0.42699999;stroke-linecap:butt;stroke-linejoin:miter;stroke-miterlimit:14.33600044;stroke-dasharray:none;stroke-opacity:1"
         d="m 174.16061,623.00146 73.973,0 0,-1.5376 -73.973,0 0,1.5376 z" /><path
         id="path5302"
         style="fill:#ffffff;fill-opacity:1;fill-rule:nonzero;stroke:none"
         d="m 174.16061,618.70046 73.973,0 0,1.538 -73.973,0 0,-1.538 z" /><path
         id="path5304"
         style="fill:none;stroke:#231f20;stroke-width:0.42699999;stroke-linecap:butt;stroke-linejoin:miter;stroke-miterlimit:14.33600044;stroke-dasharray:none;stroke-opacity:1"
         d="m 174.16061,620.23846 73.973,0 0,-1.538 -73.973,0 0,1.538 z" /></g><g
       id="g5579"><path
         id="path5210"
         style="fill:none;stroke:#231f20;stroke-width:1.20041263;stroke-linecap:butt;stroke-linejoin:miter;stroke-miterlimit:14.33500004;stroke-dasharray:none;stroke-opacity:1"
         d="m 294.66589,711.83526 0,-9.85611 m -20.85272,0.26779 41.77099,0 m 0,0.43822 0,-26.98775 m -52.59156,0.0918 21.59058,0 m 19.95381,0.0487 21.58683,0 m -21.04748,0.13671 0,-26.98775 m 20.71039,26.98775 0,-26.98775 m -51.91738,53.66838 0,-26.98775 m 10.12018,0.36705 0,-26.98588 m -20.38268,27.30986 0,-26.98962" /><g
         id="text5364"
         style="font-variant:normal;font-weight:normal;font-size:6.79409981px;font-family:Geneva;-inkscape-font-specification:Geneva;writing-mode:lr-tb;fill:#231f20;fill-opacity:1;fill-rule:nonzero;stroke:#3b3738;stroke-width:0.25999999;stroke-linecap:butt;stroke-linejoin:miter;stroke-miterlimit:14.33500004;stroke-dasharray:none;stroke-opacity:1"
         transform="scale(1,-1)"><path
           id="path171"
           style="fill:#231f20;fill-opacity:1"
           d="m 263.05749,-645.41721 -0.90897,2.46485 1.82127,0 -0.9123,-2.46485 z m -0.37818,-0.66017 0.75969,0 1.88762,4.95293 -0.69666,0 -0.45118,-1.27058 -2.23263,0 -0.45117,1.27058 -0.70661,0 1.89094,-4.95293 z" /></g><g
         id="g5444"
         transform="translate(79.10817,-1.2544945)"
         style="fill:#231f20;fill-opacity:1"><g
           id="text5372"
           style="font-variant:normal;font-weight:normal;font-size:6.79409981px;font-family:Geneva;-inkscape-font-specification:Geneva;writing-mode:lr-tb;fill:#231f20;fill-opacity:1;stroke:#3b3738;stroke-width:0.25999999;stroke-linecap:butt;stroke-linejoin:miter;stroke-miterlimit:14.33500004;stroke-dasharray:none;stroke-opacity:1"
           transform="scale(1,-1)"><path
             id="path174"
             style="fill:#231f20;fill-opacity:1"
             d="m 203.66052,-644.74423 0,1.81463 1.07485,0 q 0.54074,0 0.7995,-0.22227 0.26207,-0.22558 0.26207,-0.68671 0,-0.46444 -0.26207,-0.68339 -0.25876,-0.22226 -0.7995,-0.22226 l -1.07485,0 z m 0,-2.03691 0,1.49285 0.99191,0 q 0.49098,0 0.72984,-0.18246 0.24217,-0.18578 0.24217,-0.56397 0,-0.37487 -0.24217,-0.56064 -0.23886,-0.18578 -0.72984,-0.18578 l -0.99191,0 z m -0.67012,-0.55069 1.71179,0 q 0.76633,0 1.18101,0.31847 0.41468,0.31848 0.41468,0.90566 0,0.45449 -0.21232,0.7232 -0.21232,0.26871 -0.62368,0.33506 0.4943,0.10616 0.76633,0.44454 0.27535,0.33506 0.27535,0.83931 0,0.66348 -0.45117,1.02508 -0.45117,0.3616 -1.28385,0.3616 l -1.77814,0 0,-4.95292 z" /></g><g
           id="text5376"
           style="font-variant:normal;font-weight:normal;font-size:6.79409981px;font-family:Geneva;-inkscape-font-specification:Geneva;writing-mode:lr-tb;fill:#231f20;fill-opacity:1;fill-rule:nonzero;stroke:none"
           transform="scale(1,-1)"><path
             id="path177"
             style="fill:#231f20;fill-opacity:1"
             d="m 203.66052,-644.74423 0,1.81463 1.07485,0 q 0.54074,0 0.7995,-0.22227 0.26207,-0.22558 0.26207,-0.68671 0,-0.46444 -0.26207,-0.68339 -0.25876,-0.22226 -0.7995,-0.22226 l -1.07485,0 z m 0,-2.03691 0,1.49285 0.99191,0 q 0.49098,0 0.72984,-0.18246 0.24217,-0.18578 0.24217,-0.56397 0,-0.37487 -0.24217,-0.56064 -0.23886,-0.18578 -0.72984,-0.18578 l -0.99191,0 z m -0.67012,-0.55069 1.71179,0 q 0.76633,0 1.18101,0.31847 0.41468,0.31848 0.41468,0.90566 0,0.45449 -0.21232,0.7232 -0.21232,0.26871 -0.62368,0.33506 0.4943,0.10616 0.76633,0.44454 0.27535,0.33506 0.27535,0.83931 0,0.66348 -0.45117,1.02508 -0.45117,0.3616 -1.28385,0.3616 l -1.77814,0 0,-4.95292 z" /></g></g><g
         id="text5382"
         style="font-variant:normal;font-weight:normal;font-size:6.79409981px;font-family:Geneva;-inkscape-font-specification:Geneva;writing-mode:lr-tb;fill:#231f20;fill-opacity:1;fill-rule:nonzero;stroke:#3b3738;stroke-width:0.25999999;stroke-linecap:butt;stroke-linejoin:miter;stroke-miterlimit:14.33500004;stroke-dasharray:none;stroke-opacity:1"
         transform="scale(1,-1)"><path
           id="path180"
           style="fill:#231f20;fill-opacity:1"
           d="m 306.51235,-645.69917 0,0.70662 q -0.33838,-0.31516 -0.7232,-0.47108 -0.3815,-0.15592 -0.81277,-0.15592 -0.84926,0 -1.30043,0.52084 -0.45117,0.51752 -0.45117,1.49948 0,0.97864 0.45117,1.49948 0.45117,0.51752 1.30043,0.51752 0.43127,0 0.81277,-0.15592 0.38482,-0.15592 0.7232,-0.47108 l 0,0.69998 q -0.35165,0.23885 -0.74642,0.35828 -0.39146,0.11943 -0.82936,0.11943 -1.12461,0 -1.77151,-0.68671 -0.6469,-0.69003 -0.6469,-1.88098 0,-1.19428 0.6469,-1.88099 0.6469,-0.69002 1.77151,-0.69002 0.44454,0 0.83599,0.11943 0.39478,0.11611 0.73979,0.35164 z" /></g><g
         id="text5392"
         style="font-variant:normal;font-weight:normal;font-size:6.79409981px;font-family:Geneva;-inkscape-font-specification:Geneva;writing-mode:lr-tb;fill:#231f20;fill-opacity:1;fill-rule:nonzero;stroke:#3b3738;stroke-width:0.25999999;stroke-linecap:butt;stroke-linejoin:miter;stroke-miterlimit:14.33500004;stroke-dasharray:none;stroke-opacity:1"
         transform="scale(1,-1)"><path
           id="path183"
           style="fill:#231f20;fill-opacity:1"
           d="m 324.82164,-645.52668 0,3.85154 0.80945,0 q 1.02509,0 1.49948,-0.46444 0.47771,-0.46445 0.47771,-1.46631 0,-0.99523 -0.47771,-1.45635 -0.47439,-0.46444 -1.49948,-0.46444 l -0.80945,0 z m -0.67013,-0.5507 1.37674,0 q 1.43976,0 2.1132,0.60046 0.67344,0.59714 0.67344,1.87103 0,1.28053 -0.67676,1.88098 -0.67675,0.60046 -2.10988,0.60046 l -1.37674,0 0,-4.95293 z" /></g></g><g
       id="text5493"
       style="font-style:normal;font-variant:normal;font-weight:normal;font-stretch:normal;font-size:14px;line-height:125%;font-family:Lato;-inkscape-font-specification:'Lato, Normal';text-align:start;letter-spacing:0px;word-spacing:0px;writing-mode:lr-tb;text-anchor:start;fill:#000000;fill-opacity:1;stroke:none;stroke-width:1px;stroke-linecap:butt;stroke-linejoin:miter;stroke-opacity:1"
       transform="scale(1,-1)"><path
         id="path186"
         style=""
         d="m 255.17922,-726.87881 q -0.14,0.168 -0.259,0.329 -0.119,0.161 -0.238,0.315 0.357,-0.245 0.784,-0.378 0.434,-0.14 0.938,-0.14 0.609,0 1.148,0.203 0.539,0.196 0.938,0.581 0.406,0.378 0.644,0.938 0.238,0.553 0.238,1.267 0,0.693 -0.252,1.288 -0.252,0.595 -0.707,1.036 -0.448,0.441 -1.085,0.693 -0.63,0.252 -1.393,0.252 -0.756,0 -1.372,-0.238 -0.616,-0.245 -1.05,-0.686 -0.427,-0.448 -0.665,-1.078 -0.231,-0.637 -0.231,-1.421 0,-0.658 0.287,-1.4 0.294,-0.749 0.931,-1.596 l 2.548,-3.423 q 0.098,-0.126 0.266,-0.21 0.175,-0.091 0.399,-0.091 l 1.106,0 -2.975,3.759 z m -1.365,3.178 q 0,0.483 0.14,0.882 0.14,0.399 0.406,0.686 0.273,0.287 0.658,0.448 0.392,0.154 0.889,0.154 0.504,0 0.91,-0.161 0.413,-0.161 0.7,-0.448 0.294,-0.287 0.448,-0.679 0.161,-0.392 0.161,-0.854 0,-0.49 -0.154,-0.882 -0.154,-0.399 -0.441,-0.672 -0.28,-0.28 -0.672,-0.427 -0.392,-0.147 -0.861,-0.147 -0.504,0 -0.91,0.175 -0.406,0.168 -0.693,0.462 -0.28,0.287 -0.434,0.672 -0.147,0.378 -0.147,0.791 z" /><path
         id="path188"
         style=""
         d="m 264.55135,-718.20581 0,-9.492 0.749,0 q 0.266,0 0.329,0.259 l 0.105,0.84 q 0.455,-0.553 1.043,-0.889 0.588,-0.336 1.344,-0.336 0.616,0 1.113,0.238 0.497,0.231 0.847,0.693 0.35,0.455 0.539,1.134 0.189,0.679 0.189,1.561 0,0.784 -0.21,1.463 -0.21,0.672 -0.609,1.169 -0.392,0.49 -0.966,0.777 -0.567,0.28 -1.281,0.28 -0.651,0 -1.12,-0.217 -0.462,-0.217 -0.819,-0.616 l 0,3.136 -1.253,0 z m 3.164,-8.61 q -0.609,0 -1.071,0.28 -0.455,0.28 -0.84,0.791 l 0,3.43 q 0.336,0.462 0.742,0.651 0.413,0.189 0.917,0.189 0.994,0 1.526,-0.707 0.532,-0.707 0.532,-2.016 0,-0.693 -0.126,-1.19 -0.119,-0.497 -0.35,-0.812 -0.231,-0.322 -0.567,-0.469 -0.336,-0.147 -0.763,-0.147 z" /><path
         id="path190"
         style=""
         d="m 276.907,-720.60681 q -0.182,0 -0.28,-0.056 -0.098,-0.063 -0.154,-0.238 l -0.14,-0.665 q -0.28,0.252 -0.553,0.455 -0.266,0.196 -0.56,0.336 -0.287,0.133 -0.623,0.203 -0.329,0.077 -0.735,0.077 -0.413,0 -0.777,-0.112 -0.364,-0.119 -0.637,-0.35 -0.266,-0.231 -0.427,-0.581 -0.154,-0.357 -0.154,-0.84 0,-0.42 0.231,-0.805 0.231,-0.392 0.749,-0.693 0.518,-0.301 1.351,-0.49 0.833,-0.196 2.044,-0.224 l 0,-0.553 q 0,-0.826 -0.357,-1.246 -0.357,-0.427 -1.043,-0.427 -0.462,0 -0.777,0.119 -0.308,0.112 -0.539,0.259 -0.224,0.14 -0.392,0.259 -0.161,0.112 -0.322,0.112 -0.126,0 -0.217,-0.063 -0.091,-0.07 -0.154,-0.168 l -0.224,-0.399 q 0.588,-0.567 1.267,-0.847 0.679,-0.28 1.505,-0.28 0.595,0 1.057,0.196 0.462,0.196 0.777,0.546 0.315,0.35 0.476,0.847 0.161,0.497 0.161,1.092 l 0,4.536 -0.553,0 z m -2.674,-0.763 q 0.329,0 0.602,-0.063 0.273,-0.07 0.511,-0.189 0.245,-0.126 0.462,-0.301 0.224,-0.182 0.434,-0.406 l 0,-1.47 q -0.861,0.028 -1.47,0.14 -0.602,0.105 -0.987,0.28 -0.378,0.175 -0.553,0.413 -0.168,0.238 -0.168,0.532 0,0.28 0.091,0.483 0.091,0.203 0.245,0.336 0.161,0.126 0.371,0.189 0.217,0.056 0.462,0.056 z" /><path
         id="path192"
         style=""
         d="m 279.34432,-720.60681 0,-7.091 0.714,0 q 0.203,0 0.28,0.077 0.077,0.077 0.105,0.266 l 0.077,1.078 q 0.336,-0.728 0.826,-1.134 0.497,-0.413 1.204,-0.413 0.224,0 0.427,0.049 0.21,0.049 0.371,0.154 l -0.091,0.931 q -0.042,0.175 -0.21,0.175 -0.098,0 -0.287,-0.042 -0.189,-0.042 -0.427,-0.042 -0.336,0 -0.602,0.105 -0.266,0.098 -0.476,0.294 -0.203,0.189 -0.364,0.469 -0.161,0.28 -0.294,0.644 l 0,4.48 -1.253,0 z" /><path
         id="path194"
         style=""
         d="m 288.82888,-720.60681 q -0.182,0 -0.28,-0.056 -0.098,-0.063 -0.154,-0.238 l -0.14,-0.665 q -0.28,0.252 -0.553,0.455 -0.266,0.196 -0.56,0.336 -0.287,0.133 -0.623,0.203 -0.329,0.077 -0.735,0.077 -0.413,0 -0.777,-0.112 -0.364,-0.119 -0.637,-0.35 -0.266,-0.231 -0.427,-0.581 -0.154,-0.357 -0.154,-0.84 0,-0.42 0.231,-0.805 0.231,-0.392 0.749,-0.693 0.518,-0.301 1.351,-0.49 0.833,-0.196 2.044,-0.224 l 0,-0.553 q 0,-0.826 -0.357,-1.246 -0.357,-0.427 -1.043,-0.427 -0.462,0 -0.777,0.119 -0.308,0.112 -0.539,0.259 -0.224,0.14 -0.392,0.259 -0.161,0.112 -0.322,0.112 -0.126,0 -0.217,-0.063 -0.091,-0.07 -0.154,-0.168 l -0.224,-0.399 q 0.588,-0.567 1.267,-0.847 0.679,-0.28 1.505,-0.28 0.595,0 1.057,0.196 0.462,0.196 0.777,0.546 0.315,0.35 0.476,0.847 0.161,0.497 0.161,1.092 l 0,4.536 -0.553,0 z m -2.674,-0.763 q 0.329,0 0.602,-0.063 0.273,-0.07 0.511,-0.189 0.245,-0.126 0.462,-0.301 0.224,-0.182 0.434,-0.406 l 0,-1.47 q -0.861,0.028 -1.47,0.14 -0.602,0.105 -0.987,0.28 -0.378,0.175 -0.553,0.413 -0.168,0.238 -0.168,0.532 0,0.28 0.091,0.483 0.091,0.203 0.245,0.336 0.161,0.126 0.371,0.189 0.217,0.056 0.462,0.056 z" /><path
         id="path196"
         style=""
         d="m 291.26619,-720.60681 0,-7.091 0.749,0 q 0.266,0 0.329,0.259 l 0.091,0.728 q 0.392,-0.483 0.882,-0.791 0.49,-0.308 1.134,-0.308 0.714,0 1.155,0.399 0.448,0.399 0.644,1.078 0.154,-0.385 0.392,-0.665 0.245,-0.28 0.546,-0.462 0.301,-0.182 0.637,-0.266 0.343,-0.084 0.693,-0.084 0.56,0 0.994,0.182 0.441,0.175 0.742,0.518 0.308,0.343 0.469,0.847 0.161,0.497 0.161,1.141 l 0,4.515 -1.253,0 0,-4.515 q 0,-0.833 -0.364,-1.26 -0.364,-0.434 -1.05,-0.434 -0.308,0 -0.588,0.112 -0.273,0.105 -0.483,0.315 -0.21,0.21 -0.336,0.532 -0.119,0.315 -0.119,0.735 l 0,4.515 -1.253,0 0,-4.515 q 0,-0.854 -0.343,-1.274 -0.343,-0.42 -1.001,-0.42 -0.462,0 -0.854,0.252 -0.392,0.245 -0.721,0.672 l 0,5.285 -1.253,0 z" /><path
         id="path198"
         style=""
         d="m 305.68291,-727.80981 q 0.637,0 1.176,0.217 0.546,0.21 0.938,0.616 0.399,0.399 0.623,0.994 0.224,0.588 0.224,1.344 0,0.294 -0.063,0.392 -0.063,0.098 -0.238,0.098 l -4.739,0 q 0.014,0.672 0.182,1.169 0.168,0.497 0.462,0.833 0.294,0.329 0.7,0.497 0.406,0.161 0.91,0.161 0.469,0 0.805,-0.105 0.343,-0.112 0.588,-0.238 0.245,-0.126 0.406,-0.231 0.168,-0.112 0.287,-0.112 0.154,0 0.238,0.119 l 0.35,0.455 q -0.231,0.28 -0.553,0.49 -0.322,0.203 -0.693,0.336 -0.364,0.133 -0.756,0.196 -0.392,0.07 -0.777,0.07 -0.735,0 -1.358,-0.245 -0.616,-0.252 -1.071,-0.728 -0.448,-0.483 -0.7,-1.19 -0.252,-0.707 -0.252,-1.624 0,-0.742 0.224,-1.386 0.231,-0.644 0.658,-1.113 0.427,-0.476 1.043,-0.742 0.616,-0.273 1.386,-0.273 z m 0.028,0.917 q -0.903,0 -1.421,0.525 -0.518,0.518 -0.644,1.442 l 3.878,0 q 0,-0.434 -0.126,-0.791 -0.119,-0.364 -0.357,-0.623 -0.231,-0.266 -0.567,-0.406 -0.336,-0.147 -0.763,-0.147 z" /><path
         id="path200"
         style=""
         d="m 312.25569,-720.49481 q -0.84,0 -1.295,-0.469 -0.448,-0.469 -0.448,-1.351 l 0,-4.34 -0.854,0 q -0.112,0 -0.189,-0.063 -0.077,-0.07 -0.077,-0.21 l 0,-0.497 1.162,-0.147 0.287,-2.191 q 0.021,-0.105 0.091,-0.168 0.077,-0.07 0.196,-0.07 l 0.63,0 0,2.443 2.051,0 0,0.903 -2.051,0 0,4.256 q 0,0.448 0.217,0.665 0.217,0.217 0.56,0.217 0.196,0 0.336,-0.049 0.147,-0.056 0.252,-0.119 0.105,-0.063 0.175,-0.112 0.077,-0.056 0.133,-0.056 0.098,0 0.175,0.119 l 0.364,0.595 q -0.322,0.301 -0.777,0.476 -0.455,0.168 -0.938,0.168 z" /><path
         id="path202"
         style=""
         d="m 318.01494,-727.80981 q 0.637,0 1.176,0.217 0.546,0.21 0.938,0.616 0.399,0.399 0.623,0.994 0.224,0.588 0.224,1.344 0,0.294 -0.063,0.392 -0.063,0.098 -0.238,0.098 l -4.739,0 q 0.014,0.672 0.182,1.169 0.168,0.497 0.462,0.833 0.294,0.329 0.7,0.497 0.406,0.161 0.91,0.161 0.469,0 0.805,-0.105 0.343,-0.112 0.588,-0.238 0.245,-0.126 0.406,-0.231 0.168,-0.112 0.287,-0.112 0.154,0 0.238,0.119 l 0.35,0.455 q -0.231,0.28 -0.553,0.49 -0.322,0.203 -0.693,0.336 -0.364,0.133 -0.756,0.196 -0.392,0.07 -0.777,0.07 -0.735,0 -1.358,-0.245 -0.616,-0.252 -1.071,-0.728 -0.448,-0.483 -0.7,-1.19 -0.252,-0.707 -0.252,-1.624 0,-0.742 0.224,-1.386 0.231,-0.644 0.658,-1.113 0.427,-0.476 1.043,-0.742 0.616,-0.273 1.386,-0.273 z m 0.028,0.917 q -0.903,0 -1.421,0.525 -0.518,0.518 -0.644,1.442 l 3.878,0 q 0,-0.434 -0.126,-0.791 -0.119,-0.364 -0.357,-0.623 -0.231,-0.266 -0.567,-0.406 -0.336,-0.147 -0.763,-0.147 z" /><path
         id="path204"
         style=""
         d="m 322.49275,-720.60681 0,-7.091 0.714,0 q 0.203,0 0.28,0.077 0.077,0.077 0.105,0.266 l 0.077,1.078 q 0.336,-0.728 0.826,-1.134 0.497,-0.413 1.204,-0.413 0.224,0 0.427,0.049 0.21,0.049 0.371,0.154 l -0.091,0.931 q -0.042,0.175 -0.21,0.175 -0.098,0 -0.287,-0.042 -0.189,-0.042 -0.427,-0.042 -0.336,0 -0.602,0.105 -0.266,0.098 -0.476,0.294 -0.203,0.189 -0.364,0.469 -0.161,0.28 -0.294,0.644 l 0,4.48 -1.253,0 z" /><path
         id="path206"
         style=""
         d="m 331.70869,-726.52881 q -0.084,0.154 -0.259,0.154 -0.105,0 -0.238,-0.077 -0.133,-0.077 -0.329,-0.168 -0.189,-0.098 -0.455,-0.175 -0.266,-0.084 -0.63,-0.084 -0.315,0 -0.567,0.084 -0.252,0.077 -0.434,0.217 -0.175,0.14 -0.273,0.329 -0.091,0.182 -0.091,0.399 0,0.273 0.154,0.455 0.161,0.182 0.42,0.315 0.259,0.133 0.588,0.238 0.329,0.098 0.672,0.217 0.35,0.112 0.679,0.252 0.329,0.14 0.588,0.35 0.259,0.21 0.413,0.518 0.161,0.301 0.161,0.728 0,0.49 -0.175,0.91 -0.175,0.413 -0.518,0.721 -0.343,0.301 -0.84,0.476 -0.497,0.175 -1.148,0.175 -0.742,0 -1.344,-0.238 -0.602,-0.245 -1.022,-0.623 l 0.294,-0.476 q 0.056,-0.091 0.133,-0.14 0.077,-0.049 0.196,-0.049 0.126,0 0.266,0.098 0.14,0.098 0.336,0.217 0.203,0.119 0.49,0.217 0.287,0.098 0.714,0.098 0.364,0 0.637,-0.091 0.273,-0.098 0.455,-0.259 0.182,-0.161 0.266,-0.371 0.091,-0.21 0.091,-0.448 0,-0.294 -0.161,-0.483 -0.154,-0.196 -0.413,-0.329 -0.259,-0.14 -0.595,-0.238 -0.329,-0.105 -0.679,-0.217 -0.343,-0.112 -0.679,-0.252 -0.329,-0.147 -0.588,-0.364 -0.259,-0.217 -0.42,-0.532 -0.154,-0.322 -0.154,-0.777 0,-0.406 0.168,-0.777 0.168,-0.378 0.49,-0.658 0.322,-0.287 0.791,-0.455 0.469,-0.168 1.071,-0.168 0.7,0 1.253,0.224 0.56,0.217 0.966,0.602 l -0.28,0.455 z" /></g></g><g
     transform="translate(-103.7389,11.590497)"
     style="display:inline"
     id="layer1">
text
       transform=&quot;matrix(1.25,0,0,1.25,-212.03263,903.0825)&quot;
       style=&quot;font-variant:normal;font-weight:normal;font-size:6.40019989px;font-family:Geneva;-inkscape-font-specification:Geneva;writing-mode:lr-tb;fill:none;stroke:#3b3738;stroke-width:0.25999999;stroke-linecap:butt;stroke-linejoin:miter;stroke-miterlimit:14.33500004;stroke-dasharray:none;stroke-opacity:1&quot;
       id=&quot;text942&quot;
       x=&quot;445.5311&quot;
       y=&quot;-578.77612&quot;&gt;<tspan
   id="tspan944"
   y="-578.77612"
   x="445.5311">D</tspan><g
   transform="matrix(1.25,0,0,-1.25,-212.03263,915.0825)"
   id="g5312"
   style="display:inline"><g
     id="text208"
     style="font-variant:normal;font-weight:normal;font-size:6.40019989px;font-family:Geneva;-inkscape-font-specification:Geneva;writing-mode:lr-tb;fill:#231f20;fill-opacity:1;fill-rule:nonzero;stroke:none"
     transform="matrix(1,0,0,-1,406.1243,678.3899)"><path
       id="path209"
       style=""
       d="m 2.8407137,-2.1875683 q 0.2031314,0.068752 0.3937623,0.2937592 0.1937561,0.225007 0.3875121,0.6187693 L 4.2626331,0 3.584487,0 2.9875933,-1.1969124 Q 2.7563361,-1.665677 2.5375793,-1.8188068 2.3219475,-1.9719366 1.9469358,-1.9719366 l -0.6875215,0 0,1.9719366 -0.63126968,0 0,-4.6657707 1.42504448,0 q 0.800025,0 1.1937873,0.3343854 0.3937623,0.3343855 0.3937623,1.0094065 0,0.4406388 -0.2062564,0.7312729 -0.2031314,0.2906341 -0.5937686,0.4031376 z m -1.5812994,-1.9594362 0,1.6563017 0.7937748,0 q 0.4562643,0 0.6875215,-0.2093815 0.2343823,-0.2125067 0.2343823,-0.6218945 0,-0.4093877 -0.2343823,-0.6156442 -0.2312572,-0.2093815 -0.6875215,-0.2093815 l -0.7937748,0 z" /><path
       id="path211"
       style=""
       d="m 4.5073057,-4.6657707 2.9500922,0 0,0.5312666 -2.3188224,0 0,1.3812931 2.2219443,0 0,0.5312666 -2.2219443,0 0,1.69067781 2.3750741,0 0,0.53126659 -3.0063439,0 0,-4.6657707 z" /></g><path
     d="m 409.158,722.466 0,-10.525 m -22.556,0.284 44.611,0 m 0,0.467 0.091,-20.38 m -55.973,-8.342 23.056,0 m 20.743,7.742 23.055,0 m -22.415,-0.254 -0.062,-36.112 m 21.707,36.397 0,-36.311 m -54.468,57.23 0,-28.822 m 10.811,0.392 0,-28.821 m -21.771,29.166 0,-28.821"
     style="fill:none;stroke:#231f20;stroke-width:1.28199995;stroke-linecap:butt;stroke-linejoin:miter;stroke-miterlimit:14.33500004;stroke-dasharray:none;stroke-opacity:1"
     id="path220" /><g
     id="text222"
     style="font-variant:normal;font-weight:normal;font-size:6.79409981px;font-family:Geneva;-inkscape-font-specification:Geneva;writing-mode:lr-tb;fill:#231f20;fill-opacity:1;fill-rule:nonzero;stroke:#3b3738;stroke-width:0.25999999;stroke-linecap:butt;stroke-linejoin:miter;stroke-miterlimit:14.33500004;stroke-dasharray:none;stroke-opacity:1"
     transform="scale(1,-1)"><path
       id="path214"
       style=""
       d="m 375.47369,-652.07584 -0.90897,2.46485 1.82127,0 -0.9123,-2.46485 z m -0.37819,-0.66017 0.7597,0 1.88761,4.95293 -0.69666,0 -0.45117,-1.27058 -2.23263,0 -0.45117,1.27058 -0.70661,0 1.89093,-4.95293 z" /></g><g
     id="text226"
     style="font-variant:normal;font-weight:normal;font-size:6.79409981px;font-family:Geneva;-inkscape-font-specification:Geneva;writing-mode:lr-tb;fill:#231f20;fill-opacity:1;fill-rule:nonzero;stroke:none"
     transform="matrix(1,0,0,-1,373.1515,647.7831)"><path
       id="path217"
       style=""
       d="m 2.3222021,-4.2927564 -0.9089763,2.4648516 1.82127,0 -0.9122937,-2.4648516 z m -0.3781872,-0.6601689 0.7596918,0 L 4.5913253,0 3.8946646,0 3.4434939,-1.2705763 l -2.2326314,0 L 0.75969182,0 0.0530789,0 1.9440149,-4.9529253 Z" /><path
       id="path219"
       style=""
       d="m 23.978942,-2.3653287 0,1.81463506 1.074848,0 q 0.540741,0 0.799501,-0.22226791 0.262077,-0.22558535 0.262077,-0.68670835 0,-0.4644404 -0.262077,-0.6833909 -0.25876,-0.2222679 -0.799501,-0.2222679 l -1.074848,0 z m 0,-2.036903 0,1.4928442 0.991912,0 q 0.49098,0 0.729835,-0.1824587 0.242173,-0.1857762 0.242173,-0.5639634 0,-0.3748697 -0.242173,-0.5606459 -0.238855,-0.1857762 -0.729835,-0.1857762 l -0.991912,0 z m -0.670121,-0.5506936 1.711795,0 q 0.766326,0 1.181005,0.3184734 0.414679,0.3184735 0.414679,0.9056588 0,0.4544882 -0.212315,0.7232001 -0.212316,0.268712 -0.623677,0.3350606 0.494297,0.1061578 0.766326,0.4445358 0.275347,0.3350606 0.275347,0.8393102 0,0.66348632 -0.451171,1.02508636 Q 25.91964,0 25.086964,0 l -1.778143,0 0,-4.9529253 z" /></g><g
     id="text238"
     style="font-variant:normal;font-weight:normal;font-size:6.79409981px;font-family:Geneva;-inkscape-font-specification:Geneva;writing-mode:lr-tb;fill:none;stroke:#3b3738;stroke-width:0.25999999;stroke-linecap:butt;stroke-linejoin:miter;stroke-miterlimit:14.33500004;stroke-dasharray:none;stroke-opacity:1"
     transform="scale(1,-1)"><path
       id="path222"
       style=""
       d="m 397.13023,-650.14841 0,1.81464 1.07485,0 q 0.54074,0 0.7995,-0.22227 0.26208,-0.22559 0.26208,-0.68671 0,-0.46444 -0.26208,-0.68339 -0.25876,-0.22227 -0.7995,-0.22227 l -1.07485,0 z m 0,-2.0369 0,1.49284 0.99191,0 q 0.49098,0 0.72984,-0.18246 0.24217,-0.18577 0.24217,-0.56396 0,-0.37487 -0.24217,-0.56065 -0.23886,-0.18577 -0.72984,-0.18577 l -0.99191,0 z m -0.67012,-0.5507 1.71179,0 q 0.76633,0 1.18101,0.31848 0.41468,0.31847 0.41468,0.90566 0,0.45448 -0.21232,0.7232 -0.21231,0.26871 -0.62368,0.33506 0.4943,0.10615 0.76633,0.44453 0.27535,0.33506 0.27535,0.83931 0,0.66349 -0.45117,1.02509 -0.45117,0.3616 -1.28385,0.3616 l -1.77814,0 0,-4.95293 z" /></g><g
     id="text242"
     style="font-variant:normal;font-weight:normal;font-size:6.79409981px;font-family:Geneva;-inkscape-font-specification:Geneva;writing-mode:lr-tb;fill:#231f20;fill-opacity:1;fill-rule:nonzero;stroke:none"
     transform="matrix(1,0,0,-1,395.7933,647.7831)"><path
       id="path225"
       style=""
       d="m 1.3369249,-2.3653287 0,1.81463506 1.0748478,0 q 0.5407414,0 0.799501,-0.22226791 0.2620771,-0.22558535 0.2620771,-0.68670835 0,-0.4644404 -0.2620771,-0.6833909 -0.2587596,-0.2222679 -0.799501,-0.2222679 l -1.0748478,0 z m 0,-2.036903 0,1.4928442 0.991912,0 q 0.4909799,0 0.729835,-0.1824587 0.2421725,-0.1857762 0.2421725,-0.5639634 0,-0.3748697 -0.2421725,-0.5606459 -0.2388551,-0.1857762 -0.729835,-0.1857762 l -0.991912,0 z m -0.67012116,-0.5506936 1.71179466,0 q 0.7663267,0 1.1810056,0.3184734 0.414679,0.3184735 0.414679,0.9056588 0,0.4544882 -0.2123156,0.7232001 -0.2123156,0.268712 -0.6236772,0.3350606 0.4942973,0.1061578 0.7663267,0.4445358 0.2753468,0.3350606 0.2753468,0.8393102 0,0.66348632 -0.4511706,1.02508636 Q 3.2776224,0 2.444947,0 l -1.77814326,0 0,-4.9529253 z" /><path
       id="path227"
       style=""
       d="m 7.5157344,-6.1057674 -1.190958,0.6435817 1.190958,0.6468992 -0.1924111,0.3251083 -1.114657,-0.6734386 0,1.2506717 -0.3781872,0 0,-1.2506717 -1.114657,0.6734386 -0.192411,-0.3251083 1.1909579,-0.6468992 -1.1909579,-0.6435817 0.192411,-0.3284257 1.114657,0.6734386 0,-1.2506717 0.3781872,0 0,1.2506717 1.114657,-0.6734386 0.1924111,0.3284257 z" /></g><g
     id="text256"
     style="font-variant:normal;font-weight:normal;font-size:6.79409981px;font-family:Geneva;-inkscape-font-specification:Geneva;writing-mode:lr-tb;fill:#231f20;fill-opacity:1;fill-rule:nonzero;stroke:#3b3738;stroke-width:0.25999999;stroke-linecap:butt;stroke-linejoin:miter;stroke-miterlimit:14.33500004;stroke-dasharray:none;stroke-opacity:1"
     transform="scale(1,-1)"><path
       id="path230"
       style=""
       d="m 421.95489,-652.3545 0,0.70661 q -0.33838,-0.31515 -0.7232,-0.47107 -0.38151,-0.15592 -0.81278,-0.15592 -0.84926,0 -1.30043,0.52083 -0.45117,0.51752 -0.45117,1.49948 0,0.97864 0.45117,1.49948 0.45117,0.51752 1.30043,0.51752 0.43127,0 0.81278,-0.15592 0.38482,-0.15592 0.7232,-0.47107 l 0,0.69997 q -0.35165,0.23886 -0.74643,0.35829 -0.39145,0.11942 -0.82935,0.11942 -1.12461,0 -1.77151,-0.6867 -0.6469,-0.69003 -0.6469,-1.88099 0,-1.19427 0.6469,-1.88098 0.6469,-0.69003 1.77151,-0.69003 0.44453,0 0.83599,0.11943 0.39477,0.11611 0.73979,0.35165 z" /></g><g
     id="text260"
     style="font-variant:normal;font-weight:normal;font-size:6.79409981px;font-family:Geneva;-inkscape-font-specification:Geneva;writing-mode:lr-tb;fill:#231f20;fill-opacity:1;fill-rule:nonzero;stroke:none"
     transform="matrix(1,0,0,-1,417.5792,647.7831)"><path
       id="path233"
       style=""
       d="m 4.3756922,-4.5714207 0,0.7066129 Q 4.0373142,-4.1799637 3.6524921,-4.335883 3.2709875,-4.4918023 2.8397214,-4.4918023 q -0.8492625,0 -1.3004332,0.5208367 -0.4511707,0.5175194 -0.4511707,1.4994791 0,0.9786423 0.4511707,1.49947906 0.4511707,0.51751932 1.3004332,0.51751932 0.4312661,0 0.8127707,-0.15591928 0.3848221,-0.15591929 0.7232001,-0.4710753 l 0,0.69997807 q -0.3516477,0.23885507 -0.7464221,0.35828261 -0.3914569,0.11942753 -0.8293579,0.11942753 -1.1246093,0 -1.7715084,-0.68670833 -0.64689917,-0.69002578 -0.64689917,-1.88098368 0,-1.1942754 0.64689917,-1.8809837 0.6468991,-0.6900258 1.7715084,-0.6900258 0.4445359,0 0.8359928,0.1194276 0.3947743,0.1161101 0.7397872,0.3516477 z" /><path
       id="path235"
       style=""
       d="m 7.6176459,-6.1057674 -1.1909579,0.6435817 1.1909579,0.6468992 -0.192411,0.3251083 -1.114657,-0.6734386 0,1.2506717 -0.3781872,0 0,-1.2506717 -1.114657,0.6734386 -0.192411,-0.3251083 1.1909579,-0.6468992 -1.1909579,-0.6435817 0.192411,-0.3284257 1.114657,0.6734386 0,-1.2506717 0.3781872,0 0,1.2506717 1.114657,-0.6734386 0.192411,0.3284257 z" /></g><g
     id="text274"
     style="font-variant:normal;font-weight:normal;font-size:6.79409981px;font-family:Geneva;-inkscape-font-specification:Geneva;writing-mode:lr-tb;fill:#231f20;fill-opacity:1;fill-rule:nonzero;stroke:#3b3738;stroke-width:0.25999999;stroke-linecap:butt;stroke-linejoin:miter;stroke-miterlimit:14.33500004;stroke-dasharray:none;stroke-opacity:1"
     transform="scale(1,-1)"><path
       id="path238"
       style=""
       d="m 441.34501,-652.18531 0,3.85154 0.80946,0 q 1.02508,0 1.49947,-0.46445 0.47771,-0.46444 0.47771,-1.4663 0,-0.99523 -0.47771,-1.45635 -0.47439,-0.46444 -1.49947,-0.46444 l -0.80946,0 z m -0.67012,-0.5507 1.37673,0 q 1.43977,0 2.11321,0.60046 0.67344,0.59714 0.67344,1.87103 0,1.28053 -0.67676,1.88098 -0.67675,0.60046 -2.10989,0.60046 l -1.37673,0 0,-4.95293 z" /></g><g
     id="text278"
     style="font-variant:normal;font-weight:normal;font-size:6.79409981px;font-family:Geneva;-inkscape-font-specification:Geneva;writing-mode:lr-tb;fill:#231f20;fill-opacity:1;fill-rule:nonzero;stroke:none"
     transform="matrix(1,0,0,-1,440.0081,647.7831)"><path
       id="path241"
       style=""
       d="m 1.3369249,-4.4022317 0,3.85153806 0.8094533,0 q 1.0250864,0 1.4994791,-0.46444046 0.4777101,-0.4644404 0.4777101,-1.4663047 0,-0.9952295 -0.4777101,-1.4563524 -0.4743927,-0.4644405 -1.4994791,-0.4644405 l -0.8094533,0 z m -0.67012116,-0.5506936 1.37673406,0 q 1.4397653,0 2.1132039,0.6004551 0.6734386,0.5971377 0.6734386,1.8710314 0,1.2805286 -0.676756,1.88098369 Q 3.4766683,0 2.0435378,0 l -1.37673406,0 0,-4.9529253 z" /></g><path
     d="m 393.595,666.218 29.264,0 0,9.6874 -29.264,0 0,-9.6874 z"
     style="fill:#ffffff;fill-opacity:1;fill-rule:nonzero;stroke:none"
     id="path282" /><path
     d="m 397.338,676.366 2.99,0 m 1.281,0 2.991,0 m 1.282,0 2.99,0 m 1.282,0 2.99,0 m 1.282,0 2.99,0 m 1.282,0 1.353,0 m -22.824,-10.465 22.712,-10e-4 m -10.382,9.705 0,-9.707"
     style="fill:none;stroke:#231f20;stroke-width:1.28199995;stroke-linecap:butt;stroke-linejoin:miter;stroke-miterlimit:14.33500004;stroke-dasharray:none;stroke-opacity:1"
     id="path284" /></g><path
   id="path818"
   style="display:inline;fill:none;stroke:#231f20;stroke-width:0.64099997;stroke-linecap:butt;stroke-linejoin:miter;stroke-miterlimit:14.33500004;stroke-dasharray:none;stroke-opacity:1"
   d="m 386.255,618.762 0,-5.263 m -11.135,0.143 22.305,0 m 0,0.234 0,-14.411 m -28.083,0.049 11.529,0 m 10.655,0.026 11.527,0 m -11.239,0.073 0,-14.411 m 11.059,14.411 0,-14.411 m -27.723,28.658 0,-14.411 m 5.404,0.196 0,-14.41 m -10.884,14.583 0,-14.412"
   transform="matrix(1.25,0,0,-1.25,-212.03263,903.0825)" /><g
   id="text832"
   style="font-variant:normal;font-weight:normal;font-size:6.40019989px;font-family:Geneva;-inkscape-font-specification:Geneva;writing-mode:lr-tb;display:inline;fill:#231f20;fill-opacity:1;fill-rule:nonzero;stroke:none"
   transform="matrix(1.25,0,0,1.25,247.00924,179.61237)"><path
     id="path244"
     style=""
     d="m 2.1875683,-4.0438763 -0.8562767,2.3219475 1.7156786,0 -0.8594019,-2.3219475 z m -0.3562611,-0.6218944 0.7156473,0 L 4.3251351,0 3.6688646,0 3.2438513,-1.1969124 l -2.1031907,0 L 0.71564735,0 0.05000156,0 1.8313072,-4.6657707 Z" /><path
     id="path246"
     style=""
     d="m 12.489205,-2.2281946 0,1.7094284 1.012532,0 q 0.509391,0 0.753148,-0.20938154 0.246883,-0.21250664 0.246883,-0.64689516 0,-0.4375137 -0.246883,-0.6437702 -0.243757,-0.2093815 -0.753148,-0.2093815 l -1.012532,0 z m 0,-1.9188099 0,1.4062939 0.934404,0 q 0.462515,0 0.687522,-0.1718804 0.228132,-0.1750054 0.228132,-0.5312666 0,-0.353136 -0.228132,-0.5281415 -0.225007,-0.1750054 -0.687522,-0.1750054 l -0.934404,0 z m -0.63127,-0.5187662 1.612551,0 q 0.721897,0 1.112534,0.3000093 0.390638,0.3000094 0.390638,0.8531517 0,0.4281384 -0.200007,0.6812713 -0.200006,0.2531329 -0.587518,0.3156348 0.46564,0.1000032 0.721898,0.4187631 0.259383,0.3156349 0.259383,0.7906497 0,0.62501952 -0.425014,0.96565516 Q 14.317387,0 13.532988,0 l -1.675053,0 0,-4.6657707 z" /></g><g
   id="text864"
   style="font-variant:normal;font-weight:normal;font-size:6.40019989px;font-family:Geneva;-inkscape-font-specification:Geneva;writing-mode:lr-tb;display:inline;fill:#231f20;fill-opacity:1;fill-rule:nonzero;stroke:none"
   transform="matrix(1.25,0,0,1.25,275.00912,179.61237)"><path
     id="path249"
     style=""
     d="m 4.1220037,-4.3063845 0,0.6656458 Q 3.8032438,-3.937623 3.4407325,-4.0845026 3.0813462,-4.2313822 2.6750835,-4.2313822 q -0.8000249,0 -1.2250382,0.4906404 -0.4250133,0.4875152 -0.4250133,1.4125441 0,0.9219038 0.4250133,1.4125441 0.4250133,0.48751523 1.2250382,0.48751523 0.4062627,0 0.765649,-0.14687959 0.3625113,-0.14687959 0.6812712,-0.44376384 l 0,0.65939558 Q 3.7907434,-0.1343792 3.4188568,-0.02187568 3.0500953,0.09062783 2.6375824,0.09062783 q -1.0594081,0 -1.66880214,-0.6468952 -0.60939404,-0.65002033 -0.60939404,-1.77193033 0,-1.1250352 0.60939404,-1.7719304 0.60939404,-0.6500203 1.66880214,-0.6500203 0.4187631,0 0.7875246,0.1125036 0.3718866,0.1093784 0.6968967,0.3312603 z" /><path
     id="path251"
     style=""
     d="m 12.489205,-4.1470045 0,3.6282383 0.762524,0 q 0.965655,0 1.412544,-0.43751367 0.450014,-0.43751363 0.450014,-1.38129313 0,-0.9375293 -0.450014,-1.3719179 -0.446889,-0.4375136 -1.412544,-0.4375136 l -0.762524,0 z m -0.63127,-0.5187662 1.296916,0 q 1.356292,0 1.990687,0.5656426 0.634395,0.5625176 0.634395,1.7625551 0,1.2062877 -0.63752,1.77193033 Q 14.504893,0 13.154851,0 l -1.296916,0 0,-4.6657707 z" /></g><path
   id="path892"
   style="display:inline;fill:none;stroke:#231f20;stroke-width:0.64099997;stroke-linecap:butt;stroke-linejoin:miter;stroke-miterlimit:14.33500004;stroke-dasharray:none;stroke-opacity:1"
   d="m 430.922,618.716 0,-5.263 m -11.136,0.142 22.307,0 m 0,0.234 0,-14.411 m -28.083,0.049 11.528,0 m 10.655,0.027 11.528,0 m -11.239,0.072 0,-14.41 m 11.058,14.41 0,-14.41 m -27.723,28.657 0,-14.41 m 5.404,0.195 0,-14.409 m -10.883,14.582 0,-14.41"
   transform="matrix(1.25,0,0,-1.25,-212.03263,903.0825)" /><g
   id="text898"
   style="font-variant:normal;font-weight:normal;font-size:6.40019989px;font-family:Geneva;-inkscape-font-specification:Geneva;writing-mode:lr-tb;display:inline;fill:#231f20;fill-opacity:1;fill-rule:nonzero;stroke:none"
   transform="matrix(1.25,0,0,1.25,302.84262,179.61237)"><path
     id="path255"
     style=""
     d="m 2.1875683,-4.0438763 -0.8562767,2.3219475 1.7156786,0 -0.8594019,-2.3219475 z m -0.3562611,-0.6218944 0.7156473,0 L 4.3251351,0 3.6688646,0 3.2438513,-1.1969124 l -2.1031907,0 L 0.71564735,0 0.05000156,0 1.8313072,-4.6657707 Z" /><path
     id="path257"
     style=""
     d="m 15.353075,-4.3063845 0,0.6656458 q -0.31876,-0.2968843 -0.681271,-0.4437639 -0.359386,-0.1468796 -0.765649,-0.1468796 -0.800025,0 -1.225038,0.4906404 -0.425014,0.4875152 -0.425014,1.4125441 0,0.9219038 0.425014,1.4125441 0.425013,0.48751523 1.225038,0.48751523 0.406263,0 0.765649,-0.14687959 0.362511,-0.14687959 0.681271,-0.44376384 l 0,0.65939558 q -0.33126,0.22500702 -0.703147,0.33751054 -0.368761,0.11250351 -0.781274,0.11250351 -1.059408,0 -1.668802,-0.6468952 -0.609394,-0.65002033 -0.609394,-1.77193033 0,-1.1250352 0.609394,-1.7719304 0.609394,-0.6500203 1.668802,-0.6500203 0.418763,0 0.787524,0.1125036 0.371887,0.1093784 0.696897,0.3312603 z" /></g><g
   id="text914"
   style="font-variant:normal;font-weight:normal;font-size:6.40019989px;font-family:Geneva;-inkscape-font-specification:Geneva;writing-mode:lr-tb;display:inline;fill:#231f20;fill-opacity:1;fill-rule:nonzero;stroke:none"
   transform="matrix(1.25,0,0,1.25,316.88137,179.61237)"><path
     id="path260"
     style=""
     d="m 4.1220037,-4.3063845 0,0.6656458 Q 3.8032438,-3.937623 3.4407325,-4.0845026 3.0813462,-4.2313822 2.6750835,-4.2313822 q -0.8000249,0 -1.2250382,0.4906404 -0.4250133,0.4875152 -0.4250133,1.4125441 0,0.9219038 0.4250133,1.4125441 0.4250133,0.48751523 1.2250382,0.48751523 0.4062627,0 0.765649,-0.14687959 0.3625113,-0.14687959 0.6812712,-0.44376384 l 0,0.65939558 Q 3.7907434,-0.1343792 3.4188568,-0.02187568 3.0500953,0.09062783 2.6375824,0.09062783 q -1.0594081,0 -1.66880214,-0.6468952 -0.60939404,-0.65002033 -0.60939404,-1.77193033 0,-1.1250352 0.60939404,-1.7719304 0.60939404,-0.6500203 1.66880214,-0.6500203 0.4187631,0 0.7875246,0.1125036 0.3718866,0.1093784 0.6968967,0.3312603 z" /><path
     id="path262"
     style=""
     d="m 12.428404,-2.2281946 0,1.7094284 1.012531,0 q 0.509391,0 0.753149,-0.20938154 0.246882,-0.21250664 0.246882,-0.64689516 0,-0.4375137 -0.246882,-0.6437702 -0.243758,-0.2093815 -0.753149,-0.2093815 l -1.012531,0 z m 0,-1.9188099 0,1.4062939 0.934404,0 q 0.462514,0 0.687521,-0.1718804 0.228132,-0.1750054 0.228132,-0.5312666 0,-0.353136 -0.228132,-0.5281415 -0.225007,-0.1750054 -0.687521,-0.1750054 l -0.934404,0 z m -0.63127,-0.5187662 1.61255,0 q 0.721898,0 1.112535,0.3000093 0.390637,0.3000094 0.390637,0.8531517 0,0.4281384 -0.200006,0.6812713 -0.200006,0.2531329 -0.587518,0.3156348 0.465639,0.1000032 0.721897,0.4187631 0.259383,0.3156349 0.259383,0.7906497 0,0.62501952 -0.425013,0.96565516 Q 14.256586,0 13.472186,0 l -1.675052,0 0,-4.6657707 z" /></g><g
   id="text946"
   style="font-variant:normal;font-weight:normal;font-size:8.00024986px;font-family:Geneva;-inkscape-font-specification:Geneva;writing-mode:lr-tb;fill:#231f20;fill-opacity:1;fill-rule:nonzero;stroke:none"
   transform="translate(103.7389,-11.590497)"><path
     id="path265"
     style=""
     d="m 242.63326,186.02862 0,4.53529 0.95315,0 q 1.20707,0 1.76568,-0.54689 0.56252,-0.54689 0.56252,-1.72661 0,-1.17192 -0.56252,-1.7149 -0.55861,-0.54689 -1.76568,-0.54689 l -0.95315,0 z m -0.78909,-0.64846 1.62115,0 q 1.69536,0 2.48835,0.70705 0.793,0.70315 0.793,2.2032 0,1.50786 -0.7969,2.21491 -0.7969,0.70705 -2.48445,0.70705 l -1.62115,0 0,-5.83221 z" /></g><path
   transform="translate(103.7389,-11.590497)"
   id="path950"
   style="fill:#ffffff;fill-opacity:1;fill-rule:nonzero;stroke:none"
   d="m 148.75514,128.52751 46.1375,0 0,-1.92262 -46.1375,0 0,1.92262 z" /><path
   transform="translate(103.7389,-11.590497)"
   id="path952"
   style="fill:none;stroke:#231f20;stroke-width:0.53375;stroke-linecap:butt;stroke-linejoin:miter;stroke-miterlimit:14.33600044;stroke-dasharray:none;stroke-opacity:1"
   d="m 148.75514,126.60501 46.1375,0 0,1.92263 -46.1375,0 0,-1.92263 z" /><path
   transform="translate(103.7389,-11.590497)"
   id="path954"
   style="fill:#e0dfe0;fill-opacity:1;fill-rule:nonzero;stroke:none"
   d="m 194.93014,128.52751 46.13625,0 0,-1.92262 -46.13625,0 0,1.92262 z" /><path
   transform="translate(103.7389,-11.590497)"
   id="path956"
   style="fill:none;stroke:#231f20;stroke-width:0.53375;stroke-linecap:butt;stroke-linejoin:miter;stroke-miterlimit:14.33600044;stroke-dasharray:none;stroke-opacity:1"
   d="m 194.93014,126.60501 46.13625,0 0,1.92263 -46.13625,0 0,-1.92263 z" /><path
   transform="translate(103.7389,-11.590497)"
   id="path958"
   style="fill:#ffffff;fill-opacity:1;fill-rule:nonzero;stroke:none"
   d="m 148.75514,131.98001 46.1375,0 0,-1.92263 -46.1375,0 0,1.92263 z" /><path
   transform="translate(103.7389,-11.590497)"
   id="path960"
   style="fill:none;stroke:#231f20;stroke-width:0.53375;stroke-linecap:butt;stroke-linejoin:miter;stroke-miterlimit:14.33600044;stroke-dasharray:none;stroke-opacity:1"
   d="m 148.75514,130.05751 46.1375,0 0,1.92262 -46.1375,0 0,-1.92262 z" /><path
   transform="translate(103.7389,-11.590497)"
   id="path962"
   style="fill:#e0dfe0;fill-opacity:1;fill-rule:nonzero;stroke:none"
   d="m 194.93014,131.98001 46.13625,0 0,-1.92263 -46.13625,0 0,1.92263 z" /><path
   transform="translate(103.7389,-11.590497)"
   id="path964"
   style="fill:none;stroke:#231f20;stroke-width:0.53375;stroke-linecap:butt;stroke-linejoin:miter;stroke-miterlimit:14.33600044;stroke-dasharray:none;stroke-opacity:1"
   d="m 194.93014,130.05751 46.13625,0 0,1.92262 -46.13625,0 0,-1.92262 z" /><path
   transform="translate(103.7389,-11.590497)"
   id="path966"
   style="fill:#ffffff;fill-opacity:1;fill-rule:nonzero;stroke:none"
   d="m 148.75514,135.43251 46.1375,0 0,-1.922 -46.1375,0 0,1.922 z" /><path
   transform="translate(103.7389,-11.590497)"
   id="path968"
   style="fill:none;stroke:#231f20;stroke-width:0.53375;stroke-linecap:butt;stroke-linejoin:miter;stroke-miterlimit:14.33600044;stroke-dasharray:none;stroke-opacity:1"
   d="m 148.75514,133.51001 46.1375,0 0,1.922 -46.1375,0 0,-1.922 z" /><path
   transform="translate(103.7389,-11.590497)"
   id="path970"
   style="fill:#e0dfe0;fill-opacity:1;fill-rule:nonzero;stroke:none"
   d="m 194.93014,135.43251 46.13625,0 0,-1.922 -46.13625,0 0,1.922 z" /><path
   transform="translate(103.7389,-11.590497)"
   id="path972"
   style="fill:none;stroke:#231f20;stroke-width:0.53375;stroke-linecap:butt;stroke-linejoin:miter;stroke-miterlimit:14.33600044;stroke-dasharray:none;stroke-opacity:1"
   d="m 194.93014,133.51001 46.13625,0 0,1.922 -46.13625,0 0,-1.922 z" /><path
   transform="translate(103.7389,-11.590497)"
   id="path974"
   style="fill:#ffffff;fill-opacity:1;fill-rule:nonzero;stroke:none"
   d="m 148.75514,138.88626 46.1375,0 0,-1.9225 -46.1375,0 0,1.9225 z" /><path
   transform="translate(103.7389,-11.590497)"
   id="path976"
   style="fill:none;stroke:#231f20;stroke-width:0.53375;stroke-linecap:butt;stroke-linejoin:miter;stroke-miterlimit:14.33600044;stroke-dasharray:none;stroke-opacity:1"
   d="m 148.75514,136.96376 46.1375,0 0,1.9225 -46.1375,0 0,-1.9225 z" /><path
   transform="translate(103.7389,-11.590497)"
   id="path978"
   style="fill:#e0dfe0;fill-opacity:1;fill-rule:nonzero;stroke:none"
   d="m 194.93014,138.88626 46.13625,0 0,-1.9225 -46.13625,0 0,1.9225 z" /><path
   transform="translate(103.7389,-11.590497)"
   id="path980"
   style="fill:none;stroke:#231f20;stroke-width:0.53375;stroke-linecap:butt;stroke-linejoin:miter;stroke-miterlimit:14.33600044;stroke-dasharray:none;stroke-opacity:1"
   d="m 194.93014,136.96376 46.13625,0 0,1.9225 -46.13625,0 0,-1.9225 z" /><path
   transform="translate(103.7389,-11.590497)"
   id="path986"
   style="fill:none;stroke:#231f20;stroke-width:0.53375;stroke-linecap:butt;stroke-linejoin:miter;stroke-miterlimit:14.33500004;stroke-dasharray:none;stroke-opacity:1"
   d="m 195.02889,122.79876 0,2.66875 m 0,1.6025 0,2.67 m 0,1.6025 0,2.66875 m 0,1.6025 0,2.67 m 0,1.60125 0,2.67 m 0,1.6025 0,2.67 m 0,1.6025 0,2.67 m 0,1.60125 0,2.67 m 0,1.6025 0,2.67 m 0,1.60125 0,2.67125 m 0,1.60125 0,2.67 m 0,1.6025 0,2.66875 m 0,1.6025 0,2.67 m 0,1.6025 0,2.66875 m 0,1.6025 0,2.67 m 0,1.6025 0,1.28125" /><g
   id="text5497"
   style="font-style:normal;font-variant:normal;font-weight:normal;font-stretch:normal;font-size:17.5px;line-height:125%;font-family:Lato;-inkscape-font-specification:'Lato, Normal';text-align:start;letter-spacing:0px;word-spacing:0px;writing-mode:lr-tb;text-anchor:start;fill:#000000;fill-opacity:1;stroke:none;stroke-width:1px;stroke-linecap:butt;stroke-linejoin:miter;stroke-opacity:1"
   transform="translate(103.7389,-11.590497)"><path
     id="path268"
     style=""
     d="m 134.90582,11.498266 2.68625,0 0,-8.5487502 q 0,-0.3675 0.0263,-0.77875 l -2.23125,1.91625 q -0.11375,0.09625 -0.2275,0.1225 -0.11375,0.0175 -0.21,0 -0.0962,-0.0175 -0.18375,-0.07 -0.0787,-0.0525 -0.1225,-0.11375 l -0.49,-0.67375 3.73625,-3.22875 1.26875,0 0,11.3750002 2.4675,0 0,1.19 -6.72,0 0,-1.19 z" /><path
     id="path270"
     style=""
     d="m 148.04094,0.0095158 q 0.79625,0 1.4875,0.23625 0.69125,0.23625 1.19875,0.69125 0.5075,0.44625 0.79625,1.09375 0.28875,0.6475 0.28875,1.47 0,0.7 -0.21,1.30375 -0.21,0.595 -0.56875,1.1375 -0.35875,0.5425 -0.83125,1.05875 -0.46375,0.51625 -0.98875,1.04125 l -3.3075,3.3775002 q 0.35,-0.09625 0.70875,-0.14875 0.35875,-0.06125 0.69125,-0.06125 l 4.2,0 q 0.25375,0 0.4025,0.14875 0.14875,0.14875 0.14875,0.385 l 0,0.945 -8.365,0 0,-0.53375 q 0,-0.16625 0.07,-0.34125 0.07,-0.175 0.21875,-0.32375 l 4.01625,-4.0337502 q 0.49875,-0.5075 0.91,-0.97125 0.41125,-0.4725 0.7,-0.945 0.28875,-0.4725 0.44625,-0.95375 0.1575,-0.49 0.1575,-1.04125 0,-0.55125 -0.175,-0.9625 -0.175,-0.42 -0.48125,-0.69125 -0.2975,-0.27125 -0.70875,-0.4025 -0.41125,-0.14 -0.88375,-0.14 -0.48125,0 -0.88375,0.14 -0.4025,0.14 -0.7175,0.39375 -0.30625,0.245 -0.51625,0.58625 -0.21,0.34125 -0.2975,0.7525 -0.105,0.30625 -0.28875,0.41125 -0.175,0.09625 -0.49875,0.0525 l -0.81375,-0.14 q 0.1225,-0.8575 0.4725,-1.51375 0.35875,-0.665 0.8925,-1.11125 0.5425,-0.44625 1.23375,-0.67375 0.69125,-0.23625 1.49625,-0.23625 z" /><path
     id="path273"
     style=""
     d="m 158.73235,15.689516 0,-11.8650002 0.93625,0 q 0.3325,0 0.41125,0.32375 l 0.13125,1.05 q 0.56875,-0.69125 1.30375,-1.11125 0.735,-0.42 1.68,-0.42 0.77,0 1.39125,0.2975 0.62125,0.28875 1.05875,0.86625 0.4375,0.56875 0.67375,1.4175 0.23625,0.84875 0.23625,1.95125 0,0.98 -0.2625,1.8287502 -0.2625,0.84 -0.76125,1.46125 -0.49,0.6125 -1.2075,0.97125 -0.70875,0.35 -1.60125,0.35 -0.81375,0 -1.4,-0.27125 -0.5775,-0.27125 -1.02375,-0.77 l 0,3.92 -1.56625,0 z m 3.955,-10.7625002 q -0.76125,0 -1.33875,0.35 -0.56875,0.35 -1.05,0.98875 l 0,4.2875002 q 0.42,0.5775 0.9275,0.81375 0.51625,0.23625 1.14625,0.23625 1.2425,0 1.9075,-0.88375 0.665,-0.8837502 0.665,-2.5200002 0,-0.86625 -0.1575,-1.4875 -0.14875,-0.62125 -0.4375,-1.015 -0.28875,-0.4025 -0.70875,-0.58625 -0.42,-0.18375 -0.95375,-0.18375 z" /><path
     id="path275"
     style=""
     d="m 174.17692,12.688266 q -0.2275,0 -0.35,-0.07 -0.1225,-0.07875 -0.1925,-0.2975 l -0.175,-0.83125 q -0.35,0.315 -0.69125,0.56875 -0.3325,0.245 -0.7,0.42 -0.35875,0.16625 -0.77875,0.25375 -0.41125,0.09625 -0.91875,0.09625 -0.51625,0 -0.97125,-0.14 -0.455,-0.14875 -0.79625,-0.4375 -0.3325,-0.28875 -0.53375,-0.72625 -0.1925,-0.44625 -0.1925,-1.05 0,-0.5250002 0.28875,-1.0062502 0.28875,-0.49 0.93625,-0.86625 0.6475,-0.37625 1.68875,-0.6125 1.04125,-0.245 2.555,-0.28 l 0,-0.69125 q 0,-1.0325 -0.44625,-1.5575 -0.44625,-0.53375 -1.30375,-0.53375 -0.5775,0 -0.97125,0.14875 -0.385,0.14 -0.67375,0.32375 -0.28,0.175 -0.49,0.32375 -0.20125,0.14 -0.4025,0.14 -0.1575,0 -0.27125,-0.07875 -0.11375,-0.0875 -0.1925,-0.21 l -0.28,-0.49875 q 0.735,-0.70875 1.58375,-1.05875 0.84875,-0.35 1.88125,-0.35 0.74375,0 1.32125,0.245 0.5775,0.245 0.97125,0.6825 0.39375,0.4375 0.595,1.05875 0.20125,0.62125 0.20125,1.365 l 0,5.6700002 -0.69125,0 z m -3.3425,-0.95375 q 0.41125,0 0.7525,-0.07875 0.34125,-0.0875 0.63875,-0.23625 0.30625,-0.1575 0.5775,-0.37625 0.28,-0.2275 0.5425,-0.5075 l 0,-1.8375002 q -1.07625,0.035 -1.8375,0.175 -0.7525,0.13125 -1.23375,0.35 -0.4725,0.21875 -0.69125,0.51625 -0.21,0.2975002 -0.21,0.6650002 0,0.35 0.11375,0.60375 0.11375,0.25375 0.30625,0.42 0.20125,0.1575 0.46375,0.23625 0.27125,0.07 0.5775,0.07 z" /><path
     id="path277"
     style=""
     d="m 177.22356,12.688266 0,-8.8637502 0.8925,0 q 0.25375,0 0.35,0.09625 0.0962,0.09625 0.13125,0.3325 l 0.0962,1.3475 q 0.42,-0.91 1.0325,-1.4175 0.62125,-0.51625 1.505,-0.51625 0.28,0 0.53375,0.06125 0.2625,0.06125 0.46375,0.1925 l -0.11375,1.16375 q -0.0525,0.21875 -0.2625,0.21875 -0.1225,0 -0.35875,-0.0525 -0.23625,-0.0525 -0.53375,-0.0525 -0.42,0 -0.7525,0.13125 -0.3325,0.1225 -0.595,0.3675 -0.25375,0.23625 -0.455,0.58625 -0.20125,0.35 -0.3675,0.805 l 0,5.6000002 -1.56625,0 z" /><path
     id="path279"
     style=""
     d="m 189.07926,12.688266 q -0.2275,0 -0.35,-0.07 -0.1225,-0.07875 -0.1925,-0.2975 l -0.175,-0.83125 q -0.35,0.315 -0.69125,0.56875 -0.3325,0.245 -0.7,0.42 -0.35875,0.16625 -0.77875,0.25375 -0.41125,0.09625 -0.91875,0.09625 -0.51625,0 -0.97125,-0.14 -0.455,-0.14875 -0.79625,-0.4375 -0.3325,-0.28875 -0.53375,-0.72625 -0.1925,-0.44625 -0.1925,-1.05 0,-0.5250002 0.28875,-1.0062502 0.28875,-0.49 0.93625,-0.86625 0.6475,-0.37625 1.68875,-0.6125 1.04125,-0.245 2.555,-0.28 l 0,-0.69125 q 0,-1.0325 -0.44625,-1.5575 -0.44625,-0.53375 -1.30375,-0.53375 -0.5775,0 -0.97125,0.14875 -0.385,0.14 -0.67375,0.32375 -0.28,0.175 -0.49,0.32375 -0.20125,0.14 -0.4025,0.14 -0.1575,0 -0.27125,-0.07875 -0.11375,-0.0875 -0.1925,-0.21 l -0.28,-0.49875 q 0.735,-0.70875 1.58375,-1.05875 0.84875,-0.35 1.88125,-0.35 0.74375,0 1.32125,0.245 0.5775,0.245 0.97125,0.6825 0.39375,0.4375 0.595,1.05875 0.20125,0.62125 0.20125,1.365 l 0,5.6700002 -0.69125,0 z m -3.3425,-0.95375 q 0.41125,0 0.7525,-0.07875 0.34125,-0.0875 0.63875,-0.23625 0.30625,-0.1575 0.5775,-0.37625 0.28,-0.2275 0.5425,-0.5075 l 0,-1.8375002 q -1.07625,0.035 -1.8375,0.175 -0.7525,0.13125 -1.23375,0.35 -0.4725,0.21875 -0.69125,0.51625 -0.21,0.2975002 -0.21,0.6650002 0,0.35 0.11375,0.60375 0.11375,0.25375 0.30625,0.42 0.20125,0.1575 0.46375,0.23625 0.27125,0.07 0.5775,0.07 z" /><path
     id="path281"
     style=""
     d="m 192.1259,12.688266 0,-8.8637502 0.93625,0 q 0.3325,0 0.41125,0.32375 l 0.11375,0.91 q 0.49,-0.60375 1.1025,-0.98875 0.6125,-0.385 1.4175,-0.385 0.8925,0 1.44375,0.49875 0.56,0.49875 0.805,1.3475 0.1925,-0.48125 0.49,-0.83125 0.30625,-0.35 0.6825,-0.5775 0.37625,-0.2275 0.79625,-0.3325 0.42875,-0.105 0.86625,-0.105 0.7,0 1.2425,0.2275 0.55125,0.21875 0.9275,0.6475 0.385,0.42875 0.58625,1.05875 0.20125,0.62125 0.20125,1.42625 l 0,5.6437502 -1.56625,0 0,-5.6437502 q 0,-1.04125 -0.455,-1.575 -0.455,-0.5425 -1.3125,-0.5425 -0.385,0 -0.735,0.14 -0.34125,0.13125 -0.60375,0.39375 -0.2625,0.2625 -0.42,0.665 -0.14875,0.39375 -0.14875,0.91875 l 0,5.6437502 -1.56625,0 0,-5.6437502 q 0,-1.0675 -0.42875,-1.5925 -0.42875,-0.525 -1.25125,-0.525 -0.5775,0 -1.0675,0.315 -0.49,0.30625 -0.90125,0.84 l 0,6.6062502 -1.56625,0 z" /><path
     id="path283"
     style=""
     d="m 210.1468,3.6845158 q 0.79625,0 1.47,0.27125 0.6825,0.2625 1.1725,0.77 0.49875,0.49875 0.77875,1.2425 0.28,0.735 0.28,1.68 0,0.3675 -0.0788,0.49 -0.0787,0.1225 -0.2975,0.1225 l -5.92375,0 q 0.0175,0.84 0.2275,1.46125 0.21,0.6212502 0.5775,1.0412502 0.3675,0.41125 0.875,0.62125 0.5075,0.20125 1.1375,0.20125 0.58625,0 1.00625,-0.13125 0.42875,-0.14 0.735,-0.2975 0.30625,-0.1575 0.5075,-0.28875 0.21,-0.14 0.35875,-0.14 0.1925,0 0.2975,0.14875 l 0.4375,0.56875 q -0.28875,0.35 -0.69125,0.6125 -0.4025,0.25375 -0.86625,0.42 -0.455,0.16625 -0.945,0.245 -0.49,0.0875 -0.97125,0.0875 -0.91875,0 -1.6975,-0.30625 -0.77,-0.315 -1.33875,-0.91 -0.56,-0.60375 -0.875,-1.4875 -0.315,-0.8837502 -0.315,-2.0300002 0,-0.9275 0.28,-1.7325 0.28875,-0.805 0.8225,-1.39125 0.53375,-0.595 1.30375,-0.9275 0.77,-0.34125 1.7325,-0.34125 z m 0.035,1.14625 q -1.12875,0 -1.77625,0.65625 -0.6475,0.6475 -0.805,1.8025 l 4.8475,0 q 0,-0.5425 -0.1575,-0.98875 -0.14875,-0.455 -0.44625,-0.77875 -0.28875,-0.3325 -0.70875,-0.5075 -0.42,-0.18375 -0.95375,-0.18375 z" /><path
     id="path285"
     style=""
     d="m 218.36278,12.828266 q -1.05,0 -1.61875,-0.58625 -0.56,-0.58625 -0.56,-1.68875 l 0,-5.4250002 -1.0675,0 q -0.14,0 -0.23625,-0.07875 -0.0962,-0.0875 -0.0962,-0.2625 l 0,-0.62125 1.4525,-0.18375 0.35875,-2.73875 q 0.0263,-0.13125 0.11375,-0.21 0.0962,-0.0875 0.245,-0.0875 l 0.7875,0 0,3.05375 2.56375,0 0,1.12875 -2.56375,0 0,5.3200002 q 0,0.56 0.27125,0.83125 0.27125,0.27125 0.7,0.27125 0.245,0 0.42,-0.06125 0.18375,-0.07 0.315,-0.14875 0.13125,-0.07875 0.21875,-0.14 0.0962,-0.07 0.16625,-0.07 0.1225,0 0.21875,0.14875 l 0.455,0.74375 q -0.4025,0.37625 -0.97125,0.595 -0.56875,0.21 -1.1725,0.21 z" /><path
     id="path287"
     style=""
     d="m 225.56184,3.6845158 q 0.79625,0 1.47,0.27125 0.6825,0.2625 1.1725,0.77 0.49875,0.49875 0.77875,1.2425 0.28,0.735 0.28,1.68 0,0.3675 -0.0788,0.49 -0.0787,0.1225 -0.2975,0.1225 l -5.92375,0 q 0.0175,0.84 0.2275,1.46125 0.21,0.6212502 0.5775,1.0412502 0.3675,0.41125 0.875,0.62125 0.5075,0.20125 1.1375,0.20125 0.58625,0 1.00625,-0.13125 0.42875,-0.14 0.735,-0.2975 0.30625,-0.1575 0.5075,-0.28875 0.21,-0.14 0.35875,-0.14 0.1925,0 0.2975,0.14875 l 0.4375,0.56875 q -0.28875,0.35 -0.69125,0.6125 -0.4025,0.25375 -0.86625,0.42 -0.455,0.16625 -0.945,0.245 -0.49,0.0875 -0.97125,0.0875 -0.91875,0 -1.6975,-0.30625 -0.77,-0.315 -1.33875,-0.91 -0.56,-0.60375 -0.875,-1.4875 -0.315,-0.8837502 -0.315,-2.0300002 0,-0.9275 0.28,-1.7325 0.28875,-0.805 0.8225,-1.39125 0.53375,-0.595 1.30375,-0.9275 0.77,-0.34125 1.7325,-0.34125 z m 0.035,1.14625 q -1.12875,0 -1.77625,0.65625 -0.6475,0.6475 -0.805,1.8025 l 4.8475,0 q 0,-0.5425 -0.1575,-0.98875 -0.14875,-0.455 -0.44625,-0.77875 -0.28875,-0.3325 -0.70875,-0.5075 -0.42,-0.18375 -0.95375,-0.18375 z" /><path
     id="path289"
     style=""
     d="m 231.1591,12.688266 0,-8.8637502 0.8925,0 q 0.25375,0 0.35,0.09625 0.0962,0.09625 0.13125,0.3325 l 0.0962,1.3475 q 0.42,-0.91 1.0325,-1.4175 0.62125,-0.51625 1.505,-0.51625 0.28,0 0.53375,0.06125 0.2625,0.06125 0.46375,0.1925 l -0.11375,1.16375 q -0.0525,0.21875 -0.2625,0.21875 -0.1225,0 -0.35875,-0.0525 -0.23625,-0.0525 -0.53375,-0.0525 -0.42,0 -0.7525,0.13125 -0.3325,0.1225 -0.595,0.3675 -0.25375,0.23625 -0.455,0.58625 -0.20125,0.35 -0.3675,0.805 l 0,5.6000002 -1.56625,0 z" /><path
     id="path291"
     style=""
     d="m 242.67903,5.2857658 q -0.105,0.1925 -0.32375,0.1925 -0.13125,0 -0.2975,-0.09625 -0.16625,-0.09625 -0.41125,-0.21 -0.23625,-0.1225 -0.56875,-0.21875 -0.3325,-0.105 -0.7875,-0.105 -0.39375,0 -0.70875,0.105 -0.315,0.09625 -0.5425,0.27125 -0.21875,0.175 -0.34125,0.41125 -0.11375,0.2275 -0.11375,0.49875 0,0.34125 0.1925,0.56875 0.20125,0.2275 0.525,0.39375 0.32375,0.16625 0.735,0.2975 0.41125,0.1225 0.84,0.27125 0.4375,0.14 0.84875,0.315 0.41125,0.175 0.735,0.4375 0.32375,0.2625 0.51625,0.6475 0.20125,0.37625 0.20125,0.91 0,0.6125002 -0.21875,1.1375002 -0.21875,0.51625 -0.6475,0.90125 -0.42875,0.37625 -1.05,0.595 -0.62125,0.21875 -1.435,0.21875 -0.9275,0 -1.68,-0.2975 -0.7525,-0.30625 -1.2775,-0.77875 l 0.3675,-0.595 q 0.07,-0.11375 0.16625,-0.175 0.0962,-0.06125 0.245,-0.06125 0.1575,0 0.3325,0.1225 0.175,0.1225 0.42,0.27125 0.25375,0.14875 0.6125,0.27125 0.35875,0.1225 0.8925,0.1225 0.455,0 0.79625,-0.11375 0.34125,-0.1225 0.56875,-0.32375 0.2275,-0.20125 0.3325,-0.46375 0.11375,-0.2625 0.11375,-0.56 0,-0.3675002 -0.20125,-0.6037502 -0.1925,-0.245 -0.51625,-0.41125 -0.32375,-0.175 -0.74375,-0.2975 -0.41125,-0.13125 -0.84875,-0.27125 -0.42875,-0.14 -0.84875,-0.315 -0.41125,-0.18375 -0.735,-0.455 -0.32375,-0.27125 -0.525,-0.665 -0.1925,-0.4025 -0.1925,-0.97125 0,-0.5075 0.21,-0.97125 0.21,-0.4725 0.6125,-0.8225 0.4025,-0.35875 0.98875,-0.56875 0.58625,-0.21 1.33875,-0.21 0.875,0 1.56625,0.28 0.7,0.27125 1.2075,0.7525 l -0.35,0.56875 z" /></g></g></svg>