<?xml version="1.0" encoding="UTF-8" standalone="no"?>
<!-- Created with Inkscape (http://www.inkscape.org/) -->

<svg
   xmlns:dc="http://purl.org/dc/elements/1.1/"
   xmlns:cc="http://creativecommons.org/ns#"
   xmlns:rdf="http://www.w3.org/1999/02/22-rdf-syntax-ns#"
   xmlns:svg="http://www.w3.org/2000/svg"
   xmlns="http://www.w3.org/2000/svg"
   xmlns:sodipodi="http://sodipodi.sourceforge.net/DTD/sodipodi-0.dtd"
   xmlns:inkscape="http://www.inkscape.org/namespaces/inkscape"
   width="245.68271"
   height="157.54883"
   id="svg2"
   version="1.1"
   inkscape:version="0.48.4 r9939"
   sodipodi:docname="superinfection-definition.svg">
  <sodipodi:namedview
     id="base"
     pagecolor="#ffffff"
     bordercolor="#666666"
     borderopacity="1.0"
     inkscape:pageopacity="0.0"
     inkscape:pageshadow="2"
     inkscape:zoom="0.72494338"
     inkscape:cx="-327.22331"
     inkscape:cy="198.66576"
     inkscape:document-units="px"
     inkscape:current-layer="layer3"
     showgrid="false"
     inkscape:window-width="1920"
     inkscape:window-height="1079"
     inkscape:window-x="0"
     inkscape:window-y="0"
     inkscape:window-maximized="1"
     fit-margin-top="0"
     fit-margin-left="0"
     fit-margin-right="0"
     fit-margin-bottom="0"
     showguides="true"
     inkscape:guide-bbox="true" />
  <defs
     id="defs4">
    <marker
       style="overflow:visible"
       id="Arrow1Send"
       refX="0"
       refY="0"
       orient="auto"
       inkscape:stockid="Arrow1Send">
      <path
         transform="matrix(-0.2,0,0,-0.2,-1.2,0)"
         style="fill-rule:evenodd;stroke:#000000;stroke-width:1pt"
         d="M 0,0 5,-5 -12.5,0 5,5 0,0 z"
         id="path5817"
         inkscape:connector-curvature="0" />
    </marker>
    <marker
       style="overflow:visible"
       id="Arrow1Sstart"
       refX="0"
       refY="0"
       orient="auto"
       inkscape:stockid="Arrow1Sstart">
      <path
         transform="matrix(0.2,0,0,0.2,1.2,0)"
         style="fill-rule:evenodd;stroke:#000000;stroke-width:1pt"
         d="M 0,0 5,-5 -12.5,0 5,5 0,0 z"
         id="path5814"
         inkscape:connector-curvature="0" />
    </marker>
    <marker
       inkscape:stockid="DistanceStart"
       orient="auto"
       refY="0"
       refX="0"
       id="DistanceStart"
       style="overflow:visible">
      <g
         id="g2300">
        <path
           id="path2306"
           d="M 0,0 2,0"
           style="fill:none;stroke:#ffffff;stroke-width:1.14999998;stroke-linecap:square"
           inkscape:connector-curvature="0" />
        <path
           id="path2302"
           d="M 0,0 13,4 9,0 13,-4 0,0 z"
           style="fill:#000000;fill-rule:evenodd;stroke:none"
           inkscape:connector-curvature="0" />
        <path
           id="path2304"
           d="M 0,-4 0,40"
           style="fill:none;stroke:#000000;stroke-width:1;stroke-linecap:square"
           inkscape:connector-curvature="0" />
      </g>
    </marker>
    <linearGradient
       id="linearGradient3912"
       y2="533.78998"
       gradientUnits="userSpaceOnUse"
       y1="136.64999"
       x2="442.85999"
       x1="437.14001">
      <stop
         id="stop3888"
         stop-color="#eeeeec"
         offset="0" />
      <stop
         id="stop3890"
         stop-color="#eeeeec"
         stop-opacity="0"
         offset="1" />
    </linearGradient>
    <marker
       style="overflow:visible"
       id="Arrow1SstartP"
       refX="0"
       refY="0"
       orient="auto"
       inkscape:stockid="Arrow1SstartP">
      <path
         transform="matrix(0.2,0,0,0.2,1.2,0)"
         style="fill:#4c72ff;fill-rule:evenodd;stroke:#4c72ff;stroke-width:1pt"
         d="M 0,0 5,-5 -12.5,0 5,5 0,0 z"
         id="path6643"
         inkscape:connector-curvature="0" />
    </marker>
    <marker
       style="overflow:visible"
       id="Arrow1Send3"
       refX="0"
       refY="0"
       orient="auto"
       inkscape:stockid="Arrow1Send3">
      <path
         transform="matrix(-0.2,0,0,-0.2,-1.2,0)"
         style="fill:#4c72ff;fill-rule:evenodd;stroke:#4c72ff;stroke-width:1pt"
         d="M 0,0 5,-5 -12.5,0 5,5 0,0 z"
         id="path6646"
         inkscape:connector-curvature="0" />
    </marker>
  </defs>
  <metadata
     id="metadata7">
    <rdf:RDF>
      <cc:Work
         rdf:about="">
        <dc:format>image/svg+xml</dc:format>
        <dc:type
           rdf:resource="http://purl.org/dc/dcmitype/StillImage" />
        <dc:title />
      </cc:Work>
    </rdf:RDF>
  </metadata>
  <g
     inkscape:groupmode="layer"
     id="layer2"
     inkscape:label="Question"
     style="display:inline"
     transform="translate(-698.80388,-412.99308)" />
  <g
     inkscape:groupmode="layer"
     id="layer4"
     inkscape:label="Random"
     transform="translate(-698.80388,-456.06938)"
     style="display:inline" />
  <g
     transform="translate(-259.1523,-1328.7573)"
     id="layer1"
     inkscape:groupmode="layer"
     inkscape:label="Deterministic"
     style="display:inline">
    <text
       sodipodi:linespacing="125%"
       id="text5764"
       y="879.85168"
       x="430.6076"
       style="font-size:48px;font-style:normal;font-variant:normal;font-weight:normal;font-stretch:normal;line-height:125%;letter-spacing:0px;word-spacing:0px;fill:#000000;fill-opacity:1;stroke:none;font-family:Lato;-inkscape-font-specification:Lato"
       xml:space="preserve"><tspan
         y="879.85168"
         x="430.6076"
         id="tspan5766"
         sodipodi:role="line" /></text>
  </g>
  <g
     inkscape:groupmode="layer"
     id="layer3"
     inkscape:label="Base"
     style="display:inline"
     transform="translate(-698.80388,-456.06938)">
    <g
       id="g3205">
      <line
         style="fill:none;stroke:#000000;stroke-width:1.35625005;stroke-linecap:round;stroke-miterlimit:4;stroke-dasharray:1.35625, 2.7125;stroke-dashoffset:0"
         id="line4141"
         x2="941.97925"
         x1="863.61871"
         class="clade_0"
         y1="491.39462"
         y2="491.39462" />
      <line
         style="fill:none;stroke:#000000;stroke-width:1.35625005;stroke-linecap:round;stroke-miterlimit:4;stroke-dasharray:1.35625, 2.7125;stroke-dashoffset:0"
         id="line4143"
         y2="510.74289"
         class="clade_0"
         y1="510.74289"
         x2="941.97925"
         x1="889.73889" />
      <line
         style="fill:none;stroke:#000000;stroke-width:1.35625005;stroke-linecap:round;stroke-miterlimit:4;stroke-dasharray:1.35625, 2.7125;stroke-dashoffset:0"
         id="line4145"
         y2="530.09119"
         class="clade_0"
         y1="530.09119"
         x2="941.97925"
         x1="889.73889" />
      <line
         style="fill:none;stroke:#000000;stroke-width:1.35625005;stroke-linecap:round;stroke-miterlimit:4;stroke-dasharray:1.35625, 2.7125;stroke-dashoffset:0"
         id="line4147"
         y2="530.09119"
         class="clade_0"
         y1="510.74289"
         x2="889.73889"
         x1="889.73889" />
      <line
         style="fill:none;stroke:#000000;stroke-width:1.35625005;stroke-linecap:round;stroke-miterlimit:4;stroke-dasharray:1.35625, 2.7125;stroke-dashoffset:0"
         id="line4149"
         y2="520.41705"
         class="clade_0"
         y1="520.41705"
         x2="889.73889"
         x1="863.61871" />
      <line
         style="fill:none;stroke:#000000;stroke-width:1.35625005;stroke-linecap:round;stroke-miterlimit:4;stroke-dasharray:1.35625, 2.7125;stroke-dashoffset:0"
         id="line4151"
         x2="863.61871"
         x1="863.61871"
         y2="520.41705"
         class="clade_0"
         y1="491.39462" />
      <line
         style="fill:none;stroke:#000000;stroke-width:1.35625005;stroke-linecap:round;stroke-miterlimit:4;stroke-dasharray:none;stroke-dashoffset:0"
         id="line4153"
         y2="505.90582"
         class="clade_0"
         y1="505.90582"
         x2="863.61871"
         x1="837.49854" />
      <line
         style="fill:none;stroke:#000000;stroke-width:1.35625005;stroke-linecap:round;stroke-miterlimit:4;stroke-dasharray:1.35625, 2.7125;stroke-dashoffset:0"
         id="line4155"
         y2="549.43945"
         class="clade_0"
         y1="549.43945"
         x2="941.97925"
         x1="863.61871" />
      <line
         style="fill:none;stroke:#000000;stroke-width:1.35625005;stroke-linecap:round;stroke-miterlimit:4;stroke-dasharray:1.35625, 2.7125;stroke-dashoffset:0"
         id="line4157"
         y2="568.78772"
         class="clade_0"
         y1="568.78772"
         x2="941.97925"
         x1="889.73889" />
      <line
         style="fill:none;stroke:#000000;stroke-width:1.35625005;stroke-linecap:round;stroke-miterlimit:4;stroke-dasharray:1.35625, 2.7125;stroke-dashoffset:0"
         id="line4159"
         y2="588.13599"
         class="clade_0"
         y1="588.13599"
         x2="941.97925"
         x1="915.85907" />
      <line
         style="fill:none;stroke:#000000;stroke-width:1.35625005;stroke-linecap:round;stroke-miterlimit:4;stroke-dasharray:1.35625, 2.7125;stroke-dashoffset:0"
         id="line4161"
         y2="607.48431"
         class="clade_0"
         y1="607.48431"
         x2="941.97925"
         x1="915.85907" />
      <line
         style="fill:none;stroke:#000000;stroke-width:1.35625005;stroke-linecap:round;stroke-miterlimit:4;stroke-dasharray:1.35625, 2.7125;stroke-dashoffset:0"
         id="line4163"
         y2="607.48431"
         class="clade_0"
         y1="588.13599"
         x2="915.85907"
         x1="915.85907" />
      <line
         style="fill:none;stroke:#000000;stroke-width:1.35625005;stroke-linecap:round;stroke-miterlimit:4;stroke-dasharray:1.35625, 2.7125;stroke-dashoffset:0"
         id="line4165"
         y2="597.81012"
         class="clade_0"
         y1="597.81012"
         x2="915.85907"
         x1="889.73889" />
      <line
         style="fill:none;stroke:#000000;stroke-width:1.35625005;stroke-linecap:round;stroke-miterlimit:4;stroke-dasharray:1.35625, 2.7125;stroke-dashoffset:0"
         id="line4167"
         y2="597.81012"
         class="clade_0"
         y1="568.78772"
         x2="889.73889"
         x1="889.73889" />
      <line
         style="fill:none;stroke:#000000;stroke-width:1.35625005;stroke-linecap:round;stroke-miterlimit:4;stroke-dasharray:1.35625, 2.7125;stroke-dashoffset:0"
         id="line4169"
         y2="583.29895"
         class="clade_0"
         y1="583.29895"
         x2="889.73889"
         x1="863.61871" />
      <line
         style="fill:none;stroke:#000000;stroke-width:1.35625005;stroke-linecap:round;stroke-miterlimit:4;stroke-dasharray:1.35625, 2.7125;stroke-dashoffset:0"
         id="line4171"
         y2="583.29895"
         class="clade_0"
         y1="549.43945"
         x2="863.61871"
         x1="863.61871" />
      <line
         style="fill:none;stroke:#000000;stroke-width:1.35625005;stroke-linecap:round;stroke-miterlimit:4;stroke-dasharray:none;stroke-dashoffset:0"
         id="line4173"
         y2="566.3692"
         class="clade_0"
         y1="566.3692"
         x2="863.61871"
         x1="837.49854" />
      <line
         style="fill:none;stroke:#000000;stroke-width:1.35625005;stroke-linecap:round;stroke-miterlimit:4;stroke-dasharray:none;stroke-dashoffset:0"
         id="line4175"
         y2="566.3692"
         class="clade_0"
         y1="505.90582"
         x2="837.49854"
         x1="837.49854" />
      <line
         style="fill:none;stroke:#000000;stroke-width:1.35625005;stroke-linecap:round;stroke-miterlimit:4;stroke-dasharray:none;stroke-dashoffset:0"
         id="line4177"
         x2="837.49854"
         y1="536.13751"
         y2="536.13751"
         x1="832.6615" />
      <path
         style="fill:#fcab74;fill-opacity:1;stroke:#fcab74;stroke-width:1.35625005;stroke-linecap:round;stroke-miterlimit:4;stroke-opacity:1;stroke-dasharray:none"
         inkscape:connector-curvature="0"
         d="m 943.80846,606.86741 c 0,3.35371 -2.7209,6.07268 -6.0775,6.07268 -3.35637,0 -6.07751,-2.71874 -6.07751,-6.07268 0,-3.35371 2.72091,-6.07269 6.07751,-6.07269 3.35638,0 6.0775,2.71875 6.0775,6.07269 z"
         id="path4179" />
      <path
         style="fill:#fcab74;fill-opacity:1;stroke:#fcab74;stroke-width:1.35625005;stroke-linecap:round;stroke-miterlimit:4;stroke-opacity:1;stroke-dasharray:none"
         inkscape:connector-curvature="0"
         d="m 943.80846,568.25359 c 0,3.35371 -2.7209,6.07268 -6.0775,6.07268 -3.35637,0 -6.07751,-2.71875 -6.07751,-6.07268 0,-3.35372 2.72091,-6.07269 6.07751,-6.07269 3.35638,0 6.0775,2.71875 6.0775,6.07269 z"
         id="path4181" />
      <path
         style="fill:#fcab74;fill-opacity:1;stroke:#fcab74;stroke-width:1.35625005;stroke-linecap:round;stroke-miterlimit:4;stroke-opacity:1;stroke-dasharray:none"
         inkscape:connector-curvature="0"
         d="m 943.80846,587.5605 c 0,3.35371 -2.7209,6.07269 -6.0775,6.07269 -3.35637,0 -6.07751,-2.71876 -6.07751,-6.07269 0,-3.35372 2.72091,-6.07269 6.07751,-6.07269 3.35638,0 6.0775,2.71875 6.0775,6.07269 z"
         id="path4183" />
      <path
         style="fill:#fcab74;fill-opacity:1;stroke:#fcab74;stroke-width:1.35625005;stroke-linecap:round;stroke-miterlimit:4;stroke-opacity:1;stroke-dasharray:none"
         inkscape:connector-curvature="0"
         d="m 943.80846,548.94668 c 0,3.35372 -2.7209,6.07268 -6.0775,6.07268 -3.35637,0 -6.07751,-2.71875 -6.07751,-6.07268 0,-3.35372 2.72091,-6.07269 6.07751,-6.07269 3.35638,0 6.0775,2.71876 6.0775,6.07269 z"
         id="path4185" />
      <path
         style="fill:#89cfb1;fill-opacity:1;stroke:#89cfb1;stroke-width:1.35625005;stroke-linecap:round;stroke-miterlimit:4;stroke-opacity:1;stroke-dasharray:none"
         inkscape:connector-curvature="0"
         d="m 943.80846,529.61785 c 0,3.35372 -2.7209,6.07268 -6.0775,6.07268 -3.35637,0 -6.07751,-2.71874 -6.07751,-6.07268 0,-3.35371 2.72091,-6.07268 6.07751,-6.07268 3.35638,0 6.0775,2.71875 6.0775,6.07268 z"
         id="path4187" />
      <path
         style="fill:#89cfb1;fill-opacity:1;stroke:#89cfb1;stroke-width:1.35625005;stroke-linecap:round;stroke-miterlimit:4;stroke-opacity:1;stroke-dasharray:none"
         inkscape:connector-curvature="0"
         d="m 943.80846,491.00403 c 0,3.35371 -2.7209,6.07269 -6.0775,6.07269 -3.35637,0 -6.07751,-2.71875 -6.07751,-6.07269 0,-3.35371 2.72091,-6.07269 6.07751,-6.07269 3.35638,0 6.0775,2.71876 6.0775,6.07269 z"
         id="path4189" />
      <path
         style="fill:#89cfb1;fill-opacity:1;stroke:#89cfb1;stroke-width:1.35625005;stroke-linecap:round;stroke-miterlimit:4;stroke-opacity:1;stroke-dasharray:none"
         inkscape:connector-curvature="0"
         d="m 943.80846,510.31095 c 0,3.35371 -2.7209,6.07268 -6.0775,6.07268 -3.35637,0 -6.07751,-2.71875 -6.07751,-6.07268 0,-3.35372 2.72091,-6.07269 6.07751,-6.07269 3.35638,0 6.0775,2.71876 6.0775,6.07269 z"
         id="path4191" />
    </g>
    <text
       xml:space="preserve"
       style="font-size:15.11791325px;font-style:normal;font-variant:normal;font-weight:normal;font-stretch:normal;text-align:start;line-height:125%;letter-spacing:0px;word-spacing:0px;writing-mode:lr-tb;text-anchor:start;fill:#000000;fill-opacity:1;stroke:none;font-family:Lato;-inkscape-font-specification:Lato"
       x="705.6275"
       y="467.55545"
       id="text3139"
       sodipodi:linespacing="125%"><tspan
         sodipodi:role="line"
         id="tspan3141"
         x="705.6275"
         y="467.55545">single infection</tspan></text>
    <text
       xml:space="preserve"
       style="font-size:15.11791325px;font-style:normal;font-variant:normal;font-weight:normal;font-stretch:normal;text-align:start;line-height:125%;letter-spacing:0px;word-spacing:0px;writing-mode:lr-tb;text-anchor:start;fill:#000000;fill-opacity:1;stroke:none;font-family:Lato;-inkscape-font-specification:Lato"
       x="840.45917"
       y="467.55545"
       id="text3143"
       sodipodi:linespacing="125%"><tspan
         sodipodi:role="line"
         id="tspan3145"
         x="840.45917"
         y="467.55545">superinfection</tspan></text>
    <g
       id="g3252"
       transform="translate(5.7781741,0)">
      <g
         id="g4056"
         transform="matrix(0.48370699,0,0,0.48370699,694.02997,491.39461)"
         style="fill:none;stroke:#000000;stroke-width:2.80386686;stroke-linecap:round;stroke-miterlimit:4;stroke-dasharray:2.80386686, 5.60773372;stroke-dashoffset:0">
        <line
           id="line4058"
           x2="226"
           x1="64"
           class="clade_0"
           y1="0"
           y2="0"
           style="stroke-width:2.80386686;stroke-miterlimit:4;stroke-dasharray:2.80386686, 5.60773372;stroke-dashoffset:0" />
        <line
           id="line4060"
           y2="40"
           class="clade_0"
           y1="40"
           x2="226"
           x1="118"
           style="stroke-width:2.80386686;stroke-miterlimit:4;stroke-dasharray:2.80386686, 5.60773372;stroke-dashoffset:0" />
        <line
           id="line4062"
           y2="80"
           class="clade_0"
           y1="80"
           x2="226"
           x1="118"
           style="stroke-width:2.80386686;stroke-miterlimit:4;stroke-dasharray:2.80386686, 5.60773372;stroke-dashoffset:0" />
        <line
           id="line4064"
           y2="80"
           class="clade_0"
           y1="40"
           x2="118"
           x1="118"
           style="stroke-width:2.80386686;stroke-miterlimit:4;stroke-dasharray:2.80386686, 5.60773372;stroke-dashoffset:0" />
        <line
           id="line4066"
           y2="60"
           class="clade_0"
           y1="60"
           x2="118"
           x1="64"
           style="stroke-width:2.80386686;stroke-miterlimit:4;stroke-dasharray:2.80386686, 5.60773372;stroke-dashoffset:0" />
        <line
           id="line4068"
           x2="64"
           x1="64"
           y2="60"
           class="clade_0"
           y1="0"
           style="stroke-width:2.80386686;stroke-miterlimit:4;stroke-dasharray:2.80386686, 5.60773372;stroke-dashoffset:0" />
        <line
           id="line4070"
           y2="30"
           class="clade_0"
           y1="30"
           x2="64"
           x1="10"
           style="stroke-width:2.80386686;stroke-miterlimit:4;stroke-dasharray:2.80386686, 5.60773372;stroke-dashoffset:0" />
        <line
           id="line4072"
           y2="120"
           class="clade_0"
           y1="120"
           x2="226"
           x1="64"
           style="stroke-width:2.80386686;stroke-miterlimit:4;stroke-dasharray:2.80386686, 5.60773372;stroke-dashoffset:0" />
        <line
           id="line4074"
           y2="160"
           class="clade_0"
           y1="160"
           x2="226"
           x1="118"
           style="stroke-width:2.80386686;stroke-miterlimit:4;stroke-dasharray:2.80386686, 5.60773372;stroke-dashoffset:0" />
        <line
           id="line4076"
           y2="200"
           class="clade_0"
           y1="200"
           x2="226"
           x1="172"
           style="stroke-width:2.80386686;stroke-miterlimit:4;stroke-dasharray:2.80386686, 5.60773372;stroke-dashoffset:0" />
        <line
           id="line4078"
           y2="240"
           class="clade_0"
           y1="240"
           x2="226"
           x1="172"
           style="stroke-width:2.80386686;stroke-miterlimit:4;stroke-dasharray:2.80386686, 5.60773372;stroke-dashoffset:0" />
        <line
           id="line4080"
           y2="240"
           class="clade_0"
           y1="200"
           x2="172"
           x1="172"
           style="stroke-width:2.80386686;stroke-miterlimit:4;stroke-dasharray:2.80386686, 5.60773372;stroke-dashoffset:0" />
        <line
           id="line4082"
           y2="220"
           class="clade_0"
           y1="220"
           x2="172"
           x1="118"
           style="stroke-width:2.80386686;stroke-miterlimit:4;stroke-dasharray:2.80386686, 5.60773372;stroke-dashoffset:0" />
        <line
           id="line4084"
           y2="220"
           class="clade_0"
           y1="160"
           x2="118"
           x1="118"
           style="stroke-width:2.80386686;stroke-miterlimit:4;stroke-dasharray:2.80386686, 5.60773372;stroke-dashoffset:0" />
        <line
           id="line4086"
           y2="190"
           class="clade_0"
           y1="190"
           x2="118"
           x1="64"
           style="stroke-width:2.80386686;stroke-miterlimit:4;stroke-dasharray:2.80386686, 5.60773372;stroke-dashoffset:0" />
        <line
           id="line4088"
           y2="190"
           class="clade_0"
           y1="120"
           x2="64"
           x1="64"
           style="stroke-width:2.80386686;stroke-miterlimit:4;stroke-dasharray:2.80386686, 5.60773372;stroke-dashoffset:0" />
        <line
           id="line4090"
           y2="155"
           class="clade_0"
           y1="155"
           x2="64"
           x1="10"
           style="stroke-width:2.80386686;stroke-miterlimit:4;stroke-dasharray:2.80386686, 5.60773372;stroke-dashoffset:0" />
        <line
           id="line4092"
           y2="155"
           class="clade_0"
           y1="30"
           x2="10"
           x1="10"
           style="stroke-width:2.80386686;stroke-miterlimit:4;stroke-dasharray:2.80386686, 5.60773372;stroke-dashoffset:0" />
        <line
           id="line4094"
           x2="10"
           y1="92.5"
           y2="92.5"
           x1="0"
           style="stroke-width:2.80386686;stroke-miterlimit:4;stroke-dasharray:2.80386686, 5.60773372;stroke-dashoffset:0" />
      </g>
      <path
         id="path4096"
         d="m 805.17695,606.86741 c 0,3.35371 -2.7209,6.07268 -6.0775,6.07268 -3.35637,0 -6.07751,-2.71874 -6.07751,-6.07268 0,-3.35371 2.72091,-6.07269 6.07751,-6.07269 3.35638,0 6.0775,2.71875 6.0775,6.07269 z"
         inkscape:connector-curvature="0"
         style="fill:#89cfb1;fill-opacity:1;stroke:#89cfb1;stroke-width:1.35625005;stroke-linecap:round;stroke-miterlimit:4;stroke-opacity:1;stroke-dasharray:none" />
      <path
         id="path4098"
         d="m 805.17695,568.25359 c 0,3.35371 -2.7209,6.07268 -6.0775,6.07268 -3.35637,0 -6.07751,-2.71875 -6.07751,-6.07268 0,-3.35372 2.72091,-6.07269 6.07751,-6.07269 3.35638,0 6.0775,2.71875 6.0775,6.07269 z"
         inkscape:connector-curvature="0"
         style="fill:#89cfb1;fill-opacity:1;stroke:#89cfb1;stroke-width:1.35625005;stroke-linecap:round;stroke-miterlimit:4;stroke-opacity:1;stroke-dasharray:none" />
      <path
         id="path4100"
         d="m 805.17695,587.5605 c 0,3.35371 -2.7209,6.07269 -6.0775,6.07269 -3.35637,0 -6.07751,-2.71876 -6.07751,-6.07269 0,-3.35372 2.72091,-6.07269 6.07751,-6.07269 3.35638,0 6.0775,2.71875 6.0775,6.07269 z"
         inkscape:connector-curvature="0"
         style="fill:#fcab74;fill-opacity:1;stroke:#fcab74;stroke-width:1.35625005;stroke-linecap:round;stroke-miterlimit:4;stroke-opacity:1;stroke-dasharray:none" />
      <path
         id="path4102"
         d="m 805.17695,548.94668 c 0,3.35372 -2.7209,6.07268 -6.0775,6.07268 -3.35637,0 -6.07751,-2.71875 -6.07751,-6.07268 0,-3.35372 2.72091,-6.07269 6.07751,-6.07269 3.35638,0 6.0775,2.71876 6.0775,6.07269 z"
         inkscape:connector-curvature="0"
         style="fill:#fcab74;fill-opacity:1;stroke:#fcab74;stroke-width:1.35625005;stroke-linecap:round;stroke-miterlimit:4;stroke-opacity:1;stroke-dasharray:none" />
      <path
         id="path4104"
         d="m 805.17695,529.61785 c 0,3.35372 -2.7209,6.07268 -6.0775,6.07268 -3.35637,0 -6.07751,-2.71874 -6.07751,-6.07268 0,-3.35371 2.72091,-6.07268 6.07751,-6.07268 3.35638,0 6.0775,2.71875 6.0775,6.07268 z"
         inkscape:connector-curvature="0"
         style="fill:#fcab74;fill-opacity:1;stroke:#fcab74;stroke-width:1.35625005;stroke-linecap:round;stroke-miterlimit:4;stroke-opacity:1;stroke-dasharray:none" />
      <path
         id="path4106"
         d="m 805.17695,491.00403 c 0,3.35371 -2.7209,6.07269 -6.0775,6.07269 -3.35637,0 -6.07751,-2.71875 -6.07751,-6.07269 0,-3.35371 2.72091,-6.07269 6.07751,-6.07269 3.35638,0 6.0775,2.71876 6.0775,6.07269 z"
         inkscape:connector-curvature="0"
         style="fill:#fcab74;fill-opacity:1;stroke:#fcab74;stroke-width:1.35625005;stroke-linecap:round;stroke-miterlimit:4;stroke-opacity:1;stroke-dasharray:none" />
      <path
         id="path4108"
         d="m 805.17695,510.31095 c 0,3.35371 -2.7209,6.07268 -6.0775,6.07268 -3.35637,0 -6.07751,-2.71875 -6.07751,-6.07268 0,-3.35372 2.72091,-6.07269 6.07751,-6.07269 3.35638,0 6.0775,2.71876 6.0775,6.07269 z"
         inkscape:connector-curvature="0"
         style="fill:#89cfb1;fill-opacity:1;stroke:#89cfb1;stroke-width:1.35625005;stroke-linecap:round;stroke-miterlimit:4;stroke-opacity:1;stroke-dasharray:none" />
      <line
         id="line3153"
         x2="803.34778"
         x1="724.98724"
         class="clade_0"
         y1="491.39462"
         y2="491.39462"
         style="fill:none;stroke:#000000;stroke-width:1.35625005;stroke-linecap:round;stroke-miterlimit:4;stroke-dasharray:1.35625, 2.7125;stroke-dashoffset:0" />
      <line
         id="line3155"
         y2="510.74289"
         class="clade_0"
         y1="510.74289"
         x2="803.34778"
         x1="751.10742"
         style="fill:none;stroke:#000000;stroke-width:1.35625005;stroke-linecap:round;stroke-miterlimit:4;stroke-dasharray:1.35625, 2.7125;stroke-dashoffset:0" />
      <line
         id="line3157"
         y2="530.09119"
         class="clade_0"
         y1="530.09119"
         x2="803.34778"
         x1="751.10742"
         style="fill:none;stroke:#000000;stroke-width:1.35625005;stroke-linecap:round;stroke-miterlimit:4;stroke-dasharray:1.35625, 2.7125;stroke-dashoffset:0" />
      <line
         id="line3159"
         y2="530.09119"
         class="clade_0"
         y1="510.74289"
         x2="751.10742"
         x1="751.10742"
         style="fill:none;stroke:#000000;stroke-width:1.35625005;stroke-linecap:round;stroke-miterlimit:4;stroke-dasharray:1.35625, 2.7125;stroke-dashoffset:0" />
      <line
         id="line3161"
         y2="520.41705"
         class="clade_0"
         y1="520.41705"
         x2="751.10742"
         x1="724.98724"
         style="fill:none;stroke:#000000;stroke-width:1.35625005;stroke-linecap:round;stroke-miterlimit:4;stroke-dasharray:1.35625, 2.7125;stroke-dashoffset:0" />
      <line
         id="line3163"
         x2="724.98724"
         x1="724.98724"
         y2="520.41705"
         class="clade_0"
         y1="491.39462"
         style="fill:none;stroke:#000000;stroke-width:1.35625005;stroke-linecap:round;stroke-miterlimit:4;stroke-dasharray:1.35625, 2.7125;stroke-dashoffset:0" />
      <line
         id="line3165"
         y2="505.90582"
         class="clade_0"
         y1="505.90582"
         x2="724.98724"
         x1="698.86707"
         style="fill:none;stroke:#000000;stroke-width:1.35625005;stroke-linecap:round;stroke-miterlimit:4;stroke-dasharray:1.35625, 2.7125;stroke-dashoffset:0" />
      <line
         id="line3167"
         y2="549.43945"
         class="clade_0"
         y1="549.43945"
         x2="803.34778"
         x1="724.98724"
         style="fill:none;stroke:#000000;stroke-width:1.35625005;stroke-linecap:round;stroke-miterlimit:4;stroke-dasharray:1.35625, 2.7125;stroke-dashoffset:0" />
      <line
         id="line3169"
         y2="568.78772"
         class="clade_0"
         y1="568.78772"
         x2="803.34778"
         x1="751.10742"
         style="fill:none;stroke:#000000;stroke-width:1.35625005;stroke-linecap:round;stroke-miterlimit:4;stroke-dasharray:1.35625, 2.7125;stroke-dashoffset:0" />
      <line
         id="line3171"
         y2="588.13599"
         class="clade_0"
         y1="588.13599"
         x2="803.34778"
         x1="777.2276"
         style="fill:none;stroke:#000000;stroke-width:1.35625005;stroke-linecap:round;stroke-miterlimit:4;stroke-dasharray:1.35625, 2.7125;stroke-dashoffset:0" />
      <line
         id="line3173"
         y2="607.48431"
         class="clade_0"
         y1="607.48431"
         x2="803.34778"
         x1="777.2276"
         style="fill:none;stroke:#000000;stroke-width:1.35625005;stroke-linecap:round;stroke-miterlimit:4;stroke-dasharray:1.35625, 2.7125;stroke-dashoffset:0" />
      <line
         id="line3175"
         y2="607.48431"
         class="clade_0"
         y1="588.13599"
         x2="777.2276"
         x1="777.2276"
         style="fill:none;stroke:#000000;stroke-width:1.35625005;stroke-linecap:round;stroke-miterlimit:4;stroke-dasharray:1.35625, 2.7125;stroke-dashoffset:0" />
      <line
         id="line3177"
         y2="597.81012"
         class="clade_0"
         y1="597.81012"
         x2="777.2276"
         x1="751.10742"
         style="fill:none;stroke:#000000;stroke-width:1.35625005;stroke-linecap:round;stroke-miterlimit:4;stroke-dasharray:1.35625, 2.7125;stroke-dashoffset:0" />
      <line
         id="line3179"
         y2="597.81012"
         class="clade_0"
         y1="568.78772"
         x2="751.10742"
         x1="751.10742"
         style="fill:none;stroke:#000000;stroke-width:1.35625005;stroke-linecap:round;stroke-miterlimit:4;stroke-dasharray:1.35625, 2.7125;stroke-dashoffset:0" />
      <line
         id="line3181"
         y2="583.29895"
         class="clade_0"
         y1="583.29895"
         x2="751.10742"
         x1="724.98724"
         style="fill:none;stroke:#000000;stroke-width:1.35625005;stroke-linecap:round;stroke-miterlimit:4;stroke-dasharray:1.35625, 2.7125;stroke-dashoffset:0" />
      <line
         id="line3183"
         y2="583.29895"
         class="clade_0"
         y1="549.43945"
         x2="724.98724"
         x1="724.98724"
         style="fill:none;stroke:#000000;stroke-width:1.35625005;stroke-linecap:round;stroke-miterlimit:4;stroke-dasharray:1.35625, 2.7125;stroke-dashoffset:0" />
      <line
         id="line3185"
         y2="566.3692"
         class="clade_0"
         y1="566.3692"
         x2="724.98724"
         x1="698.86707"
         style="fill:none;stroke:#000000;stroke-width:1.35625005;stroke-linecap:round;stroke-miterlimit:4;stroke-dasharray:1.35625, 2.7125;stroke-dashoffset:0" />
      <line
         id="line3187"
         y2="566.3692"
         class="clade_0"
         y1="505.90582"
         x2="698.86707"
         x1="698.86707"
         style="fill:none;stroke:#000000;stroke-width:1.35625005;stroke-linecap:round;stroke-miterlimit:4;stroke-dasharray:1.35625, 2.7125;stroke-dashoffset:0" />
      <line
         id="line3189"
         x2="698.86707"
         y1="536.13751"
         y2="536.13751"
         x1="694.02997"
         style="fill:none;stroke:#000000;stroke-width:1.35625005;stroke-linecap:round;stroke-miterlimit:4;stroke-dasharray:1.35625, 2.7125;stroke-dashoffset:0" />
      <path
         style="fill:#89cfb1;fill-opacity:1;stroke:#89cfb1;stroke-width:1.35625005;stroke-linecap:round;stroke-miterlimit:4;stroke-opacity:1;stroke-dasharray:none"
         inkscape:connector-curvature="0"
         d="m 805.17695,606.86741 c 0,3.35371 -2.7209,6.07268 -6.0775,6.07268 -3.35637,0 -6.07751,-2.71874 -6.07751,-6.07268 0,-3.35371 2.72091,-6.07269 6.07751,-6.07269 3.35638,0 6.0775,2.71875 6.0775,6.07269 z"
         id="path3191" />
      <path
         style="fill:#89cfb1;fill-opacity:1;stroke:#89cfb1;stroke-width:1.35625005;stroke-linecap:round;stroke-miterlimit:4;stroke-opacity:1;stroke-dasharray:none"
         inkscape:connector-curvature="0"
         d="m 805.17695,568.25359 c 0,3.35371 -2.7209,6.07268 -6.0775,6.07268 -3.35637,0 -6.07751,-2.71875 -6.07751,-6.07268 0,-3.35372 2.72091,-6.07269 6.07751,-6.07269 3.35638,0 6.0775,2.71875 6.0775,6.07269 z"
         id="path3193" />
      <path
         style="fill:#fcab74;fill-opacity:1;stroke:#fcab74;stroke-width:1.35625005;stroke-linecap:round;stroke-miterlimit:4;stroke-opacity:1;stroke-dasharray:none"
         inkscape:connector-curvature="0"
         d="m 805.17695,587.5605 c 0,3.35371 -2.7209,6.07269 -6.0775,6.07269 -3.35637,0 -6.07751,-2.71876 -6.07751,-6.07269 0,-3.35372 2.72091,-6.07269 6.07751,-6.07269 3.35638,0 6.0775,2.71875 6.0775,6.07269 z"
         id="path3195" />
      <path
         style="fill:#fcab74;fill-opacity:1;stroke:#fcab74;stroke-width:1.35625005;stroke-linecap:round;stroke-miterlimit:4;stroke-opacity:1;stroke-dasharray:none"
         inkscape:connector-curvature="0"
         d="m 805.17695,548.94668 c 0,3.35372 -2.7209,6.07268 -6.0775,6.07268 -3.35637,0 -6.07751,-2.71875 -6.07751,-6.07268 0,-3.35372 2.72091,-6.07269 6.07751,-6.07269 3.35638,0 6.0775,2.71876 6.0775,6.07269 z"
         id="path3197" />
      <path
         style="fill:#fcab74;fill-opacity:1;stroke:#fcab74;stroke-width:1.35625005;stroke-linecap:round;stroke-miterlimit:4;stroke-opacity:1;stroke-dasharray:none"
         inkscape:connector-curvature="0"
         d="m 805.17695,529.61785 c 0,3.35372 -2.7209,6.07268 -6.0775,6.07268 -3.35637,0 -6.07751,-2.71874 -6.07751,-6.07268 0,-3.35371 2.72091,-6.07268 6.07751,-6.07268 3.35638,0 6.0775,2.71875 6.0775,6.07268 z"
         id="path3199" />
      <path
         style="fill:#fcab74;fill-opacity:1;stroke:#fcab74;stroke-width:1.35625005;stroke-linecap:round;stroke-miterlimit:4;stroke-opacity:1;stroke-dasharray:none"
         inkscape:connector-curvature="0"
         d="m 805.17695,491.00403 c 0,3.35371 -2.7209,6.07269 -6.0775,6.07269 -3.35637,0 -6.07751,-2.71875 -6.07751,-6.07269 0,-3.35371 2.72091,-6.07269 6.07751,-6.07269 3.35638,0 6.0775,2.71876 6.0775,6.07269 z"
         id="path3201" />
      <path
         style="fill:#89cfb1;fill-opacity:1;stroke:#89cfb1;stroke-width:1.35625005;stroke-linecap:round;stroke-miterlimit:4;stroke-opacity:1;stroke-dasharray:none"
         inkscape:connector-curvature="0"
         d="m 805.17695,510.31095 c 0,3.35371 -2.7209,6.07268 -6.0775,6.07268 -3.35637,0 -6.07751,-2.71875 -6.07751,-6.07268 0,-3.35372 2.72091,-6.07269 6.07751,-6.07269 3.35638,0 6.0775,2.71876 6.0775,6.07269 z"
         id="path3203" />
    </g>
  </g>
</svg>
