<?xml version="1.0" encoding="UTF-8" standalone="no"?>
<svg
   xmlns:dc="http://purl.org/dc/elements/1.1/"
   xmlns:cc="http://creativecommons.org/ns#"
   xmlns:rdf="http://www.w3.org/1999/02/22-rdf-syntax-ns#"
   xmlns:svg="http://www.w3.org/2000/svg"
   xmlns="http://www.w3.org/2000/svg"
   version="1.1"
   id="svg2"
   height="157.54883"
   width="245.68271">
  <defs
     id="defs4">
    <marker
       orient="auto"
       refY="0"
       refX="0"
       id="Arrow1Send"
       style="overflow:visible">
      <path
         id="path5817"
         d="M 0,0 5,-5 -12.5,0 5,5 0,0 z"
         style="fill-rule:evenodd;stroke:#000000;stroke-width:1pt"
         transform="matrix(-0.2,0,0,-0.2,-1.2,0)" />
    </marker>
    <marker
       orient="auto"
       refY="0"
       refX="0"
       id="Arrow1Sstart"
       style="overflow:visible">
      <path
         id="path5814"
         d="M 0,0 5,-5 -12.5,0 5,5 0,0 z"
         style="fill-rule:evenodd;stroke:#000000;stroke-width:1pt"
         transform="matrix(0.2,0,0,0.2,1.2,0)" />
    </marker>
    <marker
       style="overflow:visible"
       id="DistanceStart"
       refX="0"
       refY="0"
       orient="auto">
      <g
         id="g2300">
        <path
           style="fill:none;stroke:#ffffff;stroke-width:1.14999998;stroke-linecap:square"
           d="M 0,0 2,0"
           id="path2306" />
        <path
           style="fill:#000000;fill-rule:evenodd;stroke:none"
           d="M 0,0 13,4 9,0 13,-4 0,0 z"
           id="path2302" />
        <path
           style="fill:none;stroke:#000000;stroke-width:1;stroke-linecap:square"
           d="M 0,-4 0,40"
           id="path2304" />
      </g>
    </marker>
    <linearGradient
       x1="437.14001"
       x2="442.85999"
       y1="136.64999"
       gradientUnits="userSpaceOnUse"
       y2="533.78998"
       id="linearGradient3912">
      <stop
         offset="0"
         stop-color="#eeeeec"
         id="stop3888" />
      <stop
         offset="1"
         stop-opacity="0"
         stop-color="#eeeeec"
         id="stop3890" />
    </linearGradient>
    <marker
       orient="auto"
       refY="0"
       refX="0"
       id="Arrow1SstartP"
       style="overflow:visible">
      <path
         id="path6643"
         d="M 0,0 5,-5 -12.5,0 5,5 0,0 z"
         style="fill:#4c72ff;fill-rule:evenodd;stroke:#4c72ff;stroke-width:1pt"
         transform="matrix(0.2,0,0,0.2,1.2,0)" />
    </marker>
    <marker
       orient="auto"
       refY="0"
       refX="0"
       id="Arrow1Send3"
       style="overflow:visible">
      <path
         id="path6646"
         d="M 0,0 5,-5 -12.5,0 5,5 0,0 z"
         style="fill:#4c72ff;fill-rule:evenodd;stroke:#4c72ff;stroke-width:1pt"
         transform="matrix(-0.2,0,0,-0.2,-1.2,0)" />
    </marker>
  </defs>
  <metadata
     id="metadata7">
    <rdf:RDF>
      <cc:Work
         rdf:about="">
        <dc:format>image/svg+xml</dc:format>
        <dc:type
           rdf:resource="http://purl.org/dc/dcmitype/StillImage" />
        <dc:title />
      </cc:Work>
    </rdf:RDF>
  </metadata>
  <g
     transform="translate(-698.80388,-412.99308)"
     style="display:inline"
     id="layer2" />
  <g
     style="display:inline"
     transform="translate(-698.80388,-456.06938)"
     id="layer4" />
  <g
     style="display:inline"
     id="layer1"
     transform="translate(-259.1523,-1328.7573)">
    <g
       id="text5764"
       style="font-style:normal;font-variant:normal;font-weight:normal;font-stretch:normal;line-height:0%;font-family:Lato;-inkscape-font-specification:Lato;letter-spacing:0px;word-spacing:0px;fill:#000000;fill-opacity:1;stroke:none"
       aria-label=" " />
  </g>
  <g
     transform="translate(-698.80388,-456.06938)"
     style="display:inline"
     id="layer3">
    <g
       id="g3205">
      <path
         id="line4141"
         d="m 863.61871,491.39462 h 78.36054"
         style="fill:none;stroke:#000000;stroke-width:1.35625005;stroke-linecap:round;stroke-miterlimit:4;stroke-dasharray:1.35625, 2.7125;stroke-dashoffset:0" />
      <path
         id="line4143"
         d="m 889.73889,510.74289 h 52.24036"
         style="fill:none;stroke:#000000;stroke-width:1.35625005;stroke-linecap:round;stroke-miterlimit:4;stroke-dasharray:1.35625, 2.7125;stroke-dashoffset:0" />
      <path
         id="line4145"
         d="m 889.73889,530.09119 h 52.24036"
         style="fill:none;stroke:#000000;stroke-width:1.35625005;stroke-linecap:round;stroke-miterlimit:4;stroke-dasharray:1.35625, 2.7125;stroke-dashoffset:0" />
      <path
         id="line4147"
         d="m 889.73889,510.74289 v 19.3483"
         style="fill:none;stroke:#000000;stroke-width:1.35625005;stroke-linecap:round;stroke-miterlimit:4;stroke-dasharray:1.35625, 2.7125;stroke-dashoffset:0" />
      <path
         id="line4149"
         d="m 863.61871,520.41705 h 26.12018"
         style="fill:none;stroke:#000000;stroke-width:1.35625005;stroke-linecap:round;stroke-miterlimit:4;stroke-dasharray:1.35625, 2.7125;stroke-dashoffset:0" />
      <path
         id="line4151"
         d="m 863.61871,491.39462 v 29.02243"
         style="fill:none;stroke:#000000;stroke-width:1.35625005;stroke-linecap:round;stroke-miterlimit:4;stroke-dasharray:1.35625, 2.7125;stroke-dashoffset:0" />
      <path
         id="line4153"
         d="m 837.49854,505.90582 h 26.12017"
         style="fill:none;stroke:#000000;stroke-width:1.35625005;stroke-linecap:round;stroke-miterlimit:4;stroke-dasharray:none;stroke-dashoffset:0" />
      <path
         id="line4155"
         d="m 863.61871,549.43945 h 78.36054"
         style="fill:none;stroke:#000000;stroke-width:1.35625005;stroke-linecap:round;stroke-miterlimit:4;stroke-dasharray:1.35625, 2.7125;stroke-dashoffset:0" />
      <path
         id="line4157"
         d="m 889.73889,568.78772 h 52.24036"
         style="fill:none;stroke:#000000;stroke-width:1.35625005;stroke-linecap:round;stroke-miterlimit:4;stroke-dasharray:1.35625, 2.7125;stroke-dashoffset:0" />
      <path
         id="line4159"
         d="m 915.85907,588.13599 h 26.12018"
         style="fill:none;stroke:#000000;stroke-width:1.35625005;stroke-linecap:round;stroke-miterlimit:4;stroke-dasharray:1.35625, 2.7125;stroke-dashoffset:0" />
      <path
         id="line4161"
         d="m 915.85907,607.48431 h 26.12018"
         style="fill:none;stroke:#000000;stroke-width:1.35625005;stroke-linecap:round;stroke-miterlimit:4;stroke-dasharray:1.35625, 2.7125;stroke-dashoffset:0" />
      <path
         id="line4163"
         d="m 915.85907,588.13599 v 19.34832"
         style="fill:none;stroke:#000000;stroke-width:1.35625005;stroke-linecap:round;stroke-miterlimit:4;stroke-dasharray:1.35625, 2.7125;stroke-dashoffset:0" />
      <path
         id="line4165"
         d="m 889.73889,597.81012 h 26.12018"
         style="fill:none;stroke:#000000;stroke-width:1.35625005;stroke-linecap:round;stroke-miterlimit:4;stroke-dasharray:1.35625, 2.7125;stroke-dashoffset:0" />
      <path
         id="line4167"
         d="m 889.73889,568.78772 v 29.0224"
         style="fill:none;stroke:#000000;stroke-width:1.35625005;stroke-linecap:round;stroke-miterlimit:4;stroke-dasharray:1.35625, 2.7125;stroke-dashoffset:0" />
      <path
         id="line4169"
         d="m 863.61871,583.29895 h 26.12018"
         style="fill:none;stroke:#000000;stroke-width:1.35625005;stroke-linecap:round;stroke-miterlimit:4;stroke-dasharray:1.35625, 2.7125;stroke-dashoffset:0" />
      <path
         id="line4171"
         d="m 863.61871,549.43945 v 33.8595"
         style="fill:none;stroke:#000000;stroke-width:1.35625005;stroke-linecap:round;stroke-miterlimit:4;stroke-dasharray:1.35625, 2.7125;stroke-dashoffset:0" />
      <path
         id="line4173"
         d="m 837.49854,566.3692 h 26.12017"
         style="fill:none;stroke:#000000;stroke-width:1.35625005;stroke-linecap:round;stroke-miterlimit:4;stroke-dasharray:none;stroke-dashoffset:0" />
      <path
         id="line4175"
         d="M 837.49854,505.90582 V 566.3692"
         style="fill:none;stroke:#000000;stroke-width:1.35625005;stroke-linecap:round;stroke-miterlimit:4;stroke-dasharray:none;stroke-dashoffset:0" />
      <path
         id="line4177"
         d="m 832.6615,536.13751 h 4.83704"
         style="fill:none;stroke:#000000;stroke-width:1.35625005;stroke-linecap:round;stroke-miterlimit:4;stroke-dasharray:none;stroke-dashoffset:0" />
      <path
         id="path4179"
         d="m 943.80846,606.86741 c 0,3.35371 -2.7209,6.07268 -6.0775,6.07268 -3.35637,0 -6.07751,-2.71874 -6.07751,-6.07268 0,-3.35371 2.72091,-6.07269 6.07751,-6.07269 3.35638,0 6.0775,2.71875 6.0775,6.07269 z"
         style="fill:#fcab74;fill-opacity:1;stroke:#fcab74;stroke-width:1.35625005;stroke-linecap:round;stroke-miterlimit:4;stroke-dasharray:none;stroke-opacity:1" />
      <path
         id="path4181"
         d="m 943.80846,568.25359 c 0,3.35371 -2.7209,6.07268 -6.0775,6.07268 -3.35637,0 -6.07751,-2.71875 -6.07751,-6.07268 0,-3.35372 2.72091,-6.07269 6.07751,-6.07269 3.35638,0 6.0775,2.71875 6.0775,6.07269 z"
         style="fill:#fcab74;fill-opacity:1;stroke:#fcab74;stroke-width:1.35625005;stroke-linecap:round;stroke-miterlimit:4;stroke-dasharray:none;stroke-opacity:1" />
      <path
         id="path4183"
         d="m 943.80846,587.5605 c 0,3.35371 -2.7209,6.07269 -6.0775,6.07269 -3.35637,0 -6.07751,-2.71876 -6.07751,-6.07269 0,-3.35372 2.72091,-6.07269 6.07751,-6.07269 3.35638,0 6.0775,2.71875 6.0775,6.07269 z"
         style="fill:#fcab74;fill-opacity:1;stroke:#fcab74;stroke-width:1.35625005;stroke-linecap:round;stroke-miterlimit:4;stroke-dasharray:none;stroke-opacity:1" />
      <path
         id="path4185"
         d="m 943.80846,548.94668 c 0,3.35372 -2.7209,6.07268 -6.0775,6.07268 -3.35637,0 -6.07751,-2.71875 -6.07751,-6.07268 0,-3.35372 2.72091,-6.07269 6.07751,-6.07269 3.35638,0 6.0775,2.71876 6.0775,6.07269 z"
         style="fill:#fcab74;fill-opacity:1;stroke:#fcab74;stroke-width:1.35625005;stroke-linecap:round;stroke-miterlimit:4;stroke-dasharray:none;stroke-opacity:1" />
      <path
         id="path4187"
         d="m 943.80846,529.61785 c 0,3.35372 -2.7209,6.07268 -6.0775,6.07268 -3.35637,0 -6.07751,-2.71874 -6.07751,-6.07268 0,-3.35371 2.72091,-6.07268 6.07751,-6.07268 3.35638,0 6.0775,2.71875 6.0775,6.07268 z"
         style="fill:#89cfb1;fill-opacity:1;stroke:#89cfb1;stroke-width:1.35625005;stroke-linecap:round;stroke-miterlimit:4;stroke-dasharray:none;stroke-opacity:1" />
      <path
         id="path4189"
         d="m 943.80846,491.00403 c 0,3.35371 -2.7209,6.07269 -6.0775,6.07269 -3.35637,0 -6.07751,-2.71875 -6.07751,-6.07269 0,-3.35371 2.72091,-6.07269 6.07751,-6.07269 3.35638,0 6.0775,2.71876 6.0775,6.07269 z"
         style="fill:#89cfb1;fill-opacity:1;stroke:#89cfb1;stroke-width:1.35625005;stroke-linecap:round;stroke-miterlimit:4;stroke-dasharray:none;stroke-opacity:1" />
      <path
         id="path4191"
         d="m 943.80846,510.31095 c 0,3.35371 -2.7209,6.07268 -6.0775,6.07268 -3.35637,0 -6.07751,-2.71875 -6.07751,-6.07268 0,-3.35372 2.72091,-6.07269 6.07751,-6.07269 3.35638,0 6.0775,2.71876 6.0775,6.07269 z"
         style="fill:#89cfb1;fill-opacity:1;stroke:#89cfb1;stroke-width:1.35625005;stroke-linecap:round;stroke-miterlimit:4;stroke-dasharray:none;stroke-opacity:1" />
    </g>
    <g
       id="text3139"
       style="font-style:normal;font-variant:normal;font-weight:normal;font-stretch:normal;line-height:0%;font-family:Lato;-inkscape-font-specification:Lato;text-align:start;letter-spacing:0px;word-spacing:0px;writing-mode:lr-tb;text-anchor:start;fill:#000000;fill-opacity:1;stroke:none"
       aria-label="single infection">
      <path
         id="path133"
         style="font-size:15.11791325px;line-height:1.25"
         d="m 711.1531,461.16057 q -0.0907,0.1663 -0.27968,0.1663 -0.11339,0 -0.25701,-0.0831 -0.14362,-0.0831 -0.35527,-0.18141 -0.20409,-0.10583 -0.49133,-0.18898 -0.28724,-0.0907 -0.68031,-0.0907 -0.34015,0 -0.61227,0.0907 -0.27212,0.0831 -0.46866,0.23433 -0.18897,0.15118 -0.2948,0.35527 -0.0983,0.19653 -0.0983,0.43086 0,0.2948 0.1663,0.49133 0.17385,0.19654 0.45353,0.34016 0.27968,0.14362 0.63495,0.257 0.35528,0.10583 0.72566,0.23433 0.37795,0.12094 0.73322,0.27212 0.35527,0.15118 0.63496,0.37795 0.27968,0.22677 0.44597,0.55936 0.17386,0.32504 0.17386,0.78613 0,0.52913 -0.18897,0.98267 -0.18898,0.44598 -0.55937,0.77857 -0.37039,0.32504 -0.90707,0.51401 -0.53669,0.18897 -1.23967,0.18897 -0.80125,0 -1.45132,-0.257 -0.65007,-0.26456 -1.10361,-0.67275 l 0.31748,-0.51401 q 0.0605,-0.0983 0.14362,-0.15118 0.0831,-0.0529 0.21165,-0.0529 0.13606,0 0.28724,0.10583 0.15118,0.10582 0.36283,0.23432 0.21921,0.12851 0.52913,0.23433 0.30991,0.10583 0.77101,0.10583 0.39307,0 0.68787,-0.0983 0.29479,-0.10582 0.49133,-0.27968 0.19653,-0.17386 0.28724,-0.40063 0.0983,-0.22676 0.0983,-0.48377 0,-0.31747 -0.17385,-0.52157 -0.1663,-0.21165 -0.44598,-0.35527 -0.27968,-0.15118 -0.64251,-0.257 -0.35527,-0.11339 -0.73322,-0.23433 -0.37039,-0.12094 -0.73322,-0.27212 -0.35527,-0.15874 -0.63495,-0.39307 -0.27968,-0.23433 -0.45354,-0.57448 -0.1663,-0.34771 -0.1663,-0.83904 0,-0.43842 0.18142,-0.83905 0.18141,-0.40818 0.52913,-0.71054 0.34771,-0.30992 0.85416,-0.49133 0.50645,-0.18142 1.15652,-0.18142 0.75589,0 1.35305,0.24189 0.60472,0.23433 1.04314,0.65007 z" />
      <path
         id="path135"
         style="font-size:15.11791325px;line-height:1.25"
         d="m 714.66943,459.89823 v 7.65722 h -1.34549 v -7.65722 z m 0.28724,-2.40375 q 0,0.19653 -0.0832,0.37039 -0.0756,0.1663 -0.21165,0.30236 -0.1285,0.1285 -0.30991,0.20409 -0.17386,0.0756 -0.37039,0.0756 -0.19654,0 -0.37039,-0.0756 -0.1663,-0.0756 -0.2948,-0.20409 -0.1285,-0.13606 -0.20409,-0.30236 -0.0756,-0.17386 -0.0756,-0.37039 0,-0.19653 0.0756,-0.37039 0.0756,-0.18141 0.20409,-0.30992 0.1285,-0.13606 0.2948,-0.21165 0.17385,-0.0756 0.37039,-0.0756 0.19653,0 0.37039,0.0756 0.18141,0.0756 0.30991,0.21165 0.13606,0.12851 0.21165,0.30992 0.0832,0.17386 0.0832,0.37039 z" />
      <path
         id="path137"
         style="font-size:15.11791325px;line-height:1.25"
         d="m 718.1501,461.00939 q 0.24944,-0.27968 0.52912,-0.50645 0.27968,-0.22676 0.5896,-0.3855 0.31748,-0.1663 0.66519,-0.24945 0.35527,-0.0907 0.76345,-0.0907 0.6274,0 1.10361,0.21165 0.48377,0.2041 0.80125,0.5896 0.32504,0.37795 0.49133,0.91464 0.1663,0.53668 0.1663,1.18675 v 4.87553 h -1.35305 v -4.87553 q 0,-0.86928 -0.40063,-1.34549 -0.39306,-0.48377 -1.20187,-0.48377 -0.59716,0 -1.11873,0.28724 -0.51401,0.28724 -0.95243,0.77857 v 5.63898 h -1.35305 v -7.65722 h 0.80881 q 0.28724,0 0.35527,0.27968 z" />
      <path
         id="path139"
         style="font-size:15.11791325px;line-height:1.25"
         d="m 727.99327,463.81377 q 0.40819,0 0.71811,-0.11339 0.30991,-0.11338 0.52156,-0.31747 0.21165,-0.2041 0.31748,-0.48378 0.10582,-0.28724 0.10582,-0.62739 0,-0.70298 -0.43086,-1.11873 -0.4233,-0.41574 -1.23211,-0.41574 -0.81636,0 -1.24722,0.41574 -0.42331,0.41575 -0.42331,1.11873 0,0.34015 0.10583,0.62739 0.11338,0.27968 0.32504,0.48378 0.21165,0.20409 0.52156,0.31747 0.30992,0.11339 0.7181,0.11339 z m 2.42643,4.15742 q 0,-0.27968 -0.15874,-0.45353 -0.15874,-0.17386 -0.43086,-0.27213 -0.26456,-0.0983 -0.61983,-0.13606 -0.35527,-0.0453 -0.7559,-0.068 -0.39307,-0.0227 -0.80125,-0.0454 -0.40818,-0.0227 -0.78613,-0.0756 -0.4233,0.19653 -0.69542,0.49889 -0.26457,0.2948 -0.26457,0.69542 0,0.25701 0.1285,0.47622 0.13607,0.22677 0.40819,0.3855 0.27212,0.1663 0.6803,0.25701 0.41575,0.0983 0.97511,0.0983 0.54424,0 0.9751,-0.0983 0.43087,-0.0983 0.72566,-0.27968 0.30236,-0.18142 0.4611,-0.43086 0.15874,-0.24945 0.15874,-0.55181 z m 1.36817,-7.7706 v 0.49889 q 0,0.24944 -0.31748,0.31747 l -0.86928,0.11339 q 0.25701,0.49889 0.25701,1.1036 0,0.55937 -0.21921,1.02046 -0.21165,0.45354 -0.5896,0.77858 -0.37795,0.32503 -0.90707,0.49889 -0.52913,0.17385 -1.14897,0.17385 -0.53668,0 -1.0129,-0.1285 -0.24188,0.15118 -0.37038,0.32504 -0.12851,0.16629 -0.12851,0.34015 0,0.27212 0.21921,0.41574 0.22677,0.13606 0.5896,0.19654 0.36283,0.0605 0.82393,0.0756 0.46865,0.0151 0.95243,0.0529 0.49133,0.0302 0.95242,0.11338 0.46866,0.0831 0.83149,0.27212 0.36283,0.18898 0.58204,0.52157 0.22677,0.3326 0.22677,0.86172 0,0.49134 -0.24945,0.95243 -0.24188,0.4611 -0.70298,0.81637 -0.4611,0.36283 -1.13384,0.57448 -0.66519,0.21921 -1.50424,0.21921 -0.83904,0 -1.46643,-0.1663 -0.6274,-0.16629 -1.04314,-0.44598 -0.41574,-0.27968 -0.62739,-0.65007 -0.2041,-0.36283 -0.2041,-0.76345 0,-0.56692 0.35528,-0.95999 0.35527,-0.39306 0.9751,-0.62739 -0.34015,-0.15118 -0.54424,-0.40063 -0.19654,-0.257 -0.19654,-0.68786 0,-0.1663 0.0605,-0.34015 0.0605,-0.18142 0.18141,-0.35528 0.1285,-0.18141 0.30992,-0.34015 0.18141,-0.15874 0.4233,-0.27968 -0.56692,-0.31748 -0.8844,-0.83904 -0.31748,-0.52913 -0.31748,-1.22456 0,-0.55936 0.21166,-1.0129 0.21921,-0.46109 0.60471,-0.77857 0.38551,-0.32503 0.91464,-0.49889 0.53668,-0.17385 1.17163,-0.17385 0.4989,0 0.92976,0.11338 0.43086,0.10582 0.78613,0.31748 z" />
      <path
         id="path141"
         style="font-size:15.11791325px;line-height:1.25"
         d="m 734.57004,456.42111 v 11.13434 h -1.34549 v -11.13434 z" />
      <path
         id="path143"
         style="font-size:15.11791325px;line-height:1.25"
         d="m 741.87695,462.89157 q 0,-0.46865 -0.13606,-0.85416 -0.1285,-0.39306 -0.38551,-0.67275 -0.24944,-0.28724 -0.61227,-0.43841 -0.36283,-0.15874 -0.82393,-0.15874 -0.96755,0 -1.53447,0.56692 -0.55936,0.55936 -0.69542,1.55714 z m 1.08849,3.59051 q -0.24945,0.30236 -0.59716,0.52913 -0.34771,0.21921 -0.74833,0.36283 -0.39307,0.14362 -0.81637,0.21165 -0.4233,0.0756 -0.83905,0.0756 -0.79369,0 -1.46643,-0.26457 -0.66519,-0.27212 -1.15652,-0.78613 -0.48378,-0.52157 -0.7559,-1.28502 -0.27212,-0.76346 -0.27212,-1.75368 0,-0.80125 0.24188,-1.49667 0.24945,-0.69543 0.71055,-1.20188 0.46109,-0.51401 1.12628,-0.80125 0.66519,-0.2948 1.49667,-0.2948 0.68787,0 1.26991,0.23433 0.5896,0.22677 1.0129,0.66519 0.43086,0.43086 0.67275,1.07337 0.24188,0.63495 0.24188,1.45132 0,0.31748 -0.068,0.4233 -0.068,0.10583 -0.257,0.10583 h -5.11742 q 0.0227,0.72566 0.19654,1.26234 0.18141,0.53669 0.49889,0.89952 0.31747,0.35527 0.75589,0.53669 0.43842,0.17385 0.98267,0.17385 0.50645,0 0.86928,-0.11338 0.37039,-0.12095 0.63495,-0.25701 0.26456,-0.13606 0.43842,-0.24944 0.18142,-0.12095 0.30992,-0.12095 0.16629,0 0.257,0.12851 z" />
      <path
         id="path145"
         style="font-size:15.11791325px;line-height:1.25"
         d="m 750.01346,459.89823 v 7.65722 h -1.3455 v -7.65722 z m 0.28724,-2.40375 q 0,0.19653 -0.0832,0.37039 -0.0756,0.1663 -0.21165,0.30236 -0.1285,0.1285 -0.30992,0.20409 -0.17385,0.0756 -0.37039,0.0756 -0.19653,0 -0.37039,-0.0756 -0.16629,-0.0756 -0.29479,-0.20409 -0.12851,-0.13606 -0.2041,-0.30236 -0.0756,-0.17386 -0.0756,-0.37039 0,-0.19653 0.0756,-0.37039 0.0756,-0.18141 0.2041,-0.30992 0.1285,-0.13606 0.29479,-0.21165 0.17386,-0.0756 0.37039,-0.0756 0.19654,0 0.37039,0.0756 0.18142,0.0756 0.30992,0.21165 0.13606,0.12851 0.21165,0.30992 0.0832,0.17386 0.0832,0.37039 z" />
      <path
         id="path147"
         style="font-size:15.11791325px;line-height:1.25"
         d="m 753.49412,461.00939 q 0.24945,-0.27968 0.52913,-0.50645 0.27968,-0.22676 0.5896,-0.3855 0.31747,-0.1663 0.66519,-0.24945 0.35527,-0.0907 0.76345,-0.0907 0.62739,0 1.10361,0.21165 0.48377,0.2041 0.80125,0.5896 0.32503,0.37795 0.49133,0.91464 0.1663,0.53668 0.1663,1.18675 v 4.87553 h -1.35306 v -4.87553 q 0,-0.86928 -0.40062,-1.34549 -0.39307,-0.48377 -1.20187,-0.48377 -0.59716,0 -1.11873,0.28724 -0.51401,0.28724 -0.95243,0.77857 v 5.63898 h -1.35305 v -7.65722 h 0.80881 q 0.28724,0 0.35527,0.27968 z" />
      <path
         id="path149"
         style="font-size:15.11791325px;line-height:1.25"
         d="m 761.04977,467.55545 v -6.50826 l -0.8466,-0.0983 q -0.15874,-0.0378 -0.26456,-0.11338 -0.0983,-0.0831 -0.0983,-0.23433 v -0.5518 h 1.20943 v -0.74078 q 0,-0.65763 0.18142,-1.16408 0.18897,-0.51401 0.52913,-0.86172 0.34771,-0.35527 0.83148,-0.53669 0.48377,-0.18141 1.08849,-0.18141 0.51401,0 0.94487,0.15118 l -0.0302,0.67274 q -0.0151,0.18142 -0.20409,0.19654 -0.18141,0.0151 -0.49133,0.0151 -0.34771,0 -0.63495,0.0907 -0.27968,0.0907 -0.48378,0.2948 -0.20409,0.20409 -0.31747,0.53669 -0.10583,0.33259 -0.10583,0.82392 v 0.70299 h 2.20722 v 0.9751 h -2.16186 v 6.53094 z" />
      <path
         id="path151"
         style="font-size:15.11791325px;line-height:1.25"
         d="m 770.725,462.89157 q 0,-0.46865 -0.13606,-0.85416 -0.1285,-0.39306 -0.38551,-0.67275 -0.24944,-0.28724 -0.61227,-0.43841 -0.36283,-0.15874 -0.82393,-0.15874 -0.96755,0 -1.53447,0.56692 -0.55936,0.55936 -0.69542,1.55714 z m 1.08849,3.59051 q -0.24945,0.30236 -0.59716,0.52913 -0.34771,0.21921 -0.74834,0.36283 -0.39306,0.14362 -0.81636,0.21165 -0.4233,0.0756 -0.83905,0.0756 -0.79369,0 -1.46643,-0.26457 -0.66519,-0.27212 -1.15652,-0.78613 -0.48378,-0.52157 -0.7559,-1.28502 -0.27212,-0.76346 -0.27212,-1.75368 0,-0.80125 0.24188,-1.49667 0.24945,-0.69543 0.71055,-1.20188 0.46109,-0.51401 1.12628,-0.80125 0.66519,-0.2948 1.49667,-0.2948 0.68787,0 1.26991,0.23433 0.5896,0.22677 1.0129,0.66519 0.43086,0.43086 0.67275,1.07337 0.24188,0.63495 0.24188,1.45132 0,0.31748 -0.068,0.4233 -0.068,0.10583 -0.257,0.10583 h -5.11742 q 0.0227,0.72566 0.19654,1.26234 0.18141,0.53669 0.49889,0.89952 0.31747,0.35527 0.75589,0.53669 0.43842,0.17385 0.98267,0.17385 0.50645,0 0.86928,-0.11338 0.37039,-0.12095 0.63495,-0.25701 0.26456,-0.13606 0.43842,-0.24944 0.18141,-0.12095 0.30992,-0.12095 0.16629,0 0.257,0.12851 z" />
      <path
         id="path153"
         style="font-size:15.11791325px;line-height:1.25"
         d="m 778.90143,461.25884 q -0.0605,0.0831 -0.12094,0.1285 -0.0605,0.0454 -0.1663,0.0454 -0.11338,0 -0.24944,-0.0907 -0.13607,-0.0983 -0.34016,-0.21165 -0.19653,-0.11339 -0.49133,-0.20409 -0.28724,-0.0983 -0.71054,-0.0983 -0.56692,0 -0.99778,0.20409 -0.43086,0.19653 -0.72566,0.57448 -0.28724,0.37795 -0.43842,0.91464 -0.14362,0.53668 -0.14362,1.20187 0,0.69542 0.15873,1.23967 0.15874,0.53668 0.44598,0.90707 0.2948,0.36283 0.70299,0.55937 0.41574,0.18897 0.92975,0.18897 0.49133,0 0.80881,-0.11338 0.31747,-0.12095 0.52156,-0.26457 0.21165,-0.14362 0.34772,-0.257 0.14362,-0.12095 0.27968,-0.12095 0.16629,0 0.257,0.12851 l 0.37795,0.49133 q -0.24945,0.30992 -0.56692,0.52913 -0.31748,0.21921 -0.68787,0.37038 -0.36283,0.14362 -0.76345,0.21166 -0.40063,0.068 -0.81637,0.068 -0.7181,0 -1.33793,-0.26457 -0.61228,-0.26456 -1.06582,-0.76345 -0.45353,-0.50645 -0.71054,-1.23967 -0.257,-0.73322 -0.257,-1.67053 0,-0.85416 0.23432,-1.57982 0.24189,-0.72566 0.69543,-1.24723 0.46109,-0.52913 1.12628,-0.82393 0.67275,-0.2948 1.54203,-0.2948 0.80881,0 1.42108,0.26457 0.61984,0.257 1.09605,0.73322 z" />
      <path
         id="path155"
         style="font-size:15.11791325px;line-height:1.25"
         d="m 787.88241,467.55545 h -1.34549 v -6.53094 h -3.94578 v 4.59585 q 0,0.48377 0.23433,0.7181 0.23433,0.23433 0.60472,0.23433 0.21165,0 0.36283,-0.0529 0.15874,-0.0605 0.27212,-0.1285 0.11339,-0.068 0.18897,-0.12094 0.0832,-0.0605 0.14362,-0.0605 0.10583,0 0.18898,0.1285 l 0.39306,0.64251 q -0.34771,0.32503 -0.83904,0.51401 -0.49133,0.18141 -1.0129,0.18141 -0.90707,0 -1.39841,-0.50645 -0.48377,-0.50645 -0.48377,-1.45887 v -4.68656 h -0.92219 q -0.12095,0 -0.20409,-0.068 -0.0832,-0.0756 -0.0832,-0.22677 v -0.53668 l 1.25478,-0.1663 0.30992,-2.35839 q 0.0227,-0.11339 0.0983,-0.18142 0.0831,-0.0756 0.21165,-0.0756 h 0.6803 v 2.63808 h 5.29127 z m 0.3326,-10.11388 q 0,0.19653 -0.0832,0.37039 -0.0756,0.16629 -0.21165,0.29479 -0.1285,0.12851 -0.30236,0.2041 -0.17386,0.0756 -0.37039,0.0756 -0.19653,0 -0.37039,-0.0756 -0.16629,-0.0756 -0.2948,-0.2041 -0.1285,-0.1285 -0.20409,-0.29479 -0.0756,-0.17386 -0.0756,-0.37039 0,-0.19654 0.0756,-0.37039 0.0756,-0.18142 0.20409,-0.30992 0.12851,-0.13606 0.2948,-0.21165 0.17386,-0.0756 0.37039,-0.0756 0.19653,0 0.37039,0.0756 0.17386,0.0756 0.30236,0.21165 0.13606,0.1285 0.21165,0.30992 0.0832,0.17385 0.0832,0.37039 z" />
      <path
         id="path157"
         style="font-size:15.11791325px;line-height:1.25"
         d="m 793.30573,459.77728 q 0.83905,0 1.51179,0.27969 0.67275,0.27968 1.14897,0.79369 0.47621,0.514 0.72566,1.24722 0.257,0.72566 0.257,1.62518 0,0.90707 -0.257,1.63273 -0.24945,0.72566 -0.72566,1.23967 -0.47622,0.51401 -1.14897,0.79369 -0.67274,0.27213 -1.51179,0.27213 -0.8466,0 -1.52691,-0.27213 -0.67274,-0.27968 -1.14896,-0.79369 -0.47621,-0.51401 -0.73322,-1.23967 -0.24944,-0.72566 -0.24944,-1.63273 0,-0.89952 0.24944,-1.62518 0.25701,-0.73322 0.73322,-1.24722 0.47622,-0.51401 1.14896,-0.79369 0.68031,-0.27969 1.52691,-0.27969 z m 0,6.8333 q 1.13385,0 1.69321,-0.75589 0.55936,-0.76346 0.55936,-2.12407 0,-1.36817 -0.55936,-2.13163 -0.55936,-0.76345 -1.69321,-0.76345 -0.57448,0 -1.00534,0.19653 -0.4233,0.19653 -0.71054,0.56692 -0.27968,0.37039 -0.4233,0.91464 -0.13606,0.53668 -0.13606,1.21699 0,1.36061 0.55936,2.12407 0.56692,0.75589 1.71588,0.75589 z" />
      <path
         id="path159"
         style="font-size:15.11791325px;line-height:1.25"
         d="m 799.91084,461.00939 q 0.24944,-0.27968 0.52912,-0.50645 0.27968,-0.22676 0.5896,-0.3855 0.31748,-0.1663 0.66519,-0.24945 0.35527,-0.0907 0.76345,-0.0907 0.6274,0 1.10361,0.21165 0.48378,0.2041 0.80125,0.5896 0.32504,0.37795 0.49133,0.91464 0.1663,0.53668 0.1663,1.18675 v 4.87553 h -1.35305 v -4.87553 q 0,-0.86928 -0.40063,-1.34549 -0.39306,-0.48377 -1.20187,-0.48377 -0.59716,0 -1.11873,0.28724 -0.51401,0.28724 -0.95242,0.77857 v 5.63898 h -1.35306 v -7.65722 h 0.80881 q 0.28724,0 0.35527,0.27968 z" />
    </g>
    <g
       id="text3143"
       style="font-style:normal;font-variant:normal;font-weight:normal;font-stretch:normal;line-height:0%;font-family:Lato;-inkscape-font-specification:Lato;text-align:start;letter-spacing:0px;word-spacing:0px;writing-mode:lr-tb;text-anchor:start;fill:#000000;fill-opacity:1;stroke:none"
       aria-label="superinfection">
      <path
         id="path162"
         style="font-size:15.11791325px;line-height:1.25"
         d="m 845.98476,461.16057 q -0.0907,0.1663 -0.27968,0.1663 -0.11338,0 -0.257,-0.0831 -0.14362,-0.0831 -0.35527,-0.18141 -0.20409,-0.10583 -0.49133,-0.18898 -0.28724,-0.0907 -0.68031,-0.0907 -0.34015,0 -0.61228,0.0907 -0.27212,0.0831 -0.46865,0.23433 -0.18898,0.15118 -0.2948,0.35527 -0.0983,0.19653 -0.0983,0.43086 0,0.2948 0.1663,0.49133 0.17386,0.19654 0.45354,0.34016 0.27968,0.14362 0.63495,0.257 0.35527,0.10583 0.72566,0.23433 0.37795,0.12094 0.73322,0.27212 0.35527,0.15118 0.63495,0.37795 0.27968,0.22677 0.44598,0.55936 0.17386,0.32504 0.17386,0.78613 0,0.52913 -0.18898,0.98267 -0.18897,0.44598 -0.55936,0.77857 -0.37039,0.32504 -0.90708,0.51401 -0.53668,0.18897 -1.23967,0.18897 -0.80124,0 -1.45131,-0.257 -0.65008,-0.26456 -1.10361,-0.67275 l 0.31747,-0.51401 q 0.0605,-0.0983 0.14362,-0.15118 0.0832,-0.0529 0.21165,-0.0529 0.13607,0 0.28725,0.10583 0.15117,0.10582 0.36282,0.23432 0.21921,0.12851 0.52913,0.23433 0.30992,0.10583 0.77102,0.10583 0.39306,0 0.68786,-0.0983 0.2948,-0.10582 0.49133,-0.27968 0.19654,-0.17386 0.28724,-0.40063 0.0983,-0.22676 0.0983,-0.48377 0,-0.31747 -0.17386,-0.52157 -0.16629,-0.21165 -0.44597,-0.35527 -0.27969,-0.15118 -0.64252,-0.257 -0.35527,-0.11339 -0.73322,-0.23433 -0.37038,-0.12094 -0.73321,-0.27212 -0.35527,-0.15874 -0.63496,-0.39307 -0.27968,-0.23433 -0.45353,-0.57448 -0.1663,-0.34771 -0.1663,-0.83904 0,-0.43842 0.18141,-0.83905 0.18142,-0.40818 0.52913,-0.71054 0.34771,-0.30992 0.85416,-0.49133 0.50645,-0.18142 1.15652,-0.18142 0.7559,0 1.35306,0.24189 0.60471,0.23433 1.04313,0.65007 z" />
      <path
         id="path164"
         style="font-size:15.11791325px;line-height:1.25"
         d="m 854.37662,459.89823 v 7.65722 h -0.80125 q -0.28724,0 -0.36283,-0.27968 l -0.10582,-0.82393 q -0.49889,0.55181 -1.11873,0.89196 -0.61983,0.33259 -1.42108,0.33259 -0.62739,0 -1.11117,-0.20409 -0.47621,-0.21165 -0.80125,-0.5896 -0.32503,-0.37794 -0.49133,-0.91463 -0.15874,-0.53669 -0.15874,-1.18676 v -4.88308 h 1.3455 v 4.88308 q 0,0.86928 0.39306,1.3455 0.40063,0.47621 1.217,0.47621 0.59715,0 1.11116,-0.27968 0.52157,-0.28724 0.95999,-0.78613 v -5.63898 z" />
      <path
         id="path166"
         style="font-size:15.11791325px;line-height:1.25"
         d="m 857.84831,465.71107 q 0.37039,0.49889 0.80881,0.70298 0.43842,0.20409 0.98266,0.20409 1.07338,0 1.64786,-0.76345 0.57448,-0.76346 0.57448,-2.17698 0,-0.74834 -0.13606,-1.28503 -0.12851,-0.53668 -0.37795,-0.87684 -0.24945,-0.34771 -0.61228,-0.50645 -0.36283,-0.15873 -0.82392,-0.15873 -0.65763,0 -1.15652,0.30235 -0.49134,0.30236 -0.90708,0.85417 z m -0.068,-4.62609 q 0.48377,-0.59715 1.11873,-0.95998 0.63495,-0.36283 1.45132,-0.36283 0.66518,0 1.20187,0.257 0.53669,0.24945 0.91463,0.74834 0.37795,0.49133 0.58204,1.22455 0.2041,0.73322 0.2041,1.68565 0,0.8466 -0.22677,1.57982 -0.22677,0.72566 -0.65763,1.26234 -0.4233,0.52913 -1.04314,0.83905 -0.61227,0.30236 -1.38329,0.30236 -0.70298,0 -1.20943,-0.23433 -0.49889,-0.24189 -0.8844,-0.66519 v 3.38641 h -1.35305 v -10.24994 h 0.80881 q 0.28724,0 0.35527,0.27968 z" />
      <path
         id="path168"
         style="font-size:15.11791325px;line-height:1.25"
         d="m 870.09453,462.89157 q 0,-0.46865 -0.13606,-0.85416 -0.1285,-0.39306 -0.38551,-0.67275 -0.24944,-0.28724 -0.61227,-0.43841 -0.36283,-0.15874 -0.82393,-0.15874 -0.96755,0 -1.53447,0.56692 -0.55936,0.55936 -0.69542,1.55714 z m 1.08849,3.59051 q -0.24945,0.30236 -0.59716,0.52913 -0.34771,0.21921 -0.74834,0.36283 -0.39306,0.14362 -0.81636,0.21165 -0.4233,0.0756 -0.83905,0.0756 -0.79369,0 -1.46643,-0.26457 -0.66519,-0.27212 -1.15652,-0.78613 -0.48378,-0.52157 -0.7559,-1.28502 -0.27212,-0.76346 -0.27212,-1.75368 0,-0.80125 0.24188,-1.49667 0.24945,-0.69543 0.71055,-1.20188 0.46109,-0.51401 1.12628,-0.80125 0.66519,-0.2948 1.49667,-0.2948 0.68787,0 1.26991,0.23433 0.5896,0.22677 1.0129,0.66519 0.43086,0.43086 0.67275,1.07337 0.24188,0.63495 0.24188,1.45132 0,0.31748 -0.068,0.4233 -0.068,0.10583 -0.257,0.10583 h -5.11742 q 0.0227,0.72566 0.19654,1.26234 0.18141,0.53669 0.49889,0.89952 0.31747,0.35527 0.75589,0.53669 0.43842,0.17385 0.98267,0.17385 0.50645,0 0.86928,-0.11338 0.37039,-0.12095 0.63495,-0.25701 0.26456,-0.13606 0.43842,-0.24944 0.18141,-0.12095 0.30992,-0.12095 0.16629,0 0.257,0.12851 z" />
      <path
         id="path170"
         style="font-size:15.11791325px;line-height:1.25"
         d="m 874.21936,461.4327 q 0.36283,-0.78614 0.89195,-1.22456 0.52913,-0.44597 1.29259,-0.44597 0.24188,0 0.46109,0.0529 0.22677,0.0529 0.40063,0.1663 l -0.0983,1.00534 q -0.0454,0.18897 -0.22677,0.18897 -0.10582,0 -0.30991,-0.0453 -0.2041,-0.0454 -0.4611,-0.0454 -0.36283,0 -0.65007,0.10583 -0.27968,0.10582 -0.50645,0.31748 -0.21921,0.20409 -0.40063,0.514 -0.17385,0.30236 -0.31747,0.69543 v 4.83773 h -1.35306 v -7.65722 h 0.77102 q 0.21921,0 0.30236,0.0831 0.0831,0.0831 0.11338,0.28724 z" />
      <path
         id="path172"
         style="font-size:15.11791325px;line-height:1.25"
         d="m 879.85503,459.89823 v 7.65722 h -1.34549 v -7.65722 z m 0.28724,-2.40375 q 0,0.19653 -0.0831,0.37039 -0.0756,0.1663 -0.21165,0.30236 -0.12851,0.1285 -0.30992,0.20409 -0.17386,0.0756 -0.37039,0.0756 -0.19653,0 -0.37039,-0.0756 -0.1663,-0.0756 -0.2948,-0.20409 -0.1285,-0.13606 -0.20409,-0.30236 -0.0756,-0.17386 -0.0756,-0.37039 0,-0.19653 0.0756,-0.37039 0.0756,-0.18141 0.20409,-0.30992 0.1285,-0.13606 0.2948,-0.21165 0.17386,-0.0756 0.37039,-0.0756 0.19653,0 0.37039,0.0756 0.18141,0.0756 0.30992,0.21165 0.13606,0.12851 0.21165,0.30992 0.0831,0.17386 0.0831,0.37039 z" />
      <path
         id="path174"
         style="font-size:15.11791325px;line-height:1.25"
         d="m 883.33569,461.00939 q 0.24945,-0.27968 0.52913,-0.50645 0.27968,-0.22676 0.5896,-0.3855 0.31748,-0.1663 0.66519,-0.24945 0.35527,-0.0907 0.76345,-0.0907 0.6274,0 1.10361,0.21165 0.48377,0.2041 0.80125,0.5896 0.32504,0.37795 0.49133,0.91464 0.1663,0.53668 0.1663,1.18675 v 4.87553 h -1.35305 v -4.87553 q 0,-0.86928 -0.40063,-1.34549 -0.39306,-0.48377 -1.20187,-0.48377 -0.59716,0 -1.11873,0.28724 -0.51401,0.28724 -0.95243,0.77857 v 5.63898 h -1.35305 v -7.65722 h 0.80881 q 0.28724,0 0.35527,0.27968 z" />
      <path
         id="path176"
         style="font-size:15.11791325px;line-height:1.25"
         d="m 890.89135,467.55545 v -6.50826 l -0.84661,-0.0983 q -0.15874,-0.0378 -0.26456,-0.11338 -0.0983,-0.0831 -0.0983,-0.23433 v -0.5518 h 1.20944 v -0.74078 q 0,-0.65763 0.18141,-1.16408 0.18897,-0.51401 0.52913,-0.86172 0.34771,-0.35527 0.83148,-0.53669 0.48378,-0.18141 1.08849,-0.18141 0.51401,0 0.94487,0.15118 l -0.0302,0.67274 q -0.0151,0.18142 -0.2041,0.19654 -0.18141,0.0151 -0.49133,0.0151 -0.34771,0 -0.63495,0.0907 -0.27968,0.0907 -0.48377,0.2948 -0.2041,0.20409 -0.31748,0.53669 -0.10583,0.33259 -0.10583,0.82392 v 0.70299 h 2.20722 v 0.9751 h -2.16186 v 6.53094 z" />
      <path
         id="path178"
         style="font-size:15.11791325px;line-height:1.25"
         d="m 900.56658,462.89157 q 0,-0.46865 -0.13607,-0.85416 -0.1285,-0.39306 -0.3855,-0.67275 -0.24945,-0.28724 -0.61228,-0.43841 -0.36283,-0.15874 -0.82392,-0.15874 -0.96755,0 -1.53447,0.56692 -0.55937,0.55936 -0.69543,1.55714 z m 1.08848,3.59051 q -0.24944,0.30236 -0.59715,0.52913 -0.34771,0.21921 -0.74834,0.36283 -0.39307,0.14362 -0.81637,0.21165 -0.4233,0.0756 -0.83904,0.0756 -0.79369,0 -1.46644,-0.26457 -0.66519,-0.27212 -1.15652,-0.78613 -0.48377,-0.52157 -0.75589,-1.28502 -0.27213,-0.76346 -0.27213,-1.75368 0,-0.80125 0.24189,-1.49667 0.24945,-0.69543 0.71054,-1.20188 0.4611,-0.51401 1.12629,-0.80125 0.66518,-0.2948 1.49667,-0.2948 0.68786,0 1.2699,0.23433 0.5896,0.22677 1.0129,0.66519 0.43086,0.43086 0.67275,1.07337 0.24189,0.63495 0.24189,1.45132 0,0.31748 -0.068,0.4233 -0.068,0.10583 -0.25701,0.10583 h -5.11741 q 0.0227,0.72566 0.19653,1.26234 0.18142,0.53669 0.49889,0.89952 0.31748,0.35527 0.7559,0.53669 0.43842,0.17385 0.98266,0.17385 0.50645,0 0.86928,-0.11338 0.37039,-0.12095 0.63496,-0.25701 0.26456,-0.13606 0.43842,-0.24944 0.18141,-0.12095 0.30991,-0.12095 0.1663,0 0.25701,0.12851 z" />
      <path
         id="path180"
         style="font-size:15.11791325px;line-height:1.25"
         d="m 908.743,461.25884 q -0.0605,0.0831 -0.12094,0.1285 -0.0605,0.0454 -0.1663,0.0454 -0.11338,0 -0.24944,-0.0907 -0.13606,-0.0983 -0.34016,-0.21165 -0.19653,-0.11339 -0.49133,-0.20409 -0.28724,-0.0983 -0.71054,-0.0983 -0.56692,0 -0.99778,0.20409 -0.43086,0.19653 -0.72566,0.57448 -0.28724,0.37795 -0.43842,0.91464 -0.14362,0.53668 -0.14362,1.20187 0,0.69542 0.15874,1.23967 0.15873,0.53668 0.44597,0.90707 0.2948,0.36283 0.70299,0.55937 0.41574,0.18897 0.92975,0.18897 0.49133,0 0.80881,-0.11338 0.31747,-0.12095 0.52157,-0.26457 0.21165,-0.14362 0.34771,-0.257 0.14362,-0.12095 0.27968,-0.12095 0.1663,0 0.257,0.12851 l 0.37795,0.49133 q -0.24944,0.30992 -0.56692,0.52913 -0.31748,0.21921 -0.68787,0.37038 -0.36283,0.14362 -0.76345,0.21166 -0.40062,0.068 -0.81637,0.068 -0.7181,0 -1.33793,-0.26457 -0.61228,-0.26456 -1.06582,-0.76345 -0.45353,-0.50645 -0.71054,-1.23967 -0.257,-0.73322 -0.257,-1.67053 0,-0.85416 0.23433,-1.57982 0.24188,-0.72566 0.69542,-1.24723 0.4611,-0.52913 1.12628,-0.82393 0.67275,-0.2948 1.54203,-0.2948 0.80881,0 1.42109,0.26457 0.61983,0.257 1.09604,0.73322 z" />
      <path
         id="path182"
         style="font-size:15.11791325px;line-height:1.25"
         d="m 917.72399,467.55545 h -1.34549 v -6.53094 h -3.94578 v 4.59585 q 0,0.48377 0.23433,0.7181 0.23433,0.23433 0.60471,0.23433 0.21165,0 0.36283,-0.0529 0.15874,-0.0605 0.27213,-0.1285 0.11338,-0.068 0.18897,-0.12094 0.0832,-0.0605 0.14362,-0.0605 0.10583,0 0.18897,0.1285 l 0.39307,0.64251 q -0.34771,0.32503 -0.83904,0.51401 -0.49134,0.18141 -1.0129,0.18141 -0.90708,0 -1.39841,-0.50645 -0.48377,-0.50645 -0.48377,-1.45887 v -4.68656 h -0.9222 q -0.12094,0 -0.20409,-0.068 -0.0832,-0.0756 -0.0832,-0.22677 v -0.53668 l 1.25479,-0.1663 0.30992,-2.35839 q 0.0227,-0.11339 0.0983,-0.18142 0.0832,-0.0756 0.21165,-0.0756 h 0.68031 v 2.63808 h 5.29127 z m 0.33259,-10.11388 q 0,0.19653 -0.0832,0.37039 -0.0756,0.16629 -0.21165,0.29479 -0.1285,0.12851 -0.30235,0.2041 -0.17386,0.0756 -0.37039,0.0756 -0.19654,0 -0.37039,-0.0756 -0.1663,-0.0756 -0.2948,-0.2041 -0.1285,-0.1285 -0.20409,-0.29479 -0.0756,-0.17386 -0.0756,-0.37039 0,-0.19654 0.0756,-0.37039 0.0756,-0.18142 0.20409,-0.30992 0.1285,-0.13606 0.2948,-0.21165 0.17385,-0.0756 0.37039,-0.0756 0.19653,0 0.37039,0.0756 0.17385,0.0756 0.30235,0.21165 0.13607,0.1285 0.21165,0.30992 0.0832,0.17385 0.0832,0.37039 z" />
      <path
         id="path184"
         style="font-size:15.11791325px;line-height:1.25"
         d="m 923.1473,459.77728 q 0.83904,0 1.51179,0.27969 0.67275,0.27968 1.14896,0.79369 0.47622,0.514 0.72566,1.24722 0.25701,0.72566 0.25701,1.62518 0,0.90707 -0.25701,1.63273 -0.24944,0.72566 -0.72566,1.23967 -0.47621,0.51401 -1.14896,0.79369 -0.67275,0.27213 -1.51179,0.27213 -0.8466,0 -1.52691,-0.27213 -0.67275,-0.27968 -1.14896,-0.79369 -0.47621,-0.51401 -0.73322,-1.23967 -0.24944,-0.72566 -0.24944,-1.63273 0,-0.89952 0.24944,-1.62518 0.25701,-0.73322 0.73322,-1.24722 0.47621,-0.51401 1.14896,-0.79369 0.68031,-0.27969 1.52691,-0.27969 z m 0,6.8333 q 1.13384,0 1.69321,-0.75589 0.55936,-0.76346 0.55936,-2.12407 0,-1.36817 -0.55936,-2.13163 -0.55937,-0.76345 -1.69321,-0.76345 -0.57448,0 -1.00534,0.19653 -0.4233,0.19653 -0.71054,0.56692 -0.27968,0.37039 -0.4233,0.91464 -0.13607,0.53668 -0.13607,1.21699 0,1.36061 0.55937,2.12407 0.56692,0.75589 1.71588,0.75589 z" />
      <path
         id="path186"
         style="font-size:15.11791325px;line-height:1.25"
         d="m 929.75241,461.00939 q 0.24945,-0.27968 0.52913,-0.50645 0.27968,-0.22676 0.5896,-0.3855 0.31747,-0.1663 0.66519,-0.24945 0.35527,-0.0907 0.76345,-0.0907 0.62739,0 1.10361,0.21165 0.48377,0.2041 0.80125,0.5896 0.32503,0.37795 0.49133,0.91464 0.1663,0.53668 0.1663,1.18675 v 4.87553 h -1.35306 v -4.87553 q 0,-0.86928 -0.40062,-1.34549 -0.39307,-0.48377 -1.20188,-0.48377 -0.59715,0 -1.11872,0.28724 -0.51401,0.28724 -0.95243,0.77857 v 5.63898 h -1.35305 v -7.65722 h 0.80881 q 0.28724,0 0.35527,0.27968 z" />
    </g>
    <g
       transform="translate(5.7781741)"
       id="g3252">
      <g
         style="fill:none;stroke:#000000;stroke-width:2.80386686;stroke-linecap:round;stroke-miterlimit:4;stroke-dasharray:2.80386686, 5.60773372;stroke-dashoffset:0"
         transform="matrix(0.48370699,0,0,0.48370699,694.02997,491.39461)"
         id="g4056">
        <path
           id="line4058"
           d="M 64,0 H 226"
           style="stroke-width:2.80386686;stroke-miterlimit:4;stroke-dasharray:2.80386686, 5.60773372;stroke-dashoffset:0" />
        <path
           id="line4060"
           d="M 118,40 H 226"
           style="stroke-width:2.80386686;stroke-miterlimit:4;stroke-dasharray:2.80386686, 5.60773372;stroke-dashoffset:0" />
        <path
           id="line4062"
           d="M 118,80 H 226"
           style="stroke-width:2.80386686;stroke-miterlimit:4;stroke-dasharray:2.80386686, 5.60773372;stroke-dashoffset:0" />
        <path
           id="line4064"
           d="M 118,40 V 80"
           style="stroke-width:2.80386686;stroke-miterlimit:4;stroke-dasharray:2.80386686, 5.60773372;stroke-dashoffset:0" />
        <path
           id="line4066"
           d="m 64,60 h 54"
           style="stroke-width:2.80386686;stroke-miterlimit:4;stroke-dasharray:2.80386686, 5.60773372;stroke-dashoffset:0" />
        <path
           id="line4068"
           d="M 64,0 V 60"
           style="stroke-width:2.80386686;stroke-miterlimit:4;stroke-dasharray:2.80386686, 5.60773372;stroke-dashoffset:0" />
        <path
           id="line4070"
           d="M 10,30 H 64"
           style="stroke-width:2.80386686;stroke-miterlimit:4;stroke-dasharray:2.80386686, 5.60773372;stroke-dashoffset:0" />
        <path
           id="line4072"
           d="M 64,120 H 226"
           style="stroke-width:2.80386686;stroke-miterlimit:4;stroke-dasharray:2.80386686, 5.60773372;stroke-dashoffset:0" />
        <path
           id="line4074"
           d="M 118,160 H 226"
           style="stroke-width:2.80386686;stroke-miterlimit:4;stroke-dasharray:2.80386686, 5.60773372;stroke-dashoffset:0" />
        <path
           id="line4076"
           d="m 172,200 h 54"
           style="stroke-width:2.80386686;stroke-miterlimit:4;stroke-dasharray:2.80386686, 5.60773372;stroke-dashoffset:0" />
        <path
           id="line4078"
           d="m 172,240 h 54"
           style="stroke-width:2.80386686;stroke-miterlimit:4;stroke-dasharray:2.80386686, 5.60773372;stroke-dashoffset:0" />
        <path
           id="line4080"
           d="m 172,200 v 40"
           style="stroke-width:2.80386686;stroke-miterlimit:4;stroke-dasharray:2.80386686, 5.60773372;stroke-dashoffset:0" />
        <path
           id="line4082"
           d="m 118,220 h 54"
           style="stroke-width:2.80386686;stroke-miterlimit:4;stroke-dasharray:2.80386686, 5.60773372;stroke-dashoffset:0" />
        <path
           id="line4084"
           d="m 118,160 v 60"
           style="stroke-width:2.80386686;stroke-miterlimit:4;stroke-dasharray:2.80386686, 5.60773372;stroke-dashoffset:0" />
        <path
           id="line4086"
           d="m 64,190 h 54"
           style="stroke-width:2.80386686;stroke-miterlimit:4;stroke-dasharray:2.80386686, 5.60773372;stroke-dashoffset:0" />
        <path
           id="line4088"
           d="m 64,120 v 70"
           style="stroke-width:2.80386686;stroke-miterlimit:4;stroke-dasharray:2.80386686, 5.60773372;stroke-dashoffset:0" />
        <path
           id="line4090"
           d="M 10,155 H 64"
           style="stroke-width:2.80386686;stroke-miterlimit:4;stroke-dasharray:2.80386686, 5.60773372;stroke-dashoffset:0" />
        <path
           id="line4092"
           d="M 10,30 V 155"
           style="stroke-width:2.80386686;stroke-miterlimit:4;stroke-dasharray:2.80386686, 5.60773372;stroke-dashoffset:0" />
        <path
           id="line4094"
           d="M 0,92.5 H 10"
           style="stroke-width:2.80386686;stroke-miterlimit:4;stroke-dasharray:2.80386686, 5.60773372;stroke-dashoffset:0" />
      </g>
      <path
         style="fill:#89cfb1;fill-opacity:1;stroke:#89cfb1;stroke-width:1.35625005;stroke-linecap:round;stroke-miterlimit:4;stroke-dasharray:none;stroke-opacity:1"
         d="m 805.17695,606.86741 c 0,3.35371 -2.7209,6.07268 -6.0775,6.07268 -3.35637,0 -6.07751,-2.71874 -6.07751,-6.07268 0,-3.35371 2.72091,-6.07269 6.07751,-6.07269 3.35638,0 6.0775,2.71875 6.0775,6.07269 z"
         id="path4096" />
      <path
         style="fill:#89cfb1;fill-opacity:1;stroke:#89cfb1;stroke-width:1.35625005;stroke-linecap:round;stroke-miterlimit:4;stroke-dasharray:none;stroke-opacity:1"
         d="m 805.17695,568.25359 c 0,3.35371 -2.7209,6.07268 -6.0775,6.07268 -3.35637,0 -6.07751,-2.71875 -6.07751,-6.07268 0,-3.35372 2.72091,-6.07269 6.07751,-6.07269 3.35638,0 6.0775,2.71875 6.0775,6.07269 z"
         id="path4098" />
      <path
         style="fill:#fcab74;fill-opacity:1;stroke:#fcab74;stroke-width:1.35625005;stroke-linecap:round;stroke-miterlimit:4;stroke-dasharray:none;stroke-opacity:1"
         d="m 805.17695,587.5605 c 0,3.35371 -2.7209,6.07269 -6.0775,6.07269 -3.35637,0 -6.07751,-2.71876 -6.07751,-6.07269 0,-3.35372 2.72091,-6.07269 6.07751,-6.07269 3.35638,0 6.0775,2.71875 6.0775,6.07269 z"
         id="path4100" />
      <path
         style="fill:#fcab74;fill-opacity:1;stroke:#fcab74;stroke-width:1.35625005;stroke-linecap:round;stroke-miterlimit:4;stroke-dasharray:none;stroke-opacity:1"
         d="m 805.17695,548.94668 c 0,3.35372 -2.7209,6.07268 -6.0775,6.07268 -3.35637,0 -6.07751,-2.71875 -6.07751,-6.07268 0,-3.35372 2.72091,-6.07269 6.07751,-6.07269 3.35638,0 6.0775,2.71876 6.0775,6.07269 z"
         id="path4102" />
      <path
         style="fill:#fcab74;fill-opacity:1;stroke:#fcab74;stroke-width:1.35625005;stroke-linecap:round;stroke-miterlimit:4;stroke-dasharray:none;stroke-opacity:1"
         d="m 805.17695,529.61785 c 0,3.35372 -2.7209,6.07268 -6.0775,6.07268 -3.35637,0 -6.07751,-2.71874 -6.07751,-6.07268 0,-3.35371 2.72091,-6.07268 6.07751,-6.07268 3.35638,0 6.0775,2.71875 6.0775,6.07268 z"
         id="path4104" />
      <path
         style="fill:#fcab74;fill-opacity:1;stroke:#fcab74;stroke-width:1.35625005;stroke-linecap:round;stroke-miterlimit:4;stroke-dasharray:none;stroke-opacity:1"
         d="m 805.17695,491.00403 c 0,3.35371 -2.7209,6.07269 -6.0775,6.07269 -3.35637,0 -6.07751,-2.71875 -6.07751,-6.07269 0,-3.35371 2.72091,-6.07269 6.07751,-6.07269 3.35638,0 6.0775,2.71876 6.0775,6.07269 z"
         id="path4106" />
      <path
         style="fill:#89cfb1;fill-opacity:1;stroke:#89cfb1;stroke-width:1.35625005;stroke-linecap:round;stroke-miterlimit:4;stroke-dasharray:none;stroke-opacity:1"
         d="m 805.17695,510.31095 c 0,3.35371 -2.7209,6.07268 -6.0775,6.07268 -3.35637,0 -6.07751,-2.71875 -6.07751,-6.07268 0,-3.35372 2.72091,-6.07269 6.07751,-6.07269 3.35638,0 6.0775,2.71876 6.0775,6.07269 z"
         id="path4108" />
      <path
         id="line3153"
         d="m 724.98724,491.39462 h 78.36054"
         style="fill:none;stroke:#000000;stroke-width:1.35625005;stroke-linecap:round;stroke-miterlimit:4;stroke-dasharray:1.35625, 2.7125;stroke-dashoffset:0" />
      <path
         id="line3155"
         d="m 751.10742,510.74289 h 52.24036"
         style="fill:none;stroke:#000000;stroke-width:1.35625005;stroke-linecap:round;stroke-miterlimit:4;stroke-dasharray:1.35625, 2.7125;stroke-dashoffset:0" />
      <path
         id="line3157"
         d="m 751.10742,530.09119 h 52.24036"
         style="fill:none;stroke:#000000;stroke-width:1.35625005;stroke-linecap:round;stroke-miterlimit:4;stroke-dasharray:1.35625, 2.7125;stroke-dashoffset:0" />
      <path
         id="line3159"
         d="m 751.10742,510.74289 v 19.3483"
         style="fill:none;stroke:#000000;stroke-width:1.35625005;stroke-linecap:round;stroke-miterlimit:4;stroke-dasharray:1.35625, 2.7125;stroke-dashoffset:0" />
      <path
         id="line3161"
         d="m 724.98724,520.41705 h 26.12018"
         style="fill:none;stroke:#000000;stroke-width:1.35625005;stroke-linecap:round;stroke-miterlimit:4;stroke-dasharray:1.35625, 2.7125;stroke-dashoffset:0" />
      <path
         id="line3163"
         d="m 724.98724,491.39462 v 29.02243"
         style="fill:none;stroke:#000000;stroke-width:1.35625005;stroke-linecap:round;stroke-miterlimit:4;stroke-dasharray:1.35625, 2.7125;stroke-dashoffset:0" />
      <path
         id="line3165"
         d="m 698.86707,505.90582 h 26.12017"
         style="fill:none;stroke:#000000;stroke-width:1.35625005;stroke-linecap:round;stroke-miterlimit:4;stroke-dasharray:1.35625, 2.7125;stroke-dashoffset:0" />
      <path
         id="line3167"
         d="m 724.98724,549.43945 h 78.36054"
         style="fill:none;stroke:#000000;stroke-width:1.35625005;stroke-linecap:round;stroke-miterlimit:4;stroke-dasharray:1.35625, 2.7125;stroke-dashoffset:0" />
      <path
         id="line3169"
         d="m 751.10742,568.78772 h 52.24036"
         style="fill:none;stroke:#000000;stroke-width:1.35625005;stroke-linecap:round;stroke-miterlimit:4;stroke-dasharray:1.35625, 2.7125;stroke-dashoffset:0" />
      <path
         id="line3171"
         d="m 777.2276,588.13599 h 26.12018"
         style="fill:none;stroke:#000000;stroke-width:1.35625005;stroke-linecap:round;stroke-miterlimit:4;stroke-dasharray:1.35625, 2.7125;stroke-dashoffset:0" />
      <path
         id="line3173"
         d="m 777.2276,607.48431 h 26.12018"
         style="fill:none;stroke:#000000;stroke-width:1.35625005;stroke-linecap:round;stroke-miterlimit:4;stroke-dasharray:1.35625, 2.7125;stroke-dashoffset:0" />
      <path
         id="line3175"
         d="m 777.2276,588.13599 v 19.34832"
         style="fill:none;stroke:#000000;stroke-width:1.35625005;stroke-linecap:round;stroke-miterlimit:4;stroke-dasharray:1.35625, 2.7125;stroke-dashoffset:0" />
      <path
         id="line3177"
         d="M 751.10742,597.81012 H 777.2276"
         style="fill:none;stroke:#000000;stroke-width:1.35625005;stroke-linecap:round;stroke-miterlimit:4;stroke-dasharray:1.35625, 2.7125;stroke-dashoffset:0" />
      <path
         id="line3179"
         d="m 751.10742,568.78772 v 29.0224"
         style="fill:none;stroke:#000000;stroke-width:1.35625005;stroke-linecap:round;stroke-miterlimit:4;stroke-dasharray:1.35625, 2.7125;stroke-dashoffset:0" />
      <path
         id="line3181"
         d="m 724.98724,583.29895 h 26.12018"
         style="fill:none;stroke:#000000;stroke-width:1.35625005;stroke-linecap:round;stroke-miterlimit:4;stroke-dasharray:1.35625, 2.7125;stroke-dashoffset:0" />
      <path
         id="line3183"
         d="m 724.98724,549.43945 v 33.8595"
         style="fill:none;stroke:#000000;stroke-width:1.35625005;stroke-linecap:round;stroke-miterlimit:4;stroke-dasharray:1.35625, 2.7125;stroke-dashoffset:0" />
      <path
         id="line3185"
         d="m 698.86707,566.3692 h 26.12017"
         style="fill:none;stroke:#000000;stroke-width:1.35625005;stroke-linecap:round;stroke-miterlimit:4;stroke-dasharray:1.35625, 2.7125;stroke-dashoffset:0" />
      <path
         id="line3187"
         d="M 698.86707,505.90582 V 566.3692"
         style="fill:none;stroke:#000000;stroke-width:1.35625005;stroke-linecap:round;stroke-miterlimit:4;stroke-dasharray:1.35625, 2.7125;stroke-dashoffset:0" />
      <path
         id="line3189"
         d="m 694.02997,536.13751 h 4.8371"
         style="fill:none;stroke:#000000;stroke-width:1.35625005;stroke-linecap:round;stroke-miterlimit:4;stroke-dasharray:1.35625, 2.7125;stroke-dashoffset:0" />
      <path
         id="path3191"
         d="m 805.17695,606.86741 c 0,3.35371 -2.7209,6.07268 -6.0775,6.07268 -3.35637,0 -6.07751,-2.71874 -6.07751,-6.07268 0,-3.35371 2.72091,-6.07269 6.07751,-6.07269 3.35638,0 6.0775,2.71875 6.0775,6.07269 z"
         style="fill:#89cfb1;fill-opacity:1;stroke:#89cfb1;stroke-width:1.35625005;stroke-linecap:round;stroke-miterlimit:4;stroke-dasharray:none;stroke-opacity:1" />
      <path
         id="path3193"
         d="m 805.17695,568.25359 c 0,3.35371 -2.7209,6.07268 -6.0775,6.07268 -3.35637,0 -6.07751,-2.71875 -6.07751,-6.07268 0,-3.35372 2.72091,-6.07269 6.07751,-6.07269 3.35638,0 6.0775,2.71875 6.0775,6.07269 z"
         style="fill:#89cfb1;fill-opacity:1;stroke:#89cfb1;stroke-width:1.35625005;stroke-linecap:round;stroke-miterlimit:4;stroke-dasharray:none;stroke-opacity:1" />
      <path
         id="path3195"
         d="m 805.17695,587.5605 c 0,3.35371 -2.7209,6.07269 -6.0775,6.07269 -3.35637,0 -6.07751,-2.71876 -6.07751,-6.07269 0,-3.35372 2.72091,-6.07269 6.07751,-6.07269 3.35638,0 6.0775,2.71875 6.0775,6.07269 z"
         style="fill:#fcab74;fill-opacity:1;stroke:#fcab74;stroke-width:1.35625005;stroke-linecap:round;stroke-miterlimit:4;stroke-dasharray:none;stroke-opacity:1" />
      <path
         id="path3197"
         d="m 805.17695,548.94668 c 0,3.35372 -2.7209,6.07268 -6.0775,6.07268 -3.35637,0 -6.07751,-2.71875 -6.07751,-6.07268 0,-3.35372 2.72091,-6.07269 6.07751,-6.07269 3.35638,0 6.0775,2.71876 6.0775,6.07269 z"
         style="fill:#fcab74;fill-opacity:1;stroke:#fcab74;stroke-width:1.35625005;stroke-linecap:round;stroke-miterlimit:4;stroke-dasharray:none;stroke-opacity:1" />
      <path
         id="path3199"
         d="m 805.17695,529.61785 c 0,3.35372 -2.7209,6.07268 -6.0775,6.07268 -3.35637,0 -6.07751,-2.71874 -6.07751,-6.07268 0,-3.35371 2.72091,-6.07268 6.07751,-6.07268 3.35638,0 6.0775,2.71875 6.0775,6.07268 z"
         style="fill:#fcab74;fill-opacity:1;stroke:#fcab74;stroke-width:1.35625005;stroke-linecap:round;stroke-miterlimit:4;stroke-dasharray:none;stroke-opacity:1" />
      <path
         id="path3201"
         d="m 805.17695,491.00403 c 0,3.35371 -2.7209,6.07269 -6.0775,6.07269 -3.35637,0 -6.07751,-2.71875 -6.07751,-6.07269 0,-3.35371 2.72091,-6.07269 6.07751,-6.07269 3.35638,0 6.0775,2.71876 6.0775,6.07269 z"
         style="fill:#fcab74;fill-opacity:1;stroke:#fcab74;stroke-width:1.35625005;stroke-linecap:round;stroke-miterlimit:4;stroke-dasharray:none;stroke-opacity:1" />
      <path
         id="path3203"
         d="m 805.17695,510.31095 c 0,3.35371 -2.7209,6.07268 -6.0775,6.07268 -3.35637,0 -6.07751,-2.71875 -6.07751,-6.07268 0,-3.35372 2.72091,-6.07269 6.07751,-6.07269 3.35638,0 6.0775,2.71876 6.0775,6.07269 z"
         style="fill:#89cfb1;fill-opacity:1;stroke:#89cfb1;stroke-width:1.35625005;stroke-linecap:round;stroke-miterlimit:4;stroke-dasharray:none;stroke-opacity:1" />
    </g>
  </g>
</svg>
