<?xml version="1.0" encoding="UTF-8" standalone="no"?>
<!-- Created with Inkscape (http://www.inkscape.org/) -->

<svg
   xmlns:dc="http://purl.org/dc/elements/1.1/"
   xmlns:cc="http://creativecommons.org/ns#"
   xmlns:rdf="http://www.w3.org/1999/02/22-rdf-syntax-ns#"
   xmlns:svg="http://www.w3.org/2000/svg"
   xmlns="http://www.w3.org/2000/svg"
   xmlns:xlink="http://www.w3.org/1999/xlink"
   xmlns:sodipodi="http://sodipodi.sourceforge.net/DTD/sodipodi-0.dtd"
   xmlns:inkscape="http://www.inkscape.org/namespaces/inkscape"
   id="svg2"
   version="1.1"
   inkscape:version="0.91 r13725"
   width="305.88708mm"
   height="71.345047mm"
   viewBox="0 0 1083.8519 252.79741"
   sodipodi:docname="prob-models-have-dials.svg">
  <metadata
     id="metadata8">
    <rdf:RDF>
      <cc:Work
         rdf:about="">
        <dc:format>image/svg+xml</dc:format>
        <dc:type
           rdf:resource="http://purl.org/dc/dcmitype/StillImage" />
        <dc:title></dc:title>
      </cc:Work>
    </rdf:RDF>
  </metadata>
  <defs
     id="defs6" />
  <sodipodi:namedview
     pagecolor="#ffffff"
     bordercolor="#666666"
     borderopacity="1"
     objecttolerance="10"
     gridtolerance="10"
     guidetolerance="10"
     inkscape:pageopacity="0"
     inkscape:pageshadow="2"
     inkscape:window-width="1920"
     inkscape:window-height="1043"
     id="namedview4"
     showgrid="false"
     inkscape:zoom="0.67665666"
     inkscape:cx="269.31658"
     inkscape:cy="-27.749354"
     inkscape:window-x="0"
     inkscape:window-y="0"
     inkscape:window-maximized="0"
     inkscape:current-layer="svg2"
     units="mm"
     fit-margin-top="0"
     fit-margin-left="0"
     fit-margin-right="0"
     fit-margin-bottom="0" />
  <rect
     style="opacity:1;fill:#fbc48f;fill-opacity:0.21052635;stroke:#000000;stroke-width:1.41100001;stroke-linecap:round;stroke-miterlimit:4;stroke-dasharray:none;stroke-opacity:1"
     id="rect4155"
     width="428.55612"
     height="244.66113"
     x="0.70550001"
     y="0.70550001" />
  <g
     id="g4157"
     transform="matrix(0.44840458,0,0,0.44840458,92.340467,77.720015)">
    <g
       transform="translate(-278.28856,-65.977208)"
       id="g4145">
      <use
         x="0"
         y="0"
         xlink:href="#path4138"
         id="use4135"
         transform="matrix(0.72232439,-0.69155439,0.69155439,0.72232439,523.03088,182.43379)"
         width="100%"
         height="100%" />
      <text
         xml:space="preserve"
         style="font-style:normal;font-variant:normal;font-weight:normal;font-stretch:normal;font-size:50px;line-height:125%;font-family:Lato, Arial, Helvetica, sans-serif;-inkscape-font-specification:'Lato, Arial, Helvetica, sans-serif, Normal';text-align:start;letter-spacing:0px;word-spacing:0px;writing-mode:lr-tb;text-anchor:start;fill:#000000;fill-opacity:1;stroke:none;stroke-width:1px;stroke-linecap:butt;stroke-linejoin:miter;stroke-opacity:1"
         x="644.4577"
         y="223.76784"
         id="text4137"
         sodipodi:linespacing="125%"><tspan
           sodipodi:role="line"
           id="tspan4139"
           x="644.4577"
           y="223.76784"
           style="font-size:180px">	σ</tspan></text>
    </g>
    <g
       transform="translate(-144.02653,-73.233831)"
       id="g4150">
      <path
         style="fill:#d7d7d7;fill-opacity:1;stroke:#000000;stroke-width:2.0999999;stroke-miterlimit:4;stroke-dasharray:none;stroke-opacity:1"
         d="m 180.2342,326.46194 -2.80576,-2.41915 -3.84378,2.15599 -3.84378,2.156 -2.89212,-3.23685 c -3.38458,-3.788 -4.00363,-3.90726 -6.42032,-1.23685 -2.63363,2.91013 -4.90637,2.46707 -7.97373,-1.55445 -2.60249,-3.41204 -2.80617,-3.49217 -5.08351,-2 -3.44382,2.25648 -4.99663,1.93928 -7.75395,-1.58393 -2.27856,-2.91145 -2.68352,-3.05912 -5.60066,-2.04219 -4.17213,1.45441 -5.76423,0.6921 -7.11733,-3.40786 -1.2023,-3.64298 -2.41527,-4.07745 -6.36257,-2.27894 -2.94793,1.34317 -5.21587,-0.31642 -5.76744,-4.22039 -0.30801,-2.18006 -0.81878,-2.41224 -5.30673,-2.41224 -5.24701,0 -5.20003,0.0477 -7.13915,-7.25 -0.20187,-0.7597 -2.05382,-1.25 -4.721455,-1.25 -4.35659,0 -4.39599,-0.0317 -5.28586,-4.25 -0.83548,-3.96045 -1.12815,-4.25681 -4.29582,-4.35 -3.87499,-0.114 -6.09179,-2.44261 -6.09179,-6.39907 0,-2.26416 -0.57275,-2.74376 -4.25,-3.55887 -4.12318,-0.91395 -4.25926,-1.07051 -4.56016,-5.24653 -0.17059,-2.36746 -0.84559,-4.46737 -1.5,-4.66648 -0.65441,-0.1991 -2.42734,-0.63316 -3.93984,-0.96458 -2.55128,-0.55903 -2.75,-0.96251 -2.75,-5.58352 0,-3.68915 -0.37682,-4.98095 -1.45295,-4.98095 -0.79912,0 -2.64475,-0.54302 -4.10141,-1.20672 -2.48037,-1.13014 -2.6081,-1.51092 -2.01261,-6 0.56374,-4.24968 0.42271,-4.79328 -1.2436,-4.79328 -1.0337,0 -2.7087,-0.91631 -3.72223,-2.03624 -1.63078,-1.80199 -1.69557,-2.44332 -0.56318,-5.57487 0.70377,-1.94624 1.12577,-3.63234 0.93778,-3.74688 -0.18799,-0.11454 -1.63379,-0.86105 -3.2129,-1.65892 -3.61047,-1.82425 -4.25473,-3.48673 -2.82208,-7.28226 1.02171,-2.70681 0.84774,-3.33024 -1.75728,-6.29718 -2.78916,-3.17669 -3.18578,-6.58338 -0.92883,-7.97825 1.64361,-1.01581 0.8872,-3.63134 -1.62071,-5.60406 -2.94869,-2.31944 -3.11097,-3.97847 -0.77584,-7.93153 1.69693,-2.87268 1.68114,-2.95867 -1,-5.44476 -3.39193,-3.14518 -3.46569,-5.72916 -0.22416,-7.85309 3.09649,-2.0289 3.09641,-2.39562 -0.001,-5.9975 -3.13791,-3.64871 -3.13769,-4.94581 0.001,-7.0025 2.81107,-1.84188 3.24856,-4.72582 1,-6.59196 -2.1996,-1.8255 -1.84045,-4.15327 1.13605,-7.3633 2.58136,-2.78388 2.60211,-2.91405 1,-6.27371 -2.08685,-4.37619 -2.16324,-3.99421 1.46075,-7.30422 2.62629,-2.39874 2.93016,-3.13988 2,-4.87789 -2.13798,-3.99486 -1.34775,-6.69078 2.49889,-8.52512 2.53285,-1.20783 3.41835,-2.1768 2.99573,-3.27811 -1.78894,-4.66191 -1.78015,-6.52056 0.0373,-7.89695 1.02918,-0.7794 2.67221,-1.4314 3.65117,-1.4489 1.51203,-0.027 1.7378,-0.81853 1.5,-5.2589 -0.27705,-5.17329 -0.24391,-5.23891 3.22007,-6.37552 3.21398,-1.05458 3.52426,-1.50592 3.79692,-5.522914 0.32094,-4.72831 2.14396,-6.87447 5.83942,-6.87447 1.97963,0 2.29119,-0.57834 2.55887,-4.75 0.30235,-4.71199 0.3388,-4.75714 4.55479,-5.642082 3.67916,-0.772261 4.25206,-1.242367 4.26531,-3.5 0.0228,-3.886544 1.35842,-5.320957 5.59569,-6.009706 3.41174,-0.554563 3.91367,-1.019783 4.7035,-4.359512 0.5628,-2.379771 1.48415,-3.772101 2.53484,-3.830593 0.90786,-0.05054 3.00066,-0.163041 4.65066,-0.25 2.547685,-0.134268 3.051035,-0.61043 3.338485,-3.158107 0.5325,-4.719522 1.94361,-5.759766 6.82103,-5.02835 4.07603,0.611239 4.3027,0.510884 4.89082,-2.165353 1.24382,-5.659952 1.18818,-5.615848 6.3183,-5.00826 4.67611,0.553815 4.87011,0.472424 6.2289,-2.613209 1.45835,-3.311753 3.50157,-3.823622 8.66287,-2.17023 1.91035,0.611969 2.42915,0.240087 3.34993,-2.401272 1.32868,-3.811449 4.87739,-5.006612 8.26844,-2.784711 2.23673,1.465561 2.51602,1.390624 5.1798,-1.389763 3.27733,-3.420794 4.18488,-3.548955 8.41865,-1.188852 3.12237,1.74056 3.15133,1.735166 5.3686,-1 2.60549,-3.214059 3.3951,-3.318053 8.11255,-1.068457 3.41481,1.628411 3.5996,1.612612 5.84838,-0.5 2.93522,-2.757497 5.11421,-2.760571 7.86369,-0.01109 2.08174,2.081739 2.28941,2.102175 5.08104,0.5 3.95711,-2.27107 6.57476,-2.098379 8.78483,0.579551 1.81601,2.20045 1.92593,2.211461 4.99133,0.5 4.13708,-2.309798 4.86412,-2.227873 8.14784,0.918129 2.78057,2.663954 2.79015,2.665314 6.1257,0.869006 3.74933,-2.019151 7.07557,-1.076165 8.1505,2.310666 0.53647,1.690258 1.77678,1.366689 14.37048,-3.748938 7.58083,-3.079375 14.88459,-6.305051 16.23058,-7.16817 2.9145,-1.868931 17.94056,-7.94375 19.62986,-7.93607 1.74772,0.0079 2.03501,1.719304 3.77805,22.505377 1.80352,21.507282 1.88731,22.14137 3.83224,29 1.34581,4.745896 1.61579,5.02541 5.31248,5.5 3.78089,0.485399 3.90922,0.631409 4.39462,4.999996 0.45816,4.12348 0.75101,4.52832 3.5,4.83849 4.48232,0.50573 5.66739,1.9707 5.32837,6.58691 -0.28352,3.86058 -0.14242,4.09238 2.6862,4.41309 4.43893,0.50328 5.65134,1.981822 5.32552,6.494504 -0.21449,2.97069 0.15031,4.19617 1.43619,4.8246 0.94805,0.46333 2.51122,1.23693 3.47372,1.71912 1.76393,0.8837 2.06368,3.77474 0.79412,7.65916 -0.53878,1.64848 0.0368,2.37073 3.02491,3.79566 3.65665,1.74373 3.68438,1.80268 3.04075,6.46412 -0.61303,4.43981 -0.46568,4.85519 2.62033,7.38669 l 3.26989,2.68235 -1.75,2.97195 c -2.38178,4.04487 -2.22796,4.86484 1.25,6.66336 3.4317,1.7746 3.91769,4.7448 1.37121,8.38041 -1.55111,2.21452 -1.50342,2.44167 1,4.76298 3.09845,2.87304 3.3208,5.28045 0.77777,8.42095 -1.81366,2.23977 -1.80356,2.35584 0.5,5.75033 2.92595,4.31163 2.92482,4.3388 -0.31506,7.57869 l -2.66609,2.66608 2.16609,2.92979 c 2.78456,3.76633 2.72753,5.13469 -0.33392,8.01077 -2.90027,2.72466 -3.05351,3.58935 -1,5.64286 0.825,0.825 1.5,2.78014 1.5,4.34475 0,2.19908 -0.68091,3.14616 -3,4.17268 -3.46768,1.53495 -3.58497,2.04085 -1.35024,5.82395 1.98823,3.3658 1.27656,5.71308 -2.12413,7.00602 -2.72795,1.03716 -3.06907,2.4502 -1.55368,6.43596 1.35106,3.55355 0.41406,5.29128 -3.56038,6.60296 -3.57752,1.18069 -4.18535,2.75893 -2.25375,5.85192 1.66306,2.66299 0.39277,4.9909 -3.64376,6.67747 -1.93273,0.80755 -3.51406,1.5777 -3.51406,1.71145 0,0.13375 0.40734,1.66349 0.9052,3.39942 1.2064,4.20648 -0.90823,7.33056 -4.9619,7.33056 -2.73176,0 -2.9444,0.26952 -2.95861,3.75 -0.0198,4.8556 -0.74882,5.87383 -4.98625,6.96464 -3.04034,0.78266 -3.54187,1.35081 -3.83014,4.33896 -0.42857,4.44236 -1.60047,5.76053 -5.45746,6.1386 -2.66719,0.26143 -3.24235,0.81133 -3.81818,3.65045 -0.90276,4.45101 -2.06656,5.43196 -6.58972,5.55441 -3.34872,0.0906 -3.83989,0.42266 -4.1123,2.77976 -0.40338,3.49034 -1.86745,4.60286 -6.57827,4.99867 -3.41886,0.28725 -3.99423,0.72634 -5.01167,3.82451 -1.1113,3.38397 -1.30263,3.49231 -5.77115,3.26796 -4.04385,-0.20303 -4.69183,0.047 -5.18222,2 -0.30826,1.22762 -1.16926,3.06437 -1.91333,4.08166 -1.16559,1.59359 -1.87482,1.7055 -5.12351,0.8085 -3.58982,-0.9912 -3.85074,-0.89993 -5.44057,1.90295 -1.96223,3.45942 -4.3259,4.46101 -7.06641,2.99433 -3.09362,-1.65566 -4.68942,-1.25965 -5.93434,1.47266 -1.60932,3.53207 -3.71154,4.03145 -7.78752,1.84993 l -3.50887,-1.87799 -2.68639,3.25901 c -3.11658,3.7809 -4.42391,3.98592 -7.91352,1.24099 -3.2512,-2.5574 -3.65721,-2.5189 -5.27287,0.5 -1.5801,2.95245 -4.56669,3.22959 -8.77512,0.81428 -2.82013,-1.61853 -3.04796,-1.59861 -5.7159,0.5 -3.47446,2.73301 -3.77395,2.7233 -7.20322,-0.23342 z"
         id="path4138"
         inkscape:connector-curvature="0" />
      <text
         sodipodi:linespacing="125%"
         id="text4141"
         y="210.44446"
         x="-34.175777"
         style="font-style:normal;font-variant:normal;font-weight:normal;font-stretch:normal;font-size:50px;line-height:125%;font-family:Lato, Arial, Helvetica, sans-serif;-inkscape-font-specification:'Lato, Arial, Helvetica, sans-serif, Normal';text-align:start;letter-spacing:0px;word-spacing:0px;writing-mode:lr-tb;text-anchor:start;fill:#000000;fill-opacity:1;stroke:none;stroke-width:1px;stroke-linecap:butt;stroke-linejoin:miter;stroke-opacity:1"
         xml:space="preserve"><tspan
           style="font-size:180px"
           y="210.44446"
           x="-34.175777"
           id="tspan4143"
           sodipodi:role="line">		μ</tspan></text>
    </g>
  </g>
  <path
     inkscape:connector-curvature="0"
     id="path2844"
     style="display:inline;fill:none;fill-rule:evenodd;stroke:#4e9a06;stroke-width:5.35996151;stroke-linecap:butt;stroke-linejoin:miter;stroke-miterlimit:4;stroke-dasharray:none;stroke-opacity:1"
     d="m 1083.8439,246.99468 c -85.20807,-0.25386 -94.42847,-5.15314 -106.07037,-9.77753 -46.4831,-18.46401 -60.17876,-50.2165 -86.6602,-98.12302 C 862.01954,86.461375 841.93654,17.760555 806.35592,17.760555 c -28.81896,0 -51.16776,66.62187 -80.26171,119.254635 -26.48129,47.90653 -42.24995,82.10597 -88.73301,100.56997 -11.95553,4.74897 -23.7804,9.41982 -115.54635,9.41982"
     sodipodi:nodetypes="csssssc" />
  <circle
     style="opacity:0.76999996;fill:#2287ff;fill-opacity:1;stroke:#0070f8;stroke-width:3.27376938;stroke-linecap:round;stroke-miterlimit:4;stroke-dasharray:none;stroke-opacity:1"
     id="path5468"
     cx="589.88745"
     cy="241.64659"
     r="9.5139484" />
  <use
     id="use5588"
     xlink:href="#path5468"
     x="0"
     y="0"
     width="100%"
     height="100%"
     transform="translate(18.549307,-20.728785)" />
  <use
     id="use5590"
     xlink:href="#path5468"
     x="0"
     y="0"
     width="100%"
     height="100%"
     transform="translate(37.098633,-26.315245)" />
  <use
     id="use5594"
     xlink:href="#path5468"
     x="0"
     y="0"
     width="100%"
     height="100%"
     transform="translate(111.29592,-37.982925)" />
  <use
     id="use5600"
     xlink:href="#path5468"
     x="0"
     y="0"
     width="100%"
     height="100%"
     transform="translate(92.746577,-79.892943)" />
  <use
     id="use5602"
     xlink:href="#path5468"
     x="0"
     y="0"
     width="100%"
     height="100%"
     transform="translate(185.49317,-164.25068)" />
  <use
     id="use5606"
     xlink:href="#path5468"
     x="0"
     y="0"
     width="100%"
     height="100%"
     transform="translate(148.39456,-134.28336)" />
  <use
     id="use5608"
     xlink:href="#path5468"
     x="0"
     y="0"
     width="100%"
     height="100%"
     transform="translate(129.84524,-98.259133)" />
  <use
     id="use5612"
     xlink:href="#path5468"
     x="0"
     y="0"
     width="100%"
     height="100%"
     transform="translate(166.94384,-185.19035)" />
  <use
     id="use5622"
     xlink:href="#path5468"
     x="0"
     y="0"
     width="100%"
     height="100%"
     transform="translate(204.04246,-206.6222)" />
  <use
     id="use5624"
     xlink:href="#path5468"
     x="0"
     y="0"
     width="100%"
     height="100%"
     transform="translate(222.59177,-218.52115)" />
  <use
     id="use5626"
     xlink:href="#path5468"
     x="0"
     y="0"
     width="100%"
     height="100%"
     transform="translate(259.6904,-182.52435)" />
  <use
     id="use5630"
     xlink:href="#path5468"
     x="0"
     y="0"
     width="100%"
     height="100%"
     transform="translate(241.14112,-159.60598)" />
  <use
     id="use5632"
     xlink:href="#path5468"
     x="0"
     y="0"
     width="100%"
     height="100%"
     transform="translate(315.33836,-86.715671)" />
  <use
     id="use5634"
     xlink:href="#path5468"
     x="0"
     y="0"
     width="100%"
     height="100%"
     transform="translate(296.78905,-114.87056)" />
  <use
     id="use5644"
     xlink:href="#path5468"
     x="0"
     y="0"
     width="100%"
     height="100%"
     transform="translate(333.88769,-64.791451)" />
  <use
     id="use5648"
     xlink:href="#path5468"
     x="0"
     y="0"
     width="100%"
     height="100%"
     transform="translate(370.9863,-46.735141)" />
  <use
     id="use5654"
     xlink:href="#path5468"
     x="0"
     y="0"
     width="100%"
     height="100%"
     transform="translate(389.53566,-32.560275)" />
  <use
     id="use5660"
     xlink:href="#path5468"
     x="0"
     y="0"
     width="100%"
     height="100%"
     transform="translate(408.08498,-33.719435)" />
</svg>
