<?xml version="1.0" encoding="UTF-8" standalone="no"?>
<svg
   xmlns:dc="http://purl.org/dc/elements/1.1/"
   xmlns:cc="http://creativecommons.org/ns#"
   xmlns:rdf="http://www.w3.org/1999/02/22-rdf-syntax-ns#"
   xmlns:svg="http://www.w3.org/2000/svg"
   xmlns="http://www.w3.org/2000/svg"
   version="1.1"
   width="187.67766"
   height="131.33"
   xml:space="preserve"
   id="svg2"><metadata
   id="metadata8"><rdf:RDF><cc:Work
       rdf:about=""><dc:format>image/svg+xml</dc:format><dc:type
         rdf:resource="http://purl.org/dc/dcmitype/StillImage" /><dc:title /></cc:Work></rdf:RDF></metadata><defs
   id="defs6"><marker
     style="overflow:visible"
     id="Arrow1Send"
     refX="0"
     refY="0"
     orient="auto"><path
       transform="matrix(-0.2,0,0,-0.2,-1.2,0)"
       style="fill-rule:evenodd;stroke:#000000;stroke-width:1pt"
       d="M 0,0 5,-5 -12.5,0 5,5 0,0 z"
       id="path4544" /></marker><marker
     style="overflow:visible"
     id="Arrow1Mend"
     refX="0"
     refY="0"
     orient="auto"><path
       transform="matrix(-0.4,0,0,-0.4,-4,0)"
       style="fill-rule:evenodd;stroke:#000000;stroke-width:1pt"
       d="M 0,0 5,-5 -12.5,0 5,5 0,0 z"
       id="path4538" /></marker><clipPath
     clipPathUnits="userSpaceOnUse"
     id="clipPath202"><path
       d="M 0.06,132 H 344 V 0.06 H 0.06 V 132 z"
       id="path204" /></clipPath><marker
     style="overflow:visible"
     overflow="visible"
     orient="auto"
     refX="0"
     refY="0"
     id="Arrow1MendcD"><path
       style="fill:#808080;fill-rule:evenodd;stroke:#808080;stroke-width:1pt"
       transform="matrix(-0.4,0,0,-0.4,-4,0)"
       d="M 0,0 5,-5 -12.5,0 5,5 0,0 z"
       id="path8103" /></marker><marker
     style="overflow:visible"
     overflow="visible"
     orient="auto"
     refX="0"
     refY="0"
     id="Arrow1MendI5"><path
       style="fill:#808080;fill-rule:evenodd;stroke:#808080;stroke-width:1pt"
       transform="matrix(-0.4,0,0,-0.4,-4,0)"
       d="M 0,0 5,-5 -12.5,0 5,5 0,0 z"
       id="path8106" /></marker><marker
     style="overflow:visible"
     overflow="visible"
     orient="auto"
     refX="0"
     refY="0"
     id="Arrow1Mendv7"><path
       style="fill:#808080;fill-rule:evenodd;stroke:#808080;stroke-width:1pt"
       transform="matrix(-0.4,0,0,-0.4,-4,0)"
       d="M 0,0 5,-5 -12.5,0 5,5 0,0 z"
       id="path8109" /></marker></defs><g
   id="text316"
   style="font-size:15px;line-height:0%" />
<g
   id="text324"
   style="font-size:15px;line-height:0%" />
<g
   id="text332"
   style="font-size:15px;line-height:0%" />
<g
   id="text340"
   style="font-size:15px;line-height:0%" />
<g
   id="text400"
   style="font-size:15px;line-height:0%" />
<g
   id="text408"
   style="font-size:15px;line-height:0%" />
<g
   id="text416"
   style="font-size:15px;line-height:0%" />
<g
   id="text6159"
   style="font-size:15px;line-height:0%" />
<g
   id="text6163"
   style="font-size:15px;line-height:0%" />
<g
   id="text6167"
   style="font-size:15px;line-height:0%" />
<g
   id="text6171"
   style="font-size:15px;line-height:0%" />
<g
   id="text6175"
   style="font-size:15px;line-height:0%" />
<g
   id="text6179"
   style="font-size:15px;line-height:0%" />
<g
   id="text6183"
   style="font-size:15px;line-height:0%" />
<g
   id="text3061"
   style="font-size:15px;line-height:0%" />
<g
   id="text3065"
   style="font-size:15px;line-height:0%" />
<g
   id="text3069"
   style="font-size:15px;line-height:0%" />
<g
   id="text3073"
   style="font-size:15px;line-height:0%" />
<g
   id="text3077"
   style="font-size:15px;line-height:0%" />
<g
   id="text3081"
   style="font-size:15px;line-height:0%" />
<g
   id="text3085"
   style="font-size:15px;line-height:0%" />
<g
   id="text3089"
   style="font-size:15px;line-height:0%" />
<g
   id="text3093"
   style="font-size:15px;line-height:0%" />
<g
   id="text3097"
   style="font-size:15px;line-height:0%" />
<g
   id="text3101"
   style="font-size:15px;line-height:0%" />
<g
   id="text3105"
   style="font-size:15px;line-height:0%" />
<g
   id="text3109"
   style="font-size:15px;line-height:0%" />
<g
   id="text3113"
   style="font-size:15px;line-height:0%" />
<g
   style="display:inline"
   id="layer1"><g
     transform="translate(-2)"
     id="g3135"><g
   id="g3082"
   transform="translate(3.0605678,17.654377)"><g
     transform="translate(-50.942141,-264.37571)"
     id="g5377"><g
   id="text3161"
   style="font-size:11.89624977px;line-height:0%"
   aria-label="CCA"><path
     id="path171"
     style="font-size:11.89624977px;font-family:Monospace, Menlo, Courier, monospace;fill:#000000"
     d="m 60.123545,296.60803 c -0.773256,0.67808 -1.61789,1.21341 -2.700449,1.21341 -2.034258,0 -2.56959,-1.85581 -2.56959,-3.04544 0,-1.5703 0.963597,-2.86699 2.522005,-2.86699 0.868427,0 1.308588,0.36878 1.534617,0.70188 0.273613,0.40447 0.344991,0.86842 0.392576,1.14204 l 0.559124,-0.0952 c -0.08327,-0.63051 -0.154652,-1.2967 -0.118963,-2.27219 h -0.440161 c -0.02379,0.21413 -0.07138,0.57102 -0.178444,0.57102 -0.02379,0 -0.04758,0 -0.202236,-0.13086 -0.09517,-0.0833 -0.57102,-0.51154 -1.52272,-0.51154 -1.80823,0 -3.188195,1.40376 -3.188195,3.47371 0,1.93909 1.118247,3.62836 3.211987,3.62836 0.487747,0 1.760645,-0.10707 3.093025,-1.37997 z" /><path
     id="path173"
     style="font-size:11.89624977px;font-family:Monospace, Menlo, Courier, monospace;fill:#000000"
     d="m 67.256648,296.60803 c -0.773256,0.67808 -1.61789,1.21341 -2.700449,1.21341 -2.034258,0 -2.56959,-1.85581 -2.56959,-3.04544 0,-1.5703 0.963597,-2.86699 2.522005,-2.86699 0.868427,0 1.308588,0.36878 1.534617,0.70188 0.273613,0.40447 0.344991,0.86842 0.392576,1.14204 l 0.559124,-0.0952 c -0.08327,-0.63051 -0.154652,-1.2967 -0.118963,-2.27219 h -0.440161 c -0.02379,0.21413 -0.07138,0.57102 -0.178444,0.57102 -0.02379,0 -0.04758,0 -0.202236,-0.13086 -0.09517,-0.0833 -0.57102,-0.51154 -1.52272,-0.51154 -1.80823,0 -3.188195,1.40376 -3.188195,3.47371 0,1.93909 1.118247,3.62836 3.211987,3.62836 0.487747,0 1.760645,-0.10707 3.093025,-1.37997 z" /><path
     id="path175"
     style="font-size:11.89624977px;font-family:Monospace, Menlo, Courier, monospace;fill:#000000"
     d="m 69.060231,291.51643 v 0.55912 h 1.701164 l -2.295976,5.57935 h -0.630502 v 0.55912 h 2.438731 v -0.55912 h -1.213417 l 0.66619,-1.65358 h 3.104921 l 0.678086,1.65358 h -1.213417 v 0.55912 h 2.438731 v -0.55912 h -0.606709 l -2.510108,-6.13847 z m 3.568875,3.96145 h -2.688553 l 1.344277,-3.25957 z" /></g>
<g
   id="g3960"
   transform="translate(3.4947125,-3.69962)"><path
   style="fill:#cccccc;fill-rule:evenodd"
   d="m 110.97728,291.83474 h 8.92212 v 11.497 h -8.92212 z"
   id="path3157" /><g
   id="text3165"
   style="font-size:11.89624977px;line-height:0%"
   aria-label="CCT"><path
     id="path178"
     style="font-size:11.89624977px;font-family:Monospace, Menlo, Courier, monospace;fill:#000000"
     d="m 104.16192,300.30764 c -0.77326,0.67809 -1.61789,1.21342 -2.70045,1.21342 -2.03426,0 -2.569591,-1.85582 -2.569591,-3.04544 0,-1.57031 0.963596,-2.867 2.522001,-2.867 0.86843,0 1.30859,0.36879 1.53462,0.70188 0.27361,0.40447 0.34499,0.86843 0.39258,1.14204 l 0.55912,-0.0952 c -0.0833,-0.6305 -0.15465,-1.29669 -0.11896,-2.27218 h -0.44016 c -0.0238,0.21413 -0.0714,0.57102 -0.17845,0.57102 -0.0238,0 -0.0476,0 -0.20223,-0.13086 -0.0952,-0.0833 -0.57102,-0.51154 -1.52272,-0.51154 -1.808234,0 -3.188199,1.40376 -3.188199,3.47371 0,1.93908 1.118247,3.62835 3.211989,3.62835 0.48774,0 1.76064,-0.10706 3.09302,-1.37996 z" /><path
     id="path180"
     style="font-size:11.89624977px;font-family:Monospace, Menlo, Courier, monospace;fill:#000000"
     d="m 111.29502,300.30764 c -0.77326,0.67809 -1.61789,1.21342 -2.70045,1.21342 -2.03426,0 -2.56959,-1.85582 -2.56959,-3.04544 0,-1.57031 0.9636,-2.867 2.52201,-2.867 0.86842,0 1.30858,0.36879 1.53461,0.70188 0.27362,0.40447 0.34499,0.86843 0.39258,1.14204 l 0.55912,-0.0952 c -0.0833,-0.6305 -0.15465,-1.29669 -0.11896,-2.27218 h -0.44016 c -0.0238,0.21413 -0.0714,0.57102 -0.17844,0.57102 -0.0238,0 -0.0476,0 -0.20224,-0.13086 -0.0952,-0.0833 -0.57102,-0.51154 -1.52272,-0.51154 -1.80823,0 -3.1882,1.40376 -3.1882,3.47371 0,1.93908 1.11825,3.62835 3.21199,3.62835 0.48775,0 1.76065,-0.10706 3.09303,-1.37996 z" /><path
     id="path182"
     style="font-size:11.89624977px;font-family:Monospace, Menlo, Courier, monospace;fill:#000000"
     d="m 112.4681,295.21605 -0.20223,2.80751 0.57102,0.0714 0.16654,-2.31977 h 2.02237 v 5.57934 h -1.43945 v 0.55913 h 3.4737 v -0.55913 h -1.43944 v -5.57934 h 2.02236 l 0.16655,2.31977 0.57102,-0.0714 -0.20224,-2.80751 z" /></g>
</g><path
   style="fill:none;stroke:#000000;stroke-width:0.69999999;stroke-linecap:butt;stroke-linejoin:miter;stroke-miterlimit:4;stroke-dasharray:none;stroke-opacity:1;marker-end:url(#Arrow1Mend)"
   d="m 80.676478,293.88362 c 15.284727,0 15.284727,0 15.284727,0"
   id="path3965" /></g><g
     transform="translate(-50.654296,-264.02834)"
     id="g5367"><g
       id="g3142"
       transform="translate(-46.719254,0.69476031)"><path
   style="fill:#ffffcc;fill-rule:evenodd;stroke:#f0f0f0;stroke-width:0.89221245;stroke-miterlimit:10"
   stroke-miterlimit="10"
   d="m 104.06516,263.77969 c -3.44888,0 -6.245503,2.79663 -6.245503,6.2455 v 5.35325 c 0,3.44888 2.796623,6.2455 6.245503,6.2455 h 14.275 c 3.44888,0 6.2455,-2.79662 6.2455,-6.2455 v -5.35325 c 0,-3.44887 -2.79662,-6.2455 -6.2455,-6.2455 z"
   id="path3114" /><g
   id="text3124"
   style="font-size:11.89624977px;line-height:0%;font-family:Lato, Arial, Helvetica, sans-serif;fill:#000000"
   aria-label="Pro"><path
     id="path185"
     style=""
     d="m 105.10376,272.84959 q 0.4937,0 0.86843,-0.13086 0.38068,-0.13086 0.63645,-0.36283 0.26172,-0.23793 0.39257,-0.56508 0.13086,-0.32714 0.13086,-0.71972 0,-0.81489 -0.50559,-1.2729 -0.49964,-0.458 -1.52272,-0.458 h -1.36807 v 3.50939 z m 0,-4.41946 q 0.80895,0 1.40376,0.19034 0.60076,0.1844 0.99334,0.52939 0.39257,0.34499 0.58291,0.83273 0.19629,0.48775 0.19629,1.08851 0,0.59481 -0.20818,1.08851 -0.20819,0.49369 -0.61266,0.85058 -0.39852,0.35689 -0.99334,0.55912 -0.58886,0.19629 -1.36212,0.19629 h -1.36807 v 3.1882 h -1.14798 v -8.52367 z" /><path
     id="path187"
     style=""
     d="m 110.36005,272.13582 q 0.28551,-0.61861 0.70188,-0.9636 0.41636,-0.35094 1.01712,-0.35094 0.19034,0 0.36284,0.0416 0.17844,0.0416 0.31525,0.13086 l -0.0773,0.7911 q -0.0357,0.1487 -0.17845,0.1487 -0.0833,0 -0.24387,-0.0357 -0.1606,-0.0357 -0.36284,-0.0357 -0.28551,0 -0.51154,0.0833 -0.22008,0.0833 -0.39852,0.24982 -0.1725,0.1606 -0.31525,0.40447 -0.13681,0.23792 -0.24982,0.54723 v 3.8068 h -1.06472 v -6.02545 h 0.60671 q 0.1725,0 0.23793,0.0654 0.0654,0.0654 0.0892,0.22602 z" /><path
     id="path189"
     style=""
     d="m 115.984,270.83318 q 0.66024,0 1.18962,0.22008 0.52939,0.22008 0.90412,0.62455 0.37473,0.40447 0.57102,0.98144 0.20223,0.57102 0.20223,1.27885 0,0.71377 -0.20223,1.28479 -0.19629,0.57102 -0.57102,0.97549 -0.37473,0.40448 -0.90412,0.62456 -0.52938,0.21413 -1.18962,0.21413 -0.66619,0 -1.20152,-0.21413 -0.52939,-0.22008 -0.90412,-0.62456 -0.37473,-0.40447 -0.57697,-0.97549 -0.19628,-0.57102 -0.19628,-1.28479 0,-0.70783 0.19628,-1.27885 0.20224,-0.57697 0.57697,-0.98144 0.37473,-0.40447 0.90412,-0.62455 0.53533,-0.22008 1.20152,-0.22008 z m 0,5.3771 q 0.89222,0 1.33238,-0.59481 0.44016,-0.60076 0.44016,-1.67142 0,-1.07662 -0.44016,-1.67738 -0.44016,-0.60076 -1.33238,-0.60076 -0.45206,0 -0.7911,0.15465 -0.3331,0.15466 -0.55913,0.44611 -0.22008,0.29146 -0.33309,0.71973 -0.10707,0.42231 -0.10707,0.95765 0,1.07066 0.44016,1.67142 0.44611,0.59481 1.35023,0.59481 z" /></g>
</g><g
       transform="translate(1.3895203,0.69476031)"
       id="g5357"><path
   id="path5359"
   d="m 104.06516,263.77969 c -3.44888,0 -6.245503,2.79663 -6.245503,6.2455 v 5.35325 c 0,3.44888 2.796623,6.2455 6.245503,6.2455 h 14.275 c 3.44888,0 6.2455,-2.79662 6.2455,-6.2455 v -5.35325 c 0,-3.44887 -2.79662,-6.2455 -6.2455,-6.2455 z"
   stroke-miterlimit="10"
   style="fill:#ffffcc;fill-rule:evenodd;stroke:#f0f0f0;stroke-width:0.89221245;stroke-miterlimit:10" /><g
   id="text5361"
   style="font-size:11.89624977px;line-height:0%;font-family:Lato, Arial, Helvetica, sans-serif;fill:#000000"
   aria-label="Pro"><path
     id="path192"
     style=""
     d="m 105.10376,272.84959 q 0.4937,0 0.86843,-0.13086 0.38068,-0.13086 0.63645,-0.36283 0.26172,-0.23793 0.39257,-0.56508 0.13086,-0.32714 0.13086,-0.71972 0,-0.81489 -0.50559,-1.2729 -0.49964,-0.458 -1.52272,-0.458 h -1.36807 v 3.50939 z m 0,-4.41946 q 0.80895,0 1.40376,0.19034 0.60076,0.1844 0.99334,0.52939 0.39257,0.34499 0.58291,0.83273 0.19629,0.48775 0.19629,1.08851 0,0.59481 -0.20818,1.08851 -0.20819,0.49369 -0.61266,0.85058 -0.39852,0.35689 -0.99334,0.55912 -0.58886,0.19629 -1.36212,0.19629 h -1.36807 v 3.1882 h -1.14798 v -8.52367 z" /><path
     id="path194"
     style=""
     d="m 110.36005,272.13582 q 0.28551,-0.61861 0.70188,-0.9636 0.41636,-0.35094 1.01712,-0.35094 0.19034,0 0.36284,0.0416 0.17844,0.0416 0.31525,0.13086 l -0.0773,0.7911 q -0.0357,0.1487 -0.17845,0.1487 -0.0833,0 -0.24387,-0.0357 -0.1606,-0.0357 -0.36284,-0.0357 -0.28551,0 -0.51154,0.0833 -0.22008,0.0833 -0.39852,0.24982 -0.1725,0.1606 -0.31525,0.40447 -0.13681,0.23792 -0.24982,0.54723 v 3.8068 h -1.06472 v -6.02545 h 0.60671 q 0.1725,0 0.23793,0.0654 0.0654,0.0654 0.0892,0.22602 z" /><path
     id="path196"
     style=""
     d="m 115.984,270.83318 q 0.66024,0 1.18962,0.22008 0.52939,0.22008 0.90412,0.62455 0.37473,0.40447 0.57102,0.98144 0.20223,0.57102 0.20223,1.27885 0,0.71377 -0.20223,1.28479 -0.19629,0.57102 -0.57102,0.97549 -0.37473,0.40448 -0.90412,0.62456 -0.52938,0.21413 -1.18962,0.21413 -0.66619,0 -1.20152,-0.21413 -0.52939,-0.22008 -0.90412,-0.62456 -0.37473,-0.40447 -0.57697,-0.97549 -0.19628,-0.57102 -0.19628,-1.28479 0,-0.70783 0.19628,-1.27885 0.20224,-0.57697 0.57697,-0.98144 0.37473,-0.40447 0.90412,-0.62455 0.53533,-0.22008 1.20152,-0.22008 z m 0,5.3771 q 0.89222,0 1.33238,-0.59481 0.44016,-0.60076 0.44016,-1.67142 0,-1.07662 -0.44016,-1.67738 -0.44016,-0.60076 -1.33238,-0.60076 -0.45206,0 -0.7911,0.15465 -0.3331,0.15466 -0.55913,0.44611 -0.22008,0.29146 -0.33309,0.71973 -0.10707,0.42231 -0.10707,0.95765 0,1.07066 0.44016,1.67142 0.44611,0.59481 1.35023,0.59481 z" /></g>
</g></g></g><g
   id="g3063"
   transform="translate(3.0605678,30.075782)"><g
     transform="translate(-50.654294,-136.00947)"
     id="g5395"><g
       id="g3147"
       transform="translate(-109.3596,-52.378364)"><path
   style="fill:#ffffcc;fill-rule:evenodd;stroke:#f0f0f0;stroke-width:0.89221245;stroke-miterlimit:10"
   stroke-miterlimit="10"
   d="m 166.7055,242.67787 c -3.44888,0 -6.2455,2.79663 -6.2455,6.2455 v 5.35325 c 0,3.44888 2.79662,6.2455 6.2455,6.2455 h 14.275 c 3.44887,0 6.2455,-2.79662 6.2455,-6.2455 v -5.35325 c 0,-3.44887 -2.79663,-6.2455 -6.2455,-6.2455 z"
   id="path3120" /><g
   id="text3134"
   style="font-size:11.89624977px;line-height:0%;font-family:Lato, Arial, Helvetica, sans-serif;fill:#000000"
   aria-label="Thr"><path
     id="path199"
     style=""
     d="m 170.85528,248.56505 h -2.75993 v 7.55412 h -1.14799 v -7.55412 h -2.76588 v -0.96954 h 6.6738 z" /><path
     id="path201"
     style=""
     d="m 172.83043,250.89672 q 0.38662,-0.41042 0.85653,-0.6543 0.4699,-0.24387 1.08255,-0.24387 0.4937,0 0.86843,0.16655 0.38068,0.1606 0.6305,0.46395 0.25577,0.29741 0.38663,0.71972 0.13086,0.42232 0.13086,0.93386 v 3.83654 h -1.06472 v -3.83654 q 0,-0.68403 -0.31525,-1.05877 -0.3093,-0.38068 -0.94575,-0.38068 -0.4699,0 -0.88032,0.22603 -0.40447,0.22603 -0.74946,0.61266 v 4.4373 h -1.06472 v -8.76159 h 1.06472 z" /><path
     id="path203"
     style=""
     d="m 179.41612,251.30119 q 0.28551,-0.61861 0.70187,-0.9636 0.41637,-0.35094 1.01713,-0.35094 0.19034,0 0.36284,0.0416 0.17844,0.0416 0.31525,0.13086 l -0.0773,0.7911 q -0.0357,0.1487 -0.17844,0.1487 -0.0833,0 -0.24387,-0.0357 -0.1606,-0.0357 -0.36284,-0.0357 -0.28551,0 -0.51154,0.0833 -0.22008,0.0833 -0.39852,0.24982 -0.1725,0.1606 -0.31525,0.40447 -0.13681,0.23793 -0.24982,0.54723 v 3.8068 h -1.06472 v -6.02545 h 0.60671 q 0.1725,0 0.23793,0.0654 0.0654,0.0654 0.0892,0.22603 z" /></g>
</g><g
       id="g3152"
       transform="translate(-59.354231,-73.297214)"><path
   style="fill:#ffffcc;fill-rule:evenodd;stroke:#f0f0f0;stroke-width:0.89221245;stroke-miterlimit:10"
   stroke-miterlimit="10"
   d="m 164.80891,263.59672 c -3.44888,0 -6.2455,2.79663 -6.2455,6.2455 v 5.35325 c 0,3.44888 2.79662,6.2455 6.2455,6.2455 h 14.275 c 3.44887,0 6.2455,-2.79662 6.2455,-6.2455 v -5.35325 c 0,-3.44887 -2.79663,-6.2455 -6.2455,-6.2455 z"
   id="path3104" /><g
   id="text3138"
   style="font-size:11.89624977px;line-height:0%;font-family:Lato, Arial, Helvetica, sans-serif;fill:#000000"
   aria-label="Ile"><path
     id="path206"
     style=""
     d="m 166.85826,276.9538 h -1.15394 v -8.52367 h 1.15394 z" /><path
     id="path208"
     style=""
     d="m 169.7786,268.19221 v 8.76159 h -1.05877 v -8.76159 z" /><path
     id="path210"
     style=""
     d="m 175.52839,273.2838 q 0,-0.36878 -0.10706,-0.67213 -0.10112,-0.30931 -0.30336,-0.52939 -0.19629,-0.22603 -0.4818,-0.34499 -0.28551,-0.12491 -0.64834,-0.12491 -0.76136,0 -1.20747,0.44611 -0.44016,0.44016 -0.54723,1.22531 z m 0.85653,2.82536 q -0.19629,0.23793 -0.4699,0.41637 -0.27361,0.1725 -0.58886,0.28551 -0.30931,0.11302 -0.6424,0.16655 -0.3331,0.0595 -0.66024,0.0595 -0.62456,0 -1.15394,-0.20818 -0.52343,-0.21414 -0.91006,-0.61861 -0.38068,-0.41042 -0.59481,-1.01118 -0.21414,-0.60076 -0.21414,-1.37997 0,-0.6305 0.19034,-1.17772 0.19629,-0.54723 0.55913,-0.94576 0.36283,-0.40447 0.88627,-0.6305 0.52343,-0.23197 1.17773,-0.23197 0.54128,0 0.99928,0.18439 0.46395,0.17844 0.79705,0.52343 0.33904,0.33905 0.52938,0.84464 0.19034,0.49964 0.19034,1.14204 0,0.24982 -0.0535,0.33309 -0.0535,0.0833 -0.20224,0.0833 h -4.02688 q 0.0179,0.57102 0.15465,0.99333 0.14276,0.42232 0.39258,0.70783 0.24982,0.27956 0.59481,0.42232 0.34499,0.1368 0.77326,0.1368 0.39852,0 0.68403,-0.0892 0.29146,-0.0952 0.49965,-0.20224 0.20818,-0.10706 0.34499,-0.19628 0.14275,-0.0952 0.24387,-0.0952 0.13086,0 0.20224,0.10111 z" /></g>
</g></g><g
     transform="translate(-50.654296,-135.84506)"
     id="g5386"><g
   id="g3169"
   transform="translate(-58.480196,7.609855)"><path
   style="fill:#fab3ae;fill-rule:evenodd"
   d="m 166.95342,205.83875 h 8.92213 v 11.49657 h -8.92213 z"
   id="path3159" /><g
   id="text6388"
   style="font-size:11.89624977px;line-height:0%"
   aria-label="ATC"><path
     id="path213"
     style="font-size:11.89624977px;font-family:Monospace, Menlo, Courier, monospace;fill:#000000"
     d="m 162.03648,209.21985 v 0.55912 h 1.70116 l -2.29598,5.57934 h -0.6305 v 0.55912 h 2.43873 v -0.55912 h -1.21341 l 0.66619,-1.65358 h 3.10492 l 0.67808,1.65358 h -1.21341 v 0.55912 h 2.43873 v -0.55912 h -0.60671 l -2.51011,-6.13846 z m 3.56887,3.96145 h -2.68855 l 1.34427,-3.25958 z" /><path
     id="path215"
     style="font-size:11.89624977px;font-family:Monospace, Menlo, Courier, monospace;fill:#000000"
     d="m 168.53908,209.21985 -0.20224,2.80751 0.57102,0.0714 0.16655,-2.31977 h 2.02236 v 5.57934 h -1.43944 v 0.55912 h 3.4737 v -0.55912 h -1.43945 v -5.57934 h 2.02237 l 0.16654,2.31977 0.57102,-0.0714 -0.20223,-2.80751 z" /><path
     id="path217"
     style="font-size:11.89624977px;font-family:Monospace, Menlo, Courier, monospace;fill:#000000"
     d="m 181.6322,214.31144 c -0.77325,0.67809 -1.61789,1.21342 -2.70045,1.21342 -2.03426,0 -2.56959,-1.85582 -2.56959,-3.04544 0,-1.57031 0.9636,-2.867 2.52201,-2.867 0.86842,0 1.30859,0.36879 1.53461,0.70188 0.27362,0.40447 0.345,0.86843 0.39258,1.14204 l 0.55912,-0.0952 c -0.0833,-0.6305 -0.15465,-1.29669 -0.11896,-2.27218 h -0.44016 c -0.0238,0.21413 -0.0714,0.57102 -0.17844,0.57102 -0.0238,0 -0.0476,0 -0.20224,-0.13086 -0.0952,-0.0833 -0.57102,-0.51154 -1.52272,-0.51154 -1.80823,0 -3.18819,1.40376 -3.18819,3.4737 0,1.93909 1.11824,3.62836 3.21198,3.62836 0.48775,0 1.76065,-0.10707 3.09303,-1.37996 z" /></g>
</g><g
   id="text6392"
   style="font-size:11.89624977px;line-height:0%"
   aria-label="ACC"><path
     id="path220"
     style="font-size:11.89624977px;font-family:Monospace, Menlo, Courier, monospace;fill:#000000"
     d="m 55.447506,216.82969 v 0.55913 h 1.701163 l -2.295976,5.57934 h -0.630501 v 0.55912 h 2.438731 v -0.55912 h -1.213417 l 0.66619,-1.65358 h 3.104921 l 0.678086,1.65358 h -1.213417 v 0.55912 h 2.438731 v -0.55912 h -0.606709 l -2.510109,-6.13847 z m 3.568875,3.96146 h -2.688553 l 1.344276,-3.25958 z" /><path
     id="path222"
     style="font-size:11.89624977px;font-family:Monospace, Menlo, Courier, monospace;fill:#000000"
     d="m 67.910129,221.92129 c -0.773257,0.67809 -1.61789,1.21342 -2.700449,1.21342 -2.034259,0 -2.56959,-1.85582 -2.56959,-3.04544 0,-1.57031 0.963596,-2.867 2.522005,-2.867 0.868426,0 1.308587,0.36878 1.534616,0.70188 0.273614,0.40447 0.344991,0.86843 0.392576,1.14204 l 0.559124,-0.0952 c -0.08327,-0.6305 -0.154651,-1.29669 -0.118962,-2.27218 h -0.440162 c -0.02379,0.21413 -0.07138,0.57102 -0.178443,0.57102 -0.02379,0 -0.04758,0 -0.202237,-0.13086 -0.09517,-0.0833 -0.57102,-0.51154 -1.52272,-0.51154 -1.80823,0 -3.188195,1.40376 -3.188195,3.4737 0,1.93909 1.118248,3.62836 3.211988,3.62836 0.487746,0 1.760645,-0.10707 3.093025,-1.37997 z" /><path
     id="path224"
     style="font-size:11.89624977px;font-family:Monospace, Menlo, Courier, monospace;fill:#000000"
     d="m 75.043231,221.92129 c -0.773256,0.67809 -1.61789,1.21342 -2.700448,1.21342 -2.034259,0 -2.56959,-1.85582 -2.56959,-3.04544 0,-1.57031 0.963596,-2.867 2.522005,-2.867 0.868426,0 1.308587,0.36878 1.534616,0.70188 0.273614,0.40447 0.344991,0.86843 0.392576,1.14204 l 0.559124,-0.0952 c -0.08327,-0.6305 -0.154651,-1.29669 -0.118963,-2.27218 H 74.22239 c -0.02379,0.21413 -0.07138,0.57102 -0.178444,0.57102 -0.02379,0 -0.04759,0 -0.202236,-0.13086 -0.09517,-0.0833 -0.57102,-0.51154 -1.52272,-0.51154 -1.80823,0 -3.188195,1.40376 -3.188195,3.4737 0,1.93909 1.118248,3.62836 3.211988,3.62836 0.487746,0 1.760645,-0.10707 3.093025,-1.37997 z" /></g>
<path
   id="path5365"
   d="m 80.676478,219.19689 c 15.284727,0 15.284727,0 15.284727,0"
   style="fill:none;stroke:#000000;stroke-width:0.69999999;stroke-linecap:butt;stroke-linejoin:miter;stroke-miterlimit:4;stroke-dasharray:none;stroke-opacity:1;marker-end:url(#Arrow1Mend)" /></g></g><g
   id="text3055"
   style="font-style:normal;font-weight:normal;line-height:0%;font-family:Lato, Arial, Helvetica, sans-serif;letter-spacing:0px;word-spacing:0px;fill:#000000;fill-opacity:1;stroke:none"
   aria-label="synonymous"><path
     id="path227"
     style="font-style:italic;font-size:10px;line-height:1.25;-inkscape-font-specification:'Sans Italic';fill:#999999"
     d="m 19.141095,59.07697 q -0.04,0.06 -0.08,0.09 -0.04,0.025 -0.1,0.025 -0.07,0 -0.155,-0.055 -0.08,-0.055 -0.2,-0.12 -0.115,-0.07 -0.285,-0.125 -0.17,-0.06 -0.41,-0.06 -0.225,0 -0.41,0.065 -0.185,0.06 -0.32,0.17 -0.13,0.11 -0.205,0.26 -0.07,0.145 -0.07,0.31 0,0.235 0.155,0.375 0.155,0.14 0.39,0.245 0.235,0.1 0.505,0.195 0.27,0.095 0.505,0.24 0.235,0.145 0.39,0.37 0.155,0.225 0.155,0.585 0,0.35 -0.14,0.67 -0.135,0.32 -0.395,0.565 -0.255,0.24 -0.62,0.385 -0.36,0.145 -0.81,0.145 -0.485,0 -0.86,-0.17 -0.37,-0.175 -0.605,-0.445 l 0.22,-0.34 q 0.045,-0.065 0.095,-0.1 0.055,-0.035 0.14,-0.035 0.08,0 0.16,0.07 0.08,0.07 0.2,0.16 0.12,0.085 0.3,0.155 0.185,0.07 0.465,0.07 0.245,0 0.44,-0.075 0.2,-0.075 0.335,-0.2 0.14,-0.125 0.21,-0.29 0.075,-0.17 0.075,-0.36 0,-0.255 -0.155,-0.405 -0.155,-0.15 -0.39,-0.25 -0.235,-0.1 -0.505,-0.185 -0.27,-0.09 -0.505,-0.225 -0.235,-0.14 -0.39,-0.36 -0.155,-0.22 -0.155,-0.585 0,-0.32 0.125,-0.615 0.13,-0.3 0.37,-0.53 0.24,-0.23 0.58,-0.365 0.345,-0.14 0.775,-0.14 0.455,0 0.8,0.155 0.35,0.15 0.6,0.41 z" /><path
     id="path229"
     style="font-style:italic;font-size:10px;line-height:1.25;-inkscape-font-specification:'Sans Italic';fill:#999999"
     d="m 24.466876,58.26697 -3.42,6.575 q -0.055,0.105 -0.13,0.155 -0.07,0.05 -0.18,0.05 h -0.655 l 1.1,-2.015 -1.315,-4.765 h 0.735 q 0.11,0 0.16,0.055 0.05,0.05 0.075,0.13 l 0.815,3.19 q 0.025,0.105 0.04,0.21 0.015,0.105 0.025,0.21 0.045,-0.105 0.09,-0.21 0.045,-0.11 0.095,-0.215 l 1.6,-3.195 q 0.04,-0.08 0.11,-0.125 0.075,-0.05 0.15,-0.05 z" /><path
     id="path231"
     style="font-style:italic;font-size:10px;line-height:1.25;-inkscape-font-specification:'Sans Italic';fill:#999999"
     d="m 25.881563,59.54697 q 0.405,-0.67 0.915,-1.01 0.51,-0.345 1.05,-0.345 0.32,0 0.56,0.13 0.245,0.125 0.395,0.37 0.155,0.245 0.21,0.605 0.055,0.355 0,0.81 l -0.38,3.225 h -0.885 l 0.38,-3.225 q 0.07,-0.6 -0.075,-0.885 -0.145,-0.29 -0.535,-0.29 -0.24,0 -0.49,0.13 -0.245,0.13 -0.475,0.37 -0.23,0.24 -0.43,0.58 -0.195,0.335 -0.335,0.75 l -0.29,2.57 h -0.89 l 0.61,-5.07 h 0.44 q 0.3,0 0.3,0.3 z" /><path
     id="path233"
     style="font-style:italic;font-size:10px;line-height:1.25;-inkscape-font-specification:'Sans Italic';fill:#999999"
     d="m 31.869532,62.70697 q 0.365,0 0.66,-0.2 0.3,-0.2 0.51,-0.53 0.215,-0.335 0.33,-0.77 0.115,-0.435 0.115,-0.91 0,-0.7 -0.28,-1.05 -0.275,-0.355 -0.795,-0.355 -0.37,0 -0.67,0.2 -0.295,0.195 -0.505,0.525 -0.21,0.33 -0.325,0.765 -0.115,0.435 -0.115,0.91 0,0.7 0.275,1.06 0.275,0.355 0.8,0.355 z m -0.085,0.695 q -0.415,0 -0.76,-0.14 -0.345,-0.145 -0.595,-0.415 -0.25,-0.27 -0.39,-0.66 -0.14,-0.39 -0.14,-0.89 0,-0.64 0.2,-1.205 0.2,-0.565 0.55,-0.985 0.35,-0.425 0.82,-0.67 0.475,-0.245 1.02,-0.245 0.415,0 0.76,0.145 0.345,0.14 0.595,0.41 0.25,0.27 0.39,0.66 0.14,0.39 0.14,0.885 0,0.635 -0.2,1.2 -0.2,0.565 -0.55,0.99 -0.345,0.425 -0.82,0.675 -0.475,0.245 -1.02,0.245 z" /><path
     id="path235"
     style="font-style:italic;font-size:10px;line-height:1.25;-inkscape-font-specification:'Sans Italic';fill:#999999"
     d="m 36.369845,59.54697 q 0.405,-0.67 0.915,-1.01 0.51,-0.345 1.05,-0.345 0.32,0 0.56,0.13 0.245,0.125 0.395,0.37 0.155,0.245 0.21,0.605 0.055,0.355 0,0.81 l -0.38,3.225 h -0.885 l 0.38,-3.225 q 0.07,-0.6 -0.075,-0.885 -0.145,-0.29 -0.535,-0.29 -0.24,0 -0.49,0.13 -0.245,0.13 -0.475,0.37 -0.23,0.24 -0.43,0.58 -0.195,0.335 -0.335,0.75 l -0.29,2.57 h -0.89 l 0.61,-5.07 h 0.44 q 0.3,0 0.3,0.3 z" /><path
     id="path237"
     style="font-style:italic;font-size:10px;line-height:1.25;-inkscape-font-specification:'Sans Italic';fill:#999999"
     d="m 44.935626,58.26697 -3.42,6.575 q -0.055,0.105 -0.13,0.155 -0.07,0.05 -0.18,0.05 h -0.655 l 1.1,-2.015 -1.315,-4.765 h 0.735 q 0.11,0 0.16,0.055 0.05,0.05 0.075,0.13 l 0.815,3.19 q 0.025,0.105 0.04,0.21 0.015,0.105 0.025,0.21 0.045,-0.105 0.09,-0.21 0.045,-0.11 0.095,-0.215 l 1.6,-3.195 q 0.04,-0.08 0.11,-0.125 0.075,-0.05 0.15,-0.05 z" /><path
     id="path239"
     style="font-style:italic;font-size:10px;line-height:1.25;-inkscape-font-specification:'Sans Italic';fill:#999999"
     d="m 45.075313,63.33197 0.61,-5.07 h 0.44 q 0.305,0 0.305,0.3 l -0.07,0.9 q 0.375,-0.625 0.82,-0.945 0.45,-0.325 0.94,-0.325 0.515,0 0.76,0.355 0.245,0.35 0.245,1.005 0.375,-0.695 0.845,-1.025 0.475,-0.335 1,-0.335 0.65,0 0.92,0.5 0.27,0.5 0.16,1.415 l -0.38,3.225 h -0.88 l 0.385,-3.225 q 0.07,-0.595 -0.04,-0.885 -0.105,-0.29 -0.48,-0.29 -0.215,0 -0.43,0.11 -0.21,0.105 -0.41,0.315 -0.2,0.205 -0.375,0.515 -0.17,0.305 -0.305,0.705 v 0.005 l -0.325,2.75 h -0.88 l 0.38,-3.225 q 0.075,-0.595 -0.02,-0.885 -0.095,-0.29 -0.47,-0.29 -0.24,0 -0.465,0.12 -0.22,0.12 -0.42,0.35 -0.195,0.225 -0.365,0.555 -0.17,0.325 -0.31,0.735 l -0.315,2.64 z" /><path
     id="path241"
     style="font-style:italic;font-size:10px;line-height:1.25;-inkscape-font-specification:'Sans Italic';fill:#999999"
     d="m 54.916407,62.70697 q 0.365,0 0.66,-0.2 0.3,-0.2 0.51,-0.53 0.215,-0.335 0.33,-0.77 0.115,-0.435 0.115,-0.91 0,-0.7 -0.28,-1.05 -0.275,-0.355 -0.795,-0.355 -0.37,0 -0.67,0.2 -0.295,0.195 -0.505,0.525 -0.21,0.33 -0.325,0.765 -0.115,0.435 -0.115,0.91 0,0.7 0.275,1.06 0.275,0.355 0.8,0.355 z m -0.085,0.695 q -0.415,0 -0.76,-0.14 -0.345,-0.145 -0.595,-0.415 -0.25,-0.27 -0.39,-0.66 -0.14,-0.39 -0.14,-0.89 0,-0.64 0.2,-1.205 0.2,-0.565 0.55,-0.985 0.35,-0.425 0.82,-0.67 0.475,-0.245 1.02,-0.245 0.415,0 0.76,0.145 0.345,0.14 0.595,0.41 0.25,0.27 0.39,0.66 0.14,0.39 0.14,0.885 0,0.635 -0.2,1.2 -0.2,0.565 -0.55,0.99 -0.345,0.425 -0.82,0.675 -0.475,0.245 -1.02,0.245 z" /><path
     id="path243"
     style="font-style:italic;font-size:10px;line-height:1.25;-inkscape-font-specification:'Sans Italic';fill:#999999"
     d="m 62.72172,58.26697 -0.61,5.065 h -0.44 q -0.325,0 -0.325,-0.32 l 0.075,-0.925 q -0.4,0.65 -0.905,0.985 -0.5,0.33 -1.03,0.33 -0.32,0 -0.565,-0.125 -0.245,-0.13 -0.4,-0.375 -0.15,-0.245 -0.205,-0.6 -0.055,-0.355 0.005,-0.815 l 0.38,-3.22 h 0.885 l -0.38,3.22 q -0.07,0.595 0.07,0.885 0.145,0.29 0.54,0.29 0.23,0 0.475,-0.125 0.245,-0.125 0.47,-0.355 0.225,-0.23 0.42,-0.555 0.2,-0.33 0.34,-0.73 l 0.315,-2.63 z" /><path
     id="path245"
     style="font-style:italic;font-size:10px;line-height:1.25;-inkscape-font-specification:'Sans Italic';fill:#999999"
     d="m 66.699688,59.07697 q -0.04,0.06 -0.08,0.09 -0.04,0.025 -0.1,0.025 -0.07,0 -0.155,-0.055 -0.08,-0.055 -0.2,-0.12 -0.115,-0.07 -0.285,-0.125 -0.17,-0.06 -0.41,-0.06 -0.225,0 -0.41,0.065 -0.185,0.06 -0.32,0.17 -0.13,0.11 -0.205,0.26 -0.07,0.145 -0.07,0.31 0,0.235 0.155,0.375 0.155,0.14 0.39,0.245 0.235,0.1 0.505,0.195 0.27,0.095 0.505,0.24 0.235,0.145 0.39,0.37 0.155,0.225 0.155,0.585 0,0.35 -0.14,0.67 -0.135,0.32 -0.395,0.565 -0.255,0.24 -0.62,0.385 -0.36,0.145 -0.81,0.145 -0.485,0 -0.86,-0.17 -0.37,-0.175 -0.605,-0.445 l 0.22,-0.34 q 0.045,-0.065 0.095,-0.1 0.055,-0.035 0.14,-0.035 0.08,0 0.16,0.07 0.08,0.07 0.2,0.16 0.12,0.085 0.3,0.155 0.185,0.07 0.465,0.07 0.245,0 0.44,-0.075 0.2,-0.075 0.335,-0.2 0.14,-0.125 0.21,-0.29 0.075,-0.17 0.075,-0.36 0,-0.255 -0.155,-0.405 -0.155,-0.15 -0.39,-0.25 -0.235,-0.1 -0.505,-0.185 -0.27,-0.09 -0.505,-0.225 -0.235,-0.14 -0.39,-0.36 -0.155,-0.22 -0.155,-0.585 0,-0.32 0.125,-0.615 0.13,-0.3 0.37,-0.53 0.24,-0.23 0.58,-0.365 0.345,-0.14 0.775,-0.14 0.455,0 0.8,0.155 0.35,0.15 0.6,0.41 z" /></g>
<g
   id="text3059"
   style="font-style:normal;font-weight:normal;line-height:0%;font-family:Lato, Arial, Helvetica, sans-serif;letter-spacing:0px;word-spacing:0px;fill:#000000;fill-opacity:1;stroke:none"
   aria-label="nonsynonymous"><path
     id="path248"
     style="font-style:italic;font-size:10px;line-height:1.25;-inkscape-font-specification:'Sans Italic';fill:#666666"
     d="m 9.2349265,125.46492 q 0.405,-0.67 0.9150005,-1.01 0.51,-0.345 1.05,-0.345 0.32,0 0.56,0.13 0.245,0.125 0.395,0.37 0.155,0.245 0.21,0.605 0.055,0.355 0,0.81 l -0.38,3.225 h -0.885 l 0.38,-3.225 q 0.07,-0.6 -0.075,-0.885 -0.145,-0.29 -0.535,-0.29 -0.24,0 -0.49,0.13 -0.245,0.13 -0.4750005,0.37 -0.23,0.24 -0.43,0.58 -0.195,0.335 -0.335,0.75 l -0.29,2.57 h -0.89 l 0.61,-5.07 h 0.44 q 0.3,0 0.3,0.3 z" /><path
     id="path250"
     style="font-style:italic;font-size:10px;line-height:1.25;-inkscape-font-specification:'Sans Italic';fill:#666666"
     d="m 15.222895,128.62492 q 0.365,0 0.66,-0.2 0.3,-0.2 0.51,-0.53 0.215,-0.335 0.33,-0.77 0.115,-0.435 0.115,-0.91 0,-0.7 -0.28,-1.05 -0.275,-0.355 -0.795,-0.355 -0.37,0 -0.67,0.2 -0.295,0.195 -0.505,0.525 -0.21,0.33 -0.325,0.765 -0.115,0.435 -0.115,0.91 0,0.7 0.275,1.06 0.275,0.355 0.8,0.355 z m -0.085,0.695 q -0.415,0 -0.76,-0.14 -0.345,-0.145 -0.595,-0.415 -0.25,-0.27 -0.39,-0.66 -0.14,-0.39 -0.14,-0.89 0,-0.64 0.2,-1.205 0.2,-0.565 0.55,-0.985 0.35,-0.425 0.82,-0.67 0.475,-0.245 1.02,-0.245 0.415,0 0.76,0.145 0.345,0.14 0.595,0.41 0.25,0.27 0.39,0.66 0.14,0.39 0.14,0.885 0,0.635 -0.2,1.2 -0.2,0.565 -0.55,0.99 -0.345,0.425 -0.82,0.675 -0.475,0.245 -1.02,0.245 z" /><path
     id="path252"
     style="font-style:italic;font-size:10px;line-height:1.25;-inkscape-font-specification:'Sans Italic';fill:#666666"
     d="m 19.723208,125.46492 q 0.405,-0.67 0.915,-1.01 0.51,-0.345 1.05,-0.345 0.32,0 0.56,0.13 0.245,0.125 0.395,0.37 0.155,0.245 0.21,0.605 0.055,0.355 0,0.81 l -0.38,3.225 h -0.885 l 0.38,-3.225 q 0.07,-0.6 -0.075,-0.885 -0.145,-0.29 -0.535,-0.29 -0.24,0 -0.49,0.13 -0.245,0.13 -0.475,0.37 -0.23,0.24 -0.43,0.58 -0.195,0.335 -0.335,0.75 l -0.29,2.57 h -0.89 l 0.61,-5.07 h 0.44 q 0.3,0 0.3,0.3 z" /><path
     id="path254"
     style="font-style:italic;font-size:10px;line-height:1.25;-inkscape-font-specification:'Sans Italic';fill:#666666"
     d="m 27.006177,124.99492 q -0.04,0.06 -0.08,0.09 -0.04,0.025 -0.1,0.025 -0.07,0 -0.155,-0.055 -0.08,-0.055 -0.2,-0.12 -0.115,-0.07 -0.285,-0.125 -0.17,-0.06 -0.41,-0.06 -0.225,0 -0.41,0.065 -0.185,0.06 -0.32,0.17 -0.13,0.11 -0.205,0.26 -0.07,0.145 -0.07,0.31 0,0.235 0.155,0.375 0.155,0.14 0.39,0.245 0.235,0.1 0.505,0.195 0.27,0.095 0.505,0.24 0.235,0.145 0.39,0.37 0.155,0.225 0.155,0.585 0,0.35 -0.14,0.67 -0.135,0.32 -0.395,0.565 -0.255,0.24 -0.62,0.385 -0.36,0.145 -0.81,0.145 -0.485,0 -0.86,-0.17 -0.37,-0.175 -0.605,-0.445 l 0.22,-0.34 q 0.045,-0.065 0.095,-0.1 0.055,-0.035 0.14,-0.035 0.08,0 0.16,0.07 0.08,0.07 0.2,0.16 0.12,0.085 0.3,0.155 0.185,0.07 0.465,0.07 0.245,0 0.44,-0.075 0.2,-0.075 0.335,-0.2 0.14,-0.125 0.21,-0.29 0.075,-0.17 0.075,-0.36 0,-0.255 -0.155,-0.405 -0.155,-0.15 -0.39,-0.25 -0.235,-0.1 -0.505,-0.185 -0.27,-0.09 -0.505,-0.225 -0.235,-0.14 -0.39,-0.36 -0.155,-0.22 -0.155,-0.585 0,-0.32 0.125,-0.615 0.13,-0.3 0.37,-0.53 0.24,-0.23 0.58,-0.365 0.345,-0.14 0.775,-0.14 0.455,0 0.8,0.155 0.35,0.15 0.6,0.41 z" /><path
     id="path256"
     style="font-style:italic;font-size:10px;line-height:1.25;-inkscape-font-specification:'Sans Italic';fill:#666666"
     d="m 32.331958,124.18492 -3.42,6.575 q -0.055,0.105 -0.13,0.155 -0.07,0.05 -0.18,0.05 h -0.655 l 1.1,-2.015 -1.315,-4.765 h 0.735 q 0.11,0 0.16,0.055 0.05,0.05 0.075,0.13 l 0.815,3.19 q 0.025,0.105 0.04,0.21 0.015,0.105 0.025,0.21 0.045,-0.105 0.09,-0.21 0.045,-0.11 0.095,-0.215 l 1.6,-3.195 q 0.04,-0.08 0.11,-0.125 0.075,-0.05 0.15,-0.05 z" /><path
     id="path258"
     style="font-style:italic;font-size:10px;line-height:1.25;-inkscape-font-specification:'Sans Italic';fill:#666666"
     d="m 33.746645,125.46492 q 0.405,-0.67 0.915,-1.01 0.51,-0.345 1.05,-0.345 0.32,0 0.56,0.13 0.245,0.125 0.395,0.37 0.155,0.245 0.21,0.605 0.055,0.355 0,0.81 l -0.38,3.225 h -0.885 l 0.38,-3.225 q 0.07,-0.6 -0.075,-0.885 -0.145,-0.29 -0.535,-0.29 -0.24,0 -0.49,0.13 -0.245,0.13 -0.475,0.37 -0.23,0.24 -0.43,0.58 -0.195,0.335 -0.335,0.75 l -0.29,2.57 h -0.89 l 0.61,-5.07 h 0.44 q 0.3,0 0.3,0.3 z" /><path
     id="path260"
     style="font-style:italic;font-size:10px;line-height:1.25;-inkscape-font-specification:'Sans Italic';fill:#666666"
     d="m 39.734614,128.62492 q 0.365,0 0.66,-0.2 0.3,-0.2 0.51,-0.53 0.215,-0.335 0.33,-0.77 0.115,-0.435 0.115,-0.91 0,-0.7 -0.28,-1.05 -0.275,-0.355 -0.795,-0.355 -0.37,0 -0.67,0.2 -0.295,0.195 -0.505,0.525 -0.21,0.33 -0.325,0.765 -0.115,0.435 -0.115,0.91 0,0.7 0.275,1.06 0.275,0.355 0.8,0.355 z m -0.085,0.695 q -0.415,0 -0.76,-0.14 -0.345,-0.145 -0.595,-0.415 -0.25,-0.27 -0.39,-0.66 -0.14,-0.39 -0.14,-0.89 0,-0.64 0.2,-1.205 0.2,-0.565 0.55,-0.985 0.35,-0.425 0.82,-0.67 0.475,-0.245 1.02,-0.245 0.415,0 0.76,0.145 0.345,0.14 0.595,0.41 0.25,0.27 0.39,0.66 0.14,0.39 0.14,0.885 0,0.635 -0.2,1.2 -0.2,0.565 -0.55,0.99 -0.345,0.425 -0.82,0.675 -0.475,0.245 -1.02,0.245 z" /><path
     id="path262"
     style="font-style:italic;font-size:10px;line-height:1.25;-inkscape-font-specification:'Sans Italic';fill:#666666"
     d="m 44.234927,125.46492 q 0.405,-0.67 0.915,-1.01 0.51,-0.345 1.05,-0.345 0.32,0 0.56,0.13 0.245,0.125 0.395,0.37 0.155,0.245 0.21,0.605 0.055,0.355 0,0.81 l -0.38,3.225 h -0.885 l 0.38,-3.225 q 0.07,-0.6 -0.075,-0.885 -0.145,-0.29 -0.535,-0.29 -0.24,0 -0.49,0.13 -0.245,0.13 -0.475,0.37 -0.23,0.24 -0.43,0.58 -0.195,0.335 -0.335,0.75 l -0.29,2.57 h -0.89 l 0.61,-5.07 h 0.44 q 0.3,0 0.3,0.3 z" /><path
     id="path264"
     style="font-style:italic;font-size:10px;line-height:1.25;-inkscape-font-specification:'Sans Italic';fill:#666666"
     d="m 52.800708,124.18492 -3.42,6.575 q -0.055,0.105 -0.13,0.155 -0.07,0.05 -0.18,0.05 h -0.655 l 1.1,-2.015 -1.315,-4.765 h 0.735 q 0.11,0 0.16,0.055 0.05,0.05 0.075,0.13 l 0.815,3.19 q 0.025,0.105 0.04,0.21 0.015,0.105 0.025,0.21 0.045,-0.105 0.09,-0.21 0.045,-0.11 0.095,-0.215 l 1.6,-3.195 q 0.04,-0.08 0.11,-0.125 0.075,-0.05 0.15,-0.05 z" /><path
     id="path266"
     style="font-style:italic;font-size:10px;line-height:1.25;-inkscape-font-specification:'Sans Italic';fill:#666666"
     d="m 52.940395,129.24992 0.61,-5.07 h 0.44 q 0.305,0 0.305,0.3 l -0.07,0.9 q 0.375,-0.625 0.82,-0.945 0.45,-0.325 0.94,-0.325 0.515,0 0.76,0.355 0.245,0.35 0.245,1.005 0.375,-0.695 0.845,-1.025 0.475,-0.335 1,-0.335 0.65,0 0.92,0.5 0.27,0.5 0.16,1.415 l -0.38,3.225 h -0.88 l 0.385,-3.225 q 0.07,-0.595 -0.04,-0.885 -0.105,-0.29 -0.48,-0.29 -0.215,0 -0.43,0.11 -0.21,0.105 -0.41,0.315 -0.2,0.205 -0.375,0.515 -0.17,0.305 -0.305,0.705 v 0.005 l -0.325,2.75 h -0.88 l 0.38,-3.225 q 0.075,-0.595 -0.02,-0.885 -0.095,-0.29 -0.47,-0.29 -0.24,0 -0.465,0.12 -0.22,0.12 -0.42,0.35 -0.195,0.225 -0.365,0.555 -0.17,0.325 -0.31,0.735 l -0.315,2.64 z" /><path
     id="path268"
     style="font-style:italic;font-size:10px;line-height:1.25;-inkscape-font-specification:'Sans Italic';fill:#666666"
     d="m 62.781489,128.62492 q 0.365,0 0.66,-0.2 0.3,-0.2 0.51,-0.53 0.215,-0.335 0.33,-0.77 0.115,-0.435 0.115,-0.91 0,-0.7 -0.28,-1.05 -0.275,-0.355 -0.795,-0.355 -0.37,0 -0.67,0.2 -0.295,0.195 -0.505,0.525 -0.21,0.33 -0.325,0.765 -0.115,0.435 -0.115,0.91 0,0.7 0.275,1.06 0.275,0.355 0.8,0.355 z m -0.085,0.695 q -0.415,0 -0.76,-0.14 -0.345,-0.145 -0.595,-0.415 -0.25,-0.27 -0.39,-0.66 -0.14,-0.39 -0.14,-0.89 0,-0.64 0.2,-1.205 0.2,-0.565 0.55,-0.985 0.35,-0.425 0.82,-0.67 0.475,-0.245 1.02,-0.245 0.415,0 0.76,0.145 0.345,0.14 0.595,0.41 0.25,0.27 0.39,0.66 0.14,0.39 0.14,0.885 0,0.635 -0.2,1.2 -0.2,0.565 -0.55,0.99 -0.345,0.425 -0.82,0.675 -0.475,0.245 -1.02,0.245 z" /><path
     id="path270"
     style="font-style:italic;font-size:10px;line-height:1.25;-inkscape-font-specification:'Sans Italic';fill:#666666"
     d="m 70.586802,124.18492 -0.61,5.065 h -0.44 q -0.325,0 -0.325,-0.32 l 0.075,-0.925 q -0.4,0.65 -0.905,0.985 -0.5,0.33 -1.03,0.33 -0.32,0 -0.565,-0.125 -0.245,-0.13 -0.4,-0.375 -0.15,-0.245 -0.205,-0.6 -0.055,-0.355 0.005,-0.815 l 0.38,-3.22 h 0.885 l -0.38,3.22 q -0.07,0.595 0.07,0.885 0.145,0.29 0.54,0.29 0.23,0 0.475,-0.125 0.245,-0.125 0.47,-0.355 0.225,-0.23 0.42,-0.555 0.2,-0.33 0.34,-0.73 l 0.315,-2.63 z" /><path
     id="path272"
     style="font-style:italic;font-size:10px;line-height:1.25;-inkscape-font-specification:'Sans Italic';fill:#666666"
     d="m 74.56477,124.99492 q -0.04,0.06 -0.08,0.09 -0.04,0.025 -0.1,0.025 -0.07,0 -0.155,-0.055 -0.08,-0.055 -0.2,-0.12 -0.115,-0.07 -0.285,-0.125 -0.17,-0.06 -0.41,-0.06 -0.225,0 -0.41,0.065 -0.185,0.06 -0.32,0.17 -0.13,0.11 -0.205,0.26 -0.07,0.145 -0.07,0.31 0,0.235 0.155,0.375 0.155,0.14 0.39,0.245 0.235,0.1 0.505,0.195 0.27,0.095 0.505,0.24 0.235,0.145 0.39,0.37 0.155,0.225 0.155,0.585 0,0.35 -0.14,0.67 -0.135,0.32 -0.395,0.565 -0.255,0.24 -0.62,0.385 -0.36,0.145 -0.81,0.145 -0.485,0 -0.86,-0.17 -0.37,-0.175 -0.605,-0.445 l 0.22,-0.34 q 0.045,-0.065 0.095,-0.1 0.055,-0.035 0.14,-0.035 0.08,0 0.16,0.07 0.08,0.07 0.2,0.16 0.12,0.085 0.3,0.155 0.185,0.07 0.465,0.07 0.245,0 0.44,-0.075 0.2,-0.075 0.335,-0.2 0.14,-0.125 0.21,-0.29 0.075,-0.17 0.075,-0.36 0,-0.255 -0.155,-0.405 -0.155,-0.15 -0.39,-0.25 -0.235,-0.1 -0.505,-0.185 -0.27,-0.09 -0.505,-0.225 -0.235,-0.14 -0.39,-0.36 -0.155,-0.22 -0.155,-0.585 0,-0.32 0.125,-0.615 0.13,-0.3 0.37,-0.53 0.24,-0.23 0.58,-0.365 0.345,-0.14 0.775,-0.14 0.455,0 0.8,0.155 0.35,0.15 0.6,0.41 z" /></g>
<g
   id="text3198"
   style="font-style:normal;font-variant:normal;font-weight:normal;font-stretch:normal;line-height:0%;font-family:Lato, Arial, Helvetica, sans-serif;-inkscape-font-specification:Lato;letter-spacing:0px;word-spacing:0px;fill:#808080;fill-opacity:1;stroke:none"
   aria-label="For selection"><path
     id="path275"
     style="font-weight:bold;font-size:11px;line-height:1.25;-inkscape-font-specification:'Sans Bold';fill:#808080"
     d="m 11.59254,1.5814219 v 2.354 h 2.981 v 1.1825 h -2.981 v 3.2395 h -1.485 V 0.40442188 h 5.016 V 1.5814219 Z" /><path
     id="path277"
     style="font-weight:bold;font-size:11px;line-height:1.25;-inkscape-font-specification:'Sans Bold';fill:#808080"
     d="m 18.126368,2.6264219 q 0.627,0 1.1385,0.2035 0.517,0.2035 0.88,0.5775 0.3685,0.374 0.5665,0.913 0.198,0.539 0.198,1.2045 0,0.671 -0.198,1.21 -0.198,0.539 -0.5665,0.9185 -0.363,0.3795 -0.88,0.583 -0.5115,0.2035 -1.1385,0.2035 -0.6325,0 -1.1495,-0.2035 -0.517,-0.2035 -0.8855,-0.583 -0.363,-0.3795 -0.5665,-0.9185 -0.198,-0.539 -0.198,-1.21 0,-0.6655 0.198,-1.2045 0.2035,-0.539 0.5665,-0.913 0.3685,-0.374 0.8855,-0.5775 0.517,-0.2035 1.1495,-0.2035 z m 0,4.7685 q 0.704,0 1.0395,-0.473 0.341,-0.473 0.341,-1.386 0,-0.913 -0.341,-1.3915 -0.3355,-0.4785 -1.0395,-0.4785 -0.715,0 -1.0615,0.484 -0.341,0.4785 -0.341,1.386 0,0.9075 0.341,1.386 0.3465,0.473 1.0615,0.473 z" /><path
     id="path279"
     style="font-weight:bold;font-size:11px;line-height:1.25;-inkscape-font-specification:'Sans Bold';fill:#808080"
     d="m 23.227275,3.6934219 q 0.264,-0.506 0.627,-0.792 0.363,-0.2915 0.858,-0.2915 0.3905,0 0.627,0.1705 l -0.088,1.0175 q -0.0275,0.099 -0.0825,0.143 -0.0495,0.0385 -0.1375,0.0385 -0.0825,0 -0.2475,-0.0275 -0.1595,-0.0275 -0.3135,-0.0275 -0.2255,0 -0.4015,0.066 -0.176,0.066 -0.319,0.1925 -0.1375,0.121 -0.2475,0.297 -0.1045,0.176 -0.198,0.4015 v 3.476 h -1.3585 v -5.643 h 0.7975 q 0.209,0 0.2915,0.077 0.0825,0.0715 0.11,0.264 z" /><path
     id="path281"
     style="font-weight:bold;font-size:11px;line-height:1.25;-inkscape-font-specification:'Sans Bold';fill:#808080"
     d="m 31.920025,3.8144219 q -0.055,0.088 -0.1155,0.1265 -0.0605,0.033 -0.154,0.033 -0.099,0 -0.2145,-0.055 -0.11,-0.055 -0.2585,-0.121 -0.1485,-0.0715 -0.341,-0.1265 -0.187,-0.055 -0.4455,-0.055 -0.4015,0 -0.6325,0.1705 -0.2255,0.1705 -0.2255,0.4455 0,0.1815 0.1155,0.308 0.121,0.121 0.3135,0.2145 0.198,0.0935 0.4455,0.1705 0.2475,0.0715 0.5005,0.1595 0.2585,0.088 0.506,0.2035 0.2475,0.11 0.44,0.286 0.198,0.1705 0.3135,0.4125 0.121,0.242 0.121,0.583 0,0.407 -0.1485,0.7535 -0.143,0.341 -0.429,0.594 -0.286,0.2475 -0.7095,0.3905 -0.418,0.1375 -0.968,0.1375 -0.2915,0 -0.572,-0.055 -0.275,-0.0495 -0.5335,-0.143 -0.253,-0.0935 -0.473,-0.22 -0.2145,-0.1265 -0.3795,-0.275 l 0.3135,-0.517 q 0.0605,-0.0935 0.143,-0.143 0.0825,-0.0495 0.209,-0.0495 0.1265,0 0.2365,0.0715 0.1155,0.0715 0.264,0.154 0.1485,0.0825 0.3465,0.154 0.2035,0.0715 0.5115,0.0715 0.242,0 0.4125,-0.055 0.176,-0.0605 0.286,-0.154 0.1155,-0.0935 0.165,-0.2145 0.055,-0.1265 0.055,-0.2585 0,-0.198 -0.121,-0.3245 -0.1155,-0.1265 -0.3135,-0.22 -0.1925,-0.0935 -0.4455,-0.165 -0.2475,-0.077 -0.5115,-0.165 -0.2585,-0.088 -0.5115,-0.2035 -0.2475,-0.121 -0.4455,-0.3025 -0.1925,-0.1815 -0.3135,-0.4455 -0.1155,-0.264 -0.1155,-0.638 0,-0.3465 0.1375,-0.66 0.1375,-0.3135 0.4015,-0.5445 0.2695,-0.2365 0.6655,-0.374 0.4015,-0.143 0.924,-0.143 0.583,0 1.0615,0.1925 0.4785,0.1925 0.7975,0.506 z" /><path
     id="path283"
     style="font-weight:bold;font-size:11px;line-height:1.25;-inkscape-font-specification:'Sans Bold';fill:#808080"
     d="m 36.946509,4.8869219 q 0,-0.264 -0.077,-0.495 -0.0715,-0.2365 -0.22,-0.4125 -0.1485,-0.176 -0.3795,-0.275 -0.2255,-0.1045 -0.528,-0.1045 -0.5885,0 -0.9295,0.3355 -0.3355,0.3355 -0.429,0.9515 z m -2.5905,0.8195 q 0.033,0.4345 0.154,0.7535 0.121,0.3135 0.319,0.5225 0.198,0.2035 0.4675,0.308 0.275,0.099 0.605,0.099 0.33,0 0.5665,-0.077 0.242,-0.077 0.418,-0.1705 0.1815,-0.0935 0.3135,-0.1705 0.1375,-0.077 0.264,-0.077 0.1705,0 0.253,0.1265 l 0.3905,0.495 q -0.2255,0.264 -0.506,0.4455 -0.2805,0.176 -0.5885,0.286 -0.3025,0.1045 -0.6215,0.1485 -0.3135,0.044 -0.6105,0.044 -0.5885,0 -1.0945,-0.1925 -0.506,-0.198 -0.88,-0.5775 -0.374,-0.385 -0.5885,-0.946 -0.2145,-0.5665 -0.2145,-1.309 0,-0.5775 0.187,-1.0835 0.187,-0.5115 0.5335,-0.8855 0.352,-0.3795 0.8525,-0.5995 0.506,-0.22 1.1385,-0.22 0.5335,0 0.9845,0.1705 0.451,0.1705 0.7755,0.5005 0.3245,0.3245 0.506,0.803 0.187,0.473 0.187,1.0835 0,0.308 -0.066,0.418 -0.066,0.1045 -0.253,0.1045 z" /><path
     id="path285"
     style="font-weight:bold;font-size:11px;line-height:1.25;-inkscape-font-specification:'Sans Bold';fill:#808080"
     d="M 40.551243,0.18442187 V 8.3574219 h -1.3585 V 0.18442187 Z" /><path
     id="path287"
     style="font-weight:bold;font-size:11px;line-height:1.25;-inkscape-font-specification:'Sans Bold';fill:#808080"
     d="m 45.540259,4.8869219 q 0,-0.264 -0.077,-0.495 -0.0715,-0.2365 -0.22,-0.4125 -0.1485,-0.176 -0.3795,-0.275 -0.2255,-0.1045 -0.528,-0.1045 -0.5885,0 -0.9295,0.3355 -0.3355,0.3355 -0.429,0.9515 z m -2.5905,0.8195 q 0.033,0.4345 0.154,0.7535 0.121,0.3135 0.319,0.5225 0.198,0.2035 0.4675,0.308 0.275,0.099 0.605,0.099 0.33,0 0.5665,-0.077 0.242,-0.077 0.418,-0.1705 0.1815,-0.0935 0.3135,-0.1705 0.1375,-0.077 0.264,-0.077 0.1705,0 0.253,0.1265 l 0.3905,0.495 q -0.2255,0.264 -0.506,0.4455 -0.2805,0.176 -0.5885,0.286 -0.3025,0.1045 -0.6215,0.1485 -0.3135,0.044 -0.6105,0.044 -0.5885,0 -1.0945,-0.1925 -0.506,-0.198 -0.88,-0.5775 -0.374,-0.385 -0.5885,-0.946 -0.2145,-0.5665 -0.2145,-1.309 0,-0.5775 0.187,-1.0835 0.187,-0.5115 0.5335,-0.8855 0.352,-0.3795 0.8525,-0.5995 0.506,-0.22 1.1385,-0.22 0.5335,0 0.9845,0.1705 0.451,0.1705 0.7755,0.5005 0.3245,0.3245 0.506,0.803 0.187,0.473 0.187,1.0835 0,0.308 -0.066,0.418 -0.066,0.1045 -0.253,0.1045 z" /><path
     id="path289"
     style="font-weight:bold;font-size:11px;line-height:1.25;-inkscape-font-specification:'Sans Bold';fill:#808080"
     d="m 51.812493,3.9079219 q -0.0605,0.077 -0.121,0.121 -0.055,0.044 -0.165,0.044 -0.1045,0 -0.2035,-0.0605 -0.099,-0.066 -0.2365,-0.143 -0.1375,-0.0825 -0.33,-0.143 -0.187,-0.066 -0.4675,-0.066 -0.3575,0 -0.627,0.132 -0.2695,0.1265 -0.451,0.3685 -0.176,0.242 -0.264,0.5885 -0.088,0.341 -0.088,0.7755 0,0.451 0.0935,0.803 0.099,0.352 0.2805,0.594 0.1815,0.2365 0.44,0.363 0.2585,0.121 0.583,0.121 0.3245,0 0.5225,-0.077 0.2035,-0.0825 0.341,-0.176 0.1375,-0.099 0.2365,-0.176 0.1045,-0.0825 0.231,-0.0825 0.165,0 0.2475,0.1265 l 0.3905,0.495 q -0.2255,0.264 -0.4895,0.4455 -0.264,0.176 -0.55,0.286 -0.2805,0.1045 -0.583,0.1485 -0.297,0.044 -0.594,0.044 -0.5225,0 -0.9845,-0.1925 -0.462,-0.198 -0.8085,-0.572 -0.3465,-0.374 -0.55,-0.913 -0.198,-0.5445 -0.198,-1.2375 0,-0.6215 0.176,-1.1495 0.1815,-0.5335 0.528,-0.9185 0.3465,-0.3905 0.858,-0.6105 0.5115,-0.22 1.177,-0.22 0.6325,0 1.1055,0.2035 0.4785,0.2035 0.858,0.583 z" /><path
     id="path291"
     style="font-weight:bold;font-size:11px;line-height:1.25;-inkscape-font-specification:'Sans Bold';fill:#808080"
     d="m 58.769134,8.3574219 h -1.3585 v -4.6255 h -2.618 v 3.058 q 0,0.264 0.1265,0.4125 0.132,0.1485 0.3575,0.1485 0.1265,0 0.209,-0.0275 0.088,-0.033 0.1485,-0.066 0.066,-0.033 0.1155,-0.0605 0.0495,-0.033 0.099,-0.033 0.0605,0 0.099,0.033 0.0385,0.0275 0.0825,0.088 l 0.407,0.66 q -0.297,0.2475 -0.682,0.374 -0.385,0.1265 -0.7975,0.1265 -0.737,0 -1.133,-0.4125 -0.3905,-0.418 -0.3905,-1.1495 v -3.1515 h -0.5775 q -0.11,0 -0.187,-0.0715 -0.077,-0.0715 -0.077,-0.2145 v -0.539 l 0.9075,-0.154 0.286,-1.5345 q 0.0275,-0.11 0.1045,-0.1705 0.077,-0.0605 0.198,-0.0605 h 0.704 V 2.7639219 h 3.9765 z m 0.2365,-7.3095 q 0,0.176 -0.0715,0.3355 -0.0715,0.154 -0.1925,0.2695 -0.1155,0.1155 -0.2805,0.187 -0.1595,0.066 -0.341,0.066 -0.176,0 -0.33,-0.066 -0.154,-0.0715 -0.2695,-0.187 -0.1155,-0.1155 -0.187,-0.2695 -0.066,-0.1595 -0.066,-0.3355 0,-0.18150003 0.066,-0.33550003 0.0715,-0.1595 0.187,-0.27499999 0.1155,-0.12100001 0.2695,-0.187 0.154,-0.0715 0.33,-0.0715 0.1815,0 0.341,0.0715 0.165,0.066 0.2805,0.187 0.121,0.11549999 0.1925,0.27499999 0.0715,0.154 0.0715,0.33550003 z" /><path
     id="path293"
     style="font-weight:bold;font-size:11px;line-height:1.25;-inkscape-font-specification:'Sans Bold';fill:#808080"
     d="m 62.641993,2.6264219 q 0.627,0 1.1385,0.2035 0.517,0.2035 0.88,0.5775 0.3685,0.374 0.5665,0.913 0.198,0.539 0.198,1.2045 0,0.671 -0.198,1.21 -0.198,0.539 -0.5665,0.9185 -0.363,0.3795 -0.88,0.583 -0.5115,0.2035 -1.1385,0.2035 -0.6325,0 -1.1495,-0.2035 -0.517,-0.2035 -0.8855,-0.583 -0.363,-0.3795 -0.5665,-0.9185 -0.198,-0.539 -0.198,-1.21 0,-0.6655 0.198,-1.2045 0.2035,-0.539 0.5665,-0.913 0.3685,-0.374 0.8855,-0.5775 0.517,-0.2035 1.1495,-0.2035 z m 0,4.7685 q 0.704,0 1.0395,-0.473 0.341,-0.473 0.341,-1.386 0,-0.913 -0.341,-1.3915 -0.3355,-0.4785 -1.0395,-0.4785 -0.715,0 -1.0615,0.484 -0.341,0.4785 -0.341,1.386 0,0.9075 0.341,1.386 0.3465,0.473 1.0615,0.473 z" /><path
     id="path295"
     style="font-weight:bold;font-size:11px;line-height:1.25;-inkscape-font-specification:'Sans Bold';fill:#808080"
     d="m 67.7319,3.4074219 q 0.1705,-0.1705 0.3575,-0.3135 0.1925,-0.1485 0.4015,-0.2475 0.2145,-0.1045 0.4565,-0.1595 0.242,-0.0605 0.528,-0.0605 0.462,0 0.8195,0.1595 0.3575,0.154 0.594,0.44 0.242,0.2805 0.363,0.6765 0.1265,0.3905 0.1265,0.8635 v 3.5915 h -1.3585 v -3.5915 q 0,-0.517 -0.2365,-0.7975 -0.2365,-0.286 -0.7205,-0.286 -0.352,0 -0.66,0.1595 -0.308,0.1595 -0.583,0.4345 v 4.081 h -1.3585 v -5.643 h 0.8305 q 0.264,0 0.3465,0.2475 z" /></g>
</g></g><g
   style="display:none"
   id="layer2"><g
     transform="translate(107.11468)"
     id="g3115"><g
   id="g3260"
   transform="translate(-99.222069,17.664547)"><g
   id="text3121"
   style="font-size:11.89624977px;line-height:0%"
   aria-label="AAC"><path
     id="path298"
     style="font-size:11.89624977px;font-family:Monospace, Menlo, Courier, monospace;fill:#000000"
     d="m 106.7756,27.130552 v 0.559123 h 1.70116 l -2.29598,5.579342 h -0.6305 v 0.559123 h 2.43873 v -0.559123 h -1.21341 l 0.66619,-1.653579 h 3.10492 l 0.67808,1.653579 h -1.21341 v 0.559123 h 2.43873 v -0.559123 h -0.60671 l -2.51011,-6.138465 z m 3.56887,3.961451 h -2.68855 l 1.34428,-3.259573 z" /><path
     id="path300"
     style="font-size:11.89624977px;font-family:Monospace, Menlo, Courier, monospace;fill:#000000"
     d="m 113.9087,27.130552 v 0.559123 h 1.70116 l -2.29597,5.579342 h -0.6305 v 0.559123 h 2.43873 v -0.559123 h -1.21342 l 0.66619,-1.653579 h 3.10492 l 0.67809,1.653579 h -1.21342 v 0.559123 h 2.43873 v -0.559123 h -0.60671 l -2.51011,-6.138465 z m 3.56887,3.961451 h -2.68855 l 1.34428,-3.259573 z" /><path
     id="path302"
     style="font-size:11.89624977px;font-family:Monospace, Menlo, Courier, monospace;fill:#000000"
     d="m 126.37132,32.222147 c -0.77325,0.678086 -1.61789,1.213417 -2.70045,1.213417 -2.03426,0 -2.56959,-1.855815 -2.56959,-3.04544 0,-1.570305 0.9636,-2.866996 2.52201,-2.866996 0.86842,0 1.30859,0.368784 1.53461,0.701879 0.27362,0.404472 0.345,0.868426 0.39258,1.14204 l 0.55912,-0.09517 c -0.0833,-0.630502 -0.15465,-1.296692 -0.11896,-2.272184 h -0.44016 c -0.0238,0.214132 -0.0714,0.57102 -0.17844,0.57102 -0.0238,0 -0.0476,0 -0.20224,-0.130859 -0.0952,-0.08327 -0.57102,-0.511539 -1.52272,-0.511539 -1.80823,0 -3.18819,1.403758 -3.18819,3.473705 0,1.939089 1.11824,3.628357 3.21198,3.628357 0.48775,0 1.76065,-0.107067 3.09303,-1.379965 z" /></g>
<g
   id="text3129"
   style="font-size:11.89624977px;line-height:0%"
   aria-label="AAG"><path
     id="path305"
     style="font-size:11.89624977px;font-family:Monospace, Menlo, Courier, monospace;fill:#000000"
     d="m 154.30868,27.130548 v 0.559124 h 1.70116 l -2.29598,5.579341 h -0.6305 v 0.559123 h 2.43873 v -0.559123 h -1.21341 l 0.66619,-1.653579 h 3.10492 l 0.67808,1.653579 h -1.21341 v 0.559123 h 2.43873 v -0.559123 h -0.60671 l -2.51011,-6.138465 z m 3.56887,3.961451 H 155.189 l 1.34428,-3.259572 z" /><path
     id="path307"
     style="font-size:11.89624977px;font-family:Monospace, Menlo, Courier, monospace;fill:#000000"
     d="m 161.44178,27.130548 v 0.559124 h 1.70116 l -2.29597,5.579341 h -0.6305 v 0.559123 h 2.43873 v -0.559123 h -1.21342 l 0.66619,-1.653579 h 3.10492 l 0.67809,1.653579 h -1.21342 v 0.559123 h 2.43873 v -0.559123 h -0.60671 l -2.51011,-6.138465 z m 3.56888,3.961451 h -2.68856 l 1.34428,-3.259572 z" /><path
     id="path309"
     style="font-size:11.89624977px;font-family:Monospace, Menlo, Courier, monospace;fill:#000000"
     d="m 172.86943,26.999689 c -0.0595,0.523435 -0.0595,0.582916 -0.17844,0.582916 -0.0595,0 -0.10707,-0.02379 -0.23793,-0.142755 -0.45206,-0.368783 -0.91601,-0.511538 -1.48703,-0.511538 -2.03426,0 -3.1644,1.748748 -3.1644,3.580771 0,1.570305 0.85653,3.52129 3.29526,3.52129 0.70188,0 1.51082,-0.19034 2.43873,-0.582917 v -1.99857 h 0.57102 v -0.559123 h -2.93837 v 0.559123 h 1.76064 v 1.605994 c -0.92791,0.321199 -1.42755,0.38068 -1.82013,0.38068 -1.80823,0 -2.66476,-1.308587 -2.66476,-2.938373 0,-1.760645 1.10636,-2.974063 2.49822,-2.974063 1.67737,0 1.9034,1.308588 1.98667,1.843919 l 0.51154,-0.09517 c -0.0357,-0.28551 -0.0714,-0.689983 -0.0714,-1.082559 0,-0.309302 0.0357,-0.832737 0.0476,-0.963596 0,-0.03569 0.0119,-0.178444 0.0238,-0.226029 z" /></g>
<path
   style="fill:none;stroke:#000000;stroke-width:0.69999999;stroke-linecap:butt;stroke-linejoin:miter;stroke-miterlimit:4;stroke-dasharray:none;stroke-opacity:1;marker-end:url(#Arrow1Mend)"
   d="m 132.65805,29.49774 c 15.28472,0 15.28472,0 15.28472,0"
   id="path3133" /></g><g
   id="g3267"
   transform="translate(-100.64002,17.664547)"><g
   id="text3180"
   style="font-size:11.89624977px;line-height:0%"
   aria-label="GTG"><path
     id="path312"
     style="font-size:11.89624977px;font-family:Monospace, Menlo, Courier, monospace;fill:#000000"
     d="m 160.12024,93.26502 c -0.0595,0.523435 -0.0595,0.582917 -0.17845,0.582917 -0.0595,0 -0.10706,-0.02379 -0.23792,-0.142755 -0.45206,-0.368784 -0.91601,-0.511539 -1.48703,-0.511539 -2.03426,0 -3.16441,1.748749 -3.16441,3.580771 0,1.570305 0.85653,3.521286 3.29527,3.521286 0.70187,0 1.51082,-0.19034 2.43873,-0.582912 v -1.99857 h 0.57102 v -0.559124 h -2.93838 v 0.559124 h 1.76065 v 1.605993 c -0.92791,0.321199 -1.42755,0.38068 -1.82013,0.38068 -1.80823,0 -2.66476,-1.308587 -2.66476,-2.938373 0,-1.760645 1.10635,-2.974063 2.49821,-2.974063 1.67738,0 1.9034,1.308588 1.98668,1.843919 l 0.51154,-0.09517 c -0.0357,-0.28551 -0.0714,-0.689982 -0.0714,-1.082559 0,-0.309302 0.0357,-0.832737 0.0476,-0.963596 0,-0.03569 0.0119,-0.178444 0.0238,-0.226029 z" /><path
     id="path314"
     style="font-size:11.89624977px;font-family:Monospace, Menlo, Courier, monospace;fill:#000000"
     d="m 162.32829,93.395879 -0.20223,2.807515 0.57102,0.07138 0.16654,-2.319769 h 2.02237 v 5.579341 h -1.43945 v 0.559126 h 3.47371 v -0.559126 h -1.43945 v -5.579341 h 2.02236 l 0.16655,2.319769 0.57102,-0.07138 -0.20224,-2.807515 z" /><path
     id="path316"
     style="font-size:11.89624977px;font-family:Monospace, Menlo, Courier, monospace;fill:#000000"
     d="m 174.38644,93.26502 c -0.0595,0.523435 -0.0595,0.582917 -0.17844,0.582917 -0.0595,0 -0.10707,-0.02379 -0.23793,-0.142755 -0.45205,-0.368784 -0.91601,-0.511539 -1.48703,-0.511539 -2.03426,0 -3.1644,1.748749 -3.1644,3.580771 0,1.570305 0.85653,3.521286 3.29526,3.521286 0.70188,0 1.51083,-0.19034 2.43873,-0.582912 v -1.99857 h 0.57102 v -0.559124 h -2.93837 v 0.559124 h 1.76064 v 1.605993 c -0.9279,0.321199 -1.42755,0.38068 -1.82012,0.38068 -1.80823,0 -2.66476,-1.308587 -2.66476,-2.938373 0,-1.760645 1.10635,-2.974063 2.49821,-2.974063 1.67737,0 1.9034,1.308588 1.98667,1.843919 l 0.51154,-0.09517 c -0.0357,-0.28551 -0.0714,-0.689982 -0.0714,-1.082559 0,-0.309302 0.0357,-0.832737 0.0476,-0.963596 0,-0.03569 0.0119,-0.178444 0.0238,-0.226029 z" /></g>
<g
   id="text3184"
   style="font-size:11.89624977px;line-height:0%"
   aria-label="GTC"><path
     id="path319"
     style="font-size:11.89624977px;font-family:Monospace, Menlo, Courier, monospace;fill:#000000"
     d="m 112.01146,93.265013 c -0.0595,0.523435 -0.0595,0.582916 -0.17844,0.582916 -0.0595,0 -0.10707,-0.02379 -0.23792,-0.142755 -0.45206,-0.368784 -0.91602,-0.511539 -1.48704,-0.511539 -2.03425,0 -3.1644,1.748749 -3.1644,3.580771 0,1.570305 0.85653,3.521294 3.29526,3.521294 0.70188,0 1.51083,-0.19034 2.43873,-0.58292 v -1.99857 h 0.57102 v -0.559124 h -2.93837 v 0.559124 h 1.76065 v 1.605994 c -0.92791,0.321199 -1.42755,0.38068 -1.82013,0.38068 -1.80823,0 -2.66476,-1.308588 -2.66476,-2.938374 0,-1.760645 1.10635,-2.974062 2.49821,-2.974062 1.67737,0 1.9034,1.308587 1.98668,1.843918 l 0.51153,-0.09517 c -0.0357,-0.28551 -0.0714,-0.689982 -0.0714,-1.082558 0,-0.309303 0.0357,-0.832738 0.0476,-0.963597 0,-0.03569 0.0119,-0.178443 0.0238,-0.226028 z" /><path
     id="path321"
     style="font-size:11.89624977px;font-family:Monospace, Menlo, Courier, monospace;fill:#000000"
     d="m 114.21952,93.395871 -0.20224,2.807515 0.57102,0.07138 0.16655,-2.319769 h 2.02236 v 5.579341 h -1.43944 v 0.559124 h 3.4737 v -0.559124 h -1.43944 v -5.579341 h 2.02236 l 0.16655,2.319769 0.57102,-0.07138 -0.20224,-2.807515 z" /><path
     id="path323"
     style="font-size:11.89624977px;font-family:Monospace, Menlo, Courier, monospace;fill:#000000"
     d="m 127.31264,98.487466 c -0.77325,0.678087 -1.61789,1.213418 -2.70044,1.213418 -2.03426,0 -2.56959,-1.855815 -2.56959,-3.04544 0,-1.570305 0.96359,-2.866996 2.522,-2.866996 0.86843,0 1.30859,0.368783 1.53462,0.701878 0.27361,0.404473 0.34499,0.868427 0.39257,1.14204 l 0.55913,-0.09517 c -0.0833,-0.630501 -0.15465,-1.296691 -0.11897,-2.272183 h -0.44016 c -0.0238,0.214132 -0.0714,0.57102 -0.17844,0.57102 -0.0238,0 -0.0476,0 -0.20224,-0.130859 -0.0952,-0.08327 -0.57102,-0.511539 -1.52272,-0.511539 -1.80823,0 -3.18819,1.403758 -3.18819,3.473705 0,1.939089 1.11825,3.62836 3.21199,3.62836 0.48774,0 1.76064,-0.10707 3.09302,-1.379969 z" /></g>
<path
   id="path3188"
   d="m 132.94589,95.76307 c 15.28473,0 15.28473,0 15.28473,0"
   style="fill:none;stroke:#000000;stroke-width:0.69999999;stroke-linecap:butt;stroke-linejoin:miter;stroke-miterlimit:4;stroke-dasharray:none;stroke-opacity:1;marker-end:url(#Arrow1Mend)" /></g><g
   id="text3190"
   style="font-style:normal;font-weight:normal;line-height:0%;font-family:Lato, Arial, Helvetica, sans-serif;letter-spacing:0px;word-spacing:0px;fill:#000000;fill-opacity:1;stroke:none"
   aria-label="more likely"><path
     id="path326"
     style="font-style:italic;font-size:10px;line-height:1.25;-inkscape-font-specification:'Sans Italic';fill:#999999"
     d="m 18.522486,63.33197 0.61,-5.07 h 0.44 q 0.305,0 0.305,0.3 l -0.07,0.9 q 0.375,-0.625 0.82,-0.945 0.45,-0.325 0.94,-0.325 0.515,0 0.76,0.355 0.245,0.35 0.245,1.005 0.375,-0.695 0.845,-1.025 0.475,-0.335 1,-0.335 0.65,0 0.92,0.5 0.27,0.5 0.16,1.415 l -0.38,3.225 h -0.88 l 0.385,-3.225 q 0.07,-0.595 -0.04,-0.885 -0.105,-0.29 -0.48,-0.29 -0.215,0 -0.43,0.11 -0.21,0.105 -0.41,0.315 -0.2,0.205 -0.375,0.515 -0.17,0.305 -0.305,0.705 v 0.005 l -0.325,2.75 h -0.88 l 0.38,-3.225 q 0.075,-0.595 -0.02,-0.885 -0.095,-0.29 -0.47,-0.29 -0.24,0 -0.465,0.12 -0.22,0.12 -0.42,0.35 -0.195,0.225 -0.365,0.555 -0.17,0.325 -0.31,0.735 l -0.315,2.64 z" /><path
     id="path328"
     style="font-style:italic;font-size:10px;line-height:1.25;-inkscape-font-specification:'Sans Italic';fill:#999999"
     d="m 28.363579,62.70697 q 0.365,0 0.66,-0.2 0.3,-0.2 0.51,-0.53 0.215,-0.335 0.33,-0.77 0.115,-0.435 0.115,-0.91 0,-0.7 -0.28,-1.05 -0.275,-0.355 -0.795,-0.355 -0.37,0 -0.67,0.2 -0.295,0.195 -0.505,0.525 -0.21,0.33 -0.325,0.765 -0.115,0.435 -0.115,0.91 0,0.7 0.275,1.06 0.275,0.355 0.8,0.355 z m -0.085,0.695 q -0.415,0 -0.76,-0.14 -0.345,-0.145 -0.595,-0.415 -0.25,-0.27 -0.39,-0.66 -0.14,-0.39 -0.14,-0.89 0,-0.64 0.2,-1.205 0.2,-0.565 0.55,-0.985 0.35,-0.425 0.82,-0.67 0.475,-0.245 1.02,-0.245 0.415,0 0.76,0.145 0.345,0.14 0.595,0.41 0.25,0.27 0.39,0.66 0.14,0.39 0.14,0.885 0,0.635 -0.2,1.2 -0.2,0.565 -0.55,0.99 -0.345,0.425 -0.82,0.675 -0.475,0.245 -1.02,0.245 z" /><path
     id="path330"
     style="font-style:italic;font-size:10px;line-height:1.25;-inkscape-font-specification:'Sans Italic';fill:#999999"
     d="m 32.858892,59.67697 q 0.2,-0.425 0.43,-0.735 0.235,-0.315 0.49,-0.49 0.255,-0.18 0.525,-0.215 0.27,-0.04 0.55,0.08 l -0.16,0.855 q -0.65,-0.26 -1.15,0.19 -0.495,0.45 -0.805,1.625 l -0.28,2.345 h -0.87 l 0.61,-5.07 h 0.44 q 0.305,0 0.305,0.3 z" /><path
     id="path332"
     style="font-style:italic;font-size:10px;line-height:1.25;-inkscape-font-specification:'Sans Italic';fill:#999999"
     d="m 37.406079,58.83697 q -0.315,0 -0.58,0.13 -0.265,0.13 -0.47,0.36 -0.205,0.225 -0.35,0.535 -0.145,0.305 -0.225,0.66 0.77,-0.095 1.235,-0.215 0.465,-0.125 0.715,-0.265 0.25,-0.145 0.33,-0.31 0.08,-0.165 0.08,-0.345 0,-0.09 -0.04,-0.185 -0.04,-0.1 -0.13,-0.18 -0.085,-0.08 -0.225,-0.13 -0.14,-0.055 -0.34,-0.055 z m 1.41,3.56 q -0.255,0.265 -0.5,0.455 -0.245,0.185 -0.5,0.31 -0.25,0.125 -0.53,0.18 -0.275,0.06 -0.595,0.06 -0.435,0 -0.78,-0.145 -0.345,-0.145 -0.585,-0.41 -0.24,-0.27 -0.37,-0.65 -0.13,-0.38 -0.13,-0.85 0,-0.39 0.08,-0.775 0.085,-0.39 0.24,-0.74 0.16,-0.35 0.385,-0.65 0.23,-0.3 0.52,-0.515 0.295,-0.22 0.645,-0.345 0.355,-0.125 0.76,-0.125 0.385,0 0.665,0.11 0.28,0.11 0.46,0.28 0.18,0.17 0.265,0.375 0.09,0.205 0.09,0.39 0,0.33 -0.135,0.61 -0.135,0.275 -0.495,0.5 -0.36,0.22 -0.99,0.385 -0.63,0.165 -1.62,0.265 0,0.055 -0.005,0.11 0,0.05 0,0.105 0,0.67 0.29,1.025 0.295,0.35 0.885,0.35 0.24,0 0.425,-0.05 0.19,-0.05 0.335,-0.12 0.15,-0.075 0.26,-0.16 0.115,-0.09 0.205,-0.16 0.095,-0.075 0.175,-0.125 0.08,-0.05 0.16,-0.05 0.095,0 0.17,0.085 z" /><path
     id="path334"
     style="font-style:italic;font-size:10px;line-height:1.25;-inkscape-font-specification:'Sans Italic';fill:#999999"
     d="m 41.984986,63.33197 0.895,-7.365 h 0.875 l -0.895,7.365 z" /><path
     id="path336"
     style="font-style:italic;font-size:10px;line-height:1.25;-inkscape-font-specification:'Sans Italic';fill:#999999"
     d="m 45.741079,58.26697 -0.61,5.065 h -0.875 l 0.61,-5.065 z m 0.34,-1.59 q 0,0.13 -0.055,0.245 -0.05,0.11 -0.14,0.2 -0.085,0.085 -0.2,0.135 -0.11,0.05 -0.23,0.05 -0.115,0 -0.225,-0.05 -0.11,-0.05 -0.195,-0.135 -0.08,-0.09 -0.13,-0.2 -0.05,-0.115 -0.05,-0.245 0,-0.13 0.05,-0.245 0.05,-0.115 0.135,-0.2 0.085,-0.09 0.195,-0.14 0.11,-0.055 0.225,-0.055 0.12,0 0.23,0.05 0.115,0.05 0.2,0.14 0.085,0.085 0.135,0.205 0.055,0.115 0.055,0.245 z" /><path
     id="path338"
     style="font-style:italic;font-size:10px;line-height:1.25;-inkscape-font-specification:'Sans Italic';fill:#999999"
     d="m 48.280767,55.96697 -0.53,4.335 h 0.15 q 0.105,0 0.17,-0.025 0.065,-0.03 0.14,-0.115 l 1.68,-1.715 q 0.07,-0.085 0.15,-0.13 0.08,-0.05 0.195,-0.05 h 0.79 l -1.955,1.985 q -0.15,0.175 -0.305,0.265 0.08,0.06 0.135,0.14 0.06,0.075 0.11,0.175 l 1.52,2.5 h -0.765 q -0.11,0 -0.185,-0.035 -0.07,-0.04 -0.115,-0.14 l -1.29,-2.075 q -0.06,-0.105 -0.125,-0.135 -0.065,-0.035 -0.205,-0.035 h -0.17 l -0.295,2.42 h -0.88 l 0.905,-7.365 z" /><path
     id="path340"
     style="font-style:italic;font-size:10px;line-height:1.25;-inkscape-font-specification:'Sans Italic';fill:#999999"
     d="m 53.558423,58.83697 q -0.315,0 -0.58,0.13 -0.265,0.13 -0.47,0.36 -0.205,0.225 -0.35,0.535 -0.145,0.305 -0.225,0.66 0.77,-0.095 1.235,-0.215 0.465,-0.125 0.715,-0.265 0.25,-0.145 0.33,-0.31 0.08,-0.165 0.08,-0.345 0,-0.09 -0.04,-0.185 -0.04,-0.1 -0.13,-0.18 -0.085,-0.08 -0.225,-0.13 -0.14,-0.055 -0.34,-0.055 z m 1.41,3.56 q -0.255,0.265 -0.5,0.455 -0.245,0.185 -0.5,0.31 -0.25,0.125 -0.53,0.18 -0.275,0.06 -0.595,0.06 -0.435,0 -0.78,-0.145 -0.345,-0.145 -0.585,-0.41 -0.24,-0.27 -0.37,-0.65 -0.13,-0.38 -0.13,-0.85 0,-0.39 0.08,-0.775 0.085,-0.39 0.24,-0.74 0.16,-0.35 0.385,-0.65 0.23,-0.3 0.52,-0.515 0.295,-0.22 0.645,-0.345 0.355,-0.125 0.76,-0.125 0.385,0 0.665,0.11 0.28,0.11 0.46,0.28 0.18,0.17 0.265,0.375 0.09,0.205 0.09,0.39 0,0.33 -0.135,0.61 -0.135,0.275 -0.495,0.5 -0.36,0.22 -0.99,0.385 -0.63,0.165 -1.62,0.265 0,0.055 -0.005,0.11 0,0.05 0,0.105 0,0.67 0.29,1.025 0.295,0.35 0.885,0.35 0.24,0 0.425,-0.05 0.19,-0.05 0.335,-0.12 0.15,-0.075 0.26,-0.16 0.115,-0.09 0.205,-0.16 0.095,-0.075 0.175,-0.125 0.08,-0.05 0.16,-0.05 0.095,0 0.17,0.085 z" /><path
     id="path342"
     style="font-style:italic;font-size:10px;line-height:1.25;-inkscape-font-specification:'Sans Italic';fill:#999999"
     d="m 55.793579,63.33197 0.895,-7.365 h 0.875 l -0.895,7.365 z" /><path
     id="path344"
     style="font-style:italic;font-size:10px;line-height:1.25;-inkscape-font-specification:'Sans Italic';fill:#999999"
     d="m 62.679673,58.26697 -3.42,6.575 q -0.055,0.105 -0.13,0.155 -0.07,0.05 -0.18,0.05 h -0.655 l 1.1,-2.015 -1.315,-4.765 h 0.735 q 0.11,0 0.16,0.055 0.05,0.05 0.075,0.13 l 0.815,3.19 q 0.025,0.105 0.04,0.21 0.015,0.105 0.025,0.21 0.045,-0.105 0.09,-0.21 0.045,-0.11 0.095,-0.215 l 1.6,-3.195 q 0.04,-0.08 0.11,-0.125 0.075,-0.05 0.15,-0.05 z" /></g>
<g
   id="text3194"
   style="font-style:normal;font-weight:normal;line-height:0%;font-family:Lato, Arial, Helvetica, sans-serif;letter-spacing:0px;word-spacing:0px;fill:#000000;fill-opacity:1;stroke:none"
   aria-label="less likely"><path
     id="path347"
     style="font-style:italic;font-size:10px;line-height:1.25;-inkscape-font-specification:'Sans Italic';fill:#666666"
     d="m 21.512799,129.24992 0.895,-7.365 h 0.875 l -0.895,7.365 z" /><path
     id="path349"
     style="font-style:italic;font-size:10px;line-height:1.25;-inkscape-font-specification:'Sans Italic';fill:#666666"
     d="m 26.308892,124.75492 q -0.315,0 -0.58,0.13 -0.265,0.13 -0.47,0.36 -0.205,0.225 -0.35,0.535 -0.145,0.305 -0.225,0.66 0.77,-0.095 1.235,-0.215 0.465,-0.125 0.715,-0.265 0.25,-0.145 0.33,-0.31 0.08,-0.165 0.08,-0.345 0,-0.09 -0.04,-0.185 -0.04,-0.1 -0.13,-0.18 -0.085,-0.08 -0.225,-0.13 -0.14,-0.055 -0.34,-0.055 z m 1.41,3.56 q -0.255,0.265 -0.5,0.455 -0.245,0.185 -0.5,0.31 -0.25,0.125 -0.53,0.18 -0.275,0.06 -0.595,0.06 -0.435,0 -0.78,-0.145 -0.345,-0.145 -0.585,-0.41 -0.24,-0.27 -0.37,-0.65 -0.13,-0.38 -0.13,-0.85 0,-0.39 0.08,-0.775 0.085,-0.39 0.24,-0.74 0.16,-0.35 0.385,-0.65 0.23,-0.3 0.52,-0.515 0.295,-0.22 0.645,-0.345 0.355,-0.125 0.76,-0.125 0.385,0 0.665,0.11 0.28,0.11 0.46,0.28 0.18,0.17 0.265,0.375 0.09,0.205 0.09,0.39 0,0.33 -0.135,0.61 -0.135,0.275 -0.495,0.5 -0.36,0.22 -0.99,0.385 -0.63,0.165 -1.62,0.265 0,0.055 -0.005,0.11 0,0.05 0,0.105 0,0.67 0.29,1.025 0.295,0.35 0.885,0.35 0.24,0 0.425,-0.05 0.19,-0.05 0.335,-0.12 0.15,-0.075 0.26,-0.16 0.115,-0.09 0.205,-0.16 0.095,-0.075 0.175,-0.125 0.08,-0.05 0.16,-0.05 0.095,0 0.17,0.085 z" /><path
     id="path351"
     style="font-style:italic;font-size:10px;line-height:1.25;-inkscape-font-specification:'Sans Italic';fill:#666666"
     d="m 31.784049,124.99492 q -0.04,0.06 -0.08,0.09 -0.04,0.025 -0.1,0.025 -0.07,0 -0.155,-0.055 -0.08,-0.055 -0.2,-0.12 -0.115,-0.07 -0.285,-0.125 -0.17,-0.06 -0.41,-0.06 -0.225,0 -0.41,0.065 -0.185,0.06 -0.32,0.17 -0.13,0.11 -0.205,0.26 -0.07,0.145 -0.07,0.31 0,0.235 0.155,0.375 0.155,0.14 0.39,0.245 0.235,0.1 0.505,0.195 0.27,0.095 0.505,0.24 0.235,0.145 0.39,0.37 0.155,0.225 0.155,0.585 0,0.35 -0.14,0.67 -0.135,0.32 -0.395,0.565 -0.255,0.24 -0.62,0.385 -0.36,0.145 -0.81,0.145 -0.485,0 -0.86,-0.17 -0.37,-0.175 -0.605,-0.445 l 0.22,-0.34 q 0.045,-0.065 0.095,-0.1 0.055,-0.035 0.14,-0.035 0.08,0 0.16,0.07 0.08,0.07 0.2,0.16 0.12,0.085 0.3,0.155 0.185,0.07 0.465,0.07 0.245,0 0.44,-0.075 0.2,-0.075 0.335,-0.2 0.14,-0.125 0.21,-0.29 0.075,-0.17 0.075,-0.36 0,-0.255 -0.155,-0.405 -0.155,-0.15 -0.39,-0.25 -0.235,-0.1 -0.505,-0.185 -0.27,-0.09 -0.505,-0.225 -0.235,-0.14 -0.39,-0.36 -0.155,-0.22 -0.155,-0.585 0,-0.32 0.125,-0.615 0.13,-0.3 0.37,-0.53 0.24,-0.23 0.58,-0.365 0.345,-0.14 0.775,-0.14 0.455,0 0.8,0.155 0.35,0.15 0.6,0.41 z" /><path
     id="path353"
     style="font-style:italic;font-size:10px;line-height:1.25;-inkscape-font-specification:'Sans Italic';fill:#666666"
     d="m 35.787955,124.99492 q -0.04,0.06 -0.08,0.09 -0.04,0.025 -0.1,0.025 -0.07,0 -0.155,-0.055 -0.08,-0.055 -0.2,-0.12 -0.115,-0.07 -0.285,-0.125 -0.17,-0.06 -0.41,-0.06 -0.225,0 -0.41,0.065 -0.185,0.06 -0.32,0.17 -0.13,0.11 -0.205,0.26 -0.07,0.145 -0.07,0.31 0,0.235 0.155,0.375 0.155,0.14 0.39,0.245 0.235,0.1 0.505,0.195 0.27,0.095 0.505,0.24 0.235,0.145 0.39,0.37 0.155,0.225 0.155,0.585 0,0.35 -0.14,0.67 -0.135,0.32 -0.395,0.565 -0.255,0.24 -0.62,0.385 -0.36,0.145 -0.81,0.145 -0.485,0 -0.86,-0.17 -0.37,-0.175 -0.605,-0.445 l 0.22,-0.34 q 0.045,-0.065 0.095,-0.1 0.055,-0.035 0.14,-0.035 0.08,0 0.16,0.07 0.08,0.07 0.2,0.16 0.12,0.085 0.3,0.155 0.185,0.07 0.465,0.07 0.245,0 0.44,-0.075 0.2,-0.075 0.335,-0.2 0.14,-0.125 0.21,-0.29 0.075,-0.17 0.075,-0.36 0,-0.255 -0.155,-0.405 -0.155,-0.15 -0.39,-0.25 -0.235,-0.1 -0.505,-0.185 -0.27,-0.09 -0.505,-0.225 -0.235,-0.14 -0.39,-0.36 -0.155,-0.22 -0.155,-0.585 0,-0.32 0.125,-0.615 0.13,-0.3 0.37,-0.53 0.24,-0.23 0.58,-0.365 0.345,-0.14 0.775,-0.14 0.455,0 0.8,0.155 0.35,0.15 0.6,0.41 z" /><path
     id="path355"
     style="font-style:italic;font-size:10px;line-height:1.25;-inkscape-font-specification:'Sans Italic';fill:#666666"
     d="m 38.895611,129.24992 0.895,-7.365 h 0.875 l -0.895,7.365 z" /><path
     id="path357"
     style="font-style:italic;font-size:10px;line-height:1.25;-inkscape-font-specification:'Sans Italic';fill:#666666"
     d="m 42.651705,124.18492 -0.61,5.065 h -0.875 l 0.61,-5.065 z m 0.34,-1.59 q 0,0.13 -0.055,0.245 -0.05,0.11 -0.14,0.2 -0.085,0.085 -0.2,0.135 -0.11,0.05 -0.23,0.05 -0.115,0 -0.225,-0.05 -0.11,-0.05 -0.195,-0.135 -0.08,-0.09 -0.13,-0.2 -0.05,-0.115 -0.05,-0.245 0,-0.13 0.05,-0.245 0.05,-0.115 0.135,-0.2 0.085,-0.09 0.195,-0.14 0.11,-0.055 0.225,-0.055 0.12,0 0.23,0.05 0.115,0.05 0.2,0.14 0.085,0.085 0.135,0.205 0.055,0.115 0.055,0.245 z" /><path
     id="path359"
     style="font-style:italic;font-size:10px;line-height:1.25;-inkscape-font-specification:'Sans Italic';fill:#666666"
     d="m 45.191392,121.88492 -0.53,4.335 h 0.15 q 0.105,0 0.17,-0.025 0.065,-0.03 0.14,-0.115 l 1.68,-1.715 q 0.07,-0.085 0.15,-0.13 0.08,-0.05 0.195,-0.05 h 0.79 l -1.955,1.985 q -0.15,0.175 -0.305,0.265 0.08,0.06 0.135,0.14 0.06,0.075 0.11,0.175 l 1.52,2.5 h -0.765 q -0.11,0 -0.185,-0.035 -0.07,-0.04 -0.115,-0.14 l -1.29,-2.075 q -0.06,-0.105 -0.125,-0.135 -0.065,-0.035 -0.205,-0.035 h -0.17 l -0.295,2.42 h -0.88 l 0.905,-7.365 z" /><path
     id="path361"
     style="font-style:italic;font-size:10px;line-height:1.25;-inkscape-font-specification:'Sans Italic';fill:#666666"
     d="m 50.469049,124.75492 q -0.315,0 -0.58,0.13 -0.265,0.13 -0.47,0.36 -0.205,0.225 -0.35,0.535 -0.145,0.305 -0.225,0.66 0.77,-0.095 1.235,-0.215 0.465,-0.125 0.715,-0.265 0.25,-0.145 0.33,-0.31 0.08,-0.165 0.08,-0.345 0,-0.09 -0.04,-0.185 -0.04,-0.1 -0.13,-0.18 -0.085,-0.08 -0.225,-0.13 -0.14,-0.055 -0.34,-0.055 z m 1.41,3.56 q -0.255,0.265 -0.5,0.455 -0.245,0.185 -0.5,0.31 -0.25,0.125 -0.53,0.18 -0.275,0.06 -0.595,0.06 -0.435,0 -0.78,-0.145 -0.345,-0.145 -0.585,-0.41 -0.24,-0.27 -0.37,-0.65 -0.13,-0.38 -0.13,-0.85 0,-0.39 0.08,-0.775 0.085,-0.39 0.24,-0.74 0.16,-0.35 0.385,-0.65 0.23,-0.3 0.52,-0.515 0.295,-0.22 0.645,-0.345 0.355,-0.125 0.76,-0.125 0.385,0 0.665,0.11 0.28,0.11 0.46,0.28 0.18,0.17 0.265,0.375 0.09,0.205 0.09,0.39 0,0.33 -0.135,0.61 -0.135,0.275 -0.495,0.5 -0.36,0.22 -0.99,0.385 -0.63,0.165 -1.62,0.265 0,0.055 -0.005,0.11 0,0.05 0,0.105 0,0.67 0.29,1.025 0.295,0.35 0.885,0.35 0.24,0 0.425,-0.05 0.19,-0.05 0.335,-0.12 0.15,-0.075 0.26,-0.16 0.115,-0.09 0.205,-0.16 0.095,-0.075 0.175,-0.125 0.08,-0.05 0.16,-0.05 0.095,0 0.17,0.085 z" /><path
     id="path363"
     style="font-style:italic;font-size:10px;line-height:1.25;-inkscape-font-specification:'Sans Italic';fill:#666666"
     d="m 52.704205,129.24992 0.895,-7.365 h 0.875 l -0.895,7.365 z" /><path
     id="path365"
     style="font-style:italic;font-size:10px;line-height:1.25;-inkscape-font-specification:'Sans Italic';fill:#666666"
     d="m 59.590299,124.18492 -3.42,6.575 q -0.055,0.105 -0.13,0.155 -0.07,0.05 -0.18,0.05 h -0.655 l 1.1,-2.015 -1.315,-4.765 h 0.735 q 0.11,0 0.16,0.055 0.05,0.05 0.075,0.13 l 0.815,3.19 q 0.025,0.105 0.04,0.21 0.015,0.105 0.025,0.21 0.045,-0.105 0.09,-0.21 0.045,-0.11 0.095,-0.215 l 1.6,-3.195 q 0.04,-0.08 0.11,-0.125 0.075,-0.05 0.15,-0.05 z" /></g>
<g
   id="text3202"
   style="font-style:normal;font-variant:normal;font-weight:normal;font-stretch:normal;line-height:0%;font-family:Lato, Arial, Helvetica, sans-serif;-inkscape-font-specification:Lato;letter-spacing:0px;word-spacing:0px;fill:#808080;fill-opacity:1;stroke:none"
   aria-label="In antibodies"><path
     id="path368"
     style="font-weight:bold;font-size:11px;line-height:1.25;-inkscape-font-specification:'Sans Bold';fill:#808080"
     d="M 10.72237,8.3574219 H 9.2373696 V 0.40442188 H 10.72237 Z" /><path
     id="path370"
     style="font-weight:bold;font-size:11px;line-height:1.25;-inkscape-font-specification:'Sans Bold';fill:#808080"
     d="m 13.473057,3.4074219 q 0.1705,-0.1705 0.3575,-0.3135 0.1925,-0.1485 0.4015,-0.2475 0.2145,-0.1045 0.4565,-0.1595 0.242,-0.0605 0.528,-0.0605 0.462,0 0.8195,0.1595 0.3575,0.154 0.594,0.44 0.242,0.2805 0.363,0.6765 0.1265,0.3905 0.1265,0.8635 v 3.5915 h -1.3585 v -3.5915 q 0,-0.517 -0.2365,-0.7975 -0.2365,-0.286 -0.7205,-0.286 -0.352,0 -0.66,0.1595 -0.308,0.1595 -0.583,0.4345 v 4.081 h -1.3585 v -5.643 h 0.8305 q 0.264,0 0.3465,0.2475 z" /><path
     id="path372"
     style="font-weight:bold;font-size:11px;line-height:1.25;-inkscape-font-specification:'Sans Bold';fill:#808080"
     d="m 24.056604,5.9484219 q -0.5885,0.0275 -0.99,0.1045 -0.4015,0.0715 -0.6435,0.187 -0.242,0.1155 -0.3465,0.2695 -0.1045,0.154 -0.1045,0.3355 0,0.3575 0.209,0.5115 0.2145,0.154 0.5555,0.154 0.418,0 0.7205,-0.1485 0.308,-0.154 0.5995,-0.462 z m -3.113,-2.4475 q 0.9735,-0.891 2.343,-0.891 0.495,0 0.8855,0.165 0.3905,0.1595 0.66,0.451 0.2695,0.286 0.407,0.6875 0.143,0.4015 0.143,0.88 v 3.564 h -0.616 q -0.1925,0 -0.297,-0.055 -0.1045,-0.0605 -0.165,-0.2365 l -0.121,-0.407 q -0.2145,0.1925 -0.418,0.341 -0.2035,0.143 -0.4235,0.242 -0.22,0.099 -0.473,0.1485 -0.2475,0.055 -0.55,0.055 -0.3575,0 -0.66,-0.0935 -0.3025,-0.099 -0.5225,-0.2915 -0.22,-0.1925 -0.341,-0.4785 -0.121,-0.286 -0.121,-0.6655 0,-0.2145 0.0715,-0.4235 0.0715,-0.2145 0.231,-0.407 0.165,-0.1925 0.4235,-0.363 0.2585,-0.1705 0.6325,-0.297 0.3795,-0.1265 0.88,-0.2035 0.5005,-0.0825 1.144,-0.099 v -0.33 q 0,-0.5665 -0.242,-0.836 -0.242,-0.275 -0.6985,-0.275 -0.33,0 -0.55,0.077 -0.2145,0.077 -0.3795,0.176 -0.165,0.0935 -0.3025,0.1705 -0.132,0.077 -0.297,0.077 -0.143,0 -0.242,-0.0715 -0.099,-0.077 -0.1595,-0.176 z" /><path
     id="path374"
     style="font-weight:bold;font-size:11px;line-height:1.25;-inkscape-font-specification:'Sans Bold';fill:#808080"
     d="m 27.932041,3.4074219 q 0.1705,-0.1705 0.3575,-0.3135 0.1925,-0.1485 0.4015,-0.2475 0.2145,-0.1045 0.4565,-0.1595 0.242,-0.0605 0.528,-0.0605 0.462,0 0.8195,0.1595 0.3575,0.154 0.594,0.44 0.242,0.2805 0.363,0.6765 0.1265,0.3905 0.1265,0.8635 v 3.5915 h -1.3585 v -3.5915 q 0,-0.517 -0.2365,-0.7975 -0.2365,-0.286 -0.7205,-0.286 -0.352,0 -0.66,0.1595 -0.308,0.1595 -0.583,0.4345 v 4.081 h -1.3585 v -5.643 h 0.8305 q 0.264,0 0.3465,0.2475 z" /><path
     id="path376"
     style="font-weight:bold;font-size:11px;line-height:1.25;-inkscape-font-specification:'Sans Bold';fill:#808080"
     d="m 38.477088,8.3574219 h -1.3585 v -4.6255 h -2.618 v 3.058 q 0,0.264 0.1265,0.4125 0.132,0.1485 0.3575,0.1485 0.1265,0 0.209,-0.0275 0.088,-0.033 0.1485,-0.066 0.066,-0.033 0.1155,-0.0605 0.0495,-0.033 0.099,-0.033 0.0605,0 0.099,0.033 0.0385,0.0275 0.0825,0.088 l 0.407,0.66 q -0.297,0.2475 -0.682,0.374 -0.385,0.1265 -0.7975,0.1265 -0.737,0 -1.133,-0.4125 -0.3905,-0.418 -0.3905,-1.1495 v -3.1515 h -0.5775 q -0.11,0 -0.187,-0.0715 -0.077,-0.0715 -0.077,-0.2145 v -0.539 l 0.9075,-0.154 0.286,-1.5345 q 0.0275,-0.11 0.1045,-0.1705 0.077,-0.0605 0.198,-0.0605 h 0.704 V 2.7639219 h 3.9765 z m 0.2365,-7.3095 q 0,0.176 -0.0715,0.3355 -0.0715,0.154 -0.1925,0.2695 -0.1155,0.1155 -0.2805,0.187 -0.1595,0.066 -0.341,0.066 -0.176,0 -0.33,-0.066 -0.154,-0.0715 -0.2695,-0.187 -0.1155,-0.1155 -0.187,-0.2695 -0.066,-0.1595 -0.066,-0.3355 0,-0.18150003 0.066,-0.33550003 0.0715,-0.1595 0.187,-0.27499999 0.1155,-0.12100001 0.2695,-0.187 0.154,-0.0715 0.33,-0.0715 0.1815,0 0.341,0.0715 0.165,0.066 0.2805,0.187 0.121,0.11549999 0.1925,0.27499999 0.0715,0.154 0.0715,0.33550003 z" /><path
     id="path378"
     style="font-weight:bold;font-size:11px;line-height:1.25;-inkscape-font-specification:'Sans Bold';fill:#808080"
     d="m 41.211448,6.8944219 q 0.231,0.2805 0.5005,0.396 0.275,0.1155 0.5775,0.1155 0.3135,0 0.561,-0.11 0.253,-0.1155 0.429,-0.352 0.176,-0.242 0.2695,-0.6105 0.0935,-0.374 0.0935,-0.891 0,-0.9295 -0.308,-1.342 -0.308,-0.418 -0.8855,-0.418 -0.3905,0 -0.682,0.1815 -0.2915,0.176 -0.5555,0.5005 z m 0,-3.487 q 0.341,-0.3575 0.7535,-0.5665 0.418,-0.2145 0.9515,-0.2145 0.4895,0 0.88,0.1925 0.396,0.1925 0.671,0.5555 0.2805,0.3575 0.429,0.869 0.1485,0.5115 0.1485,1.1495 0,0.6875 -0.1705,1.2485 -0.1705,0.561 -0.4895,0.9625 -0.3135,0.396 -0.759,0.616 -0.4455,0.22 -0.99,0.22 -0.264,0 -0.4785,-0.055 -0.2145,-0.0495 -0.396,-0.143 -0.1815,-0.0935 -0.3355,-0.2255 -0.1485,-0.1375 -0.286,-0.3025 l -0.0605,0.3795 q -0.033,0.143 -0.1155,0.2035 -0.077,0.0605 -0.2145,0.0605 h -0.8965 V 0.18442187 h 1.3585 z" /><path
     id="path380"
     style="font-weight:bold;font-size:11px;line-height:1.25;-inkscape-font-specification:'Sans Bold';fill:#808080"
     d="m 48.601901,2.6264219 q 0.627,0 1.1385,0.2035 0.517,0.2035 0.88,0.5775 0.3685,0.374 0.5665,0.913 0.198,0.539 0.198,1.2045 0,0.671 -0.198,1.21 -0.198,0.539 -0.5665,0.9185 -0.363,0.3795 -0.88,0.583 -0.5115,0.2035 -1.1385,0.2035 -0.6325,0 -1.1495,-0.2035 -0.517,-0.2035 -0.8855,-0.583 -0.363,-0.3795 -0.5665,-0.9185 -0.198,-0.539 -0.198,-1.21 0,-0.6655 0.198,-1.2045 0.2035,-0.539 0.5665,-0.913 0.3685,-0.374 0.8855,-0.5775 0.517,-0.2035 1.1495,-0.2035 z m 0,4.7685 q 0.704,0 1.0395,-0.473 0.341,-0.473 0.341,-1.386 0,-0.913 -0.341,-1.3915 -0.3355,-0.4785 -1.0395,-0.4785 -0.715,0 -1.0615,0.484 -0.341,0.4785 -0.341,1.386 0,0.9075 0.341,1.386 0.3465,0.473 1.0615,0.473 z" /><path
     id="path382"
     style="font-weight:bold;font-size:11px;line-height:1.25;-inkscape-font-specification:'Sans Bold';fill:#808080"
     d="m 55.963307,4.1554219 q -0.231,-0.2805 -0.506,-0.396 -0.2695,-0.1155 -0.583,-0.1155 -0.308,0 -0.5555,0.1155 -0.2475,0.1155 -0.4235,0.352 -0.176,0.231 -0.2695,0.594 -0.0935,0.3575 -0.0935,0.847 0,0.495 0.077,0.8415 0.0825,0.341 0.231,0.561 0.1485,0.2145 0.363,0.3135 0.2145,0.0935 0.4785,0.0935 0.4235,0 0.7205,-0.176 0.297,-0.176 0.561,-0.5005 z m 1.3585,-3.97100003 V 8.3574219 h -0.8305 q -0.2695,0 -0.341,-0.2475 l -0.1155,-0.5445 q -0.341,0.3905 -0.7865,0.6325 -0.44,0.242 -1.0285,0.242 -0.462,0 -0.847,-0.1925 -0.385,-0.1925 -0.6655,-0.5555 -0.275,-0.3685 -0.429,-0.9075 -0.1485,-0.539 -0.1485,-1.232 0,-0.627 0.1705,-1.166 0.1705,-0.539 0.4895,-0.935 0.319,-0.396 0.7645,-0.616 0.4455,-0.2255 1.001,-0.2255 0.473,0 0.8085,0.1485 0.3355,0.1485 0.5995,0.4015 V 0.18442187 Z" /><path
     id="path384"
     style="font-weight:bold;font-size:11px;line-height:1.25;-inkscape-font-specification:'Sans Bold';fill:#808080"
     d="m 60.08126,2.7144219 v 5.643 h -1.364 v -5.643 z m 0.187,-1.6445 q 0,0.176 -0.0715,0.33 -0.0715,0.154 -0.1925,0.2695 -0.1155,0.1155 -0.275,0.187 -0.1595,0.066 -0.341,0.066 -0.176,0 -0.3355,-0.066 -0.154,-0.0715 -0.2695,-0.187 -0.1155,-0.1155 -0.187,-0.2695 -0.066,-0.154 -0.066,-0.33 0,-0.18150003 0.066,-0.34100002 0.0715,-0.1595 0.187,-0.27500001 0.1155,-0.1155 0.2695,-0.18149999 0.1595,-0.0715 0.3355,-0.0715 0.1815,0 0.341,0.0715 0.1595,0.066 0.275,0.18149999 0.121,0.11550001 0.1925,0.27500001 0.0715,0.15949999 0.0715,0.34100002 z" /><path
     id="path386"
     style="font-weight:bold;font-size:11px;line-height:1.25;-inkscape-font-specification:'Sans Bold';fill:#808080"
     d="m 65.101729,4.8869219 q 0,-0.264 -0.077,-0.495 -0.0715,-0.2365 -0.22,-0.4125 -0.1485,-0.176 -0.3795,-0.275 -0.2255,-0.1045 -0.528,-0.1045 -0.5885,0 -0.9295,0.3355 -0.3355,0.3355 -0.429,0.9515 z m -2.5905,0.8195 q 0.033,0.4345 0.154,0.7535 0.121,0.3135 0.319,0.5225 0.198,0.2035 0.4675,0.308 0.275,0.099 0.605,0.099 0.33,0 0.5665,-0.077 0.242,-0.077 0.418,-0.1705 0.1815,-0.0935 0.3135,-0.1705 0.1375,-0.077 0.264,-0.077 0.1705,0 0.253,0.1265 l 0.3905,0.495 q -0.2255,0.264 -0.506,0.4455 -0.2805,0.176 -0.5885,0.286 -0.3025,0.1045 -0.6215,0.1485 -0.3135,0.044 -0.6105,0.044 -0.5885,0 -1.0945,-0.1925 -0.506,-0.198 -0.88,-0.5775 -0.374,-0.385 -0.5885,-0.946 -0.2145,-0.5665 -0.2145,-1.309 0,-0.5775 0.187,-1.0835 0.187,-0.5115 0.5335,-0.8855 0.352,-0.3795 0.8525,-0.5995 0.506,-0.22 1.1385,-0.22 0.5335,0 0.9845,0.1705 0.451,0.1705 0.7755,0.5005 0.3245,0.3245 0.506,0.803 0.187,0.473 0.187,1.0835 0,0.308 -0.066,0.418 -0.066,0.1045 -0.253,0.1045 z" /><path
     id="path388"
     style="font-weight:bold;font-size:11px;line-height:1.25;-inkscape-font-specification:'Sans Bold';fill:#808080"
     d="m 70.774463,3.8144219 q -0.055,0.088 -0.1155,0.1265 -0.0605,0.033 -0.154,0.033 -0.099,0 -0.2145,-0.055 -0.11,-0.055 -0.2585,-0.121 -0.1485,-0.0715 -0.341,-0.1265 -0.187,-0.055 -0.4455,-0.055 -0.4015,0 -0.6325,0.1705 -0.2255,0.1705 -0.2255,0.4455 0,0.1815 0.1155,0.308 0.121,0.121 0.3135,0.2145 0.198,0.0935 0.4455,0.1705 0.2475,0.0715 0.5005,0.1595 0.2585,0.088 0.506,0.2035 0.2475,0.11 0.44,0.286 0.198,0.1705 0.3135,0.4125 0.121,0.242 0.121,0.583 0,0.407 -0.1485,0.7535 -0.143,0.341 -0.429,0.594 -0.286,0.2475 -0.7095,0.3905 -0.418,0.1375 -0.968,0.1375 -0.2915,0 -0.572,-0.055 -0.275,-0.0495 -0.5335,-0.143 -0.253,-0.0935 -0.473,-0.22 -0.2145,-0.1265 -0.3795,-0.275 l 0.3135,-0.517 q 0.0605,-0.0935 0.143,-0.143 0.0825,-0.0495 0.209,-0.0495 0.1265,0 0.2365,0.0715 0.1155,0.0715 0.264,0.154 0.1485,0.0825 0.3465,0.154 0.2035,0.0715 0.5115,0.0715 0.242,0 0.4125,-0.055 0.176,-0.0605 0.286,-0.154 0.1155,-0.0935 0.165,-0.2145 0.055,-0.1265 0.055,-0.2585 0,-0.198 -0.121,-0.3245 -0.1155,-0.1265 -0.3135,-0.22 -0.1925,-0.0935 -0.4455,-0.165 -0.2475,-0.077 -0.5115,-0.165 -0.2585,-0.088 -0.5115,-0.2035 -0.2475,-0.121 -0.4455,-0.3025 -0.1925,-0.1815 -0.3135,-0.4455 -0.1155,-0.264 -0.1155,-0.638 0,-0.3465 0.1375,-0.66 0.1375,-0.3135 0.4015,-0.5445 0.2695,-0.2365 0.6655,-0.374 0.4015,-0.143 0.924,-0.143 0.583,0 1.0615,0.1925 0.4785,0.1925 0.7975,0.506 z" /></g>
</g><g
     transform="translate(0.80728149)"
     id="g3179"
     style="display:inline"><path
   style="display:inline;fill:none;stroke:#b3b3b3;stroke-width:1;stroke-linecap:butt;stroke-linejoin:miter;stroke-miterlimit:4;stroke-dasharray:1, 1;stroke-dashoffset:0;stroke-opacity:1"
   d="m 93.332253,3.841479 c 0,121.583061 0,121.583061 0,121.583061"
   id="path3274" /><path
   id="path3275"
   d="M 105.11466,73.073685 A 11.271331,11.397975 0 0 1 93.84333,84.47166 11.271331,11.397975 0 0 1 82.572,73.073685 11.271331,11.397975 0 0 1 93.84333,61.67571 11.271331,11.397975 0 0 1 105.11466,73.073685 Z"
   style="display:inline;fill:#ffffff;fill-opacity:1;stroke:#ffffff;stroke-opacity:1"
   transform="translate(0.97394562,0.09947205)" /><g
   id="text3224"
   style="font-style:normal;font-variant:normal;font-weight:normal;font-stretch:normal;line-height:0%;font-family:Lato, Arial, Helvetica, sans-serif;-inkscape-font-specification:Lato;text-align:start;letter-spacing:0px;word-spacing:0px;writing-mode:lr-tb;text-anchor:start;fill:#000000;fill-opacity:1;stroke:#ffffff;stroke-opacity:1"
   aria-label=" "><path
     id="path392"
     style="font-size:24px;line-height:1.25"
     d="m 82.751686,83.626282 v -8.121094 q 0,-2.707031 1.054688,-4.347656 0.714843,-1.195313 2.484375,-2.25 0.691406,-0.410157 2.824218,-0.410157 2.390625,0 3.878907,1.898438 1.5,1.898437 1.5,4.992187 0,3.09375 -1.5,4.992188 -1.488282,1.898437 -3.878907,1.898437 -1.441406,0 -2.472656,-0.574218 -1.042969,-0.5625 -1.722656,-1.734375 v 3.65625 h 5.683594 v 1.992187 h -5.683594 v 1.3125 h -2.167969 v -1.3125 h -1.183594 v -1.992187 z m 8.53125,-4.5 q 0.972656,-1.359375 0.972656,-3.738282 0,-2.378906 -0.972656,-3.738281 -0.984375,-1.347656 -2.695312,-1.347656 -1.710938,0 -2.695313,1.347656 -0.972656,1.359375 -0.972656,3.738281 0,2.378907 0.972656,3.738282 0.984375,1.347656 2.695313,1.347656 1.710937,0 2.695312,-1.347656 z" /></g>
</g></g></svg>