<?xml version="1.0" encoding="UTF-8" standalone="no"?>
<!-- Created with Inkscape (http://www.inkscape.org/) -->

<svg
   xmlns:dc="http://purl.org/dc/elements/1.1/"
   xmlns:cc="http://creativecommons.org/ns#"
   xmlns:rdf="http://www.w3.org/1999/02/22-rdf-syntax-ns#"
   xmlns:svg="http://www.w3.org/2000/svg"
   xmlns="http://www.w3.org/2000/svg"
   xmlns:sodipodi="http://sodipodi.sourceforge.net/DTD/sodipodi-0.dtd"
   xmlns:inkscape="http://www.inkscape.org/namespaces/inkscape"
   id="svg4174"
   version="1.1"
   inkscape:version="0.91 r13725"
   xml:space="preserve"
   width="230.68974"
   height="137.9805"
   viewBox="0 0 230.68974 137.9805"
   sodipodi:docname="codon.svg"><metadata
     id="metadata4180"><rdf:RDF><cc:Work
         rdf:about=""><dc:format>image/svg+xml</dc:format><dc:type
           rdf:resource="http://purl.org/dc/dcmitype/StillImage" /><dc:title></dc:title></cc:Work></rdf:RDF></metadata><defs
     id="defs4178"><clipPath
       clipPathUnits="userSpaceOnUse"
       id="clipPath4198"><path
         d="m 559.84,1276.97 2508.7,0 0,1030.21 -2508.7,0 0,-1030.21 z"
         id="path4200"
         inkscape:connector-curvature="0" /></clipPath><clipPath
       clipPathUnits="userSpaceOnUse"
       id="clipPath4204"><path
         d="m 559.84,1276.97 2508.7,0 0,1030.21 -2508.7,0 0,-1030.21 z"
         id="path4206"
         inkscape:connector-curvature="0" /></clipPath><clipPath
       clipPathUnits="userSpaceOnUse"
       id="clipPath4208"><path
         d="m 559.84,1276.97 2508.7,0 0,1030.21 -2508.7,0 0,-1030.21 z"
         id="path4210"
         inkscape:connector-curvature="0" /></clipPath><clipPath
       clipPathUnits="userSpaceOnUse"
       id="clipPath4212"><path
         d="m 1512.55,1780.8 652.547,0 0,26.1016 -652.547,0 0,-26.1016 z"
         id="path4214"
         inkscape:connector-curvature="0" /></clipPath><clipPath
       clipPathUnits="userSpaceOnUse"
       id="clipPath4216"><path
         d="m 1512.56,1780.8 652.54,0 0,26.1 -652.54,0 0,-26.1 z"
         id="path4218"
         inkscape:connector-curvature="0" /></clipPath><clipPath
       clipPathUnits="userSpaceOnUse"
       id="clipPath4220"><path
         d="m 559.84,1276.97 2508.7,0 0,1030.21 -2508.7,0 0,-1030.21 z"
         id="path4222"
         inkscape:connector-curvature="0" /></clipPath><mask
       maskUnits="userSpaceOnUse"
       x="0"
       y="0"
       width="1"
       height="1"
       id="mask4224"><g
         id="g4226"><g
           clip-path="url(#clipPath4216)"
           id="g4228"><g
             id="g4230"><g
               clip-path="url(#clipPath4220)"
               id="g4232"><path
                 d="m 1512.55,1780.8 652.547,0 0,26.1016 -652.547,0 0,-26.1016 z"
                 style="fill:#000000;fill-opacity:0.5;fill-rule:nonzero;stroke:none"
                 id="path4234"
                 inkscape:connector-curvature="0" /></g></g></g></g></mask><clipPath
       clipPathUnits="userSpaceOnUse"
       id="clipPath4236"><path
         d="m 1512.56,1780.8 652.54,0 0,26.1 -652.54,0 0,-26.1 z"
         id="path4238"
         inkscape:connector-curvature="0" /></clipPath><clipPath
       clipPathUnits="userSpaceOnUse"
       id="clipPath4240"><path
         d="m 1512.55,1780.8 652.547,0 0,26.1016 -652.547,0 0,-26.1016 z"
         id="path4242"
         inkscape:connector-curvature="0" /></clipPath><clipPath
       clipPathUnits="userSpaceOnUse"
       id="clipPath4244"><path
         d="m 559.84,1276.97 2508.7,0 0,1030.21 -2508.7,0 0,-1030.21 z"
         id="path4246"
         inkscape:connector-curvature="0" /></clipPath><clipPath
       clipPathUnits="userSpaceOnUse"
       id="clipPath4248"><path
         d="m 816.508,1458.88 704.75,0 0,352.371 -704.75,0 0,-352.371 z"
         id="path4250"
         inkscape:connector-curvature="0" /></clipPath><clipPath
       clipPathUnits="userSpaceOnUse"
       id="clipPath4252"><path
         d="m 816.508,1458.87 704.752,0 0,352.38 -704.752,0 0,-352.38 z"
         id="path4254"
         inkscape:connector-curvature="0" /></clipPath><clipPath
       clipPathUnits="userSpaceOnUse"
       id="clipPath4256"><path
         d="m 559.84,1276.97 2508.7,0 0,1030.21 -2508.7,0 0,-1030.21 z"
         id="path4258"
         inkscape:connector-curvature="0" /></clipPath><mask
       maskUnits="userSpaceOnUse"
       x="0"
       y="0"
       width="1"
       height="1"
       id="mask4260"><g
         id="g4262"><g
           clip-path="url(#clipPath4252)"
           id="g4264"><g
             id="g4266"><g
               clip-path="url(#clipPath4256)"
               id="g4268"><path
                 d="m 816.508,1458.88 704.75,0 0,352.371 -704.75,0 0,-352.371 z"
                 style="fill:#000000;fill-opacity:0.5;fill-rule:nonzero;stroke:none"
                 id="path4270"
                 inkscape:connector-curvature="0" /></g></g></g></g></mask><clipPath
       clipPathUnits="userSpaceOnUse"
       id="clipPath4272"><path
         d="m 816.508,1458.87 704.752,0 0,352.38 -704.752,0 0,-352.38 z"
         id="path4274"
         inkscape:connector-curvature="0" /></clipPath><clipPath
       clipPathUnits="userSpaceOnUse"
       id="clipPath4276"><path
         d="m 816.508,1458.88 704.75,0 0,352.371 -704.75,0 0,-352.371 z"
         id="path4278"
         inkscape:connector-curvature="0" /></clipPath><clipPath
       clipPathUnits="userSpaceOnUse"
       id="clipPath4280"><path
         d="m 559.84,1276.97 2508.7,0 0,1030.21 -2508.7,0 0,-1030.21 z"
         id="path4282"
         inkscape:connector-curvature="0" /></clipPath><clipPath
       clipPathUnits="userSpaceOnUse"
       id="clipPath4284"><path
         d="m 816.508,1785.14 704.75,0 0,352.375 -704.75,0 0,-352.375 z"
         id="path4286"
         inkscape:connector-curvature="0" /></clipPath><clipPath
       clipPathUnits="userSpaceOnUse"
       id="clipPath4288"><path
         d="m 816.508,1785.15 704.752,0 0,352.37 -704.752,0 0,-352.37 z"
         id="path4290"
         inkscape:connector-curvature="0" /></clipPath><clipPath
       clipPathUnits="userSpaceOnUse"
       id="clipPath4292"><path
         d="m 559.84,1276.97 2508.7,0 0,1030.21 -2508.7,0 0,-1030.21 z"
         id="path4294"
         inkscape:connector-curvature="0" /></clipPath><mask
       maskUnits="userSpaceOnUse"
       x="0"
       y="0"
       width="1"
       height="1"
       id="mask4296"><g
         id="g4298"><g
           clip-path="url(#clipPath4288)"
           id="g4300"><g
             id="g4302"><g
               clip-path="url(#clipPath4292)"
               id="g4304"><path
                 d="m 816.508,1785.14 704.75,0 0,352.375 -704.75,0 0,-352.375 z"
                 style="fill:#000000;fill-opacity:0.5;fill-rule:nonzero;stroke:none"
                 id="path4306"
                 inkscape:connector-curvature="0" /></g></g></g></g></mask><clipPath
       clipPathUnits="userSpaceOnUse"
       id="clipPath4308"><path
         d="m 816.508,1785.15 704.752,0 0,352.37 -704.752,0 0,-352.37 z"
         id="path4310"
         inkscape:connector-curvature="0" /></clipPath><clipPath
       clipPathUnits="userSpaceOnUse"
       id="clipPath4312"><path
         d="m 816.508,1785.14 704.75,0 0,352.375 -704.75,0 0,-352.375 z"
         id="path4314"
         inkscape:connector-curvature="0" /></clipPath><clipPath
       clipPathUnits="userSpaceOnUse"
       id="clipPath4316"><path
         d="m 559.84,1276.97 2508.7,0 0,1030.21 -2508.7,0 0,-1030.21 z"
         id="path4318"
         inkscape:connector-curvature="0" /></clipPath><clipPath
       clipPathUnits="userSpaceOnUse"
       id="clipPath4320"><path
         d="m 1484.51,1767.65 56.64,0 0,56.65 -56.64,0 0,-56.65 z"
         id="path4322"
         inkscape:connector-curvature="0" /></clipPath><clipPath
       clipPathUnits="userSpaceOnUse"
       id="clipPath4324"><path
         d="m 559.84,1276.97 2508.7,0 0,1030.21 -2508.7,0 0,-1030.21 z"
         id="path4326"
         inkscape:connector-curvature="0" /></clipPath><clipPath
       clipPathUnits="userSpaceOnUse"
       id="clipPath4328"><path
         d="m 810.518,2090.64 56.635,0 0,56.65 -56.635,0 0,-56.65 z"
         id="path4330"
         inkscape:connector-curvature="0" /></clipPath><clipPath
       clipPathUnits="userSpaceOnUse"
       id="clipPath4332"><path
         d="m 559.84,1276.97 2508.7,0 0,1030.21 -2508.7,0 0,-1030.21 z"
         id="path4334"
         inkscape:connector-curvature="0" /></clipPath><clipPath
       clipPathUnits="userSpaceOnUse"
       id="clipPath4336"><path
         d="m 812.167,1449.6 56.635,0 0,56.65 -56.635,0 0,-56.65 z"
         id="path4338"
         inkscape:connector-curvature="0" /></clipPath><clipPath
       clipPathUnits="userSpaceOnUse"
       id="clipPath4340"><path
         d="m 559.84,1276.97 2508.7,0 0,1030.21 -2508.7,0 0,-1030.21 z"
         id="path4342"
         inkscape:connector-curvature="0" /></clipPath><clipPath
       clipPathUnits="userSpaceOnUse"
       id="clipPath4344"><path
         d="m 2160.75,1458.88 709.102,0 0,348.023 -709.102,0 0,-348.023 z"
         id="path4346"
         inkscape:connector-curvature="0" /></clipPath><clipPath
       clipPathUnits="userSpaceOnUse"
       id="clipPath4348"><path
         d="m 2160.75,1458.87 709.1,0 0,348.03 -709.1,0 0,-348.03 z"
         id="path4350"
         inkscape:connector-curvature="0" /></clipPath><clipPath
       clipPathUnits="userSpaceOnUse"
       id="clipPath4352"><path
         d="m 559.84,1276.97 2508.7,0 0,1030.21 -2508.7,0 0,-1030.21 z"
         id="path4354"
         inkscape:connector-curvature="0" /></clipPath><mask
       maskUnits="userSpaceOnUse"
       x="0"
       y="0"
       width="1"
       height="1"
       id="mask4356"><g
         id="g4358"><g
           clip-path="url(#clipPath4348)"
           id="g4360"><g
             id="g4362"><g
               clip-path="url(#clipPath4352)"
               id="g4364"><path
                 d="m 2160.75,1458.88 709.098,0 0,348.023 -709.098,0 0,-348.023 z"
                 style="fill:#000000;fill-opacity:0.5;fill-rule:nonzero;stroke:none"
                 id="path4366"
                 inkscape:connector-curvature="0" /></g></g></g></g></mask><clipPath
       clipPathUnits="userSpaceOnUse"
       id="clipPath4368"><path
         d="m 2160.75,1458.87 709.1,0 0,348.03 -709.1,0 0,-348.03 z"
         id="path4370"
         inkscape:connector-curvature="0" /></clipPath><clipPath
       clipPathUnits="userSpaceOnUse"
       id="clipPath4372"><path
         d="m 2160.75,1458.88 709.102,0 0,348.023 -709.102,0 0,-348.023 z"
         id="path4374"
         inkscape:connector-curvature="0" /></clipPath><clipPath
       clipPathUnits="userSpaceOnUse"
       id="clipPath4376"><path
         d="m 559.84,1276.97 2508.7,0 0,1030.21 -2508.7,0 0,-1030.21 z"
         id="path4378"
         inkscape:connector-curvature="0" /></clipPath><clipPath
       clipPathUnits="userSpaceOnUse"
       id="clipPath4380"><path
         d="m 2160.75,1785.14 709.102,0 0,348.023 -709.102,0 0,-348.023 z"
         id="path4382"
         inkscape:connector-curvature="0" /></clipPath><clipPath
       clipPathUnits="userSpaceOnUse"
       id="clipPath4384"><path
         d="m 2160.75,1785.15 709.1,0 0,348.02 -709.1,0 0,-348.02 z"
         id="path4386"
         inkscape:connector-curvature="0" /></clipPath><clipPath
       clipPathUnits="userSpaceOnUse"
       id="clipPath4388"><path
         d="m 559.84,1276.97 2508.7,0 0,1030.21 -2508.7,0 0,-1030.21 z"
         id="path4390"
         inkscape:connector-curvature="0" /></clipPath><mask
       maskUnits="userSpaceOnUse"
       x="0"
       y="0"
       width="1"
       height="1"
       id="mask4392"><g
         id="g4394"><g
           clip-path="url(#clipPath4384)"
           id="g4396"><g
             id="g4398"><g
               clip-path="url(#clipPath4388)"
               id="g4400"><path
                 d="m 2160.75,1785.14 709.098,0 0,348.023 -709.098,0 0,-348.023 z"
                 style="fill:#000000;fill-opacity:0.5;fill-rule:nonzero;stroke:none"
                 id="path4402"
                 inkscape:connector-curvature="0" /></g></g></g></g></mask><clipPath
       clipPathUnits="userSpaceOnUse"
       id="clipPath4404"><path
         d="m 2160.75,1785.15 709.1,0 0,348.02 -709.1,0 0,-348.02 z"
         id="path4406"
         inkscape:connector-curvature="0" /></clipPath><clipPath
       clipPathUnits="userSpaceOnUse"
       id="clipPath4408"><path
         d="m 2160.75,1785.14 709.102,0 0,348.023 -709.102,0 0,-348.023 z"
         id="path4410"
         inkscape:connector-curvature="0" /></clipPath><clipPath
       clipPathUnits="userSpaceOnUse"
       id="clipPath4412"><path
         d="m 559.84,1276.97 2508.7,0 0,1030.21 -2508.7,0 0,-1030.21 z"
         id="path4414"
         inkscape:connector-curvature="0" /></clipPath><clipPath
       clipPathUnits="userSpaceOnUse"
       id="clipPath4416"><path
         d="m 2141.91,1764.77 56.64,0 0,56.63 -56.64,0 0,-56.63 z"
         id="path4418"
         inkscape:connector-curvature="0" /></clipPath><clipPath
       clipPathUnits="userSpaceOnUse"
       id="clipPath4420"><path
         d="m 559.84,1276.97 2508.7,0 0,1030.21 -2508.7,0 0,-1030.21 z"
         id="path4422"
         inkscape:connector-curvature="0" /></clipPath><clipPath
       clipPathUnits="userSpaceOnUse"
       id="clipPath4424"><path
         d="m 2815.91,2087.76 56.64,0 0,56.63 -56.64,0 0,-56.63 z"
         id="path4426"
         inkscape:connector-curvature="0" /></clipPath><clipPath
       clipPathUnits="userSpaceOnUse"
       id="clipPath4428"><path
         d="m 559.84,1276.97 2508.7,0 0,1030.21 -2508.7,0 0,-1030.21 z"
         id="path4430"
         inkscape:connector-curvature="0" /></clipPath><clipPath
       clipPathUnits="userSpaceOnUse"
       id="clipPath4432"><path
         d="m 2814.26,1446.71 56.64,0 0,56.63 -56.64,0 0,-56.63 z"
         id="path4434"
         inkscape:connector-curvature="0" /></clipPath><clipPath
       clipPathUnits="userSpaceOnUse"
       id="clipPath4436"><path
         d="m 559.84,1276.97 2508.7,0 0,1030.21 -2508.7,0 0,-1030.21 z"
         id="path4438"
         inkscape:connector-curvature="0" /></clipPath><clipPath
       clipPathUnits="userSpaceOnUse"
       id="clipPath4892"><path
         d="m 1346.19,629.051 935.973,0 0,518.395 -935.973,0 0,-518.395 z"
         id="path4894"
         inkscape:connector-curvature="0" /></clipPath><clipPath
       clipPathUnits="userSpaceOnUse"
       id="clipPath4898"><path
         d="m 1346.19,629.05 935.97,0 0,518.4 -935.97,0 0,-518.4 z"
         id="path4900"
         inkscape:connector-curvature="0" /></clipPath><clipPath
       clipPathUnits="userSpaceOnUse"
       id="clipPath4902"><path
         d="m 1346.19,629.051 935.973,0 0,518.395 -935.973,0 0,-518.395 z"
         id="path4904"
         inkscape:connector-curvature="0" /></clipPath></defs><sodipodi:namedview
     pagecolor="#ffffff"
     bordercolor="#666666"
     borderopacity="1"
     objecttolerance="10"
     gridtolerance="10"
     guidetolerance="10"
     inkscape:pageopacity="0"
     inkscape:pageshadow="2"
     inkscape:window-width="1920"
     inkscape:window-height="1167"
     id="namedview4176"
     showgrid="false"
     inkscape:zoom="4.8436223"
     inkscape:cx="113.18824"
     inkscape:cy="41.656515"
     inkscape:window-x="0"
     inkscape:window-y="0"
     inkscape:window-maximized="0"
     inkscape:current-layer="layer1"
     fit-margin-top="1"
     fit-margin-left="1"
     fit-margin-right="1"
     fit-margin-bottom="1" /><g
     id="g4182"
     inkscape:groupmode="layer"
     inkscape:label="base"
     transform="matrix(1.25,0,0,-1.25,-102.67419,279.41242)"><text
       transform="matrix(0.8,0,0,-0.8,0,272.13)"
       xml:space="preserve"
       style="display:inline;font-style:normal;font-variant:normal;font-weight:normal;font-stretch:normal;font-size:17.5px;line-height:125%;font-family:Lato;-inkscape-font-specification:'Lato, Normal';text-align:start;letter-spacing:0px;word-spacing:0px;writing-mode:lr-tb;text-anchor:start;fill:#000000;fill-opacity:1;stroke:none;stroke-width:1px;stroke-linecap:butt;stroke-linejoin:miter;stroke-opacity:1"
       x="120.88789"
       y="92.413223"
       id="text4536"
       sodipodi:linespacing="125%"><tspan
         sodipodi:role="line"
         id="tspan4538"
         x="120.88789"
         y="92.413223"
         style="font-style:normal;font-variant:normal;font-weight:normal;font-stretch:normal;font-family:monospace;-inkscape-font-specification:monospace">Seq1: CGAGCAGGTAAA</tspan><tspan
         sodipodi:role="line"
         x="120.88789"
         y="114.28822"
         style="font-style:normal;font-variant:normal;font-weight:normal;font-stretch:normal;font-family:monospace;-inkscape-font-specification:monospace"
         id="tspan4542">Seq2: CGAGC-G--AAA</tspan></text>
</g><g
     inkscape:groupmode="layer"
     id="layer1"
     inkscape:label="base 1"
     style="display:inline"><text
       transform="translate(-102.67419,-60.75008)"
       sodipodi:linespacing="125%"
       id="text4546"
       y="172.18127"
       x="111.59733"
       style="font-style:normal;font-variant:normal;font-weight:normal;font-stretch:normal;font-size:17.5px;line-height:125%;font-family:Lato;-inkscape-font-specification:'Lato, Normal';text-align:start;letter-spacing:0px;word-spacing:0px;writing-mode:lr-tb;text-anchor:start;display:inline;fill:#000000;fill-opacity:1;stroke:none;stroke-width:1px;stroke-linecap:butt;stroke-linejoin:miter;stroke-opacity:1"
       xml:space="preserve"><tspan
         style="font-style:normal;font-variant:normal;font-weight:normal;font-stretch:normal;font-family:monospace;-inkscape-font-specification:monospace"
         y="172.18127"
         x="111.59733"
         id="tspan4548"
         sodipodi:role="line">Seq1: CGA GCA GGT AAA</tspan><tspan
         id="tspan4550"
         style="font-style:normal;font-variant:normal;font-weight:normal;font-stretch:normal;font-family:monospace;-inkscape-font-specification:monospace"
         y="194.05627"
         x="111.59733"
         sodipodi:role="line">Seq2: CGA GCG --- AAA</tspan></text>
<text
       transform="translate(-102.67419,-60.75008)"
       sodipodi:linespacing="125%"
       id="text4556"
       y="150.01253"
       x="103.26169"
       style="font-style:normal;font-variant:normal;font-weight:normal;font-stretch:normal;font-size:17.5px;line-height:125%;font-family:Lato;-inkscape-font-specification:'Lato, Normal';text-align:start;letter-spacing:0px;word-spacing:0px;writing-mode:lr-tb;text-anchor:start;display:inline;fill:#000000;fill-opacity:1;stroke:none;stroke-width:1px;stroke-linecap:butt;stroke-linejoin:miter;stroke-opacity:1"
       xml:space="preserve"><tspan
         style="font-style:italic;font-size:15px;fill:#666666"
         y="150.01253"
         x="103.26169"
         id="tspan4558"
         sodipodi:role="line">respects codons</tspan></text>
<text
       transform="translate(-102.67419,-60.75008)"
       xml:space="preserve"
       style="font-style:normal;font-variant:normal;font-weight:normal;font-stretch:normal;font-size:17.5px;line-height:125%;font-family:Lato;-inkscape-font-specification:'Lato, Normal';text-align:start;letter-spacing:0px;word-spacing:0px;writing-mode:lr-tb;text-anchor:start;display:inline;fill:#000000;fill-opacity:1;stroke:none;stroke-width:1px;stroke-linecap:butt;stroke-linejoin:miter;stroke-opacity:1"
       x="103.26169"
       y="72.797585"
       id="text4552"
       sodipodi:linespacing="125%"><tspan
         sodipodi:role="line"
         id="tspan4554"
         x="103.26169"
         y="72.797585"
         style="font-style:italic;font-size:15px;fill:#666666">doesn't respect codons</tspan></text>
</g></svg>