<?xml version="1.0" encoding="UTF-8" standalone="no"?>
<svg
   xmlns:dc="http://purl.org/dc/elements/1.1/"
   xmlns:cc="http://creativecommons.org/ns#"
   xmlns:rdf="http://www.w3.org/1999/02/22-rdf-syntax-ns#"
   xmlns:svg="http://www.w3.org/2000/svg"
   xmlns="http://www.w3.org/2000/svg"
   viewBox="0 0 230.68974 137.9805"
   height="137.9805"
   width="230.68974"
   xml:space="preserve"
   version="1.1"
   id="svg4174"><metadata
     id="metadata4180"><rdf:RDF><cc:Work
         rdf:about=""><dc:format>image/svg+xml</dc:format><dc:type
           rdf:resource="http://purl.org/dc/dcmitype/StillImage" /><dc:title /></cc:Work></rdf:RDF></metadata><defs
     id="defs4178"><clipPath
       id="clipPath4198"
       clipPathUnits="userSpaceOnUse"><path
         id="path4200"
         d="m 559.84,1276.97 2508.7,0 0,1030.21 -2508.7,0 0,-1030.21 z" /></clipPath><clipPath
       id="clipPath4204"
       clipPathUnits="userSpaceOnUse"><path
         id="path4206"
         d="m 559.84,1276.97 2508.7,0 0,1030.21 -2508.7,0 0,-1030.21 z" /></clipPath><clipPath
       id="clipPath4208"
       clipPathUnits="userSpaceOnUse"><path
         id="path4210"
         d="m 559.84,1276.97 2508.7,0 0,1030.21 -2508.7,0 0,-1030.21 z" /></clipPath><clipPath
       id="clipPath4212"
       clipPathUnits="userSpaceOnUse"><path
         id="path4214"
         d="m 1512.55,1780.8 652.547,0 0,26.1016 -652.547,0 0,-26.1016 z" /></clipPath><clipPath
       id="clipPath4216"
       clipPathUnits="userSpaceOnUse"><path
         id="path4218"
         d="m 1512.56,1780.8 652.54,0 0,26.1 -652.54,0 0,-26.1 z" /></clipPath><clipPath
       id="clipPath4220"
       clipPathUnits="userSpaceOnUse"><path
         id="path4222"
         d="m 559.84,1276.97 2508.7,0 0,1030.21 -2508.7,0 0,-1030.21 z" /></clipPath><mask
       id="mask4224"
       height="1"
       width="1"
       y="0"
       x="0"
       maskUnits="userSpaceOnUse"><g
         id="g4226"><g
           id="g4228"
           clip-path="url(#clipPath4216)"><g
             id="g4230"><g
               id="g4232"
               clip-path="url(#clipPath4220)"><path
                 id="path4234"
                 style="fill:#000000;fill-opacity:0.5;fill-rule:nonzero;stroke:none"
                 d="m 1512.55,1780.8 652.547,0 0,26.1016 -652.547,0 0,-26.1016 z" /></g></g></g></g></mask><clipPath
       id="clipPath4236"
       clipPathUnits="userSpaceOnUse"><path
         id="path4238"
         d="m 1512.56,1780.8 652.54,0 0,26.1 -652.54,0 0,-26.1 z" /></clipPath><clipPath
       id="clipPath4240"
       clipPathUnits="userSpaceOnUse"><path
         id="path4242"
         d="m 1512.55,1780.8 652.547,0 0,26.1016 -652.547,0 0,-26.1016 z" /></clipPath><clipPath
       id="clipPath4244"
       clipPathUnits="userSpaceOnUse"><path
         id="path4246"
         d="m 559.84,1276.97 2508.7,0 0,1030.21 -2508.7,0 0,-1030.21 z" /></clipPath><clipPath
       id="clipPath4248"
       clipPathUnits="userSpaceOnUse"><path
         id="path4250"
         d="m 816.508,1458.88 704.75,0 0,352.371 -704.75,0 0,-352.371 z" /></clipPath><clipPath
       id="clipPath4252"
       clipPathUnits="userSpaceOnUse"><path
         id="path4254"
         d="m 816.508,1458.87 704.752,0 0,352.38 -704.752,0 0,-352.38 z" /></clipPath><clipPath
       id="clipPath4256"
       clipPathUnits="userSpaceOnUse"><path
         id="path4258"
         d="m 559.84,1276.97 2508.7,0 0,1030.21 -2508.7,0 0,-1030.21 z" /></clipPath><mask
       id="mask4260"
       height="1"
       width="1"
       y="0"
       x="0"
       maskUnits="userSpaceOnUse"><g
         id="g4262"><g
           id="g4264"
           clip-path="url(#clipPath4252)"><g
             id="g4266"><g
               id="g4268"
               clip-path="url(#clipPath4256)"><path
                 id="path4270"
                 style="fill:#000000;fill-opacity:0.5;fill-rule:nonzero;stroke:none"
                 d="m 816.508,1458.88 704.75,0 0,352.371 -704.75,0 0,-352.371 z" /></g></g></g></g></mask><clipPath
       id="clipPath4272"
       clipPathUnits="userSpaceOnUse"><path
         id="path4274"
         d="m 816.508,1458.87 704.752,0 0,352.38 -704.752,0 0,-352.38 z" /></clipPath><clipPath
       id="clipPath4276"
       clipPathUnits="userSpaceOnUse"><path
         id="path4278"
         d="m 816.508,1458.88 704.75,0 0,352.371 -704.75,0 0,-352.371 z" /></clipPath><clipPath
       id="clipPath4280"
       clipPathUnits="userSpaceOnUse"><path
         id="path4282"
         d="m 559.84,1276.97 2508.7,0 0,1030.21 -2508.7,0 0,-1030.21 z" /></clipPath><clipPath
       id="clipPath4284"
       clipPathUnits="userSpaceOnUse"><path
         id="path4286"
         d="m 816.508,1785.14 704.75,0 0,352.375 -704.75,0 0,-352.375 z" /></clipPath><clipPath
       id="clipPath4288"
       clipPathUnits="userSpaceOnUse"><path
         id="path4290"
         d="m 816.508,1785.15 704.752,0 0,352.37 -704.752,0 0,-352.37 z" /></clipPath><clipPath
       id="clipPath4292"
       clipPathUnits="userSpaceOnUse"><path
         id="path4294"
         d="m 559.84,1276.97 2508.7,0 0,1030.21 -2508.7,0 0,-1030.21 z" /></clipPath><mask
       id="mask4296"
       height="1"
       width="1"
       y="0"
       x="0"
       maskUnits="userSpaceOnUse"><g
         id="g4298"><g
           id="g4300"
           clip-path="url(#clipPath4288)"><g
             id="g4302"><g
               id="g4304"
               clip-path="url(#clipPath4292)"><path
                 id="path4306"
                 style="fill:#000000;fill-opacity:0.5;fill-rule:nonzero;stroke:none"
                 d="m 816.508,1785.14 704.75,0 0,352.375 -704.75,0 0,-352.375 z" /></g></g></g></g></mask><clipPath
       id="clipPath4308"
       clipPathUnits="userSpaceOnUse"><path
         id="path4310"
         d="m 816.508,1785.15 704.752,0 0,352.37 -704.752,0 0,-352.37 z" /></clipPath><clipPath
       id="clipPath4312"
       clipPathUnits="userSpaceOnUse"><path
         id="path4314"
         d="m 816.508,1785.14 704.75,0 0,352.375 -704.75,0 0,-352.375 z" /></clipPath><clipPath
       id="clipPath4316"
       clipPathUnits="userSpaceOnUse"><path
         id="path4318"
         d="m 559.84,1276.97 2508.7,0 0,1030.21 -2508.7,0 0,-1030.21 z" /></clipPath><clipPath
       id="clipPath4320"
       clipPathUnits="userSpaceOnUse"><path
         id="path4322"
         d="m 1484.51,1767.65 56.64,0 0,56.65 -56.64,0 0,-56.65 z" /></clipPath><clipPath
       id="clipPath4324"
       clipPathUnits="userSpaceOnUse"><path
         id="path4326"
         d="m 559.84,1276.97 2508.7,0 0,1030.21 -2508.7,0 0,-1030.21 z" /></clipPath><clipPath
       id="clipPath4328"
       clipPathUnits="userSpaceOnUse"><path
         id="path4330"
         d="m 810.518,2090.64 56.635,0 0,56.65 -56.635,0 0,-56.65 z" /></clipPath><clipPath
       id="clipPath4332"
       clipPathUnits="userSpaceOnUse"><path
         id="path4334"
         d="m 559.84,1276.97 2508.7,0 0,1030.21 -2508.7,0 0,-1030.21 z" /></clipPath><clipPath
       id="clipPath4336"
       clipPathUnits="userSpaceOnUse"><path
         id="path4338"
         d="m 812.167,1449.6 56.635,0 0,56.65 -56.635,0 0,-56.65 z" /></clipPath><clipPath
       id="clipPath4340"
       clipPathUnits="userSpaceOnUse"><path
         id="path4342"
         d="m 559.84,1276.97 2508.7,0 0,1030.21 -2508.7,0 0,-1030.21 z" /></clipPath><clipPath
       id="clipPath4344"
       clipPathUnits="userSpaceOnUse"><path
         id="path4346"
         d="m 2160.75,1458.88 709.102,0 0,348.023 -709.102,0 0,-348.023 z" /></clipPath><clipPath
       id="clipPath4348"
       clipPathUnits="userSpaceOnUse"><path
         id="path4350"
         d="m 2160.75,1458.87 709.1,0 0,348.03 -709.1,0 0,-348.03 z" /></clipPath><clipPath
       id="clipPath4352"
       clipPathUnits="userSpaceOnUse"><path
         id="path4354"
         d="m 559.84,1276.97 2508.7,0 0,1030.21 -2508.7,0 0,-1030.21 z" /></clipPath><mask
       id="mask4356"
       height="1"
       width="1"
       y="0"
       x="0"
       maskUnits="userSpaceOnUse"><g
         id="g4358"><g
           id="g4360"
           clip-path="url(#clipPath4348)"><g
             id="g4362"><g
               id="g4364"
               clip-path="url(#clipPath4352)"><path
                 id="path4366"
                 style="fill:#000000;fill-opacity:0.5;fill-rule:nonzero;stroke:none"
                 d="m 2160.75,1458.88 709.098,0 0,348.023 -709.098,0 0,-348.023 z" /></g></g></g></g></mask><clipPath
       id="clipPath4368"
       clipPathUnits="userSpaceOnUse"><path
         id="path4370"
         d="m 2160.75,1458.87 709.1,0 0,348.03 -709.1,0 0,-348.03 z" /></clipPath><clipPath
       id="clipPath4372"
       clipPathUnits="userSpaceOnUse"><path
         id="path4374"
         d="m 2160.75,1458.88 709.102,0 0,348.023 -709.102,0 0,-348.023 z" /></clipPath><clipPath
       id="clipPath4376"
       clipPathUnits="userSpaceOnUse"><path
         id="path4378"
         d="m 559.84,1276.97 2508.7,0 0,1030.21 -2508.7,0 0,-1030.21 z" /></clipPath><clipPath
       id="clipPath4380"
       clipPathUnits="userSpaceOnUse"><path
         id="path4382"
         d="m 2160.75,1785.14 709.102,0 0,348.023 -709.102,0 0,-348.023 z" /></clipPath><clipPath
       id="clipPath4384"
       clipPathUnits="userSpaceOnUse"><path
         id="path4386"
         d="m 2160.75,1785.15 709.1,0 0,348.02 -709.1,0 0,-348.02 z" /></clipPath><clipPath
       id="clipPath4388"
       clipPathUnits="userSpaceOnUse"><path
         id="path4390"
         d="m 559.84,1276.97 2508.7,0 0,1030.21 -2508.7,0 0,-1030.21 z" /></clipPath><mask
       id="mask4392"
       height="1"
       width="1"
       y="0"
       x="0"
       maskUnits="userSpaceOnUse"><g
         id="g4394"><g
           id="g4396"
           clip-path="url(#clipPath4384)"><g
             id="g4398"><g
               id="g4400"
               clip-path="url(#clipPath4388)"><path
                 id="path4402"
                 style="fill:#000000;fill-opacity:0.5;fill-rule:nonzero;stroke:none"
                 d="m 2160.75,1785.14 709.098,0 0,348.023 -709.098,0 0,-348.023 z" /></g></g></g></g></mask><clipPath
       id="clipPath4404"
       clipPathUnits="userSpaceOnUse"><path
         id="path4406"
         d="m 2160.75,1785.15 709.1,0 0,348.02 -709.1,0 0,-348.02 z" /></clipPath><clipPath
       id="clipPath4408"
       clipPathUnits="userSpaceOnUse"><path
         id="path4410"
         d="m 2160.75,1785.14 709.102,0 0,348.023 -709.102,0 0,-348.023 z" /></clipPath><clipPath
       id="clipPath4412"
       clipPathUnits="userSpaceOnUse"><path
         id="path4414"
         d="m 559.84,1276.97 2508.7,0 0,1030.21 -2508.7,0 0,-1030.21 z" /></clipPath><clipPath
       id="clipPath4416"
       clipPathUnits="userSpaceOnUse"><path
         id="path4418"
         d="m 2141.91,1764.77 56.64,0 0,56.63 -56.64,0 0,-56.63 z" /></clipPath><clipPath
       id="clipPath4420"
       clipPathUnits="userSpaceOnUse"><path
         id="path4422"
         d="m 559.84,1276.97 2508.7,0 0,1030.21 -2508.7,0 0,-1030.21 z" /></clipPath><clipPath
       id="clipPath4424"
       clipPathUnits="userSpaceOnUse"><path
         id="path4426"
         d="m 2815.91,2087.76 56.64,0 0,56.63 -56.64,0 0,-56.63 z" /></clipPath><clipPath
       id="clipPath4428"
       clipPathUnits="userSpaceOnUse"><path
         id="path4430"
         d="m 559.84,1276.97 2508.7,0 0,1030.21 -2508.7,0 0,-1030.21 z" /></clipPath><clipPath
       id="clipPath4432"
       clipPathUnits="userSpaceOnUse"><path
         id="path4434"
         d="m 2814.26,1446.71 56.64,0 0,56.63 -56.64,0 0,-56.63 z" /></clipPath><clipPath
       id="clipPath4436"
       clipPathUnits="userSpaceOnUse"><path
         id="path4438"
         d="m 559.84,1276.97 2508.7,0 0,1030.21 -2508.7,0 0,-1030.21 z" /></clipPath><clipPath
       id="clipPath4892"
       clipPathUnits="userSpaceOnUse"><path
         id="path4894"
         d="m 1346.19,629.051 935.973,0 0,518.395 -935.973,0 0,-518.395 z" /></clipPath><clipPath
       id="clipPath4898"
       clipPathUnits="userSpaceOnUse"><path
         id="path4900"
         d="m 1346.19,629.05 935.97,0 0,518.4 -935.97,0 0,-518.4 z" /></clipPath><clipPath
       id="clipPath4902"
       clipPathUnits="userSpaceOnUse"><path
         id="path4904"
         d="m 1346.19,629.051 935.973,0 0,518.395 -935.973,0 0,-518.395 z" /></clipPath></defs><g
     transform="matrix(1.25,0,0,-1.25,-102.67419,279.41242)"
     id="g4182"><g
       id="text4536"
       style="font-style:normal;font-variant:normal;font-weight:normal;font-stretch:normal;font-size:17.5px;line-height:125%;font-family:Lato;-inkscape-font-specification:'Lato, Normal';text-align:start;letter-spacing:0px;word-spacing:0px;writing-mode:lr-tb;text-anchor:start;display:inline;fill:#000000;fill-opacity:1;stroke:none;stroke-width:1px;stroke-linecap:butt;stroke-linejoin:miter;stroke-opacity:1"
       transform="matrix(0.8,0,0,-0.8,0,272.13)"><path
         id="path145"
         style="font-style:normal;font-variant:normal;font-weight:normal;font-stretch:normal;font-family:monospace;-inkscape-font-specification:monospace"
         d="m 129.53535,80.091446 0,1.751709 q -0.78613,-0.50415 -1.58081,-0.760498 -0.78613,-0.256348 -1.58935,-0.256348 -1.22193,0 -1.93115,0.57251 -0.70923,0.563965 -0.70923,1.529541 0,0.845947 0.46142,1.290283 0.46997,0.444336 1.74317,0.743408 l 0.90576,0.205079 q 1.79443,0.418701 2.61475,1.315917 0.82031,0.897217 0.82031,2.443848 0,1.820069 -1.12793,2.7771 -1.12793,0.957031 -3.28125,0.957031 -0.89722,0 -1.80298,-0.196533 -0.90576,-0.187988 -1.82007,-0.57251 l 0,-1.837158 q 0.98267,0.623779 1.85425,0.914306 0.88013,0.290528 1.7688,0.290528 1.30737,0 2.03369,-0.581055 0.72632,-0.589599 0.72632,-1.640625 0,-0.957031 -0.50415,-1.461182 -0.49561,-0.50415 -1.73462,-0.777587 l -0.92285,-0.213623 q -1.77735,-0.401612 -2.58057,-1.213379 -0.80322,-0.811768 -0.80322,-2.178955 0,-1.708985 1.14502,-2.734375 1.15356,-1.033936 3.05908,-1.033936 0.73486,0 1.54663,0.170898 0.81177,0.162354 1.70898,0.495606 z" /><path
         id="path147"
         style="font-style:normal;font-variant:normal;font-weight:normal;font-stretch:normal;font-family:monospace;-inkscape-font-specification:monospace"
         d="m 140.91719,87.235001 0,0.769043 -6.8103,0 0,0.05127 q 0,1.563721 0.81177,2.418213 0.82031,0.854492 2.30712,0.854492 0.75196,0 1.57227,-0.239258 0.82031,-0.239257 1.75171,-0.726318 l 0,1.563721 q -0.89722,0.367431 -1.73462,0.546875 -0.82886,0.187988 -1.60645,0.187988 -2.23022,0 -3.48632,-1.333008 -1.25611,-1.341553 -1.25611,-3.691406 0,-2.290039 1.23047,-3.657227 1.23047,-1.367187 3.28125,-1.367187 1.82861,0 2.87964,1.239014 1.05957,1.239013 1.05957,3.383789 z m -1.57227,-0.461426 q -0.0342,-1.384278 -0.65795,-2.102051 -0.61524,-0.726318 -1.77735,-0.726318 -1.13647,0 -1.87134,0.751953 -0.73486,0.751953 -0.87158,2.084961 l 5.17822,-0.0085 z" /><path
         id="path149"
         style="font-style:normal;font-variant:normal;font-weight:normal;font-stretch:normal;font-family:monospace;-inkscape-font-specification:monospace"
         d="m 144.7795,87.670792 q 0,1.828613 0.57251,2.760009 0.58105,0.931397 1.71752,0.931397 1.13648,0 1.71753,-0.931397 0.5896,-0.939941 0.5896,-2.760009 0,-1.820069 -0.5896,-2.751465 -0.58105,-0.939942 -1.71753,-0.939942 -1.13647,0 -1.71752,0.931397 -0.57251,0.931396 -0.57251,2.76001 z m 4.59716,3.554687 q -0.38452,0.709229 -1.04248,1.09375 -0.64941,0.375977 -1.51245,0.375977 -1.71753,0 -2.71728,-1.324463 -0.99121,-1.333008 -0.99121,-3.665772 0,-2.375488 0.99121,-3.717041 0.99121,-1.341552 2.71728,-1.341552 0.85449,0 1.50391,0.375976 0.65796,0.367432 1.05102,1.07666 l 0,-1.221924 1.58081,0 0,13.21045 -1.58081,0 0,-4.862061 z" /><path
         id="path151"
         style="font-style:normal;font-variant:normal;font-weight:normal;font-stretch:normal;font-family:monospace;-inkscape-font-specification:monospace"
         d="m 154.77705,90.960587 2.68311,0 0,-9.749756 -2.88818,0.649414 0,-1.572266 2.87109,-0.632324 1.72607,0 0,11.304932 2.64893,0 0,1.452636 -7.04102,0 0,-1.452636 z" /><path
         id="path153"
         style="font-style:normal;font-variant:normal;font-weight:normal;font-stretch:normal;font-family:monospace;-inkscape-font-specification:monospace"
         d="m 167.17574,83.329971 2.15332,0 0,2.589112 -2.15332,0 0,-2.589112 z m 0,6.477051 2.15332,0 0,2.606201 -2.15332,0 0,-2.606201 z" /><path
         id="path155"
         style="font-style:normal;font-variant:normal;font-weight:normal;font-stretch:normal;font-family:monospace;-inkscape-font-specification:monospace"
         d="m 193.22066,91.960342 q -0.65796,0.350342 -1.3501,0.521241 -0.69214,0.179443 -1.46973,0.179443 -2.45239,0 -3.81103,-1.734619 -1.3501,-1.734619 -1.3501,-4.879151 0,-3.127441 1.35864,-4.870605 1.36719,-1.751709 3.80249,-1.751709 0.77759,0 1.46973,0.179443 0.69214,0.170899 1.3501,0.521241 l 0,1.768798 q -0.63233,-0.52124 -1.35865,-0.794677 -0.72631,-0.273438 -1.46118,-0.273438 -1.68335,0 -2.52075,1.298828 -0.8374,1.298828 -0.8374,3.922119 0,2.614747 0.8374,3.913575 0.8374,1.298828 2.52075,1.298828 0.75196,0 1.46973,-0.273438 0.72632,-0.273437 1.3501,-0.794677 l 0,1.768798 z" /><path
         id="path157"
         style="font-style:normal;font-variant:normal;font-weight:normal;font-stretch:normal;font-family:monospace;-inkscape-font-specification:monospace"
         d="m 204.01289,91.362198 q -0.69213,0.640869 -1.56372,0.974121 -0.86303,0.324707 -1.87133,0.324707 -2.42676,0 -3.77686,-1.734619 -1.3501,-1.743164 -1.3501,-4.879151 0,-3.127441 1.36719,-4.870605 1.36719,-1.751709 3.80249,-1.751709 0.80322,0 1.53809,0.230713 0.73486,0.222168 1.41845,0.683594 l 0,1.768798 q -0.69214,-0.657958 -1.41845,-0.965576 -0.72632,-0.316162 -1.53809,-0.316162 -1.68335,0 -2.5293,1.307373 -0.8374,1.298828 -0.8374,3.913574 0,2.657471 0.81177,3.939209 0.82031,1.273194 2.51221,1.273194 0.5725,0 0.99975,-0.128174 0.43579,-0.136719 0.78613,-0.418701 l 0,-3.426514 -1.85424,0 0,-1.418457 3.50341,0 0,5.494385 z" /><path
         id="path159"
         style="font-style:normal;font-variant:normal;font-weight:normal;font-stretch:normal;font-family:monospace;-inkscape-font-specification:monospace"
         d="m 210.37032,81.176651 -1.82007,6.52832 3.64013,0 -1.82006,-6.52832 z m -1.04248,-1.520996 2.0935,0 3.90503,12.757568 -1.78589,0 -0.93994,-3.323974 -4.46899,0 -0.92286,3.323974 -1.78588,0 3.90503,-12.757568 z" /><path
         id="path161"
         style="font-style:normal;font-variant:normal;font-weight:normal;font-stretch:normal;font-family:monospace;-inkscape-font-specification:monospace"
         d="m 225.06758,91.362198 q -0.69214,0.640869 -1.56372,0.974121 -0.86304,0.324707 -1.87134,0.324707 -2.42676,0 -3.77685,-1.734619 -1.3501,-1.743164 -1.3501,-4.879151 0,-3.127441 1.36719,-4.870605 1.36718,-1.751709 3.80249,-1.751709 0.80322,0 1.53808,0.230713 0.73487,0.222168 1.41846,0.683594 l 0,1.768798 q -0.69214,-0.657958 -1.41846,-0.965576 -0.72632,-0.316162 -1.53808,-0.316162 -1.68335,0 -2.5293,1.307373 -0.8374,1.298828 -0.8374,3.913574 0,2.657471 0.81177,3.939209 0.82031,1.273194 2.5122,1.273194 0.57251,0 0.99976,-0.128174 0.43579,-0.136719 0.78613,-0.418701 l 0,-3.426514 -1.85425,0 0,-1.418457 3.50342,0 0,5.494385 z" /><path
         id="path163"
         style="font-style:normal;font-variant:normal;font-weight:normal;font-stretch:normal;font-family:monospace;-inkscape-font-specification:monospace"
         d="m 235.33003,91.960342 q -0.65796,0.350342 -1.3501,0.521241 -0.69213,0.179443 -1.46972,0.179443 -2.45239,0 -3.81104,-1.734619 -1.35009,-1.734619 -1.35009,-4.879151 0,-3.127441 1.35864,-4.870605 1.36719,-1.751709 3.80249,-1.751709 0.77759,0 1.46972,0.179443 0.69214,0.170899 1.3501,0.521241 l 0,1.768798 q -0.63232,-0.52124 -1.35864,-0.794677 -0.72632,-0.273438 -1.46118,-0.273438 -1.68335,0 -2.52075,1.298828 -0.83741,1.298828 -0.83741,3.922119 0,2.614747 0.83741,3.913575 0.8374,1.298828 2.52075,1.298828 0.75195,0 1.46972,-0.273438 0.72632,-0.273437 1.3501,-0.794677 l 0,1.768798 z" /><path
         id="path165"
         style="font-style:normal;font-variant:normal;font-weight:normal;font-stretch:normal;font-family:monospace;-inkscape-font-specification:monospace"
         d="m 241.95235,81.176651 -1.82007,6.52832 3.64014,0 -1.82007,-6.52832 z m -1.04248,-1.520996 2.0935,0 3.90503,12.757568 -1.78589,0 -0.93994,-3.323974 -4.46899,0 -0.92285,3.323974 -1.78589,0 3.90503,-12.757568 z" /><path
         id="path167"
         style="font-style:normal;font-variant:normal;font-weight:normal;font-stretch:normal;font-family:monospace;-inkscape-font-specification:monospace"
         d="m 256.64961,91.362198 q -0.69214,0.640869 -1.56372,0.974121 -0.86304,0.324707 -1.87134,0.324707 -2.42675,0 -3.77685,-1.734619 -1.3501,-1.743164 -1.3501,-4.879151 0,-3.127441 1.36719,-4.870605 1.36719,-1.751709 3.80249,-1.751709 0.80322,0 1.53808,0.230713 0.73487,0.222168 1.41846,0.683594 l 0,1.768798 q -0.69214,-0.657958 -1.41846,-0.965576 -0.72631,-0.316162 -1.53808,-0.316162 -1.68335,0 -2.5293,1.307373 -0.8374,1.298828 -0.8374,3.913574 0,2.657471 0.81177,3.939209 0.82031,1.273194 2.5122,1.273194 0.57251,0 0.99976,-0.128174 0.43579,-0.136719 0.78613,-0.418701 l 0,-3.426514 -1.85425,0 0,-1.418457 3.50342,0 0,5.494385 z" /><path
         id="path169"
         style="font-style:normal;font-variant:normal;font-weight:normal;font-stretch:normal;font-family:monospace;-inkscape-font-specification:monospace"
         d="m 267.17696,91.362198 q -0.69214,0.640869 -1.56372,0.974121 -0.86304,0.324707 -1.87134,0.324707 -2.42676,0 -3.77686,-1.734619 -1.3501,-1.743164 -1.3501,-4.879151 0,-3.127441 1.36719,-4.870605 1.36719,-1.751709 3.80249,-1.751709 0.80322,0 1.53809,0.230713 0.73486,0.222168 1.41846,0.683594 l 0,1.768798 q -0.69214,-0.657958 -1.41846,-0.965576 -0.72632,-0.316162 -1.53809,-0.316162 -1.68335,0 -2.52929,1.307373 -0.83741,1.298828 -0.83741,3.913574 0,2.657471 0.81177,3.939209 0.82031,1.273194 2.51221,1.273194 0.57251,0 0.99975,-0.128174 0.43579,-0.136719 0.78614,-0.418701 l 0,-3.426514 -1.85425,0 0,-1.418457 3.50342,0 0,5.494385 z" /><path
         id="path171"
         style="font-style:normal;font-variant:normal;font-weight:normal;font-stretch:normal;font-family:monospace;-inkscape-font-specification:monospace"
         d="m 268.67232,79.655655 9.73266,0 0,1.452637 -3.99047,0 0,11.304931 -1.73462,0 0,-11.304931 -4.00757,0 0,-1.452637 z" /><path
         id="path173"
         style="font-style:normal;font-variant:normal;font-weight:normal;font-stretch:normal;font-family:monospace;-inkscape-font-specification:monospace"
         d="m 284.06172,81.176651 -1.82007,6.52832 3.64014,0 -1.82007,-6.52832 z m -1.04248,-1.520996 2.09351,0 3.90503,12.757568 -1.78589,0 -0.93994,-3.323974 -4.469,0 -0.92285,3.323974 -1.78589,0 3.90503,-12.757568 z" /><path
         id="path175"
         style="font-style:normal;font-variant:normal;font-weight:normal;font-stretch:normal;font-family:monospace;-inkscape-font-specification:monospace"
         d="m 294.58907,81.176651 -1.82007,6.52832 3.64013,0 -1.82006,-6.52832 z m -1.04248,-1.520996 2.0935,0 3.90503,12.757568 -1.78589,0 -0.93994,-3.323974 -4.46899,0 -0.92286,3.323974 -1.78588,0 3.90503,-12.757568 z" /><path
         id="path177"
         style="font-style:normal;font-variant:normal;font-weight:normal;font-stretch:normal;font-family:monospace;-inkscape-font-specification:monospace"
         d="m 305.11641,81.176651 -1.82007,6.52832 3.64014,0 -1.82007,-6.52832 z m -1.04248,-1.520996 2.0935,0 3.90503,12.757568 -1.78588,0 -0.93995,-3.323974 -4.46899,0 -0.92285,3.323974 -1.78589,0 3.90503,-12.757568 z" /><path
         id="path179"
         style="font-style:normal;font-variant:normal;font-weight:normal;font-stretch:normal;font-family:monospace;-inkscape-font-specification:monospace"
         d="m 129.53535,101.96645 0,1.7517 q -0.78613,-0.50415 -1.58081,-0.76049 -0.78613,-0.25635 -1.58935,-0.25635 -1.22193,0 -1.93115,0.57251 -0.70923,0.56396 -0.70923,1.52954 0,0.84595 0.46142,1.29028 0.46997,0.44434 1.74317,0.74341 l 0.90576,0.20508 q 1.79443,0.4187 2.61475,1.31592 0.82031,0.89721 0.82031,2.44385 0,1.82006 -1.12793,2.77709 -1.12793,0.95704 -3.28125,0.95704 -0.89722,0 -1.80298,-0.19654 -0.90576,-0.18799 -1.82007,-0.57251 l 0,-1.83716 q 0.98267,0.62378 1.85425,0.91431 0.88013,0.29053 1.7688,0.29053 1.30737,0 2.03369,-0.58106 0.72632,-0.5896 0.72632,-1.64062 0,-0.95703 -0.50415,-1.46118 -0.49561,-0.50415 -1.73462,-0.77759 l -0.92285,-0.21362 q -1.77735,-0.40161 -2.58057,-1.21338 -0.80322,-0.81177 -0.80322,-2.17896 0,-1.70898 1.14502,-2.73437 1.15356,-1.03394 3.05908,-1.03394 0.73486,0 1.54663,0.1709 0.81177,0.16235 1.70898,0.49561 z" /><path
         id="path181"
         style="font-style:normal;font-variant:normal;font-weight:normal;font-stretch:normal;font-family:monospace;-inkscape-font-specification:monospace"
         d="m 140.91719,109.11 0,0.76904 -6.8103,0 0,0.0513 q 0,1.56372 0.81177,2.41822 0.82031,0.85449 2.30712,0.85449 0.75196,0 1.57227,-0.23926 0.82031,-0.23926 1.75171,-0.72632 l 0,1.56372 q -0.89722,0.36743 -1.73462,0.54688 -0.82886,0.18799 -1.60645,0.18799 -2.23022,0 -3.48632,-1.33301 -1.25611,-1.34155 -1.25611,-3.69141 0,-2.29004 1.23047,-3.65722 1.23047,-1.36719 3.28125,-1.36719 1.82861,0 2.87964,1.23901 1.05957,1.23902 1.05957,3.38379 z m -1.57227,-0.46143 q -0.0342,-1.38427 -0.65795,-2.10205 -0.61524,-0.72631 -1.77735,-0.72631 -1.13647,0 -1.87134,0.75195 -0.73486,0.75195 -0.87158,2.08496 l 5.17822,-0.009 z" /><path
         id="path183"
         style="font-style:normal;font-variant:normal;font-weight:normal;font-stretch:normal;font-family:monospace;-inkscape-font-specification:monospace"
         d="m 144.7795,109.54579 q 0,1.82861 0.57251,2.76001 0.58105,0.9314 1.71752,0.9314 1.13648,0 1.71753,-0.9314 0.5896,-0.93994 0.5896,-2.76001 0,-1.82007 -0.5896,-2.75146 -0.58105,-0.93994 -1.71753,-0.93994 -1.13647,0 -1.71752,0.93139 -0.57251,0.9314 -0.57251,2.76001 z m 4.59716,3.55469 q -0.38452,0.70923 -1.04248,1.09375 -0.64941,0.37598 -1.51245,0.37598 -1.71753,0 -2.71728,-1.32447 -0.99121,-1.33301 -0.99121,-3.66577 0,-2.37549 0.99121,-3.71704 0.99121,-1.34155 2.71728,-1.34155 0.85449,0 1.50391,0.37597 0.65796,0.36744 1.05102,1.07666 l 0,-1.22192 1.58081,0 0,13.21045 -1.58081,0 0,-4.86206 z" /><path
         id="path185"
         style="font-style:normal;font-variant:normal;font-weight:normal;font-stretch:normal;font-family:monospace;-inkscape-font-specification:monospace"
         d="m 155.65718,112.83559 5.86182,0 0,1.45263 -7.75025,0 0,-1.45263 q 1.5979,-1.68335 2.79419,-2.97364 1.19629,-1.29028 1.64917,-1.82006 0.85449,-1.04249 1.15357,-1.68335 0.29907,-0.64942 0.29907,-1.32447 0,-1.06811 -0.63233,-1.6748 -0.62377,-0.60669 -1.71752,-0.60669 -0.77759,0 -1.63208,0.28198 -0.8545,0.28198 -1.81153,0.85449 l 0,-1.74316 q 0.88013,-0.4187 1.72608,-0.63232 0.85449,-0.21363 1.68335,-0.21363 1.87133,0 3.00781,0.99976 1.14502,0.99121 1.14502,2.6062 0,0.82031 -0.38452,1.64062 -0.37598,0.82032 -1.23047,1.81153 -0.47852,0.55542 -1.39282,1.53808 -0.90577,0.98267 -2.76856,2.93946 z" /><path
         id="path187"
         style="font-style:normal;font-variant:normal;font-weight:normal;font-stretch:normal;font-family:monospace;-inkscape-font-specification:monospace"
         d="m 167.17574,105.20497 2.15332,0 0,2.58911 -2.15332,0 0,-2.58911 z m 0,6.47705 2.15332,0 0,2.6062 -2.15332,0 0,-2.6062 z" /><path
         id="path189"
         style="font-style:normal;font-variant:normal;font-weight:normal;font-stretch:normal;font-family:monospace;-inkscape-font-specification:monospace"
         d="m 193.22066,113.83534 q -0.65796,0.35034 -1.3501,0.52124 -0.69214,0.17945 -1.46973,0.17945 -2.45239,0 -3.81103,-1.73462 -1.3501,-1.73462 -1.3501,-4.87915 0,-3.12744 1.35864,-4.87061 1.36719,-1.75171 3.80249,-1.75171 0.77759,0 1.46973,0.17945 0.69214,0.17089 1.3501,0.52124 l 0,1.76879 q -0.63233,-0.52124 -1.35865,-0.79467 -0.72631,-0.27344 -1.46118,-0.27344 -1.68335,0 -2.52075,1.29883 -0.8374,1.29883 -0.8374,3.92212 0,2.61474 0.8374,3.91357 0.8374,1.29883 2.52075,1.29883 0.75196,0 1.46973,-0.27344 0.72632,-0.27344 1.3501,-0.79468 l 0,1.7688 z" /><path
         id="path191"
         style="font-style:normal;font-variant:normal;font-weight:normal;font-stretch:normal;font-family:monospace;-inkscape-font-specification:monospace"
         d="m 204.01289,113.2372 q -0.69213,0.64087 -1.56372,0.97412 -0.86303,0.32471 -1.87133,0.32471 -2.42676,0 -3.77686,-1.73462 -1.3501,-1.74317 -1.3501,-4.87915 0,-3.12744 1.36719,-4.87061 1.36719,-1.75171 3.80249,-1.75171 0.80322,0 1.53809,0.23071 0.73486,0.22217 1.41845,0.6836 l 0,1.7688 q -0.69214,-0.65796 -1.41845,-0.96558 -0.72632,-0.31616 -1.53809,-0.31616 -1.68335,0 -2.5293,1.30737 -0.8374,1.29883 -0.8374,3.91358 0,2.65747 0.81177,3.93921 0.82031,1.27319 2.51221,1.27319 0.5725,0 0.99975,-0.12818 0.43579,-0.13671 0.78613,-0.4187 l 0,-3.42651 -1.85424,0 0,-1.41846 3.50341,0 0,5.49439 z" /><path
         id="path193"
         style="font-style:normal;font-variant:normal;font-weight:normal;font-stretch:normal;font-family:monospace;-inkscape-font-specification:monospace"
         d="m 210.37032,103.05165 -1.82007,6.52832 3.64013,0 -1.82006,-6.52832 z m -1.04248,-1.521 2.0935,0 3.90503,12.75757 -1.78589,0 -0.93994,-3.32397 -4.46899,0 -0.92286,3.32397 -1.78588,0 3.90503,-12.75757 z" /><path
         id="path195"
         style="font-style:normal;font-variant:normal;font-weight:normal;font-stretch:normal;font-family:monospace;-inkscape-font-specification:monospace"
         d="m 225.06758,113.2372 q -0.69214,0.64087 -1.56372,0.97412 -0.86304,0.32471 -1.87134,0.32471 -2.42676,0 -3.77685,-1.73462 -1.3501,-1.74317 -1.3501,-4.87915 0,-3.12744 1.36719,-4.87061 1.36718,-1.75171 3.80249,-1.75171 0.80322,0 1.53808,0.23071 0.73487,0.22217 1.41846,0.6836 l 0,1.7688 q -0.69214,-0.65796 -1.41846,-0.96558 -0.72632,-0.31616 -1.53808,-0.31616 -1.68335,0 -2.5293,1.30737 -0.8374,1.29883 -0.8374,3.91358 0,2.65747 0.81177,3.93921 0.82031,1.27319 2.5122,1.27319 0.57251,0 0.99976,-0.12818 0.43579,-0.13671 0.78613,-0.4187 l 0,-3.42651 -1.85425,0 0,-1.41846 3.50342,0 0,5.49439 z" /><path
         id="path197"
         style="font-style:normal;font-variant:normal;font-weight:normal;font-stretch:normal;font-family:monospace;-inkscape-font-specification:monospace"
         d="m 235.33003,113.83534 q -0.65796,0.35034 -1.3501,0.52124 -0.69213,0.17945 -1.46972,0.17945 -2.45239,0 -3.81104,-1.73462 -1.35009,-1.73462 -1.35009,-4.87915 0,-3.12744 1.35864,-4.87061 1.36719,-1.75171 3.80249,-1.75171 0.77759,0 1.46972,0.17945 0.69214,0.17089 1.3501,0.52124 l 0,1.76879 q -0.63232,-0.52124 -1.35864,-0.79467 -0.72632,-0.27344 -1.46118,-0.27344 -1.68335,0 -2.52075,1.29883 -0.83741,1.29883 -0.83741,3.92212 0,2.61474 0.83741,3.91357 0.8374,1.29883 2.52075,1.29883 0.75195,0 1.46972,-0.27344 0.72632,-0.27344 1.3501,-0.79468 l 0,1.7688 z" /><path
         id="path199"
         style="font-style:normal;font-variant:normal;font-weight:normal;font-stretch:normal;font-family:monospace;-inkscape-font-specification:monospace"
         d="m 239.73067,108.79384 4.4519,0 0,1.40137 -4.4519,0 0,-1.40137 z" /><path
         id="path201"
         style="font-style:normal;font-variant:normal;font-weight:normal;font-stretch:normal;font-family:monospace;-inkscape-font-specification:monospace"
         d="m 256.64961,113.2372 q -0.69214,0.64087 -1.56372,0.97412 -0.86304,0.32471 -1.87134,0.32471 -2.42675,0 -3.77685,-1.73462 -1.3501,-1.74317 -1.3501,-4.87915 0,-3.12744 1.36719,-4.87061 1.36719,-1.75171 3.80249,-1.75171 0.80322,0 1.53808,0.23071 0.73487,0.22217 1.41846,0.6836 l 0,1.7688 q -0.69214,-0.65796 -1.41846,-0.96558 -0.72631,-0.31616 -1.53808,-0.31616 -1.68335,0 -2.5293,1.30737 -0.8374,1.29883 -0.8374,3.91358 0,2.65747 0.81177,3.93921 0.82031,1.27319 2.5122,1.27319 0.57251,0 0.99976,-0.12818 0.43579,-0.13671 0.78613,-0.4187 l 0,-3.42651 -1.85425,0 0,-1.41846 3.50342,0 0,5.49439 z" /><path
         id="path203"
         style="font-style:normal;font-variant:normal;font-weight:normal;font-stretch:normal;font-family:monospace;-inkscape-font-specification:monospace"
         d="m 260.78535,108.79384 4.45191,0 0,1.40137 -4.45191,0 0,-1.40137 z" /><path
         id="path205"
         style="font-style:normal;font-variant:normal;font-weight:normal;font-stretch:normal;font-family:monospace;-inkscape-font-specification:monospace"
         d="m 271.3127,108.79384 4.4519,0 0,1.40137 -4.4519,0 0,-1.40137 z" /><path
         id="path207"
         style="font-style:normal;font-variant:normal;font-weight:normal;font-stretch:normal;font-family:monospace;-inkscape-font-specification:monospace"
         d="m 284.06172,103.05165 -1.82007,6.52832 3.64014,0 -1.82007,-6.52832 z m -1.04248,-1.521 2.09351,0 3.90503,12.75757 -1.78589,0 -0.93994,-3.32397 -4.469,0 -0.92285,3.32397 -1.78589,0 3.90503,-12.75757 z" /><path
         id="path209"
         style="font-style:normal;font-variant:normal;font-weight:normal;font-stretch:normal;font-family:monospace;-inkscape-font-specification:monospace"
         d="m 294.58907,103.05165 -1.82007,6.52832 3.64013,0 -1.82006,-6.52832 z m -1.04248,-1.521 2.0935,0 3.90503,12.75757 -1.78589,0 -0.93994,-3.32397 -4.46899,0 -0.92286,3.32397 -1.78588,0 3.90503,-12.75757 z" /><path
         id="path211"
         style="font-style:normal;font-variant:normal;font-weight:normal;font-stretch:normal;font-family:monospace;-inkscape-font-specification:monospace"
         d="m 305.11641,103.05165 -1.82007,6.52832 3.64014,0 -1.82007,-6.52832 z m -1.04248,-1.521 2.0935,0 3.90503,12.75757 -1.78588,0 -0.93995,-3.32397 -4.46899,0 -0.92285,3.32397 -1.78589,0 3.90503,-12.75757 z" /></g></g><g
     style="display:inline"
     id="layer1"><g
       id="text4546"
       style="font-style:normal;font-variant:normal;font-weight:normal;font-stretch:normal;font-size:17.5px;line-height:125%;font-family:Lato;-inkscape-font-specification:'Lato, Normal';text-align:start;letter-spacing:0px;word-spacing:0px;writing-mode:lr-tb;text-anchor:start;display:inline;fill:#000000;fill-opacity:1;stroke:none;stroke-width:1px;stroke-linecap:butt;stroke-linejoin:miter;stroke-opacity:1"
       transform="translate(-102.67419,-60.75008)"><path
         id="path214"
         style="font-style:normal;font-variant:normal;font-weight:normal;font-stretch:normal;font-family:monospace;-inkscape-font-specification:monospace"
         d="m 120.24479,159.8595 0,1.75171 q -0.78613,-0.50415 -1.58081,-0.7605 -0.78613,-0.25635 -1.58936,-0.25635 -1.22192,0 -1.93115,0.57251 -0.70923,0.56396 -0.70923,1.52954 0,0.84595 0.46143,1.29028 0.46997,0.44434 1.74316,0.74341 l 0.90576,0.20508 q 1.79444,0.4187 2.61475,1.31592 0.82031,0.89722 0.82031,2.44385 0,1.82006 -1.12793,2.7771 -1.12793,0.95703 -3.28125,0.95703 -0.89721,0 -1.80298,-0.19654 -0.90576,-0.18798 -1.82006,-0.57251 l 0,-1.83715 q 0.98266,0.62378 1.85424,0.9143 0.88013,0.29053 1.7688,0.29053 1.30738,0 2.03369,-0.58105 0.72632,-0.5896 0.72632,-1.64063 0,-0.95703 -0.50415,-1.46118 -0.4956,-0.50415 -1.73462,-0.77759 l -0.92285,-0.21362 q -1.77734,-0.40161 -2.58057,-1.21338 -0.80322,-0.81177 -0.80322,-2.17896 0,-1.70898 1.14502,-2.73437 1.15357,-1.03394 3.05908,-1.03394 0.73487,0 1.54663,0.1709 0.81177,0.16236 1.70899,0.49561 z" /><path
         id="path216"
         style="font-style:normal;font-variant:normal;font-weight:normal;font-stretch:normal;font-family:monospace;-inkscape-font-specification:monospace"
         d="m 131.62663,167.00305 0,0.76904 -6.81031,0 0,0.0513 q 0,1.56372 0.81177,2.41822 0.82031,0.85449 2.30713,0.85449 0.75195,0 1.57226,-0.23926 0.82032,-0.23926 1.75171,-0.72632 l 0,1.56372 q -0.89721,0.36744 -1.73462,0.54688 -0.82885,0.18799 -1.60644,0.18799 -2.23023,0 -3.48633,-1.33301 -1.2561,-1.34155 -1.2561,-3.69141 0,-2.29004 1.23047,-3.65722 1.23046,-1.36719 3.28125,-1.36719 1.82861,0 2.87963,1.23901 1.05958,1.23902 1.05958,3.38379 z m -1.57227,-0.46142 q -0.0342,-1.38428 -0.65796,-2.10205 -0.61523,-0.72632 -1.77734,-0.72632 -1.13648,0 -1.87134,0.75195 -0.73486,0.75195 -0.87158,2.08496 l 5.17822,-0.009 z" /><path
         id="path218"
         style="font-style:normal;font-variant:normal;font-weight:normal;font-stretch:normal;font-family:monospace;-inkscape-font-specification:monospace"
         d="m 135.48893,167.43884 q 0,1.82862 0.57251,2.76001 0.58105,0.9314 1.71753,0.9314 1.13647,0 1.71753,-0.9314 0.5896,-0.93994 0.5896,-2.76001 0,-1.82007 -0.5896,-2.75146 -0.58106,-0.93994 -1.71753,-0.93994 -1.13648,0 -1.71753,0.93139 -0.57251,0.9314 -0.57251,2.76001 z m 4.59717,3.55469 q -0.38452,0.70923 -1.04248,1.09375 -0.64942,0.37598 -1.51245,0.37598 -1.71753,0 -2.71729,-1.32447 -0.99121,-1.333 -0.99121,-3.66577 0,-2.37549 0.99121,-3.71704 0.99121,-1.34155 2.71729,-1.34155 0.85449,0 1.5039,0.37598 0.65796,0.36743 1.05103,1.07666 l 0,-1.22193 1.58081,0 0,13.21045 -1.58081,0 0,-4.86206 z" /><path
         id="path220"
         style="font-style:normal;font-variant:normal;font-weight:normal;font-stretch:normal;font-family:monospace;-inkscape-font-specification:monospace"
         d="m 145.48649,170.72864 2.6831,0 0,-9.74976 -2.88818,0.64942 0,-1.57227 2.87109,-0.63232 1.72608,0 0,11.30493 2.64892,0 0,1.45263 -7.04101,0 0,-1.45263 z" /><path
         id="path222"
         style="font-style:normal;font-variant:normal;font-weight:normal;font-stretch:normal;font-family:monospace;-inkscape-font-specification:monospace"
         d="m 157.88517,163.09802 2.15332,0 0,2.58911 -2.15332,0 0,-2.58911 z m 0,6.47705 2.15332,0 0,2.6062 -2.15332,0 0,-2.6062 z" /><path
         id="path224"
         style="font-style:normal;font-variant:normal;font-weight:normal;font-stretch:normal;font-family:monospace;-inkscape-font-specification:monospace"
         d="m 183.93009,171.72839 q -0.65796,0.35035 -1.3501,0.52124 -0.69213,0.17945 -1.46972,0.17945 -2.45239,0 -3.81104,-1.73462 -1.3501,-1.73462 -1.3501,-4.87915 0,-3.12744 1.35865,-4.87061 1.36718,-1.75171 3.80249,-1.75171 0.77759,0 1.46972,0.17945 0.69214,0.17089 1.3501,0.52124 l 0,1.7688 q -0.63232,-0.52124 -1.35864,-0.79468 -0.72632,-0.27344 -1.46118,-0.27344 -1.68335,0 -2.52075,1.29883 -0.83741,1.29883 -0.83741,3.92212 0,2.61474 0.83741,3.91357 0.8374,1.29883 2.52075,1.29883 0.75195,0 1.46972,-0.27344 0.72632,-0.27344 1.3501,-0.79468 l 0,1.7688 z" /><path
         id="path226"
         style="font-style:normal;font-variant:normal;font-weight:normal;font-stretch:normal;font-family:monospace;-inkscape-font-specification:monospace"
         d="m 194.72233,171.13025 q -0.69214,0.64087 -1.56372,0.97412 -0.86304,0.32471 -1.87134,0.32471 -2.42676,0 -3.77686,-1.73462 -1.35009,-1.74317 -1.35009,-4.87915 0,-3.12744 1.36718,-4.87061 1.36719,-1.75171 3.80249,-1.75171 0.80323,0 1.53809,0.23072 0.73486,0.22216 1.41846,0.68359 l 0,1.7688 q -0.69214,-0.65796 -1.41846,-0.96558 -0.72632,-0.31616 -1.53809,-0.31616 -1.68335,0 -2.52929,1.30737 -0.83741,1.29883 -0.83741,3.91358 0,2.65747 0.81177,3.93921 0.82032,1.27319 2.51221,1.27319 0.57251,0 0.99976,-0.12817 0.43579,-0.13672 0.78613,-0.41871 l 0,-3.42651 -1.85425,0 0,-1.41846 3.50342,0 0,5.49439 z" /><path
         id="path228"
         style="font-style:normal;font-variant:normal;font-weight:normal;font-stretch:normal;font-family:monospace;-inkscape-font-specification:monospace"
         d="m 201.07975,160.9447 -1.82007,6.52832 3.64014,0 -1.82007,-6.52832 z m -1.04248,-1.52099 2.09351,0 3.90502,12.75756 -1.78588,0 -0.93995,-3.32397 -4.46899,0 -0.92285,3.32397 -1.78589,0 3.90503,-12.75756 z" /><path
         id="path230"
         style="font-style:normal;font-variant:normal;font-weight:normal;font-stretch:normal;font-family:monospace;-inkscape-font-specification:monospace"
         d="m 226.30436,171.13025 q -0.69214,0.64087 -1.56372,0.97412 -0.86304,0.32471 -1.87134,0.32471 -2.42676,0 -3.77685,-1.73462 -1.3501,-1.74317 -1.3501,-4.87915 0,-3.12744 1.36719,-4.87061 1.36718,-1.75171 3.80249,-1.75171 0.80322,0 1.53808,0.23072 0.73486,0.22216 1.41846,0.68359 l 0,1.7688 q -0.69214,-0.65796 -1.41846,-0.96558 -0.72632,-0.31616 -1.53808,-0.31616 -1.68335,0 -2.5293,1.30737 -0.8374,1.29883 -0.8374,3.91358 0,2.65747 0.81176,3.93921 0.82032,1.27319 2.51221,1.27319 0.57251,0 0.99976,-0.12817 0.43579,-0.13672 0.78613,-0.41871 l 0,-3.42651 -1.85425,0 0,-1.41846 3.50342,0 0,5.49439 z" /><path
         id="path232"
         style="font-style:normal;font-variant:normal;font-weight:normal;font-stretch:normal;font-family:monospace;-inkscape-font-specification:monospace"
         d="m 236.56681,171.72839 q -0.65796,0.35035 -1.3501,0.52124 -0.69214,0.17945 -1.46972,0.17945 -2.4524,0 -3.81104,-1.73462 -1.3501,-1.73462 -1.3501,-4.87915 0,-3.12744 1.35865,-4.87061 1.36718,-1.75171 3.80249,-1.75171 0.77758,0 1.46972,0.17945 0.69214,0.17089 1.3501,0.52124 l 0,1.7688 q -0.63232,-0.52124 -1.35864,-0.79468 -0.72632,-0.27344 -1.46118,-0.27344 -1.68335,0 -2.52076,1.29883 -0.8374,1.29883 -0.8374,3.92212 0,2.61474 0.8374,3.91357 0.83741,1.29883 2.52076,1.29883 0.75195,0 1.46972,-0.27344 0.72632,-0.27344 1.3501,-0.79468 l 0,1.7688 z" /><path
         id="path234"
         style="font-style:normal;font-variant:normal;font-weight:normal;font-stretch:normal;font-family:monospace;-inkscape-font-specification:monospace"
         d="m 243.18913,160.9447 -1.82007,6.52832 3.64013,0 -1.82006,-6.52832 z m -1.04249,-1.52099 2.09351,0 3.90503,12.75756 -1.78589,0 -0.93994,-3.32397 -4.46899,0 -0.92286,3.32397 -1.78588,0 3.90502,-12.75756 z" /><path
         id="path236"
         style="font-style:normal;font-variant:normal;font-weight:normal;font-stretch:normal;font-family:monospace;-inkscape-font-specification:monospace"
         d="m 268.41373,171.13025 q -0.69213,0.64087 -1.56372,0.97412 -0.86303,0.32471 -1.87133,0.32471 -2.42676,0 -3.77686,-1.73462 -1.3501,-1.74317 -1.3501,-4.87915 0,-3.12744 1.36719,-4.87061 1.36719,-1.75171 3.80249,-1.75171 0.80322,0 1.53809,0.23072 0.73486,0.22216 1.41845,0.68359 l 0,1.7688 q -0.69214,-0.65796 -1.41845,-0.96558 -0.72632,-0.31616 -1.53809,-0.31616 -1.68335,0 -2.5293,1.30737 -0.8374,1.29883 -0.8374,3.91358 0,2.65747 0.81177,3.93921 0.82031,1.27319 2.51221,1.27319 0.57251,0 0.99975,-0.12817 0.43579,-0.13672 0.78613,-0.41871 l 0,-3.42651 -1.85424,0 0,-1.41846 3.50341,0 0,5.49439 z" /><path
         id="path238"
         style="font-style:normal;font-variant:normal;font-weight:normal;font-stretch:normal;font-family:monospace;-inkscape-font-specification:monospace"
         d="m 278.94108,171.13025 q -0.69214,0.64087 -1.56372,0.97412 -0.86304,0.32471 -1.87134,0.32471 -2.42676,0 -3.77686,-1.73462 -1.35009,-1.74317 -1.35009,-4.87915 0,-3.12744 1.36718,-4.87061 1.36719,-1.75171 3.80249,-1.75171 0.80323,0 1.53809,0.23072 0.73486,0.22216 1.41846,0.68359 l 0,1.7688 q -0.69214,-0.65796 -1.41846,-0.96558 -0.72632,-0.31616 -1.53809,-0.31616 -1.68335,0 -2.52929,1.30737 -0.83741,1.29883 -0.83741,3.91358 0,2.65747 0.81177,3.93921 0.82032,1.27319 2.51221,1.27319 0.57251,0 0.99976,-0.12817 0.43579,-0.13672 0.78613,-0.41871 l 0,-3.42651 -1.85425,0 0,-1.41846 3.50342,0 0,5.49439 z" /><path
         id="path240"
         style="font-style:normal;font-variant:normal;font-weight:normal;font-stretch:normal;font-family:monospace;-inkscape-font-specification:monospace"
         d="m 280.43644,159.42371 9.73267,0 0,1.45263 -3.99048,0 0,11.30493 -1.73462,0 0,-11.30493 -4.00757,0 0,-1.45263 z" /><path
         id="path242"
         style="font-style:normal;font-variant:normal;font-weight:normal;font-stretch:normal;font-family:monospace;-inkscape-font-specification:monospace"
         d="m 306.35319,160.9447 -1.82007,6.52832 3.64014,0 -1.82007,-6.52832 z m -1.04248,-1.52099 2.0935,0 3.90503,12.75756 -1.78589,0 -0.93994,-3.32397 -4.46899,0 -0.92285,3.32397 -1.78589,0 3.90503,-12.75756 z" /><path
         id="path244"
         style="font-style:normal;font-variant:normal;font-weight:normal;font-stretch:normal;font-family:monospace;-inkscape-font-specification:monospace"
         d="m 316.88053,160.9447 -1.82007,6.52832 3.64014,0 -1.82007,-6.52832 z m -1.04248,-1.52099 2.09351,0 3.90503,12.75756 -1.78589,0 -0.93994,-3.32397 -4.469,0 -0.92285,3.32397 -1.78589,0 3.90503,-12.75756 z" /><path
         id="path246"
         style="font-style:normal;font-variant:normal;font-weight:normal;font-stretch:normal;font-family:monospace;-inkscape-font-specification:monospace"
         d="m 327.40788,160.9447 -1.82007,6.52832 3.64013,0 -1.82006,-6.52832 z m -1.04249,-1.52099 2.09351,0 3.90503,12.75756 -1.78589,0 -0.93994,-3.32397 -4.46899,0 -0.92286,3.32397 -1.78588,0 3.90502,-12.75756 z" /><path
         id="path248"
         style="font-style:normal;font-variant:normal;font-weight:normal;font-stretch:normal;font-family:monospace;-inkscape-font-specification:monospace"
         d="m 120.24479,181.7345 0,1.75171 q -0.78613,-0.50415 -1.58081,-0.7605 -0.78613,-0.25635 -1.58936,-0.25635 -1.22192,0 -1.93115,0.57251 -0.70923,0.56396 -0.70923,1.52954 0,0.84595 0.46143,1.29028 0.46997,0.44434 1.74316,0.74341 l 0.90576,0.20508 q 1.79444,0.4187 2.61475,1.31592 0.82031,0.89722 0.82031,2.44385 0,1.82006 -1.12793,2.7771 -1.12793,0.95703 -3.28125,0.95703 -0.89721,0 -1.80298,-0.19654 -0.90576,-0.18798 -1.82006,-0.57251 l 0,-1.83715 q 0.98266,0.62378 1.85424,0.9143 0.88013,0.29053 1.7688,0.29053 1.30738,0 2.03369,-0.58105 0.72632,-0.5896 0.72632,-1.64063 0,-0.95703 -0.50415,-1.46118 -0.4956,-0.50415 -1.73462,-0.77759 l -0.92285,-0.21362 q -1.77734,-0.40161 -2.58057,-1.21338 -0.80322,-0.81177 -0.80322,-2.17896 0,-1.70898 1.14502,-2.73437 1.15357,-1.03394 3.05908,-1.03394 0.73487,0 1.54663,0.1709 0.81177,0.16236 1.70899,0.49561 z" /><path
         id="path250"
         style="font-style:normal;font-variant:normal;font-weight:normal;font-stretch:normal;font-family:monospace;-inkscape-font-specification:monospace"
         d="m 131.62663,188.87805 0,0.76904 -6.81031,0 0,0.0513 q 0,1.56372 0.81177,2.41822 0.82031,0.85449 2.30713,0.85449 0.75195,0 1.57226,-0.23926 0.82032,-0.23926 1.75171,-0.72632 l 0,1.56372 q -0.89721,0.36744 -1.73462,0.54688 -0.82885,0.18799 -1.60644,0.18799 -2.23023,0 -3.48633,-1.33301 -1.2561,-1.34155 -1.2561,-3.69141 0,-2.29004 1.23047,-3.65722 1.23046,-1.36719 3.28125,-1.36719 1.82861,0 2.87963,1.23901 1.05958,1.23902 1.05958,3.38379 z m -1.57227,-0.46142 q -0.0342,-1.38428 -0.65796,-2.10205 -0.61523,-0.72632 -1.77734,-0.72632 -1.13648,0 -1.87134,0.75195 -0.73486,0.75195 -0.87158,2.08496 l 5.17822,-0.009 z" /><path
         id="path252"
         style="font-style:normal;font-variant:normal;font-weight:normal;font-stretch:normal;font-family:monospace;-inkscape-font-specification:monospace"
         d="m 135.48893,189.31384 q 0,1.82862 0.57251,2.76001 0.58105,0.9314 1.71753,0.9314 1.13647,0 1.71753,-0.9314 0.5896,-0.93994 0.5896,-2.76001 0,-1.82007 -0.5896,-2.75146 -0.58106,-0.93994 -1.71753,-0.93994 -1.13648,0 -1.71753,0.93139 -0.57251,0.9314 -0.57251,2.76001 z m 4.59717,3.55469 q -0.38452,0.70923 -1.04248,1.09375 -0.64942,0.37598 -1.51245,0.37598 -1.71753,0 -2.71729,-1.32447 -0.99121,-1.333 -0.99121,-3.66577 0,-2.37549 0.99121,-3.71704 0.99121,-1.34155 2.71729,-1.34155 0.85449,0 1.5039,0.37598 0.65796,0.36743 1.05103,1.07666 l 0,-1.22193 1.58081,0 0,13.21045 -1.58081,0 0,-4.86206 z" /><path
         id="path254"
         style="font-style:normal;font-variant:normal;font-weight:normal;font-stretch:normal;font-family:monospace;-inkscape-font-specification:monospace"
         d="m 146.36662,192.60364 5.86181,0 0,1.45263 -7.75024,0 0,-1.45263 q 1.5979,-1.68335 2.79419,-2.97364 1.19629,-1.29028 1.64917,-1.82006 0.85449,-1.04248 1.15356,-1.68335 0.29907,-0.64942 0.29907,-1.32447 0,-1.06811 -0.63232,-1.6748 -0.62378,-0.60669 -1.71753,-0.60669 -0.77759,0 -1.63208,0.28198 -0.85449,0.28198 -1.81152,0.85449 l 0,-1.74316 q 0.88012,-0.4187 1.72607,-0.63232 0.85449,-0.21363 1.68335,-0.21363 1.87134,0 3.00781,0.99976 1.14502,0.99121 1.14502,2.6062 0,0.82031 -0.38452,1.64063 -0.37598,0.82031 -1.23047,1.81152 -0.47851,0.55542 -1.39282,1.53808 -0.90576,0.98267 -2.76855,2.93946 z" /><path
         id="path256"
         style="font-style:normal;font-variant:normal;font-weight:normal;font-stretch:normal;font-family:monospace;-inkscape-font-specification:monospace"
         d="m 157.88517,184.97302 2.15332,0 0,2.58911 -2.15332,0 0,-2.58911 z m 0,6.47705 2.15332,0 0,2.6062 -2.15332,0 0,-2.6062 z" /><path
         id="path258"
         style="font-style:normal;font-variant:normal;font-weight:normal;font-stretch:normal;font-family:monospace;-inkscape-font-specification:monospace"
         d="m 183.93009,193.60339 q -0.65796,0.35035 -1.3501,0.52124 -0.69213,0.17945 -1.46972,0.17945 -2.45239,0 -3.81104,-1.73462 -1.3501,-1.73462 -1.3501,-4.87915 0,-3.12744 1.35865,-4.87061 1.36718,-1.75171 3.80249,-1.75171 0.77759,0 1.46972,0.17945 0.69214,0.17089 1.3501,0.52124 l 0,1.7688 q -0.63232,-0.52124 -1.35864,-0.79468 -0.72632,-0.27344 -1.46118,-0.27344 -1.68335,0 -2.52075,1.29883 -0.83741,1.29883 -0.83741,3.92212 0,2.61474 0.83741,3.91357 0.8374,1.29883 2.52075,1.29883 0.75195,0 1.46972,-0.27344 0.72632,-0.27344 1.3501,-0.79468 l 0,1.7688 z" /><path
         id="path260"
         style="font-style:normal;font-variant:normal;font-weight:normal;font-stretch:normal;font-family:monospace;-inkscape-font-specification:monospace"
         d="m 194.72233,193.00525 q -0.69214,0.64087 -1.56372,0.97412 -0.86304,0.32471 -1.87134,0.32471 -2.42676,0 -3.77686,-1.73462 -1.35009,-1.74317 -1.35009,-4.87915 0,-3.12744 1.36718,-4.87061 1.36719,-1.75171 3.80249,-1.75171 0.80323,0 1.53809,0.23072 0.73486,0.22216 1.41846,0.68359 l 0,1.7688 q -0.69214,-0.65796 -1.41846,-0.96558 -0.72632,-0.31616 -1.53809,-0.31616 -1.68335,0 -2.52929,1.30737 -0.83741,1.29883 -0.83741,3.91358 0,2.65747 0.81177,3.93921 0.82032,1.27319 2.51221,1.27319 0.57251,0 0.99976,-0.12817 0.43579,-0.13672 0.78613,-0.41871 l 0,-3.42651 -1.85425,0 0,-1.41846 3.50342,0 0,5.49439 z" /><path
         id="path262"
         style="font-style:normal;font-variant:normal;font-weight:normal;font-stretch:normal;font-family:monospace;-inkscape-font-specification:monospace"
         d="m 201.07975,182.8197 -1.82007,6.52832 3.64014,0 -1.82007,-6.52832 z m -1.04248,-1.52099 2.09351,0 3.90502,12.75756 -1.78588,0 -0.93995,-3.32397 -4.46899,0 -0.92285,3.32397 -1.78589,0 3.90503,-12.75756 z" /><path
         id="path264"
         style="font-style:normal;font-variant:normal;font-weight:normal;font-stretch:normal;font-family:monospace;-inkscape-font-specification:monospace"
         d="m 226.30436,193.00525 q -0.69214,0.64087 -1.56372,0.97412 -0.86304,0.32471 -1.87134,0.32471 -2.42676,0 -3.77685,-1.73462 -1.3501,-1.74317 -1.3501,-4.87915 0,-3.12744 1.36719,-4.87061 1.36718,-1.75171 3.80249,-1.75171 0.80322,0 1.53808,0.23072 0.73486,0.22216 1.41846,0.68359 l 0,1.7688 q -0.69214,-0.65796 -1.41846,-0.96558 -0.72632,-0.31616 -1.53808,-0.31616 -1.68335,0 -2.5293,1.30737 -0.8374,1.29883 -0.8374,3.91358 0,2.65747 0.81176,3.93921 0.82032,1.27319 2.51221,1.27319 0.57251,0 0.99976,-0.12817 0.43579,-0.13672 0.78613,-0.41871 l 0,-3.42651 -1.85425,0 0,-1.41846 3.50342,0 0,5.49439 z" /><path
         id="path266"
         style="font-style:normal;font-variant:normal;font-weight:normal;font-stretch:normal;font-family:monospace;-inkscape-font-specification:monospace"
         d="m 236.56681,193.60339 q -0.65796,0.35035 -1.3501,0.52124 -0.69214,0.17945 -1.46972,0.17945 -2.4524,0 -3.81104,-1.73462 -1.3501,-1.73462 -1.3501,-4.87915 0,-3.12744 1.35865,-4.87061 1.36718,-1.75171 3.80249,-1.75171 0.77758,0 1.46972,0.17945 0.69214,0.17089 1.3501,0.52124 l 0,1.7688 q -0.63232,-0.52124 -1.35864,-0.79468 -0.72632,-0.27344 -1.46118,-0.27344 -1.68335,0 -2.52076,1.29883 -0.8374,1.29883 -0.8374,3.92212 0,2.61474 0.8374,3.91357 0.83741,1.29883 2.52076,1.29883 0.75195,0 1.46972,-0.27344 0.72632,-0.27344 1.3501,-0.79468 l 0,1.7688 z" /><path
         id="path268"
         style="font-style:normal;font-variant:normal;font-weight:normal;font-stretch:normal;font-family:monospace;-inkscape-font-specification:monospace"
         d="m 247.35905,193.00525 q -0.69214,0.64087 -1.56372,0.97412 -0.86304,0.32471 -1.87134,0.32471 -2.42676,0 -3.77686,-1.73462 -1.35009,-1.74317 -1.35009,-4.87915 0,-3.12744 1.36718,-4.87061 1.36719,-1.75171 3.80249,-1.75171 0.80323,0 1.53809,0.23072 0.73486,0.22216 1.41846,0.68359 l 0,1.7688 q -0.69214,-0.65796 -1.41846,-0.96558 -0.72632,-0.31616 -1.53809,-0.31616 -1.68335,0 -2.52929,1.30737 -0.83741,1.29883 -0.83741,3.91358 0,2.65747 0.81177,3.93921 0.82031,1.27319 2.51221,1.27319 0.57251,0 0.99975,-0.12817 0.4358,-0.13672 0.78614,-0.41871 l 0,-3.42651 -1.85425,0 0,-1.41846 3.50342,0 0,5.49439 z" /><path
         id="path270"
         style="font-style:normal;font-variant:normal;font-weight:normal;font-stretch:normal;font-family:monospace;-inkscape-font-specification:monospace"
         d="m 262.02213,188.56189 4.45191,0 0,1.40137 -4.45191,0 0,-1.40137 z" /><path
         id="path272"
         style="font-style:normal;font-variant:normal;font-weight:normal;font-stretch:normal;font-family:monospace;-inkscape-font-specification:monospace"
         d="m 272.54948,188.56189 4.4519,0 0,1.40137 -4.4519,0 0,-1.40137 z" /><path
         id="path274"
         style="font-style:normal;font-variant:normal;font-weight:normal;font-stretch:normal;font-family:monospace;-inkscape-font-specification:monospace"
         d="m 283.07682,188.56189 4.4519,0 0,1.40137 -4.4519,0 0,-1.40137 z" /><path
         id="path276"
         style="font-style:normal;font-variant:normal;font-weight:normal;font-stretch:normal;font-family:monospace;-inkscape-font-specification:monospace"
         d="m 306.35319,182.8197 -1.82007,6.52832 3.64014,0 -1.82007,-6.52832 z m -1.04248,-1.52099 2.0935,0 3.90503,12.75756 -1.78589,0 -0.93994,-3.32397 -4.46899,0 -0.92285,3.32397 -1.78589,0 3.90503,-12.75756 z" /><path
         id="path278"
         style="font-style:normal;font-variant:normal;font-weight:normal;font-stretch:normal;font-family:monospace;-inkscape-font-specification:monospace"
         d="m 316.88053,182.8197 -1.82007,6.52832 3.64014,0 -1.82007,-6.52832 z m -1.04248,-1.52099 2.09351,0 3.90503,12.75756 -1.78589,0 -0.93994,-3.32397 -4.469,0 -0.92285,3.32397 -1.78589,0 3.90503,-12.75756 z" /><path
         id="path280"
         style="font-style:normal;font-variant:normal;font-weight:normal;font-stretch:normal;font-family:monospace;-inkscape-font-specification:monospace"
         d="m 327.40788,182.8197 -1.82007,6.52832 3.64013,0 -1.82006,-6.52832 z m -1.04249,-1.52099 2.09351,0 3.90503,12.75756 -1.78589,0 -0.93994,-3.32397 -4.46899,0 -0.92286,3.32397 -1.78588,0 3.90502,-12.75756 z" /></g><g
       id="text4556"
       style="font-style:normal;font-variant:normal;font-weight:normal;font-stretch:normal;font-size:17.5px;line-height:125%;font-family:Lato;-inkscape-font-specification:'Lato, Normal';text-align:start;letter-spacing:0px;word-spacing:0px;writing-mode:lr-tb;text-anchor:start;display:inline;fill:#000000;fill-opacity:1;stroke:none;stroke-width:1px;stroke-linecap:butt;stroke-linejoin:miter;stroke-opacity:1"
       transform="translate(-102.67419,-60.75008)"><path
         id="path283"
         style="font-style:italic;font-size:15px;fill:#666666"
         d="m 103.70419,150.01253 0.915,-7.605 0.66,0 q 0.4575,0 0.4575,0.45 l -0.1275,1.68 q 0.3,-0.6375 0.645,-1.1025 0.3525,-0.4725 0.735,-0.735 0.3825,-0.27 0.7875,-0.33 0.405,-0.06 0.825,0.12 l -0.24,1.2825 q -0.9825,-0.39 -1.725,0.2775 -0.735,0.6675 -1.2075,2.4375 l -0.42,3.525 -1.305,0 z" /><path
         id="path285"
         style="font-style:italic;font-size:15px;fill:#666666"
         d="m 114.72497,144.04253 q 0,0.495 -0.2025,0.915 -0.2025,0.4125 -0.7425,0.75 -0.54,0.33 -1.485,0.5775 -0.945,0.2475 -2.43,0.3975 -0.007,0.0825 -0.007,0.165 0,0.075 0,0.1575 0,1.005 0.435,1.5375 0.4425,0.525 1.3275,0.525 0.36,0 0.6375,-0.075 0.285,-0.075 0.5025,-0.18 0.225,-0.1125 0.39,-0.24 0.1725,-0.135 0.3075,-0.24 0.1425,-0.1125 0.2625,-0.1875 0.12,-0.075 0.24,-0.075 0.1425,0 0.255,0.1275 l 0.33,0.4125 q -0.3825,0.3975 -0.75,0.6825 -0.3675,0.2775 -0.75,0.465 -0.375,0.1875 -0.795,0.27 -0.4125,0.09 -0.8925,0.09 -0.6525,0 -1.17,-0.2175 -0.5175,-0.2175 -0.8775,-0.615 -0.36,-0.405 -0.555,-0.975 -0.195,-0.57 -0.195,-1.275 0,-0.585 0.12,-1.1625 0.1275,-0.585 0.36,-1.11 0.24,-0.525 0.5775,-0.975 0.345,-0.45 0.78,-0.7725 0.4425,-0.33 0.9675,-0.5175 0.5325,-0.1875 1.14,-0.1875 0.5775,0 0.9975,0.165 0.42,0.165 0.69,0.42 0.27,0.255 0.3975,0.5625 0.135,0.3075 0.135,0.585 z m -2.295,-0.7725 q -0.4725,0 -0.87,0.195 -0.3975,0.195 -0.705,0.54 -0.3075,0.3375 -0.525,0.8025 -0.2175,0.4575 -0.3375,0.99 1.155,-0.1425 1.8525,-0.3225 0.6975,-0.1875 1.0725,-0.3975 0.375,-0.2175 0.495,-0.465 0.12,-0.2475 0.12,-0.5175 0,-0.135 -0.06,-0.2775 -0.06,-0.15 -0.195,-0.27 -0.1275,-0.12 -0.3375,-0.195 -0.21,-0.0825 -0.51,-0.0825 z" /><path
         id="path287"
         style="font-style:italic;font-size:15px;fill:#666666"
         d="m 120.6427,143.63003 q -0.06,0.09 -0.12,0.135 -0.06,0.0375 -0.15,0.0375 -0.105,0 -0.2325,-0.0825 -0.12,-0.0825 -0.3,-0.18 -0.1725,-0.105 -0.4275,-0.1875 -0.255,-0.09 -0.615,-0.09 -0.3375,0 -0.615,0.0975 -0.2775,0.09 -0.48,0.255 -0.195,0.165 -0.3075,0.39 -0.105,0.2175 -0.105,0.465 0,0.3525 0.2325,0.5625 0.2325,0.21 0.585,0.3675 0.3525,0.15 0.7575,0.2925 0.405,0.1425 0.7575,0.36 0.3525,0.2175 0.585,0.555 0.2325,0.3375 0.2325,0.8775 0,0.525 -0.21,1.005 -0.2025,0.48 -0.5925,0.8475 -0.3825,0.36 -0.93,0.5775 -0.54,0.2175 -1.215,0.2175 -0.7275,0 -1.29,-0.255 -0.555,-0.2625 -0.9075,-0.6675 l 0.33,-0.51 q 0.0675,-0.0975 0.1425,-0.15 0.0825,-0.0525 0.21,-0.0525 0.12,0 0.24,0.105 0.12,0.105 0.3,0.24 0.18,0.1275 0.45,0.2325 0.2775,0.105 0.6975,0.105 0.3675,0 0.66,-0.1125 0.3,-0.1125 0.5025,-0.3 0.21,-0.1875 0.315,-0.435 0.1125,-0.255 0.1125,-0.54 0,-0.3825 -0.2325,-0.6075 -0.2325,-0.225 -0.585,-0.375 -0.3525,-0.15 -0.7575,-0.2775 -0.405,-0.135 -0.7575,-0.3375 -0.3525,-0.21 -0.585,-0.54 -0.2325,-0.33 -0.2325,-0.8775 0,-0.48 0.1875,-0.9225 0.195,-0.45 0.555,-0.795 0.36,-0.345 0.87,-0.5475 0.5175,-0.21 1.1625,-0.21 0.6825,0 1.2,0.2325 0.525,0.225 0.9,0.615 l -0.3375,0.48 z" /><path
         id="path289"
         style="font-style:italic;font-size:15px;fill:#666666"
         d="m 121.43606,152.58503 1.2375,-10.1775 0.66,0 q 0.45,0 0.45,0.45 l -0.1275,1.62 q 0.285,-0.495 0.6225,-0.8925 0.3375,-0.405 0.705,-0.69 0.375,-0.285 0.78,-0.435 0.405,-0.1575 0.825,-0.1575 0.975,0 1.5075,0.705 0.54,0.705 0.54,2.0625 0,0.615 -0.1275,1.23 -0.1275,0.615 -0.3675,1.1775 -0.2325,0.555 -0.57,1.0425 -0.33,0.48 -0.7425,0.84 -0.405,0.3525 -0.885,0.555 -0.48,0.2025 -1.005,0.2025 -0.5625,0 -1.0275,-0.2175 -0.4575,-0.225 -0.7725,-0.63 l -0.405,3.315 -1.2975,0 z m 4.65,-9.21 q -0.36,0 -0.7275,0.225 -0.3675,0.2175 -0.7125,0.615 -0.3375,0.3975 -0.6375,0.945 -0.3,0.5475 -0.5175,1.2 l -0.24,1.9875 q 0.285,0.3975 0.6825,0.57 0.3975,0.165 0.81,0.165 0.39,0 0.735,-0.165 0.345,-0.165 0.63,-0.4425 0.285,-0.285 0.51,-0.66 0.225,-0.3825 0.375,-0.81 0.1575,-0.435 0.24,-0.8925 0.0825,-0.465 0.0825,-0.915 0,-0.8925 -0.3225,-1.3575 -0.3225,-0.465 -0.9075,-0.465 z" /><path
         id="path291"
         style="font-style:italic;font-size:15px;fill:#666666"
         d="m 135.84802,144.04253 q 0,0.495 -0.2025,0.915 -0.2025,0.4125 -0.7425,0.75 -0.54,0.33 -1.485,0.5775 -0.945,0.2475 -2.43,0.3975 -0.007,0.0825 -0.007,0.165 0,0.075 0,0.1575 0,1.005 0.435,1.5375 0.4425,0.525 1.3275,0.525 0.36,0 0.6375,-0.075 0.285,-0.075 0.5025,-0.18 0.225,-0.1125 0.39,-0.24 0.1725,-0.135 0.3075,-0.24 0.1425,-0.1125 0.2625,-0.1875 0.12,-0.075 0.24,-0.075 0.1425,0 0.255,0.1275 l 0.33,0.4125 q -0.3825,0.3975 -0.75,0.6825 -0.3675,0.2775 -0.75,0.465 -0.375,0.1875 -0.795,0.27 -0.4125,0.09 -0.8925,0.09 -0.6525,0 -1.17,-0.2175 -0.5175,-0.2175 -0.8775,-0.615 -0.36,-0.405 -0.555,-0.975 -0.195,-0.57 -0.195,-1.275 0,-0.585 0.12,-1.1625 0.1275,-0.585 0.36,-1.11 0.24,-0.525 0.5775,-0.975 0.345,-0.45 0.78,-0.7725 0.4425,-0.33 0.9675,-0.5175 0.5325,-0.1875 1.14,-0.1875 0.5775,0 0.9975,0.165 0.42,0.165 0.69,0.42 0.27,0.255 0.3975,0.5625 0.135,0.3075 0.135,0.585 z m -2.295,-0.7725 q -0.4725,0 -0.87,0.195 -0.3975,0.195 -0.705,0.54 -0.3075,0.3375 -0.525,0.8025 -0.2175,0.4575 -0.3375,0.99 1.155,-0.1425 1.8525,-0.3225 0.6975,-0.1875 1.0725,-0.3975 0.375,-0.2175 0.495,-0.465 0.12,-0.2475 0.12,-0.5175 0,-0.135 -0.06,-0.2775 -0.06,-0.15 -0.195,-0.27 -0.1275,-0.12 -0.3375,-0.195 -0.21,-0.0825 -0.51,-0.0825 z" /><path
         id="path293"
         style="font-style:italic;font-size:15px;fill:#666666"
         d="m 142.56075,148.64753 q -0.39,0.4275 -0.7425,0.7125 -0.3525,0.285 -0.705,0.4575 -0.3525,0.165 -0.735,0.2325 -0.375,0.0675 -0.81,0.0675 -0.66,0 -1.17,-0.225 -0.5025,-0.225 -0.8475,-0.63 -0.3375,-0.4125 -0.5175,-0.9825 -0.1725,-0.5775 -0.1725,-1.2675 0,-0.9225 0.285,-1.77 0.2925,-0.8475 0.81,-1.5 0.5175,-0.6525 1.23,-1.0425 0.72,-0.39 1.5675,-0.39 0.7575,0 1.2675,0.27 0.51,0.2625 0.8925,0.7725 l -0.42,0.5025 q -0.0525,0.06 -0.12,0.0975 -0.06,0.0375 -0.1425,0.0375 -0.105,0 -0.21,-0.09 -0.0975,-0.0975 -0.2625,-0.21 -0.165,-0.12 -0.4125,-0.21 -0.24,-0.0975 -0.6225,-0.0975 -0.5175,0 -0.975,0.285 -0.4575,0.2775 -0.8025,0.765 -0.345,0.4875 -0.5475,1.155 -0.195,0.6675 -0.195,1.4325 0,0.465 0.105,0.8475 0.105,0.375 0.315,0.645 0.21,0.2625 0.51,0.4125 0.3075,0.1425 0.7125,0.1425 0.5025,0 0.84,-0.15 0.345,-0.15 0.5775,-0.3225 0.2325,-0.18 0.39,-0.33 0.165,-0.15 0.3225,-0.15 0.1425,0 0.255,0.1275 l 0.33,0.405 0,0 z" /><path
         id="path295"
         style="font-style:italic;font-size:15px;fill:#666666"
         d="m 144.29442,148.58003 q 0,-0.045 0,-0.1125 0,-0.075 0.007,-0.21 0.015,-0.135 0.0375,-0.3525 0.03,-0.2175 0.075,-0.57 l 0.465,-3.8025 -0.8475,0 q -0.105,0 -0.1725,-0.0675 -0.06,-0.075 -0.045,-0.225 l 0.06,-0.5325 1.17,-0.1575 0.57,-2.3475 q 0.0375,-0.1125 0.1125,-0.18 0.0825,-0.075 0.2025,-0.075 l 0.6975,0 -0.3225,2.6175 1.995,0 -0.1125,0.9675 -2.0025,0 -0.4575,3.735 q -0.0375,0.3075 -0.06,0.495 -0.0225,0.1875 -0.0375,0.3 -0.008,0.1125 -0.015,0.1575 0,0.045 0,0.0675 0,0.3825 0.18,0.57 0.18,0.18 0.48,0.18 0.2025,0 0.345,-0.0525 0.15,-0.06 0.2625,-0.1275 0.1125,-0.0675 0.1875,-0.12 0.075,-0.06 0.1275,-0.06 0.0675,0 0.0975,0.03 0.0375,0.03 0.0675,0.0975 l 0.285,0.6375 q -0.3675,0.3225 -0.84,0.51 -0.465,0.18 -0.9375,0.18 -0.7275,0 -1.1475,-0.3975 -0.4125,-0.3975 -0.4275,-1.155 z" /><path
         id="path297"
         style="font-style:italic;font-size:15px;fill:#666666"
         d="m 153.92395,143.63003 q -0.06,0.09 -0.12,0.135 -0.06,0.0375 -0.15,0.0375 -0.105,0 -0.2325,-0.0825 -0.12,-0.0825 -0.3,-0.18 -0.1725,-0.105 -0.4275,-0.1875 -0.255,-0.09 -0.615,-0.09 -0.3375,0 -0.615,0.0975 -0.2775,0.09 -0.48,0.255 -0.195,0.165 -0.3075,0.39 -0.105,0.2175 -0.105,0.465 0,0.3525 0.2325,0.5625 0.2325,0.21 0.585,0.3675 0.3525,0.15 0.7575,0.2925 0.405,0.1425 0.7575,0.36 0.3525,0.2175 0.585,0.555 0.2325,0.3375 0.2325,0.8775 0,0.525 -0.21,1.005 -0.2025,0.48 -0.5925,0.8475 -0.3825,0.36 -0.93,0.5775 -0.54,0.2175 -1.215,0.2175 -0.7275,0 -1.29,-0.255 -0.555,-0.2625 -0.9075,-0.6675 l 0.33,-0.51 q 0.0675,-0.0975 0.1425,-0.15 0.0825,-0.0525 0.21,-0.0525 0.12,0 0.24,0.105 0.12,0.105 0.3,0.24 0.18,0.1275 0.45,0.2325 0.2775,0.105 0.6975,0.105 0.3675,0 0.66,-0.1125 0.3,-0.1125 0.5025,-0.3 0.21,-0.1875 0.315,-0.435 0.1125,-0.255 0.1125,-0.54 0,-0.3825 -0.2325,-0.6075 -0.2325,-0.225 -0.585,-0.375 -0.3525,-0.15 -0.7575,-0.2775 -0.405,-0.135 -0.7575,-0.3375 -0.3525,-0.21 -0.585,-0.54 -0.2325,-0.33 -0.2325,-0.8775 0,-0.48 0.1875,-0.9225 0.195,-0.45 0.555,-0.795 0.36,-0.345 0.87,-0.5475 0.5175,-0.21 1.1625,-0.21 0.6825,0 1.2,0.2325 0.525,0.225 0.9,0.615 l -0.3375,0.48 z" /><path
         id="path299"
         style="font-style:italic;font-size:15px;fill:#666666"
         d="m 164.24044,148.64753 q -0.39,0.4275 -0.7425,0.7125 -0.3525,0.285 -0.705,0.4575 -0.3525,0.165 -0.735,0.2325 -0.375,0.0675 -0.81,0.0675 -0.66,0 -1.17,-0.225 -0.5025,-0.225 -0.8475,-0.63 -0.3375,-0.4125 -0.5175,-0.9825 -0.1725,-0.5775 -0.1725,-1.2675 0,-0.9225 0.285,-1.77 0.2925,-0.8475 0.81,-1.5 0.5175,-0.6525 1.23,-1.0425 0.72,-0.39 1.5675,-0.39 0.7575,0 1.2675,0.27 0.51,0.2625 0.8925,0.7725 l -0.42,0.5025 q -0.0525,0.06 -0.12,0.0975 -0.06,0.0375 -0.1425,0.0375 -0.105,0 -0.21,-0.09 -0.0975,-0.0975 -0.2625,-0.21 -0.165,-0.12 -0.4125,-0.21 -0.24,-0.0975 -0.6225,-0.0975 -0.5175,0 -0.975,0.285 -0.4575,0.2775 -0.8025,0.765 -0.345,0.4875 -0.5475,1.155 -0.195,0.6675 -0.195,1.4325 0,0.465 0.105,0.8475 0.105,0.375 0.315,0.645 0.21,0.2625 0.51,0.4125 0.3075,0.1425 0.7125,0.1425 0.5025,0 0.84,-0.15 0.345,-0.15 0.5775,-0.3225 0.2325,-0.18 0.39,-0.33 0.165,-0.15 0.3225,-0.15 0.1425,0 0.255,0.1275 l 0.33,0.405 0,0 z" /><path
         id="path301"
         style="font-style:italic;font-size:15px;fill:#666666"
         d="m 168.18263,149.07503 q 0.5475,0 0.99,-0.3 0.45,-0.3 0.765,-0.795 0.3225,-0.5025 0.495,-1.155 0.1725,-0.6525 0.1725,-1.365 0,-1.05 -0.42,-1.575 -0.4125,-0.5325 -1.1925,-0.5325 -0.555,0 -1.005,0.3 -0.4425,0.2925 -0.7575,0.7875 -0.315,0.495 -0.4875,1.1475 -0.1725,0.6525 -0.1725,1.365 0,1.05 0.4125,1.59 0.4125,0.5325 1.2,0.5325 z m -0.1275,1.0425 q -0.6225,0 -1.14,-0.21 -0.5175,-0.2175 -0.8925,-0.6225 -0.375,-0.405 -0.585,-0.99 -0.21,-0.585 -0.21,-1.335 0,-0.96 0.3,-1.8075 0.3,-0.8475 0.825,-1.4775 0.525,-0.6375 1.23,-1.005 0.7125,-0.3675 1.53,-0.3675 0.6225,0 1.14,0.2175 0.5175,0.21 0.8925,0.615 0.375,0.405 0.585,0.99 0.21,0.585 0.21,1.3275 0,0.9525 -0.3,1.8 -0.3,0.8475 -0.825,1.485 -0.5175,0.6375 -1.23,1.0125 -0.7125,0.3675 -1.53,0.3675 z" /><path
         id="path303"
         style="font-style:italic;font-size:15px;fill:#666666"
         d="m 178.26309,150.01253 q -0.2625,0 -0.3525,-0.135 -0.09,-0.135 -0.09,-0.33 l 0.1425,-1.5975 q -0.285,0.495 -0.6225,0.8925 -0.3375,0.3975 -0.7125,0.6825 -0.3675,0.285 -0.7725,0.4425 -0.3975,0.15 -0.81,0.15 -0.975,0 -1.515,-0.705 -0.54,-0.7125 -0.54,-2.0625 0,-0.615 0.1275,-1.23 0.1275,-0.615 0.36,-1.1775 0.24,-0.5625 0.57,-1.0425 0.3375,-0.4875 0.75,-0.84 0.4125,-0.3525 0.885,-0.555 0.48,-0.2025 1.005,-0.2025 0.5625,0 1.02,0.225 0.465,0.2175 0.78,0.6225 l 0.525,-4.185 1.305,0 -1.3575,11.0475 -0.6975,0 z m -2.715,-0.9675 q 0.36,0 0.72,-0.225 0.3675,-0.225 0.705,-0.6225 0.345,-0.3975 0.645,-0.945 0.3,-0.555 0.5175,-1.2075 l 0.24,-1.9725 q -0.285,-0.3975 -0.69,-0.5625 -0.3975,-0.165 -0.8025,-0.165 -0.5925,0 -1.065,0.3525 -0.4725,0.3525 -0.81,0.915 -0.33,0.555 -0.51,1.245 -0.18,0.69 -0.18,1.3575 0,0.8925 0.315,1.365 0.3225,0.465 0.915,0.465 z" /><path
         id="path305"
         style="font-style:italic;font-size:15px;fill:#666666"
         d="m 183.91505,149.07503 q 0.5475,0 0.99,-0.3 0.45,-0.3 0.765,-0.795 0.3225,-0.5025 0.495,-1.155 0.1725,-0.6525 0.1725,-1.365 0,-1.05 -0.42,-1.575 -0.4125,-0.5325 -1.1925,-0.5325 -0.555,0 -1.005,0.3 -0.4425,0.2925 -0.7575,0.7875 -0.315,0.495 -0.4875,1.1475 -0.1725,0.6525 -0.1725,1.365 0,1.05 0.4125,1.59 0.4125,0.5325 1.2,0.5325 z m -0.1275,1.0425 q -0.6225,0 -1.14,-0.21 -0.5175,-0.2175 -0.8925,-0.6225 -0.375,-0.405 -0.585,-0.99 -0.21,-0.585 -0.21,-1.335 0,-0.96 0.3,-1.8075 0.3,-0.8475 0.825,-1.4775 0.525,-0.6375 1.23,-1.005 0.7125,-0.3675 1.53,-0.3675 0.6225,0 1.14,0.2175 0.5175,0.21 0.8925,0.615 0.375,0.405 0.585,0.99 0.21,0.585 0.21,1.3275 0,0.9525 -0.3,1.8 -0.3,0.8475 -0.825,1.485 -0.5175,0.6375 -1.23,1.0125 -0.7125,0.3675 -1.53,0.3675 z" /><path
         id="path307"
         style="font-style:italic;font-size:15px;fill:#666666"
         d="m 188.75302,150.01253 0.915,-7.605 0.66,0 q 0.45,0 0.45,0.45 l -0.1125,1.4775 q 0.6075,-1.005 1.3725,-1.515 0.765,-0.5175 1.575,-0.5175 0.48,0 0.84,0.195 0.3675,0.1875 0.5925,0.555 0.2325,0.3675 0.315,0.9075 0.0825,0.5325 0,1.215 l -0.57,4.8375 -1.3275,0 0.57,-4.8375 q 0.105,-0.9 -0.1125,-1.3275 -0.2175,-0.435 -0.8025,-0.435 -0.36,0 -0.735,0.195 -0.3675,0.195 -0.7125,0.555 -0.345,0.36 -0.645,0.87 -0.2925,0.5025 -0.5025,1.125 l -0.435,3.855 -1.335,0 z" /><path
         id="path309"
         style="font-style:italic;font-size:15px;fill:#666666"
         d="m 201.58997,143.63003 q -0.06,0.09 -0.12,0.135 -0.06,0.0375 -0.15,0.0375 -0.105,0 -0.2325,-0.0825 -0.12,-0.0825 -0.3,-0.18 -0.1725,-0.105 -0.4275,-0.1875 -0.255,-0.09 -0.615,-0.09 -0.3375,0 -0.615,0.0975 -0.2775,0.09 -0.48,0.255 -0.195,0.165 -0.3075,0.39 -0.105,0.2175 -0.105,0.465 0,0.3525 0.2325,0.5625 0.2325,0.21 0.585,0.3675 0.3525,0.15 0.7575,0.2925 0.405,0.1425 0.7575,0.36 0.3525,0.2175 0.585,0.555 0.2325,0.3375 0.2325,0.8775 0,0.525 -0.21,1.005 -0.2025,0.48 -0.5925,0.8475 -0.3825,0.36 -0.93,0.5775 -0.54,0.2175 -1.215,0.2175 -0.7275,0 -1.29,-0.255 -0.555,-0.2625 -0.9075,-0.6675 l 0.33,-0.51 q 0.0675,-0.0975 0.1425,-0.15 0.0825,-0.0525 0.21,-0.0525 0.12,0 0.24,0.105 0.12,0.105 0.3,0.24 0.18,0.1275 0.45,0.2325 0.2775,0.105 0.6975,0.105 0.3675,0 0.66,-0.1125 0.3,-0.1125 0.5025,-0.3 0.21,-0.1875 0.315,-0.435 0.1125,-0.255 0.1125,-0.54 0,-0.3825 -0.2325,-0.6075 -0.2325,-0.225 -0.585,-0.375 -0.3525,-0.15 -0.7575,-0.2775 -0.405,-0.135 -0.7575,-0.3375 -0.3525,-0.21 -0.585,-0.54 -0.2325,-0.33 -0.2325,-0.8775 0,-0.48 0.1875,-0.9225 0.195,-0.45 0.555,-0.795 0.36,-0.345 0.87,-0.5475 0.5175,-0.21 1.1625,-0.21 0.6825,0 1.2,0.2325 0.525,0.225 0.9,0.615 l -0.3375,0.48 z" /></g><g
       id="text4552"
       style="font-style:normal;font-variant:normal;font-weight:normal;font-stretch:normal;font-size:17.5px;line-height:125%;font-family:Lato;-inkscape-font-specification:'Lato, Normal';text-align:start;letter-spacing:0px;word-spacing:0px;writing-mode:lr-tb;text-anchor:start;display:inline;fill:#000000;fill-opacity:1;stroke:none;stroke-width:1px;stroke-linecap:butt;stroke-linejoin:miter;stroke-opacity:1"
       transform="translate(-102.67419,-60.75008)"><path
         id="path312"
         style="font-style:italic;font-size:15px;fill:#666666"
         d="m 108.94669,72.797585 q -0.2625,0 -0.3525,-0.135 -0.09,-0.135 -0.09,-0.33 l 0.1425,-1.5975 q -0.285,0.495 -0.6225,0.8925 -0.3375,0.3975 -0.7125,0.6825 -0.3675,0.285 -0.7725,0.4425 -0.3975,0.15 -0.81,0.15 -0.975,0 -1.515,-0.705 -0.54,-0.7125 -0.54,-2.0625 0,-0.615 0.1275,-1.23 0.1275,-0.615 0.36,-1.1775 0.24,-0.5625 0.57,-1.0425 0.3375,-0.4875 0.75,-0.84 0.4125,-0.3525 0.885,-0.555 0.48,-0.2025 1.005,-0.2025 0.5625,0 1.02,0.225 0.465,0.2175 0.78,0.6225 l 0.525,-4.185 1.305,0 -1.3575,11.0475 -0.6975,0 z m -2.715,-0.9675 q 0.36,0 0.72,-0.225 0.3675,-0.225 0.705,-0.6225 0.345,-0.3975 0.645,-0.945 0.3,-0.555 0.5175,-1.2075 l 0.24,-1.9725 q -0.285,-0.3975 -0.69,-0.5625 -0.3975,-0.165 -0.8025,-0.165 -0.5925,0 -1.065,0.3525 -0.4725,0.3525 -0.81,0.915 -0.33,0.555 -0.51,1.245 -0.18,0.69 -0.18,1.3575 0,0.8925 0.315,1.365 0.3225,0.465 0.915,0.465 z" /><path
         id="path314"
         style="font-style:italic;font-size:15px;fill:#666666"
         d="m 114.59864,71.860085 q 0.5475,0 0.99,-0.3 0.45,-0.3 0.765,-0.795 0.3225,-0.5025 0.495,-1.155 0.1725,-0.6525 0.1725,-1.365 0,-1.05 -0.42,-1.575 -0.4125,-0.5325 -1.1925,-0.5325 -0.555,0 -1.005,0.3 -0.4425,0.2925 -0.7575,0.7875 -0.315,0.495 -0.4875,1.1475 -0.1725,0.6525 -0.1725,1.365 0,1.05 0.4125,1.59 0.4125,0.5325 1.2,0.5325 z m -0.1275,1.0425 q -0.6225,0 -1.14,-0.21 -0.5175,-0.2175 -0.8925,-0.6225 -0.375,-0.405 -0.585,-0.99 -0.21,-0.585 -0.21,-1.335 0,-0.96 0.3,-1.8075 0.3,-0.8475 0.825,-1.4775 0.525,-0.6375 1.23,-1.005 0.7125,-0.3675 1.53,-0.3675 0.6225,0 1.14,0.2175 0.5175,0.21 0.8925,0.615 0.375,0.405 0.585,0.99 0.21,0.585 0.21,1.3275 0,0.9525 -0.3,1.8 -0.3,0.8475 -0.825,1.485 -0.5175,0.6375 -1.23,1.0125 -0.7125,0.3675 -1.53,0.3675 z" /><path
         id="path316"
         style="font-style:italic;font-size:15px;fill:#666666"
         d="m 125.59411,66.827585 q 0,0.495 -0.2025,0.915 -0.2025,0.4125 -0.7425,0.75 -0.54,0.33 -1.485,0.5775 -0.945,0.2475 -2.43,0.3975 -0.008,0.0825 -0.008,0.165 0,0.075 0,0.1575 0,1.005 0.435,1.5375 0.4425,0.525 1.3275,0.525 0.36,0 0.6375,-0.075 0.285,-0.075 0.5025,-0.18 0.225,-0.1125 0.39,-0.24 0.1725,-0.135 0.3075,-0.24 0.1425,-0.1125 0.2625,-0.1875 0.12,-0.075 0.24,-0.075 0.1425,0 0.255,0.1275 l 0.33,0.4125 q -0.3825,0.3975 -0.75,0.6825 -0.3675,0.2775 -0.75,0.465 -0.375,0.1875 -0.795,0.27 -0.4125,0.09 -0.8925,0.09 -0.6525,0 -1.17,-0.2175 -0.5175,-0.2175 -0.8775,-0.615 -0.36,-0.405 -0.555,-0.975 -0.195,-0.57 -0.195,-1.275 0,-0.585 0.12,-1.1625 0.1275,-0.585 0.36,-1.11 0.24,-0.525 0.5775,-0.975 0.345,-0.45 0.78,-0.7725 0.4425,-0.33 0.9675,-0.5175 0.5325,-0.1875 1.14,-0.1875 0.5775,0 0.9975,0.165 0.42,0.165 0.69,0.42 0.27,0.255 0.3975,0.5625 0.135,0.3075 0.135,0.585 z m -2.295,-0.7725 q -0.4725,0 -0.87,0.195 -0.3975,0.195 -0.705,0.54 -0.3075,0.3375 -0.525,0.8025 -0.2175,0.4575 -0.3375,0.99 1.155,-0.1425 1.8525,-0.3225 0.6975,-0.1875 1.0725,-0.3975 0.375,-0.2175 0.495,-0.465 0.12,-0.2475 0.12,-0.5175 0,-0.135 -0.06,-0.2775 -0.06,-0.15 -0.195,-0.27 -0.1275,-0.12 -0.3375,-0.195 -0.21,-0.0825 -0.51,-0.0825 z" /><path
         id="path318"
         style="font-style:italic;font-size:15px;fill:#666666"
         d="m 131.51184,66.415085 q -0.06,0.09 -0.12,0.135 -0.06,0.0375 -0.15,0.0375 -0.105,0 -0.2325,-0.0825 -0.12,-0.0825 -0.3,-0.18 -0.1725,-0.105 -0.4275,-0.1875 -0.255,-0.09 -0.615,-0.09 -0.3375,0 -0.615,0.0975 -0.2775,0.09 -0.48,0.255 -0.195,0.165 -0.3075,0.39 -0.105,0.2175 -0.105,0.465 0,0.3525 0.2325,0.5625 0.2325,0.21 0.585,0.3675 0.3525,0.15 0.7575,0.2925 0.405,0.1425 0.7575,0.36 0.3525,0.2175 0.585,0.555 0.2325,0.3375 0.2325,0.8775 0,0.525 -0.21,1.005 -0.2025,0.48 -0.5925,0.8475 -0.3825,0.36 -0.93,0.5775 -0.54,0.2175 -1.215,0.2175 -0.7275,0 -1.29,-0.255 -0.555,-0.2625 -0.9075,-0.6675 l 0.33,-0.51 q 0.0675,-0.0975 0.1425,-0.15 0.0825,-0.0525 0.21,-0.0525 0.12,0 0.24,0.105 0.12,0.105 0.3,0.24 0.18,0.1275 0.45,0.2325 0.2775,0.105 0.6975,0.105 0.3675,0 0.66,-0.1125 0.3,-0.1125 0.5025,-0.3 0.21,-0.1875 0.315,-0.435 0.1125,-0.255 0.1125,-0.54 0,-0.3825 -0.2325,-0.6075 -0.2325,-0.225 -0.585,-0.375 -0.3525,-0.15 -0.7575,-0.2775 -0.405,-0.135 -0.7575,-0.3375 -0.3525,-0.21 -0.585,-0.54 -0.2325,-0.33 -0.2325,-0.8775 0,-0.48 0.1875,-0.9225 0.195,-0.45 0.555,-0.795 0.36,-0.345 0.87,-0.5475 0.5175,-0.21 1.1625,-0.21 0.6825,0 1.2,0.2325 0.525,0.225 0.9,0.615 l -0.3375,0.48 z" /><path
         id="path320"
         style="font-style:italic;font-size:15px;fill:#666666"
         d="m 132.6202,72.797585 0.915,-7.605 0.66,0 q 0.45,0 0.45,0.45 l -0.1125,1.4775 q 0.6075,-1.005 1.3725,-1.515 0.765,-0.5175 1.575,-0.5175 0.48,0 0.84,0.195 0.3675,0.1875 0.5925,0.555 0.2325,0.3675 0.315,0.9075 0.0825,0.5325 0,1.215 l -0.57,4.8375 -1.3275,0 0.57,-4.8375 q 0.105,-0.9 -0.1125,-1.3275 -0.2175,-0.435 -0.8025,-0.435 -0.36,0 -0.735,0.195 -0.3675,0.195 -0.7125,0.555 -0.345,0.36 -0.645,0.87 -0.2925,0.5025 -0.5025,1.125 l -0.435,3.855 -1.335,0 z" /><path
         id="path322"
         style="font-style:italic;font-size:15px;fill:#666666"
         d="m 142.59169,62.065085 -0.27,2.1675 -0.255,1.1625 q -0.06,0.2325 -0.1725,0.36 -0.1125,0.1275 -0.3375,0.1275 -0.195,0 -0.285,-0.1275 -0.0825,-0.1275 -0.0975,-0.36 l 0.0225,-1.1625 0.2775,-2.1675 1.1175,0 z" /><path
         id="path324"
         style="font-style:italic;font-size:15px;fill:#666666"
         d="m 143.79638,71.365085 q 0,-0.045 0,-0.1125 0,-0.075 0.007,-0.21 0.015,-0.135 0.0375,-0.3525 0.03,-0.2175 0.075,-0.57 l 0.465,-3.8025 -0.8475,0 q -0.105,0 -0.1725,-0.0675 -0.06,-0.075 -0.045,-0.225 l 0.06,-0.5325 1.17,-0.1575 0.57,-2.3475 q 0.0375,-0.1125 0.1125,-0.18 0.0825,-0.075 0.2025,-0.075 l 0.6975,0 -0.3225,2.6175 1.995,0 -0.1125,0.9675 -2.0025,0 -0.4575,3.735 q -0.0375,0.3075 -0.06,0.495 -0.0225,0.1875 -0.0375,0.3 -0.007,0.1125 -0.015,0.1575 0,0.045 0,0.0675 0,0.3825 0.18,0.57 0.18,0.18 0.48,0.18 0.2025,0 0.345,-0.0525 0.15,-0.06 0.2625,-0.1275 0.1125,-0.0675 0.1875,-0.12 0.075,-0.06 0.1275,-0.06 0.0675,0 0.0975,0.03 0.0375,0.03 0.0675,0.0975 l 0.285,0.6375 q -0.3675,0.3225 -0.84,0.51 -0.465,0.18 -0.9375,0.18 -0.7275,0 -1.1475,-0.3975 -0.4125,-0.3975 -0.4275,-1.155 z" /><path
         id="path326"
         style="font-style:italic;font-size:15px;fill:#666666"
         d="m 152.04403,72.797585 0.915,-7.605 0.66,0 q 0.4575,0 0.4575,0.45 l -0.1275,1.68 q 0.3,-0.6375 0.645,-1.1025 0.3525,-0.4725 0.735,-0.735 0.3825,-0.27 0.7875,-0.33 0.405,-0.06 0.825,0.12 l -0.24,1.2825 q -0.9825,-0.39 -1.725,0.2775 -0.735,0.6675 -1.2075,2.4375 l -0.42,3.525 -1.305,0 z" /><path
         id="path328"
         style="font-style:italic;font-size:15px;fill:#666666"
         d="m 163.06481,66.827585 q 0,0.495 -0.2025,0.915 -0.2025,0.4125 -0.7425,0.75 -0.54,0.33 -1.485,0.5775 -0.945,0.2475 -2.43,0.3975 -0.008,0.0825 -0.008,0.165 0,0.075 0,0.1575 0,1.005 0.435,1.5375 0.4425,0.525 1.3275,0.525 0.36,0 0.6375,-0.075 0.285,-0.075 0.5025,-0.18 0.225,-0.1125 0.39,-0.24 0.1725,-0.135 0.3075,-0.24 0.1425,-0.1125 0.2625,-0.1875 0.12,-0.075 0.24,-0.075 0.1425,0 0.255,0.1275 l 0.33,0.4125 q -0.3825,0.3975 -0.75,0.6825 -0.3675,0.2775 -0.75,0.465 -0.375,0.1875 -0.795,0.27 -0.4125,0.09 -0.8925,0.09 -0.6525,0 -1.17,-0.2175 -0.5175,-0.2175 -0.8775,-0.615 -0.36,-0.405 -0.555,-0.975 -0.195,-0.57 -0.195,-1.275 0,-0.585 0.12,-1.1625 0.1275,-0.585 0.36,-1.11 0.24,-0.525 0.5775,-0.975 0.345,-0.45 0.78,-0.7725 0.4425,-0.33 0.9675,-0.5175 0.5325,-0.1875 1.14,-0.1875 0.5775,0 0.9975,0.165 0.42,0.165 0.69,0.42 0.27,0.255 0.3975,0.5625 0.135,0.3075 0.135,0.585 z m -2.295,-0.7725 q -0.4725,0 -0.87,0.195 -0.3975,0.195 -0.705,0.54 -0.3075,0.3375 -0.525,0.8025 -0.2175,0.4575 -0.3375,0.99 1.155,-0.1425 1.8525,-0.3225 0.6975,-0.1875 1.0725,-0.3975 0.375,-0.2175 0.495,-0.465 0.12,-0.2475 0.12,-0.5175 0,-0.135 -0.06,-0.2775 -0.06,-0.15 -0.195,-0.27 -0.1275,-0.12 -0.3375,-0.195 -0.21,-0.0825 -0.51,-0.0825 z" /><path
         id="path330"
         style="font-style:italic;font-size:15px;fill:#666666"
         d="m 168.98255,66.415085 q -0.06,0.09 -0.12,0.135 -0.06,0.0375 -0.15,0.0375 -0.105,0 -0.2325,-0.0825 -0.12,-0.0825 -0.3,-0.18 -0.1725,-0.105 -0.4275,-0.1875 -0.255,-0.09 -0.615,-0.09 -0.3375,0 -0.615,0.0975 -0.2775,0.09 -0.48,0.255 -0.195,0.165 -0.3075,0.39 -0.105,0.2175 -0.105,0.465 0,0.3525 0.2325,0.5625 0.2325,0.21 0.585,0.3675 0.3525,0.15 0.7575,0.2925 0.405,0.1425 0.7575,0.36 0.3525,0.2175 0.585,0.555 0.2325,0.3375 0.2325,0.8775 0,0.525 -0.21,1.005 -0.2025,0.48 -0.5925,0.8475 -0.3825,0.36 -0.93,0.5775 -0.54,0.2175 -1.215,0.2175 -0.7275,0 -1.29,-0.255 -0.555,-0.2625 -0.9075,-0.6675 l 0.33,-0.51 q 0.0675,-0.0975 0.1425,-0.15 0.0825,-0.0525 0.21,-0.0525 0.12,0 0.24,0.105 0.12,0.105 0.3,0.24 0.18,0.1275 0.45,0.2325 0.2775,0.105 0.6975,0.105 0.3675,0 0.66,-0.1125 0.3,-0.1125 0.5025,-0.3 0.21,-0.1875 0.315,-0.435 0.1125,-0.255 0.1125,-0.54 0,-0.3825 -0.2325,-0.6075 -0.2325,-0.225 -0.585,-0.375 -0.3525,-0.15 -0.7575,-0.2775 -0.405,-0.135 -0.7575,-0.3375 -0.3525,-0.21 -0.585,-0.54 -0.2325,-0.33 -0.2325,-0.8775 0,-0.48 0.1875,-0.9225 0.195,-0.45 0.555,-0.795 0.36,-0.345 0.87,-0.5475 0.5175,-0.21 1.1625,-0.21 0.6825,0 1.2,0.2325 0.525,0.225 0.9,0.615 l -0.3375,0.48 z" /><path
         id="path332"
         style="font-style:italic;font-size:15px;fill:#666666"
         d="m 169.77591,75.370085 1.2375,-10.1775 0.66,0 q 0.45,0 0.45,0.45 l -0.1275,1.62 q 0.285,-0.495 0.6225,-0.8925 0.3375,-0.405 0.705,-0.69 0.375,-0.285 0.78,-0.435 0.405,-0.1575 0.825,-0.1575 0.975,0 1.5075,0.705 0.54,0.705 0.54,2.0625 0,0.615 -0.1275,1.23 -0.1275,0.615 -0.3675,1.1775 -0.2325,0.555 -0.57,1.0425 -0.33,0.48 -0.7425,0.84 -0.405,0.3525 -0.885,0.555 -0.48,0.2025 -1.005,0.2025 -0.5625,0 -1.0275,-0.2175 -0.4575,-0.225 -0.7725,-0.63 l -0.405,3.315 -1.2975,0 z m 4.65,-9.21 q -0.36,0 -0.7275,0.225 -0.3675,0.2175 -0.7125,0.615 -0.3375,0.3975 -0.6375,0.945 -0.3,0.5475 -0.5175,1.2 l -0.24,1.9875 q 0.285,0.3975 0.6825,0.57 0.3975,0.165 0.81,0.165 0.39,0 0.735,-0.165 0.345,-0.165 0.63,-0.4425 0.285,-0.285 0.51,-0.66 0.225,-0.3825 0.375,-0.81 0.1575,-0.435 0.24,-0.8925 0.0825,-0.465 0.0825,-0.915 0,-0.8925 -0.3225,-1.3575 -0.3225,-0.465 -0.9075,-0.465 z" /><path
         id="path334"
         style="font-style:italic;font-size:15px;fill:#666666"
         d="m 184.18786,66.827585 q 0,0.495 -0.2025,0.915 -0.2025,0.4125 -0.7425,0.75 -0.54,0.33 -1.485,0.5775 -0.945,0.2475 -2.43,0.3975 -0.007,0.0825 -0.007,0.165 0,0.075 0,0.1575 0,1.005 0.435,1.5375 0.4425,0.525 1.3275,0.525 0.36,0 0.6375,-0.075 0.285,-0.075 0.5025,-0.18 0.225,-0.1125 0.39,-0.24 0.1725,-0.135 0.3075,-0.24 0.1425,-0.1125 0.2625,-0.1875 0.12,-0.075 0.24,-0.075 0.1425,0 0.255,0.1275 l 0.33,0.4125 q -0.3825,0.3975 -0.75,0.6825 -0.3675,0.2775 -0.75,0.465 -0.375,0.1875 -0.795,0.27 -0.4125,0.09 -0.8925,0.09 -0.6525,0 -1.17,-0.2175 -0.5175,-0.2175 -0.8775,-0.615 -0.36,-0.405 -0.555,-0.975 -0.195,-0.57 -0.195,-1.275 0,-0.585 0.12,-1.1625 0.1275,-0.585 0.36,-1.11 0.24,-0.525 0.5775,-0.975 0.345,-0.45 0.78,-0.7725 0.4425,-0.33 0.9675,-0.5175 0.5325,-0.1875 1.14,-0.1875 0.5775,0 0.9975,0.165 0.42,0.165 0.69,0.42 0.27,0.255 0.3975,0.5625 0.135,0.3075 0.135,0.585 z m -2.295,-0.7725 q -0.4725,0 -0.87,0.195 -0.3975,0.195 -0.705,0.54 -0.3075,0.3375 -0.525,0.8025 -0.2175,0.4575 -0.3375,0.99 1.155,-0.1425 1.8525,-0.3225 0.6975,-0.1875 1.0725,-0.3975 0.375,-0.2175 0.495,-0.465 0.12,-0.2475 0.12,-0.5175 0,-0.135 -0.06,-0.2775 -0.06,-0.15 -0.195,-0.27 -0.1275,-0.12 -0.3375,-0.195 -0.21,-0.0825 -0.51,-0.0825 z" /><path
         id="path336"
         style="font-style:italic;font-size:15px;fill:#666666"
         d="m 190.90059,71.432585 q -0.39,0.4275 -0.7425,0.7125 -0.3525,0.285 -0.705,0.4575 -0.3525,0.165 -0.735,0.2325 -0.375,0.0675 -0.81,0.0675 -0.66,0 -1.17,-0.225 -0.5025,-0.225 -0.8475,-0.63 -0.3375,-0.4125 -0.5175,-0.9825 -0.1725,-0.5775 -0.1725,-1.2675 0,-0.9225 0.285,-1.77 0.2925,-0.8475 0.81,-1.5 0.5175,-0.6525 1.23,-1.0425 0.72,-0.39 1.5675,-0.39 0.7575,0 1.2675,0.27 0.51,0.2625 0.8925,0.7725 l -0.42,0.5025 q -0.0525,0.06 -0.12,0.0975 -0.06,0.0375 -0.1425,0.0375 -0.105,0 -0.21,-0.09 -0.0975,-0.0975 -0.2625,-0.21 -0.165,-0.12 -0.4125,-0.21 -0.24,-0.0975 -0.6225,-0.0975 -0.5175,0 -0.975,0.285 -0.4575,0.2775 -0.8025,0.765 -0.345,0.4875 -0.5475,1.155 -0.195,0.6675 -0.195,1.4325 0,0.465 0.105,0.8475 0.105,0.375 0.315,0.645 0.21,0.2625 0.51,0.4125 0.3075,0.1425 0.7125,0.1425 0.5025,0 0.84,-0.15 0.345,-0.15 0.5775,-0.3225 0.2325,-0.18 0.39,-0.33 0.165,-0.15 0.3225,-0.15 0.1425,0 0.255,0.1275 l 0.33,0.405 0,0 z" /><path
         id="path338"
         style="font-style:italic;font-size:15px;fill:#666666"
         d="m 192.63427,71.365085 q 0,-0.045 0,-0.1125 0,-0.075 0.008,-0.21 0.015,-0.135 0.0375,-0.3525 0.03,-0.2175 0.075,-0.57 l 0.465,-3.8025 -0.8475,0 q -0.105,0 -0.1725,-0.0675 -0.06,-0.075 -0.045,-0.225 l 0.06,-0.5325 1.17,-0.1575 0.57,-2.3475 q 0.0375,-0.1125 0.1125,-0.18 0.0825,-0.075 0.2025,-0.075 l 0.6975,0 -0.3225,2.6175 1.995,0 -0.1125,0.9675 -2.0025,0 -0.4575,3.735 q -0.0375,0.3075 -0.06,0.495 -0.0225,0.1875 -0.0375,0.3 -0.007,0.1125 -0.015,0.1575 0,0.045 0,0.0675 0,0.3825 0.18,0.57 0.18,0.18 0.48,0.18 0.2025,0 0.345,-0.0525 0.15,-0.06 0.2625,-0.1275 0.1125,-0.0675 0.1875,-0.12 0.075,-0.06 0.1275,-0.06 0.0675,0 0.0975,0.03 0.0375,0.03 0.0675,0.0975 l 0.285,0.6375 q -0.3675,0.3225 -0.84,0.51 -0.465,0.18 -0.9375,0.18 -0.7275,0 -1.1475,-0.3975 -0.4125,-0.3975 -0.4275,-1.155 z" /><path
         id="path340"
         style="font-style:italic;font-size:15px;fill:#666666"
         d="m 206.57442,71.432585 q -0.39,0.4275 -0.7425,0.7125 -0.3525,0.285 -0.705,0.4575 -0.3525,0.165 -0.735,0.2325 -0.375,0.0675 -0.81,0.0675 -0.66,0 -1.17,-0.225 -0.5025,-0.225 -0.8475,-0.63 -0.3375,-0.4125 -0.5175,-0.9825 -0.1725,-0.5775 -0.1725,-1.2675 0,-0.9225 0.285,-1.77 0.2925,-0.8475 0.81,-1.5 0.5175,-0.6525 1.23,-1.0425 0.72,-0.39 1.5675,-0.39 0.7575,0 1.2675,0.27 0.51,0.2625 0.8925,0.7725 l -0.42,0.5025 q -0.0525,0.06 -0.12,0.0975 -0.06,0.0375 -0.1425,0.0375 -0.105,0 -0.21,-0.09 -0.0975,-0.0975 -0.2625,-0.21 -0.165,-0.12 -0.4125,-0.21 -0.24,-0.0975 -0.6225,-0.0975 -0.5175,0 -0.975,0.285 -0.4575,0.2775 -0.8025,0.765 -0.345,0.4875 -0.5475,1.155 -0.195,0.6675 -0.195,1.4325 0,0.465 0.105,0.8475 0.105,0.375 0.315,0.645 0.21,0.2625 0.51,0.4125 0.3075,0.1425 0.7125,0.1425 0.5025,0 0.84,-0.15 0.345,-0.15 0.5775,-0.3225 0.2325,-0.18 0.39,-0.33 0.165,-0.15 0.3225,-0.15 0.1425,0 0.255,0.1275 l 0.33,0.405 0,0 z" /><path
         id="path342"
         style="font-style:italic;font-size:15px;fill:#666666"
         d="m 210.51661,71.860085 q 0.5475,0 0.99,-0.3 0.45,-0.3 0.765,-0.795 0.3225,-0.5025 0.495,-1.155 0.1725,-0.6525 0.1725,-1.365 0,-1.05 -0.42,-1.575 -0.4125,-0.5325 -1.1925,-0.5325 -0.555,0 -1.005,0.3 -0.4425,0.2925 -0.7575,0.7875 -0.315,0.495 -0.4875,1.1475 -0.1725,0.6525 -0.1725,1.365 0,1.05 0.4125,1.59 0.4125,0.5325 1.2,0.5325 z m -0.1275,1.0425 q -0.6225,0 -1.14,-0.21 -0.5175,-0.2175 -0.8925,-0.6225 -0.375,-0.405 -0.585,-0.99 -0.21,-0.585 -0.21,-1.335 0,-0.96 0.3,-1.8075 0.3,-0.8475 0.825,-1.4775 0.525,-0.6375 1.23,-1.005 0.7125,-0.3675 1.53,-0.3675 0.6225,0 1.14,0.2175 0.5175,0.21 0.8925,0.615 0.375,0.405 0.585,0.99 0.21,0.585 0.21,1.3275 0,0.9525 -0.3,1.8 -0.3,0.8475 -0.825,1.485 -0.5175,0.6375 -1.23,1.0125 -0.7125,0.3675 -1.53,0.3675 z" /><path
         id="path344"
         style="font-style:italic;font-size:15px;fill:#666666"
         d="m 220.59708,72.797585 q -0.2625,0 -0.3525,-0.135 -0.09,-0.135 -0.09,-0.33 l 0.1425,-1.5975 q -0.285,0.495 -0.6225,0.8925 -0.3375,0.3975 -0.7125,0.6825 -0.3675,0.285 -0.7725,0.4425 -0.3975,0.15 -0.81,0.15 -0.975,0 -1.515,-0.705 -0.54,-0.7125 -0.54,-2.0625 0,-0.615 0.1275,-1.23 0.1275,-0.615 0.36,-1.1775 0.24,-0.5625 0.57,-1.0425 0.3375,-0.4875 0.75,-0.84 0.4125,-0.3525 0.885,-0.555 0.48,-0.2025 1.005,-0.2025 0.5625,0 1.02,0.225 0.465,0.2175 0.78,0.6225 l 0.525,-4.185 1.305,0 -1.3575,11.0475 -0.6975,0 z m -2.715,-0.9675 q 0.36,0 0.72,-0.225 0.3675,-0.225 0.705,-0.6225 0.345,-0.3975 0.645,-0.945 0.3,-0.555 0.5175,-1.2075 l 0.24,-1.9725 q -0.285,-0.3975 -0.69,-0.5625 -0.3975,-0.165 -0.8025,-0.165 -0.5925,0 -1.065,0.3525 -0.4725,0.3525 -0.81,0.915 -0.33,0.555 -0.51,1.245 -0.18,0.69 -0.18,1.3575 0,0.8925 0.315,1.365 0.3225,0.465 0.915,0.465 z" /><path
         id="path346"
         style="font-style:italic;font-size:15px;fill:#666666"
         d="m 226.24903,71.860085 q 0.5475,0 0.99,-0.3 0.45,-0.3 0.765,-0.795 0.3225,-0.5025 0.495,-1.155 0.1725,-0.6525 0.1725,-1.365 0,-1.05 -0.42,-1.575 -0.4125,-0.5325 -1.1925,-0.5325 -0.555,0 -1.005,0.3 -0.4425,0.2925 -0.7575,0.7875 -0.315,0.495 -0.4875,1.1475 -0.1725,0.6525 -0.1725,1.365 0,1.05 0.4125,1.59 0.4125,0.5325 1.2,0.5325 z m -0.1275,1.0425 q -0.6225,0 -1.14,-0.21 -0.5175,-0.2175 -0.8925,-0.6225 -0.375,-0.405 -0.585,-0.99 -0.21,-0.585 -0.21,-1.335 0,-0.96 0.3,-1.8075 0.3,-0.8475 0.825,-1.4775 0.525,-0.6375 1.23,-1.005 0.7125,-0.3675 1.53,-0.3675 0.6225,0 1.14,0.2175 0.5175,0.21 0.8925,0.615 0.375,0.405 0.585,0.99 0.21,0.585 0.21,1.3275 0,0.9525 -0.3,1.8 -0.3,0.8475 -0.825,1.485 -0.5175,0.6375 -1.23,1.0125 -0.7125,0.3675 -1.53,0.3675 z" /><path
         id="path348"
         style="font-style:italic;font-size:15px;fill:#666666"
         d="m 231.087,72.797585 0.915,-7.605 0.66,0 q 0.45,0 0.45,0.45 l -0.1125,1.4775 q 0.6075,-1.005 1.3725,-1.515 0.765,-0.5175 1.575,-0.5175 0.48,0 0.84,0.195 0.3675,0.1875 0.5925,0.555 0.2325,0.3675 0.315,0.9075 0.0825,0.5325 0,1.215 l -0.57,4.8375 -1.3275,0 0.57,-4.8375 q 0.105,-0.9 -0.1125,-1.3275 -0.2175,-0.435 -0.8025,-0.435 -0.36,0 -0.735,0.195 -0.3675,0.195 -0.7125,0.555 -0.345,0.36 -0.645,0.87 -0.2925,0.5025 -0.5025,1.125 l -0.435,3.855 -1.335,0 z" /><path
         id="path350"
         style="font-style:italic;font-size:15px;fill:#666666"
         d="m 243.92395,66.415085 q -0.06,0.09 -0.12,0.135 -0.06,0.0375 -0.15,0.0375 -0.105,0 -0.2325,-0.0825 -0.12,-0.0825 -0.3,-0.18 -0.1725,-0.105 -0.4275,-0.1875 -0.255,-0.09 -0.615,-0.09 -0.3375,0 -0.615,0.0975 -0.2775,0.09 -0.48,0.255 -0.195,0.165 -0.3075,0.39 -0.105,0.2175 -0.105,0.465 0,0.3525 0.2325,0.5625 0.2325,0.21 0.585,0.3675 0.3525,0.15 0.7575,0.2925 0.405,0.1425 0.7575,0.36 0.3525,0.2175 0.585,0.555 0.2325,0.3375 0.2325,0.8775 0,0.525 -0.21,1.005 -0.2025,0.48 -0.5925,0.8475 -0.3825,0.36 -0.93,0.5775 -0.54,0.2175 -1.215,0.2175 -0.7275,0 -1.29,-0.255 -0.555,-0.2625 -0.9075,-0.6675 l 0.33,-0.51 q 0.0675,-0.0975 0.1425,-0.15 0.0825,-0.0525 0.21,-0.0525 0.12,0 0.24,0.105 0.12,0.105 0.3,0.24 0.18,0.1275 0.45,0.2325 0.2775,0.105 0.6975,0.105 0.3675,0 0.66,-0.1125 0.3,-0.1125 0.5025,-0.3 0.21,-0.1875 0.315,-0.435 0.1125,-0.255 0.1125,-0.54 0,-0.3825 -0.2325,-0.6075 -0.2325,-0.225 -0.585,-0.375 -0.3525,-0.15 -0.7575,-0.2775 -0.405,-0.135 -0.7575,-0.3375 -0.3525,-0.21 -0.585,-0.54 -0.2325,-0.33 -0.2325,-0.8775 0,-0.48 0.1875,-0.9225 0.195,-0.45 0.555,-0.795 0.36,-0.345 0.87,-0.5475 0.5175,-0.21 1.1625,-0.21 0.6825,0 1.2,0.2325 0.525,0.225 0.9,0.615 l -0.3375,0.48 z" /></g></g></svg>