<!-- Created with Inkscape (http://www.inkscape.org/) --><svg xmlns:dc="http://purl.org/dc/elements/1.1/" xmlns:cc="http://creativecommons.org/ns#" xmlns:rdf="http://www.w3.org/1999/02/22-rdf-syntax-ns#" xmlns:svg="http://www.w3.org/2000/svg" xmlns="http://www.w3.org/2000/svg" xmlns:sodipodi="http://sodipodi.sourceforge.net/DTD/sodipodi-0.dtd" xmlns:inkscape="http://www.inkscape.org/namespaces/inkscape" width="591.13104" height="433.22571" id="svg2" sodipodi:version="0.32" inkscape:version="0.48.1 r9760" version="1.0" sodipodi:docname="column_likelihood.svg" inkscape:output_extension="org.inkscape.output.svg.inkscape">
  <defs id="defs4">
    <inkscape:perspective sodipodi:type="inkscape:persp3d" inkscape:vp_x="0 : 526.18109 : 1" inkscape:vp_y="0 : 1000 : 0" inkscape:vp_z="744.09448 : 526.18109 : 1" inkscape:persp3d-origin="372.04724 : 350.78739 : 1" id="perspective10"/>
  </defs>
  <sodipodi:namedview id="base" pagecolor="#ffffff" bordercolor="#666666" borderopacity="1.0" gridtolerance="10000" guidetolerance="10" objecttolerance="10" inkscape:pageopacity="0.0" inkscape:pageshadow="2" inkscape:zoom="0.98994949" inkscape:cx="257.46608" inkscape:cy="283.32399" inkscape:document-units="px" inkscape:current-layer="layer1" showgrid="false" inkscape:window-width="1280" inkscape:window-height="776" inkscape:window-x="0" inkscape:window-y="24" fit-margin-top="0" fit-margin-left="0" fit-margin-right="0" fit-margin-bottom="0" inkscape:window-maximized="1"/>
  <metadata id="metadata7">
    <rdf:RDF>
      <cc:Work rdf:about="">
        <dc:format>image/svg+xml</dc:format>
        <dc:type rdf:resource="http://purl.org/dc/dcmitype/StillImage"/>
      </cc:Work>
    </rdf:RDF>
  </metadata>
  <g inkscape:label="Layer 1" inkscape:groupmode="layer" id="layer1" transform="translate(-315.2992,-273.49177)">
    <text xml:space="preserve" style="font-size:28px;font-style:normal;font-weight:normal;fill:#000000;fill-opacity:1;stroke:none;font-family:Serif,serif" x="84.285713" y="152.66591" id="text2382"><tspan sodipodi:role="line" id="tspan2384" x="84.285713" y="152.66591"/></text>
    <text xml:space="preserve" style="font-size:28px;font-style:normal;font-weight:normal;fill:#000000;fill-opacity:1;stroke:none;font-family:Serif,serif" x="107.14286" y="468.38019" id="text2396"><tspan sodipodi:role="line" id="tspan2398" x="107.14286" y="468.38019"/></text>
    <g stroke-miterlimit="10" id="g2543" transform="matrix(0.4998808,0,0,0.4998808,358.6181,273.51501)" style="stroke-width:1;stroke-linecap:square;stroke-linejoin:miter;stroke-miterlimit:10;stroke-dasharray:none;stroke-dashoffset:0">
      <g id="g2545" style="fill:none;stroke:#000000;stroke-width:6;stroke-linecap:butt;stroke-opacity:1">
        <path d="m 286.10561,634.5 -271.947194,0 0,-300" id="path2547" inkscape:connector-curvature="0"/>
      </g>
      <!-- drawing style -->
      <g id="g2549" style="fill:none;stroke:#000000;stroke-width:6;stroke-linecap:butt;stroke-opacity:1">
        <path d="m 150.13201,34.5 -135.973594,0 0,300" id="path2551" inkscape:connector-curvature="0"/>
      </g>
      <!-- drawing style -->
      <g id="g2553" style="fill:none;stroke:#000000;stroke-width:6;stroke-linecap:butt;stroke-opacity:1">
        <path d="m 6,334.5 8.158416,0" id="path2555" inkscape:connector-curvature="0"/>
      </g>
      <!-- drawing style -->
      <g id="g2557" style="fill:none;stroke:#000000;stroke-width:6;stroke-linecap:butt;stroke-opacity:1">
        <path d="m 558.0528,434.5 -271.94719,0 0,200" id="path2559" inkscape:connector-curvature="0"/>
      </g>
      <!-- drawing style -->
      <g id="g2561" style="fill:none;stroke:#000000;stroke-width:6;stroke-linecap:butt;stroke-opacity:1">
        <path d="m 449.27393,834.5 -163.16832,0 0,-200" id="path2563" inkscape:connector-curvature="0"/>
      </g>
      <!-- drawing style -->
      <g id="g2565" style="fill:none;stroke:#000000;stroke-width:6;stroke-linecap:butt;stroke-opacity:1">
        <path d="m 639.63695,567.83335 -81.58415,0 0,-133.33335" id="path2567" inkscape:connector-curvature="0"/>
      </g>
      <!-- drawing style -->
      <g id="g2569" style="fill:none;stroke:#000000;stroke-width:6;stroke-linecap:butt;stroke-opacity:1">
        <path d="m 830,301.16667 -271.9472,0 0,133.33333" id="path2571" inkscape:connector-curvature="0"/>
      </g>
      <!-- drawing style -->
      <g transform="translate(155.13201,6)" id="g2573">
        <g id="g2575" style="fill:#000000;fill-opacity:1;fill-rule:nonzero;stroke:none">
          <path d="m 17.75,42.765625 c -2.770833,2.552083 -5.4375,3.828125 -8,3.828125 -2.1041667,0 -3.8515625,-0.661458 -5.2421875,-1.984375 C 3.1171875,43.286458 2.421875,41.614583 2.421875,39.59375 c 0,-2.78125 1.1666667,-4.916667 3.5,-6.40625 2.3333333,-1.489583 5.682292,-2.234375 10.046875,-2.234375 l 1.09375,0 0,-3.078125 c 0,-2.947917 -1.515625,-4.421875 -4.546875,-4.421875 -2.4375,0 -5.0677083,0.75 -7.890625,2.25 l 0,-3.828125 c 3.1041667,-1.260417 6.015625,-1.890625 8.734375,-1.890625 2.84375,0 4.942708,0.640625 6.296875,1.921875 1.354167,1.28125 2.03125,3.270833 2.03125,5.96875 l 0,11.53125 c 0,2.645833 0.8125,3.96875 2.4375,3.96875 0.197917,0 0.494792,-0.03125 0.890625,-0.09375 l 0.328125,2.546875 c -1.052083,0.510417 -2.208333,0.765625 -3.46875,0.765625 -2.15625,0 -3.53125,-1.276042 -4.125,-3.828125 z M 17.0625,40.25 l 0,-6.578125 -1.546875,-0.04687 c -2.53125,0 -4.578125,0.479167 -6.140625,1.4375 -1.5625,0.958333 -2.34375,2.21875 -2.34375,3.78125 0,1.114583 0.390625,2.054688 1.171875,2.820312 0.78125,0.765626 1.734375,1.148438 2.859375,1.148438 1.927083,0 3.927083,-0.854167 6,-2.5625 z m 14.070312,5.75 0,-25.453125 4.609376,0 0,4.78125 c 1.833333,-3.5625 4.489583,-5.34375 7.96875,-5.34375 0.468749,0 0.963541,0.03646 1.484375,0.109375 l 0,4.3125 c -0.802084,-0.260417 -1.505209,-0.390625 -2.109375,-0.390625 -2.927084,0 -5.375,1.734375 -7.34375,5.203125 l 0,16.78125 -4.609376,0 z m 19.640626,0 0,-25.453125 4.609374,0 0,4.78125 c 2.25,-3.5625 5.140626,-5.34375 8.671876,-5.34375 3.40625,0 5.729166,1.78125 6.968749,5.34375 2.1875,-3.583333 5.031251,-5.375 8.531251,-5.375 2.25,0 3.992187,0.661458 5.226562,1.984375 1.234375,1.322917 1.851562,3.171875 1.851562,5.546875 l 0,18.515625 -4.640624,0 0,-17.796875 c 0,-2.90625 -1.151042,-4.359375 -3.453126,-4.359375 -2.385416,0 -4.890625,1.697917 -7.515625,5.09375 l 0,17.0625 -4.640625,0 0,-17.796875 c 0,-2.916667 -1.171875,-4.375 -3.515625,-4.375 -2.333333,0 -4.828125,1.703125 -7.484375,5.109375 l 0,17.0625 -4.609374,0 z m 57.937502,-3.234375 c -2.77084,2.552083 -5.4375,3.828125 -8,3.828125 -2.104169,0 -3.851565,-0.661458 -5.24219,-1.984375 -1.390625,-1.322917 -2.085938,-2.994792 -2.085938,-5.015625 0,-2.78125 1.166667,-4.916667 3.5,-6.40625 2.333334,-1.489583 5.682288,-2.234375 10.046878,-2.234375 l 1.09375,0 0,-3.078125 c 0,-2.947917 -1.51563,-4.421875 -4.54688,-4.421875 -2.4375,0 -5.067706,0.75 -7.890623,2.25 l 0,-3.828125 c 3.104167,-1.260417 6.015623,-1.890625 8.734373,-1.890625 2.84375,0 4.94271,0.640625 6.29688,1.921875 1.35416,1.28125 2.03125,3.270833 2.03125,5.96875 l 0,11.53125 c 0,2.645833 0.8125,3.96875 2.4375,3.96875 0.19791,0 0.49479,-0.03125 0.89062,-0.09375 l 0.32813,2.546875 c -1.05209,0.510417 -2.20834,0.765625 -3.46875,0.765625 -2.15625,0 -3.53125,-1.276042 -4.125,-3.828125 z m -0.6875,-2.515625 0,-6.578125 -1.54688,-0.04687 c -2.53125,0 -4.57812,0.479167 -6.14062,1.4375 -1.562503,0.958333 -2.343752,2.21875 -2.343752,3.78125 0,1.114583 0.390624,2.054688 1.171874,2.820312 0.78125,0.765626 1.734378,1.148438 2.859378,1.148438 1.92708,0 3.92708,-0.854167 6,-2.5625 z m 30.39844,5.75 0,-4.78125 c -1.87501,3.583333 -4.70313,5.375 -8.48438,5.375 -3.0625,0 -5.47135,-1.119792 -7.22656,-3.359375 -1.75521,-2.239583 -2.63282,-5.296875 -2.63282,-9.171875 0,-4.229167 0.9948,-7.632812 2.98438,-10.210938 1.98958,-2.578124 4.60938,-3.867187 7.85938,-3.867187 3.02083,0 5.52083,1.15625 7.5,3.46875 l 0,-14.46875 4.64062,0 0,37.015625 -4.64062,0 z m 0,-19.390625 c -2.38542,-2.104167 -4.65105,-3.15625 -6.79688,-3.15625 -4.41667,0 -6.625,3.380208 -6.625,10.140625 0,5.958333 1.96875,8.9375 5.90625,8.9375 2.5625,0 5.06771,-1.401042 7.51563,-4.203125 l 0,-11.71875 z M 152.30469,46 l 0,-25.453125 4.60937,0 0,25.453125 -4.60937,0 z m 0,-30.078125 0,-4.609375 4.60937,0 0,4.609375 -4.60937,0 z M 166.17969,46 l 0,-37.015625 4.60937,0 0,37.015625 -4.60937,0 z m 13.875,0 0,-37.015625 4.60937,0 0,37.015625 -4.60937,0 z m 23.82812,0.59375 c -3.63541,0 -6.53906,-1.208333 -8.71094,-3.625 -2.17187,-2.416667 -3.25781,-5.651042 -3.25781,-9.703125 0,-4.09375 1.08854,-7.330729 3.26563,-9.710937 2.17708,-2.380209 5.13541,-3.570313 8.875,-3.570313 3.72916,0 6.68489,1.190104 8.86719,3.570313 2.18229,2.380208 3.27343,5.601562 3.27343,9.664062 0,4.15625 -1.09375,7.424479 -3.28125,9.804688 -2.1875,2.380208 -5.19791,3.570312 -9.03125,3.570312 z m 0.0781,-3.484375 c 4.88541,0 7.32812,-3.296875 7.32812,-9.890625 0,-6.510417 -2.41146,-9.765625 -7.23437,-9.765625 -4.8125,0 -7.21875,3.270833 -7.21875,9.8125 0,6.5625 2.375,9.84375 7.125,9.84375 z" id="path2577" inkscape:connector-curvature="0"/>
        </g>
        <!-- drawing style -->
      </g>
      <!-- transform -->
      <g transform="translate(454.27393,806)" id="g2579">
        <g id="g2581" style="fill:#000000;fill-opacity:1;fill-rule:nonzero;stroke:none">
          <path d="M 4.71875,54.46875 5.25,50.453125 c 2.6770833,1.270833 5.3125,1.90625 7.90625,1.90625 5.197917,0 7.796875,-2.760417 7.796875,-8.28125 l 0,-4.015625 c -1.697917,3.5625 -4.494792,5.34375 -8.390625,5.34375 -3.0416667,0 -5.4609375,-1.109375 -7.2578125,-3.328125 -1.796875,-2.21875 -2.6953125,-5.208333 -2.6953125,-8.96875 0,-3.875 1.0234375,-7.03125 3.0703125,-9.46875 2.046875,-2.4375 4.6953125,-3.65625 7.9453125,-3.65625 2.84375,0 5.286458,1.15625 7.328125,3.46875 l 0,-2.90625 4.640625,0 0,18.515625 c 0,3.979167 -0.205729,6.927083 -0.617188,8.84375 -0.411458,1.916667 -1.190104,3.484375 -2.335937,4.703125 -2.010417,2.145833 -5.140625,3.21875 -9.390625,3.21875 -2.96875,0 -5.8125,-0.453125 -8.53125,-1.359375 z m 16.234375,-17.28125 0,-10.578125 c -2.03125,-2.104167 -4.239583,-3.15625 -6.625,-3.15625 -2.125,0 -3.789063,0.851563 -4.9921875,2.554687 -1.203125,1.703125 -1.8046875,4.039063 -1.8046875,7.007813 0,5.572917 1.9583333,8.359375 5.875,8.359375 2.677083,0 5.192708,-1.395833 7.546875,-4.1875 z M 34.554687,46 l 0,-25.453125 4.609375,0 0,25.453125 -4.609375,0 z m 0,-30.078125 0,-4.609375 4.609375,0 0,4.609375 -4.609375,0 z M 48.429687,46 l 0,-25.453125 4.609375,0 0,4.78125 c 1.833334,-3.5625 4.489584,-5.34375 7.96875,-5.34375 0.46875,0 0.963542,0.03646 1.484376,0.109375 l 0,4.3125 c -0.802084,-0.260417 -1.505209,-0.390625 -2.109376,-0.390625 -2.927083,0 -5.375,1.734375 -7.34375,5.203125 l 0,16.78125 -4.609375,0 z m 32.765625,-3.234375 c -2.770833,2.552083 -5.4375,3.828125 -8,3.828125 -2.104166,0 -3.851562,-0.661458 -5.242187,-1.984375 -1.390625,-1.322917 -2.085937,-2.994792 -2.085937,-5.015625 0,-2.78125 1.166666,-4.916667 3.5,-6.40625 2.333333,-1.489583 5.682291,-2.234375 10.046875,-2.234375 l 1.093749,0 0,-3.078125 c 0,-2.947917 -1.515624,-4.421875 -4.546874,-4.421875 -2.4375,0 -5.067709,0.75 -7.890626,2.25 l 0,-3.828125 c 3.104167,-1.260417 6.015626,-1.890625 8.734376,-1.890625 2.843749,0 4.942708,0.640625 6.296874,1.921875 1.354167,1.28125 2.03125,3.270833 2.03125,5.96875 l 0,11.53125 c 0,2.645833 0.8125,3.96875 2.4375,3.96875 0.197917,0 0.494792,-0.03125 0.890626,-0.09375 l 0.328124,2.546875 c -1.052083,0.510417 -2.208333,0.765625 -3.46875,0.765625 -2.15625,0 -3.53125,-1.276042 -4.125,-3.828125 z m -0.6875,-2.515625 0,-6.578125 -1.546874,-0.04687 c -2.53125,0 -4.578126,0.479167 -6.140626,1.4375 -1.5625,0.958333 -2.34375,2.21875 -2.34375,3.78125 0,1.114583 0.390625,2.054688 1.171875,2.820312 0.78125,0.765626 1.734375,1.148438 2.859375,1.148438 1.927084,0 3.927084,-0.854167 6,-2.5625 z m 19.570308,-16.234375 0,21.984375 -4.64062,0 0,-21.984375 -3.609375,0 0,-3.46875 3.609375,0 0,-3.046875 c 0,-6.0625 2.765625,-9.09375 8.29688,-9.09375 1.55208,0 3.3125,0.2552083 5.28125,0.765625 l 0,3.65625 c -2.08334,-0.635417 -3.75,-0.953125 -5,-0.953125 -1.51042,0 -2.54428,0.361979 -3.10157,1.085938 -0.55729,0.723958 -0.83594,2.070312 -0.83594,4.039062 l 0,3.546875 6.35938,0 0,3.46875 -6.35938,0 z m 17.64844,0 0,21.984375 -4.64062,0 0,-21.984375 -3.60938,0 0,-3.46875 3.60938,0 0,-3.046875 c 0,-6.0625 2.76562,-9.09375 8.29687,-9.09375 1.55209,0 3.3125,0.2552083 5.28125,0.765625 l 0,3.65625 c -2.08333,-0.635417 -3.75,-0.953125 -5,-0.953125 -1.51041,0 -2.54427,0.361979 -3.10156,1.085938 -0.55729,0.723958 -0.83594,2.070312 -0.83594,4.039062 l 0,3.546875 6.35938,0 0,3.46875 -6.35938,0 z m 30.80469,21.15625 c -3.09375,0.947917 -5.74479,1.421875 -7.95313,1.421875 -3.75,0 -6.80729,-1.247396 -9.17187,-3.742188 -2.36458,-2.494791 -3.54688,-5.726562 -3.54688,-9.695312 0,-3.864583 1.04167,-7.03125 3.12501,-9.5 2.08333,-2.46875 4.74999,-3.703125 8,-3.703125 3.08333,0 5.46354,1.09375 7.14062,3.28125 1.67708,2.1875 2.51562,5.296875 2.51562,9.328125 L 148.625,34 132.5625,34 c 0.67708,6.041667 3.64062,9.0625 8.89062,9.0625 1.91667,0 4.27605,-0.515625 7.07813,-1.546875 l 0,3.65625 z m -15.75,-14.640625 11.21875,0 c 0,-4.739583 -1.76563,-7.109375 -5.29688,-7.109375 -3.54166,0 -5.51562,2.369792 -5.92187,7.109375 z" id="path2583" inkscape:connector-curvature="0"/>
        </g>
        <!-- drawing style -->
      </g>
      <!-- transform -->
      <g transform="translate(644.63697,539.33333)" id="g2585">
        <g id="g2587" style="fill:#000000;fill-opacity:1;fill-rule:nonzero;stroke:none">
          <path d="m 4.625,46 0,-25.453125 4.609375,0 0,4.78125 c 1.833333,-3.5625 4.489583,-5.34375 7.96875,-5.34375 0.46875,0 0.963542,0.03646 1.484375,0.109375 l 0,4.3125 c -0.802083,-0.260417 -1.505208,-0.390625 -2.109375,-0.390625 -2.927083,0 -5.375,1.734375 -7.34375,5.203125 L 9.234375,46 4.625,46 z m 32.765625,-3.234375 c -2.770833,2.552083 -5.4375,3.828125 -8,3.828125 -2.104167,0 -3.851563,-0.661458 -5.242188,-1.984375 C 22.757812,43.286458 22.0625,41.614583 22.0625,39.59375 c 0,-2.78125 1.166667,-4.916667 3.5,-6.40625 2.333333,-1.489583 5.682292,-2.234375 10.046875,-2.234375 l 1.09375,0 0,-3.078125 c 0,-2.947917 -1.515625,-4.421875 -4.546875,-4.421875 -2.4375,0 -5.067708,0.75 -7.890625,2.25 l 0,-3.828125 C 27.369792,20.614583 30.28125,19.984375 33,19.984375 c 2.84375,0 4.942708,0.640625 6.296875,1.921875 1.354167,1.28125 2.03125,3.270833 2.03125,5.96875 l 0,11.53125 c 0,2.645833 0.8125,3.96875 2.4375,3.96875 0.197917,0 0.494792,-0.03125 0.890625,-0.09375 l 0.328125,2.546875 c -1.052083,0.510417 -2.208333,0.765625 -3.46875,0.765625 -2.15625,0 -3.53125,-1.276042 -4.125,-3.828125 z m -0.6875,-2.515625 0,-6.578125 L 35.15625,33.625 c -2.53125,0 -4.578125,0.479167 -6.140625,1.4375 -1.5625,0.958333 -2.34375,2.21875 -2.34375,3.78125 0,1.114583 0.390625,2.054688 1.171875,2.820312 0.78125,0.765626 1.734375,1.148438 2.859375,1.148438 1.927083,0 3.927083,-0.854167 6,-2.5625 z m 21.710937,6.34375 c -2.34375,0 -4.171875,-0.674479 -5.484375,-2.023437 -1.3125,-1.348959 -1.968749,-3.216146 -1.968749,-5.601563 l 0,-14.953125 -3.1875,0 0,-3.46875 3.1875,0 0,-4.625 4.609375,-0.4375 0,5.0625 6.65625,0 0,3.46875 -6.65625,0 0,14.109375 c 0,3.322917 1.437499,4.984375 4.312499,4.984375 0.614584,0 1.359375,-0.09896 2.234375,-0.296875 l 0,3.1875 c -1.427083,0.395833 -2.661458,0.59375 -3.703125,0.59375 z" id="path2589" inkscape:connector-curvature="0"/>
        </g>
        <!-- drawing style -->
      </g>
      <!-- transform -->
      <g transform="translate(835.00001,272.66667)" id="g2591">
        <g id="g2593" style="fill:#000000;fill-opacity:1;fill-rule:nonzero;stroke:none">
          <path d="m 4.625,46 0,-37.015625 4.609375,0 0,16.34375 c 2.4375,-3.5625 5.421875,-5.34375 8.953125,-5.34375 2.208333,0 3.96875,0.697917 5.28125,2.09375 1.3125,1.395833 1.96875,3.276042 1.96875,5.640625 l 0,18.28125 -4.625,0 0,-16.78125 c 0,-1.895833 -0.276042,-3.244792 -0.828125,-4.046875 -0.552083,-0.802083 -1.46875,-1.203125 -2.75,-1.203125 -2.833333,0 -5.5,1.848958 -8,5.546875 L 9.234375,46 4.625,46 z m 45.695313,0 0,-4.78125 c -2.447917,3.583333 -5.421875,5.375 -8.921875,5.375 -2.21875,0 -3.984376,-0.700521 -5.296876,-2.101562 -1.3125,-1.401042 -1.968749,-3.289063 -1.968749,-5.664063 l 0,-18.28125 4.609375,0 0,16.78125 c 0,1.90625 0.278645,3.260417 0.835937,4.0625 0.557292,0.802083 1.481771,1.203125 2.773437,1.203125 2.8125,0 5.468751,-1.848958 7.968751,-5.546875 l 0,-16.5 4.625,0 0,25.453125 -4.625,0 z m 13.882812,0 0,-25.453125 4.609375,0 0,4.78125 c 2.25,-3.5625 5.140625,-5.34375 8.671875,-5.34375 3.40625,0 5.729167,1.78125 6.96875,5.34375 2.1875,-3.583333 5.03125,-5.375 8.53125,-5.375 2.25,0 3.992187,0.661458 5.226563,1.984375 1.234374,1.322917 1.851562,3.171875 1.851562,5.546875 l 0,18.515625 -4.640625,0 0,-17.796875 c 0,-2.90625 -1.151042,-4.359375 -3.453125,-4.359375 -2.385417,0 -4.890625,1.697917 -7.515625,5.09375 l 0,17.0625 -4.640625,0 0,-17.796875 c 0,-2.916667 -1.171875,-4.375 -3.515625,-4.375 -2.333333,0 -4.828125,1.703125 -7.484375,5.109375 l 0,17.0625 -4.609375,0 z m 57.937505,-3.234375 c -2.77084,2.552083 -5.43751,3.828125 -8,3.828125 -2.10417,0 -3.85157,-0.661458 -5.24219,-1.984375 -1.39063,-1.322917 -2.08594,-2.994792 -2.08594,-5.015625 0,-2.78125 1.16667,-4.916667 3.5,-6.40625 2.33333,-1.489583 5.68229,-2.234375 10.04687,-2.234375 l 1.09376,0 0,-3.078125 c 0,-2.947917 -1.51563,-4.421875 -4.54688,-4.421875 -2.4375,0 -5.06771,0.75 -7.89062,2.25 l 0,-3.828125 c 3.10416,-1.260417 6.01562,-1.890625 8.73437,-1.890625 2.84375,0 4.94271,0.640625 6.29688,1.921875 1.35416,1.28125 2.03124,3.270833 2.03124,5.96875 l 0,11.53125 c 0,2.645833 0.8125,3.96875 2.4375,3.96875 0.19792,0 0.4948,-0.03125 0.89063,-0.09375 l 0.32812,2.546875 c -1.05208,0.510417 -2.20833,0.765625 -3.46874,0.765625 -2.15625,0 -3.53125,-1.276042 -4.125,-3.828125 z m -0.6875,-2.515625 0,-6.578125 -1.54688,-0.04687 c -2.53125,0 -4.57813,0.479167 -6.14062,1.4375 -1.56251,0.958333 -2.34375,2.21875 -2.34375,3.78125 0,1.114583 0.39062,2.054688 1.17187,2.820312 0.78125,0.765626 1.73438,1.148438 2.85938,1.148438 1.92708,0 3.92708,-0.854167 6,-2.5625 z m 14.07031,5.75 0,-25.453125 4.60937,0 0,4.78125 c 2.4375,-3.5625 5.42188,-5.34375 8.95313,-5.34375 2.20833,0 3.96875,0.697917 5.28125,2.09375 1.3125,1.395833 1.96875,3.276042 1.96875,5.640625 l 0,18.28125 -4.625,0 0,-16.78125 c 0,-1.895833 -0.27604,-3.244792 -0.82813,-4.046875 -0.55208,-0.802083 -1.46875,-1.203125 -2.75,-1.203125 -2.83333,0 -5.5,1.848958 -8,5.546875 l 0,16.484375 -4.60937,0 z" id="path2595" inkscape:connector-curvature="0"/>
        </g>
        <!-- drawing style -->
      </g>
      <!-- transform -->
      <g id="g2597" style="fill:none;stroke:#2d3680;stroke-width:10;stroke-linecap:round;stroke-linejoin:round;stroke-opacity:0.50196078">
        <path d="" id="path2599" inkscape:connector-curvature="0"/>
      </g>
      <!-- drawing style -->
      <g id="g2601" style="fill:#2d3680;fill-opacity:0.50196078;fill-rule:nonzero;stroke:none">
        <path d="" id="path2603" inkscape:connector-curvature="0"/>
      </g>
      <!-- drawing style -->
    </g>
    <g id="g2407" transform="translate(778.496,65.606636)">
      <rect y="342.41595" x="107.9944" height="31.797159" width="19.939848" id="rect2399" style="fill:#ff0000;fill-opacity:1;stroke:none"/>
      <text sodipodi:linespacing="125%" id="text2383" y="368.52057" x="109.53561" style="font-size:28px;font-style:normal;font-variant:normal;font-weight:bold;font-stretch:normal;text-align:start;line-height:125%;writing-mode:lr-tb;text-anchor:start;fill:#000000;fill-opacity:1;stroke:none;-inkscape-font-specification:Bitstream Vera Sans Mono Bold" xml:space="preserve"><tspan y="368.52057" x="109.53561" id="tspan2385" sodipodi:role="line">A</tspan></text>
    </g>
    <g id="g2412" transform="translate(400.30094,-68.924182)">
      <rect y="342.41595" x="175.23381" height="31.797159" width="19.939848" id="rect2401" style="fill:#ffff00;fill-opacity:1;stroke:none"/>
      <text sodipodi:linespacing="125%" id="text2387" y="368.5069" x="176.77502" style="font-size:28px;font-style:normal;font-variant:normal;font-weight:bold;font-stretch:normal;text-align:start;line-height:125%;writing-mode:lr-tb;text-anchor:start;fill:#000000;fill-opacity:1;stroke:none;-inkscape-font-specification:Bitstream Vera Sans Mono Bold" xml:space="preserve"><tspan y="368.5069" x="176.77502" id="tspan2389" sodipodi:role="line">C</tspan></text>
    </g>
    <g id="g2417" transform="translate(506.50543,199.05551)">
      <rect y="342.41595" x="244.25218" height="31.797159" width="19.939848" id="rect2403" style="fill:#00ff00;fill-opacity:1;stroke:none"/>
      <text sodipodi:linespacing="125%" id="text2391" y="368.5069" x="245.69769" style="font-size:28px;font-style:normal;font-variant:normal;font-weight:bold;font-stretch:normal;text-align:start;line-height:125%;writing-mode:lr-tb;text-anchor:start;fill:#000000;fill-opacity:1;stroke:none;-inkscape-font-specification:Bitstream Vera Sans Mono Bold" xml:space="preserve"><tspan y="368.5069" x="245.69769" id="tspan2393" sodipodi:role="line">G</tspan></text>
    </g>
    <g id="g2723" transform="translate(452.12596,332.50438)">
      <rect y="342.41595" x="244.25218" height="31.797159" width="19.939848" id="rect2725" style="fill:#00ff00;fill-opacity:1;stroke:none"/>
      <text sodipodi:linespacing="125%" id="text2727" y="368.5069" x="245.69769" style="font-size:28px;font-style:normal;font-variant:normal;font-weight:bold;font-stretch:normal;text-align:start;line-height:125%;writing-mode:lr-tb;text-anchor:start;fill:#000000;fill-opacity:1;stroke:none;-inkscape-font-specification:Bitstream Vera Sans Mono Bold" xml:space="preserve"><tspan y="368.5069" x="245.69769" id="tspan2729" sodipodi:role="line">G</tspan></text>
    </g>
    <g id="g2731" transform="translate(356.92019,100.91693)">
      <rect y="342.41595" x="244.25218" height="31.797159" width="19.939848" id="rect2733" style="fill:#00ff00;fill-opacity:1;stroke:none"/>
      <text sodipodi:linespacing="125%" id="text2735" y="368.5069" x="245.69769" style="font-size:28px;font-style:normal;font-variant:normal;font-weight:bold;font-stretch:normal;text-align:start;line-height:125%;writing-mode:lr-tb;text-anchor:start;fill:#000000;fill-opacity:1;stroke:none;-inkscape-font-specification:Bitstream Vera Sans Mono Bold" xml:space="preserve"><tspan y="368.5069" x="245.69769" id="tspan2737" sodipodi:role="line">G</tspan></text>
    </g>
    <g id="g2739" transform="translate(222.5699,204.96265)">
      <rect y="342.41595" x="244.25218" height="31.797159" width="19.939848" id="rect2741" style="fill:#00ff00;fill-opacity:1;stroke:none"/>
      <text sodipodi:linespacing="125%" id="text2743" y="368.5069" x="245.69769" style="font-size:28px;font-style:normal;font-variant:normal;font-weight:bold;font-stretch:normal;text-align:start;line-height:125%;writing-mode:lr-tb;text-anchor:start;fill:#000000;fill-opacity:1;stroke:none;-inkscape-font-specification:Bitstream Vera Sans Mono Bold" xml:space="preserve"><tspan y="368.5069" x="245.69769" id="tspan2745" sodipodi:role="line">G</tspan></text>
    </g>
    <g id="g2747" transform="translate(140.06539,78.693575)">
      <rect y="342.41595" x="175.23381" height="31.797159" width="19.939848" id="rect2749" style="fill:#ffff00;fill-opacity:1;stroke:none"/>
      <text sodipodi:linespacing="125%" id="text2751" y="368.5069" x="176.77502" style="font-size:28px;font-style:normal;font-variant:normal;font-weight:bold;font-stretch:normal;text-align:start;line-height:125%;writing-mode:lr-tb;text-anchor:start;fill:#000000;fill-opacity:1;stroke:none;-inkscape-font-specification:Bitstream Vera Sans Mono Bold" xml:space="preserve"><tspan y="368.5069" x="176.77502" id="tspan2753" sodipodi:role="line">C</tspan></text>
    </g>
  </g>
</svg>