<?xml version="1.0" encoding="UTF-8" standalone="no"?>
<svg
   xmlns:dc="http://purl.org/dc/elements/1.1/"
   xmlns:cc="http://creativecommons.org/ns#"
   xmlns:rdf="http://www.w3.org/1999/02/22-rdf-syntax-ns#"
   xmlns:svg="http://www.w3.org/2000/svg"
   xmlns="http://www.w3.org/2000/svg"
   xml:space="preserve"
   height="131.93852"
   width="350.31476"
   version="1.1"
   id="svg2"><metadata
     id="metadata8"><rdf:RDF><cc:Work
         rdf:about=""><dc:format>image/svg+xml</dc:format><dc:type
           rdf:resource="http://purl.org/dc/dcmitype/StillImage" /><dc:title /></cc:Work></rdf:RDF></metadata><defs
     id="defs6" /><g
     transform="matrix(1.25,0,0,-1.25,-120.25,891.77625)"
     id="g10"><g
       style="fill:#000000;stroke:#005500"
       id="g446"><path
         id="path448"
         style="fill:#000000;stroke:#005500;stroke-width:0.40000001;stroke-linecap:butt;stroke-linejoin:round;stroke-miterlimit:10;stroke-dasharray:1, 1;stroke-dashoffset:0;stroke-opacity:1"
         d="m 356,658.052 6,10.392" /></g><g
       style="fill:#000000"
       id="g12"><g
         style="fill:#000000"
         id="g14"><path
           id="path16"
           style="fill:#000000;fill-opacity:1;fill-rule:evenodd;stroke:none"
           d="m 345.8,711.621 c 0,0.995 -0.806,1.8 -1.8,1.8 -0.994,0 -1.8,-0.805 -1.8,-1.8 0,-0.994 0.806,-1.799 1.8,-1.799 0.994,0 1.8,0.805 1.8,1.799" /></g></g><g
       style="fill:#000000"
       transform="translate(203.883,639.524)"
       id="g18"><g
         style="fill:#000000"
         transform="translate(0,-786.864)"
         id="g20"><g
           id="text22"
           style="fill:#000000"
           transform="matrix(1,0,0,-1,0,786.864)"><path
             id="path260"
             style="font-variant:normal;font-weight:normal;font-size:7.97009993px;font-family:Lato;-inkscape-font-specification:Lato;writing-mode:lr-tb;fill:#000000;fill-opacity:1;fill-rule:nonzero;stroke:none"
             d="m 0.99626249,-0.54196679 1.22341031,0 0,-3.89339381 q 0,-0.1673721 0.011955,-0.3546695 l -1.0161878,0.872726 q -0.051806,0.043836 -0.1036113,0.055791 -0.051806,0.00797 -0.095641,0 -0.0438355,-0.00797 -0.083686,-0.03188 -0.0358655,-0.02391 -0.0557907,-0.051806 l -0.2231628,-0.3068488 1.70161631,-1.4704834 0.5778323,0 0,5.18056491 1.1237841,0 0,0.54196679 -3.06051841,0 0,-0.54196679 z" /></g></g></g><g
       style="fill:#000000"
       transform="translate(239.883,639.524)"
       id="g42"><g
         style="fill:#000000"
         transform="translate(0,-786.864)"
         id="g44"><g
           id="text46"
           style="fill:#000000"
           transform="matrix(1,0,0,-1,0,786.864)"><path
             id="path263"
             style="font-variant:normal;font-weight:normal;font-size:7.97009993px;font-family:Lato;-inkscape-font-specification:Lato;writing-mode:lr-tb;fill:#000000;fill-opacity:1;fill-rule:nonzero;stroke:none"
             d="m 3.5307543,-2.0602708 0.8647558,0 0,0.4064751 q 0,0.063761 -0.039851,0.1075963 -0.035865,0.043836 -0.1155664,0.043836 l -0.7093389,0 0,1.5023638 -0.6216678,0 0,-1.5023638 -2.5344918,0 q -0.079701,0 -0.13947675,-0.043836 -0.0557907,-0.047821 -0.0717309,-0.1155664 l -0.0717309,-0.3626396 2.77757985,-3.6861712 0.6615183,0 0,3.6503058 z M 2.9090865,-4.4154354 q 0,-0.1036113 0.00399,-0.2231628 0.00797,-0.1235365 0.027895,-0.2510581 l -2.08019611,2.8293855 2.04831571,0 0,-2.3551646 z" /></g></g></g><g
       style="fill:#000000"
       transform="translate(251.883,639.524)"
       id="g50"><g
         style="fill:#000000"
         transform="translate(0,-786.864)"
         id="g52"><g
           id="text54"
           style="fill:#000000"
           transform="matrix(1,0,0,-1,0,786.864)"><path
             id="path266"
             style="font-variant:normal;font-weight:normal;font-size:7.97009993px;font-family:Lato;-inkscape-font-specification:Lato;writing-mode:lr-tb;fill:#000000;fill-opacity:1;fill-rule:nonzero;stroke:none"
             d="m 3.9133191,-5.3997427 q 0,0.1514319 -0.095641,0.2510581 -0.091656,0.095641 -0.318804,0.095641 l -1.7932725,0 -0.2630133,1.4983788 q 0.2271478,-0.051806 0.4264003,-0.071731 0.2032376,-0.02391 0.39452,-0.02391 0.4463256,0 0.7890399,0.1315067 0.3427143,0.1315066 0.5698621,0.3626395 0.2311329,0.2311329 0.3466994,0.5459519 0.1195515,0.3148189 0.1195515,0.6854286 0,0.4542957 -0.159402,0.8209203 -0.155417,0.36662456 -0.4343705,0.62963785 -0.2749684,0.25902825 -0.6495631,0.398505 Q 2.470731,0.0637608 2.0363605,0.0637608 q -0.2510581,0 -0.482191,-0.05180565 Q 1.3230366,-0.03586545 1.119799,-0.1195515 0.92054654,-0.20323755 0.74918939,-0.3108339 0.57783224,-0.41843025 0.4463256,-0.53798175 l 0.21917774,-0.30286379 q 0.0717309,-0.1036113 0.18729735,-0.1036113 0.079701,0 0.17932721,0.0637608 0.099626,0.0597758 0.2430881,0.1354917 0.1434618,0.0757159 0.3347442,0.13947675 0.1952674,0.0597758 0.4622658,0.0597758 0.2988787,0 0.5379817,-0.0956412 0.239103,-0.0956412 0.4104602,-0.2709834 0.1713571,-0.17932726 0.2630133,-0.42640036 0.091656,-0.2470731 0.091656,-0.5539219 0,-0.2669984 -0.079701,-0.4821911 -0.075716,-0.2151927 -0.2351179,-0.3666246 -0.155417,-0.1514319 -0.3905349,-0.2351179 -0.235118,-0.083686 -0.5499369,-0.083686 -0.2151927,0 -0.4503107,0.035865 -0.2311329,0.035865 -0.4742209,0.1155664 l -0.44632561,-0.1315066 0.45828071,-2.6699835 2.705849,0 0,0.3108339 z" /></g></g></g><g
       style="fill:#000000"
       transform="translate(263.883,639.524)"
       id="g58"><g
         style="fill:#000000"
         transform="translate(0,-786.864)"
         id="g60"><g
           id="text62"
           style="fill:#000000"
           transform="matrix(1,0,0,-1,0,786.864)"><path
             id="path269"
             style="font-variant:normal;font-weight:normal;font-size:7.97009993px;font-family:Lato;-inkscape-font-specification:Lato;writing-mode:lr-tb;fill:#000000;fill-opacity:1;fill-rule:nonzero;stroke:none"
             d="m 1.8889137,-3.5706048 q -0.079701,0.095641 -0.1474469,0.1872974 -0.067746,0.091656 -0.1354917,0.1793272 0.2032376,-0.1394767 0.4463256,-0.2151927 0.2470731,-0.079701 0.5339967,-0.079701 0.3466994,0 0.6535482,0.1155665 0.3068489,0.1115814 0.5339967,0.3307591 0.2311329,0.2151927 0.3666246,0.5339967 0.1354917,0.314819 0.1354917,0.7212941 0,0.3945199 -0.1434618,0.7332492 -0.1434618,0.33872921 -0.40249,0.58978735 Q 3.4749636,-0.2231628 3.112324,-0.079701 2.7536695,0.0637608 2.3192991,0.0637608 q -0.4303854,0 -0.7810698,-0.1354917 Q 1.1875449,-0.21120765 0.94047179,-0.4622658 0.69738374,-0.71730899 0.56189204,-1.0759635 0.4303854,-1.438603 0.4303854,-1.8849286 q 0,-0.3745947 0.16338704,-0.79701 Q 0.76114454,-3.108339 1.1237841,-3.59053 l 1.4505582,-1.9486894 q 0.055791,-0.071731 0.1514319,-0.1195515 0.099626,-0.051806 0.2271478,-0.051806 l 0.6296379,0 -1.6936462,2.1399718 z m -0.7770848,1.8092127 q 0,0.2749685 0.079701,0.5021163 0.079701,0.2271479 0.2311329,0.39053491 0.155417,0.16338705 0.3745947,0.2550432 0.2231628,0.0876711 0.5061014,0.0876711 0.2869236,0 0.5180565,-0.0916561 0.2351179,-0.0916562 0.398505,-0.2550432 0.1673721,-0.16338706 0.2550432,-0.38654986 0.091656,-0.2231628 0.091656,-0.4861761 0,-0.2789535 -0.087671,-0.5021163 -0.087671,-0.2271478 -0.2510581,-0.3825648 -0.159402,-0.159402 -0.3825648,-0.243088 -0.2231628,-0.083686 -0.4901612,-0.083686 -0.2869236,0 -0.5180565,0.099626 -0.2311329,0.095641 -0.3945199,0.2630133 -0.159402,0.163387 -0.2470731,0.3825648 -0.083686,0.2151927 -0.083686,0.4503106 z" /></g></g></g><g
       style="fill:#000000"
       id="g76"><g
         style="fill:#000000"
         id="g78"><path
           id="path80"
           style="fill:#000000;fill-opacity:1;fill-rule:evenodd;stroke:none"
           d="m 207.8,647.66 c 0,0.994 -0.806,1.8 -1.8,1.8 -0.994,0 -1.8,-0.806 -1.8,-1.8 0,-0.994 0.806,-1.8 1.8,-1.8 0.994,0 1.8,0.806 1.8,1.8" /></g></g><g
       style="fill:#000000"
       id="g94"><g
         style="fill:#000000"
         id="g96"><path
           id="path98"
           style="fill:#000000;fill-opacity:1;fill-rule:evenodd;stroke:none"
           d="m 243.8,647.66 c 0,0.994 -0.806,1.8 -1.8,1.8 -0.994,0 -1.8,-0.806 -1.8,-1.8 0,-0.994 0.806,-1.8 1.8,-1.8 0.994,0 1.8,0.806 1.8,1.8" /></g></g><g
       style="fill:#000000"
       id="g100"><g
         style="fill:#000000"
         id="g102"><path
           id="path104"
           style="fill:#000000;fill-opacity:1;fill-rule:evenodd;stroke:none"
           d="m 255.8,647.66 c 0,0.994 -0.806,1.8 -1.8,1.8 -0.994,0 -1.8,-0.806 -1.8,-1.8 0,-0.994 0.806,-1.8 1.8,-1.8 0.994,0 1.8,0.806 1.8,1.8" /></g></g><g
       style="fill:#000000"
       id="g106"><g
         style="fill:#000000"
         id="g108"><path
           id="path110"
           style="fill:#000000;fill-opacity:1;fill-rule:evenodd;stroke:none"
           d="m 267.8,647.66 c 0,0.994 -0.806,1.8 -1.8,1.8 -0.994,0 -1.8,-0.806 -1.8,-1.8 0,-0.994 0.806,-1.8 1.8,-1.8 0.994,0 1.8,0.806 1.8,1.8" /></g></g><g
       style="fill:#000000"
       id="g112"><g
         style="fill:#000000"
         id="g114"><path
           id="path116"
           style="fill:#000000;fill-opacity:1;fill-rule:evenodd;stroke:none"
           d="m 237.8,699.621 c 0,0.995 -0.806,1.8 -1.8,1.8 -0.994,0 -1.8,-0.805 -1.8,-1.8 0,-0.994 0.806,-1.799 1.8,-1.799 0.994,0 1.8,0.805 1.8,1.799" /></g></g><g
       style="fill:#000000"
       id="g118"><g
         style="fill:#000000"
         id="g120"><path
           id="path122"
           style="fill:#000000;fill-opacity:1;fill-rule:evenodd;stroke:none"
           d="m 255.8,668.445 c 0,0.994 -0.806,1.8 -1.8,1.8 -0.994,0 -1.8,-0.806 -1.8,-1.8 0,-0.994 0.806,-1.8 1.8,-1.8 0.994,0 1.8,0.806 1.8,1.8" /></g></g><g
       style="fill:#000000"
       id="g124"><g
         style="fill:#000000"
         id="g126"><path
           id="path128"
           style="fill:#000000;fill-opacity:1;fill-rule:evenodd;stroke:none"
           d="m 249.8,658.052 c 0,0.994 -0.806,1.8 -1.8,1.8 -0.994,0 -1.8,-0.806 -1.8,-1.8 0,-0.994 0.806,-1.8 1.8,-1.8 0.994,0 1.8,0.806 1.8,1.8" /></g></g><g
       style="fill:#000000"
       id="g136"><path
         id="path138"
         style="fill:#000000;stroke:#000000;stroke-width:0.40000001;stroke-linecap:butt;stroke-linejoin:round;stroke-miterlimit:10;stroke-dasharray:none;stroke-opacity:1"
         d="m 206,647.66 30,51.961" /></g><g
       style="fill:#000000"
       id="g148"><path
         id="path150"
         style="fill:#000000;stroke:#000000;stroke-width:0.40000001;stroke-linecap:butt;stroke-linejoin:round;stroke-miterlimit:10;stroke-dasharray:none;stroke-opacity:1"
         d="m 242,647.66 6,10.392" /></g><g
       style="fill:#000000"
       id="g152"><path
         id="path154"
         style="fill:#000000;stroke:#000000;stroke-width:0.40000001;stroke-linecap:butt;stroke-linejoin:round;stroke-miterlimit:10;stroke-dasharray:none;stroke-opacity:1"
         d="m 248,658.052 6,10.393" /></g><g
       style="fill:#000000"
       id="g156"><path
         id="path158"
         style="fill:#000000;stroke:#000000;stroke-width:0.40000001;stroke-linecap:butt;stroke-linejoin:round;stroke-miterlimit:10;stroke-dasharray:none;stroke-opacity:1"
         d="m 254,647.66 -6,10.392" /></g><g
       style="fill:#000000"
       id="g160"><path
         id="path162"
         style="fill:#000000;stroke:#000000;stroke-width:0.40000001;stroke-linecap:butt;stroke-linejoin:round;stroke-miterlimit:10;stroke-dasharray:none;stroke-opacity:1"
         d="m 266,647.66 -12,20.785" /></g><g
       style="fill:#000000"
       id="g164"><path
         id="path166"
         style="fill:#000000;stroke:#000000;stroke-width:0.40000001;stroke-linecap:butt;stroke-linejoin:round;stroke-miterlimit:10;stroke-dasharray:none;stroke-opacity:1"
         d="M 254,668.445 242,689.23" /></g><g
       style="fill:#000000"
       id="g168"><path
         id="path170"
         style="fill:#000000;stroke:#000000;stroke-width:0.40000001;stroke-linecap:butt;stroke-linejoin:round;stroke-miterlimit:10;stroke-dasharray:none;stroke-opacity:1"
         d="m 242,689.23 -6,10.391" /></g><g
       style="fill:#000000"
       id="g172"><path
         id="path174"
         style="fill:#000000;stroke:#000000;stroke-width:0.40000001;stroke-linecap:butt;stroke-linejoin:round;stroke-miterlimit:10;stroke-dasharray:none;stroke-opacity:1"
         d="m 236,711.622 0,-12" /></g><g
       style="fill:#000000"
       id="g176"><g
         style="fill:#000000"
         id="g178"><path
           id="path180"
           style="fill:#000000;fill-opacity:1;fill-rule:evenodd;stroke:none"
           d="m 237.8,711.621 c 0,0.995 -0.806,1.8 -1.8,1.8 -0.994,0 -1.8,-0.805 -1.8,-1.8 0,-0.994 0.806,-1.799 1.8,-1.799 0.994,0 1.8,0.805 1.8,1.799" /></g></g><g
       style="fill:#000000"
       transform="translate(95.883,639.524)"
       id="g182"><g
         style="fill:#000000"
         transform="translate(0,-786.864)"
         id="g184"><g
           id="text186"
           style="fill:#000000"
           transform="matrix(1,0,0,-1,0,786.864)"><path
             id="path272"
             style="font-variant:normal;font-weight:normal;font-size:7.97009993px;font-family:Lato;-inkscape-font-specification:Lato;writing-mode:lr-tb;fill:#000000;fill-opacity:1;fill-rule:nonzero;stroke:none"
             d="m 0.99626249,-0.54196679 1.22341031,0 0,-3.89339381 q 0,-0.1673721 0.011955,-0.3546695 l -1.0161878,0.872726 q -0.051806,0.043836 -0.1036113,0.055791 -0.051806,0.00797 -0.095641,0 -0.0438355,-0.00797 -0.083686,-0.03188 -0.0358655,-0.02391 -0.0557907,-0.051806 l -0.2231628,-0.3068488 1.70161631,-1.4704834 0.5778323,0 0,5.18056491 1.1237841,0 0,0.54196679 -3.06051841,0 0,-0.54196679 z" /></g></g></g><g
       style="fill:#000000"
       transform="translate(107.883,639.524)"
       id="g190"><g
         style="fill:#000000"
         transform="translate(0,-786.864)"
         id="g192"><g
           id="text194"
           style="fill:#000000"
           transform="matrix(1,0,0,-1,0,786.864)"><path
             id="path275"
             style="font-variant:normal;font-weight:normal;font-size:7.97009993px;font-family:Lato;-inkscape-font-specification:Lato;writing-mode:lr-tb;fill:#000000;fill-opacity:1;fill-rule:nonzero;stroke:none"
             d="m 2.3551645,-5.7743374 q 0.3626396,0 0.6774585,0.1075964 0.314819,0.1075963 0.5459519,0.3148189 0.2311329,0.2032375 0.3626395,0.4981312 0.1315067,0.2948937 0.1315067,0.6694884 0,0.318804 -0.095641,0.5937725 -0.095641,0.2709834 -0.2590283,0.5180565 -0.163387,0.2470731 -0.3785797,0.482191 -0.2112077,0.235118 -0.4503107,0.474221 l -1.5063489,1.53822926 q 0.159402,-0.0438356 0.3227891,-0.0677458 0.163387,-0.0278953 0.3148189,-0.0278953 l 1.912824,0 q 0.1155665,0 0.1833123,0.0677458 0.067746,0.0677458 0.067746,0.17534219 l 0,0.4303854 -3.8097078,0 0,-0.24308805 q 0,-0.0757159 0.0318804,-0.15541695 0.0318804,-0.079701 0.0996263,-0.14744684 L 2.3352393,-2.3830599 q 0.2271478,-0.2311329 0.4144452,-0.4423405 0.1872973,-0.2151927 0.318804,-0.4303854 0.1315066,-0.2151927 0.2032375,-0.4343705 0.071731,-0.2231628 0.071731,-0.4742209 0,-0.2510582 -0.079701,-0.4383555 -0.079701,-0.1912824 -0.2191777,-0.314819 -0.1354917,-0.1235365 -0.3227891,-0.1833123 -0.1872973,-0.063761 -0.40249,-0.063761 -0.2191778,0 -0.4024901,0.063761 -0.1833123,0.063761 -0.3267741,0.1793273 -0.1394767,0.1115814 -0.2351179,0.2669983 -0.095641,0.155417 -0.1354917,0.3427143 -0.047821,0.1394768 -0.1315067,0.1872974 -0.079701,0.043835 -0.22714781,0.02391 L 0.49016115,-4.1643772 Q 0.54595184,-4.5549121 0.70535384,-4.8537909 0.86874089,-5.1566547 1.1118289,-5.3598922 1.358902,-5.5631297 1.673721,-5.666741 1.9885399,-5.7743374 2.3551645,-5.7743374 Z" /></g></g></g><g
       style="fill:#000000"
       transform="translate(119.883,639.524)"
       id="g198"><g
         style="fill:#000000"
         transform="translate(0,-786.864)"
         id="g200"><g
           id="text202"
           style="fill:#000000"
           transform="matrix(1,0,0,-1,0,786.864)"><path
             id="path278"
             style="font-variant:normal;font-weight:normal;font-size:7.97009993px;font-family:Lato;-inkscape-font-specification:Lato;writing-mode:lr-tb;fill:#000000;fill-opacity:1;fill-rule:nonzero;stroke:none"
             d="m 2.3830599,-5.7743374 q 0.3626395,0 0.6694884,0.1036113 0.3068488,0.1036113 0.5260266,0.2948937 0.2231628,0.1912824 0.3466993,0.4622658 0.1235366,0.2709834 0.1235366,0.6017425 0,0.2709834 -0.071731,0.4861761 -0.067746,0.2112077 -0.1992525,0.3745947 -0.1275216,0.159402 -0.3108339,0.2709834 -0.1833123,0.1115814 -0.4104602,0.1793273 0.557907,0.1474468 0.8368605,0.4941462 0.2829386,0.3466993 0.2829386,0.8687409 0,0.3945199 -0.1514319,0.70933886 Q 3.8774536,-0.61369769 3.6184254,-0.3905349 3.3593971,-0.17135715 3.0126978,-0.05180565 2.6699835,0.0637608 2.2754635,0.0637608 q -0.4542957,0 -0.7770847,-0.1115814 Q 1.1755897,-0.16338705 0.95242694,-0.36263955 0.72926414,-0.56189204 0.58580234,-0.83287544 0.44234055,-1.1078439 0.3427143,-1.4266479 l 0.30684884,-0.1275216 q 0.1195515,-0.051806 0.2311329,-0.027895 0.11556645,0.02391 0.16737206,0.1315066 0.051806,0.1115814 0.1275216,0.2669984 0.079701,0.1554169 0.2151927,0.29887871 0.1354917,0.1434618 0.3427143,0.24308805 0.2112077,0.0996262 0.5339967,0.0996262 0.2988788,0 0.5220416,-0.0956412 0.2271478,-0.0996263 0.3745947,-0.2550432 0.1514319,-0.15541691 0.2271478,-0.34669931 0.075716,-0.1912824 0.075716,-0.3785798 0,-0.2311329 -0.059776,-0.4224153 Q 3.347442,-2.231628 3.1840549,-2.3711047 3.0206679,-2.5105815 2.7337443,-2.5902825 2.4508057,-2.6699835 2.0044801,-2.6699835 l 0,-0.5140714 q 0.3666246,-0.00399 0.6216678,-0.079701 0.2590283,-0.075716 0.4184303,-0.2072226 0.163387,-0.1315067 0.2351179,-0.314819 0.075716,-0.1833123 0.075716,-0.4064751 0,-0.2470731 -0.079701,-0.4303854 -0.075716,-0.1833123 -0.2112077,-0.3028638 -0.1354917,-0.1195515 -0.322789,-0.1793272 -0.1833123,-0.059776 -0.398505,-0.059776 -0.2151927,0 -0.4024901,0.063761 -0.1833123,0.063761 -0.3267741,0.1793273 -0.1394767,0.1115814 -0.2351179,0.2669983 -0.095641,0.155417 -0.1354917,0.3427143 -0.051806,0.1394768 -0.1315067,0.1872974 -0.075716,0.043835 -0.22316276,0.02391 L 0.5180565,-4.1643772 q 0.0557907,-0.3905349 0.21519269,-0.6894137 0.159402,-0.3028638 0.40249001,-0.5061013 0.2470731,-0.2032375 0.5618921,-0.3068488 0.318804,-0.1075964 0.6854286,-0.1075964 z" /></g></g></g><g
       style="fill:#000000"
       transform="translate(131.883,639.524)"
       id="g206"><g
         style="fill:#000000"
         transform="translate(0,-786.864)"
         id="g208"><g
           id="text210"
           style="fill:#000000"
           transform="matrix(1,0,0,-1,0,786.864)"><path
             id="path281"
             style="font-variant:normal;font-weight:normal;font-size:7.97009993px;font-family:Lato;-inkscape-font-specification:Lato;writing-mode:lr-tb;fill:#000000;fill-opacity:1;fill-rule:nonzero;stroke:none"
             d="m 3.5307543,-2.0602708 0.8647558,0 0,0.4064751 q 0,0.063761 -0.039851,0.1075963 -0.035865,0.043836 -0.1155664,0.043836 l -0.7093389,0 0,1.5023638 -0.6216678,0 0,-1.5023638 -2.5344918,0 q -0.079701,0 -0.13947675,-0.043836 -0.0557907,-0.047821 -0.0717309,-0.1155664 l -0.0717309,-0.3626396 2.77757985,-3.6861712 0.6615183,0 0,3.6503058 z M 2.9090865,-4.4154354 q 0,-0.1036113 0.00399,-0.2231628 0.00797,-0.1235365 0.027895,-0.2510581 l -2.08019611,2.8293855 2.04831571,0 0,-2.3551646 z" /></g></g></g><g
       style="fill:#000000"
       transform="translate(143.883,639.524)"
       id="g214"><g
         style="fill:#000000"
         transform="translate(0,-786.864)"
         id="g216"><g
           id="text218"
           style="fill:#000000"
           transform="matrix(1,0,0,-1,0,786.864)"><path
             id="path284"
             style="font-variant:normal;font-weight:normal;font-size:7.97009993px;font-family:Lato;-inkscape-font-specification:Lato;writing-mode:lr-tb;fill:#000000;fill-opacity:1;fill-rule:nonzero;stroke:none"
             d="m 3.9133191,-5.3997427 q 0,0.1514319 -0.095641,0.2510581 -0.091656,0.095641 -0.318804,0.095641 l -1.7932725,0 -0.2630133,1.4983788 q 0.2271478,-0.051806 0.4264003,-0.071731 0.2032376,-0.02391 0.39452,-0.02391 0.4463256,0 0.7890399,0.1315067 0.3427143,0.1315066 0.5698621,0.3626395 0.2311329,0.2311329 0.3466994,0.5459519 0.1195515,0.3148189 0.1195515,0.6854286 0,0.4542957 -0.159402,0.8209203 -0.155417,0.36662456 -0.4343705,0.62963785 -0.2749684,0.25902825 -0.6495631,0.398505 Q 2.470731,0.0637608 2.0363605,0.0637608 q -0.2510581,0 -0.482191,-0.05180565 Q 1.3230366,-0.03586545 1.119799,-0.1195515 0.92054654,-0.20323755 0.74918939,-0.3108339 0.57783224,-0.41843025 0.4463256,-0.53798175 l 0.21917774,-0.30286379 q 0.0717309,-0.1036113 0.18729735,-0.1036113 0.079701,0 0.17932721,0.0637608 0.099626,0.0597758 0.2430881,0.1354917 0.1434618,0.0757159 0.3347442,0.13947675 0.1952674,0.0597758 0.4622658,0.0597758 0.2988787,0 0.5379817,-0.0956412 0.239103,-0.0956412 0.4104602,-0.2709834 0.1713571,-0.17932726 0.2630133,-0.42640036 0.091656,-0.2470731 0.091656,-0.5539219 0,-0.2669984 -0.079701,-0.4821911 -0.075716,-0.2151927 -0.2351179,-0.3666246 -0.155417,-0.1514319 -0.3905349,-0.2351179 -0.235118,-0.083686 -0.5499369,-0.083686 -0.2151927,0 -0.4503107,0.035865 -0.2311329,0.035865 -0.4742209,0.1155664 l -0.44632561,-0.1315066 0.45828071,-2.6699835 2.705849,0 0,0.3108339 z" /></g></g></g><g
       style="fill:#000000"
       transform="translate(155.883,639.524)"
       id="g222"><g
         style="fill:#000000"
         transform="translate(0,-786.864)"
         id="g224"><g
           id="text226"
           style="fill:#000000"
           transform="matrix(1,0,0,-1,0,786.864)"><path
             id="path287"
             style="font-variant:normal;font-weight:normal;font-size:7.97009993px;font-family:Lato;-inkscape-font-specification:Lato;writing-mode:lr-tb;fill:#000000;fill-opacity:1;fill-rule:nonzero;stroke:none"
             d="m 1.8889137,-3.5706048 q -0.079701,0.095641 -0.1474469,0.1872974 -0.067746,0.091656 -0.1354917,0.1793272 0.2032376,-0.1394767 0.4463256,-0.2151927 0.2470731,-0.079701 0.5339967,-0.079701 0.3466994,0 0.6535482,0.1155665 0.3068489,0.1115814 0.5339967,0.3307591 0.2311329,0.2151927 0.3666246,0.5339967 0.1354917,0.314819 0.1354917,0.7212941 0,0.3945199 -0.1434618,0.7332492 -0.1434618,0.33872921 -0.40249,0.58978735 Q 3.4749636,-0.2231628 3.112324,-0.079701 2.7536695,0.0637608 2.3192991,0.0637608 q -0.4303854,0 -0.7810698,-0.1354917 Q 1.1875449,-0.21120765 0.94047179,-0.4622658 0.69738374,-0.71730899 0.56189204,-1.0759635 0.4303854,-1.438603 0.4303854,-1.8849286 q 0,-0.3745947 0.16338704,-0.79701 Q 0.76114454,-3.108339 1.1237841,-3.59053 l 1.4505582,-1.9486894 q 0.055791,-0.071731 0.1514319,-0.1195515 0.099626,-0.051806 0.2271478,-0.051806 l 0.6296379,0 -1.6936462,2.1399718 z m -0.7770848,1.8092127 q 0,0.2749685 0.079701,0.5021163 0.079701,0.2271479 0.2311329,0.39053491 0.155417,0.16338705 0.3745947,0.2550432 0.2231628,0.0876711 0.5061014,0.0876711 0.2869236,0 0.5180565,-0.0916561 0.2351179,-0.0916562 0.398505,-0.2550432 0.1673721,-0.16338706 0.2550432,-0.38654986 0.091656,-0.2231628 0.091656,-0.4861761 0,-0.2789535 -0.087671,-0.5021163 -0.087671,-0.2271478 -0.2510581,-0.3825648 -0.159402,-0.159402 -0.3825648,-0.243088 -0.2231628,-0.083686 -0.4901612,-0.083686 -0.2869236,0 -0.5180565,0.099626 -0.2311329,0.095641 -0.3945199,0.2630133 -0.159402,0.163387 -0.2470731,0.3825648 -0.083686,0.2151927 -0.083686,0.4503106 z" /></g></g></g><g
       style="fill:#000000"
       id="g240"><g
         style="fill:#000000"
         id="g242"><path
           id="path244"
           style="fill:#000000;fill-opacity:1;fill-rule:evenodd;stroke:none"
           d="m 99.8,647.66 c 0,0.994 -0.8059,1.8 -1.8,1.8 -0.9941,0 -1.8,-0.806 -1.8,-1.8 0,-0.994 0.8059,-1.8 1.8,-1.8 0.9941,0 1.8,0.806 1.8,1.8" /></g></g><g
       style="fill:#000000"
       id="g246"><g
         style="fill:#000000"
         id="g248"><path
           id="path250"
           style="fill:#000000;fill-opacity:1;fill-rule:evenodd;stroke:none"
           d="m 111.8,647.66 c 0,0.994 -0.806,1.8 -1.8,1.8 -0.994,0 -1.8,-0.806 -1.8,-1.8 0,-0.994 0.806,-1.8 1.8,-1.8 0.994,0 1.8,0.806 1.8,1.8" /></g></g><g
       style="fill:#000000"
       id="g252"><g
         style="fill:#000000"
         id="g254"><path
           id="path256"
           style="fill:#000000;fill-opacity:1;fill-rule:evenodd;stroke:none"
           d="m 123.8,647.66 c 0,0.994 -0.806,1.8 -1.8,1.8 -0.994,0 -1.8,-0.806 -1.8,-1.8 0,-0.994 0.806,-1.8 1.8,-1.8 0.994,0 1.8,0.806 1.8,1.8" /></g></g><g
       style="fill:#000000"
       id="g258"><g
         style="fill:#000000"
         id="g260"><path
           id="path262"
           style="fill:#000000;fill-opacity:1;fill-rule:evenodd;stroke:none"
           d="m 135.8,647.66 c 0,0.994 -0.806,1.8 -1.8,1.8 -0.994,0 -1.8,-0.806 -1.8,-1.8 0,-0.994 0.806,-1.8 1.8,-1.8 0.994,0 1.8,0.806 1.8,1.8" /></g></g><g
       style="fill:#000000"
       id="g264"><g
         style="fill:#000000"
         id="g266"><path
           id="path268"
           style="fill:#000000;fill-opacity:1;fill-rule:evenodd;stroke:none"
           d="m 147.8,647.66 c 0,0.994 -0.806,1.8 -1.8,1.8 -0.994,0 -1.8,-0.806 -1.8,-1.8 0,-0.994 0.806,-1.8 1.8,-1.8 0.994,0 1.8,0.806 1.8,1.8" /></g></g><g
       style="fill:#000000"
       id="g270"><g
         style="fill:#000000"
         id="g272"><path
           id="path274"
           style="fill:#000000;fill-opacity:1;fill-rule:evenodd;stroke:none"
           d="m 159.8,647.66 c 0,0.994 -0.806,1.8 -1.8,1.8 -0.994,0 -1.8,-0.806 -1.8,-1.8 0,-0.994 0.806,-1.8 1.8,-1.8 0.994,0 1.8,0.806 1.8,1.8" /></g></g><g
       style="fill:#000000"
       id="g276"><g
         style="fill:#000000"
         id="g278"><path
           id="path280"
           style="fill:#000000;fill-opacity:1;fill-rule:evenodd;stroke:none"
           d="m 129.8,699.621 c 0,0.995 -0.806,1.8 -1.8,1.8 -0.994,0 -1.8,-0.805 -1.8,-1.8 0,-0.994 0.806,-1.799 1.8,-1.799 0.994,0 1.8,0.805 1.8,1.799" /></g></g><g
       style="fill:#000000"
       id="g282"><g
         style="fill:#000000"
         id="g284"><path
           id="path286"
           style="fill:#000000;fill-opacity:1;fill-rule:evenodd;stroke:none"
           d="m 147.8,668.445 c 0,0.994 -0.806,1.8 -1.8,1.8 -0.994,0 -1.8,-0.806 -1.8,-1.8 0,-0.994 0.806,-1.8 1.8,-1.8 0.994,0 1.8,0.806 1.8,1.8" /></g></g><g
       style="fill:#000000"
       id="g288"><g
         style="fill:#000000"
         id="g290"><path
           id="path292"
           style="fill:#000000;fill-opacity:1;fill-rule:evenodd;stroke:none"
           d="m 141.8,658.052 c 0,0.994 -0.806,1.8 -1.8,1.8 -0.994,0 -1.8,-0.806 -1.8,-1.8 0,-0.994 0.806,-1.8 1.8,-1.8 0.994,0 1.8,0.806 1.8,1.8" /></g></g><g
       style="fill:#000000"
       id="g294"><g
         style="fill:#000000"
         id="g296"><path
           id="path298"
           style="fill:#000000;fill-opacity:1;fill-rule:evenodd;stroke:none"
           d="m 117.8,658.052 c 0,0.994 -0.806,1.8 -1.8,1.8 -0.994,0 -1.8,-0.806 -1.8,-1.8 0,-0.994 0.806,-1.8 1.8,-1.8 0.994,0 1.8,0.806 1.8,1.8" /></g></g><g
       style="fill:#000000"
       id="g300"><path
         id="path302"
         style="fill:#000000;stroke:#000000;stroke-width:0.40000001;stroke-linecap:butt;stroke-linejoin:round;stroke-miterlimit:10;stroke-dasharray:none;stroke-opacity:1"
         d="m 98,647.66 30,51.961" /></g><g
       style="fill:#000000;stroke:#000000"
       id="g304"><path
         id="path306"
         style="fill:#000000;stroke:#000000;stroke-width:0.40000001;stroke-linecap:butt;stroke-linejoin:round;stroke-miterlimit:10;stroke-dasharray:none;stroke-opacity:1"
         d="m 110,647.66 6,10.392" /></g><g
       style="fill:#000000;stroke:#000000"
       id="g308"><path
         id="path310"
         style="fill:#000000;stroke:#000000;stroke-width:0.40000001;stroke-linecap:butt;stroke-linejoin:round;stroke-miterlimit:10;stroke-dasharray:none;stroke-opacity:1"
         d="m 122,647.66 -6,10.392" /></g><g
       style="fill:#000000;stroke:#000000"
       id="g312"><path
         id="path314"
         style="fill:#000000;stroke:#000000;stroke-width:0.40000001;stroke-linecap:butt;stroke-linejoin:round;stroke-miterlimit:10;stroke-dasharray:1, 1;stroke-dashoffset:0;stroke-opacity:1"
         d="m 116,658.052 18,31.178" /></g><g
       style="fill:#000000"
       id="g316"><path
         id="path318"
         style="fill:#000000;stroke:#000000;stroke-width:0.40000001;stroke-linecap:butt;stroke-linejoin:round;stroke-miterlimit:10;stroke-dasharray:none;stroke-opacity:1"
         d="m 134,647.66 6,10.392" /></g><g
       style="fill:#000000"
       id="g320"><path
         id="path322"
         style="fill:#000000;stroke:#000000;stroke-width:0.40000001;stroke-linecap:butt;stroke-linejoin:round;stroke-miterlimit:10;stroke-dasharray:none;stroke-opacity:1"
         d="m 140,658.052 6,10.393" /></g><g
       style="fill:#000000"
       id="g324"><path
         id="path326"
         style="fill:#000000;stroke:#000000;stroke-width:0.40000001;stroke-linecap:butt;stroke-linejoin:round;stroke-miterlimit:10;stroke-dasharray:none;stroke-opacity:1"
         d="m 146,647.66 -6,10.392" /></g><g
       style="fill:#000000"
       id="g328"><path
         id="path330"
         style="fill:#000000;stroke:#000000;stroke-width:0.40000001;stroke-linecap:butt;stroke-linejoin:round;stroke-miterlimit:10;stroke-dasharray:none;stroke-opacity:1"
         d="m 158,647.66 -12,20.785" /></g><g
       style="fill:#000000"
       id="g332"><path
         id="path334"
         style="fill:#000000;stroke:#000000;stroke-width:0.40000001;stroke-linecap:butt;stroke-linejoin:round;stroke-miterlimit:10;stroke-dasharray:none;stroke-opacity:1"
         d="M 146,668.445 134,689.23" /></g><g
       style="fill:#000000"
       id="g336"><path
         id="path338"
         style="fill:#000000;stroke:#000000;stroke-width:0.40000001;stroke-linecap:butt;stroke-linejoin:round;stroke-miterlimit:10;stroke-dasharray:none;stroke-opacity:1"
         d="m 134,689.23 -6,10.391" /></g><g
       style="fill:#000000"
       id="g340"><path
         id="path342"
         style="fill:#000000;stroke:#000000;stroke-width:0.40000001;stroke-linecap:butt;stroke-linejoin:round;stroke-miterlimit:10;stroke-dasharray:none;stroke-opacity:1"
         d="m 128,711.622 0,-12" /></g><g
       style="fill:#000000"
       id="g344"><g
         style="fill:#000000"
         id="g346"><path
           id="path348"
           style="fill:#000000;fill-opacity:1;fill-rule:evenodd;stroke:none"
           d="m 129.8,711.621 c 0,0.995 -0.806,1.8 -1.8,1.8 -0.994,0 -1.8,-0.805 -1.8,-1.8 0,-0.994 0.806,-1.799 1.8,-1.799 0.994,0 1.8,0.805 1.8,1.799" /></g></g><g
       style="fill:#000000"
       id="g366"><g
         style="fill:#000000"
         id="g368"><path
           id="path370"
           style="fill:#000000;fill-opacity:1;fill-rule:evenodd;stroke:none"
           d="m 315.8,647.659 c 0,0.995 -0.806,1.8 -1.8,1.8 -0.994,0 -1.8,-0.805 -1.8,-1.8 0,-0.994 0.806,-1.799 1.8,-1.799 0.994,0 1.8,0.805 1.8,1.799" /></g></g><g
       style="fill:#000000"
       id="g372"><g
         style="fill:#000000"
         id="g374"><path
           id="path376"
           style="fill:#000000;fill-opacity:1;fill-rule:evenodd;stroke:none"
           d="m 327.8,647.659 c 0,0.995 -0.806,1.8 -1.8,1.8 -0.994,0 -1.8,-0.805 -1.8,-1.8 0,-0.994 0.806,-1.799 1.8,-1.799 0.994,0 1.8,0.805 1.8,1.799" /></g></g><g
       style="fill:#000000"
       id="g378"><g
         style="fill:#000000"
         id="g380"><path
           id="path382"
           style="fill:#000000;fill-opacity:1;fill-rule:evenodd;stroke:none"
           d="m 339.8,647.659 c 0,0.995 -0.806,1.8 -1.8,1.8 -0.994,0 -1.8,-0.805 -1.8,-1.8 0,-0.994 0.806,-1.799 1.8,-1.799 0.994,0 1.8,0.805 1.8,1.799" /></g></g><g
       style="fill:#000000"
       id="g384"><g
         style="fill:#000000"
         id="g386"><path
           id="path388"
           style="fill:#000000;fill-opacity:1;fill-rule:evenodd;stroke:none"
           d="m 351.8,647.659 c 0,0.995 -0.806,1.8 -1.8,1.8 -0.994,0 -1.8,-0.805 -1.8,-1.8 0,-0.994 0.806,-1.799 1.8,-1.799 0.994,0 1.8,0.805 1.8,1.799" /></g></g><g
       style="fill:#000000"
       id="g390"><g
         style="fill:#000000"
         id="g392"><path
           id="path394"
           style="fill:#000000;fill-opacity:1;fill-rule:evenodd;stroke:none"
           d="m 363.8,647.659 c 0,0.995 -0.806,1.8 -1.8,1.8 -0.994,0 -1.8,-0.805 -1.8,-1.8 0,-0.994 0.806,-1.799 1.8,-1.799 0.994,0 1.8,0.805 1.8,1.799" /></g></g><g
       style="fill:#000000"
       id="g396"><g
         style="fill:#000000"
         id="g398"><path
           id="path400"
           style="fill:#000000;fill-opacity:1;fill-rule:evenodd;stroke:none"
           d="m 375.8,647.659 c 0,0.995 -0.806,1.8 -1.8,1.8 -0.994,0 -1.8,-0.805 -1.8,-1.8 0,-0.994 0.806,-1.799 1.8,-1.799 0.994,0 1.8,0.805 1.8,1.799" /></g></g><g
       style="fill:#000000"
       id="g402"><g
         style="fill:#000000"
         id="g404"><path
           id="path406"
           style="fill:#000000;fill-opacity:1;fill-rule:evenodd;stroke:none"
           d="m 345.8,699.621 c 0,0.994 -0.806,1.8 -1.8,1.8 -0.994,0 -1.8,-0.806 -1.8,-1.8 0,-0.994 0.806,-1.8 1.8,-1.8 0.994,0 1.8,0.806 1.8,1.8" /></g></g><g
       style="fill:#000000"
       id="g408"><g
         style="fill:#000000"
         id="g410"><path
           id="path412"
           style="fill:#000000;fill-opacity:1;fill-rule:evenodd;stroke:none"
           d="m 351.8,689.229 c 0,0.994 -0.806,1.8 -1.8,1.8 -0.994,0 -1.8,-0.806 -1.8,-1.8 0,-0.994 0.806,-1.8 1.8,-1.8 0.994,0 1.8,0.806 1.8,1.8" /></g></g><g
       style="fill:#000000"
       id="g414"><g
         style="fill:#000000"
         id="g416"><path
           id="path418"
           style="fill:#000000;fill-opacity:1;fill-rule:evenodd;stroke:none"
           d="m 357.8,658.052 c 0,0.994 -0.806,1.799 -1.8,1.799 -0.994,0 -1.8,-0.805 -1.8,-1.799 0,-0.995 0.806,-1.8 1.8,-1.8 0.994,0 1.8,0.805 1.8,1.8" /></g></g><g
       style="fill:#000000"
       id="g420"><g
         style="fill:#000000"
         id="g422"><path
           id="path424"
           style="fill:#000000;fill-opacity:1;fill-rule:evenodd;stroke:none"
           d="m 333.8,658.052 c 0,0.994 -0.806,1.799 -1.8,1.799 -0.994,0 -1.8,-0.805 -1.8,-1.799 0,-0.995 0.806,-1.8 1.8,-1.8 0.994,0 1.8,0.805 1.8,1.8" /></g></g><g
       style="fill:#000000"
       id="g426"><path
         id="path428"
         style="fill:#000000;stroke:#000000;stroke-width:0.40000001;stroke-linecap:butt;stroke-linejoin:round;stroke-miterlimit:10;stroke-dasharray:none;stroke-opacity:1"
         d="m 314,647.659 30,51.962" /></g><g
       style="fill:#000000"
       id="g430"><path
         id="path432"
         style="fill:#000000;stroke:#000000;stroke-width:0.40000001;stroke-linecap:butt;stroke-linejoin:round;stroke-miterlimit:10;stroke-dasharray:none;stroke-opacity:1"
         d="m 326,647.659 6,10.393" /></g><g
       style="fill:#000000"
       id="g434"><path
         id="path436"
         style="fill:#000000;stroke:#000000;stroke-width:0.40000001;stroke-linecap:butt;stroke-linejoin:round;stroke-miterlimit:10;stroke-dasharray:none;stroke-opacity:1"
         d="m 338,647.659 -6,10.393" /></g><g
       style="fill:#000000"
       id="g438"><path
         id="path440"
         style="fill:#000000;stroke:#000000;stroke-width:0.40000001;stroke-linecap:butt;stroke-linejoin:round;stroke-miterlimit:10;stroke-dasharray:none;stroke-opacity:1"
         d="m 332,658.052 18,31.177" /></g><g
       style="fill:#000000;stroke:#000000"
       id="g442"><path
         id="path444"
         style="fill:#000000;stroke:#000000;stroke-width:0.40000001;stroke-linecap:butt;stroke-linejoin:round;stroke-miterlimit:10;stroke-dasharray:none;stroke-opacity:1"
         d="m 350,647.659 6,10.393" /></g><g
       style="fill:#000000;stroke:#000000"
       id="g450"><path
         id="path452"
         style="fill:#000000;stroke:#000000;stroke-width:0.40000001;stroke-linecap:butt;stroke-linejoin:round;stroke-miterlimit:10;stroke-dasharray:none;stroke-opacity:1"
         d="m 362,647.659 -6,10.393" /></g><g
       style="fill:#000000"
       id="g454"><path
         id="path456"
         style="fill:#000000;stroke:#000000;stroke-width:0.40000001;stroke-linecap:butt;stroke-linejoin:round;stroke-miterlimit:10;stroke-dasharray:none;stroke-opacity:1"
         d="m 374,647.659 -12,20.785" /></g><g
       style="fill:#000000"
       id="g458"><path
         id="path460"
         style="fill:#000000;stroke:#000000;stroke-width:0.40000001;stroke-linecap:butt;stroke-linejoin:round;stroke-miterlimit:10;stroke-dasharray:none;stroke-opacity:1"
         d="m 362,668.444 -12,20.785" /></g><g
       style="fill:#000000"
       id="g462"><path
         id="path464"
         style="fill:#000000;stroke:#000000;stroke-width:0.40000001;stroke-linecap:butt;stroke-linejoin:round;stroke-miterlimit:10;stroke-dasharray:none;stroke-opacity:1"
         d="m 350,689.229 -6,10.392" /></g><g
       style="fill:#000000"
       id="g466"><path
         id="path468"
         style="fill:#000000;stroke:#000000;stroke-width:0.40000001;stroke-linecap:butt;stroke-linejoin:round;stroke-miterlimit:10;stroke-dasharray:none;stroke-opacity:1"
         d="m 344,711.621 0,-12" /></g><g
       style="fill:#000000"
       transform="translate(311.883,639.524)"
       id="g470"><g
         style="fill:#000000"
         transform="translate(0,-786.864)"
         id="g472"><g
           id="text474"
           style="fill:#000000"
           transform="matrix(1,0,0,-1,0,786.864)"><path
             id="path290"
             style="font-variant:normal;font-weight:normal;font-size:7.97009993px;font-family:Lato;-inkscape-font-specification:Lato;writing-mode:lr-tb;fill:#000000;fill-opacity:1;fill-rule:nonzero;stroke:none"
             d="m 0.99626249,-0.54196679 1.22341031,0 0,-3.89339381 q 0,-0.1673721 0.011955,-0.3546695 l -1.0161878,0.872726 q -0.051806,0.043836 -0.1036113,0.055791 -0.051806,0.00797 -0.095641,0 -0.0438355,-0.00797 -0.083686,-0.03188 -0.0358655,-0.02391 -0.0557907,-0.051806 l -0.2231628,-0.3068488 1.70161631,-1.4704834 0.5778323,0 0,5.18056491 1.1237841,0 0,0.54196679 -3.06051841,0 0,-0.54196679 z" /></g></g></g><g
       style="fill:#000000"
       transform="translate(347.883,639.524)"
       id="g478"><g
         style="fill:#000000"
         transform="translate(0,-786.864)"
         id="g480"><g
           id="text482"
           style="fill:#000000"
           transform="matrix(1,0,0,-1,0,786.864)"><path
             id="path293"
             style="font-variant:normal;font-weight:normal;font-size:7.97009993px;font-family:Lato;-inkscape-font-specification:Lato;writing-mode:lr-tb;fill:#000000;fill-opacity:1;fill-rule:nonzero;stroke:none"
             d="m 2.3551645,-5.7743374 q 0.3626396,0 0.6774585,0.1075964 0.314819,0.1075963 0.5459519,0.3148189 0.2311329,0.2032375 0.3626395,0.4981312 0.1315067,0.2948937 0.1315067,0.6694884 0,0.318804 -0.095641,0.5937725 -0.095641,0.2709834 -0.2590283,0.5180565 -0.163387,0.2470731 -0.3785797,0.482191 -0.2112077,0.235118 -0.4503107,0.474221 l -1.5063489,1.53822926 q 0.159402,-0.0438356 0.3227891,-0.0677458 0.163387,-0.0278953 0.3148189,-0.0278953 l 1.912824,0 q 0.1155665,0 0.1833123,0.0677458 0.067746,0.0677458 0.067746,0.17534219 l 0,0.4303854 -3.8097078,0 0,-0.24308805 q 0,-0.0757159 0.0318804,-0.15541695 0.0318804,-0.079701 0.0996263,-0.14744684 L 2.3352393,-2.3830599 q 0.2271478,-0.2311329 0.4144452,-0.4423405 0.1872973,-0.2151927 0.318804,-0.4303854 0.1315066,-0.2151927 0.2032375,-0.4343705 0.071731,-0.2231628 0.071731,-0.4742209 0,-0.2510582 -0.079701,-0.4383555 -0.079701,-0.1912824 -0.2191777,-0.314819 -0.1354917,-0.1235365 -0.3227891,-0.1833123 -0.1872973,-0.063761 -0.40249,-0.063761 -0.2191778,0 -0.4024901,0.063761 -0.1833123,0.063761 -0.3267741,0.1793273 -0.1394767,0.1115814 -0.2351179,0.2669983 -0.095641,0.155417 -0.1354917,0.3427143 -0.047821,0.1394768 -0.1315067,0.1872974 -0.079701,0.043835 -0.22714781,0.02391 L 0.49016115,-4.1643772 Q 0.54595184,-4.5549121 0.70535384,-4.8537909 0.86874089,-5.1566547 1.1118289,-5.3598922 1.358902,-5.5631297 1.673721,-5.666741 1.9885399,-5.7743374 2.3551645,-5.7743374 Z" /></g></g></g><g
       style="fill:#000000"
       transform="translate(359.883,639.524)"
       id="g486"><g
         style="fill:#000000"
         transform="translate(0,-786.864)"
         id="g488"><g
           id="text490"
           style="fill:#000000"
           transform="matrix(1,0,0,-1,0,786.864)"><path
             id="path296"
             style="font-variant:normal;font-weight:normal;font-size:7.97009993px;font-family:Lato;-inkscape-font-specification:Lato;writing-mode:lr-tb;fill:#000000;fill-opacity:1;fill-rule:nonzero;stroke:none"
             d="m 2.3830599,-5.7743374 q 0.3626395,0 0.6694884,0.1036113 0.3068488,0.1036113 0.5260266,0.2948937 0.2231628,0.1912824 0.3466993,0.4622658 0.1235366,0.2709834 0.1235366,0.6017425 0,0.2709834 -0.071731,0.4861761 -0.067746,0.2112077 -0.1992525,0.3745947 -0.1275216,0.159402 -0.3108339,0.2709834 -0.1833123,0.1115814 -0.4104602,0.1793273 0.557907,0.1474468 0.8368605,0.4941462 0.2829386,0.3466993 0.2829386,0.8687409 0,0.3945199 -0.1514319,0.70933886 Q 3.8774536,-0.61369769 3.6184254,-0.3905349 3.3593971,-0.17135715 3.0126978,-0.05180565 2.6699835,0.0637608 2.2754635,0.0637608 q -0.4542957,0 -0.7770847,-0.1115814 Q 1.1755897,-0.16338705 0.95242694,-0.36263955 0.72926414,-0.56189204 0.58580234,-0.83287544 0.44234055,-1.1078439 0.3427143,-1.4266479 l 0.30684884,-0.1275216 q 0.1195515,-0.051806 0.2311329,-0.027895 0.11556645,0.02391 0.16737206,0.1315066 0.051806,0.1115814 0.1275216,0.2669984 0.079701,0.1554169 0.2151927,0.29887871 0.1354917,0.1434618 0.3427143,0.24308805 0.2112077,0.0996262 0.5339967,0.0996262 0.2988788,0 0.5220416,-0.0956412 0.2271478,-0.0996263 0.3745947,-0.2550432 0.1514319,-0.15541691 0.2271478,-0.34669931 0.075716,-0.1912824 0.075716,-0.3785798 0,-0.2311329 -0.059776,-0.4224153 Q 3.347442,-2.231628 3.1840549,-2.3711047 3.0206679,-2.5105815 2.7337443,-2.5902825 2.4508057,-2.6699835 2.0044801,-2.6699835 l 0,-0.5140714 q 0.3666246,-0.00399 0.6216678,-0.079701 0.2590283,-0.075716 0.4184303,-0.2072226 0.163387,-0.1315067 0.2351179,-0.314819 0.075716,-0.1833123 0.075716,-0.4064751 0,-0.2470731 -0.079701,-0.4303854 -0.075716,-0.1833123 -0.2112077,-0.3028638 -0.1354917,-0.1195515 -0.322789,-0.1793272 -0.1833123,-0.059776 -0.398505,-0.059776 -0.2151927,0 -0.4024901,0.063761 -0.1833123,0.063761 -0.3267741,0.1793273 -0.1394767,0.1115814 -0.2351179,0.2669983 -0.095641,0.155417 -0.1354917,0.3427143 -0.051806,0.1394768 -0.1315067,0.1872974 -0.075716,0.043835 -0.22316276,0.02391 L 0.5180565,-4.1643772 q 0.0557907,-0.3905349 0.21519269,-0.6894137 0.159402,-0.3028638 0.40249001,-0.5061013 0.2470731,-0.2032375 0.5618921,-0.3068488 0.318804,-0.1075964 0.6854286,-0.1075964 z" /></g></g></g><g
       style="fill:#000000"
       transform="translate(323.883,639.524)"
       id="g494"><g
         style="fill:#000000"
         transform="translate(0,-786.864)"
         id="g496"><g
           id="text498"
           style="fill:#000000"
           transform="matrix(1,0,0,-1,0,786.864)"><path
             id="path299"
             style="font-variant:normal;font-weight:normal;font-size:7.97009993px;font-family:Lato;-inkscape-font-specification:Lato;writing-mode:lr-tb;fill:#000000;fill-opacity:1;fill-rule:nonzero;stroke:none"
             d="m 3.5307543,-2.0602708 0.8647558,0 0,0.4064751 q 0,0.063761 -0.039851,0.1075963 -0.035865,0.043836 -0.1155664,0.043836 l -0.7093389,0 0,1.5023638 -0.6216678,0 0,-1.5023638 -2.5344918,0 q -0.079701,0 -0.13947675,-0.043836 -0.0557907,-0.047821 -0.0717309,-0.1155664 l -0.0717309,-0.3626396 2.77757985,-3.6861712 0.6615183,0 0,3.6503058 z M 2.9090865,-4.4154354 q 0,-0.1036113 0.00399,-0.2231628 0.00797,-0.1235365 0.027895,-0.2510581 l -2.08019611,2.8293855 2.04831571,0 0,-2.3551646 z" /></g></g></g><g
       style="fill:#000000"
       transform="translate(335.883,639.524)"
       id="g502"><g
         style="fill:#000000"
         transform="translate(0,-786.864)"
         id="g504"><g
           id="text506"
           style="fill:#000000"
           transform="matrix(1,0,0,-1,0,786.864)"><path
             id="path303"
             style="font-variant:normal;font-weight:normal;font-size:7.97009993px;font-family:Lato;-inkscape-font-specification:Lato;writing-mode:lr-tb;fill:#000000;fill-opacity:1;fill-rule:nonzero;stroke:none"
             d="m 3.9133191,-5.3997427 q 0,0.1514319 -0.095641,0.2510581 -0.091656,0.095641 -0.318804,0.095641 l -1.7932725,0 -0.2630133,1.4983788 q 0.2271478,-0.051806 0.4264003,-0.071731 0.2032376,-0.02391 0.39452,-0.02391 0.4463256,0 0.7890399,0.1315067 0.3427143,0.1315066 0.5698621,0.3626395 0.2311329,0.2311329 0.3466994,0.5459519 0.1195515,0.3148189 0.1195515,0.6854286 0,0.4542957 -0.159402,0.8209203 -0.155417,0.36662456 -0.4343705,0.62963785 -0.2749684,0.25902825 -0.6495631,0.398505 Q 2.470731,0.0637608 2.0363605,0.0637608 q -0.2510581,0 -0.482191,-0.05180565 Q 1.3230366,-0.03586545 1.119799,-0.1195515 0.92054654,-0.20323755 0.74918939,-0.3108339 0.57783224,-0.41843025 0.4463256,-0.53798175 l 0.21917774,-0.30286379 q 0.0717309,-0.1036113 0.18729735,-0.1036113 0.079701,0 0.17932721,0.0637608 0.099626,0.0597758 0.2430881,0.1354917 0.1434618,0.0757159 0.3347442,0.13947675 0.1952674,0.0597758 0.4622658,0.0597758 0.2988787,0 0.5379817,-0.0956412 0.239103,-0.0956412 0.4104602,-0.2709834 0.1713571,-0.17932726 0.2630133,-0.42640036 0.091656,-0.2470731 0.091656,-0.5539219 0,-0.2669984 -0.079701,-0.4821911 -0.075716,-0.2151927 -0.2351179,-0.3666246 -0.155417,-0.1514319 -0.3905349,-0.2351179 -0.235118,-0.083686 -0.5499369,-0.083686 -0.2151927,0 -0.4503107,0.035865 -0.2311329,0.035865 -0.4742209,0.1155664 l -0.44632561,-0.1315066 0.45828071,-2.6699835 2.705849,0 0,0.3108339 z" /></g></g></g><g
       style="fill:#000000"
       transform="translate(371.883,639.524)"
       id="g510"><g
         style="fill:#000000"
         transform="translate(0,-786.864)"
         id="g512"><g
           id="text514"
           style="fill:#000000"
           transform="matrix(1,0,0,-1,0,786.864)"><path
             id="path307"
             style="font-variant:normal;font-weight:normal;font-size:7.97009993px;font-family:Lato;-inkscape-font-specification:Lato;writing-mode:lr-tb;fill:#000000;fill-opacity:1;fill-rule:nonzero;stroke:none"
             d="m 1.8889137,-3.5706048 q -0.079701,0.095641 -0.1474469,0.1872974 -0.067746,0.091656 -0.1354917,0.1793272 0.2032376,-0.1394767 0.4463256,-0.2151927 0.2470731,-0.079701 0.5339967,-0.079701 0.3466994,0 0.6535482,0.1155665 0.3068489,0.1115814 0.5339967,0.3307591 0.2311329,0.2151927 0.3666246,0.5339967 0.1354917,0.314819 0.1354917,0.7212941 0,0.3945199 -0.1434618,0.7332492 -0.1434618,0.33872921 -0.40249,0.58978735 Q 3.4749636,-0.2231628 3.112324,-0.079701 2.7536695,0.0637608 2.3192991,0.0637608 q -0.4303854,0 -0.7810698,-0.1354917 Q 1.1875449,-0.21120765 0.94047179,-0.4622658 0.69738374,-0.71730899 0.56189204,-1.0759635 0.4303854,-1.438603 0.4303854,-1.8849286 q 0,-0.3745947 0.16338704,-0.79701 Q 0.76114454,-3.108339 1.1237841,-3.59053 l 1.4505582,-1.9486894 q 0.055791,-0.071731 0.1514319,-0.1195515 0.099626,-0.051806 0.2271478,-0.051806 l 0.6296379,0 -1.6936462,2.1399718 z m -0.7770848,1.8092127 q 0,0.2749685 0.079701,0.5021163 0.079701,0.2271479 0.2311329,0.39053491 0.155417,0.16338705 0.3745947,0.2550432 0.2231628,0.0876711 0.5061014,0.0876711 0.2869236,0 0.5180565,-0.0916561 0.2351179,-0.0916562 0.398505,-0.2550432 0.1673721,-0.16338706 0.2550432,-0.38654986 0.091656,-0.2231628 0.091656,-0.4861761 0,-0.2789535 -0.087671,-0.5021163 -0.087671,-0.2271478 -0.2510581,-0.3825648 -0.159402,-0.159402 -0.3825648,-0.243088 -0.2231628,-0.083686 -0.4901612,-0.083686 -0.2869236,0 -0.5180565,0.099626 -0.2311329,0.095641 -0.3945199,0.2630133 -0.159402,0.163387 -0.2470731,0.3825648 -0.083686,0.2151927 -0.083686,0.4503106 z" /></g></g></g><g
       style="fill:#000000;stroke:none"
       id="g518"><path
         id="path520"
         style="fill:#000000;fill-opacity:1;fill-rule:evenodd;stroke:none"
         d="m 363.781,668.444 c 0,0.984 -0.797,1.781 -1.781,1.781 -0.984,0 -1.781,-0.797 -1.781,-1.781 0,-0.983 0.797,-1.781 1.781,-1.781 0.984,0 1.781,0.798 1.781,1.781" /></g><g
       style="fill:#000000"
       id="g522"><g
         style="fill:#000000"
         id="g524"><path
           id="path526"
           style="fill:#000000;fill-opacity:1;fill-rule:evenodd;stroke:none"
           d="m 135.8,689.23 c 0,0.994 -0.806,1.799 -1.8,1.799 -0.994,0 -1.8,-0.805 -1.8,-1.799 0,-0.995 0.806,-1.8 1.8,-1.8 0.994,0 1.8,0.805 1.8,1.8" /></g></g><path
       id="path3663"
       d="M 50.626286,82.518295 A 17.478123,17.478123 0 0 1 33.148163,99.996418 17.478123,17.478123 0 0 1 15.67004,82.518295 17.478123,17.478123 0 0 1 33.148163,65.040173 17.478123,17.478123 0 0 1 50.626286,82.518295 Z"
       style="fill:none;stroke:#b3b3b3;stroke-opacity:1"
       transform="matrix(0.73393063,0,0,-0.72477997,91.598348,708.29969)" /><g
       transform="matrix(0.10385731,0,0,0.10385731,78.009978,560.81051)"
       id="g3804"><path
         id="path2983-4"
         d="m 173.25703,350.16268 a 93.011673,93.011673 0 0 1 93.01168,-93.01166"
         style="fill:none;stroke:#b3b3b3;stroke-width:14.37699986;stroke-linejoin:round;stroke-miterlimit:4;stroke-dasharray:none;stroke-dashoffset:0;stroke-opacity:1"
         transform="translate(198.06299,372.09796)" /><path
         style="font-style:normal;font-weight:normal;font-size:718.64801025px;fill:#b3b3b3;fill-opacity:1;stroke:none"
         d="m 501.54527,629.54897 c -0.0338,0.0903 -0.11502,0.21263 -0.3031,0.33931 l -33.93918,17.6738 c -1.0058,0.42603 -1.41862,0.44403 -2.27317,0.45407 -1.11113,2e-5 -2.07116,-0.22461 -2.87932,-0.6836 -0.80808,-0.45899 -1.21231,-1.14777 -1.21235,-2.06577 4e-5,-0.3825 0.70504,-2.2321 0.705,-2.3851 l 0.96197,-2.54979 1.36391,-3.55772 c 0.30087,-5.12806 -0.0763,-9.17299 0,-14.33564 l -1.36391,-3.67247 -0.96197,-2.54979 c 4e-5,-0.153 -0.70496,-2.00262 -0.705,-2.3851 4e-5,-0.918 0.40427,-1.60678 1.21235,-2.06578 0.80816,-0.459 1.76819,-0.68859 2.87932,-0.68859 0.85455,0.01 1.26737,0.033 2.27317,0.45907 l 33.93918,17.66882 c 0.18808,0.12666 0.26925,0.25395 0.3031,0.34428 z"
         id="text12508-8-7-6" /></g><g
       transform="translate(-0.72032385,1.6)"
       id="g3922"><g
         id="g26"
         transform="translate(230.54052,611.83052)"
         style="fill:#000000"><g
           id="g28"
           transform="translate(0,-786.864)"
           style="fill:#000000"><g
             id="text30"
             style="fill:#000000"
             transform="matrix(1,0,0,-1,0,786.864)"><path
               id="path312"
               style="font-variant:normal;font-weight:normal;font-size:7.97009993px;font-family:Lato;-inkscape-font-specification:Lato;writing-mode:lr-tb;fill:#000000;fill-opacity:1;fill-rule:nonzero;stroke:none"
               d="m 2.3551645,-5.7743374 q 0.3626396,0 0.6774585,0.1075964 0.314819,0.1075963 0.5459519,0.3148189 0.2311329,0.2032375 0.3626395,0.4981312 0.1315067,0.2948937 0.1315067,0.6694884 0,0.318804 -0.095641,0.5937725 -0.095641,0.2709834 -0.2590283,0.5180565 -0.163387,0.2470731 -0.3785797,0.482191 -0.2112077,0.235118 -0.4503107,0.474221 l -1.5063489,1.53822926 q 0.159402,-0.0438356 0.3227891,-0.0677458 0.163387,-0.0278953 0.3148189,-0.0278953 l 1.912824,0 q 0.1155665,0 0.1833123,0.0677458 0.067746,0.0677458 0.067746,0.17534219 l 0,0.4303854 -3.8097078,0 0,-0.24308805 q 0,-0.0757159 0.0318804,-0.15541695 0.0318804,-0.079701 0.0996263,-0.14744684 L 2.3352393,-2.3830599 q 0.2271478,-0.2311329 0.4144452,-0.4423405 0.1872973,-0.2151927 0.318804,-0.4303854 0.1315066,-0.2151927 0.2032375,-0.4343705 0.071731,-0.2231628 0.071731,-0.4742209 0,-0.2510582 -0.079701,-0.4383555 -0.079701,-0.1912824 -0.2191777,-0.314819 -0.1354917,-0.1235365 -0.3227891,-0.1833123 -0.1872973,-0.063761 -0.40249,-0.063761 -0.2191778,0 -0.4024901,0.063761 -0.1833123,0.063761 -0.3267741,0.1793273 -0.1394767,0.1115814 -0.2351179,0.2669983 -0.095641,0.155417 -0.1354917,0.3427143 -0.047821,0.1394768 -0.1315067,0.1872974 -0.079701,0.043835 -0.22714781,0.02391 L 0.49016115,-4.1643772 Q 0.54595184,-4.5549121 0.70535384,-4.8537909 0.86874089,-5.1566547 1.1118289,-5.3598922 1.358902,-5.5631297 1.673721,-5.666741 1.9885399,-5.7743374 2.3551645,-5.7743374 Z" /></g></g></g><g
         id="g34"
         transform="translate(242.54052,611.83052)"
         style="fill:#000000"><g
           id="g36"
           transform="translate(0,-786.864)"
           style="fill:#000000"><g
             id="text38"
             style="fill:#000000"
             transform="matrix(1,0,0,-1,0,786.864)"><path
               id="path315"
               style="font-variant:normal;font-weight:normal;font-size:7.97009993px;font-family:Lato;-inkscape-font-specification:Lato;writing-mode:lr-tb;fill:#000000;fill-opacity:1;fill-rule:nonzero;stroke:none"
               d="m 2.3830599,-5.7743374 q 0.3626395,0 0.6694884,0.1036113 0.3068488,0.1036113 0.5260266,0.2948937 0.2231628,0.1912824 0.3466993,0.4622658 0.1235366,0.2709834 0.1235366,0.6017425 0,0.2709834 -0.071731,0.4861761 -0.067746,0.2112077 -0.1992525,0.3745947 -0.1275216,0.159402 -0.3108339,0.2709834 -0.1833123,0.1115814 -0.4104602,0.1793273 0.557907,0.1474468 0.8368605,0.4941462 0.2829386,0.3466993 0.2829386,0.8687409 0,0.3945199 -0.1514319,0.70933886 Q 3.8774536,-0.61369769 3.6184254,-0.3905349 3.3593971,-0.17135715 3.0126978,-0.05180565 2.6699835,0.0637608 2.2754635,0.0637608 q -0.4542957,0 -0.7770847,-0.1115814 Q 1.1755897,-0.16338705 0.95242694,-0.36263955 0.72926414,-0.56189204 0.58580234,-0.83287544 0.44234055,-1.1078439 0.3427143,-1.4266479 l 0.30684884,-0.1275216 q 0.1195515,-0.051806 0.2311329,-0.027895 0.11556645,0.02391 0.16737206,0.1315066 0.051806,0.1115814 0.1275216,0.2669984 0.079701,0.1554169 0.2151927,0.29887871 0.1354917,0.1434618 0.3427143,0.24308805 0.2112077,0.0996262 0.5339967,0.0996262 0.2988788,0 0.5220416,-0.0956412 0.2271478,-0.0996263 0.3745947,-0.2550432 0.1514319,-0.15541691 0.2271478,-0.34669931 0.075716,-0.1912824 0.075716,-0.3785798 0,-0.2311329 -0.059776,-0.4224153 Q 3.347442,-2.231628 3.1840549,-2.3711047 3.0206679,-2.5105815 2.7337443,-2.5902825 2.4508057,-2.6699835 2.0044801,-2.6699835 l 0,-0.5140714 q 0.3666246,-0.00399 0.6216678,-0.079701 0.2590283,-0.075716 0.4184303,-0.2072226 0.163387,-0.1315067 0.2351179,-0.314819 0.075716,-0.1833123 0.075716,-0.4064751 0,-0.2470731 -0.079701,-0.4303854 -0.075716,-0.1833123 -0.2112077,-0.3028638 -0.1354917,-0.1195515 -0.322789,-0.1793272 -0.1833123,-0.059776 -0.398505,-0.059776 -0.2151927,0 -0.4024901,0.063761 -0.1833123,0.063761 -0.3267741,0.1793273 -0.1394767,0.1115814 -0.2351179,0.2669983 -0.095641,0.155417 -0.1354917,0.3427143 -0.051806,0.1394768 -0.1315067,0.1872974 -0.075716,0.043835 -0.22316276,0.02391 L 0.5180565,-4.1643772 q 0.0557907,-0.3905349 0.21519269,-0.6894137 0.159402,-0.3028638 0.40249001,-0.5061013 0.2470731,-0.2032375 0.5618921,-0.3068488 0.318804,-0.1075964 0.6854286,-0.1075964 z" /></g></g></g><g
         id="g82"
         style="fill:#000000"
         transform="translate(14.657516,-27.69348)"><g
           id="g84"
           style="fill:#000000"><path
             d="m 219.8,647.66 c 0,0.994 -0.806,1.8 -1.8,1.8 -0.994,0 -1.8,-0.806 -1.8,-1.8 0,-0.994 0.806,-1.8 1.8,-1.8 0.994,0 1.8,0.806 1.8,1.8"
             style="fill:#000000;fill-opacity:1;fill-rule:evenodd;stroke:none"
             id="path86" /></g></g><g
         id="g88"
         style="fill:#000000"
         transform="translate(14.657516,-27.69348)"><g
           id="g90"
           style="fill:#000000"><path
             d="m 231.8,647.66 c 0,0.994 -0.806,1.8 -1.8,1.8 -0.994,0 -1.8,-0.806 -1.8,-1.8 0,-0.994 0.806,-1.8 1.8,-1.8 0.994,0 1.8,0.806 1.8,1.8"
             style="fill:#000000;fill-opacity:1;fill-rule:evenodd;stroke:none"
             id="path92" /></g></g><g
         id="g130"
         style="fill:#000000"
         transform="translate(14.657516,-27.69348)"><g
           id="g132"
           style="fill:#000000"><path
             d="m 225.8,658.052 c 0,0.994 -0.806,1.8 -1.8,1.8 -0.994,0 -1.8,-0.806 -1.8,-1.8 0,-0.994 0.806,-1.8 1.8,-1.8 0.994,0 1.8,0.806 1.8,1.8"
             style="fill:#000000;fill-opacity:1;fill-rule:evenodd;stroke:none"
             id="path134" /></g></g><g
         id="g140"
         style="fill:#000000;stroke:#000000"
         transform="translate(14.657516,-27.69348)"><path
           d="m 218,647.66 6,10.392"
           style="fill:#000000;stroke:#000000;stroke-width:0.40000001;stroke-linecap:butt;stroke-linejoin:round;stroke-miterlimit:10;stroke-dasharray:none;stroke-opacity:1"
           id="path142" /></g><g
         id="g144"
         style="fill:#000000;stroke:#000000"
         transform="translate(14.657516,-27.69348)"><path
           d="m 230,647.66 -6,10.392"
           style="fill:#000000;stroke:#000000;stroke-width:0.40000001;stroke-linecap:butt;stroke-linejoin:round;stroke-miterlimit:10;stroke-dasharray:none;stroke-opacity:1"
           id="path146" /></g><path
         id="path3810"
         d="M 50.626286,82.518295 A 17.478123,17.478123 0 0 1 33.148163,99.996418 17.478123,17.478123 0 0 1 15.67004,82.518295 17.478123,17.478123 0 0 1 33.148163,65.040173 17.478123,17.478123 0 0 1 50.626286,82.518295 Z"
         style="fill:none;stroke:#b3b3b3;stroke-opacity:1"
         transform="matrix(0,0.73393063,0.72477997,0,178.85078,596.73413)" /><g
         transform="matrix(0,0.10385731,-0.10385731,0,326.46609,583.26816)"
         id="g3812"><path
           id="path3814"
           d="m 173.25703,350.16268 a 93.011673,93.011673 0 0 1 93.01168,-93.01166"
           style="fill:none;stroke:#b3b3b3;stroke-width:14.37699986;stroke-linejoin:round;stroke-miterlimit:4;stroke-dasharray:none;stroke-dashoffset:0;stroke-opacity:1"
           transform="translate(198.06299,372.09796)" /><path
           style="font-style:normal;font-weight:normal;font-size:718.64801025px;fill:#b3b3b3;fill-opacity:1;stroke:none"
           d="m 501.54527,629.54897 c -0.0338,0.0903 -0.11502,0.21263 -0.3031,0.33931 l -33.93918,17.6738 c -1.0058,0.42603 -1.41862,0.44403 -2.27317,0.45407 -1.11113,2e-5 -2.07116,-0.22461 -2.87932,-0.6836 -0.80808,-0.45899 -1.21231,-1.14777 -1.21235,-2.06577 4e-5,-0.3825 0.70504,-2.2321 0.705,-2.3851 l 0.96197,-2.54979 1.36391,-3.55772 c 0.30087,-5.12806 -0.0763,-9.17299 0,-14.33564 l -1.36391,-3.67247 -0.96197,-2.54979 c 4e-5,-0.153 -0.70496,-2.00262 -0.705,-2.3851 4e-5,-0.918 0.40427,-1.60678 1.21235,-2.06578 0.80816,-0.459 1.76819,-0.68859 2.87932,-0.68859 0.85455,0.01 1.26737,0.033 2.27317,0.45907 l 33.93918,17.66882 c 0.18808,0.12666 0.26925,0.25395 0.3031,0.34428 z"
           id="path3816" /></g></g><g
       style="fill:#660080"
       id="layer1"
       transform="matrix(-0.1567915,0,0,-0.1567915,139.62949,833.14536)"><g
         style="fill:#660080"
         id="g4593"
         transform="matrix(4.2610846,-1.2351263,1.2351263,4.2610846,-1337.7659,-2994.9736)"><path
           style="fill:#660080;marker-start:none"
           id="path4599"
           d="m 59.731665,956.40057 c -0.609784,-1.39286 -2.303491,-1.83556 -3.698902,-1.71226 l -8.742604,0.69566 c -1.935736,-1.91425 -4.307466,-2.2049 -4.132136,-2.81651 0.137044,-0.47806 0.545993,-0.24745 0.837105,-1.51102 0.279511,-1.21323 -0.714709,-2.45509 -1.916471,-2.71488 -1.177727,-0.34526 -2.659814,0.20827 -3.027677,1.45195 -0.447882,1.23061 0.273869,2.69969 1.499535,3.14003 1.400938,0.6374 4.246607,0.49379 4.837778,3.02096 -1.384807,1.41129 -2.993148,0.95525 -4.422137,0.4551 -1.186382,-0.41524 -2.734347,-0.48487 -3.649629,0.53589 -0.881717,0.97694 -0.800158,2.7506 0.376675,3.46434 1.15277,0.8421 3.093263,0.7518 3.824279,-0.64172 0.563472,-1.07414 -0.09119,-1.84242 0.337995,-2.16796 0.32384,-0.24563 1.759155,0.36194 4.749906,-0.0686 l 7.684693,5.46398 c 0.993719,0.61119 2.316503,0.97947 3.577814,0.19164 l -7.902726,-5.8909 9.766502,-0.89574 z m -17.075242,-6.87194 c 1.045256,1.05155 0.403306,2.90727 -0.994512,2.90157 -1.286163,0.072 -2.454591,-1.49318 -1.718425,-2.65375 0.516476,-0.97737 1.997384,-0.96769 2.712937,-0.24782 z m -2.155235,7.72245 c 1.161058,0.85179 0.310724,2.98566 -1.0944,2.9024 -0.962958,0.053 -2.089598,-0.7434 -1.882399,-1.80058 0.188897,-1.30347 1.988129,-2.01427 2.976799,-1.10182 z" /></g></g></g></svg>