<?xml version="1.0" encoding="UTF-8" standalone="no"?>
<svg
   xmlns:dc="http://purl.org/dc/elements/1.1/"
   xmlns:cc="http://creativecommons.org/ns#"
   xmlns:rdf="http://www.w3.org/1999/02/22-rdf-syntax-ns#"
   xmlns:svg="http://www.w3.org/2000/svg"
   xmlns="http://www.w3.org/2000/svg"
   version="1.1"
   width="77.766991"
   height="115.31054"
   xml:space="preserve"
   id="svg2"><metadata
     id="metadata8"><rdf:RDF><cc:Work
         rdf:about=""><dc:format>image/svg+xml</dc:format><dc:type
           rdf:resource="http://purl.org/dc/dcmitype/StillImage" /><dc:title /></cc:Work></rdf:RDF></metadata><defs
     id="defs6"><marker
       style="overflow:visible"
       id="Arrow1Send"
       refX="0"
       refY="0"
       orient="auto"><path
         transform="matrix(-0.2,0,0,-0.2,-1.2,0)"
         style="fill-rule:evenodd;stroke:#000000;stroke-width:1pt"
         d="M 0,0 5,-5 -12.5,0 5,5 0,0 Z"
         id="path4544" /></marker><marker
       style="overflow:visible"
       id="Arrow1Mend"
       refX="0"
       refY="0"
       orient="auto"><path
         transform="matrix(-0.4,0,0,-0.4,-4,0)"
         style="fill-rule:evenodd;stroke:#000000;stroke-width:1pt"
         d="M 0,0 5,-5 -12.5,0 5,5 0,0 Z"
         id="path4538" /></marker><clipPath
       clipPathUnits="userSpaceOnUse"
       id="clipPath202"><path
         d="M 0.06,132 344,132 344,0.06 0.06,0.06 0.06,132 Z"
         id="path204" /></clipPath><marker
       style="overflow:visible"
       overflow="visible"
       orient="auto"
       refX="0"
       refY="0"
       id="Arrow1MendcD"><path
         style="fill:#808080;fill-rule:evenodd;stroke:#808080;stroke-width:1pt"
         transform="matrix(-0.4,0,0,-0.4,-4,0)"
         d="M 0,0 5,-5 -12.5,0 5,5 0,0 Z"
         id="path8103" /></marker><marker
       style="overflow:visible"
       overflow="visible"
       orient="auto"
       refX="0"
       refY="0"
       id="Arrow1MendI5"><path
         style="fill:#808080;fill-rule:evenodd;stroke:#808080;stroke-width:1pt"
         transform="matrix(-0.4,0,0,-0.4,-4,0)"
         d="M 0,0 5,-5 -12.5,0 5,5 0,0 Z"
         id="path8106" /></marker><marker
       style="overflow:visible"
       overflow="visible"
       orient="auto"
       refX="0"
       refY="0"
       id="Arrow1Mendv7"><path
         style="fill:#808080;fill-rule:evenodd;stroke:#808080;stroke-width:1pt"
         transform="matrix(-0.4,0,0,-0.4,-4,0)"
         d="M 0,0 5,-5 -12.5,0 5,5 0,0 Z"
         id="path8109" /></marker></defs><g
     id="text316"
     style="font-size:15px" /><g
     id="text324"
     style="font-size:15px" /><g
     id="text332"
     style="font-size:15px" /><g
     id="text340"
     style="font-size:15px" /><g
     id="text400"
     style="font-size:15px" /><g
     id="text408"
     style="font-size:15px" /><g
     id="text416"
     style="font-size:15px" /><g
     id="text6159"
     style="font-size:15px" /><g
     id="text6163"
     style="font-size:15px" /><g
     id="text6167"
     style="font-size:15px" /><g
     id="text6171"
     style="font-size:15px" /><g
     id="text6175"
     style="font-size:15px" /><g
     id="text6179"
     style="font-size:15px" /><g
     id="text6183"
     style="font-size:15px" /><g
     id="text3061"
     style="font-size:15px" /><g
     id="text3065"
     style="font-size:15px" /><g
     id="text3069"
     style="font-size:15px" /><g
     id="text3073"
     style="font-size:15px" /><g
     id="text3077"
     style="font-size:15px" /><g
     id="text3081"
     style="font-size:15px" /><g
     id="text3085"
     style="font-size:15px" /><g
     id="text3089"
     style="font-size:15px" /><g
     id="text3093"
     style="font-size:15px" /><g
     id="text3097"
     style="font-size:15px" /><g
     id="text3101"
     style="font-size:15px" /><g
     id="text3105"
     style="font-size:15px" /><g
     id="text3109"
     style="font-size:15px" /><g
     id="text3113"
     style="font-size:15px" /><g
     transform="translate(-0.06056757,-16.654381)"
     style="display:inline"
     id="layer1"><g
       transform="translate(1.0605678,17.654377)"
       id="g3082"><g
         id="g5377"
         transform="translate(-50.942141,-264.37571)"><g
           id="text3161"
           style="font-size:11.89624977px"><path
             id="path145"
             style="font-size:11.89624977px;font-family:Monospace, Menlo, Courier, monospace;fill:#000000"
             d="m 60.123545,296.60803 c -0.773256,0.67808 -1.61789,1.21341 -2.700449,1.21341 -2.034258,0 -2.56959,-1.85581 -2.56959,-3.04544 0,-1.5703 0.963597,-2.86699 2.522005,-2.86699 0.868427,0 1.308588,0.36878 1.534617,0.70188 0.273613,0.40447 0.344991,0.86842 0.392576,1.14204 l 0.559124,-0.0952 c -0.08327,-0.63051 -0.154652,-1.2967 -0.118963,-2.27219 l -0.440161,0 c -0.02379,0.21413 -0.07138,0.57102 -0.178444,0.57102 -0.02379,0 -0.04758,0 -0.202236,-0.13086 -0.09517,-0.0833 -0.57102,-0.51154 -1.52272,-0.51154 -1.80823,0 -3.188195,1.40376 -3.188195,3.47371 0,1.93909 1.118247,3.62836 3.211987,3.62836 0.487747,0 1.760645,-0.10707 3.093025,-1.37997 l -0.392576,-0.42826 z" /><path
             id="path147"
             style="font-size:11.89624977px;font-family:Monospace, Menlo, Courier, monospace;fill:#000000"
             d="m 67.256648,296.60803 c -0.773256,0.67808 -1.61789,1.21341 -2.700449,1.21341 -2.034258,0 -2.56959,-1.85581 -2.56959,-3.04544 0,-1.5703 0.963597,-2.86699 2.522005,-2.86699 0.868427,0 1.308588,0.36878 1.534617,0.70188 0.273613,0.40447 0.344991,0.86842 0.392576,1.14204 l 0.559124,-0.0952 c -0.08327,-0.63051 -0.154652,-1.2967 -0.118963,-2.27219 l -0.440161,0 c -0.02379,0.21413 -0.07138,0.57102 -0.178444,0.57102 -0.02379,0 -0.04758,0 -0.202236,-0.13086 -0.09517,-0.0833 -0.57102,-0.51154 -1.52272,-0.51154 -1.80823,0 -3.188195,1.40376 -3.188195,3.47371 0,1.93909 1.118247,3.62836 3.211987,3.62836 0.487747,0 1.760645,-0.10707 3.093025,-1.37997 l -0.392576,-0.42826 z" /><path
             id="path149"
             style="font-size:11.89624977px;font-family:Monospace, Menlo, Courier, monospace;fill:#000000"
             d="m 69.060231,291.51643 0,0.55912 1.701164,0 -2.295976,5.57935 -0.630502,0 0,0.55912 2.438731,0 0,-0.55912 -1.213417,0 0.66619,-1.65358 3.104921,0 0.678086,1.65358 -1.213417,0 0,0.55912 2.438731,0 0,-0.55912 -0.606709,0 -2.510108,-6.13847 -2.557694,0 z m 3.568875,3.96145 -2.688553,0 1.344277,-3.25957 1.344276,3.25957 z" /></g><g
           transform="translate(3.4947125,-3.69962)"
           id="g3960"><path
             id="path3157"
             d="m 110.97728,291.83474 8.92212,0 0,11.497 -8.92212,0 0,-11.497 z"
             style="fill:#cccccc;fill-rule:evenodd" /><g
             id="text3165"
             style="font-size:11.89624977px"><path
               id="path152"
               style="font-size:11.89624977px;font-family:Monospace, Menlo, Courier, monospace;fill:#000000"
               d="m 104.16192,300.30764 c -0.77326,0.67809 -1.61789,1.21342 -2.70045,1.21342 -2.03426,0 -2.569591,-1.85582 -2.569591,-3.04544 0,-1.57031 0.963596,-2.867 2.522001,-2.867 0.86843,0 1.30859,0.36879 1.53462,0.70188 0.27361,0.40447 0.34499,0.86843 0.39258,1.14204 l 0.55912,-0.0952 c -0.0833,-0.6305 -0.15465,-1.29669 -0.11896,-2.27218 l -0.44016,0 c -0.0238,0.21413 -0.0714,0.57102 -0.17845,0.57102 -0.0238,0 -0.0476,0 -0.20223,-0.13086 -0.0952,-0.0833 -0.57102,-0.51154 -1.52272,-0.51154 -1.808234,0 -3.188199,1.40376 -3.188199,3.47371 0,1.93908 1.118247,3.62835 3.211989,3.62835 0.48774,0 1.76064,-0.10706 3.09302,-1.37996 l -0.39257,-0.42827 z" /><path
               id="path154"
               style="font-size:11.89624977px;font-family:Monospace, Menlo, Courier, monospace;fill:#000000"
               d="m 111.29502,300.30764 c -0.77326,0.67809 -1.61789,1.21342 -2.70045,1.21342 -2.03426,0 -2.56959,-1.85582 -2.56959,-3.04544 0,-1.57031 0.9636,-2.867 2.52201,-2.867 0.86842,0 1.30858,0.36879 1.53461,0.70188 0.27362,0.40447 0.34499,0.86843 0.39258,1.14204 l 0.55912,-0.0952 c -0.0833,-0.6305 -0.15465,-1.29669 -0.11896,-2.27218 l -0.44016,0 c -0.0238,0.21413 -0.0714,0.57102 -0.17844,0.57102 -0.0238,0 -0.0476,0 -0.20224,-0.13086 -0.0952,-0.0833 -0.57102,-0.51154 -1.52272,-0.51154 -1.80823,0 -3.1882,1.40376 -3.1882,3.47371 0,1.93908 1.11825,3.62835 3.21199,3.62835 0.48775,0 1.76065,-0.10706 3.09303,-1.37996 l -0.39258,-0.42827 z" /><path
               id="path156"
               style="font-size:11.89624977px;font-family:Monospace, Menlo, Courier, monospace;fill:#000000"
               d="m 112.4681,295.21605 -0.20223,2.80751 0.57102,0.0714 0.16654,-2.31977 2.02237,0 0,5.57934 -1.43945,0 0,0.55913 3.4737,0 0,-0.55913 -1.43944,0 0,-5.57934 2.02236,0 0.16655,2.31977 0.57102,-0.0714 -0.20224,-2.80751 -5.7102,0 z" /></g></g><path
           id="path3965"
           d="m 80.676478,293.88362 c 15.284727,0 15.284727,0 15.284727,0"
           style="fill:none;stroke:#000000;stroke-width:0.69999999;stroke-linecap:butt;stroke-linejoin:miter;stroke-miterlimit:4;stroke-dasharray:none;stroke-opacity:1;marker-end:url(#Arrow1Mend)" /></g><g
         id="g5367"
         transform="translate(-50.654296,-264.02834)"><g
           transform="translate(-46.719254,0.69476031)"
           id="g3142"><path
             id="path3114"
             d="m 104.06516,263.77969 c -3.44888,0 -6.245503,2.79663 -6.245503,6.2455 l 0,5.35325 c 0,3.44888 2.796623,6.2455 6.245503,6.2455 l 14.275,0 c 3.44888,0 6.2455,-2.79662 6.2455,-6.2455 l 0,-5.35325 c 0,-3.44887 -2.79662,-6.2455 -6.2455,-6.2455 l -14.275,0 z"
             stroke-miterlimit="10"
             style="fill:#ffffcc;fill-rule:evenodd;stroke:#f0f0f0;stroke-width:0.89221245;stroke-miterlimit:10" /><g
             id="text3124"
             style="font-size:11.89624977px;font-family:Lato, Arial, Helvetica, sans-serif;fill:#000000"><path
               id="path159"
               style=""
               d="m 103.73569,273.7656 0,3.1882 -1.14798,0 0,-8.52367 2.51605,0 q 0.80895,0 1.40376,0.19034 0.60076,0.1844 0.99334,0.52939 0.39257,0.34499 0.58291,0.83273 0.19629,0.48775 0.19629,1.08851 0,0.59481 -0.20818,1.08851 -0.20819,0.49369 -0.61266,0.85058 -0.39852,0.35689 -0.99334,0.55912 -0.58886,0.19629 -1.36212,0.19629 l -1.36807,0 z m 0,-0.91601 1.36807,0 q 0.4937,0 0.86843,-0.13086 0.38068,-0.13086 0.63645,-0.36283 0.26172,-0.23793 0.39257,-0.56508 0.13086,-0.32714 0.13086,-0.71972 0,-0.81489 -0.50559,-1.2729 -0.49964,-0.458 -1.52272,-0.458 l -1.36807,0 0,3.50939 z" /><path
               id="path161"
               style=""
               d="m 109.35481,276.9538 0,-6.02545 0.60671,0 q 0.1725,0 0.23793,0.0654 0.0654,0.0654 0.0892,0.22602 l 0.0654,0.91602 q 0.28551,-0.61861 0.70188,-0.9636 0.42231,-0.35094 1.02307,-0.35094 0.19034,0 0.36284,0.0416 0.17844,0.0416 0.31525,0.13086 l -0.0773,0.7911 q -0.0357,0.1487 -0.17845,0.1487 -0.0833,0 -0.24387,-0.0357 -0.1606,-0.0357 -0.36284,-0.0357 -0.28551,0 -0.51154,0.0892 -0.22602,0.0833 -0.40447,0.24982 -0.17249,0.1606 -0.3093,0.39853 -0.13681,0.23792 -0.24982,0.54723 l 0,3.8068 -1.06472,0 z" /><path
               id="path163"
               style=""
               d="m 115.984,270.83318 q 0.66024,0 1.18962,0.22008 0.52939,0.22008 0.90412,0.62455 0.37473,0.40447 0.57102,0.98144 0.20223,0.57102 0.20223,1.27885 0,0.71377 -0.20223,1.28479 -0.19629,0.57102 -0.57102,0.97549 -0.37473,0.40448 -0.90412,0.62456 -0.52938,0.21413 -1.18962,0.21413 -0.66619,0 -1.20152,-0.21413 -0.52939,-0.22008 -0.90412,-0.62456 -0.37473,-0.40447 -0.57697,-0.97549 -0.19628,-0.57102 -0.19628,-1.28479 0,-0.70783 0.19628,-1.27885 0.20224,-0.57697 0.57697,-0.98144 0.37473,-0.40447 0.90412,-0.62455 0.53533,-0.22008 1.20152,-0.22008 z m 0,5.3771 q 0.89222,0 1.33238,-0.59481 0.44016,-0.60076 0.44016,-1.67142 0,-1.07662 -0.44016,-1.67738 -0.44016,-0.60076 -1.33238,-0.60076 -0.45206,0 -0.7911,0.15465 -0.3331,0.15466 -0.55913,0.44611 -0.22008,0.29146 -0.33309,0.71973 -0.10707,0.42231 -0.10707,0.95765 0,1.07066 0.44016,1.67142 0.44611,0.59481 1.35023,0.59481 z" /></g></g><g
           id="g5357"
           transform="translate(1.3895203,0.69476031)"><path
             style="fill:#ffffcc;fill-rule:evenodd;stroke:#f0f0f0;stroke-width:0.89221245;stroke-miterlimit:10"
             stroke-miterlimit="10"
             d="m 104.06516,263.77969 c -3.44888,0 -6.245503,2.79663 -6.245503,6.2455 l 0,5.35325 c 0,3.44888 2.796623,6.2455 6.245503,6.2455 l 14.275,0 c 3.44888,0 6.2455,-2.79662 6.2455,-6.2455 l 0,-5.35325 c 0,-3.44887 -2.79662,-6.2455 -6.2455,-6.2455 l -14.275,0 z"
             id="path5359" /><g
             id="text5361"
             style="font-size:11.89624977px;font-family:Lato, Arial, Helvetica, sans-serif;fill:#000000"><path
               id="path166"
               style=""
               d="m 103.73569,273.7656 0,3.1882 -1.14798,0 0,-8.52367 2.51605,0 q 0.80895,0 1.40376,0.19034 0.60076,0.1844 0.99334,0.52939 0.39257,0.34499 0.58291,0.83273 0.19629,0.48775 0.19629,1.08851 0,0.59481 -0.20818,1.08851 -0.20819,0.49369 -0.61266,0.85058 -0.39852,0.35689 -0.99334,0.55912 -0.58886,0.19629 -1.36212,0.19629 l -1.36807,0 z m 0,-0.91601 1.36807,0 q 0.4937,0 0.86843,-0.13086 0.38068,-0.13086 0.63645,-0.36283 0.26172,-0.23793 0.39257,-0.56508 0.13086,-0.32714 0.13086,-0.71972 0,-0.81489 -0.50559,-1.2729 -0.49964,-0.458 -1.52272,-0.458 l -1.36807,0 0,3.50939 z" /><path
               id="path168"
               style=""
               d="m 109.35481,276.9538 0,-6.02545 0.60671,0 q 0.1725,0 0.23793,0.0654 0.0654,0.0654 0.0892,0.22602 l 0.0654,0.91602 q 0.28551,-0.61861 0.70188,-0.9636 0.42231,-0.35094 1.02307,-0.35094 0.19034,0 0.36284,0.0416 0.17844,0.0416 0.31525,0.13086 l -0.0773,0.7911 q -0.0357,0.1487 -0.17845,0.1487 -0.0833,0 -0.24387,-0.0357 -0.1606,-0.0357 -0.36284,-0.0357 -0.28551,0 -0.51154,0.0892 -0.22602,0.0833 -0.40447,0.24982 -0.17249,0.1606 -0.3093,0.39853 -0.13681,0.23792 -0.24982,0.54723 l 0,3.8068 -1.06472,0 z" /><path
               id="path170"
               style=""
               d="m 115.984,270.83318 q 0.66024,0 1.18962,0.22008 0.52939,0.22008 0.90412,0.62455 0.37473,0.40447 0.57102,0.98144 0.20223,0.57102 0.20223,1.27885 0,0.71377 -0.20223,1.28479 -0.19629,0.57102 -0.57102,0.97549 -0.37473,0.40448 -0.90412,0.62456 -0.52938,0.21413 -1.18962,0.21413 -0.66619,0 -1.20152,-0.21413 -0.52939,-0.22008 -0.90412,-0.62456 -0.37473,-0.40447 -0.57697,-0.97549 -0.19628,-0.57102 -0.19628,-1.28479 0,-0.70783 0.19628,-1.27885 0.20224,-0.57697 0.57697,-0.98144 0.37473,-0.40447 0.90412,-0.62455 0.53533,-0.22008 1.20152,-0.22008 z m 0,5.3771 q 0.89222,0 1.33238,-0.59481 0.44016,-0.60076 0.44016,-1.67142 0,-1.07662 -0.44016,-1.67738 -0.44016,-0.60076 -1.33238,-0.60076 -0.45206,0 -0.7911,0.15465 -0.3331,0.15466 -0.55913,0.44611 -0.22008,0.29146 -0.33309,0.71973 -0.10707,0.42231 -0.10707,0.95765 0,1.07066 0.44016,1.67142 0.44611,0.59481 1.35023,0.59481 z" /></g></g></g></g><g
       transform="translate(1.0605678,30.075782)"
       id="g3063"><g
         id="g5395"
         transform="translate(-50.654294,-136.00947)"><g
           transform="translate(-109.3596,-52.378364)"
           id="g3147"><path
             id="path3120"
             d="m 166.7055,242.67787 c -3.44888,0 -6.2455,2.79663 -6.2455,6.2455 l 0,5.35325 c 0,3.44888 2.79662,6.2455 6.2455,6.2455 l 14.275,0 c 3.44887,0 6.2455,-2.79662 6.2455,-6.2455 l 0,-5.35325 c 0,-3.44887 -2.79663,-6.2455 -6.2455,-6.2455 l -14.275,0 z"
             stroke-miterlimit="10"
             style="fill:#ffffcc;fill-rule:evenodd;stroke:#f0f0f0;stroke-width:0.89221245;stroke-miterlimit:10" /><g
             id="text3134"
             style="font-size:11.89624977px;font-family:Lato, Arial, Helvetica, sans-serif;fill:#000000"><path
               id="path173"
               style=""
               d="m 170.85528,247.59551 0,0.96954 -2.75993,0 0,7.55412 -1.14799,0 0,-7.55412 -2.76588,0 0,-0.96954 6.6738,0 z" /><path
               id="path175"
               style=""
               d="m 171.76571,256.11917 0,-8.76159 1.06472,0 0,3.54509 q 0.38662,-0.41042 0.85653,-0.6543 0.4699,-0.24982 1.08255,-0.24982 0.4937,0 0.86843,0.16655 0.38068,0.1606 0.6305,0.46395 0.25577,0.29741 0.38663,0.71972 0.13086,0.42232 0.13086,0.93386 l 0,3.83654 -1.06472,0 0,-3.83654 q 0,-0.68403 -0.31525,-1.05877 -0.3093,-0.38068 -0.94575,-0.38068 -0.47585,0 -0.88627,0.22603 -0.40447,0.22603 -0.74351,0.61266 l 0,4.4373 -1.06472,0 z" /><path
               id="path177"
               style=""
               d="m 178.41088,256.11917 0,-6.02545 0.60671,0 q 0.1725,0 0.23793,0.0654 0.0654,0.0654 0.0892,0.22603 l 0.0654,0.91601 q 0.28551,-0.61861 0.70188,-0.9636 0.42231,-0.35094 1.02307,-0.35094 0.19034,0 0.36284,0.0416 0.17844,0.0416 0.31525,0.13086 l -0.0773,0.7911 q -0.0357,0.1487 -0.17844,0.1487 -0.0833,0 -0.24387,-0.0357 -0.1606,-0.0357 -0.36284,-0.0357 -0.28551,0 -0.51154,0.0892 -0.22603,0.0833 -0.40447,0.24982 -0.17249,0.1606 -0.3093,0.39852 -0.13681,0.23793 -0.24982,0.54723 l 0,3.8068 -1.06472,0 z" /></g></g><g
           transform="translate(-59.354231,-73.297214)"
           id="g3152"><path
             id="path3104"
             d="m 164.80891,263.59672 c -3.44888,0 -6.2455,2.79663 -6.2455,6.2455 l 0,5.35325 c 0,3.44888 2.79662,6.2455 6.2455,6.2455 l 14.275,0 c 3.44887,0 6.2455,-2.79662 6.2455,-6.2455 l 0,-5.35325 c 0,-3.44887 -2.79663,-6.2455 -6.2455,-6.2455 l -14.275,0 z"
             stroke-miterlimit="10"
             style="fill:#ffffcc;fill-rule:evenodd;stroke:#f0f0f0;stroke-width:0.89221245;stroke-miterlimit:10" /><g
             id="text3138"
             style="font-size:11.89624977px;font-family:Lato, Arial, Helvetica, sans-serif;fill:#000000"><path
               id="path180"
               style=""
               d="m 166.85826,276.9538 -1.15394,0 0,-8.52367 1.15394,0 0,8.52367 z" /><path
               id="path182"
               style=""
               d="m 169.7786,268.19221 0,8.76159 -1.05877,0 0,-8.76159 1.05877,0 z" /><path
               id="path184"
               style=""
               d="m 173.96404,270.83318 q 0.54128,0 0.99928,0.18439 0.46395,0.17844 0.79705,0.52343 0.33904,0.33905 0.52938,0.84464 0.19034,0.49964 0.19034,1.14204 0,0.24982 -0.0535,0.33309 -0.0535,0.0833 -0.20224,0.0833 l -4.02688,0 q 0.0119,0.57102 0.15465,0.99333 0.14276,0.42232 0.39258,0.70783 0.24982,0.27956 0.59481,0.42232 0.34499,0.1368 0.77326,0.1368 0.39852,0 0.68403,-0.0892 0.29146,-0.0952 0.49965,-0.20224 0.20818,-0.10706 0.34499,-0.19628 0.14275,-0.0952 0.24387,-0.0952 0.13086,0 0.20224,0.10111 l 0.2974,0.38663 q -0.19629,0.23793 -0.4699,0.41637 -0.27361,0.1725 -0.58886,0.28551 -0.30931,0.11302 -0.6424,0.16655 -0.3331,0.0595 -0.66024,0.0595 -0.62456,0 -1.15394,-0.20818 -0.52343,-0.21414 -0.91006,-0.61861 -0.38068,-0.41042 -0.59481,-1.01118 -0.21414,-0.60076 -0.21414,-1.37997 0,-0.6305 0.19034,-1.17772 0.19629,-0.54723 0.55913,-0.94576 0.36283,-0.40447 0.88627,-0.6305 0.52343,-0.23197 1.17773,-0.23197 z m 0.0238,0.7792 q -0.76731,0 -1.20747,0.44611 -0.44016,0.44016 -0.54723,1.22531 l 3.29526,0 q 0,-0.36878 -0.10706,-0.67213 -0.10112,-0.30931 -0.30336,-0.52939 -0.19629,-0.22603 -0.4818,-0.34499 -0.28551,-0.12491 -0.64834,-0.12491 z" /></g></g></g><g
         id="g5386"
         transform="translate(-50.654296,-135.84506)"><g
           transform="translate(-58.480196,7.609855)"
           id="g3169"><path
             id="path3159"
             d="m 166.95342,205.83875 8.92213,0 0,11.49657 -8.92213,0 0,-11.49657 z"
             style="fill:#fab3ae;fill-rule:evenodd" /><g
             id="text6388"
             style="font-size:11.89624977px"><path
               id="path187"
               style="font-size:11.89624977px;font-family:Monospace, Menlo, Courier, monospace;fill:#000000"
               d="m 162.03648,209.21985 0,0.55912 1.70116,0 -2.29598,5.57934 -0.6305,0 0,0.55912 2.43873,0 0,-0.55912 -1.21341,0 0.66619,-1.65358 3.10492,0 0.67808,1.65358 -1.21341,0 0,0.55912 2.43873,0 0,-0.55912 -0.60671,0 -2.51011,-6.13846 -2.55769,0 z m 3.56887,3.96145 -2.68855,0 1.34427,-3.25958 1.34428,3.25958 z" /><path
               id="path189"
               style="font-size:11.89624977px;font-family:Monospace, Menlo, Courier, monospace;fill:#000000"
               d="m 168.53908,209.21985 -0.20224,2.80751 0.57102,0.0714 0.16655,-2.31977 2.02236,0 0,5.57934 -1.43944,0 0,0.55912 3.4737,0 0,-0.55912 -1.43945,0 0,-5.57934 2.02237,0 0.16654,2.31977 0.57102,-0.0714 -0.20223,-2.80751 -5.7102,0 z" /><path
               id="path191"
               style="font-size:11.89624977px;font-family:Monospace, Menlo, Courier, monospace;fill:#000000"
               d="m 181.6322,214.31144 c -0.77325,0.67809 -1.61789,1.21342 -2.70045,1.21342 -2.03426,0 -2.56959,-1.85582 -2.56959,-3.04544 0,-1.57031 0.9636,-2.867 2.52201,-2.867 0.86842,0 1.30859,0.36879 1.53461,0.70188 0.27362,0.40447 0.345,0.86843 0.39258,1.14204 l 0.55912,-0.0952 c -0.0833,-0.6305 -0.15465,-1.29669 -0.11896,-2.27218 l -0.44016,0 c -0.0238,0.21413 -0.0714,0.57102 -0.17844,0.57102 -0.0238,0 -0.0476,0 -0.20224,-0.13086 -0.0952,-0.0833 -0.57102,-0.51154 -1.52272,-0.51154 -1.80823,0 -3.18819,1.40376 -3.18819,3.4737 0,1.93909 1.11824,3.62836 3.21198,3.62836 0.48775,0 1.76065,-0.10707 3.09303,-1.37996 l -0.39258,-0.42827 z" /></g></g><g
           id="text6392"
           style="font-size:11.89624977px"><path
             id="path194"
             style="font-size:11.89624977px;font-family:Monospace, Menlo, Courier, monospace;fill:#000000"
             d="m 55.447506,216.82969 0,0.55913 1.701163,0 -2.295976,5.57934 -0.630501,0 0,0.55912 2.438731,0 0,-0.55912 -1.213417,0 0.66619,-1.65358 3.104921,0 0.678086,1.65358 -1.213417,0 0,0.55912 2.438731,0 0,-0.55912 -0.606709,0 -2.510109,-6.13847 -2.557693,0 z m 3.568875,3.96146 -2.688553,0 1.344276,-3.25958 1.344277,3.25958 z" /><path
             id="path196"
             style="font-size:11.89624977px;font-family:Monospace, Menlo, Courier, monospace;fill:#000000"
             d="m 67.910129,221.92129 c -0.773257,0.67809 -1.61789,1.21342 -2.700449,1.21342 -2.034259,0 -2.56959,-1.85582 -2.56959,-3.04544 0,-1.57031 0.963596,-2.867 2.522005,-2.867 0.868426,0 1.308587,0.36878 1.534616,0.70188 0.273614,0.40447 0.344991,0.86843 0.392576,1.14204 l 0.559124,-0.0952 c -0.08327,-0.6305 -0.154651,-1.29669 -0.118962,-2.27218 l -0.440162,0 c -0.02379,0.21413 -0.07138,0.57102 -0.178443,0.57102 -0.02379,0 -0.04758,0 -0.202237,-0.13086 -0.09517,-0.0833 -0.57102,-0.51154 -1.52272,-0.51154 -1.80823,0 -3.188195,1.40376 -3.188195,3.4737 0,1.93909 1.118248,3.62836 3.211988,3.62836 0.487746,0 1.760645,-0.10707 3.093025,-1.37997 l -0.392576,-0.42826 z" /><path
             id="path198"
             style="font-size:11.89624977px;font-family:Monospace, Menlo, Courier, monospace;fill:#000000"
             d="m 75.043231,221.92129 c -0.773256,0.67809 -1.61789,1.21342 -2.700448,1.21342 -2.034259,0 -2.56959,-1.85582 -2.56959,-3.04544 0,-1.57031 0.963596,-2.867 2.522005,-2.867 0.868426,0 1.308587,0.36878 1.534616,0.70188 0.273614,0.40447 0.344991,0.86843 0.392576,1.14204 l 0.559124,-0.0952 c -0.08327,-0.6305 -0.154651,-1.29669 -0.118963,-2.27218 l -0.440161,0 c -0.02379,0.21413 -0.07138,0.57102 -0.178444,0.57102 -0.02379,0 -0.04759,0 -0.202236,-0.13086 -0.09517,-0.0833 -0.57102,-0.51154 -1.52272,-0.51154 -1.80823,0 -3.188195,1.40376 -3.188195,3.4737 0,1.93909 1.118248,3.62836 3.211988,3.62836 0.487746,0 1.760645,-0.10707 3.093025,-1.37997 l -0.392577,-0.42826 z" /></g><path
           style="fill:none;stroke:#000000;stroke-width:0.69999999;stroke-linecap:butt;stroke-linejoin:miter;stroke-miterlimit:4;stroke-dasharray:none;stroke-opacity:1;marker-end:url(#Arrow1Mend)"
           d="m 80.676478,219.19689 c 15.284727,0 15.284727,0 15.284727,0"
           id="path5365" /></g></g><g
       id="text3055"
       style="font-style:normal;font-weight:normal;font-size:18px;line-height:125%;font-family:Lato, Arial, Helvetica, sans-serif;letter-spacing:0px;word-spacing:0px;fill:#000000;fill-opacity:1;stroke:none"><path
         id="path201"
         style="font-style:italic;font-size:10px;-inkscape-font-specification:'Sans Italic';fill:#999999"
         d="m 17.141095,59.07697 q -0.04,0.06 -0.08,0.09 -0.04,0.025 -0.1,0.025 -0.07,0 -0.155,-0.055 -0.08,-0.055 -0.2,-0.12 -0.115,-0.07 -0.285,-0.125 -0.17,-0.06 -0.41,-0.06 -0.225,0 -0.41,0.065 -0.185,0.06 -0.32,0.17 -0.13,0.11 -0.205,0.26 -0.07,0.145 -0.07,0.31 0,0.235 0.155,0.375 0.155,0.14 0.39,0.245 0.235,0.1 0.505,0.195 0.27,0.095 0.505,0.24 0.235,0.145 0.39,0.37 0.155,0.225 0.155,0.585 0,0.35 -0.14,0.67 -0.135,0.32 -0.395,0.565 -0.255,0.24 -0.62,0.385 -0.36,0.145 -0.81,0.145 -0.485,0 -0.86,-0.17 -0.37,-0.175 -0.605,-0.445 l 0.22,-0.34 q 0.045,-0.065 0.095,-0.1 0.055,-0.035 0.14,-0.035 0.08,0 0.16,0.07 0.08,0.07 0.2,0.16 0.12,0.085 0.3,0.155 0.185,0.07 0.465,0.07 0.245,0 0.44,-0.075 0.2,-0.075 0.335,-0.2 0.14,-0.125 0.21,-0.29 0.075,-0.17 0.075,-0.36 0,-0.255 -0.155,-0.405 -0.155,-0.15 -0.39,-0.25 -0.235,-0.1 -0.505,-0.185 -0.27,-0.09 -0.505,-0.225 -0.235,-0.14 -0.39,-0.36 -0.155,-0.22 -0.155,-0.585 0,-0.32 0.125,-0.615 0.13,-0.3 0.37,-0.53 0.24,-0.23 0.58,-0.365 0.345,-0.14 0.775,-0.14 0.455,0 0.8,0.155 0.35,0.15 0.6,0.41 l -0.225,0.32 z" /><path
         id="path203"
         style="font-style:italic;font-size:10px;-inkscape-font-specification:'Sans Italic';fill:#999999"
         d="m 19.046876,64.84197 q -0.055,0.105 -0.13,0.155 -0.07,0.05 -0.18,0.05 l -0.655,0 1.1,-2.015 -1.315,-4.765 0.735,0 q 0.11,0 0.16,0.055 0.05,0.05 0.075,0.13 l 0.815,3.19 q 0.025,0.105 0.04,0.21 0.015,0.105 0.025,0.21 0.04,-0.105 0.085,-0.21 0.05,-0.11 0.1,-0.215 l 1.6,-3.195 q 0.04,-0.08 0.11,-0.125 0.075,-0.05 0.15,-0.05 l 0.705,0 -3.42,6.575 z" /><path
         id="path205"
         style="font-style:italic;font-size:10px;-inkscape-font-specification:'Sans Italic';fill:#999999"
         d="m 22.606563,63.33197 0.61,-5.07 0.44,0 q 0.3,0 0.3,0.3 l -0.075,0.985 q 0.405,-0.67 0.915,-1.01 0.51,-0.345 1.05,-0.345 0.32,0 0.56,0.13 0.245,0.125 0.395,0.37 0.155,0.245 0.21,0.605 0.055,0.355 0,0.81 l -0.38,3.225 -0.885,0 0.38,-3.225 q 0.07,-0.6 -0.075,-0.885 -0.145,-0.29 -0.535,-0.29 -0.24,0 -0.49,0.13 -0.245,0.13 -0.475,0.37 -0.23,0.24 -0.43,0.58 -0.195,0.335 -0.335,0.75 l -0.29,2.57 -0.89,0 z" /><path
         id="path207"
         style="font-style:italic;font-size:10px;-inkscape-font-specification:'Sans Italic';fill:#999999"
         d="m 29.869532,62.70697 q 0.365,0 0.66,-0.2 0.3,-0.2 0.51,-0.53 0.215,-0.335 0.33,-0.77 0.115,-0.435 0.115,-0.91 0,-0.7 -0.28,-1.05 -0.275,-0.355 -0.795,-0.355 -0.37,0 -0.67,0.2 -0.295,0.195 -0.505,0.525 -0.21,0.33 -0.325,0.765 -0.115,0.435 -0.115,0.91 0,0.7 0.275,1.06 0.275,0.355 0.8,0.355 z m -0.085,0.695 q -0.415,0 -0.76,-0.14 -0.345,-0.145 -0.595,-0.415 -0.25,-0.27 -0.39,-0.66 -0.14,-0.39 -0.14,-0.89 0,-0.64 0.2,-1.205 0.2,-0.565 0.55,-0.985 0.35,-0.425 0.82,-0.67 0.475,-0.245 1.02,-0.245 0.415,0 0.76,0.145 0.345,0.14 0.595,0.41 0.25,0.27 0.39,0.66 0.14,0.39 0.14,0.885 0,0.635 -0.2,1.2 -0.2,0.565 -0.55,0.99 -0.345,0.425 -0.82,0.675 -0.475,0.245 -1.02,0.245 z" /><path
         id="path209"
         style="font-style:italic;font-size:10px;-inkscape-font-specification:'Sans Italic';fill:#999999"
         d="m 33.094845,63.33197 0.61,-5.07 0.44,0 q 0.3,0 0.3,0.3 l -0.075,0.985 q 0.405,-0.67 0.915,-1.01 0.51,-0.345 1.05,-0.345 0.32,0 0.56,0.13 0.245,0.125 0.395,0.37 0.155,0.245 0.21,0.605 0.055,0.355 0,0.81 l -0.38,3.225 -0.885,0 0.38,-3.225 q 0.07,-0.6 -0.075,-0.885 -0.145,-0.29 -0.535,-0.29 -0.24,0 -0.49,0.13 -0.245,0.13 -0.475,0.37 -0.23,0.24 -0.43,0.58 -0.195,0.335 -0.335,0.75 l -0.29,2.57 -0.89,0 z" /><path
         id="path211"
         style="font-style:italic;font-size:10px;-inkscape-font-specification:'Sans Italic';fill:#999999"
         d="m 39.515626,64.84197 q -0.055,0.105 -0.13,0.155 -0.07,0.05 -0.18,0.05 l -0.655,0 1.1,-2.015 -1.315,-4.765 0.735,0 q 0.11,0 0.16,0.055 0.05,0.05 0.075,0.13 l 0.815,3.19 q 0.025,0.105 0.04,0.21 0.015,0.105 0.025,0.21 0.04,-0.105 0.085,-0.21 0.05,-0.11 0.1,-0.215 l 1.6,-3.195 q 0.04,-0.08 0.11,-0.125 0.075,-0.05 0.15,-0.05 l 0.705,0 -3.42,6.575 z" /><path
         id="path213"
         style="font-style:italic;font-size:10px;-inkscape-font-specification:'Sans Italic';fill:#999999"
         d="m 43.075313,63.33197 0.61,-5.07 0.44,0 q 0.305,0 0.305,0.3 l -0.07,0.9 q 0.375,-0.625 0.82,-0.945 0.45,-0.325 0.94,-0.325 0.515,0 0.76,0.355 0.245,0.35 0.245,1.005 0.375,-0.695 0.845,-1.025 0.475,-0.335 1,-0.335 0.65,0 0.92,0.5 0.27,0.5 0.16,1.415 l -0.38,3.225 -0.88,0 0.385,-3.225 q 0.07,-0.595 -0.04,-0.885 -0.105,-0.29 -0.48,-0.29 -0.215,0 -0.43,0.11 -0.21,0.105 -0.41,0.315 -0.2,0.205 -0.375,0.515 -0.17,0.305 -0.305,0.705 l 0,0.005 -0.325,2.75 -0.88,0 0.38,-3.225 q 0.075,-0.595 -0.02,-0.885 -0.095,-0.29 -0.47,-0.29 -0.24,0 -0.465,0.12 -0.22,0.12 -0.42,0.35 -0.195,0.225 -0.365,0.555 -0.17,0.325 -0.31,0.735 l -0.315,2.64 -0.87,0 z" /><path
         id="path215"
         style="font-style:italic;font-size:10px;-inkscape-font-specification:'Sans Italic';fill:#999999"
         d="m 52.916407,62.70697 q 0.365,0 0.66,-0.2 0.3,-0.2 0.51,-0.53 0.215,-0.335 0.33,-0.77 0.115,-0.435 0.115,-0.91 0,-0.7 -0.28,-1.05 -0.275,-0.355 -0.795,-0.355 -0.37,0 -0.67,0.2 -0.295,0.195 -0.505,0.525 -0.21,0.33 -0.325,0.765 -0.115,0.435 -0.115,0.91 0,0.7 0.275,1.06 0.275,0.355 0.8,0.355 z m -0.085,0.695 q -0.415,0 -0.76,-0.14 -0.345,-0.145 -0.595,-0.415 -0.25,-0.27 -0.39,-0.66 -0.14,-0.39 -0.14,-0.89 0,-0.64 0.2,-1.205 0.2,-0.565 0.55,-0.985 0.35,-0.425 0.82,-0.67 0.475,-0.245 1.02,-0.245 0.415,0 0.76,0.145 0.345,0.14 0.595,0.41 0.25,0.27 0.39,0.66 0.14,0.39 0.14,0.885 0,0.635 -0.2,1.2 -0.2,0.565 -0.55,0.99 -0.345,0.425 -0.82,0.675 -0.475,0.245 -1.02,0.245 z" /><path
         id="path217"
         style="font-style:italic;font-size:10px;-inkscape-font-specification:'Sans Italic';fill:#999999"
         d="m 57.58672,58.26697 -0.38,3.22 q -0.07,0.595 0.07,0.885 0.145,0.29 0.54,0.29 0.23,0 0.47,-0.125 0.245,-0.125 0.47,-0.355 0.23,-0.23 0.425,-0.555 0.195,-0.325 0.34,-0.725 l 0.315,-2.635 0.885,0 -0.61,5.065 -0.44,0 q -0.325,0 -0.325,-0.32 l 0.075,-0.92 q -0.405,0.645 -0.905,0.98 -0.5,0.33 -1.03,0.33 -0.32,0 -0.565,-0.125 -0.245,-0.13 -0.4,-0.375 -0.15,-0.245 -0.205,-0.6 -0.055,-0.355 0.005,-0.815 l 0.38,-3.22 0.885,0 z" /><path
         id="path219"
         style="font-style:italic;font-size:10px;-inkscape-font-specification:'Sans Italic';fill:#999999"
         d="m 64.699688,59.07697 q -0.04,0.06 -0.08,0.09 -0.04,0.025 -0.1,0.025 -0.07,0 -0.155,-0.055 -0.08,-0.055 -0.2,-0.12 -0.115,-0.07 -0.285,-0.125 -0.17,-0.06 -0.41,-0.06 -0.225,0 -0.41,0.065 -0.185,0.06 -0.32,0.17 -0.13,0.11 -0.205,0.26 -0.07,0.145 -0.07,0.31 0,0.235 0.155,0.375 0.155,0.14 0.39,0.245 0.235,0.1 0.505,0.195 0.27,0.095 0.505,0.24 0.235,0.145 0.39,0.37 0.155,0.225 0.155,0.585 0,0.35 -0.14,0.67 -0.135,0.32 -0.395,0.565 -0.255,0.24 -0.62,0.385 -0.36,0.145 -0.81,0.145 -0.485,0 -0.86,-0.17 -0.37,-0.175 -0.605,-0.445 l 0.22,-0.34 q 0.045,-0.065 0.095,-0.1 0.055,-0.035 0.14,-0.035 0.08,0 0.16,0.07 0.08,0.07 0.2,0.16 0.12,0.085 0.3,0.155 0.185,0.07 0.465,0.07 0.245,0 0.44,-0.075 0.2,-0.075 0.335,-0.2 0.14,-0.125 0.21,-0.29 0.075,-0.17 0.075,-0.36 0,-0.255 -0.155,-0.405 -0.155,-0.15 -0.39,-0.25 -0.235,-0.1 -0.505,-0.185 -0.27,-0.09 -0.505,-0.225 -0.235,-0.14 -0.39,-0.36 -0.155,-0.22 -0.155,-0.585 0,-0.32 0.125,-0.615 0.13,-0.3 0.37,-0.53 0.24,-0.23 0.58,-0.365 0.345,-0.14 0.775,-0.14 0.455,0 0.8,0.155 0.35,0.15 0.6,0.41 l -0.225,0.32 z" /></g><g
       id="text3059"
       style="font-style:normal;font-weight:normal;font-size:18px;line-height:125%;font-family:Lato, Arial, Helvetica, sans-serif;letter-spacing:0px;word-spacing:0px;fill:#000000;fill-opacity:1;stroke:none"><path
         id="path222"
         style="font-style:italic;font-size:10px;-inkscape-font-specification:'Sans Italic';fill:#666666"
         d="m 5.9599265,129.24992 0.61,-5.07 0.44,0 q 0.3,0 0.3,0.3 l -0.075,0.985 q 0.405,-0.67 0.915,-1.01 0.51,-0.345 1.05,-0.345 0.32,0 0.56,0.13 0.2450005,0.125 0.3950005,0.37 0.155,0.245 0.21,0.605 0.055,0.355 0,0.81 l -0.3800005,3.225 -0.885,0 0.38,-3.225 q 0.07,-0.6 -0.075,-0.885 -0.145,-0.29 -0.535,-0.29 -0.24,0 -0.49,0.13 -0.245,0.13 -0.475,0.37 -0.23,0.24 -0.43,0.58 -0.195,0.335 -0.335,0.75 l -0.29,2.57 -0.89,0 z" /><path
         id="path224"
         style="font-style:italic;font-size:10px;-inkscape-font-specification:'Sans Italic';fill:#666666"
         d="m 13.222895,128.62492 q 0.365,0 0.66,-0.2 0.3,-0.2 0.51,-0.53 0.215,-0.335 0.33,-0.77 0.115,-0.435 0.115,-0.91 0,-0.7 -0.28,-1.05 -0.275,-0.355 -0.795,-0.355 -0.37,0 -0.67,0.2 -0.295,0.195 -0.505,0.525 -0.21,0.33 -0.325,0.765 -0.115,0.435 -0.115,0.91 0,0.7 0.275,1.06 0.275,0.355 0.8,0.355 z m -0.085,0.695 q -0.415,0 -0.76,-0.14 -0.345,-0.145 -0.595,-0.415 -0.25,-0.27 -0.39,-0.66 -0.14,-0.39 -0.14,-0.89 0,-0.64 0.2,-1.205 0.2,-0.565 0.55,-0.985 0.35,-0.425 0.82,-0.67 0.475,-0.245 1.02,-0.245 0.415,0 0.76,0.145 0.345,0.14 0.595,0.41 0.25,0.27 0.39,0.66 0.14,0.39 0.14,0.885 0,0.635 -0.2,1.2 -0.2,0.565 -0.55,0.99 -0.345,0.425 -0.82,0.675 -0.475,0.245 -1.02,0.245 z" /><path
         id="path226"
         style="font-style:italic;font-size:10px;-inkscape-font-specification:'Sans Italic';fill:#666666"
         d="m 16.448208,129.24992 0.61,-5.07 0.44,0 q 0.3,0 0.3,0.3 l -0.075,0.985 q 0.405,-0.67 0.915,-1.01 0.51,-0.345 1.05,-0.345 0.32,0 0.56,0.13 0.245,0.125 0.395,0.37 0.155,0.245 0.21,0.605 0.055,0.355 0,0.81 l -0.38,3.225 -0.885,0 0.38,-3.225 q 0.07,-0.6 -0.075,-0.885 -0.145,-0.29 -0.535,-0.29 -0.24,0 -0.49,0.13 -0.245,0.13 -0.475,0.37 -0.23,0.24 -0.43,0.58 -0.195,0.335 -0.335,0.75 l -0.29,2.57 -0.89,0 z" /><path
         id="path228"
         style="font-style:italic;font-size:10px;-inkscape-font-specification:'Sans Italic';fill:#666666"
         d="m 25.006177,124.99492 q -0.04,0.06 -0.08,0.09 -0.04,0.025 -0.1,0.025 -0.07,0 -0.155,-0.055 -0.08,-0.055 -0.2,-0.12 -0.115,-0.07 -0.285,-0.125 -0.17,-0.06 -0.41,-0.06 -0.225,0 -0.41,0.065 -0.185,0.06 -0.32,0.17 -0.13,0.11 -0.205,0.26 -0.07,0.145 -0.07,0.31 0,0.235 0.155,0.375 0.155,0.14 0.39,0.245 0.235,0.1 0.505,0.195 0.27,0.095 0.505,0.24 0.235,0.145 0.39,0.37 0.155,0.225 0.155,0.585 0,0.35 -0.14,0.67 -0.135,0.32 -0.395,0.565 -0.255,0.24 -0.62,0.385 -0.36,0.145 -0.81,0.145 -0.485,0 -0.86,-0.17 -0.37,-0.175 -0.605,-0.445 l 0.22,-0.34 q 0.045,-0.065 0.095,-0.1 0.055,-0.035 0.14,-0.035 0.08,0 0.16,0.07 0.08,0.07 0.2,0.16 0.12,0.085 0.3,0.155 0.185,0.07 0.465,0.07 0.245,0 0.44,-0.075 0.2,-0.075 0.335,-0.2 0.14,-0.125 0.21,-0.29 0.075,-0.17 0.075,-0.36 0,-0.255 -0.155,-0.405 -0.155,-0.15 -0.39,-0.25 -0.235,-0.1 -0.505,-0.185 -0.27,-0.09 -0.505,-0.225 -0.235,-0.14 -0.39,-0.36 -0.155,-0.22 -0.155,-0.585 0,-0.32 0.125,-0.615 0.13,-0.3 0.37,-0.53 0.24,-0.23 0.58,-0.365 0.345,-0.14 0.775,-0.14 0.455,0 0.8,0.155 0.35,0.15 0.6,0.41 l -0.225,0.32 z" /><path
         id="path230"
         style="font-style:italic;font-size:10px;-inkscape-font-specification:'Sans Italic';fill:#666666"
         d="m 26.911958,130.75992 q -0.055,0.105 -0.13,0.155 -0.07,0.05 -0.18,0.05 l -0.655,0 1.1,-2.015 -1.315,-4.765 0.735,0 q 0.11,0 0.16,0.055 0.05,0.05 0.075,0.13 l 0.815,3.19 q 0.025,0.105 0.04,0.21 0.015,0.105 0.025,0.21 0.04,-0.105 0.085,-0.21 0.05,-0.11 0.1,-0.215 l 1.6,-3.195 q 0.04,-0.08 0.11,-0.125 0.075,-0.05 0.15,-0.05 l 0.705,0 -3.42,6.575 z" /><path
         id="path232"
         style="font-style:italic;font-size:10px;-inkscape-font-specification:'Sans Italic';fill:#666666"
         d="m 30.471645,129.24992 0.61,-5.07 0.44,0 q 0.3,0 0.3,0.3 l -0.075,0.985 q 0.405,-0.67 0.915,-1.01 0.51,-0.345 1.05,-0.345 0.32,0 0.56,0.13 0.245,0.125 0.395,0.37 0.155,0.245 0.21,0.605 0.055,0.355 0,0.81 l -0.38,3.225 -0.885,0 0.38,-3.225 q 0.07,-0.6 -0.075,-0.885 -0.145,-0.29 -0.535,-0.29 -0.24,0 -0.49,0.13 -0.245,0.13 -0.475,0.37 -0.23,0.24 -0.43,0.58 -0.195,0.335 -0.335,0.75 l -0.29,2.57 -0.89,0 z" /><path
         id="path234"
         style="font-style:italic;font-size:10px;-inkscape-font-specification:'Sans Italic';fill:#666666"
         d="m 37.734614,128.62492 q 0.365,0 0.66,-0.2 0.3,-0.2 0.51,-0.53 0.215,-0.335 0.33,-0.77 0.115,-0.435 0.115,-0.91 0,-0.7 -0.28,-1.05 -0.275,-0.355 -0.795,-0.355 -0.37,0 -0.67,0.2 -0.295,0.195 -0.505,0.525 -0.21,0.33 -0.325,0.765 -0.115,0.435 -0.115,0.91 0,0.7 0.275,1.06 0.275,0.355 0.8,0.355 z m -0.085,0.695 q -0.415,0 -0.76,-0.14 -0.345,-0.145 -0.595,-0.415 -0.25,-0.27 -0.39,-0.66 -0.14,-0.39 -0.14,-0.89 0,-0.64 0.2,-1.205 0.2,-0.565 0.55,-0.985 0.35,-0.425 0.82,-0.67 0.475,-0.245 1.02,-0.245 0.415,0 0.76,0.145 0.345,0.14 0.595,0.41 0.25,0.27 0.39,0.66 0.14,0.39 0.14,0.885 0,0.635 -0.2,1.2 -0.2,0.565 -0.55,0.99 -0.345,0.425 -0.82,0.675 -0.475,0.245 -1.02,0.245 z" /><path
         id="path236"
         style="font-style:italic;font-size:10px;-inkscape-font-specification:'Sans Italic';fill:#666666"
         d="m 40.959927,129.24992 0.61,-5.07 0.44,0 q 0.3,0 0.3,0.3 l -0.075,0.985 q 0.405,-0.67 0.915,-1.01 0.51,-0.345 1.05,-0.345 0.32,0 0.56,0.13 0.245,0.125 0.395,0.37 0.155,0.245 0.21,0.605 0.055,0.355 0,0.81 l -0.38,3.225 -0.885,0 0.38,-3.225 q 0.07,-0.6 -0.075,-0.885 -0.145,-0.29 -0.535,-0.29 -0.24,0 -0.49,0.13 -0.245,0.13 -0.475,0.37 -0.23,0.24 -0.43,0.58 -0.195,0.335 -0.335,0.75 l -0.29,2.57 -0.89,0 z" /><path
         id="path238"
         style="font-style:italic;font-size:10px;-inkscape-font-specification:'Sans Italic';fill:#666666"
         d="m 47.380708,130.75992 q -0.055,0.105 -0.13,0.155 -0.07,0.05 -0.18,0.05 l -0.655,0 1.1,-2.015 -1.315,-4.765 0.735,0 q 0.11,0 0.16,0.055 0.05,0.05 0.075,0.13 l 0.815,3.19 q 0.025,0.105 0.04,0.21 0.015,0.105 0.025,0.21 0.04,-0.105 0.085,-0.21 0.05,-0.11 0.1,-0.215 l 1.6,-3.195 q 0.04,-0.08 0.11,-0.125 0.075,-0.05 0.15,-0.05 l 0.705,0 -3.42,6.575 z" /><path
         id="path240"
         style="font-style:italic;font-size:10px;-inkscape-font-specification:'Sans Italic';fill:#666666"
         d="m 50.940395,129.24992 0.61,-5.07 0.44,0 q 0.305,0 0.305,0.3 l -0.07,0.9 q 0.375,-0.625 0.82,-0.945 0.45,-0.325 0.94,-0.325 0.515,0 0.76,0.355 0.245,0.35 0.245,1.005 0.375,-0.695 0.845,-1.025 0.475,-0.335 1,-0.335 0.65,0 0.92,0.5 0.27,0.5 0.16,1.415 l -0.38,3.225 -0.88,0 0.385,-3.225 q 0.07,-0.595 -0.04,-0.885 -0.105,-0.29 -0.48,-0.29 -0.215,0 -0.43,0.11 -0.21,0.105 -0.41,0.315 -0.2,0.205 -0.375,0.515 -0.17,0.305 -0.305,0.705 l 0,0.005 -0.325,2.75 -0.88,0 0.38,-3.225 q 0.075,-0.595 -0.02,-0.885 -0.095,-0.29 -0.47,-0.29 -0.24,0 -0.465,0.12 -0.22,0.12 -0.42,0.35 -0.195,0.225 -0.365,0.555 -0.17,0.325 -0.31,0.735 l -0.315,2.64 -0.87,0 z" /><path
         id="path242"
         style="font-style:italic;font-size:10px;-inkscape-font-specification:'Sans Italic';fill:#666666"
         d="m 60.781489,128.62492 q 0.365,0 0.66,-0.2 0.3,-0.2 0.51,-0.53 0.215,-0.335 0.33,-0.77 0.115,-0.435 0.115,-0.91 0,-0.7 -0.28,-1.05 -0.275,-0.355 -0.795,-0.355 -0.37,0 -0.67,0.2 -0.295,0.195 -0.505,0.525 -0.21,0.33 -0.325,0.765 -0.115,0.435 -0.115,0.91 0,0.7 0.275,1.06 0.275,0.355 0.8,0.355 z m -0.085,0.695 q -0.415,0 -0.76,-0.14 -0.345,-0.145 -0.595,-0.415 -0.25,-0.27 -0.39,-0.66 -0.14,-0.39 -0.14,-0.89 0,-0.64 0.2,-1.205 0.2,-0.565 0.55,-0.985 0.35,-0.425 0.82,-0.67 0.475,-0.245 1.02,-0.245 0.415,0 0.76,0.145 0.345,0.14 0.595,0.41 0.25,0.27 0.39,0.66 0.14,0.39 0.14,0.885 0,0.635 -0.2,1.2 -0.2,0.565 -0.55,0.99 -0.345,0.425 -0.82,0.675 -0.475,0.245 -1.02,0.245 z" /><path
         id="path244"
         style="font-style:italic;font-size:10px;-inkscape-font-specification:'Sans Italic';fill:#666666"
         d="m 65.451802,124.18492 -0.38,3.22 q -0.07,0.595 0.07,0.885 0.145,0.29 0.54,0.29 0.23,0 0.47,-0.125 0.245,-0.125 0.47,-0.355 0.23,-0.23 0.425,-0.555 0.195,-0.325 0.34,-0.725 l 0.315,-2.635 0.885,0 -0.61,5.065 -0.44,0 q -0.325,0 -0.325,-0.32 l 0.075,-0.92 q -0.405,0.645 -0.905,0.98 -0.5,0.33 -1.03,0.33 -0.32,0 -0.565,-0.125 -0.245,-0.13 -0.4,-0.375 -0.15,-0.245 -0.205,-0.6 -0.055,-0.355 0.005,-0.815 l 0.38,-3.22 0.885,0 z" /><path
         id="path246"
         style="font-style:italic;font-size:10px;-inkscape-font-specification:'Sans Italic';fill:#666666"
         d="m 72.56477,124.99492 q -0.04,0.06 -0.08,0.09 -0.04,0.025 -0.1,0.025 -0.07,0 -0.155,-0.055 -0.08,-0.055 -0.2,-0.12 -0.115,-0.07 -0.285,-0.125 -0.17,-0.06 -0.41,-0.06 -0.225,0 -0.41,0.065 -0.185,0.06 -0.32,0.17 -0.13,0.11 -0.205,0.26 -0.07,0.145 -0.07,0.31 0,0.235 0.155,0.375 0.155,0.14 0.39,0.245 0.235,0.1 0.505,0.195 0.27,0.095 0.505,0.24 0.235,0.145 0.39,0.37 0.155,0.225 0.155,0.585 0,0.35 -0.14,0.67 -0.135,0.32 -0.395,0.565 -0.255,0.24 -0.62,0.385 -0.36,0.145 -0.81,0.145 -0.485,0 -0.86,-0.17 -0.37,-0.175 -0.605,-0.445 l 0.22,-0.34 q 0.045,-0.065 0.095,-0.1 0.055,-0.035 0.14,-0.035 0.08,0 0.16,0.07 0.08,0.07 0.2,0.16 0.12,0.085 0.3,0.155 0.185,0.07 0.465,0.07 0.245,0 0.44,-0.075 0.2,-0.075 0.335,-0.2 0.14,-0.125 0.21,-0.29 0.075,-0.17 0.075,-0.36 0,-0.255 -0.155,-0.405 -0.155,-0.15 -0.39,-0.25 -0.235,-0.1 -0.505,-0.185 -0.27,-0.09 -0.505,-0.225 -0.235,-0.14 -0.39,-0.36 -0.155,-0.22 -0.155,-0.585 0,-0.32 0.125,-0.615 0.13,-0.3 0.37,-0.53 0.24,-0.23 0.58,-0.365 0.345,-0.14 0.775,-0.14 0.455,0 0.8,0.155 0.35,0.15 0.6,0.41 l -0.225,0.32 z" /></g></g><g
     transform="translate(-0.06056757,-16.654381)"
     style="display:inline"
     id="layer2" /></svg>