<?xml version="1.0" encoding="UTF-8" standalone="no"?>
<svg
   xmlns:dc="http://purl.org/dc/elements/1.1/"
   xmlns:cc="http://creativecommons.org/ns#"
   xmlns:rdf="http://www.w3.org/1999/02/22-rdf-syntax-ns#"
   xmlns:svg="http://www.w3.org/2000/svg"
   xmlns="http://www.w3.org/2000/svg"
   id="svg2"
   viewBox="0 0 1018.4927 470.43777"
   height="470.43777"
   width="1018.4927"
   y="0px"
   x="0px"
   version="1.1">
  <metadata
     id="metadata73">
    <rdf:RDF>
      <cc:Work
         rdf:about="">
        <dc:format>image/svg+xml</dc:format>
        <dc:type
           rdf:resource="http://purl.org/dc/dcmitype/StillImage" />
        <dc:title />
      </cc:Work>
    </rdf:RDF>
  </metadata>
  <defs
     id="defs71">
    <marker
       style="overflow:visible"
       id="Arrow1Mend"
       refX="0"
       refY="0"
       orient="auto">
      <path
         transform="matrix(-0.4,0,0,-0.4,-4,0)"
         style="fill-rule:evenodd;stroke:#000000;stroke-width:1pt;marker-start:none"
         d="M 0,0 5,-5 -12.5,0 5,5 0,0 z"
         id="path3316" />
    </marker>
    <marker
       style="overflow:visible"
       id="Arrow1Lend"
       refX="0"
       refY="0"
       orient="auto">
      <path
         transform="matrix(-0.8,0,0,-0.8,-10,0)"
         style="fill-rule:evenodd;stroke:#000000;stroke-width:1pt;marker-start:none"
         d="M 0,0 5,-5 -12.5,0 5,5 0,0 z"
         id="path3310" />
    </marker>
  </defs>
  <desc
     id="desc6">Creator: FreeHEP Graphics2D Driver Producer: org.freehep.graphicsio.svg.SVGGraphics2D Revision: 12753  Source:  Date: Tuesday, February 17, 2009 4:12:33 PM PST</desc>
  <g
     transform="matrix(0.4746596,0,0,0.4746596,-38.535382,-139.78679)"
     id="g62"
     style="fill:none;stroke:#2d3680;stroke-width:10;stroke-linecap:round;stroke-linejoin:round;stroke-miterlimit:10;stroke-dasharray:none;stroke-dashoffset:0;stroke-opacity:0.50196078">
    <path
       style="stroke-width:10"
       d=""
       id="path64" />
  </g>
  <g
     transform="matrix(0.4746596,0,0,0.4746596,-38.535382,-139.78679)"
     id="g66"
     style="fill:#2d3680;fill-opacity:0.50196078;fill-rule:nonzero;stroke:none">
    <path
       d=""
       id="path68" />
  </g>
  <!-- default stroke -->
  <g
     transform="matrix(0.8236951,0,0,0.8236951,599.14716,126.60235)"
     id="g3278">
    <g
       style="fill:none;stroke:#000000;stroke-width:10.63498974;stroke-linecap:butt;stroke-linejoin:miter;stroke-miterlimit:10;stroke-dasharray:none;stroke-dashoffset:0;stroke-opacity:1"
       id="g10"
       transform="matrix(0.4746596,0,0,0.4746596,1.5760211,7.871897)">
      <path
         id="path12"
         d="m 286.10561,634.5 -271.947194,0 0,-300"
         style="stroke-width:10.63498974;stroke-miterlimit:10;stroke-dasharray:none" />
    </g>
    <g
       style="fill:none;stroke:#000000;stroke-width:10.63498974;stroke-linecap:butt;stroke-linejoin:miter;stroke-miterlimit:10;stroke-dasharray:none;stroke-dashoffset:0;stroke-opacity:1"
       id="g14"
       transform="matrix(0.4746596,0,0,0.4746596,1.5760211,7.871897)">
      <path
         id="path16"
         d="m 150.13201,34.5 -135.973594,0 0,300"
         style="stroke-width:10.63498974;stroke-miterlimit:10;stroke-dasharray:none" />
    </g>
    <g
       style="fill:none;stroke:#000000;stroke-width:10.63498974;stroke-linecap:butt;stroke-linejoin:miter;stroke-miterlimit:10;stroke-dasharray:none;stroke-dashoffset:0;stroke-opacity:1"
       id="g18"
       transform="matrix(0.4746596,0,0,0.4746596,1.5760211,7.871897)">
      <path
         id="path20"
         d="m 6,334.5 8.158416,0"
         style="stroke-width:10.63498974;stroke-miterlimit:10;stroke-dasharray:none" />
    </g>
    <g
       style="fill:none;stroke:#000000;stroke-width:10.63498974;stroke-linecap:butt;stroke-linejoin:miter;stroke-miterlimit:10;stroke-dasharray:none;stroke-dashoffset:0;stroke-opacity:1"
       id="g22"
       transform="matrix(0.4746596,0,0,0.4746596,1.5760211,7.871897)">
      <path
         id="path24"
         d="m 558.0528,434.5 -271.94719,0 0,200"
         style="stroke-width:10.63498974;stroke-miterlimit:10;stroke-dasharray:none" />
    </g>
    <g
       style="fill:none;stroke:#000000;stroke-width:10.63498974;stroke-linecap:butt;stroke-linejoin:miter;stroke-miterlimit:10;stroke-dasharray:none;stroke-dashoffset:0;stroke-opacity:1"
       id="g26"
       transform="matrix(0.4746596,0,0,0.4746596,1.5760211,7.871897)">
      <path
         id="path28"
         d="m 449.27393,834.5 -163.16832,0 0,-200"
         style="stroke-width:10.63498974;stroke-miterlimit:10;stroke-dasharray:none" />
    </g>
    <g
       style="fill:none;stroke:#000000;stroke-width:10.63498974;stroke-linecap:butt;stroke-linejoin:miter;stroke-miterlimit:10;stroke-dasharray:none;stroke-dashoffset:0;stroke-opacity:1"
       id="g30"
       transform="matrix(0.4746596,0,0,0.4746596,1.5760211,7.871897)">
      <path
         id="path32"
         d="m 639.63695,567.83335 -81.58415,0 0,-133.33335"
         style="stroke-width:10.63498974;stroke-miterlimit:10;stroke-dasharray:none" />
    </g>
    <g
       style="fill:none;stroke:#000000;stroke-width:10.63498974;stroke-linecap:butt;stroke-linejoin:miter;stroke-miterlimit:10;stroke-dasharray:none;stroke-dashoffset:0;stroke-opacity:1"
       id="g34"
       transform="matrix(0.4746596,0,0,0.4746596,1.5760211,7.871897)">
      <path
         id="path36"
         d="m 830,301.16667 -271.9472,0 0,133.33333"
         style="stroke-width:10.63498974;stroke-miterlimit:10;stroke-dasharray:none" />
    </g>
    <g
       id="text2484"
       style="font-style:normal;font-variant:normal;font-weight:normal;font-stretch:normal;font-size:32px;line-height:125%;font-family:Lato;-inkscape-font-specification:'Bitstream Vera Sans';text-align:start;writing-mode:lr-tb;text-anchor:start;fill:#000000;fill-opacity:1;stroke:none">
      <path
         id="path49"
         style=""
         d="m 91.570643,31.863461 q -0.416,0 -0.64,-0.128 -0.224,-0.144 -0.352,-0.544 l -0.32,-1.52 q -0.64,0.576 -1.264,1.04 -0.608,0.448 -1.28,0.768 -0.656,0.304 -1.424,0.464 -0.752,0.176 -1.68,0.176 -0.944,0 -1.776,-0.256 -0.832,-0.272 -1.456,-0.8 -0.608,-0.528 -0.976,-1.328 -0.352,-0.816 -0.352,-1.92 0,-0.96 0.528,-1.84 0.528,-0.896 1.712,-1.584 1.184,-0.688 3.088,-1.12 1.904,-0.448 4.672,-0.512 l 0,-1.264 q 0,-1.888 -0.816,-2.848 -0.816,-0.976 -2.384,-0.976 -1.056,0 -1.776,0.272 -0.704,0.256 -1.232,0.592 -0.512,0.32 -0.896,0.592 -0.368,0.256 -0.736,0.256 -0.288,0 -0.496,-0.144 -0.208,-0.16 -0.352,-0.384 l -0.512,-0.912 q 1.344,-1.296 2.896,-1.936 1.552,-0.64 3.44,-0.64 1.36,0 2.416,0.448 1.056,0.448 1.776,1.248 0.72,0.8 1.088,1.936 0.368,1.136 0.368,2.496 l 0,10.368 -1.264,0 z m -6.112,-1.744 q 0.752,0 1.376,-0.144 0.624,-0.16 1.168,-0.432 0.56,-0.288 1.056,-0.688 0.512,-0.416 0.992,-0.928 l 0,-3.36 q -1.968,0.064 -3.36,0.32 -1.376,0.24 -2.256,0.64 -0.864,0.4 -1.264,0.944 -0.384,0.544 -0.384,1.216 0,0.64 0.208,1.104 0.208,0.464 0.56,0.768 0.368,0.288 0.848,0.432 0.496,0.128 1.056,0.128 z" />
      <path
         id="path51"
         style=""
         d="m 97.141643,31.863461 0,-16.208 1.632,0 q 0.464,0 0.64,0.176 0.176,0.176 0.24,0.608 l 0.176,2.464 q 0.767997,-1.664 1.887997,-2.592 1.136,-0.944 2.752,-0.944 0.512,0 0.976,0.112 0.48,0.112 0.848,0.352 l -0.208,2.128 q -0.096,0.4 -0.48,0.4 -0.224,0 -0.656,-0.096 -0.432,-0.096 -0.976,-0.096 -0.768,0 -1.376,0.24 -0.608,0.224 -1.088,0.672 -0.464,0.432 -0.832,1.072 -0.368,0.64 -0.672,1.472 l 0,10.24 -2.863997,0 z" />
      <path
         id="path53"
         style=""
         d="m 108.76664,31.863461 0,-16.208 1.712,0 q 0.608,0 0.752,0.592 l 0.208,1.664 q 0.896,-1.104 2.016,-1.808 1.12,-0.704 2.592,-0.704 1.632,0 2.64,0.912 1.024,0.912 1.472,2.464 0.352,-0.88 0.896,-1.52 0.56,-0.64 1.248,-1.056 0.688,-0.416 1.456,-0.608 0.784,-0.192 1.584,-0.192 1.28,0 2.272,0.416 1.008,0.4 1.696,1.184 0.704,0.784 1.072,1.936 0.368,1.136 0.368,2.608 l 0,10.32 -2.864,0 0,-10.32 q 0,-1.904 -0.832,-2.88 -0.832,-0.992 -2.4,-0.992 -0.704,0 -1.344,0.256 -0.624,0.24 -1.104,0.72 -0.48,0.48 -0.768,1.216 -0.272,0.72 -0.272,1.68 l 0,10.32 -2.864,0 0,-10.32 q 0,-1.952 -0.784,-2.912 -0.784,-0.96 -2.288,-0.96 -1.056,0 -1.952,0.576 -0.896,0.56 -1.648,1.536 l 0,12.08 -2.864,0 z" />
      <path
         id="path55"
         style=""
         d="m 145.38314,31.863461 q -0.416,0 -0.64,-0.128 -0.224,-0.144 -0.352,-0.544 l -0.32,-1.52 q -0.64,0.576 -1.264,1.04 -0.608,0.448 -1.28,0.768 -0.656,0.304 -1.424,0.464 -0.752,0.176 -1.68,0.176 -0.944,0 -1.776,-0.256 -0.832,-0.272 -1.456,-0.8 -0.608,-0.528 -0.976,-1.328 -0.352,-0.816 -0.352,-1.92 0,-0.96 0.528,-1.84 0.528,-0.896 1.712,-1.584 1.184,-0.688 3.088,-1.12 1.904,-0.448 4.672,-0.512 l 0,-1.264 q 0,-1.888 -0.816,-2.848 -0.816,-0.976 -2.384,-0.976 -1.056,0 -1.776,0.272 -0.704,0.256 -1.232,0.592 -0.512,0.32 -0.896,0.592 -0.368,0.256 -0.736,0.256 -0.288,0 -0.496,-0.144 -0.208,-0.16 -0.352,-0.384 l -0.512,-0.912 q 1.344,-1.296 2.896,-1.936 1.552,-0.64 3.44,-0.64 1.36,0 2.416,0.448 1.056,0.448 1.776,1.248 0.72,0.8 1.088,1.936 0.368,1.136 0.368,2.496 l 0,10.368 -1.264,0 z m -6.112,-1.744 q 0.752,0 1.376,-0.144 0.624,-0.16 1.168,-0.432 0.56,-0.288 1.056,-0.688 0.512,-0.416 0.992,-0.928 l 0,-3.36 q -1.968,0.064 -3.36,0.32 -1.376,0.24 -2.256,0.64 -0.864,0.4 -1.264,0.944 -0.384,0.544 -0.384,1.216 0,0.64 0.208,1.104 0.208,0.464 0.56,0.768 0.368,0.288 0.848,0.432 0.496,0.128 1.056,0.128 z" />
      <path
         id="path57"
         style=""
         d="m 162.66614,31.863461 q -0.608,0 -0.768,-0.592 l -0.256,-1.968 q -1.04,1.264 -2.384,2.032 -1.328,0.752 -3.056,0.752 -1.392,0 -2.528,-0.528 -1.136,-0.544 -1.936,-1.584 -0.8,-1.04 -1.232,-2.592 -0.432,-1.552 -0.432,-3.568 0,-1.792 0.48,-3.328 0.48,-1.552 1.376,-2.688 0.896,-1.136 2.192,-1.776 1.312,-0.656 2.944,-0.656 1.488,0 2.544,0.512 1.072,0.496 1.904,1.408 l 0,-8.9920005 2.848,0 0,23.5680005 -1.696,0 z m -5.536,-2.08 q 1.408,0 2.448,-0.64 1.056,-0.64 1.936,-1.808 l 0,-7.824 q -0.8,-1.056 -1.728,-1.488 -0.928,-0.432 -2.08,-0.432 -2.256,0 -3.472,1.616 -1.216,1.616 -1.216,4.608 0,1.584 0.272,2.72 0.272,1.12 0.8,1.856 0.528,0.72 1.296,1.056 0.768,0.336 1.744,0.336 z" />
      <path
         id="path59"
         style=""
         d="m 171.89964,15.655461 0,16.208 -2.848,0 0,-16.208 2.848,0 z m 0.608,-5.088 q 0,0.416 -0.176,0.784 -0.16,0.352 -0.448,0.64 -0.272,0.272 -0.656,0.432 -0.368,0.16 -0.784,0.16 -0.416,0 -0.784,-0.16 -0.352,-0.16 -0.624,-0.432 -0.272,-0.288 -0.432,-0.64 -0.16,-0.368 -0.16,-0.784 0,-0.416 0.16,-0.7840005 0.16,-0.384 0.432,-0.656 0.272,-0.288 0.624,-0.448 0.368,-0.16 0.784,-0.16 0.416,0 0.784,0.16 0.384,0.16 0.656,0.448 0.288,0.272 0.448,0.656 0.176,0.3680005 0.176,0.7840005 z" />
      <path
         id="path61"
         style=""
         d="m 179.52314,8.2954605 0,23.5680005 -2.848,0 0,-23.5680005 2.848,0 z" />
      <path
         id="path63"
         style=""
         d="m 187.08564,8.2954605 0,23.5680005 -2.848,0 0,-23.5680005 2.848,0 z" />
      <path
         id="path65"
         style=""
         d="m 198.53614,15.399461 q 1.776,0 3.2,0.592 1.424,0.592 2.432,1.68 1.008,1.088 1.536,2.64 0.544,1.536 0.544,3.44 0,1.92 -0.544,3.456 -0.528,1.536 -1.536,2.624 -1.008,1.088 -2.432,1.68 -1.424,0.576 -3.2,0.576 -1.792,0 -3.232,-0.576 -1.424,-0.592 -2.432,-1.68 -1.008,-1.088 -1.552,-2.624 -0.528,-1.536 -0.528,-3.456 0,-1.904 0.528,-3.44 0.544,-1.552 1.552,-2.64 1.008,-1.088 2.432,-1.68 1.44,-0.592 3.232,-0.592 z m 0,14.464 q 2.4,0 3.584,-1.6 1.184,-1.616 1.184,-4.496 0,-2.896 -1.184,-4.512 -1.184,-1.616 -3.584,-1.616 -1.216,0 -2.128,0.416 -0.896,0.416 -1.504,1.2 -0.592,0.784 -0.896,1.936 -0.288,1.136 -0.288,2.576 0,2.88 1.184,4.496 1.2,1.6 3.632,1.6 z" />
    </g>
    <g
       id="text2488"
       style="font-style:normal;font-variant:normal;font-weight:normal;font-stretch:normal;font-size:32px;line-height:125%;font-family:Lato;-inkscape-font-specification:'Bitstream Vera Sans';text-align:start;writing-mode:lr-tb;text-anchor:start;fill:#000000;fill-opacity:1;stroke:none">
      <path
         id="path69"
         style=""
         d="m 233.10476,394.2942 q 1.056,0 1.968,0.24 0.912,0.224 1.664,0.672 l 4.4,0 0,1.056 q 0,0.528 -0.672,0.672 l -1.84,0.256 q 0.544,1.04 0.544,2.32 0,1.184 -0.464,2.16 -0.448,0.96 -1.248,1.648 -0.8,0.688 -1.92,1.056 -1.12,0.368 -2.432,0.368 -1.152,0 -2.16,-0.272 -0.512,0.32 -0.784,0.688 -0.256,0.368 -0.256,0.72 0,0.576 0.464,0.88 0.48,0.288 1.248,0.416 0.768,0.128 1.744,0.16 0.992,0.032 2.016,0.112 1.04,0.064 2.016,0.24 0.992,0.176 1.76,0.576 0.768,0.4 1.232,1.104 0.48,0.704 0.48,1.824 0,1.04 -0.528,2.016 -0.512,0.976 -1.488,1.728 -0.976,0.768 -2.4,1.216 -1.408,0.464 -3.184,0.464 -1.776,0 -3.104,-0.352 -1.328,-0.352 -2.208,-0.944 -0.88,-0.592 -1.328,-1.376 -0.432,-0.768 -0.432,-1.616 0,-1.2 0.752,-2.032 0.752,-0.832 2.048,-1.328 -0.72,-0.32 -1.136,-0.848 -0.416,-0.544 -0.416,-1.456 0,-0.352 0.128,-0.72 0.128,-0.384 0.384,-0.752 0.272,-0.368 0.656,-0.704 0.384,-0.336 0.896,-0.592 -1.2,-0.672 -1.872,-1.792 -0.672,-1.12 -0.672,-2.592 0,-1.184 0.448,-2.144 0.464,-0.976 1.28,-1.648 0.816,-0.688 1.936,-1.056 1.136,-0.368 2.48,-0.368 z m 5.136,17.36 q 0,-0.592 -0.336,-0.96 -0.336,-0.368 -0.912,-0.576 -0.56,-0.208 -1.312,-0.288 -0.752,-0.096 -1.6,-0.144 -0.832,-0.048 -1.696,-0.096 -0.864,-0.048 -1.664,-0.16 -0.896,0.416 -1.472,1.04 -0.56,0.624 -0.56,1.488 0,0.544 0.272,1.008 0.288,0.48 0.864,0.816 0.576,0.352 1.44,0.544 0.88,0.208 2.064,0.208 1.152,0 2.064,-0.208 0.912,-0.208 1.536,-0.592 0.64,-0.384 0.976,-0.912 0.336,-0.528 0.336,-1.168 z m -5.136,-8.8 q 0.864,0 1.52,-0.24 0.656,-0.24 1.104,-0.672 0.448,-0.432 0.672,-1.024 0.224,-0.608 0.224,-1.328 0,-1.488 -0.912,-2.368 -0.896,-0.88 -2.608,-0.88 -1.728,0 -2.64,0.88 -0.896,0.88 -0.896,2.368 0,0.72 0.224,1.328 0.24,0.592 0.688,1.024 0.448,0.432 1.104,0.672 0.656,0.24 1.52,0.24 z" />
      <path
         id="path71"
         style=""
         d="m 247.08976,394.5662 0,16.208 -2.848,0 0,-16.208 2.848,0 z m 0.608,-5.088 q 0,0.416 -0.176,0.784 -0.16,0.352 -0.448,0.64 -0.272,0.272 -0.656,0.432 -0.368,0.16 -0.784,0.16 -0.416,0 -0.784,-0.16 -0.352,-0.16 -0.624,-0.432 -0.272,-0.288 -0.432,-0.64 -0.16,-0.368 -0.16,-0.784 0,-0.416 0.16,-0.784 0.16,-0.384 0.432,-0.656 0.272,-0.288 0.624,-0.448 0.368,-0.16 0.784,-0.16 0.416,0 0.784,0.16 0.384,0.16 0.656,0.448 0.288,0.272 0.448,0.656 0.176,0.368 0.176,0.784 z" />
      <path
         id="path73"
         style=""
         d="m 251.76926,410.7742 0,-16.208 1.632,0 q 0.464,0 0.64,0.176 0.176,0.176 0.24,0.608 l 0.176,2.464 q 0.768,-1.664 1.888,-2.592 1.136,-0.944 2.752,-0.944 0.512,0 0.976,0.112 0.48,0.112 0.848,0.352 l -0.208,2.128 q -0.096,0.4 -0.48,0.4 -0.224,0 -0.656,-0.096 -0.432,-0.096 -0.976,-0.096 -0.768,0 -1.376,0.24 -0.608,0.224 -1.088,0.672 -0.464,0.432 -0.832,1.072 -0.368,0.64 -0.672,1.472 l 0,10.24 -2.864,0 z" />
      <path
         id="path75"
         style=""
         d="m 273.44826,410.7742 q -0.416,0 -0.64,-0.128 -0.224,-0.144 -0.352,-0.544 l -0.32,-1.52 q -0.64,0.576 -1.264,1.04 -0.608,0.448 -1.28,0.768 -0.656,0.304 -1.424,0.464 -0.752,0.176 -1.68,0.176 -0.944,0 -1.776,-0.256 -0.832,-0.272 -1.456,-0.8 -0.608,-0.528 -0.976,-1.328 -0.352,-0.816 -0.352,-1.92 0,-0.96 0.528,-1.84 0.528,-0.896 1.712,-1.584 1.184,-0.688 3.088,-1.12 1.904,-0.448 4.672,-0.512 l 0,-1.264 q 0,-1.888 -0.816,-2.848 -0.816,-0.976 -2.384,-0.976 -1.056,0 -1.776,0.272 -0.704,0.256 -1.232,0.592 -0.512,0.32 -0.896,0.592 -0.368,0.256 -0.736,0.256 -0.288,0 -0.496,-0.144 -0.208,-0.16 -0.352,-0.384 l -0.512,-0.912 q 1.344,-1.296 2.896,-1.936 1.552,-0.64 3.44,-0.64 1.36,0 2.416,0.448 1.056,0.448 1.776,1.248 0.72,0.8 1.088,1.936 0.368,1.136 0.368,2.496 l 0,10.368 -1.264,0 z m -6.112,-1.744 q 0.752,0 1.376,-0.144 0.624,-0.16 1.168,-0.432 0.56,-0.288 1.056,-0.688 0.512,-0.416 0.992,-0.928 l 0,-3.36 q -1.968,0.064 -3.36,0.32 -1.376,0.24 -2.256,0.64 -0.864,0.4 -1.264,0.944 -0.384,0.544 -0.384,1.216 0,0.64 0.208,1.104 0.208,0.464 0.56,0.768 0.368,0.288 0.848,0.432 0.496,0.128 1.056,0.128 z" />
      <path
         id="path77"
         style=""
         d="m 279.82526,410.7742 0,-13.776 -1.792,-0.208 q -0.336,-0.08 -0.56,-0.24 -0.208,-0.176 -0.208,-0.496 l 0,-1.168 2.56,0 0,-1.328 q 0,-1.392 0.384,-2.464 0.4,-1.088 1.12,-1.824 0.736,-0.752 1.76,-1.136 1.024,-0.384 2.304,-0.384 1.088,0 2,0.32 l -0.064,1.44 q -0.032,0.384 -0.432,0.416 -0.384,0.032 -1.04,0.032 -0.736,0 -1.344,0.192 -0.592,0.176 -1.024,0.608 -0.432,0.432 -0.672,1.152 -0.224,0.704 -0.224,1.744 l 0,1.232 7.312,0 0,-1.744 q 0,-1.392 0.384,-2.464 0.4,-1.088 1.12,-1.824 0.736,-0.752 1.76,-1.136 1.024,-0.384 2.304,-0.384 1.072,0 2,0.32 l -0.064,1.424 q -0.032,0.384 -0.432,0.416 -0.384,0.032 -1.04,0.032 -0.736,0 -1.344,0.192 -0.592,0.192 -1.024,0.624 -0.432,0.432 -0.672,1.136 -0.224,0.704 -0.224,1.744 l 0,1.664 4.672,0 0,2.064 -4.576,0 0,13.824 -2.864,0 0,-13.824 -7.216,0 0,13.824 -2.864,0 z" />
      <path
         id="path79"
         style=""
         d="m 306.22176,394.3102 q 1.456,0 2.688,0.496 1.248,0.48 2.144,1.408 0.912,0.912 1.424,2.272 0.512,1.344 0.512,3.072 0,0.672 -0.144,0.896 -0.144,0.224 -0.544,0.224 l -10.832,0 q 0.032,1.536 0.416,2.672 0.384,1.136 1.056,1.904 0.672,0.752 1.6,1.136 0.928,0.368 2.08,0.368 1.072,0 1.84,-0.24 0.784,-0.256 1.344,-0.544 0.56,-0.288 0.928,-0.528 0.384,-0.256 0.656,-0.256 0.352,0 0.544,0.272 l 0.8,1.04 q -0.528,0.64 -1.264,1.12 -0.736,0.464 -1.584,0.768 -0.832,0.304 -1.728,0.448 -0.896,0.16 -1.776,0.16 -1.68,0 -3.104,-0.56 -1.408,-0.576 -2.448,-1.664 -1.024,-1.104 -1.6,-2.72 -0.576,-1.616 -0.576,-3.712 0,-1.696 0.512,-3.168 0.528,-1.472 1.504,-2.544 0.976,-1.088 2.384,-1.696 1.408,-0.624 3.168,-0.624 z m 0.064,2.096 q -2.064,0 -3.248,1.2 -1.184,1.184 -1.472,3.296 l 8.864,0 q 0,-0.992 -0.288,-1.808 -0.272,-0.832 -0.816,-1.424 -0.528,-0.608 -1.296,-0.928 -0.768,-0.336 -1.744,-0.336 z" />
    </g>
    <g
       id="text2492"
       style="font-style:normal;font-variant:normal;font-weight:normal;font-stretch:normal;font-size:32px;line-height:125%;font-family:Lato;-inkscape-font-specification:'Bitstream Vera Sans';text-align:start;writing-mode:lr-tb;text-anchor:start;fill:#000000;fill-opacity:1;stroke:none">
      <path
         id="path82"
         style=""
         d="m 312.06093,285.94501 0,-16.208 1.632,0 q 0.464,0 0.64,0.176 0.176,0.176 0.24,0.608 l 0.176,2.464 q 0.768,-1.664 1.888,-2.592 1.136,-0.944 2.752,-0.944 0.512,0 0.976,0.112 0.48,0.112 0.848,0.352 l -0.208,2.128 q -0.096,0.4 -0.48,0.4 -0.224,0 -0.656,-0.096 -0.432,-0.096 -0.976,-0.096 -0.768,0 -1.376,0.24 -0.608,0.224 -1.088,0.672 -0.464,0.432 -0.832,1.072 -0.368,0.64 -0.672,1.472 l 0,10.24 -2.864,0 z" />
      <path
         id="path84"
         style=""
         d="m 333.73993,285.94501 q -0.416,0 -0.64,-0.128 -0.224,-0.144 -0.352,-0.544 l -0.32,-1.52 q -0.64,0.576 -1.264,1.04 -0.608,0.448 -1.28,0.768 -0.656,0.304 -1.424,0.464 -0.752,0.176 -1.68,0.176 -0.944,0 -1.776,-0.256 -0.832,-0.272 -1.456,-0.8 -0.608,-0.528 -0.976,-1.328 -0.352,-0.816 -0.352,-1.92 0,-0.96 0.528,-1.84 0.528,-0.896 1.712,-1.584 1.184,-0.688 3.088,-1.12 1.904,-0.448 4.672,-0.512 l 0,-1.264 q 0,-1.888 -0.816,-2.848 -0.816,-0.976 -2.384,-0.976 -1.056,0 -1.776,0.272 -0.704,0.256 -1.232,0.592 -0.512,0.32 -0.896,0.592 -0.368,0.256 -0.736,0.256 -0.288,0 -0.496,-0.144 -0.208,-0.16 -0.352,-0.384 l -0.512,-0.912 q 1.344,-1.296 2.896,-1.936 1.552,-0.64 3.44,-0.64 1.36,0 2.416,0.448 1.056,0.448 1.776,1.248 0.72,0.8 1.088,1.936 0.368,1.136 0.368,2.496 l 0,10.368 -1.264,0 z m -6.112,-1.744 q 0.752,0 1.376,-0.144 0.624,-0.16 1.168,-0.432 0.56,-0.288 1.056,-0.688 0.512,-0.416 0.992,-0.928 l 0,-3.36 q -1.968,0.064 -3.36,0.32 -1.376,0.24 -2.256,0.64 -0.864,0.4 -1.264,0.944 -0.384,0.544 -0.384,1.216 0,0.64 0.208,1.104 0.208,0.464 0.56,0.768 0.368,0.288 0.848,0.432 0.496,0.128 1.056,0.128 z" />
      <path
         id="path86"
         style=""
         d="m 344.09943,286.20101 q -1.92,0 -2.96,-1.072 -1.024,-1.072 -1.024,-3.088 l 0,-9.92 -1.952,0 q -0.256,0 -0.432,-0.144 -0.176,-0.16 -0.176,-0.48 l 0,-1.136 2.656,-0.336 0.656,-5.008 q 0.048,-0.24 0.208,-0.384 0.176,-0.16 0.448,-0.16 l 1.44,0 0,5.584 4.688,0 0,2.064 -4.688,0 0,9.728 q 0,1.024 0.496,1.52 0.496,0.496 1.28,0.496 0.448,0 0.768,-0.112 0.336,-0.128 0.576,-0.272 0.24,-0.144 0.4,-0.256 0.176,-0.128 0.304,-0.128 0.224,0 0.4,0.272 l 0.832,1.36 q -0.736,0.688 -1.776,1.088 -1.04,0.384 -2.144,0.384 z" />
    </g>
    <g
       id="text2496"
       style="font-style:normal;font-variant:normal;font-weight:normal;font-stretch:normal;font-size:32px;line-height:125%;font-family:Lato;-inkscape-font-specification:'Bitstream Vera Sans';text-align:start;writing-mode:lr-tb;text-anchor:start;fill:#000000;fill-opacity:1;stroke:none">
      <path
         id="path89"
         style=""
         d="m 402.35884,157.90427 0,-23.568 2.864,0 0,9.536 q 1.04,-1.104 2.304,-1.76 1.264,-0.672 2.912,-0.672 1.328,0 2.336,0.448 1.024,0.432 1.696,1.248 0.688,0.8 1.04,1.936 0.352,1.136 0.352,2.512 l 0,10.32 -2.864,0 0,-10.32 q 0,-1.84 -0.848,-2.848 -0.832,-1.024 -2.544,-1.024 -1.28,0 -2.384,0.608 -1.088,0.608 -2,1.648 l 0,11.936 -2.864,0 z" />
      <path
         id="path91"
         style=""
         d="m 422.92184,141.69627 0,10.336 q 0,1.84 0.832,2.848 0.848,1.008 2.576,1.008 1.248,0 2.352,-0.592 1.104,-0.592 2.032,-1.648 l 0,-11.952 2.848,0 0,16.208 -1.696,0 q -0.608,0 -0.768,-0.592 l -0.224,-1.744 q -1.056,1.168 -2.368,1.888 -1.312,0.704 -3.008,0.704 -1.328,0 -2.352,-0.432 -1.008,-0.448 -1.696,-1.248 -0.688,-0.8 -1.04,-1.936 -0.336,-1.136 -0.336,-2.512 l 0,-10.336 2.848,0 z" />
      <path
         id="path93"
         style=""
         d="m 438.04634,157.90427 0,-16.208 1.712,0 q 0.608,0 0.752,0.592 l 0.208,1.664 q 0.896,-1.104 2.016,-1.808 1.12,-0.704 2.592,-0.704 1.632,0 2.64,0.912 1.024,0.912 1.472,2.464 0.352,-0.88 0.896,-1.52 0.56,-0.64 1.248,-1.056 0.688,-0.416 1.456,-0.608 0.784,-0.192 1.584,-0.192 1.28,0 2.272,0.416 1.008,0.4 1.696,1.184 0.704,0.784 1.072,1.936 0.368,1.136 0.368,2.608 l 0,10.32 -2.864,0 0,-10.32 q 0,-1.904 -0.832,-2.88 -0.832,-0.992 -2.4,-0.992 -0.704,0 -1.344,0.256 -0.624,0.24 -1.104,0.72 -0.48,0.48 -0.768,1.216 -0.272,0.72 -0.272,1.68 l 0,10.32 -2.864,0 0,-10.32 q 0,-1.952 -0.784,-2.912 -0.784,-0.96 -2.288,-0.96 -1.056,0 -1.952,0.576 -0.896,0.56 -1.648,1.536 l 0,12.08 -2.864,0 z" />
      <path
         id="path95"
         style=""
         d="m 474.66284,157.90427 q -0.416,0 -0.64,-0.128 -0.224,-0.144 -0.352,-0.544 l -0.32,-1.52 q -0.64,0.576 -1.264,1.04 -0.608,0.448 -1.28,0.768 -0.656,0.304 -1.424,0.464 -0.752,0.176 -1.68,0.176 -0.944,0 -1.776,-0.256 -0.832,-0.272 -1.456,-0.8 -0.608,-0.528 -0.976,-1.328 -0.352,-0.816 -0.352,-1.92 0,-0.96 0.528,-1.84 0.528,-0.896 1.712,-1.584 1.184,-0.688 3.088,-1.12 1.904,-0.448 4.672,-0.512 l 0,-1.264 q 0,-1.888 -0.816,-2.848 -0.816,-0.976 -2.384,-0.976 -1.056,0 -1.776,0.272 -0.704,0.256 -1.232,0.592 -0.512,0.32 -0.896,0.592 -0.368,0.256 -0.736,0.256 -0.288,0 -0.496,-0.144 -0.208,-0.16 -0.352,-0.384 l -0.512,-0.912 q 1.344,-1.296 2.896,-1.936 1.552,-0.64 3.44,-0.64 1.36,0 2.416,0.448 1.056,0.448 1.776,1.248 0.72,0.8 1.088,1.936 0.368,1.136 0.368,2.496 l 0,10.368 -1.264,0 z m -6.112,-1.744 q 0.752,0 1.376,-0.144 0.624,-0.16 1.168,-0.432 0.56,-0.288 1.056,-0.688 0.512,-0.416 0.992,-0.928 l 0,-3.36 q -1.968,0.064 -3.36,0.32 -1.376,0.24 -2.256,0.64 -0.864,0.4 -1.264,0.944 -0.384,0.544 -0.384,1.216 0,0.64 0.208,1.104 0.208,0.464 0.56,0.768 0.368,0.288 0.848,0.432 0.496,0.128 1.056,0.128 z" />
      <path
         id="path97"
         style=""
         d="m 480.23384,157.90427 0,-16.208 1.712,0 q 0.608,0 0.752,0.592 l 0.224,1.76 q 1.056,-1.168 2.368,-1.888 1.312,-0.72 3.024,-0.72 1.328,0 2.336,0.448 1.024,0.432 1.696,1.248 0.688,0.8 1.04,1.936 0.352,1.136 0.352,2.512 l 0,10.32 -2.864,0 0,-10.32 q 0,-1.84 -0.848,-2.848 -0.832,-1.024 -2.544,-1.024 -1.28,0 -2.384,0.608 -1.088,0.608 -2,1.648 l 0,11.936 -2.864,0 z" />
    </g>
  </g>
  <g
     id="text3270"
     style="font-style:normal;font-variant:normal;font-weight:bold;font-stretch:normal;font-size:48px;line-height:125%;font-family:Serif;-inkscape-font-specification:'Bitstream Charter Bold';text-align:start;writing-mode:lr-tb;text-anchor:start;fill:#000000;fill-opacity:1;stroke:none">
    <path
       id="path100"
       style="font-style:normal;font-variant:normal;font-weight:bold;font-stretch:normal;font-family:Lato;-inkscape-font-specification:'Lato Bold'"
       d="m 28.912,298.21194 q -1.176,0 -1.488,-1.08 l -0.504,-2.376 q -0.768,0.864 -1.608,1.56 -0.84,0.696 -1.824,1.2 -0.96,0.504 -2.088,0.768 -1.104,0.288 -2.4,0.288 -2.016,0 -3.696,-0.84 -1.68,-0.84 -2.904,-2.424 -1.2,-1.608 -1.872,-3.96 -0.648,-2.352 -0.648,-5.376 0,-2.736 0.744,-5.088 0.744,-2.352 2.136,-4.08 1.392,-1.728 3.336,-2.688 1.944,-0.984 4.368,-0.984 2.064,0 3.528,0.672 1.464,0.648 2.616,1.752 l 0,-13.008 5.928,0 0,35.664 -3.624,0 z m -7.896,-4.344 q 1.848,0 3.144,-0.768 1.296,-0.768 2.448,-2.184 l 0,-11.04 q -1.008,-1.224 -2.208,-1.728 -1.176,-0.504 -2.544,-0.504 -1.344,0 -2.424,0.504 -1.08,0.504 -1.848,1.536 -0.768,1.008 -1.176,2.592 -0.408,1.56 -0.408,3.696 0,2.16 0.336,3.672 0.36,1.488 1.008,2.448 0.648,0.936 1.584,1.368 0.936,0.408 2.088,0.408 z" />
    <path
       id="path102"
       style="font-style:normal;font-variant:normal;font-weight:bold;font-stretch:normal;font-family:Lato;-inkscape-font-specification:'Lato Bold'"
       d="m 54.53725,298.21194 q -0.84,0 -1.296,-0.24 -0.456,-0.264 -0.72,-1.032 l -0.528,-1.752 q -0.936,0.84 -1.824,1.488 -0.888,0.624 -1.848,1.056 -0.96,0.432 -2.064,0.648 -1.08,0.216 -2.4,0.216 -1.56,0 -2.88,-0.408 -1.32,-0.432 -2.28,-1.272 -0.96,-0.84 -1.488,-2.088 -0.528,-1.248 -0.528,-2.904 0,-1.392 0.72,-2.736 0.744,-1.368 2.448,-2.448 1.704,-1.104 4.536,-1.824 2.832,-0.72 7.056,-0.816 l 0,-1.44 q 0,-2.472 -1.056,-3.648 -1.056,-1.2 -3.048,-1.2 -1.44,0 -2.4,0.336 -0.936,0.336 -1.656,0.768 -0.72,0.408 -1.32,0.744 -0.576,0.336 -1.296,0.336 -0.624,0 -1.056,-0.312 -0.432,-0.336 -0.696,-0.768 l -1.056,-1.896 q 4.248,-3.888 10.224,-3.888 2.16,0 3.864,0.72 1.704,0.696 2.88,1.968 1.176,1.248 1.776,3 0.624,1.752 0.624,3.84 l 0,15.552 -2.688,0 z m -8.856,-3.696 q 1.824,0 3.144,-0.648 1.344,-0.672 2.616,-2.016 l 0,-4.152 q -2.592,0.12 -4.344,0.456 -1.728,0.312 -2.784,0.816 -1.056,0.504 -1.512,1.176 -0.456,0.672 -0.456,1.464 0,1.56 0.912,2.232 0.936,0.672 2.424,0.672 z" />
    <path
       id="path104"
       style="font-style:normal;font-variant:normal;font-weight:bold;font-stretch:normal;font-family:Lato;-inkscape-font-specification:'Lato Bold'"
       d="m 70.64125,298.59594 q -3.216,0 -4.944,-1.8 -1.704,-1.824 -1.704,-5.016 l 0,-13.752 -2.52,0 q -0.48,0 -0.816,-0.312 -0.336,-0.312 -0.336,-0.936 l 0,-2.352 3.96,-0.648 1.248,-6.72 q 0.12,-0.48 0.456,-0.744 0.336,-0.264 0.864,-0.264 l 3.072,0 0,7.752 6.576,0 0,4.224 -6.576,0 0,13.344 q 0,1.152 0.552,1.8 0.576,0.648 1.56,0.648 0.552,0 0.912,-0.12 0.384,-0.144 0.648,-0.288 0.288,-0.144 0.504,-0.264 0.216,-0.144 0.432,-0.144 0.264,0 0.432,0.144 0.168,0.12 0.36,0.384 l 1.776,2.88 q -1.296,1.08 -2.976,1.632 -1.68,0.552 -3.48,0.552 z" />
    <path
       id="path106"
       style="font-style:normal;font-variant:normal;font-weight:bold;font-stretch:normal;font-family:Lato;-inkscape-font-specification:'Lato Bold'"
       d="m 96.34975,298.21194 q -0.84,0 -1.296,-0.24 -0.456,-0.264 -0.72,-1.032 l -0.528,-1.752 q -0.936,0.84 -1.824,1.488 -0.888,0.624 -1.848,1.056 -0.96,0.432 -2.064,0.648 -1.08,0.216 -2.4,0.216 -1.56,0 -2.88,-0.408 -1.32,-0.432 -2.28,-1.272 -0.96,-0.84 -1.488,-2.088 -0.528,-1.248 -0.528,-2.904 0,-1.392 0.72,-2.736 0.744,-1.368 2.448,-2.448 1.704,-1.104 4.536,-1.824 2.832,-0.72 7.056,-0.816 l 0,-1.44 q 0,-2.472 -1.056,-3.648 -1.056,-1.2 -3.048,-1.2 -1.44,0 -2.4,0.336 -0.936,0.336 -1.656,0.768 -0.72,0.408 -1.32,0.744 -0.576,0.336 -1.296,0.336 -0.624,0 -1.056,-0.312 -0.432,-0.336 -0.696,-0.768 l -1.056,-1.896 q 4.248,-3.888 10.224,-3.888 2.16,0 3.864,0.72 1.704,0.696 2.88,1.968 1.176,1.248 1.776,3 0.624,1.752 0.624,3.84 l 0,15.552 -2.688,0 z m -8.856,-3.696 q 1.824,0 3.144,-0.648 1.344,-0.672 2.616,-2.016 l 0,-4.152 q -2.592,0.12 -4.344,0.456 -1.728,0.312 -2.784,0.816 -1.056,0.504 -1.512,1.176 -0.456,0.672 -0.456,1.464 0,1.56 0.912,2.232 0.936,0.672 2.424,0.672 z" />
  </g>
  <g
     id="text3274"
     style="font-style:normal;font-variant:normal;font-weight:normal;font-stretch:normal;font-size:40px;line-height:125%;font-family:Serif;-inkscape-font-specification:Serif;text-align:start;writing-mode:lr-tb;text-anchor:start;fill:#000000;fill-opacity:1;stroke:none">
    <path
       id="path109"
       style="font-style:normal;font-variant:normal;font-weight:normal;font-stretch:normal;font-family:Lato;-inkscape-font-specification:Lato"
       d="m 214.78995,225.3394 0,0 z m 3.1,-10.24 0,5.8 -0.32,3.1 q -0.1,0.64 -0.38,1 -0.26,0.34 -0.86,0.34 -0.54,0 -0.84,-0.34 -0.28,-0.36 -0.38,-1 l -0.32,-3.1 0,-5.8 3.1,0 z m 6.66,0 0,5.8 -0.32,3.1 q -0.1,0.64 -0.38,1 -0.26,0.34 -0.86,0.34 -0.54,0 -0.84,-0.34 -0.28,-0.36 -0.38,-1 l -0.32,-3.1 0,-5.8 3.1,0 z" />
    <path
       id="path111"
       style="font-style:normal;font-variant:normal;font-weight:normal;font-stretch:normal;font-family:Lato;-inkscape-font-specification:Lato"
       d="m 229.9137,250.6194 0,-27.12 2.14,0 q 0.76,0 0.94,0.74 l 0.3,2.4 q 1.3,-1.58 2.98,-2.54 1.68,-0.96 3.84,-0.96 1.76,0 3.18,0.68 1.42,0.66 2.42,1.98 1,1.3 1.54,3.24 0.54,1.94 0.54,4.46 0,2.24 -0.6,4.18 -0.6,1.92 -1.74,3.34 -1.12,1.4 -2.76,2.22 -1.62,0.8 -3.66,0.8 -1.86,0 -3.2,-0.62 -1.32,-0.62 -2.34,-1.76 l 0,8.96 -3.58,0 z m 9.04,-24.6 q -1.74,0 -3.06,0.8 -1.3,0.8 -2.4,2.26 l 0,9.8 q 0.96,1.32 2.12,1.86 1.18,0.54 2.62,0.54 2.84,0 4.36,-2.02 1.52,-2.02 1.52,-5.76 0,-1.98 -0.36,-3.4 -0.34,-1.42 -1,-2.32 -0.66,-0.92 -1.62,-1.34 -0.96,-0.42 -2.18,-0.42 z" />
    <path
       id="path113"
       style="font-style:normal;font-variant:normal;font-weight:normal;font-stretch:normal;font-family:Lato;-inkscape-font-specification:Lato"
       d="m 252.33558,243.7594 0,-29.46 3.58,0 0,11.92 q 1.3,-1.38 2.88,-2.2 1.58,-0.84 3.64,-0.84 1.66,0 2.92,0.56 1.28,0.54 2.12,1.56 0.86,1 1.3,2.42 0.44,1.42 0.44,3.14 l 0,12.9 -3.58,0 0,-12.9 q 0,-2.3 -1.06,-3.56 -1.04,-1.28 -3.18,-1.28 -1.6,0 -2.98,0.76 -1.36,0.76 -2.5,2.06 l 0,14.92 -3.58,0 z" />
    <path
       id="path115"
       style="font-style:normal;font-variant:normal;font-weight:normal;font-stretch:normal;font-family:Lato;-inkscape-font-specification:Lato"
       d="m 280.39058,249.7394 q -0.18,0.4 -0.46,0.64 -0.26,0.24 -0.82,0.24 l -2.64,0 3.7,-8.04 -8.36,-19.08 3.08,0 q 0.46,0 0.72,0.24 0.28,0.22 0.38,0.5 l 5.42,12.76 q 0.16,0.46 0.3,0.9 0.14,0.42 0.24,0.88 0.26,-0.9 0.6,-1.8 l 5.26,-12.74 q 0.12,-0.32 0.4,-0.52 0.3,-0.22 0.66,-0.22 l 2.82,0 -11.3,26.24 z" />
    <path
       id="path117"
       style="font-style:normal;font-variant:normal;font-weight:normal;font-stretch:normal;font-family:Lato;-inkscape-font-specification:Lato"
       d="m 298.51558,214.2994 0,29.46 -3.56,0 0,-29.46 3.56,0 z" />
    <path
       id="path119"
       style="font-style:normal;font-variant:normal;font-weight:normal;font-stretch:normal;font-family:Lato;-inkscape-font-specification:Lato"
       d="m 312.8287,223.1794 q 2.22,0 4,0.74 1.78,0.74 3.04,2.1 1.26,1.36 1.92,3.3 0.68,1.92 0.68,4.3 0,2.4 -0.68,4.32 -0.66,1.92 -1.92,3.28 -1.26,1.36 -3.04,2.1 -1.78,0.72 -4,0.72 -2.24,0 -4.04,-0.72 -1.78,-0.74 -3.04,-2.1 -1.26,-1.36 -1.94,-3.28 -0.66,-1.92 -0.66,-4.32 0,-2.38 0.66,-4.3 0.68,-1.94 1.94,-3.3 1.26,-1.36 3.04,-2.1 1.8,-0.74 4.04,-0.74 z m 0,18.08 q 3,0 4.48,-2 1.48,-2.02 1.48,-5.62 0,-3.62 -1.48,-5.64 -1.48,-2.02 -4.48,-2.02 -1.52,0 -2.66,0.52 -1.12,0.52 -1.88,1.5 -0.74,0.98 -1.12,2.42 -0.36,1.42 -0.36,3.22 0,3.6 1.48,5.62 1.5,2 4.54,2 z" />
    <path
       id="path121"
       style="font-style:normal;font-variant:normal;font-weight:normal;font-stretch:normal;font-family:Lato;-inkscape-font-specification:Lato"
       d="m 334.00495,223.1594 q 1.32,0 2.46,0.3 1.14,0.28 2.08,0.84 l 5.5,0 0,1.32 q 0,0.66 -0.84,0.84 l -2.3,0.32 q 0.68,1.3 0.68,2.9 0,1.48 -0.58,2.7 -0.56,1.2 -1.56,2.06 -1,0.86 -2.4,1.32 -1.4,0.46 -3.04,0.46 -1.44,0 -2.7,-0.34 -0.64,0.4 -0.98,0.86 -0.32,0.46 -0.32,0.9 0,0.72 0.58,1.1 0.6,0.36 1.56,0.52 0.96,0.16 2.18,0.2 1.24,0.04 2.52,0.14 1.3,0.08 2.52,0.3 1.24,0.22 2.2,0.72 0.96,0.5 1.54,1.38 0.6,0.88 0.6,2.28 0,1.3 -0.66,2.52 -0.64,1.22 -1.86,2.16 -1.22,0.96 -3,1.52 -1.76,0.58 -3.98,0.58 -2.22,0 -3.88,-0.44 -1.66,-0.44 -2.76,-1.18 -1.1,-0.74 -1.66,-1.72 -0.54,-0.96 -0.54,-2.02 0,-1.5 0.94,-2.54 0.94,-1.04 2.56,-1.66 -0.9,-0.4 -1.42,-1.06 -0.52,-0.68 -0.52,-1.82 0,-0.44 0.16,-0.9 0.16,-0.48 0.48,-0.94 0.34,-0.46 0.82,-0.88 0.48,-0.42 1.12,-0.74 -1.5,-0.84 -2.34,-2.24 -0.84,-1.4 -0.84,-3.24 0,-1.48 0.56,-2.68 0.58,-1.22 1.6,-2.06 1.02,-0.86 2.42,-1.32 1.42,-0.46 3.1,-0.46 z m 6.42,21.7 q 0,-0.74 -0.42,-1.2 -0.42,-0.46 -1.14,-0.72 -0.7,-0.26 -1.64,-0.36 -0.94,-0.12 -2,-0.18 -1.04,-0.06 -2.12,-0.12 -1.08,-0.06 -2.08,-0.2 -1.12,0.52 -1.84,1.3 -0.7,0.78 -0.7,1.86 0,0.68 0.34,1.26 0.36,0.6 1.08,1.02 0.72,0.44 1.8,0.68 1.1,0.26 2.58,0.26 1.44,0 2.58,-0.26 1.14,-0.26 1.92,-0.74 0.8,-0.48 1.22,-1.14 0.42,-0.66 0.42,-1.46 z m -6.42,-11 q 1.08,0 1.9,-0.3 0.82,-0.3 1.38,-0.84 0.56,-0.54 0.84,-1.28 0.28,-0.76 0.28,-1.66 0,-1.86 -1.14,-2.96 -1.12,-1.1 -3.26,-1.1 -2.16,0 -3.3,1.1 -1.12,1.1 -1.12,2.96 0,0.9 0.28,1.66 0.3,0.74 0.86,1.28 0.56,0.54 1.38,0.84 0.82,0.3 1.9,0.3 z" />
    <path
       id="path123"
       style="font-style:normal;font-variant:normal;font-weight:normal;font-stretch:normal;font-family:Lato;-inkscape-font-specification:Lato"
       d="m 355.7137,223.1794 q 1.82,0 3.36,0.62 1.56,0.6 2.68,1.76 1.14,1.14 1.78,2.84 0.64,1.68 0.64,3.84 0,0.84 -0.18,1.12 -0.18,0.28 -0.68,0.28 l -13.54,0 q 0.04,1.92 0.52,3.34 0.48,1.42 1.32,2.38 0.84,0.94 2,1.42 1.16,0.46 2.6,0.46 1.34,0 2.3,-0.3 0.98,-0.32 1.68,-0.68 0.7,-0.36 1.16,-0.66 0.48,-0.32 0.82,-0.32 0.44,0 0.68,0.34 l 1,1.3 q -0.66,0.8 -1.58,1.4 -0.92,0.58 -1.98,0.96 -1.04,0.38 -2.16,0.56 -1.12,0.2 -2.22,0.2 -2.1,0 -3.88,-0.7 -1.76,-0.72 -3.06,-2.08 -1.28,-1.38 -2,-3.4 -0.72,-2.02 -0.72,-4.64 0,-2.12 0.64,-3.96 0.66,-1.84 1.88,-3.18 1.22,-1.36 2.98,-2.12 1.76,-0.78 3.96,-0.78 z m 0.08,2.62 q -2.58,0 -4.06,1.5 -1.48,1.48 -1.84,4.12 l 11.08,0 q 0,-1.24 -0.36,-2.26 -0.34,-1.04 -1.02,-1.78 -0.66,-0.76 -1.62,-1.16 -0.96,-0.42 -2.18,-0.42 z" />
    <path
       id="path125"
       style="font-style:normal;font-variant:normal;font-weight:normal;font-stretch:normal;font-family:Lato;-inkscape-font-specification:Lato"
       d="m 368.50745,243.7594 0,-20.26 2.14,0 q 0.76,0 0.94,0.74 l 0.28,2.2 q 1.32,-1.46 2.96,-2.36 1.64,-0.9 3.78,-0.9 1.66,0 2.92,0.56 1.28,0.54 2.12,1.56 0.86,1 1.3,2.42 0.44,1.42 0.44,3.14 l 0,12.9 -3.58,0 0,-12.9 q 0,-2.3 -1.06,-3.56 -1.04,-1.28 -3.18,-1.28 -1.6,0 -2.98,0.76 -1.36,0.76 -2.5,2.06 l 0,14.92 -3.58,0 z" />
    <path
       id="path127"
       style="font-style:normal;font-variant:normal;font-weight:normal;font-stretch:normal;font-family:Lato;-inkscape-font-specification:Lato"
       d="m 399.1512,223.1794 q 1.82,0 3.36,0.62 1.56,0.6 2.68,1.76 1.14,1.14 1.78,2.84 0.64,1.68 0.64,3.84 0,0.84 -0.18,1.12 -0.18,0.28 -0.68,0.28 l -13.54,0 q 0.04,1.92 0.52,3.34 0.48,1.42 1.32,2.38 0.84,0.94 2,1.42 1.16,0.46 2.6,0.46 1.34,0 2.3,-0.3 0.98,-0.32 1.68,-0.68 0.7,-0.36 1.16,-0.66 0.48,-0.32 0.82,-0.32 0.44,0 0.68,0.34 l 1,1.3 q -0.66,0.8 -1.58,1.4 -0.92,0.58 -1.98,0.96 -1.04,0.38 -2.16,0.56 -1.12,0.2 -2.22,0.2 -2.1,0 -3.88,-0.7 -1.76,-0.72 -3.06,-2.08 -1.28,-1.38 -2,-3.4 -0.72,-2.02 -0.72,-4.64 0,-2.12 0.64,-3.96 0.66,-1.84 1.88,-3.18 1.22,-1.36 2.98,-2.12 1.76,-0.78 3.96,-0.78 z m 0.08,2.62 q -2.58,0 -4.06,1.5 -1.48,1.48 -1.84,4.12 l 11.08,0 q 0,-1.24 -0.36,-2.26 -0.34,-1.04 -1.02,-1.78 -0.66,-0.76 -1.62,-1.16 -0.96,-0.42 -2.18,-0.42 z" />
    <path
       id="path129"
       style="font-style:normal;font-variant:normal;font-weight:normal;font-stretch:normal;font-family:Lato;-inkscape-font-specification:Lato"
       d="m 409.75058,243.7594 0,0 z m 8.18,0.32 q -2.4,0 -3.7,-1.34 -1.28,-1.34 -1.28,-3.86 l 0,-12.4 -2.44,0 q -0.32,0 -0.54,-0.18 -0.22,-0.2 -0.22,-0.6 l 0,-1.42 3.32,-0.42 0.82,-6.26 q 0.06,-0.3 0.26,-0.48 0.22,-0.2 0.56,-0.2 l 1.8,0 0,6.98 14,0 0,19.86 -3.56,0 0,-17.28 -10.44,0 0,12.16 q 0,1.28 0.62,1.9 0.62,0.62 1.6,0.62 0.56,0 0.96,-0.14 0.42,-0.16 0.72,-0.34 0.3,-0.18 0.5,-0.32 0.22,-0.16 0.38,-0.16 0.28,0 0.5,0.34 l 1.04,1.7 q -0.92,0.86 -2.22,1.36 -1.3,0.48 -2.68,0.48 z m 13.46,-27.08 q 0,0.52 -0.22,0.98 -0.2,0.44 -0.56,0.78 -0.34,0.34 -0.8,0.54 -0.46,0.2 -0.98,0.2 -0.52,0 -0.98,-0.2 -0.44,-0.2 -0.78,-0.54 -0.34,-0.34 -0.54,-0.78 -0.2,-0.46 -0.2,-0.98 0,-0.52 0.2,-0.98 0.2,-0.48 0.54,-0.82 0.34,-0.36 0.78,-0.56 0.46,-0.2 0.98,-0.2 0.52,0 0.98,0.2 0.46,0.2 0.8,0.56 0.36,0.34 0.56,0.82 0.22,0.46 0.22,0.98 z" />
    <path
       id="path131"
       style="font-style:normal;font-variant:normal;font-weight:normal;font-stretch:normal;font-family:Lato;-inkscape-font-specification:Lato"
       d="m 450.41995,227.0994 q -0.16,0.22 -0.32,0.34 -0.16,0.12 -0.44,0.12 -0.3,0 -0.66,-0.24 -0.36,-0.26 -0.9,-0.56 -0.52,-0.3 -1.3,-0.54 -0.76,-0.26 -1.88,-0.26 -1.5,0 -2.64,0.54 -1.14,0.52 -1.92,1.52 -0.76,1 -1.16,2.42 -0.38,1.42 -0.38,3.18 0,1.84 0.42,3.28 0.42,1.42 1.18,2.4 0.78,0.96 1.86,1.48 1.1,0.5 2.46,0.5 1.3,0 2.14,-0.3 0.84,-0.32 1.38,-0.7 0.56,-0.38 0.92,-0.68 0.38,-0.32 0.74,-0.32 0.44,0 0.68,0.34 l 1,1.3 q -0.66,0.82 -1.5,1.4 -0.84,0.58 -1.82,0.98 -0.96,0.38 -2.02,0.56 -1.06,0.18 -2.16,0.18 -1.9,0 -3.54,-0.7 -1.62,-0.7 -2.82,-2.02 -1.2,-1.34 -1.88,-3.28 -0.68,-1.94 -0.68,-4.42 0,-2.26 0.62,-4.18 0.64,-1.92 1.84,-3.3 1.22,-1.4 2.98,-2.18 1.78,-0.78 4.08,-0.78 2.14,0 3.76,0.7 1.64,0.68 2.9,1.94 l -0.94,1.28 z" />
    <path
       id="path133"
       style="font-style:normal;font-variant:normal;font-weight:normal;font-stretch:normal;font-family:Lato;-inkscape-font-specification:Lato"
       d="m 467.18245,226.8394 q -0.24,0.44 -0.74,0.44 -0.3,0 -0.68,-0.22 -0.38,-0.22 -0.94,-0.48 -0.54,-0.28 -1.3,-0.5 -0.76,-0.24 -1.8,-0.24 -0.9,0 -1.62,0.24 -0.72,0.22 -1.24,0.62 -0.5,0.4 -0.78,0.94 -0.26,0.52 -0.26,1.14 0,0.78 0.44,1.3 0.46,0.52 1.2,0.9 0.74,0.38 1.68,0.68 0.94,0.28 1.92,0.62 1,0.32 1.94,0.72 0.94,0.4 1.68,1 0.74,0.6 1.18,1.48 0.46,0.86 0.46,2.08 0,1.4 -0.5,2.6 -0.5,1.18 -1.48,2.06 -0.98,0.86 -2.4,1.36 -1.42,0.5 -3.28,0.5 -2.12,0 -3.84,-0.68 -1.72,-0.7 -2.92,-1.78 l 0.84,-1.36 q 0.16,-0.26 0.38,-0.4 0.22,-0.14 0.56,-0.14 0.36,0 0.76,0.28 0.4,0.28 0.96,0.62 0.58,0.34 1.4,0.62 0.82,0.28 2.04,0.28 1.04,0 1.82,-0.26 0.78,-0.28 1.3,-0.74 0.52,-0.46 0.76,-1.06 0.26,-0.6 0.26,-1.28 0,-0.84 -0.46,-1.38 -0.44,-0.56 -1.18,-0.94 -0.74,-0.4 -1.7,-0.68 -0.94,-0.3 -1.94,-0.62 -0.98,-0.32 -1.94,-0.72 -0.94,-0.42 -1.68,-1.04 -0.74,-0.62 -1.2,-1.52 -0.44,-0.92 -0.44,-2.22 0,-1.16 0.48,-2.22 0.48,-1.08 1.4,-1.88 0.92,-0.82 2.26,-1.3 1.34,-0.48 3.06,-0.48 2,0 3.58,0.64 1.6,0.62 2.76,1.72 l -0.8,1.3 z" />
    <path
       id="path135"
       style="font-style:normal;font-variant:normal;font-weight:normal;font-stretch:normal;font-family:Lato;-inkscape-font-specification:Lato"
       d="m 472.4462,225.3394 0,0 z m 3.1,-10.24 0,5.8 -0.32,3.1 q -0.1,0.64 -0.38,1 -0.26,0.34 -0.86,0.34 -0.54,0 -0.84,-0.34 -0.28,-0.36 -0.38,-1 l -0.32,-3.1 0,-5.8 3.1,0 z m 6.66,0 0,5.8 -0.32,3.1 q -0.1,0.64 -0.38,1 -0.26,0.34 -0.86,0.34 -0.54,0 -0.84,-0.34 -0.28,-0.36 -0.38,-1 l -0.32,-3.1 0,-5.8 3.1,0 z" />
  </g>
  <path
     id="path3302"
     d="m 168.85495,285.27597 c 356.9646,0 356.9646,0 356.9646,0"
     style="fill:none;stroke:#000000;stroke-width:4.49696064;stroke-linecap:butt;stroke-linejoin:miter;stroke-miterlimit:4;stroke-opacity:1;stroke-dasharray:none;marker-end:url(#Arrow1Mend)" />
  <g
     id="text2416"
     style="font-style:normal;font-variant:normal;font-weight:normal;font-stretch:normal;font-size:40px;line-height:125%;font-family:Serif;-inkscape-font-specification:Serif;text-align:start;writing-mode:lr-tb;text-anchor:start;fill:#000000;fill-opacity:1;stroke:none">
    <path
       id="path138"
       style="font-style:normal;font-variant:normal;font-weight:normal;font-stretch:normal;font-family:Lato;-inkscape-font-specification:Lato"
       d="m 732.02462,16.620001 0,0 z m 3.1,-10.2400001 0,5.8000001 -0.32,3.1 q -0.1,0.64 -0.38,1 -0.26,0.34 -0.86,0.34 -0.54,0 -0.84,-0.34 -0.28,-0.36 -0.38,-1 l -0.32,-3.1 0,-5.8000001 3.1,0 z m 6.66,0 0,5.8000001 -0.32,3.1 q -0.1,0.64 -0.38,1 -0.26,0.34 -0.86,0.34 -0.54,0 -0.84,-0.34 -0.28,-0.36 -0.38,-1 l -0.32,-3.1 0,-5.8000001 3.1,0 z" />
    <path
       id="path140"
       style="font-style:normal;font-variant:normal;font-weight:normal;font-stretch:normal;font-family:Lato;-inkscape-font-specification:Lato"
       d="m 753.36837,35.360001 q -2.4,0 -3.7,-1.34 -1.28,-1.34 -1.28,-3.86 l 0,-12.4 -2.44,0 q -0.32,0 -0.54,-0.18 -0.22,-0.2 -0.22,-0.6 l 0,-1.42 3.32,-0.42 0.82,-6.2600001 q 0.06,-0.3 0.26,-0.48 0.22,-0.2 0.56,-0.2 l 1.8,0 0,6.9800001 5.86,0 0,2.58 -5.86,0 0,12.16 q 0,1.28 0.62,1.9 0.62,0.62 1.6,0.62 0.56,0 0.96,-0.14 0.42,-0.16 0.72,-0.34 0.3,-0.18 0.5,-0.32 0.22,-0.16 0.38,-0.16 0.28,0 0.5,0.34 l 1.04,1.7 q -0.92,0.86 -2.22,1.36 -1.3,0.48 -2.68,0.48 z" />
    <path
       id="path142"
       style="font-style:normal;font-variant:normal;font-weight:normal;font-stretch:normal;font-family:Lato;-inkscape-font-specification:Lato"
       d="m 774.40337,35.040001 q -0.52,0 -0.8,-0.16 -0.28,-0.18 -0.44,-0.68 l -0.4,-1.9 q -0.8,0.72 -1.58,1.3 -0.76,0.56 -1.6,0.96 -0.82,0.38 -1.78,0.58 -0.94,0.22 -2.1,0.22 -1.18,0 -2.22,-0.32 -1.04,-0.34 -1.82,-1 -0.76,-0.66 -1.22,-1.66 -0.44,-1.02 -0.44,-2.4 0,-1.2 0.66,-2.3 0.66,-1.12 2.14,-1.98 1.48,-0.86 3.86,-1.4 2.38,-0.56 5.84,-0.64 l 0,-1.58 q 0,-2.36 -1.02,-3.56 -1.02,-1.22 -2.98,-1.22 -1.32,0 -2.22,0.34 -0.88,0.32 -1.54,0.74 -0.64,0.4 -1.12,0.74 -0.46,0.32 -0.92,0.32 -0.36,0 -0.62,-0.18 -0.26,-0.2 -0.44,-0.48 l -0.64,-1.14 q 1.68,-1.62 3.62,-2.42 1.94,-0.8 4.3,-0.8 1.7,0 3.02,0.56 1.32,0.56 2.22,1.56 0.9,1 1.36,2.42 0.46,1.42 0.46,3.12 l 0,12.96 -1.58,0 z m -7.64,-2.18 q 0.94,0 1.72,-0.18 0.78,-0.2 1.46,-0.54 0.7,-0.36 1.32,-0.86 0.64,-0.52 1.24,-1.16 l 0,-4.2 q -2.46,0.08 -4.2,0.4 -1.72,0.3 -2.82,0.8 -1.08,0.5 -1.58,1.18 -0.48,0.68 -0.48,1.52 0,0.8 0.26,1.38 0.26,0.58 0.7,0.96 0.46,0.36 1.06,0.54 0.62,0.16 1.32,0.16 z" />
    <path
       id="path144"
       style="font-style:normal;font-variant:normal;font-weight:normal;font-stretch:normal;font-family:Lato;-inkscape-font-specification:Lato"
       d="m 786.10712,24.660001 -6.82,-9.88 3.42,0 q 0.44,0 0.64,0.14 0.2,0.14 0.36,0.4 l 4.96,7.6 q 0.18,-0.56 0.52,-1.12 l 4.36,-6.4 q 0.18,-0.28 0.38,-0.44 0.22,-0.18 0.52,-0.18 l 3.28,0 -6.82,9.68 7.1,10.58 -3.42,0 q -0.44,0 -0.7,-0.22 -0.24,-0.24 -0.4,-0.52 l -5.1,-7.94 q -0.14,0.58 -0.42,1.04 l -4.72,6.9 q -0.2,0.28 -0.44,0.52 -0.22,0.22 -0.62,0.22 l -3.18,0 7.1,-10.38 z" />
    <path
       id="path146"
       style="font-style:normal;font-variant:normal;font-weight:normal;font-stretch:normal;font-family:Lato;-inkscape-font-specification:Lato"
       d="m 814.16899,35.040001 q -0.52,0 -0.8,-0.16 -0.28,-0.18 -0.44,-0.68 l -0.4,-1.9 q -0.8,0.72 -1.58,1.3 -0.76,0.56 -1.6,0.96 -0.82,0.38 -1.78,0.58 -0.94,0.22 -2.1,0.22 -1.18,0 -2.22,-0.32 -1.04,-0.34 -1.82,-1 -0.76,-0.66 -1.22,-1.66 -0.44,-1.02 -0.44,-2.4 0,-1.2 0.66,-2.3 0.66,-1.12 2.14,-1.98 1.48,-0.86 3.86,-1.4 2.38,-0.56 5.84,-0.64 l 0,-1.58 q 0,-2.36 -1.02,-3.56 -1.02,-1.22 -2.98,-1.22 -1.32,0 -2.22,0.34 -0.88,0.32 -1.54,0.74 -0.64,0.4 -1.12,0.74 -0.46,0.32 -0.92,0.32 -0.36,0 -0.62,-0.18 -0.26,-0.2 -0.44,-0.48 l -0.64,-1.14 q 1.68,-1.62 3.62,-2.42 1.94,-0.8 4.3,-0.8 1.7,0 3.02,0.56 1.32,0.56 2.22,1.56 0.9,1 1.36,2.42 0.46,1.42 0.46,3.12 l 0,12.96 -1.58,0 z m -7.64,-2.18 q 0.94,0 1.72,-0.18 0.78,-0.2 1.46,-0.54 0.7,-0.36 1.32,-0.86 0.64,-0.52 1.24,-1.16 l 0,-4.2 q -2.46,0.08 -4.2,0.4 -1.72,0.3 -2.82,0.8 -1.08,0.5 -1.58,1.18 -0.48,0.68 -0.48,1.52 0,0.8 0.26,1.38 0.26,0.58 0.7,0.96 0.46,0.36 1.06,0.54 0.62,0.16 1.32,0.16 z" />
    <path
       id="path148"
       style="font-style:normal;font-variant:normal;font-weight:normal;font-stretch:normal;font-family:Lato;-inkscape-font-specification:Lato"
       d="m 820.22774,16.620001 0,0 z m 3.1,-10.2400001 0,5.8000001 -0.32,3.1 q -0.1,0.64 -0.38,1 -0.26,0.34 -0.86,0.34 -0.54,0 -0.84,-0.34 -0.28,-0.36 -0.38,-1 l -0.32,-3.1 0,-5.8000001 3.1,0 z m 6.66,0 0,5.8000001 -0.32,3.1 q -0.1,0.64 -0.38,1 -0.26,0.34 -0.86,0.34 -0.54,0 -0.84,-0.34 -0.28,-0.36 -0.38,-1 l -0.32,-3.1 0,-5.8000001 3.1,0 z" />
  </g>
  <path
     id="path2420"
     d="M 766.52962,50.471555 C 737.77806,112.76661 737.77806,112.76661 737.77806,112.76661"
     style="fill:none;stroke:#000000;stroke-width:1px;stroke-linecap:butt;stroke-linejoin:miter;stroke-opacity:1;marker-start:none;marker-end:none" />
  <path
     id="path2422"
     d="M 795.28118,50.471555 C 939.03899,207.00784 939.03899,207.00784 939.03899,207.00784"
     style="fill:none;stroke:#000000;stroke-width:1px;stroke-linecap:butt;stroke-linejoin:miter;stroke-opacity:1;marker-start:none;marker-end:none" />
</svg>
