<?xml version="1.0" encoding="UTF-8" standalone="no"?>
<svg
   xmlns:dc="http://purl.org/dc/elements/1.1/"
   xmlns:cc="http://creativecommons.org/ns#"
   xmlns:rdf="http://www.w3.org/1999/02/22-rdf-syntax-ns#"
   xmlns:svg="http://www.w3.org/2000/svg"
   xmlns="http://www.w3.org/2000/svg"
   id="svg2"
   viewBox="0 0 1014.431 449.84998"
   height="449.84998"
   width="1014.431"
   y="0px"
   x="0px"
   version="1.1">
  <metadata
     id="metadata73">
    <rdf:RDF>
      <cc:Work
         rdf:about="">
        <dc:format>image/svg+xml</dc:format>
        <dc:type
           rdf:resource="http://purl.org/dc/dcmitype/StillImage" />
      </cc:Work>
    </rdf:RDF>
  </metadata>
  <defs
     id="defs71">
    <marker
       style="overflow:visible"
       id="Arrow1Mend"
       refX="0"
       refY="0"
       orient="auto">
      <path
         transform="matrix(-0.4,0,0,-0.4,-4,0)"
         style="fill-rule:evenodd;stroke:#000000;stroke-width:1pt;marker-start:none"
         d="M 0,0 5,-5 -12.5,0 5,5 0,0 z"
         id="path3316" />
    </marker>
    <marker
       style="overflow:visible"
       id="Arrow1Lend"
       refX="0"
       refY="0"
       orient="auto">
      <path
         transform="matrix(-0.8,0,0,-0.8,-10,0)"
         style="fill-rule:evenodd;stroke:#000000;stroke-width:1pt;marker-start:none"
         d="M 0,0 5,-5 -12.5,0 5,5 0,0 z"
         id="path3310" />
    </marker>
  </defs>
  <title
     id="title4" />
  <desc
     id="desc6">Creator: FreeHEP Graphics2D Driver Producer: org.freehep.graphicsio.svg.SVGGraphics2D Revision: 12753  Source:  Date: Tuesday, February 17, 2009 4:12:33 PM PST</desc>
  <g
     transform="matrix(0.4746596,0,0,0.4746596,-42.597041,-160.37458)"
     id="g62"
     style="fill:none;stroke:#2d3680;stroke-width:10;stroke-linecap:round;stroke-linejoin:round;stroke-miterlimit:10;stroke-dasharray:none;stroke-dashoffset:0;stroke-opacity:0.50196078">
    <path
       style="stroke-width:10"
       d=""
       id="path64" />
  </g>
  <g
     transform="matrix(0.4746596,0,0,0.4746596,-42.597041,-160.37458)"
     id="g66"
     style="fill:#2d3680;fill-opacity:0.50196078;fill-rule:nonzero;stroke:none">
    <path
       d=""
       id="path68" />
  </g>
  <!-- default stroke -->
  <g
     transform="matrix(0.8236951,0,0,0.8236951,595.0855,106.01456)"
     id="g3278">
    <g
       style="fill:none;stroke:#000000;stroke-width:10.63498974;stroke-linecap:butt;stroke-linejoin:miter;stroke-miterlimit:10;stroke-dasharray:none;stroke-dashoffset:0;stroke-opacity:1"
       id="g10"
       transform="matrix(0.4746596,0,0,0.4746596,1.5760211,7.871897)">
      <path
         id="path12"
         d="m 286.10561,634.5 -271.947194,0 0,-300"
         style="stroke-width:10.63498974;stroke-miterlimit:10;stroke-dasharray:none" />
    </g>
    <g
       style="fill:none;stroke:#000000;stroke-width:10.63498974;stroke-linecap:butt;stroke-linejoin:miter;stroke-miterlimit:10;stroke-dasharray:none;stroke-dashoffset:0;stroke-opacity:1"
       id="g14"
       transform="matrix(0.4746596,0,0,0.4746596,1.5760211,7.871897)">
      <path
         id="path16"
         d="m 150.13201,34.5 -135.973594,0 0,300"
         style="stroke-width:10.63498974;stroke-miterlimit:10;stroke-dasharray:none" />
    </g>
    <g
       style="fill:none;stroke:#000000;stroke-width:10.63498974;stroke-linecap:butt;stroke-linejoin:miter;stroke-miterlimit:10;stroke-dasharray:none;stroke-dashoffset:0;stroke-opacity:1"
       id="g18"
       transform="matrix(0.4746596,0,0,0.4746596,1.5760211,7.871897)">
      <path
         id="path20"
         d="m 6,334.5 8.158416,0"
         style="stroke-width:10.63498974;stroke-miterlimit:10;stroke-dasharray:none" />
    </g>
    <g
       style="fill:none;stroke:#000000;stroke-width:10.63498974;stroke-linecap:butt;stroke-linejoin:miter;stroke-miterlimit:10;stroke-dasharray:none;stroke-dashoffset:0;stroke-opacity:1"
       id="g22"
       transform="matrix(0.4746596,0,0,0.4746596,1.5760211,7.871897)">
      <path
         id="path24"
         d="m 558.0528,434.5 -271.94719,0 0,200"
         style="stroke-width:10.63498974;stroke-miterlimit:10;stroke-dasharray:none" />
    </g>
    <g
       style="fill:none;stroke:#000000;stroke-width:10.63498974;stroke-linecap:butt;stroke-linejoin:miter;stroke-miterlimit:10;stroke-dasharray:none;stroke-dashoffset:0;stroke-opacity:1"
       id="g26"
       transform="matrix(0.4746596,0,0,0.4746596,1.5760211,7.871897)">
      <path
         id="path28"
         d="m 449.27393,834.5 -163.16832,0 0,-200"
         style="stroke-width:10.63498974;stroke-miterlimit:10;stroke-dasharray:none" />
    </g>
    <g
       style="fill:none;stroke:#000000;stroke-width:10.63498974;stroke-linecap:butt;stroke-linejoin:miter;stroke-miterlimit:10;stroke-dasharray:none;stroke-dashoffset:0;stroke-opacity:1"
       id="g30"
       transform="matrix(0.4746596,0,0,0.4746596,1.5760211,7.871897)">
      <path
         id="path32"
         d="m 639.63695,567.83335 -81.58415,0 0,-133.33335"
         style="stroke-width:10.63498974;stroke-miterlimit:10;stroke-dasharray:none" />
    </g>
    <g
       style="fill:none;stroke:#000000;stroke-width:10.63498974;stroke-linecap:butt;stroke-linejoin:miter;stroke-miterlimit:10;stroke-dasharray:none;stroke-dashoffset:0;stroke-opacity:1"
       id="g34"
       transform="matrix(0.4746596,0,0,0.4746596,1.5760211,7.871897)">
      <path
         id="path36"
         d="m 830,301.16667 -271.9472,0 0,133.33333"
         style="stroke-width:10.63498974;stroke-miterlimit:10;stroke-dasharray:none" />
    </g>
    <g
       id="text2484"
       style="font-style:normal;font-variant:normal;font-weight:normal;font-stretch:normal;font-size:32px;line-height:125%;font-family:Lato;-inkscape-font-specification:'Bitstream Vera Sans';text-align:start;writing-mode:lr-tb;text-anchor:start;fill:#000000;fill-opacity:1;stroke:none">
      <path
         id="path75"
         style=""
         d="m 91.570643,31.863461 q -0.416,0 -0.64,-0.128 -0.224,-0.144 -0.352,-0.544 l -0.32,-1.52 q -0.64,0.576 -1.264,1.04 -0.608,0.448 -1.28,0.768 -0.656,0.304 -1.424,0.464 -0.752,0.176 -1.68,0.176 -0.944,0 -1.776,-0.256 -0.832,-0.272 -1.456,-0.8 -0.608,-0.528 -0.976,-1.328 -0.352,-0.816 -0.352,-1.92 0,-0.96 0.528,-1.84 0.528,-0.896 1.712,-1.584 1.184,-0.688 3.088,-1.12 1.904,-0.448 4.672,-0.512 l 0,-1.264 q 0,-1.888 -0.816,-2.848 -0.816,-0.976 -2.384,-0.976 -1.056,0 -1.776,0.272 -0.704,0.256 -1.232,0.592 -0.512,0.32 -0.896,0.592 -0.368,0.256 -0.736,0.256 -0.288,0 -0.496,-0.144 -0.208,-0.16 -0.352,-0.384 l -0.512,-0.912 q 1.344,-1.296 2.896,-1.936 1.552,-0.64 3.44,-0.64 1.36,0 2.416,0.448 1.056,0.448 1.776,1.248 0.72,0.8 1.088,1.936 0.368,1.136 0.368,2.496 l 0,10.368 -1.264,0 z m -6.112,-1.744 q 0.752,0 1.376,-0.144 0.624,-0.16 1.168,-0.432 0.56,-0.288 1.056,-0.688 0.512,-0.416 0.992,-0.928 l 0,-3.36 q -1.968,0.064 -3.36,0.32 -1.376,0.24 -2.256,0.64 -0.864,0.4 -1.264,0.944 -0.384,0.544 -0.384,1.216 0,0.64 0.208,1.104 0.208,0.464 0.56,0.768 0.368,0.288 0.848,0.432 0.496,0.128 1.056,0.128 z" />
      <path
         id="path77"
         style=""
         d="m 97.141643,31.863461 0,-16.208 1.632,0 q 0.464,0 0.64,0.176 0.176,0.176 0.24,0.608 l 0.176,2.464 q 0.767997,-1.664 1.887997,-2.592 1.136,-0.944 2.752,-0.944 0.512,0 0.976,0.112 0.48,0.112 0.848,0.352 l -0.208,2.128 q -0.096,0.4 -0.48,0.4 -0.224,0 -0.656,-0.096 -0.432,-0.096 -0.976,-0.096 -0.768,0 -1.376,0.24 -0.608,0.224 -1.088,0.672 -0.464,0.432 -0.832,1.072 -0.368,0.64 -0.672,1.472 l 0,10.24 -2.863997,0 z" />
      <path
         id="path79"
         style=""
         d="m 108.76664,31.863461 0,-16.208 1.712,0 q 0.608,0 0.752,0.592 l 0.208,1.664 q 0.896,-1.104 2.016,-1.808 1.12,-0.704 2.592,-0.704 1.632,0 2.64,0.912 1.024,0.912 1.472,2.464 0.352,-0.88 0.896,-1.52 0.56,-0.64 1.248,-1.056 0.688,-0.416 1.456,-0.608 0.784,-0.192 1.584,-0.192 1.28,0 2.272,0.416 1.008,0.4 1.696,1.184 0.704,0.784 1.072,1.936 0.368,1.136 0.368,2.608 l 0,10.32 -2.864,0 0,-10.32 q 0,-1.904 -0.832,-2.88 -0.832,-0.992 -2.4,-0.992 -0.704,0 -1.344,0.256 -0.624,0.24 -1.104,0.72 -0.48,0.48 -0.768,1.216 -0.272,0.72 -0.272,1.68 l 0,10.32 -2.864,0 0,-10.32 q 0,-1.952 -0.784,-2.912 -0.784,-0.96 -2.288,-0.96 -1.056,0 -1.952,0.576 -0.896,0.56 -1.648,1.536 l 0,12.08 -2.864,0 z" />
      <path
         id="path81"
         style=""
         d="m 145.38314,31.863461 q -0.416,0 -0.64,-0.128 -0.224,-0.144 -0.352,-0.544 l -0.32,-1.52 q -0.64,0.576 -1.264,1.04 -0.608,0.448 -1.28,0.768 -0.656,0.304 -1.424,0.464 -0.752,0.176 -1.68,0.176 -0.944,0 -1.776,-0.256 -0.832,-0.272 -1.456,-0.8 -0.608,-0.528 -0.976,-1.328 -0.352,-0.816 -0.352,-1.92 0,-0.96 0.528,-1.84 0.528,-0.896 1.712,-1.584 1.184,-0.688 3.088,-1.12 1.904,-0.448 4.672,-0.512 l 0,-1.264 q 0,-1.888 -0.816,-2.848 -0.816,-0.976 -2.384,-0.976 -1.056,0 -1.776,0.272 -0.704,0.256 -1.232,0.592 -0.512,0.32 -0.896,0.592 -0.368,0.256 -0.736,0.256 -0.288,0 -0.496,-0.144 -0.208,-0.16 -0.352,-0.384 l -0.512,-0.912 q 1.344,-1.296 2.896,-1.936 1.552,-0.64 3.44,-0.64 1.36,0 2.416,0.448 1.056,0.448 1.776,1.248 0.72,0.8 1.088,1.936 0.368,1.136 0.368,2.496 l 0,10.368 -1.264,0 z m -6.112,-1.744 q 0.752,0 1.376,-0.144 0.624,-0.16 1.168,-0.432 0.56,-0.288 1.056,-0.688 0.512,-0.416 0.992,-0.928 l 0,-3.36 q -1.968,0.064 -3.36,0.32 -1.376,0.24 -2.256,0.64 -0.864,0.4 -1.264,0.944 -0.384,0.544 -0.384,1.216 0,0.64 0.208,1.104 0.208,0.464 0.56,0.768 0.368,0.288 0.848,0.432 0.496,0.128 1.056,0.128 z" />
      <path
         id="path83"
         style=""
         d="m 162.66614,31.863461 q -0.608,0 -0.768,-0.592 l -0.256,-1.968 q -1.04,1.264 -2.384,2.032 -1.328,0.752 -3.056,0.752 -1.392,0 -2.528,-0.528 -1.136,-0.544 -1.936,-1.584 -0.8,-1.04 -1.232,-2.592 -0.432,-1.552 -0.432,-3.568 0,-1.792 0.48,-3.328 0.48,-1.552 1.376,-2.688 0.896,-1.136 2.192,-1.776 1.312,-0.656 2.944,-0.656 1.488,0 2.544,0.512 1.072,0.496 1.904,1.408 l 0,-8.9920005 2.848,0 0,23.5680005 -1.696,0 z m -5.536,-2.08 q 1.408,0 2.448,-0.64 1.056,-0.64 1.936,-1.808 l 0,-7.824 q -0.8,-1.056 -1.728,-1.488 -0.928,-0.432 -2.08,-0.432 -2.256,0 -3.472,1.616 -1.216,1.616 -1.216,4.608 0,1.584 0.272,2.72 0.272,1.12 0.8,1.856 0.528,0.72 1.296,1.056 0.768,0.336 1.744,0.336 z" />
      <path
         id="path85"
         style=""
         d="m 171.89964,15.655461 0,16.208 -2.848,0 0,-16.208 2.848,0 z m 0.608,-5.088 q 0,0.416 -0.176,0.784 -0.16,0.352 -0.448,0.64 -0.272,0.272 -0.656,0.432 -0.368,0.16 -0.784,0.16 -0.416,0 -0.784,-0.16 -0.352,-0.16 -0.624,-0.432 -0.272,-0.288 -0.432,-0.64 -0.16,-0.368 -0.16,-0.784 0,-0.416 0.16,-0.7840005 0.16,-0.384 0.432,-0.656 0.272,-0.288 0.624,-0.448 0.368,-0.16 0.784,-0.16 0.416,0 0.784,0.16 0.384,0.16 0.656,0.448 0.288,0.272 0.448,0.656 0.176,0.3680005 0.176,0.7840005 z" />
      <path
         id="path87"
         style=""
         d="m 179.52314,8.2954605 0,23.5680005 -2.848,0 0,-23.5680005 2.848,0 z" />
      <path
         id="path89"
         style=""
         d="m 187.08564,8.2954605 0,23.5680005 -2.848,0 0,-23.5680005 2.848,0 z" />
      <path
         id="path91"
         style=""
         d="m 198.53614,15.399461 q 1.776,0 3.2,0.592 1.424,0.592 2.432,1.68 1.008,1.088 1.536,2.64 0.544,1.536 0.544,3.44 0,1.92 -0.544,3.456 -0.528,1.536 -1.536,2.624 -1.008,1.088 -2.432,1.68 -1.424,0.576 -3.2,0.576 -1.792,0 -3.232,-0.576 -1.424,-0.592 -2.432,-1.68 -1.008,-1.088 -1.552,-2.624 -0.528,-1.536 -0.528,-3.456 0,-1.904 0.528,-3.44 0.544,-1.552 1.552,-2.64 1.008,-1.088 2.432,-1.68 1.44,-0.592 3.232,-0.592 z m 0,14.464 q 2.4,0 3.584,-1.6 1.184,-1.616 1.184,-4.496 0,-2.896 -1.184,-4.512 -1.184,-1.616 -3.584,-1.616 -1.216,0 -2.128,0.416 -0.896,0.416 -1.504,1.2 -0.592,0.784 -0.896,1.936 -0.288,1.136 -0.288,2.576 0,2.88 1.184,4.496 1.2,1.6 3.632,1.6 z" />
    </g>
    <g
       id="text2488"
       style="font-style:normal;font-variant:normal;font-weight:normal;font-stretch:normal;font-size:32px;line-height:125%;font-family:Lato;-inkscape-font-specification:'Bitstream Vera Sans';text-align:start;writing-mode:lr-tb;text-anchor:start;fill:#000000;fill-opacity:1;stroke:none">
      <path
         id="path94"
         style=""
         d="m 233.10476,394.2942 q 1.056,0 1.968,0.24 0.912,0.224 1.664,0.672 l 4.4,0 0,1.056 q 0,0.528 -0.672,0.672 l -1.84,0.256 q 0.544,1.04 0.544,2.32 0,1.184 -0.464,2.16 -0.448,0.96 -1.248,1.648 -0.8,0.688 -1.92,1.056 -1.12,0.368 -2.432,0.368 -1.152,0 -2.16,-0.272 -0.512,0.32 -0.784,0.688 -0.256,0.368 -0.256,0.72 0,0.576 0.464,0.88 0.48,0.288 1.248,0.416 0.768,0.128 1.744,0.16 0.992,0.032 2.016,0.112 1.04,0.064 2.016,0.24 0.992,0.176 1.76,0.576 0.768,0.4 1.232,1.104 0.48,0.704 0.48,1.824 0,1.04 -0.528,2.016 -0.512,0.976 -1.488,1.728 -0.976,0.768 -2.4,1.216 -1.408,0.464 -3.184,0.464 -1.776,0 -3.104,-0.352 -1.328,-0.352 -2.208,-0.944 -0.88,-0.592 -1.328,-1.376 -0.432,-0.768 -0.432,-1.616 0,-1.2 0.752,-2.032 0.752,-0.832 2.048,-1.328 -0.72,-0.32 -1.136,-0.848 -0.416,-0.544 -0.416,-1.456 0,-0.352 0.128,-0.72 0.128,-0.384 0.384,-0.752 0.272,-0.368 0.656,-0.704 0.384,-0.336 0.896,-0.592 -1.2,-0.672 -1.872,-1.792 -0.672,-1.12 -0.672,-2.592 0,-1.184 0.448,-2.144 0.464,-0.976 1.28,-1.648 0.816,-0.688 1.936,-1.056 1.136,-0.368 2.48,-0.368 z m 5.136,17.36 q 0,-0.592 -0.336,-0.96 -0.336,-0.368 -0.912,-0.576 -0.56,-0.208 -1.312,-0.288 -0.752,-0.096 -1.6,-0.144 -0.832,-0.048 -1.696,-0.096 -0.864,-0.048 -1.664,-0.16 -0.896,0.416 -1.472,1.04 -0.56,0.624 -0.56,1.488 0,0.544 0.272,1.008 0.288,0.48 0.864,0.816 0.576,0.352 1.44,0.544 0.88,0.208 2.064,0.208 1.152,0 2.064,-0.208 0.912,-0.208 1.536,-0.592 0.64,-0.384 0.976,-0.912 0.336,-0.528 0.336,-1.168 z m -5.136,-8.8 q 0.864,0 1.52,-0.24 0.656,-0.24 1.104,-0.672 0.448,-0.432 0.672,-1.024 0.224,-0.608 0.224,-1.328 0,-1.488 -0.912,-2.368 -0.896,-0.88 -2.608,-0.88 -1.728,0 -2.64,0.88 -0.896,0.88 -0.896,2.368 0,0.72 0.224,1.328 0.24,0.592 0.688,1.024 0.448,0.432 1.104,0.672 0.656,0.24 1.52,0.24 z" />
      <path
         id="path96"
         style=""
         d="m 247.08976,394.5662 0,16.208 -2.848,0 0,-16.208 2.848,0 z m 0.608,-5.088 q 0,0.416 -0.176,0.784 -0.16,0.352 -0.448,0.64 -0.272,0.272 -0.656,0.432 -0.368,0.16 -0.784,0.16 -0.416,0 -0.784,-0.16 -0.352,-0.16 -0.624,-0.432 -0.272,-0.288 -0.432,-0.64 -0.16,-0.368 -0.16,-0.784 0,-0.416 0.16,-0.784 0.16,-0.384 0.432,-0.656 0.272,-0.288 0.624,-0.448 0.368,-0.16 0.784,-0.16 0.416,0 0.784,0.16 0.384,0.16 0.656,0.448 0.288,0.272 0.448,0.656 0.176,0.368 0.176,0.784 z" />
      <path
         id="path98"
         style=""
         d="m 251.76926,410.7742 0,-16.208 1.632,0 q 0.464,0 0.64,0.176 0.176,0.176 0.24,0.608 l 0.176,2.464 q 0.768,-1.664 1.888,-2.592 1.136,-0.944 2.752,-0.944 0.512,0 0.976,0.112 0.48,0.112 0.848,0.352 l -0.208,2.128 q -0.096,0.4 -0.48,0.4 -0.224,0 -0.656,-0.096 -0.432,-0.096 -0.976,-0.096 -0.768,0 -1.376,0.24 -0.608,0.224 -1.088,0.672 -0.464,0.432 -0.832,1.072 -0.368,0.64 -0.672,1.472 l 0,10.24 -2.864,0 z" />
      <path
         id="path100"
         style=""
         d="m 273.44826,410.7742 q -0.416,0 -0.64,-0.128 -0.224,-0.144 -0.352,-0.544 l -0.32,-1.52 q -0.64,0.576 -1.264,1.04 -0.608,0.448 -1.28,0.768 -0.656,0.304 -1.424,0.464 -0.752,0.176 -1.68,0.176 -0.944,0 -1.776,-0.256 -0.832,-0.272 -1.456,-0.8 -0.608,-0.528 -0.976,-1.328 -0.352,-0.816 -0.352,-1.92 0,-0.96 0.528,-1.84 0.528,-0.896 1.712,-1.584 1.184,-0.688 3.088,-1.12 1.904,-0.448 4.672,-0.512 l 0,-1.264 q 0,-1.888 -0.816,-2.848 -0.816,-0.976 -2.384,-0.976 -1.056,0 -1.776,0.272 -0.704,0.256 -1.232,0.592 -0.512,0.32 -0.896,0.592 -0.368,0.256 -0.736,0.256 -0.288,0 -0.496,-0.144 -0.208,-0.16 -0.352,-0.384 l -0.512,-0.912 q 1.344,-1.296 2.896,-1.936 1.552,-0.64 3.44,-0.64 1.36,0 2.416,0.448 1.056,0.448 1.776,1.248 0.72,0.8 1.088,1.936 0.368,1.136 0.368,2.496 l 0,10.368 -1.264,0 z m -6.112,-1.744 q 0.752,0 1.376,-0.144 0.624,-0.16 1.168,-0.432 0.56,-0.288 1.056,-0.688 0.512,-0.416 0.992,-0.928 l 0,-3.36 q -1.968,0.064 -3.36,0.32 -1.376,0.24 -2.256,0.64 -0.864,0.4 -1.264,0.944 -0.384,0.544 -0.384,1.216 0,0.64 0.208,1.104 0.208,0.464 0.56,0.768 0.368,0.288 0.848,0.432 0.496,0.128 1.056,0.128 z" />
      <path
         id="path102"
         style=""
         d="m 279.82526,410.7742 0,-13.776 -1.792,-0.208 q -0.336,-0.08 -0.56,-0.24 -0.208,-0.176 -0.208,-0.496 l 0,-1.168 2.56,0 0,-1.328 q 0,-1.392 0.384,-2.464 0.4,-1.088 1.12,-1.824 0.736,-0.752 1.76,-1.136 1.024,-0.384 2.304,-0.384 1.088,0 2,0.32 l -0.064,1.44 q -0.032,0.384 -0.432,0.416 -0.384,0.032 -1.04,0.032 -0.736,0 -1.344,0.192 -0.592,0.176 -1.024,0.608 -0.432,0.432 -0.672,1.152 -0.224,0.704 -0.224,1.744 l 0,1.232 7.312,0 0,-1.744 q 0,-1.392 0.384,-2.464 0.4,-1.088 1.12,-1.824 0.736,-0.752 1.76,-1.136 1.024,-0.384 2.304,-0.384 1.072,0 2,0.32 l -0.064,1.424 q -0.032,0.384 -0.432,0.416 -0.384,0.032 -1.04,0.032 -0.736,0 -1.344,0.192 -0.592,0.192 -1.024,0.624 -0.432,0.432 -0.672,1.136 -0.224,0.704 -0.224,1.744 l 0,1.664 4.672,0 0,2.064 -4.576,0 0,13.824 -2.864,0 0,-13.824 -7.216,0 0,13.824 -2.864,0 z" />
      <path
         id="path104"
         style=""
         d="m 306.22176,394.3102 q 1.456,0 2.688,0.496 1.248,0.48 2.144,1.408 0.912,0.912 1.424,2.272 0.512,1.344 0.512,3.072 0,0.672 -0.144,0.896 -0.144,0.224 -0.544,0.224 l -10.832,0 q 0.032,1.536 0.416,2.672 0.384,1.136 1.056,1.904 0.672,0.752 1.6,1.136 0.928,0.368 2.08,0.368 1.072,0 1.84,-0.24 0.784,-0.256 1.344,-0.544 0.56,-0.288 0.928,-0.528 0.384,-0.256 0.656,-0.256 0.352,0 0.544,0.272 l 0.8,1.04 q -0.528,0.64 -1.264,1.12 -0.736,0.464 -1.584,0.768 -0.832,0.304 -1.728,0.448 -0.896,0.16 -1.776,0.16 -1.68,0 -3.104,-0.56 -1.408,-0.576 -2.448,-1.664 -1.024,-1.104 -1.6,-2.72 -0.576,-1.616 -0.576,-3.712 0,-1.696 0.512,-3.168 0.528,-1.472 1.504,-2.544 0.976,-1.088 2.384,-1.696 1.408,-0.624 3.168,-0.624 z m 0.064,2.096 q -2.064,0 -3.248,1.2 -1.184,1.184 -1.472,3.296 l 8.864,0 q 0,-0.992 -0.288,-1.808 -0.272,-0.832 -0.816,-1.424 -0.528,-0.608 -1.296,-0.928 -0.768,-0.336 -1.744,-0.336 z" />
    </g>
    <g
       id="text2492"
       style="font-style:normal;font-variant:normal;font-weight:normal;font-stretch:normal;font-size:32px;line-height:125%;font-family:Lato;-inkscape-font-specification:'Bitstream Vera Sans';text-align:start;writing-mode:lr-tb;text-anchor:start;fill:#000000;fill-opacity:1;stroke:none">
      <path
         id="path107"
         style=""
         d="m 312.06093,285.94501 0,-16.208 1.632,0 q 0.464,0 0.64,0.176 0.176,0.176 0.24,0.608 l 0.176,2.464 q 0.768,-1.664 1.888,-2.592 1.136,-0.944 2.752,-0.944 0.512,0 0.976,0.112 0.48,0.112 0.848,0.352 l -0.208,2.128 q -0.096,0.4 -0.48,0.4 -0.224,0 -0.656,-0.096 -0.432,-0.096 -0.976,-0.096 -0.768,0 -1.376,0.24 -0.608,0.224 -1.088,0.672 -0.464,0.432 -0.832,1.072 -0.368,0.64 -0.672,1.472 l 0,10.24 -2.864,0 z" />
      <path
         id="path109"
         style=""
         d="m 333.73993,285.94501 q -0.416,0 -0.64,-0.128 -0.224,-0.144 -0.352,-0.544 l -0.32,-1.52 q -0.64,0.576 -1.264,1.04 -0.608,0.448 -1.28,0.768 -0.656,0.304 -1.424,0.464 -0.752,0.176 -1.68,0.176 -0.944,0 -1.776,-0.256 -0.832,-0.272 -1.456,-0.8 -0.608,-0.528 -0.976,-1.328 -0.352,-0.816 -0.352,-1.92 0,-0.96 0.528,-1.84 0.528,-0.896 1.712,-1.584 1.184,-0.688 3.088,-1.12 1.904,-0.448 4.672,-0.512 l 0,-1.264 q 0,-1.888 -0.816,-2.848 -0.816,-0.976 -2.384,-0.976 -1.056,0 -1.776,0.272 -0.704,0.256 -1.232,0.592 -0.512,0.32 -0.896,0.592 -0.368,0.256 -0.736,0.256 -0.288,0 -0.496,-0.144 -0.208,-0.16 -0.352,-0.384 l -0.512,-0.912 q 1.344,-1.296 2.896,-1.936 1.552,-0.64 3.44,-0.64 1.36,0 2.416,0.448 1.056,0.448 1.776,1.248 0.72,0.8 1.088,1.936 0.368,1.136 0.368,2.496 l 0,10.368 -1.264,0 z m -6.112,-1.744 q 0.752,0 1.376,-0.144 0.624,-0.16 1.168,-0.432 0.56,-0.288 1.056,-0.688 0.512,-0.416 0.992,-0.928 l 0,-3.36 q -1.968,0.064 -3.36,0.32 -1.376,0.24 -2.256,0.64 -0.864,0.4 -1.264,0.944 -0.384,0.544 -0.384,1.216 0,0.64 0.208,1.104 0.208,0.464 0.56,0.768 0.368,0.288 0.848,0.432 0.496,0.128 1.056,0.128 z" />
      <path
         id="path111"
         style=""
         d="m 344.09943,286.20101 q -1.92,0 -2.96,-1.072 -1.024,-1.072 -1.024,-3.088 l 0,-9.92 -1.952,0 q -0.256,0 -0.432,-0.144 -0.176,-0.16 -0.176,-0.48 l 0,-1.136 2.656,-0.336 0.656,-5.008 q 0.048,-0.24 0.208,-0.384 0.176,-0.16 0.448,-0.16 l 1.44,0 0,5.584 4.688,0 0,2.064 -4.688,0 0,9.728 q 0,1.024 0.496,1.52 0.496,0.496 1.28,0.496 0.448,0 0.768,-0.112 0.336,-0.128 0.576,-0.272 0.24,-0.144 0.4,-0.256 0.176,-0.128 0.304,-0.128 0.224,0 0.4,0.272 l 0.832,1.36 q -0.736,0.688 -1.776,1.088 -1.04,0.384 -2.144,0.384 z" />
    </g>
    <g
       id="text2496"
       style="font-style:normal;font-variant:normal;font-weight:normal;font-stretch:normal;font-size:32px;line-height:125%;font-family:Lato;-inkscape-font-specification:'Bitstream Vera Sans';text-align:start;writing-mode:lr-tb;text-anchor:start;fill:#000000;fill-opacity:1;stroke:none">
      <path
         id="path114"
         style=""
         d="m 402.35884,157.90427 0,-23.568 2.864,0 0,9.536 q 1.04,-1.104 2.304,-1.76 1.264,-0.672 2.912,-0.672 1.328,0 2.336,0.448 1.024,0.432 1.696,1.248 0.688,0.8 1.04,1.936 0.352,1.136 0.352,2.512 l 0,10.32 -2.864,0 0,-10.32 q 0,-1.84 -0.848,-2.848 -0.832,-1.024 -2.544,-1.024 -1.28,0 -2.384,0.608 -1.088,0.608 -2,1.648 l 0,11.936 -2.864,0 z" />
      <path
         id="path116"
         style=""
         d="m 422.92184,141.69627 0,10.336 q 0,1.84 0.832,2.848 0.848,1.008 2.576,1.008 1.248,0 2.352,-0.592 1.104,-0.592 2.032,-1.648 l 0,-11.952 2.848,0 0,16.208 -1.696,0 q -0.608,0 -0.768,-0.592 l -0.224,-1.744 q -1.056,1.168 -2.368,1.888 -1.312,0.704 -3.008,0.704 -1.328,0 -2.352,-0.432 -1.008,-0.448 -1.696,-1.248 -0.688,-0.8 -1.04,-1.936 -0.336,-1.136 -0.336,-2.512 l 0,-10.336 2.848,0 z" />
      <path
         id="path118"
         style=""
         d="m 438.04634,157.90427 0,-16.208 1.712,0 q 0.608,0 0.752,0.592 l 0.208,1.664 q 0.896,-1.104 2.016,-1.808 1.12,-0.704 2.592,-0.704 1.632,0 2.64,0.912 1.024,0.912 1.472,2.464 0.352,-0.88 0.896,-1.52 0.56,-0.64 1.248,-1.056 0.688,-0.416 1.456,-0.608 0.784,-0.192 1.584,-0.192 1.28,0 2.272,0.416 1.008,0.4 1.696,1.184 0.704,0.784 1.072,1.936 0.368,1.136 0.368,2.608 l 0,10.32 -2.864,0 0,-10.32 q 0,-1.904 -0.832,-2.88 -0.832,-0.992 -2.4,-0.992 -0.704,0 -1.344,0.256 -0.624,0.24 -1.104,0.72 -0.48,0.48 -0.768,1.216 -0.272,0.72 -0.272,1.68 l 0,10.32 -2.864,0 0,-10.32 q 0,-1.952 -0.784,-2.912 -0.784,-0.96 -2.288,-0.96 -1.056,0 -1.952,0.576 -0.896,0.56 -1.648,1.536 l 0,12.08 -2.864,0 z" />
      <path
         id="path120"
         style=""
         d="m 474.66284,157.90427 q -0.416,0 -0.64,-0.128 -0.224,-0.144 -0.352,-0.544 l -0.32,-1.52 q -0.64,0.576 -1.264,1.04 -0.608,0.448 -1.28,0.768 -0.656,0.304 -1.424,0.464 -0.752,0.176 -1.68,0.176 -0.944,0 -1.776,-0.256 -0.832,-0.272 -1.456,-0.8 -0.608,-0.528 -0.976,-1.328 -0.352,-0.816 -0.352,-1.92 0,-0.96 0.528,-1.84 0.528,-0.896 1.712,-1.584 1.184,-0.688 3.088,-1.12 1.904,-0.448 4.672,-0.512 l 0,-1.264 q 0,-1.888 -0.816,-2.848 -0.816,-0.976 -2.384,-0.976 -1.056,0 -1.776,0.272 -0.704,0.256 -1.232,0.592 -0.512,0.32 -0.896,0.592 -0.368,0.256 -0.736,0.256 -0.288,0 -0.496,-0.144 -0.208,-0.16 -0.352,-0.384 l -0.512,-0.912 q 1.344,-1.296 2.896,-1.936 1.552,-0.64 3.44,-0.64 1.36,0 2.416,0.448 1.056,0.448 1.776,1.248 0.72,0.8 1.088,1.936 0.368,1.136 0.368,2.496 l 0,10.368 -1.264,0 z m -6.112,-1.744 q 0.752,0 1.376,-0.144 0.624,-0.16 1.168,-0.432 0.56,-0.288 1.056,-0.688 0.512,-0.416 0.992,-0.928 l 0,-3.36 q -1.968,0.064 -3.36,0.32 -1.376,0.24 -2.256,0.64 -0.864,0.4 -1.264,0.944 -0.384,0.544 -0.384,1.216 0,0.64 0.208,1.104 0.208,0.464 0.56,0.768 0.368,0.288 0.848,0.432 0.496,0.128 1.056,0.128 z" />
      <path
         id="path122"
         style=""
         d="m 480.23384,157.90427 0,-16.208 1.712,0 q 0.608,0 0.752,0.592 l 0.224,1.76 q 1.056,-1.168 2.368,-1.888 1.312,-0.72 3.024,-0.72 1.328,0 2.336,0.448 1.024,0.432 1.696,1.248 0.688,0.8 1.04,1.936 0.352,1.136 0.352,2.512 l 0,10.32 -2.864,0 0,-10.32 q 0,-1.84 -0.848,-2.848 -0.832,-1.024 -2.544,-1.024 -1.28,0 -2.384,0.608 -1.088,0.608 -2,1.648 l 0,11.936 -2.864,0 z" />
    </g>
  </g>
  <path
     id="path3302"
     d="m 436.33581,264.68818 c 87.96368,0 87.96368,0 87.96368,0"
     style="fill:none;stroke:#000000;stroke-width:4.49696016;stroke-linecap:butt;stroke-linejoin:miter;stroke-miterlimit:4;stroke-opacity:1;stroke-dasharray:none;marker-end:url(#Arrow1Mend)" />
  <g
     id="flowRoot2605"
     style="font-style:normal;font-variant:normal;font-weight:normal;font-stretch:normal;font-size:28px;line-height:125%;font-family:LMRoman10;-inkscape-font-specification:LMRoman10;text-align:start;writing-mode:lr-tb;text-anchor:start;fill:#000000;fill-opacity:1;stroke:none"
     transform="translate(-44.173062,-168.24647)" />
  <g
     id="text2457"
     style="font-style:normal;font-variant:normal;font-weight:normal;font-stretch:normal;font-size:26.35824394px;line-height:125%;font-family:Lato;-inkscape-font-specification:'Bitstream Vera Sans';text-align:start;writing-mode:lr-tb;text-anchor:start;fill:#000000;fill-opacity:1;stroke:none">
    <path
       id="path126"
       style=""
       d="m 40.992111,361.85214 q 0.869822,0 1.621032,0.19769 0.75121,0.1845 1.370629,0.55352 l 3.624258,0 0,0.86982 q 0,0.43491 -0.553523,0.55353 l -1.515599,0.21086 q 0.44809,0.85664 0.44809,1.91097 0,0.97526 -0.382194,1.77919 -0.369016,0.79074 -1.027972,1.35744 -0.658956,0.56671 -1.581495,0.86983 -0.922538,0.30312 -2.003226,0.30312 -0.948897,0 -1.779182,-0.22405 -0.421732,0.26358 -0.645777,0.5667 -0.210866,0.30312 -0.210866,0.59306 0,0.47445 0.382195,0.72486 0.395374,0.23722 1.027972,0.34265 0.632597,0.10544 1.436524,0.13179 0.817105,0.0264 1.660569,0.0923 0.856643,0.0527 1.66057,0.19769 0.817105,0.14497 1.449703,0.47444 0.632598,0.32948 1.014792,0.90936 0.395374,0.57988 0.395374,1.50242 0,0.85665 -0.434911,1.66057 -0.421732,0.80393 -1.225658,1.42335 -0.803927,0.6326 -1.976869,1.00161 -1.159762,0.3822 -2.622645,0.3822 -1.462882,0 -2.55675,-0.28995 -1.093867,-0.28994 -1.818718,-0.77756 -0.724852,-0.48763 -1.093868,-1.13341 -0.355836,-0.6326 -0.355836,-1.33109 0,-0.98843 0.619419,-1.67375 0.619419,-0.68531 1.686928,-1.09387 -0.593061,-0.26358 -0.935718,-0.69849 -0.342657,-0.44809 -0.342657,-1.1993 0,-0.28994 0.105433,-0.59306 0.105433,-0.3163 0.316299,-0.61942 0.224045,-0.30312 0.540344,-0.57988 0.316299,-0.27676 0.73803,-0.48763 -0.988434,-0.55352 -1.541957,-1.47606 -0.553523,-0.92254 -0.553523,-2.13502 0,-0.97525 0.369015,-1.766 0.382195,-0.80392 1.05433,-1.35745 0.672135,-0.5667 1.594674,-0.86982 0.935718,-0.30312 2.042764,-0.30312 z m 4.230498,14.29935 q 0,-0.48763 -0.276762,-0.79075 -0.276761,-0.30312 -0.75121,-0.47445 -0.461269,-0.17133 -1.080688,-0.23722 -0.619418,-0.0791 -1.317912,-0.11861 -0.685314,-0.0395 -1.396987,-0.0791 -0.711672,-0.0395 -1.370628,-0.13179 -0.738031,0.34266 -1.21248,0.85664 -0.461269,0.51399 -0.461269,1.22566 0,0.44809 0.224045,0.83029 0.237224,0.39537 0.711673,0.67213 0.474448,0.28994 1.186121,0.44809 0.724852,0.17133 1.700107,0.17133 0.948896,0 1.700106,-0.17133 0.75121,-0.17133 1.265196,-0.48763 0.527165,-0.3163 0.803926,-0.75121 0.276762,-0.43491 0.276762,-0.96207 z m -4.230498,-7.24852 q 0.711672,0 1.252016,-0.19769 0.540344,-0.19768 0.90936,-0.55352 0.369015,-0.35584 0.553523,-0.84346 0.184508,-0.50081 0.184508,-1.09387 0,-1.22566 -0.75121,-1.95051 -0.738031,-0.72485 -2.148197,-0.72485 -1.423345,0 -2.174555,0.72485 -0.738031,0.72485 -0.738031,1.95051 0,0.59306 0.184508,1.09387 0.197686,0.48762 0.566702,0.84346 0.369015,0.35584 0.909359,0.55352 0.540344,0.19769 1.252017,0.19769 z" />
    <path
       id="path128"
       style=""
       d="m 52.511487,362.07619 0,13.35045 -2.345883,0 0,-13.35045 2.345883,0 z m 0.500807,-4.19097 q 0,0.34266 -0.14497,0.64578 -0.131792,0.28994 -0.369016,0.52717 -0.224045,0.22404 -0.540344,0.35583 -0.30312,0.13179 -0.645777,0.13179 -0.342657,0 -0.645777,-0.13179 -0.28994,-0.13179 -0.513986,-0.35583 -0.224045,-0.23723 -0.355836,-0.52717 -0.131791,-0.30312 -0.131791,-0.64578 0,-0.34265 0.131791,-0.64577 0.131791,-0.3163 0.355836,-0.54035 0.224046,-0.23722 0.513986,-0.36901 0.30312,-0.13179 0.645777,-0.13179 0.342657,0 0.645777,0.13179 0.316299,0.13179 0.540344,0.36901 0.237224,0.22405 0.369016,0.54035 0.14497,0.30312 0.14497,0.64577 z" />
    <path
       id="path130"
       style=""
       d="m 56.36597,375.42664 0,-13.35045 1.34427,0 q 0.382194,0 0.527165,0.14497 0.14497,0.14497 0.197687,0.5008 l 0.14497,2.02959 q 0.632598,-1.37063 1.555136,-2.13502 0.935718,-0.77757 2.266809,-0.77757 0.421732,0 0.803927,0.0923 0.395373,0.0923 0.698493,0.28995 l -0.171328,1.75282 q -0.07908,0.32948 -0.395374,0.32948 -0.184508,0 -0.540344,-0.0791 -0.355836,-0.0791 -0.803926,-0.0791 -0.632598,0 -1.133405,0.19768 -0.500807,0.18451 -0.89618,0.55353 -0.382195,0.35583 -0.685315,0.883 -0.303119,0.52716 -0.553523,1.21248 l 0,8.43464 -2.359062,0 z" />
    <path
       id="path132"
       style=""
       d="m 74.222854,375.42664 q -0.342657,0 -0.527165,-0.10544 -0.184508,-0.11861 -0.289941,-0.44809 l -0.263582,-1.25201 q -0.527165,0.47444 -1.041151,0.85664 -0.500806,0.36901 -1.05433,0.6326 -0.540344,0.2504 -1.172941,0.38219 -0.619419,0.14497 -1.383808,0.14497 -0.777568,0 -1.462883,-0.21086 -0.685314,-0.22405 -1.1993,-0.65896 -0.500807,-0.43491 -0.803926,-1.09387 -0.289941,-0.67213 -0.289941,-1.58149 0,-0.79075 0.434911,-1.5156 0.434911,-0.73803 1.410166,-1.30473 0.975255,-0.56671 2.543571,-0.92254 1.568315,-0.36902 3.848303,-0.42173 l 0,-1.04116 q 0,-1.55513 -0.672135,-2.34588 -0.672135,-0.80393 -1.963689,-0.80393 -0.869822,0 -1.462883,0.22405 -0.579881,0.21087 -1.014792,0.48763 -0.421732,0.26358 -0.738031,0.48762 -0.30312,0.21087 -0.60624,0.21087 -0.237224,0 -0.408552,-0.11861 -0.171329,-0.13179 -0.289941,-0.3163 l -0.421732,-0.75121 q 1.107046,-1.06751 2.385421,-1.59467 1.278375,-0.52717 2.833511,-0.52717 1.120226,0 1.990048,0.36902 0.869822,0.36901 1.462882,1.02797 0.593061,0.65895 0.896181,1.59467 0.303119,0.93572 0.303119,2.05594 l 0,8.54008 -1.04115,0 z m -5.034425,-1.43653 q 0.619419,0 1.133405,-0.11861 0.513985,-0.13179 0.962076,-0.35584 0.461269,-0.23722 0.869822,-0.5667 0.421732,-0.34266 0.817105,-0.76439 l 0,-2.76761 q -1.621032,0.0527 -2.767615,0.26358 -1.133405,0.19769 -1.858257,0.52716 -0.711672,0.32948 -1.04115,0.77757 -0.316299,0.44809 -0.316299,1.00161 0,0.52717 0.171328,0.90936 0.171329,0.3822 0.46127,0.6326 0.303119,0.23723 0.698493,0.35584 0.408553,0.10543 0.869822,0.10543 z" />
    <path
       id="path134"
       style=""
       d="m 79.475557,375.42664 0,-11.34723 -1.476062,-0.17133 q -0.276761,-0.0659 -0.461269,-0.19768 -0.171329,-0.14497 -0.171329,-0.40856 l 0,-0.96207 2.10866,0 0,-1.09387 q 0,-1.14658 0.316299,-2.02958 0.329478,-0.89618 0.922538,-1.50242 0.60624,-0.61942 1.449704,-0.93572 0.843463,-0.3163 1.897793,-0.3163 0.89618,0 1.64739,0.26358 l -0.05272,1.18612 q -0.02636,0.3163 -0.355836,0.34266 -0.316299,0.0264 -0.856643,0.0264 -0.60624,0 -1.107047,0.15815 -0.487627,0.14497 -0.843463,0.5008 -0.355837,0.35584 -0.553523,0.9489 -0.184508,0.57988 -0.184508,1.43653 l 0,1.01479 6.022859,0 0,-1.43653 q 0,-1.14658 0.316299,-2.02958 0.329478,-0.89618 0.922538,-1.50242 0.60624,-0.61942 1.449703,-0.93572 0.843464,-0.3163 1.897794,-0.3163 0.883001,0 1.64739,0.26358 l -0.05272,1.17295 q -0.02636,0.3163 -0.355837,0.34265 -0.316298,0.0264 -0.856642,0.0264 -0.60624,0 -1.107047,0.15815 -0.487627,0.15815 -0.843463,0.51399 -0.355837,0.35583 -0.553524,0.93571 -0.184507,0.57989 -0.184507,1.43653 l 0,1.37063 3.848303,0 0,1.7001 -3.769229,0 0,11.38677 -2.359062,0 0,-11.38677 -5.943784,0 0,11.38677 -2.359063,0 z" />
    <path
       id="path136"
       style=""
       d="m 101.21823,361.86532 q 1.1993,0 2.21409,0.40855 1.02797,0.39538 1.766,1.15976 0.75121,0.75121 1.17294,1.87144 0.42174,1.10705 0.42174,2.53039 0,0.55352 -0.11862,0.73803 -0.11861,0.18451 -0.44809,0.18451 l -8.922261,0 q 0.02636,1.2652 0.342657,2.20091 0.316299,0.93572 0.869822,1.56832 0.553523,0.61942 1.317912,0.93572 0.76439,0.30312 1.71329,0.30312 0.883,0 1.5156,-0.19769 0.64577,-0.21087 1.10704,-0.44809 0.46127,-0.23722 0.76439,-0.43491 0.3163,-0.21087 0.54034,-0.21087 0.28995,0 0.44809,0.22405 l 0.65896,0.85664 q -0.43491,0.52717 -1.04115,0.92254 -0.60624,0.38219 -1.30473,0.6326 -0.68532,0.2504 -1.42335,0.36901 -0.73803,0.13179 -1.46288,0.13179 -1.383808,0 -2.55675,-0.46127 -1.159763,-0.47444 -2.016406,-1.37062 -0.843464,-0.90936 -1.317912,-2.24046 -0.474448,-1.33109 -0.474448,-3.05755 0,-1.39699 0.421731,-2.60947 0.434911,-1.21248 1.238838,-2.09548 0.803926,-0.89618 1.963689,-1.39699 1.159763,-0.51398 2.609468,-0.51398 z m 0.0527,1.72646 q -1.700102,0 -2.675357,0.98844 -0.975255,0.97525 -1.212479,2.7149 l 7.301236,0 q 0,-0.81711 -0.23723,-1.48924 -0.22404,-0.68532 -0.67213,-1.17295 -0.43491,-0.5008 -1.06751,-0.76438 -0.6326,-0.27677 -1.43653,-0.27677 z" />
  </g>
  <g
     id="text2491"
     style="font-style:normal;font-variant:normal;font-weight:normal;font-stretch:normal;font-size:26.35824394px;line-height:125%;font-family:Lato;-inkscape-font-specification:'Bitstream Vera Sans';text-align:start;writing-mode:lr-tb;text-anchor:start;fill:#000000;fill-opacity:1;stroke:none"
     transform="matrix(0,-1,1,0,0,0)">
    <path
       id="path139"
       style=""
       d="m -111.41969,169.75868 q -0.34265,0 -0.52716,-0.10543 -0.18451,-0.11861 -0.28994,-0.44809 l -0.26358,-1.25202 q -0.52717,0.47445 -1.04115,0.85665 -0.50081,0.36901 -1.05433,0.63259 -0.54035,0.25041 -1.17295,0.3822 -0.61942,0.14497 -1.3838,0.14497 -0.77757,0 -1.46289,-0.21087 -0.68531,-0.22404 -1.1993,-0.65895 -0.5008,-0.43491 -0.80392,-1.09387 -0.28994,-0.67214 -0.28994,-1.5815 0,-0.79074 0.43491,-1.51559 0.43491,-0.73804 1.41016,-1.30474 0.97526,-0.5667 2.54357,-0.92254 1.56832,-0.36901 3.84831,-0.42173 l 0,-1.04115 q 0,-1.55514 -0.67214,-2.34588 -0.67213,-0.80393 -1.96369,-0.80393 -0.86982,0 -1.46288,0.22405 -0.57988,0.21086 -1.01479,0.48762 -0.42173,0.26359 -0.73803,0.48763 -0.30312,0.21087 -0.60624,0.21087 -0.23723,0 -0.40856,-0.11861 -0.17132,-0.1318 -0.28994,-0.3163 l -0.42173,-0.75121 q 1.10705,-1.06751 2.38542,-1.59468 1.27838,-0.52716 2.83351,-0.52716 1.12023,0 1.99005,0.36901 0.86982,0.36902 1.46288,1.02797 0.59306,0.65896 0.89618,1.59468 0.30312,0.93572 0.30312,2.05594 l 0,8.54007 -1.04115,0 z m -5.03442,-1.43652 q 0.61942,0 1.1334,-0.11861 0.51399,-0.1318 0.96208,-0.35584 0.46127,-0.23722 0.86982,-0.5667 0.42173,-0.34266 0.81711,-0.76439 l 0,-2.76762 q -1.62103,0.0527 -2.76762,0.26359 -1.1334,0.19768 -1.85825,0.52716 -0.71168,0.32948 -1.04116,0.77757 -0.31629,0.44809 -0.31629,1.00161 0,0.52717 0.17132,0.90936 0.17133,0.3822 0.46127,0.6326 0.30312,0.23722 0.6985,0.35583 0.40855,0.10544 0.86982,0.10544 z" />
    <path
       id="path141"
       style=""
       d="m -106.83088,169.75868 0,-13.35045 1.34427,0 q 0.38219,0 0.52717,0.14497 0.14497,0.14497 0.19768,0.50081 l 0.14497,2.02958 q 0.6326,-1.37063 1.55514,-2.13501 0.93572,-0.77757 2.26681,-0.77757 0.42173,0 0.803924,0.0923 0.395374,0.0923 0.698493,0.28994 l -0.171328,1.75283 q -0.07908,0.32947 -0.395374,0.32947 -0.184505,0 -0.540345,-0.0791 -0.35584,-0.0791 -0.80393,-0.0791 -0.63259,0 -1.1334,0.19769 -0.50081,0.18451 -0.89618,0.55352 -0.38219,0.35584 -0.68531,0.883 -0.30312,0.52717 -0.55353,1.21248 l 0,8.43464 -2.35906,0 z" />
    <path
       id="path143"
       style=""
       d="m -97.255426,169.75868 0,-13.35045 1.410166,0 q 0.500807,0 0.619419,0.48763 l 0.171329,1.37063 q 0.738031,-0.90936 1.660569,-1.48924 0.922539,-0.57988 2.135018,-0.57988 1.34427,0 2.174555,0.75121 0.843464,0.75121 1.212479,2.02958 0.289941,-0.72485 0.738031,-1.25202 0.461269,-0.52716 1.027972,-0.86982 0.566702,-0.34266 1.1993,-0.5008 0.645777,-0.15815 1.304733,-0.15815 1.05433,0 1.871435,0.34265 0.830285,0.32948 1.396987,0.97526 0.579881,0.64577 0.883001,1.59467 0.30312,0.93572 0.30312,2.1482 l 0,8.50053 -2.359063,0 0,-8.50053 q 0,-1.56832 -0.685314,-2.37224 -0.685315,-0.81711 -1.976868,-0.81711 -0.579882,0 -1.107047,0.21087 -0.513985,0.19768 -0.909359,0.59306 -0.395374,0.39537 -0.632598,1.00161 -0.224045,0.59306 -0.224045,1.38381 l 0,8.50053 -2.359063,0 0,-8.50053 q 0,-1.60785 -0.645777,-2.3986 -0.645777,-0.79075 -1.884614,-0.79075 -0.869822,0 -1.607853,0.47445 -0.738031,0.46127 -1.35745,1.2652 l 0,9.95023 -2.359063,0 z" />
    <path
       id="path145"
       style=""
       d="m -67.094594,169.75868 q -0.342657,0 -0.527165,-0.10543 -0.184507,-0.11861 -0.28994,-0.44809 l -0.263583,-1.25202 q -0.527165,0.47445 -1.041151,0.85665 -0.500806,0.36901 -1.054329,0.63259 -0.540344,0.25041 -1.172942,0.3822 -0.619419,0.14497 -1.383808,0.14497 -0.777568,0 -1.462882,-0.21087 -0.685315,-0.22404 -1.199301,-0.65895 -0.500806,-0.43491 -0.803926,-1.09387 -0.289941,-0.67214 -0.289941,-1.5815 0,-0.79074 0.434911,-1.51559 0.434911,-0.73804 1.410166,-1.30474 0.975255,-0.5667 2.543571,-0.92254 1.568315,-0.36901 3.848304,-0.42173 l 0,-1.04115 q 0,-1.55514 -0.672136,-2.34588 -0.672135,-0.80393 -1.963689,-0.80393 -0.869822,0 -1.462882,0.22405 -0.579882,0.21086 -1.014793,0.48762 -0.421732,0.26359 -0.738031,0.48763 -0.303119,0.21087 -0.606239,0.21087 -0.237224,0 -0.408553,-0.11861 -0.171329,-0.1318 -0.289941,-0.3163 l -0.421732,-0.75121 q 1.107047,-1.06751 2.385421,-1.59468 1.278375,-0.52716 2.833512,-0.52716 1.120225,0 1.990047,0.36901 0.869822,0.36902 1.462883,1.02797 0.59306,0.65896 0.89618,1.59468 0.30312,0.93572 0.30312,2.05594 l 0,8.54007 -1.041151,0 z m -5.034424,-1.43652 q 0.619418,0 1.133404,-0.11861 0.513986,-0.1318 0.962076,-0.35584 0.461269,-0.23722 0.869822,-0.5667 0.421732,-0.34266 0.817106,-0.76439 l 0,-2.76762 q -1.621032,0.0527 -2.767616,0.26359 -1.133405,0.19768 -1.858256,0.52716 -0.711673,0.32948 -1.041151,0.77757 -0.316299,0.44809 -0.316299,1.00161 0,0.52717 0.171329,0.90936 0.171328,0.3822 0.461269,0.6326 0.30312,0.23722 0.698493,0.35583 0.408553,0.10544 0.869823,0.10544 z" />
    <path
       id="path147"
       style=""
       d="m -52.858671,169.75868 q -0.500806,0 -0.632598,-0.48763 l -0.210866,-1.62103 q -0.856642,1.04115 -1.963689,1.67375 -1.093867,0.61942 -2.517212,0.61942 -1.146584,0 -2.082301,-0.43491 -0.935718,-0.44809 -1.594674,-1.30473 -0.658956,-0.85665 -1.014792,-2.13502 -0.355837,-1.27838 -0.355837,-2.93895 0,-1.47606 0.395374,-2.74125 0.395374,-1.27838 1.133404,-2.2141 0.738031,-0.93571 1.80554,-1.46288 1.080688,-0.54034 2.424959,-0.54034 1.225658,0 2.09548,0.42173 0.883001,0.40855 1.568316,1.15976 l 0,-7.40666 2.345883,0 0,19.41284 -1.396987,0 z m -4.559976,-1.71328 q 1.159763,0 2.016406,-0.52717 0.869822,-0.52716 1.594674,-1.48924 l 0,-6.44459 q -0.658957,-0.86982 -1.423346,-1.22566 -0.764389,-0.35583 -1.713286,-0.35583 -1.858256,0 -2.859869,1.33109 -1.001613,1.33109 -1.001613,3.79558 0,1.30474 0.224045,2.24045 0.224045,0.92254 0.658956,1.52878 0.434911,0.59306 1.067509,0.86982 0.632598,0.27677 1.436524,0.27677 z" />
    <path
       id="path149"
       style=""
       d="m -45.253081,156.40823 0,13.35045 -2.345884,0 0,-13.35045 2.345884,0 z m 0.500807,-4.19096 q 0,0.34266 -0.144971,0.64578 -0.131791,0.28994 -0.369015,0.52716 -0.224045,0.22405 -0.540344,0.35584 -0.30312,0.13179 -0.645777,0.13179 -0.342657,0 -0.645777,-0.13179 -0.289941,-0.13179 -0.513986,-0.35584 -0.224045,-0.23722 -0.355836,-0.52716 -0.131791,-0.30312 -0.131791,-0.64578 0,-0.34266 0.131791,-0.64578 0.131791,-0.31629 0.355836,-0.54034 0.224045,-0.23722 0.513986,-0.36902 0.30312,-0.13179 0.645777,-0.13179 0.342657,0 0.645777,0.13179 0.316299,0.1318 0.540344,0.36902 0.237224,0.22405 0.369015,0.54034 0.144971,0.30312 0.144971,0.64578 z" />
    <path
       id="path151"
       style=""
       d="m -38.973644,150.34584 0,19.41284 -2.345884,0 0,-19.41284 2.345884,0 z" />
    <path
       id="path153"
       style=""
       d="m -32.74445,150.34584 0,19.41284 -2.345883,0 0,-19.41284 2.345883,0 z" />
    <path
       id="path155"
       style=""
       d="m -23.312728,156.19737 q 1.462882,0 2.635824,0.48762 1.172942,0.48763 2.003227,1.38381 0.830284,0.89618 1.265195,2.17456 0.448091,1.26519 0.448091,2.83351 0,1.58149 -0.448091,2.84669 -0.434911,1.26519 -1.265195,2.16137 -0.830285,0.89618 -2.003227,1.38381 -1.172942,0.47445 -2.635824,0.47445 -1.476062,0 -2.662183,-0.47445 -1.172942,-0.48763 -2.003226,-1.38381 -0.830285,-0.89618 -1.278375,-2.16137 -0.434911,-1.2652 -0.434911,-2.84669 0,-1.56832 0.434911,-2.83351 0.44809,-1.27838 1.278375,-2.17456 0.830284,-0.89618 2.003226,-1.38381 1.186121,-0.48762 2.662183,-0.48762 z m 0,11.91392 q 1.976868,0 2.952123,-1.31791 0.975255,-1.33109 0.975255,-3.70333 0,-2.38542 -0.975255,-3.71652 -0.975255,-1.33109 -2.952123,-1.33109 -1.001614,0 -1.752823,0.34266 -0.738031,0.34266 -1.238838,0.98843 -0.487627,0.64578 -0.738031,1.59468 -0.237224,0.93572 -0.237224,2.12184 0,2.37224 0.975255,3.70333 0.988434,1.31791 2.991661,1.31791 z" />
  </g>
  <rect
     y="141.69539"
     x="121.55783"
     height="249.18019"
     width="258.76404"
     id="rect2525"
     style="fill:none;stroke:#b3b3b3;stroke-width:2.29999995;stroke-miterlimit:4;stroke-opacity:1;stroke-dasharray:none" />
  <g
     id="text2453"
     style="font-style:normal;font-variant:normal;font-weight:normal;font-stretch:normal;font-size:26.35824394px;line-height:125%;font-family:Lato;-inkscape-font-specification:'Bitstream Vera Sans';text-align:start;writing-mode:lr-tb;text-anchor:start;fill:#000000;fill-opacity:1;stroke:none">
    <path
       id="path158"
       style=""
       d="m 8.7625717,194.299 q -0.3426572,0 -0.5271649,-0.10544 -0.1845077,-0.11861 -0.2899407,-0.44809 l -0.2635824,-1.25201 q -0.5271649,0.47444 -1.0411506,0.85664 -0.5008067,0.36901 -1.0543298,0.6326 -0.540344,0.2504 -1.1729418,0.38219 -0.6194188,0.14497 -1.3838079,0.14497 -0.7775682,0 -1.4628825,-0.21086 -0.68531434,-0.22405 -1.19930009,-0.65896 -0.50080664,-0.43491 -0.80392644,-1.09387 -0.28994069,-0.67213 -0.28994069,-1.58149 0,-0.79075 0.43491103,-1.5156 0.43491102,-0.73803 1.41016609,-1.30473 0.975255,-0.56671 2.5435705,-0.92254 1.5683155,-0.36902 3.8483036,-0.42173 l 0,-1.04116 q 0,-1.55513 -0.6721352,-2.34588 -0.6721352,-0.80393 -1.9636892,-0.80393 -0.869822,0 -1.4628825,0.22405 -0.5798814,0.21087 -1.0147924,0.48763 -0.4217319,0.26358 -0.7380308,0.48762 -0.3031198,0.21087 -0.6062397,0.21087 -0.23722415,0 -0.40855273,-0.11861 -0.17132859,-0.13179 -0.28994069,-0.3163 l -0.4217319,-0.75121 q 1.10704622,-1.06751 2.38542112,-1.59467 1.2783748,-0.52717 2.8335112,-0.52717 1.1202253,0 1.9900474,0.36902 0.869822,0.36901 1.4628825,1.02797 0.5930605,0.65895 0.8961803,1.59467 0.3031198,0.93572 0.3031198,2.05594 l 0,8.54008 -1.0411506,0 z m -5.0344246,-1.43653 q 0.6194187,0 1.1334045,-0.11861 0.5139858,-0.13179 0.9620759,-0.35584 0.4612693,-0.23722 0.8698221,-0.5667 0.4217319,-0.34266 0.8171055,-0.76439 l 0,-2.76761 q -1.621032,0.0527 -2.7676156,0.26358 -1.1334045,0.19769 -1.8582562,0.52716 -0.7116726,0.32948 -1.0411506,0.77757 -0.316299,0.44809 -0.316299,1.00162 0,0.52716 0.1713286,0.90935 0.1713286,0.3822 0.4612693,0.6326 0.3031198,0.23723 0.6984935,0.35584 0.4085527,0.10543 0.869822,0.10543 z" />
    <path
       id="path160"
       style=""
       d="m 13.351378,194.299 0,-13.35045 1.34427,0 q 0.382195,0 0.527165,0.14497 0.14497,0.14497 0.197687,0.5008 l 0.14497,2.02959 q 0.632598,-1.37063 1.555136,-2.13502 0.935718,-0.77757 2.266809,-0.77757 0.421732,0 0.803927,0.0923 0.395374,0.0922 0.698493,0.28994 l -0.171328,1.75282 q -0.07907,0.32948 -0.395374,0.32948 -0.184508,0 -0.540344,-0.0791 -0.355836,-0.0791 -0.803926,-0.0791 -0.632598,0 -1.133405,0.19768 -0.500806,0.18451 -0.89618,0.55353 -0.382195,0.35583 -0.685314,0.883 -0.30312,0.52716 -0.553524,1.21248 l 0,8.43464 -2.359062,0 z" />
    <path
       id="path162"
       style=""
       d="m 22.926832,194.299 0,-13.35045 1.410166,0 q 0.500807,0 0.619419,0.48762 l 0.171329,1.37063 q 0.73803,-0.90936 1.660569,-1.48924 0.922539,-0.57988 2.135018,-0.57988 1.34427,0 2.174555,0.75121 0.843464,0.75121 1.212479,2.02958 0.289941,-0.72485 0.738031,-1.25201 0.461269,-0.52717 1.027971,-0.86982 0.566703,-0.34266 1.199301,-0.50081 0.645777,-0.15815 1.304733,-0.15815 1.054329,0 1.871435,0.34266 0.830285,0.32947 1.396987,0.97525 0.579881,0.64578 0.883001,1.59468 0.30312,0.93571 0.30312,2.14819 l 0,8.50054 -2.359063,0 0,-8.50054 q 0,-1.56831 -0.685314,-2.37224 -0.685315,-0.81711 -1.976869,-0.81711 -0.579881,0 -1.107046,0.21087 -0.513986,0.19769 -0.909359,0.59306 -0.395374,0.39537 -0.632598,1.00161 -0.224045,0.59306 -0.224045,1.38381 l 0,8.50054 -2.359063,0 0,-8.50054 q 0,-1.60785 -0.645777,-2.3986 -0.645777,-0.79075 -1.884614,-0.79075 -0.869822,0 -1.607853,0.47445 -0.738031,0.46127 -1.35745,1.2652 l 0,9.95024 -2.359063,0 z" />
    <path
       id="path164"
       style=""
       d="m 53.087664,194.299 q -0.342657,0 -0.527165,-0.10544 -0.184508,-0.11861 -0.289941,-0.44809 l -0.263582,-1.25201 q -0.527165,0.47444 -1.041151,0.85664 -0.500806,0.36901 -1.054329,0.6326 -0.540344,0.2504 -1.172942,0.38219 -0.619419,0.14497 -1.383808,0.14497 -0.777568,0 -1.462883,-0.21086 -0.685314,-0.22405 -1.1993,-0.65896 -0.500806,-0.43491 -0.803926,-1.09387 -0.289941,-0.67213 -0.289941,-1.58149 0,-0.79075 0.434911,-1.5156 0.434911,-0.73803 1.410166,-1.30473 0.975255,-0.56671 2.543571,-0.92254 1.568315,-0.36902 3.848303,-0.42173 l 0,-1.04116 q 0,-1.55513 -0.672135,-2.34588 -0.672135,-0.80393 -1.963689,-0.80393 -0.869822,0 -1.462883,0.22405 -0.579881,0.21087 -1.014792,0.48763 -0.421732,0.26358 -0.738031,0.48762 -0.30312,0.21087 -0.606239,0.21087 -0.237225,0 -0.408553,-0.11861 -0.171329,-0.13179 -0.289941,-0.3163 l -0.421732,-0.75121 q 1.107047,-1.06751 2.385421,-1.59467 1.278375,-0.52717 2.833512,-0.52717 1.120225,0 1.990047,0.36902 0.869822,0.36901 1.462883,1.02797 0.59306,0.65895 0.89618,1.59467 0.30312,0.93572 0.30312,2.05594 l 0,8.54008 -1.041151,0 z m -5.034425,-1.43653 q 0.619419,0 1.133405,-0.11861 0.513986,-0.13179 0.962076,-0.35584 0.461269,-0.23722 0.869822,-0.5667 0.421732,-0.34266 0.817105,-0.76439 l 0,-2.76761 q -1.621032,0.0527 -2.767615,0.26358 -1.133405,0.19769 -1.858256,0.52716 -0.711673,0.32948 -1.041151,0.77757 -0.316299,0.44809 -0.316299,1.00162 0,0.52716 0.171329,0.90935 0.171328,0.3822 0.461269,0.6326 0.30312,0.23723 0.698493,0.35584 0.408553,0.10543 0.869822,0.10543 z" />
    <path
       id="path166"
       style=""
       d="m 67.323587,194.299 q -0.500806,0 -0.632598,-0.48763 l -0.210866,-1.62103 q -0.856643,1.04115 -1.963689,1.67374 -1.093867,0.61942 -2.517212,0.61942 -1.146584,0 -2.082301,-0.43491 -0.935718,-0.44809 -1.594674,-1.30473 -0.658956,-0.85664 -1.014793,-2.13502 -0.355836,-1.27837 -0.355836,-2.93894 0,-1.47606 0.395374,-2.74126 0.395374,-1.27837 1.133404,-2.21409 0.738031,-0.93572 1.80554,-1.46288 1.080688,-0.54035 2.424958,-0.54035 1.225659,0 2.095481,0.42173 0.883001,0.40856 1.568315,1.15977 l 0,-7.40667 2.345884,0 0,19.41285 -1.396987,0 z m -4.559976,-1.71329 q 1.159763,0 2.016406,-0.52716 0.869822,-0.52717 1.594673,-1.48925 l 0,-6.44459 q -0.658956,-0.86982 -1.423345,-1.22565 -0.764389,-0.35584 -1.713286,-0.35584 -1.858256,0 -2.859869,1.33109 -1.001613,1.33109 -1.001613,3.79559 0,1.30473 0.224045,2.24045 0.224045,0.92254 0.658956,1.52878 0.434911,0.59306 1.067509,0.86982 0.632598,0.27676 1.436524,0.27676 z" />
    <path
       id="path168"
       style=""
       d="m 74.929177,180.94855 0,13.35045 -2.345884,0 0,-13.35045 2.345884,0 z m 0.500807,-4.19097 q 0,0.34266 -0.144971,0.64578 -0.131791,0.28994 -0.369015,0.52717 -0.224045,0.22404 -0.540344,0.35583 -0.30312,0.13179 -0.645777,0.13179 -0.342657,0 -0.645777,-0.13179 -0.289941,-0.13179 -0.513986,-0.35583 -0.224045,-0.23723 -0.355836,-0.52717 -0.131791,-0.30312 -0.131791,-0.64578 0,-0.34265 0.131791,-0.64577 0.131791,-0.3163 0.355836,-0.54035 0.224045,-0.23722 0.513986,-0.36901 0.30312,-0.13179 0.645777,-0.13179 0.342657,0 0.645777,0.13179 0.316299,0.13179 0.540344,0.36901 0.237224,0.22405 0.369015,0.54035 0.144971,0.30312 0.144971,0.64577 z" />
    <path
       id="path170"
       style=""
       d="m 81.208614,174.88615 0,19.41285 -2.345884,0 0,-19.41285 2.345884,0 z" />
    <path
       id="path172"
       style=""
       d="m 87.437808,174.88615 0,19.41285 -2.345883,0 0,-19.41285 2.345883,0 z" />
    <path
       id="path174"
       style=""
       d="m 96.86953,180.73768 q 1.462882,0 2.635824,0.48763 1.172946,0.48762 2.003226,1.3838 0.83029,0.89619 1.2652,2.17456 0.44809,1.2652 0.44809,2.83351 0,1.5815 -0.44809,2.84669 -0.43491,1.2652 -1.2652,2.16138 -0.83028,0.89618 -2.003226,1.38381 -1.172942,0.47444 -2.635824,0.47444 -1.476062,0 -2.662183,-0.47444 -1.172942,-0.48763 -2.003227,-1.38381 -0.830284,-0.89618 -1.278374,-2.16138 -0.434911,-1.26519 -0.434911,-2.84669 0,-1.56831 0.434911,-2.83351 0.44809,-1.27837 1.278374,-2.17456 0.830285,-0.89618 2.003227,-1.3838 1.186121,-0.48763 2.662183,-0.48763 z m 0,11.91393 q 1.976868,0 2.952123,-1.31792 0.975257,-1.33109 0.975257,-3.70333 0,-2.38542 -0.975257,-3.71651 -0.975255,-1.33109 -2.952123,-1.33109 -1.001614,0 -1.752824,0.34265 -0.73803,0.34266 -1.238837,0.98844 -0.487628,0.64577 -0.738031,1.59467 -0.237224,0.93572 -0.237224,2.12184 0,2.37224 0.975255,3.70333 0.988434,1.31792 2.991661,1.31792 z" />
  </g>
  <g
     id="text2503"
     style="font-style:normal;font-variant:normal;font-weight:normal;font-stretch:normal;font-size:26.35824394px;line-height:125%;font-family:Lato;-inkscape-font-specification:'Bitstream Vera Sans';text-align:start;writing-mode:lr-tb;text-anchor:start;fill:#000000;fill-opacity:1;stroke:none"
     transform="matrix(0,-1,1,0,0,0)">
    <path
       id="path177"
       style=""
       d="m -123.62357,233.00607 0,-19.41284 2.35906,0 0,7.85475 q 0.85665,-0.90936 1.8978,-1.4497 1.04115,-0.55352 2.3986,-0.55352 1.09386,0 1.92415,0.36901 0.84346,0.35584 1.39698,1.02797 0.56671,0.65896 0.85665,1.59468 0.28994,0.93571 0.28994,2.06912 l 0,8.50053 -2.35906,0 0,-8.50053 q 0,-1.5156 -0.6985,-2.34588 -0.68531,-0.84347 -2.09548,-0.84347 -1.05433,0 -1.96369,0.50081 -0.89618,0.50081 -1.64739,1.35745 l 0,9.83162 -2.35906,0 z" />
    <path
       id="path179"
       style=""
       d="m -106.68593,219.65562 0,8.51372 q 0,1.51559 0.68532,2.34588 0.69849,0.83028 2.12184,0.83028 1.02797,0 1.93733,-0.48762 0.90936,-0.48763 1.67375,-1.35745 l 0,-9.84481 2.345879,0 0,13.35045 -1.396987,0 q -0.500807,0 -0.632598,-0.48762 l -0.184504,-1.43653 q -0.86983,0.96208 -1.95051,1.55514 -1.08069,0.57988 -2.47768,0.57988 -1.09387,0 -1.93733,-0.35584 -0.83028,-0.36901 -1.39699,-1.02797 -0.5667,-0.65895 -0.85664,-1.59467 -0.27676,-0.93572 -0.27676,-2.06912 l 0,-8.51372 2.34588,0 z" />
    <path
       id="path181"
       style=""
       d="m -94.22795,233.00607 0,-13.35045 1.410166,0 q 0.500806,0 0.619419,0.48763 l 0.171328,1.37063 q 0.738031,-0.90936 1.660569,-1.48924 0.922539,-0.57988 2.135018,-0.57988 1.344271,0 2.174555,0.75121 0.843464,0.75121 1.21248,2.02958 0.28994,-0.72485 0.73803,-1.25202 0.46127,-0.52716 1.027972,-0.86982 0.566702,-0.34265 1.1993,-0.5008 0.645777,-0.15815 1.304733,-0.15815 1.05433,0 1.871435,0.34265 0.830285,0.32948 1.396987,0.97526 0.579882,0.64578 0.883002,1.59467 0.303119,0.93572 0.303119,2.1482 l 0,8.50053 -2.359062,0 0,-8.50053 q 0,-1.56832 -0.685315,-2.37224 -0.685314,-0.81711 -1.976868,-0.81711 -0.579881,0 -1.107046,0.21087 -0.513986,0.19768 -0.90936,0.59306 -0.395373,0.39537 -0.632598,1.00161 -0.224045,0.59306 -0.224045,1.38381 l 0,8.50053 -2.359063,0 0,-8.50053 q 0,-1.60785 -0.645777,-2.3986 -0.645776,-0.79075 -1.884614,-0.79075 -0.869822,0 -1.607853,0.47445 -0.738031,0.46127 -1.357449,1.2652 l 0,9.95023 -2.359063,0 z" />
    <path
       id="path183"
       style=""
       d="m -64.067117,233.00607 q -0.342657,0 -0.527164,-0.10543 -0.184508,-0.11861 -0.289941,-0.44809 l -0.263583,-1.25202 q -0.527164,0.47445 -1.04115,0.85665 -0.500807,0.36901 -1.05433,0.63259 -0.540344,0.25041 -1.172942,0.3822 -0.619419,0.14497 -1.383808,0.14497 -0.777568,0 -1.462882,-0.21087 -0.685315,-0.22404 -1.1993,-0.65895 -0.500807,-0.43491 -0.803927,-1.09387 -0.28994,-0.67214 -0.28994,-1.58149 0,-0.79075 0.434911,-1.5156 0.434911,-0.73803 1.410166,-1.30474 0.975255,-0.5667 2.54357,-0.92254 1.568316,-0.36901 3.848304,-0.42173 l 0,-1.04115 q 0,-1.55513 -0.672135,-2.34588 -0.672136,-0.80393 -1.96369,-0.80393 -0.869822,0 -1.462882,0.22405 -0.579881,0.21086 -1.014793,0.48762 -0.421731,0.26359 -0.73803,0.48763 -0.30312,0.21087 -0.60624,0.21087 -0.237224,0 -0.408553,-0.11861 -0.171328,-0.1318 -0.28994,-0.3163 l -0.421732,-0.75121 q 1.107046,-1.06751 2.385421,-1.59468 1.278375,-0.52716 2.833511,-0.52716 1.120225,0 1.990047,0.36901 0.869822,0.36902 1.462883,1.02798 0.59306,0.65895 0.89618,1.59467 0.30312,0.93572 0.30312,2.05594 l 0,8.54007 -1.041151,0 z m -5.034424,-1.43652 q 0.619419,0 1.133404,-0.11861 0.513986,-0.13179 0.962076,-0.35584 0.461269,-0.23722 0.869822,-0.5667 0.421732,-0.34266 0.817106,-0.76439 l 0,-2.76762 q -1.621032,0.0527 -2.767616,0.26359 -1.133404,0.19768 -1.858256,0.52716 -0.711673,0.32948 -1.041151,0.77757 -0.316299,0.44809 -0.316299,1.00161 0,0.52717 0.171329,0.90936 0.171329,0.3822 0.461269,0.6326 0.30312,0.23722 0.698494,0.35584 0.408553,0.10543 0.869822,0.10543 z" />
    <path
       id="path185"
       style=""
       d="m -59.478315,233.00607 0,-13.35045 1.410167,0 q 0.500806,0 0.619418,0.48763 l 0.184508,1.4497 q 0.869822,-0.96207 1.95051,-1.55513 1.080688,-0.59306 2.490854,-0.59306 1.093867,0 1.924152,0.36901 0.843464,0.35584 1.396987,1.02797 0.566702,0.65896 0.856643,1.59468 0.28994,0.93571 0.28994,2.06912 l 0,8.50053 -2.359062,0 0,-8.50053 q 0,-1.5156 -0.698494,-2.34588 -0.685314,-0.84347 -2.09548,-0.84347 -1.05433,0 -1.963689,0.50081 -0.896181,0.50081 -1.647391,1.35745 l 0,9.83162 -2.359063,0 z" />
  </g>
  <g
     id="text2559"
     style="font-style:normal;font-variant:normal;font-weight:normal;font-stretch:normal;font-size:28px;line-height:125%;font-family:LMRoman10;-inkscape-font-specification:LMRoman10;text-align:start;writing-mode:lr-tb;text-anchor:start;fill:#000000;fill-opacity:1;stroke:none">
    <path
       id="path188"
       style=""
       d="m 219.58608,193.29199 c 0,-0.812 -0.672,-1.484 -1.484,-1.484 -0.812,0 -1.484,0.672 -1.484,1.484 0,0.812 0.672,1.484 1.484,1.484 0.812,0 1.484,-0.672 1.484,-1.484 z" />
    <path
       id="path190"
       style=""
       d="m 235.16371,190.15599 0,-0.868 -2.8,0 0,-12.74 c 0,-0.56 0,-0.728 -0.448,-0.728 -0.252,0 -0.336,0 -0.56,0.336 l -8.596,13.132 0,0.868 7.448,0 0,2.436 c 0,1.008 -0.056,1.316 -2.128,1.316 l -0.588,0 0,0.868 c 1.148,-0.084 2.604,-0.084 3.78,-0.084 1.176,0 2.66,0 3.808,0.084 l 0,-0.868 -0.588,0 c -2.072,0 -2.128,-0.308 -2.128,-1.316 l 0,-2.436 2.8,0 z m -4.788,-0.868 -6.832,0 6.832,-10.444 0,10.444 z" />
  </g>
  <g
     id="text2465"
     style="font-style:normal;font-variant:normal;font-weight:normal;font-stretch:normal;font-size:26.35824394px;line-height:125%;font-family:Lato;-inkscape-font-specification:'Bitstream Vera Sans';text-align:start;writing-mode:lr-tb;text-anchor:start;fill:#000000;fill-opacity:1;stroke:none">
    <path
       id="path193"
       style=""
       d="m 29.347121,255.98503 0,-19.41285 2.359063,0 0,7.85476 q 0.856643,-0.90936 1.897793,-1.4497 1.041151,-0.55353 2.398601,-0.55353 1.093867,0 1.924151,0.36902 0.843464,0.35584 1.396987,1.02797 0.566703,0.65896 0.856643,1.59468 0.289941,0.93571 0.289941,2.06912 l 0,8.50053 -2.359063,0 0,-8.50053 q 0,-1.5156 -0.698493,-2.34589 -0.685315,-0.84346 -2.095481,-0.84346 -1.054329,0 -1.963689,0.50081 -0.89618,0.5008 -1.64739,1.35745 l 0,9.83162 -2.359063,0 z" />
    <path
       id="path195"
       style=""
       d="m 46.284764,242.63458 0,8.51371 q 0,1.5156 0.685315,2.34589 0.698493,0.83028 2.121838,0.83028 1.027972,0 1.937331,-0.48763 0.90936,-0.48762 1.673749,-1.35745 l 0,-9.8448 2.345883,0 0,13.35045 -1.396986,0 q -0.500807,0 -0.632598,-0.48763 l -0.184508,-1.43652 q -0.869822,0.96208 -1.95051,1.55514 -1.080688,0.57988 -2.477675,0.57988 -1.093867,0 -1.937331,-0.35584 -0.830285,-0.36901 -1.396987,-1.02797 -0.566702,-0.65896 -0.856643,-1.59467 -0.276761,-0.93572 -0.276761,-2.06913 l 0,-8.51371 2.345883,0 z" />
    <path
       id="path197"
       style=""
       d="m 58.742741,255.98503 0,-13.35045 1.410166,0 q 0.500807,0 0.619419,0.48763 l 0.171329,1.37063 q 0.738031,-0.90936 1.660569,-1.48924 0.922539,-0.57989 2.135018,-0.57989 1.34427,0 2.174555,0.75121 0.843464,0.75121 1.212479,2.02959 0.289941,-0.72485 0.738031,-1.25202 0.461269,-0.52716 1.027972,-0.86982 0.566702,-0.34266 1.1993,-0.50081 0.645777,-0.15815 1.304733,-0.15815 1.05433,0 1.871435,0.34266 0.830285,0.32948 1.396987,0.97526 0.579881,0.64577 0.883001,1.59467 0.30312,0.93572 0.30312,2.1482 l 0,8.50053 -2.359063,0 0,-8.50053 q 0,-1.56832 -0.685314,-2.37224 -0.685314,-0.81711 -1.976868,-0.81711 -0.579882,0 -1.107047,0.21087 -0.513985,0.19768 -0.909359,0.59306 -0.395374,0.39537 -0.632598,1.00161 -0.224045,0.59306 -0.224045,1.38381 l 0,8.50053 -2.359063,0 0,-8.50053 q 0,-1.60786 -0.645777,-2.3986 -0.645777,-0.79075 -1.884614,-0.79075 -0.869822,0 -1.607853,0.47445 -0.738031,0.46127 -1.35745,1.26519 l 0,9.95024 -2.359063,0 z" />
    <path
       id="path199"
       style=""
       d="m 88.903575,255.98503 q -0.342657,0 -0.527165,-0.10543 -0.184508,-0.11861 -0.28994,-0.44809 l -0.263583,-1.25202 q -0.527165,0.47445 -1.041151,0.85664 -0.500806,0.36902 -1.054329,0.6326 -0.540344,0.25041 -1.172942,0.3822 -0.619419,0.14497 -1.383808,0.14497 -0.777568,0 -1.462883,-0.21087 -0.685314,-0.22404 -1.1993,-0.65895 -0.500806,-0.43492 -0.803926,-1.09387 -0.289941,-0.67214 -0.289941,-1.5815 0,-0.79074 0.434911,-1.5156 0.434911,-0.73803 1.410166,-1.30473 0.975255,-0.5667 2.543571,-0.92254 1.568315,-0.36901 3.848303,-0.42173 l 0,-1.04115 q 0,-1.55514 -0.672135,-2.34588 -0.672135,-0.80393 -1.963689,-0.80393 -0.869822,0 -1.462882,0.22405 -0.579882,0.21086 -1.014793,0.48762 -0.421732,0.26358 -0.738031,0.48763 -0.303119,0.21087 -0.606239,0.21087 -0.237224,0 -0.408553,-0.11862 -0.171329,-0.13179 -0.289941,-0.3163 l -0.421732,-0.7512 q 1.107047,-1.06751 2.385421,-1.59468 1.278375,-0.52716 2.833512,-0.52716 1.120225,0 1.990047,0.36901 0.869822,0.36902 1.462883,1.02797 0.59306,0.65896 0.89618,1.59468 0.30312,0.93571 0.30312,2.05594 l 0,8.54007 -1.041151,0 z m -5.034425,-1.43652 q 0.619419,0 1.133405,-0.11862 0.513986,-0.13179 0.962076,-0.35583 0.461269,-0.23723 0.869822,-0.5667 0.421732,-0.34266 0.817105,-0.76439 l 0,-2.76762 q -1.621032,0.0527 -2.767615,0.26358 -1.133405,0.19769 -1.858256,0.52717 -0.711673,0.32948 -1.041151,0.77757 -0.316299,0.44809 -0.316299,1.00161 0,0.52717 0.171329,0.90936 0.171328,0.38219 0.461269,0.6326 0.30312,0.23722 0.698493,0.35583 0.408553,0.10544 0.869822,0.10544 z" />
    <path
       id="path201"
       style=""
       d="m 93.492377,255.98503 0,-13.35045 1.410166,0 q 0.500807,0 0.619419,0.48763 l 0.184508,1.4497 q 0.869822,-0.96207 1.95051,-1.55513 1.080688,-0.59307 2.49085,-0.59307 1.09387,0 1.92416,0.36902 0.84346,0.35584 1.39698,1.02797 0.5667,0.65896 0.85665,1.59468 0.28994,0.93571 0.28994,2.06912 l 0,8.50053 -2.35907,0 0,-8.50053 q 0,-1.5156 -0.69849,-2.34589 -0.68531,-0.84346 -2.095481,-0.84346 -1.054329,0 -1.963689,0.50081 -0.89618,0.5008 -1.64739,1.35745 l 0,9.83162 -2.359063,0 z" />
  </g>
  <g
     id="text2499"
     style="font-style:normal;font-variant:normal;font-weight:normal;font-stretch:normal;font-size:26.35824394px;line-height:125%;font-family:Lato;-inkscape-font-specification:'Bitstream Vera Sans';text-align:start;writing-mode:lr-tb;text-anchor:start;fill:#000000;fill-opacity:1;stroke:none"
     transform="matrix(0,-1,1,0,0,0)">
    <path
       id="path204"
       style=""
       d="m -124.46705,292.52875 0,-13.35045 1.34427,0 q 0.3822,0 0.52717,0.14497 0.14497,0.14497 0.19769,0.5008 l 0.14497,2.02959 q 0.63259,-1.37063 1.55513,-2.13502 0.93572,-0.77757 2.26681,-0.77757 0.42173,0 0.80393,0.0923 0.39537,0.0923 0.69849,0.28994 l -0.17133,1.75282 q -0.0791,0.32948 -0.39537,0.32948 -0.18451,0 -0.54034,-0.0791 -0.35584,-0.0791 -0.80393,-0.0791 -0.6326,0 -1.13341,0.19769 -0.5008,0.1845 -0.89618,0.55352 -0.38219,0.35584 -0.68531,0.883 -0.30312,0.52717 -0.55352,1.21248 l 0,8.43464 -2.35907,0 z" />
    <path
       id="path206"
       style=""
       d="m -106.61016,292.52875 q -0.34266,0 -0.52716,-0.10544 -0.18451,-0.11861 -0.28995,-0.44809 l -0.26358,-1.25201 q -0.52716,0.47445 -1.04115,0.85664 -0.50081,0.36902 -1.05433,0.6326 -0.54034,0.2504 -1.17294,0.38219 -0.61942,0.14497 -1.38381,0.14497 -0.77757,0 -1.46288,-0.21086 -0.68531,-0.22405 -1.1993,-0.65896 -0.50081,-0.43491 -0.80393,-1.09387 -0.28994,-0.67213 -0.28994,-1.58149 0,-0.79075 0.43491,-1.5156 0.43491,-0.73803 1.41017,-1.30473 0.97525,-0.5667 2.54357,-0.92254 1.56832,-0.36902 3.8483,-0.42173 l 0,-1.04115 q 0,-1.55514 -0.67213,-2.34589 -0.67214,-0.80392 -1.96369,-0.80392 -0.86982,0 -1.46288,0.22404 -0.57988,0.21087 -1.0148,0.48763 -0.42173,0.26358 -0.73803,0.48763 -0.30312,0.21086 -0.60624,0.21086 -0.23722,0 -0.40855,-0.11861 -0.17133,-0.13179 -0.28994,-0.3163 l -0.42173,-0.75121 q 1.10704,-1.06751 2.38542,-1.59467 1.27837,-0.52717 2.83351,-0.52717 1.12023,0 1.99005,0.36902 0.86982,0.36901 1.46288,1.02797 0.59306,0.65896 0.89618,1.59467 0.30312,0.93572 0.30312,2.05595 l 0,8.54007 -1.04115,0 z m -5.03442,-1.43653 q 0.61941,0 1.1334,-0.11861 0.51399,-0.13179 0.96208,-0.35584 0.46127,-0.23722 0.86982,-0.5667 0.42173,-0.34265 0.8171,-0.76439 l 0,-2.76761 q -1.62103,0.0527 -2.76761,0.26358 -1.13341,0.19769 -1.85826,0.52717 -0.71167,0.32947 -1.04115,0.77756 -0.3163,0.44809 -0.3163,1.00162 0,0.52716 0.17133,0.90936 0.17133,0.38219 0.46127,0.63259 0.30312,0.23723 0.69849,0.35584 0.40856,0.10543 0.86983,0.10543 z" />
    <path
       id="path208"
       style=""
       d="m -98.077091,292.73961 q -1.581494,0 -2.438139,-0.883 -0.84346,-0.883 -0.84346,-2.54357 l 0,-8.17105 -1.60785,0 q -0.21087,0 -0.35584,-0.11862 -0.14497,-0.13179 -0.14497,-0.39537 l 0,-0.93572 2.18773,-0.27676 0.54035,-4.12506 q 0.0395,-0.19769 0.17133,-0.3163 0.14497,-0.13179 0.36901,-0.13179 l 1.186122,0 0,4.59951 3.861482,0 0,1.70011 -3.861482,0 0,8.0129 q 0,0.84347 0.408552,1.25202 0.408553,0.40855 1.05433,0.40855 0.369016,0 0.632598,-0.0922 0.276762,-0.10544 0.474448,-0.22405 0.197687,-0.11861 0.329479,-0.21086 0.14497,-0.10544 0.250403,-0.10544 0.184508,0 0.329478,0.22405 l 0.685314,1.12022 q -0.606239,0.56671 -1.462882,0.89618 -0.856643,0.3163 -1.766003,0.3163 z" />
  </g>
  <g
     id="text2563"
     style="font-style:normal;font-variant:normal;font-weight:normal;font-stretch:normal;font-size:28px;line-height:125%;font-family:LMRoman10;-inkscape-font-specification:LMRoman10;text-align:start;writing-mode:lr-tb;text-anchor:start;fill:#000000;fill-opacity:1;stroke:none">
    <path
       id="path211"
       style=""
       d="m 277.87441,193.7376 c 0,-0.812 -0.672,-1.484 -1.484,-1.484 -0.812,0 -1.484,0.672 -1.484,1.484 0,0.812 0.672,1.484 1.484,1.484 0.812,0 1.484,-0.672 1.484,-1.484 z" />
    <path
       id="path213"
       style=""
       d="m 293.06004,190.4336 c 0,-2.296 -1.764,-4.48 -4.676,-5.068 2.296,-0.756 3.92,-2.716 3.92,-4.928 0,-2.296 -2.464,-3.864 -5.152,-3.864 -2.828,0 -4.956,1.68 -4.956,3.808 0,0.924 0.616,1.456 1.428,1.456 0.868,0 1.428,-0.616 1.428,-1.428 0,-1.4 -1.316,-1.4 -1.736,-1.4 0.868,-1.372 2.716,-1.736 3.724,-1.736 1.148,0 2.688,0.616 2.688,3.136 0,0.336 -0.056,1.96 -0.784,3.192 -0.84,1.344 -1.792,1.428 -2.492,1.456 -0.224,0.028 -0.896,0.084 -1.092,0.084 -0.224,0.028 -0.42,0.056 -0.42,0.336 0,0.308 0.196,0.308 0.672,0.308 l 1.232,0 c 2.296,0 3.332,1.904 3.332,4.648 0,3.808 -1.932,4.62 -3.164,4.62 -1.204,0 -3.304,-0.476 -4.284,-2.128 0.98,0.14 1.848,-0.476 1.848,-1.54 0,-1.008 -0.756,-1.568 -1.568,-1.568 -0.672,0 -1.568,0.392 -1.568,1.624 0,2.548 2.604,4.396 5.656,4.396 3.416,0 5.964,-2.548 5.964,-5.404 z" />
  </g>
  <g
     id="text2571"
     style="font-style:normal;font-variant:normal;font-weight:normal;font-stretch:normal;font-size:28px;line-height:125%;font-family:LMRoman10;-inkscape-font-specification:LMRoman10;text-align:start;writing-mode:lr-tb;text-anchor:start;fill:#000000;fill-opacity:1;stroke:none">
    <path
       id="path216"
       style=""
       d="m 280.54842,256.40186 c 0,-0.812 -0.672,-1.484 -1.484,-1.484 -0.812,0 -1.484,0.672 -1.484,1.484 0,0.812 0.672,1.484 1.484,1.484 0.812,0 1.484,-0.672 1.484,-1.484 z" />
    <path
       id="path218"
       style=""
       d="m 294.67005,257.88586 0,-0.868 -0.896,0 c -2.52,0 -2.604,-0.308 -2.604,-1.344 l 0,-15.708 c 0,-0.672 0,-0.728 -0.644,-0.728 -1.736,1.792 -4.2,1.792 -5.096,1.792 l 0,0.868 c 0.56,0 2.212,0 3.668,-0.728 l 0,14.504 c 0,1.008 -0.084,1.344 -2.604,1.344 l -0.896,0 0,0.868 c 0.98,-0.084 3.416,-0.084 4.536,-0.084 1.12,0 3.556,0 4.536,0.084 z" />
  </g>
  <g
     id="text2461"
     style="font-style:normal;font-variant:normal;font-weight:normal;font-stretch:normal;font-size:26.35824394px;line-height:125%;font-family:Lato;-inkscape-font-specification:'Bitstream Vera Sans';text-align:start;writing-mode:lr-tb;text-anchor:start;fill:#000000;fill-opacity:1;stroke:none">
    <path
       id="path221"
       style=""
       d="m 81.412074,313.68164 0,-13.35045 1.34427,0 q 0.382195,0 0.527165,0.14497 0.144971,0.14497 0.197687,0.50081 l 0.14497,2.02958 q 0.632598,-1.37063 1.555137,-2.13502 0.935717,-0.77756 2.266809,-0.77756 0.421732,0 0.803926,0.0922 0.395374,0.0923 0.698494,0.28994 l -0.171329,1.75282 q -0.07907,0.32948 -0.395374,0.32948 -0.184507,0 -0.540344,-0.0791 -0.355836,-0.0791 -0.803926,-0.0791 -0.632598,0 -1.133404,0.19769 -0.500807,0.18451 -0.896181,0.55352 -0.382194,0.35584 -0.685314,0.883 -0.30312,0.52717 -0.553523,1.21248 l 0,8.43464 -2.359063,0 z" />
    <path
       id="path223"
       style=""
       d="m 99.26896,313.68164 q -0.342657,0 -0.527165,-0.10543 -0.184507,-0.11861 -0.28994,-0.44809 l -0.263583,-1.25202 q -0.527165,0.47445 -1.041151,0.85664 -0.500806,0.36902 -1.054329,0.6326 -0.540344,0.25041 -1.172942,0.3822 -0.619419,0.14497 -1.383808,0.14497 -0.777568,0 -1.462882,-0.21087 -0.685315,-0.22404 -1.199301,-0.65896 -0.500806,-0.43491 -0.803926,-1.09386 -0.289941,-0.67214 -0.289941,-1.5815 0,-0.79074 0.434911,-1.5156 0.434911,-0.73803 1.410166,-1.30473 0.975255,-0.5667 2.543571,-0.92254 1.568315,-0.36901 3.848304,-0.42173 l 0,-1.04115 q 0,-1.55514 -0.672136,-2.34588 -0.672135,-0.80393 -1.963689,-0.80393 -0.869822,0 -1.462882,0.22404 -0.579882,0.21087 -1.014793,0.48763 -0.421732,0.26358 -0.738031,0.48763 -0.303119,0.21087 -0.606239,0.21087 -0.237224,0 -0.408553,-0.11862 -0.171329,-0.13179 -0.289941,-0.3163 l -0.421732,-0.75121 q 1.107047,-1.0675 2.385421,-1.59467 1.278375,-0.52716 2.833512,-0.52716 1.120225,0 1.990047,0.36901 0.869822,0.36902 1.462883,1.02797 0.59306,0.65896 0.896179,1.59468 0.30312,0.93571 0.30312,2.05594 l 0,8.54007 -1.04115,0 z m -5.034424,-1.43652 q 0.619418,0 1.133404,-0.11862 0.513986,-0.13179 0.962076,-0.35583 0.461269,-0.23723 0.869822,-0.5667 0.421732,-0.34266 0.817106,-0.76439 l 0,-2.76762 q -1.621032,0.0527 -2.767616,0.26358 -1.133405,0.19769 -1.858256,0.52717 -0.711673,0.32948 -1.041151,0.77757 -0.316299,0.44809 -0.316299,1.00161 0,0.52716 0.171329,0.90936 0.171328,0.38219 0.461269,0.6326 0.30312,0.23722 0.698493,0.35583 0.408553,0.10544 0.869823,0.10544 z" />
    <path
       id="path225"
       style=""
       d="m 107.80203,313.89251 q -1.5815,0 -2.43814,-0.883 -0.84346,-0.88301 -0.84346,-2.54358 l 0,-8.17105 -1.60786,0 q -0.21086,0 -0.35583,-0.11861 -0.14497,-0.13179 -0.14497,-0.39538 l 0,-0.93571 2.18773,-0.27677 0.54035,-4.12506 q 0.0395,-0.19769 0.17133,-0.3163 0.14497,-0.13179 0.36901,-0.13179 l 1.18612,0 0,4.59951 3.86148,0 0,1.70011 -3.86148,0 0,8.01291 q 0,0.84346 0.40855,1.25201 0.40856,0.40855 1.05433,0.40855 0.36902,0 0.6326,-0.0922 0.27676,-0.10543 0.47445,-0.22404 0.19769,-0.11862 0.32948,-0.21087 0.14497,-0.10543 0.2504,-0.10543 0.18451,0 0.32948,0.22404 l 0.68531,1.12023 q -0.60624,0.5667 -1.46288,0.89618 -0.85664,0.3163 -1.766,0.3163 z" />
  </g>
  <g
     id="text2495"
     style="font-style:normal;font-variant:normal;font-weight:normal;font-stretch:normal;font-size:26.35824394px;line-height:125%;font-family:Lato;-inkscape-font-specification:'Bitstream Vera Sans';text-align:start;writing-mode:lr-tb;text-anchor:start;fill:#000000;fill-opacity:1;stroke:none"
     transform="matrix(0,-1,1,0,0,0)">
    <path
       id="path228"
       style=""
       d="m -114.12143,342.77328 q 0.86983,0 1.62104,0.19769 0.75121,0.18451 1.37062,0.55352 l 3.62426,0 0,0.86982 q 0,0.43492 -0.55352,0.55353 l -1.5156,0.21086 q 0.44809,0.85665 0.44809,1.91098 0,0.97525 -0.38219,1.77918 -0.36902,0.79075 -1.02797,1.35745 -0.65896,0.5667 -1.5815,0.86982 -0.92254,0.30312 -2.00323,0.30312 -0.94889,0 -1.77918,-0.22405 -0.42173,0.26359 -0.64577,0.56671 -0.21087,0.30312 -0.21087,0.59306 0,0.47445 0.38219,0.72485 0.39538,0.23722 1.02798,0.34266 0.63259,0.10543 1.43652,0.13179 0.81711,0.0264 1.66057,0.0922 0.85664,0.0527 1.66057,0.19769 0.8171,0.14497 1.4497,0.47445 0.6326,0.32947 1.01479,0.90936 0.39538,0.57988 0.39538,1.50242 0,0.85664 -0.43491,1.66056 -0.42173,0.80393 -1.22566,1.42335 -0.80393,0.6326 -1.97687,1.00161 -1.15976,0.3822 -2.62264,0.3822 -1.46289,0 -2.55675,-0.28994 -1.09387,-0.28994 -1.81872,-0.77757 -0.72485,-0.48763 -1.09387,-1.13341 -0.35584,-0.63259 -0.35584,-1.33109 0,-0.98843 0.61942,-1.67375 0.61942,-0.68531 1.68693,-1.09386 -0.59306,-0.26358 -0.93572,-0.6985 -0.34266,-0.44809 -0.34266,-1.1993 0,-0.28994 0.10544,-0.59306 0.10543,-0.3163 0.3163,-0.61942 0.22404,-0.30312 0.54034,-0.57988 0.3163,-0.27676 0.73803,-0.48762 -0.98843,-0.55353 -1.54196,-1.47607 -0.55352,-0.92253 -0.55352,-2.13501 0,-0.97526 0.36902,-1.76601 0.38219,-0.80392 1.05433,-1.35745 0.67213,-0.5667 1.59467,-0.86982 0.93572,-0.30312 2.04276,-0.30312 z m 4.2305,14.29935 q 0,-0.48763 -0.27676,-0.79075 -0.27676,-0.30312 -0.75121,-0.47445 -0.46127,-0.17132 -1.08069,-0.23722 -0.61942,-0.0791 -1.31791,-0.11861 -0.68531,-0.0395 -1.39699,-0.0791 -0.71167,-0.0395 -1.37063,-0.13179 -0.73803,0.34266 -1.21247,0.85665 -0.46127,0.51398 -0.46127,1.22565 0,0.44809 0.22404,0.83029 0.23723,0.39537 0.71167,0.67213 0.47445,0.28994 1.18612,0.44809 0.72486,0.17133 1.70011,0.17133 0.9489,0 1.70011,-0.17133 0.75121,-0.17133 1.26519,-0.48762 0.52717,-0.3163 0.80393,-0.75121 0.27676,-0.43492 0.27676,-0.96208 z m -4.2305,-7.24852 q 0.71168,0 1.25202,-0.19768 0.54034,-0.19769 0.90936,-0.55353 0.36902,-0.35583 0.55352,-0.84346 0.18451,-0.50081 0.18451,-1.09387 0,-1.22566 -0.75121,-1.95051 -0.73803,-0.72485 -2.1482,-0.72485 -1.42334,0 -2.17455,0.72485 -0.73803,0.72485 -0.73803,1.95051 0,0.59306 0.18451,1.09387 0.19768,0.48763 0.5667,0.84346 0.36901,0.35584 0.90936,0.55353 0.54034,0.19768 1.25201,0.19768 z" />
    <path
       id="path230"
       style=""
       d="m -102.60205,342.99733 0,13.35045 -2.34588,0 0,-13.35045 2.34588,0 z m 0.50081,-4.19096 q 0,0.34265 -0.14497,0.64577 -0.13179,0.28994 -0.36902,0.52717 -0.22404,0.22404 -0.54034,0.35584 -0.30312,0.13179 -0.64578,0.13179 -0.34266,0 -0.64578,-0.13179 -0.28994,-0.1318 -0.51398,-0.35584 -0.22405,-0.23723 -0.35584,-0.52717 -0.13179,-0.30312 -0.13179,-0.64577 0,-0.34266 0.13179,-0.64578 0.13179,-0.3163 0.35584,-0.54034 0.22404,-0.23723 0.51398,-0.36902 0.30312,-0.13179 0.64578,-0.13179 0.34266,0 0.64578,0.13179 0.3163,0.13179 0.54034,0.36902 0.23723,0.22404 0.36902,0.54034 0.14497,0.30312 0.14497,0.64578 z" />
    <path
       id="path232"
       style=""
       d="m -98.747567,356.34778 0,-13.35045 1.34427,0 q 0.382195,0 0.527165,0.14497 0.14497,0.14497 0.197687,0.5008 l 0.14497,2.02959 q 0.632598,-1.37063 1.555137,-2.13502 0.935717,-0.77757 2.266809,-0.77757 0.421731,0 0.803926,0.0923 0.395374,0.0923 0.698493,0.28994 l -0.171328,1.75282 q -0.07908,0.32948 -0.395374,0.32948 -0.184508,0 -0.540344,-0.0791 -0.355836,-0.0791 -0.803926,-0.0791 -0.632598,0 -1.133405,0.19769 -0.500806,0.1845 -0.89618,0.55352 -0.382195,0.35584 -0.685314,0.883 -0.30312,0.52717 -0.553523,1.21248 l 0,8.43464 -2.359063,0 z" />
    <path
       id="path234"
       style=""
       d="m -80.890683,356.34778 q -0.342657,0 -0.527165,-0.10543 -0.184508,-0.11862 -0.289941,-0.44809 l -0.263582,-1.25202 q -0.527165,0.47445 -1.041151,0.85664 -0.500806,0.36902 -1.054329,0.6326 -0.540344,0.2504 -1.172942,0.38219 -0.619419,0.14497 -1.383808,0.14497 -0.777568,0 -1.462883,-0.21086 -0.685314,-0.22405 -1.1993,-0.65896 -0.500806,-0.43491 -0.803926,-1.09386 -0.289941,-0.67214 -0.289941,-1.5815 0,-0.79075 0.434911,-1.5156 0.434911,-0.73803 1.410166,-1.30473 0.975255,-0.5667 2.543571,-0.92254 1.568315,-0.36902 3.848303,-0.42173 l 0,-1.04115 q 0,-1.55514 -0.672135,-2.34589 -0.672135,-0.80392 -1.963689,-0.80392 -0.869822,0 -1.462883,0.22404 -0.579881,0.21087 -1.014792,0.48763 -0.421732,0.26358 -0.738031,0.48763 -0.30312,0.21086 -0.606239,0.21086 -0.237225,0 -0.408553,-0.11861 -0.171329,-0.13179 -0.289941,-0.3163 l -0.421732,-0.75121 q 1.107046,-1.06751 2.385421,-1.59467 1.278375,-0.52717 2.833512,-0.52717 1.120225,0 1.990047,0.36902 0.869822,0.36901 1.462882,1.02797 0.593061,0.65896 0.896181,1.59467 0.30312,0.93572 0.30312,2.05595 l 0,8.54007 -1.041151,0 z m -5.034425,-1.43653 q 0.619419,0 1.133405,-0.11861 0.513986,-0.13179 0.962076,-0.35583 0.461269,-0.23723 0.869822,-0.56671 0.421732,-0.34265 0.817105,-0.76439 l 0,-2.76761 q -1.621032,0.0527 -2.767615,0.26358 -1.133405,0.19769 -1.858256,0.52717 -0.711673,0.32947 -1.041151,0.77756 -0.316299,0.44809 -0.316299,1.00162 0,0.52716 0.171329,0.90936 0.171328,0.38219 0.461269,0.63259 0.30312,0.23723 0.698493,0.35584 0.408553,0.10543 0.869822,0.10543 z" />
    <path
       id="path236"
       style=""
       d="m -75.63798,356.34778 0,-11.34723 -1.476062,-0.17132 q -0.276761,-0.0659 -0.461269,-0.19769 -0.171329,-0.14497 -0.171329,-0.40855 l 0,-0.96208 2.10866,0 0,-1.09387 q 0,-1.14658 0.316299,-2.02958 0.329478,-0.89618 0.922538,-1.50242 0.60624,-0.61942 1.449704,-0.93572 0.843464,-0.3163 1.897793,-0.3163 0.896181,0 1.647391,0.26358 l -0.05272,1.18613 q -0.02636,0.31629 -0.355836,0.34265 -0.316299,0.0264 -0.856643,0.0264 -0.60624,0 -1.107046,0.15815 -0.487628,0.14497 -0.843464,0.50081 -0.355836,0.35583 -0.553523,0.94889 -0.184508,0.57988 -0.184508,1.43653 l 0,1.01479 6.022859,0 0,-1.43652 q 0,-1.14659 0.316299,-2.02959 0.329478,-0.89618 0.922538,-1.50242 0.60624,-0.61942 1.449704,-0.93572 0.843463,-0.3163 1.897793,-0.3163 0.883001,0 1.64739,0.26359 l -0.05272,1.17294 q -0.02636,0.3163 -0.355836,0.34266 -0.316299,0.0263 -0.856643,0.0263 -0.60624,0 -1.107047,0.15815 -0.487627,0.15815 -0.843463,0.51399 -0.355837,0.35584 -0.553523,0.93572 -0.184508,0.57988 -0.184508,1.43652 l 0,1.37063 3.848303,0 0,1.70011 -3.769228,0 0,11.38676 -2.359063,0 0,-11.38676 -5.943784,0 0,11.38676 -2.359063,0 z" />
    <path
       id="path238"
       style=""
       d="m -53.895309,342.78646 q 1.199301,0 2.214093,0.40855 1.027971,0.39538 1.766002,1.15977 0.75121,0.75121 1.172942,1.87143 0.421732,1.10705 0.421732,2.53039 0,0.55353 -0.118612,0.73803 -0.118612,0.18451 -0.44809,0.18451 l -8.922266,0 q 0.02636,1.2652 0.342657,2.20092 0.316299,0.93571 0.869822,1.56831 0.553524,0.61942 1.317913,0.93572 0.764389,0.30312 1.713285,0.30312 0.883002,0 1.5156,-0.19769 0.645776,-0.21086 1.107046,-0.44809 0.461269,-0.23722 0.764389,-0.43491 0.316299,-0.21087 0.540344,-0.21087 0.289941,0 0.44809,0.22405 l 0.658956,0.85664 q -0.434911,0.52717 -1.041151,0.92254 -0.606239,0.3822 -1.304733,0.6326 -0.685314,0.2504 -1.423345,0.36901 -0.738031,0.1318 -1.462882,0.1318 -1.383808,0 -2.55675,-0.46127 -1.159763,-0.47445 -2.016406,-1.37063 -0.843463,-0.90936 -1.317912,-2.24045 -0.474448,-1.33109 -0.474448,-3.05756 0,-1.39699 0.421732,-2.60947 0.434911,-1.21247 1.238837,-2.09548 0.803927,-0.89618 1.963689,-1.39698 1.159763,-0.51399 2.609466,-0.51399 z m 0.05272,1.72647 q -1.700107,0 -2.675362,0.98843 -0.975255,0.97526 -1.212479,2.7149 l 7.301234,0 q 0,-0.81711 -0.237225,-1.48924 -0.224045,-0.68532 -0.672135,-1.17294 -0.434911,-0.50081 -1.067509,-0.76439 -0.632598,-0.27676 -1.436524,-0.27676 z" />
  </g>
  <g
     id="text2567"
     style="font-style:normal;font-variant:normal;font-weight:normal;font-stretch:normal;font-size:28px;line-height:125%;font-family:LMRoman10;-inkscape-font-specification:LMRoman10;text-align:start;writing-mode:lr-tb;text-anchor:start;fill:#000000;fill-opacity:1;stroke:none">
    <path
       id="path241"
       style=""
       d="m 342.23379,193.7376 c 0,-0.812 -0.672,-1.484 -1.484,-1.484 -0.812,0 -1.484,0.672 -1.484,1.484 0,0.812 0.672,1.484 1.484,1.484 0.812,0 1.484,-0.672 1.484,-1.484 z" />
    <path
       id="path243"
       style=""
       d="m 357.41941,190.4336 c 0,-2.296 -1.764,-4.48 -4.676,-5.068 2.296,-0.756 3.92,-2.716 3.92,-4.928 0,-2.296 -2.464,-3.864 -5.152,-3.864 -2.828,0 -4.956,1.68 -4.956,3.808 0,0.924 0.616,1.456 1.428,1.456 0.868,0 1.428,-0.616 1.428,-1.428 0,-1.4 -1.316,-1.4 -1.736,-1.4 0.868,-1.372 2.716,-1.736 3.724,-1.736 1.148,0 2.688,0.616 2.688,3.136 0,0.336 -0.056,1.96 -0.784,3.192 -0.84,1.344 -1.792,1.428 -2.492,1.456 -0.224,0.028 -0.896,0.084 -1.092,0.084 -0.224,0.028 -0.42,0.056 -0.42,0.336 0,0.308 0.196,0.308 0.672,0.308 l 1.232,0 c 2.296,0 3.332,1.904 3.332,4.648 0,3.808 -1.932,4.62 -3.164,4.62 -1.204,0 -3.304,-0.476 -4.284,-2.128 0.98,0.14 1.848,-0.476 1.848,-1.54 0,-1.008 -0.756,-1.568 -1.568,-1.568 -0.672,0 -1.568,0.392 -1.568,1.624 0,2.548 2.604,4.396 5.656,4.396 3.416,0 5.964,-2.548 5.964,-5.404 z" />
  </g>
  <g
     id="text2575"
     style="font-style:normal;font-variant:normal;font-weight:normal;font-stretch:normal;font-size:28px;line-height:125%;font-family:LMRoman10;-inkscape-font-specification:LMRoman10;text-align:start;writing-mode:lr-tb;text-anchor:start;fill:#000000;fill-opacity:1;stroke:none">
    <path
       id="path246"
       style=""
       d="m 340.9598,257.82987 c 0,-0.812 -0.672,-1.484 -1.484,-1.484 -0.812,0 -1.484,0.672 -1.484,1.484 0,0.812 0.672,1.484 1.484,1.484 0.812,0 1.484,-0.672 1.484,-1.484 z" />
    <path
       id="path248"
       style=""
       d="m 355.92143,254.44187 -0.7,0 c -0.14,0.84 -0.336,2.072 -0.616,2.492 -0.196,0.224 -2.044,0.224 -2.66,0.224 l -5.04,0 2.968,-2.884 c 4.368,-3.864 6.048,-5.376 6.048,-8.176 0,-3.192 -2.52,-5.432 -5.936,-5.432 -3.164,0 -5.236,2.576 -5.236,5.068 0,1.568 1.4,1.568 1.484,1.568 0.476,0 1.456,-0.336 1.456,-1.484 0,-0.728 -0.504,-1.456 -1.484,-1.456 -0.224,0 -0.28,0 -0.364,0.028 0.644,-1.82 2.156,-2.856 3.78,-2.856 2.548,0 3.752,2.268 3.752,4.564 0,2.24 -1.4,4.452 -2.94,6.188 l -5.376,5.992 c -0.308,0.308 -0.308,0.364 -0.308,1.036 l 10.388,0 0.784,-4.872 z" />
  </g>
  <g
     id="text2579"
     style="font-style:normal;font-variant:normal;font-weight:normal;font-stretch:normal;font-size:28px;line-height:125%;font-family:LMRoman10;-inkscape-font-specification:LMRoman10;text-align:start;writing-mode:lr-tb;text-anchor:start;fill:#000000;fill-opacity:1;stroke:none">
    <path
       id="path251"
       style=""
       d="m 340.9598,316.23814 c 0,-0.812 -0.672,-1.484 -1.484,-1.484 -0.812,0 -1.484,0.672 -1.484,1.484 0,0.812 0.672,1.484 1.484,1.484 0.812,0 1.484,-0.672 1.484,-1.484 z" />
    <path
       id="path253"
       style=""
       d="m 355.92143,312.85014 -0.7,0 c -0.14,0.84 -0.336,2.072 -0.616,2.492 -0.196,0.224 -2.044,0.224 -2.66,0.224 l -5.04,0 2.968,-2.884 c 4.368,-3.864 6.048,-5.376 6.048,-8.176 0,-3.192 -2.52,-5.432 -5.936,-5.432 -3.164,0 -5.236,2.576 -5.236,5.068 0,1.568 1.4,1.568 1.484,1.568 0.476,0 1.456,-0.336 1.456,-1.484 0,-0.728 -0.504,-1.456 -1.484,-1.456 -0.224,0 -0.28,0 -0.364,0.028 0.644,-1.82 2.156,-2.856 3.78,-2.856 2.548,0 3.752,2.268 3.752,4.564 0,2.24 -1.4,4.452 -2.94,6.188 l -5.376,5.992 c -0.308,0.308 -0.308,0.364 -0.308,1.036 l 10.388,0 0.784,-4.872 z" />
  </g>
</svg>
