<?xml version="1.0" encoding="UTF-8" standalone="no"?>
<svg
   xmlns:dc="http://purl.org/dc/elements/1.1/"
   xmlns:cc="http://creativecommons.org/ns#"
   xmlns:rdf="http://www.w3.org/1999/02/22-rdf-syntax-ns#"
   xmlns:svg="http://www.w3.org/2000/svg"
   xmlns="http://www.w3.org/2000/svg"
   id="svg2"
   viewBox="0 0 1007.3115 336.01724"
   height="336.01724"
   width="1007.3115"
   y="0px"
   x="0px"
   version="1.1">
  <metadata
     id="metadata73">
    <rdf:RDF>
      <cc:Work
         rdf:about="">
        <dc:format>image/svg+xml</dc:format>
        <dc:type
           rdf:resource="http://purl.org/dc/dcmitype/StillImage" />
        <dc:title />
      </cc:Work>
    </rdf:RDF>
  </metadata>
  <defs
     id="defs71">
    <marker
       style="overflow:visible"
       id="Arrow1Mend"
       refX="0"
       refY="0"
       orient="auto">
      <path
         transform="matrix(-0.4,0,0,-0.4,-4,0)"
         style="fill-rule:evenodd;stroke:#000000;stroke-width:1pt;marker-start:none"
         d="M 0,0 5,-5 -12.5,0 5,5 0,0 z"
         id="path3316" />
    </marker>
    <marker
       style="overflow:visible"
       id="Arrow1Lend"
       refX="0"
       refY="0"
       orient="auto">
      <path
         transform="matrix(-0.8,0,0,-0.8,-10,0)"
         style="fill-rule:evenodd;stroke:#000000;stroke-width:1pt;marker-start:none"
         d="M 0,0 5,-5 -12.5,0 5,5 0,0 z"
         id="path3310" />
    </marker>
  </defs>
  <desc
     id="desc6">Creator: FreeHEP Graphics2D Driver Producer: org.freehep.graphicsio.svg.SVGGraphics2D Revision: 12753  Source:  Date: Tuesday, February 17, 2009 4:12:33 PM PST</desc>
  <g
     transform="matrix(0.4746596,0,0,0.4746596,-38.535382,-225.33877)"
     id="g62"
     style="fill:none;stroke:#2d3680;stroke-width:10;stroke-linecap:round;stroke-linejoin:round;stroke-miterlimit:10;stroke-dasharray:none;stroke-dashoffset:0;stroke-opacity:0.50196078">
    <path
       style="stroke-width:10"
       d=""
       id="path64" />
  </g>
  <g
     transform="matrix(0.4746596,0,0,0.4746596,-38.535382,-225.33877)"
     id="g66"
     style="fill:#2d3680;fill-opacity:0.50196078;fill-rule:nonzero;stroke:none">
    <path
       d=""
       id="path68" />
  </g>
  <!-- default stroke -->
  <g
     id="text2484"
     style="font-style:normal;font-variant:normal;font-weight:normal;font-stretch:normal;font-size:26.35824394px;line-height:125%;font-family:Lato;-inkscape-font-specification:'Bitstream Vera Sans';text-align:start;writing-mode:lr-tb;text-anchor:start;fill:#000000;fill-opacity:1;stroke:none">
    <path
       id="path46"
       style=""
       d="m 575.54031,335.64401 q -0.34265,0 -0.52716,-0.10543 -0.18451,-0.11861 -0.28994,-0.44809 l -0.26359,-1.25202 q -0.52716,0.47445 -1.04115,0.85665 -0.5008,0.36901 -1.05433,0.63259 -0.54034,0.25041 -1.17294,0.3822 -0.61942,0.14497 -1.38381,0.14497 -0.77756,0 -1.46288,-0.21087 -0.68531,-0.22404 -1.1993,-0.65895 -0.5008,-0.43491 -0.80392,-1.09387 -0.28994,-0.67214 -0.28994,-1.5815 0,-0.79074 0.43491,-1.51559 0.43491,-0.73804 1.41016,-1.30474 0.97526,-0.5667 2.54357,-0.92254 1.56832,-0.36901 3.84831,-0.42173 l 0,-1.04115 q 0,-1.55513 -0.67214,-2.34588 -0.67213,-0.80393 -1.96369,-0.80393 -0.86982,0 -1.46288,0.22405 -0.57988,0.21086 -1.01479,0.48762 -0.42173,0.26359 -0.73803,0.48763 -0.30312,0.21087 -0.60624,0.21087 -0.23723,0 -0.40856,-0.11861 -0.17132,-0.1318 -0.28994,-0.3163 l -0.42173,-0.75121 q 1.10705,-1.06751 2.38542,-1.59468 1.27838,-0.52716 2.83351,-0.52716 1.12023,0 1.99005,0.36901 0.86982,0.36902 1.46288,1.02797 0.59306,0.65896 0.89618,1.59468 0.30312,0.93572 0.30312,2.05594 l 0,8.54007 -1.04115,0 z m -5.03442,-1.43652 q 0.61942,0 1.1334,-0.11861 0.51399,-0.1318 0.96208,-0.35584 0.46127,-0.23722 0.86982,-0.5667 0.42173,-0.34266 0.81711,-0.76439 l 0,-2.76762 q -1.62104,0.0527 -2.76762,0.26359 -1.1334,0.19768 -1.85826,0.52716 -0.71167,0.32948 -1.04115,0.77757 -0.3163,0.44809 -0.3163,1.00161 0,0.52717 0.17133,0.90936 0.17133,0.3822 0.46127,0.6326 0.30312,0.23722 0.6985,0.35584 0.40855,0.10543 0.86982,0.10543 z" />
    <path
       id="path48"
       style=""
       d="m 580.12912,335.64401 0,-13.35045 1.34427,0 q 0.38219,0 0.52716,0.14497 0.14497,0.14497 0.19769,0.50081 l 0.14497,2.02958 q 0.6326,-1.37063 1.55514,-2.13501 0.93572,-0.77757 2.26681,-0.77757 0.42173,0 0.80392,0.0923 0.39538,0.0923 0.6985,0.28994 l -0.17133,1.75283 q -0.0791,0.32947 -0.39538,0.32947 -0.1845,0 -0.54034,-0.0791 -0.35584,-0.0791 -0.80393,-0.0791 -0.63259,0 -1.1334,0.19769 -0.50081,0.18451 -0.89618,0.55352 -0.3822,0.35584 -0.68532,0.88301 -0.30312,0.52716 -0.55352,1.21247 l 0,8.43464 -2.35906,0 z" />
    <path
       id="path50"
       style=""
       d="m 589.70457,335.64401 0,-13.35045 1.41017,0 q 0.50081,0 0.61942,0.48763 l 0.17133,1.37063 q 0.73803,-0.90936 1.66057,-1.48924 0.92253,-0.57988 2.13501,-0.57988 1.34427,0 2.17456,0.75121 0.84346,0.75121 1.21248,2.02958 0.28994,-0.72485 0.73803,-1.25202 0.46127,-0.52716 1.02797,-0.86982 0.5667,-0.34266 1.1993,-0.5008 0.64578,-0.15815 1.30473,-0.15815 1.05433,0 1.87144,0.34265 0.83028,0.32948 1.39699,0.97526 0.57988,0.64578 0.883,1.59467 0.30312,0.93572 0.30312,2.1482 l 0,8.50053 -2.35907,0 0,-8.50053 q 0,-1.56832 -0.68531,-2.37224 -0.68531,-0.81711 -1.97687,-0.81711 -0.57988,0 -1.10704,0.21087 -0.51399,0.19768 -0.90936,0.59306 -0.39538,0.39537 -0.6326,1.00161 -0.22405,0.59306 -0.22405,1.38381 l 0,8.50053 -2.35906,0 0,-8.50053 q 0,-1.60785 -0.64578,-2.3986 -0.64577,-0.79075 -1.88461,-0.79075 -0.86982,0 -1.60785,0.47445 -0.73803,0.46127 -1.35745,1.2652 l 0,9.95023 -2.35907,0 z" />
    <path
       id="path52"
       style=""
       d="m 619.86541,335.64401 q -0.34266,0 -0.52717,-0.10543 -0.18451,-0.11861 -0.28994,-0.44809 l -0.26358,-1.25202 q -0.52717,0.47445 -1.04115,0.85665 -0.50081,0.36901 -1.05433,0.63259 -0.54035,0.25041 -1.17295,0.3822 -0.61941,0.14497 -1.3838,0.14497 -0.77757,0 -1.46289,-0.21087 -0.68531,-0.22404 -1.1993,-0.65895 -0.5008,-0.43491 -0.80392,-1.09387 -0.28994,-0.67214 -0.28994,-1.5815 0,-0.79074 0.43491,-1.51559 0.43491,-0.73804 1.41016,-1.30474 0.97526,-0.5667 2.54358,-0.92254 1.56831,-0.36901 3.8483,-0.42173 l 0,-1.04115 q 0,-1.55513 -0.67214,-2.34588 -0.67213,-0.80393 -1.96369,-0.80393 -0.86982,0 -1.46288,0.22405 -0.57988,0.21086 -1.01479,0.48762 -0.42173,0.26359 -0.73803,0.48763 -0.30312,0.21087 -0.60624,0.21087 -0.23723,0 -0.40855,-0.11861 -0.17133,-0.1318 -0.28994,-0.3163 l -0.42174,-0.75121 q 1.10705,-1.06751 2.38542,-1.59468 1.27838,-0.52716 2.83352,-0.52716 1.12022,0 1.99004,0.36901 0.86983,0.36902 1.46289,1.02797 0.59306,0.65896 0.89618,1.59468 0.30312,0.93572 0.30312,2.05594 l 0,8.54007 -1.04115,0 z m -5.03443,-1.43652 q 0.61942,0 1.13341,-0.11861 0.51398,-0.1318 0.96207,-0.35584 0.46127,-0.23722 0.86982,-0.5667 0.42173,-0.34266 0.81711,-0.76439 l 0,-2.76762 q -1.62103,0.0527 -2.76762,0.26359 -1.1334,0.19768 -1.85825,0.52716 -0.71168,0.32948 -1.04115,0.77757 -0.3163,0.44809 -0.3163,1.00161 0,0.52717 0.17133,0.90936 0.17132,0.3822 0.46127,0.6326 0.30311,0.23722 0.69849,0.35584 0.40855,0.10543 0.86982,0.10543 z" />
    <path
       id="path54"
       style=""
       d="m 634.10133,335.64401 q -0.50081,0 -0.6326,-0.48763 l -0.21087,-1.62103 q -0.85664,1.04115 -1.96368,1.67375 -1.09387,0.61942 -2.51722,0.61942 -1.14658,0 -2.0823,-0.43491 -0.93572,-0.44809 -1.59467,-1.30473 -0.65896,-0.85665 -1.01479,-2.13502 -0.35584,-1.27838 -0.35584,-2.93895 0,-1.47606 0.39537,-2.74125 0.39538,-1.27838 1.13341,-2.2141 0.73803,-0.93571 1.80554,-1.46288 1.08069,-0.54034 2.42496,-0.54034 1.22565,0 2.09548,0.42173 0.883,0.40855 1.56831,1.15976 l 0,-7.40666 2.34589,0 0,19.41284 -1.39699,0 z m -4.55998,-1.71328 q 1.15976,0 2.01641,-0.52717 0.86982,-0.52716 1.59467,-1.48924 l 0,-6.44459 q -0.65895,-0.86982 -1.42334,-1.22566 -0.76439,-0.35583 -1.71329,-0.35583 -1.85826,0 -2.85987,1.33109 -1.00161,1.33109 -1.00161,3.79558 0,1.30474 0.22404,2.24045 0.22405,0.92254 0.65896,1.52878 0.43491,0.59306 1.06751,0.86983 0.6326,0.27676 1.43652,0.27676 z" />
    <path
       id="path56"
       style=""
       d="m 641.70692,322.29356 0,13.35045 -2.34589,0 0,-13.35045 2.34589,0 z m 0.5008,-4.19096 q 0,0.34266 -0.14497,0.64578 -0.13179,0.28994 -0.36901,0.52716 -0.22405,0.22405 -0.54035,0.35584 -0.30311,0.13179 -0.64577,0.13179 -0.34266,0 -0.64578,-0.13179 -0.28994,-0.13179 -0.51398,-0.35584 -0.22405,-0.23722 -0.35584,-0.52716 -0.13179,-0.30312 -0.13179,-0.64578 0,-0.34266 0.13179,-0.64578 0.13179,-0.31629 0.35584,-0.54034 0.22404,-0.23722 0.51398,-0.36902 0.30312,-0.13179 0.64578,-0.13179 0.34266,0 0.64577,0.13179 0.3163,0.1318 0.54035,0.36902 0.23722,0.22405 0.36901,0.54034 0.14497,0.30312 0.14497,0.64578 z" />
    <path
       id="path58"
       style=""
       d="m 647.98635,316.23117 0,19.41284 -2.34588,0 0,-19.41284 2.34588,0 z" />
    <path
       id="path60"
       style=""
       d="m 654.21555,316.23117 0,19.41284 -2.34588,0 0,-19.41284 2.34588,0 z" />
    <path
       id="path62"
       style=""
       d="m 663.64727,322.0827 q 1.46288,0 2.63583,0.48762 1.17294,0.48763 2.00322,1.38381 0.83029,0.89618 1.2652,2.17456 0.44809,1.26519 0.44809,2.83351 0,1.58149 -0.44809,2.84669 -0.43491,1.26519 -1.2652,2.16137 -0.83028,0.89618 -2.00322,1.38381 -1.17295,0.47445 -2.63583,0.47445 -1.47606,0 -2.66218,-0.47445 -1.17294,-0.48763 -2.00323,-1.38381 -0.83028,-0.89618 -1.27837,-2.16137 -0.43491,-1.2652 -0.43491,-2.84669 0,-1.56832 0.43491,-2.83351 0.44809,-1.27838 1.27837,-2.17456 0.83029,-0.89618 2.00323,-1.38381 1.18612,-0.48762 2.66218,-0.48762 z m 0,11.91392 q 1.97687,0 2.95212,-1.31791 0.97526,-1.33109 0.97526,-3.70333 0,-2.38542 -0.97526,-3.71652 -0.97525,-1.33109 -2.95212,-1.33109 -1.00161,0 -1.75282,0.34266 -0.73803,0.34266 -1.23884,0.98843 -0.48763,0.64578 -0.73803,1.59468 -0.23722,0.93572 -0.23722,2.12184 0,2.37224 0.97525,3.70333 0.98843,1.31791 2.99166,1.31791 z" />
  </g>
  <g
     id="text2488"
     style="font-style:normal;font-variant:normal;font-weight:normal;font-stretch:normal;font-size:26.35824394px;line-height:125%;font-family:Lato;-inkscape-font-specification:'Bitstream Vera Sans';text-align:start;writing-mode:lr-tb;text-anchor:start;fill:#000000;fill-opacity:1;stroke:none">
    <path
       id="path65"
       style=""
       d="m 618.64495,87.896871 q 0.86982,0 1.62103,0.197687 0.75121,0.184508 1.37063,0.553523 l 3.62426,0 0,0.869822 q 0,0.434911 -0.55353,0.553523 l -1.5156,0.210866 q 0.44809,0.856643 0.44809,1.910973 0,0.975255 -0.38219,1.779181 -0.36902,0.790748 -1.02797,1.35745 -0.65896,0.566702 -1.5815,0.869822 -0.92254,0.30312 -2.00322,0.30312 -0.9489,0 -1.77918,-0.224045 -0.42174,0.263582 -0.64578,0.566702 -0.21087,0.30312 -0.21087,0.593061 0,0.474448 0.3822,0.724851 0.39537,0.237224 1.02797,0.342657 0.6326,0.105433 1.43652,0.131792 0.81711,0.02636 1.66057,0.09225 0.85664,0.05272 1.66057,0.197686 0.81711,0.144971 1.4497,0.474449 0.6326,0.329478 1.0148,0.909355 0.39537,0.57989 0.39537,1.50242 0,0.85665 -0.43491,1.66057 -0.42173,0.80393 -1.22566,1.42335 -0.80392,0.6326 -1.97687,1.00161 -1.15976,0.3822 -2.62264,0.3822 -1.46288,0 -2.55675,-0.28994 -1.09387,-0.28994 -1.81872,-0.77757 -0.72485,-0.48763 -1.09387,-1.13341 -0.35583,-0.63259 -0.35583,-1.33109 0,-0.98843 0.61941,-1.67375 0.61942,-0.68531 1.68693,-1.093864 -0.59306,-0.263582 -0.93572,-0.698493 -0.34265,-0.448091 -0.34265,-1.1993 0,-0.289941 0.10543,-0.593061 0.10543,-0.316299 0.3163,-0.619419 0.22404,-0.303119 0.54034,-0.579881 0.3163,-0.276762 0.73803,-0.487628 -0.98843,-0.553523 -1.54195,-1.476061 -0.55353,-0.922539 -0.55353,-2.135018 0,-0.975255 0.36902,-1.766002 0.38219,-0.803927 1.05433,-1.35745 0.67213,-0.566702 1.59467,-0.869822 0.93572,-0.30312 2.04277,-0.30312 z m 4.23049,14.299349 q 0,-0.48763 -0.27676,-0.79075 -0.27676,-0.30312 -0.75121,-0.47445 -0.46127,-0.17133 -1.08068,-0.23722 -0.61942,-0.0791 -1.31792,-0.11861 -0.68531,-0.0395 -1.39698,-0.0791 -0.71168,-0.0395 -1.37063,-0.13179 -0.73803,0.34266 -1.21248,0.85664 -0.46127,0.51399 -0.46127,1.22566 0,0.44809 0.22404,0.83029 0.23723,0.39537 0.71168,0.67213 0.47445,0.28994 1.18612,0.44809 0.72485,0.17133 1.7001,0.17133 0.9489,0 1.70011,-0.17133 0.75121,-0.17133 1.2652,-0.48763 0.52716,-0.31629 0.80392,-0.75121 0.27676,-0.43491 0.27676,-0.96207 z m -4.23049,-7.248518 q 0.71167,0 1.25201,-0.197687 0.54035,-0.197687 0.90936,-0.553523 0.36902,-0.355837 0.55353,-0.843464 0.1845,-0.500807 0.1845,-1.093867 0,-1.225659 -0.75121,-1.95051 -0.73803,-0.724852 -2.14819,-0.724852 -1.42335,0 -2.17456,0.724852 -0.73803,0.724851 -0.73803,1.95051 0,0.59306 0.18451,1.093867 0.19769,0.487627 0.5667,0.843464 0.36902,0.355836 0.90936,0.553523 0.54034,0.197687 1.25202,0.197687 z" />
    <path
       id="path67"
       style=""
       d="m 630.16432,88.120916 0,13.350454 -2.34588,0 0,-13.350454 2.34588,0 z m 0.50081,-4.19096 q 0,0.342657 -0.14497,0.645777 -0.13179,0.28994 -0.36902,0.527164 -0.22404,0.224045 -0.54034,0.355837 -0.30312,0.131791 -0.64578,0.131791 -0.34265,0 -0.64577,-0.131791 -0.28994,-0.131792 -0.51399,-0.355837 -0.22404,-0.237224 -0.35584,-0.527164 -0.13179,-0.30312 -0.13179,-0.645777 0,-0.342658 0.13179,-0.645777 0.1318,-0.316299 0.35584,-0.540344 0.22405,-0.237225 0.51399,-0.369016 0.30312,-0.131791 0.64577,-0.131791 0.34266,0 0.64578,0.131791 0.3163,0.131791 0.54034,0.369016 0.23723,0.224045 0.36902,0.540344 0.14497,0.303119 0.14497,0.645777 z" />
    <path
       id="path69"
       style=""
       d="m 634.01881,101.47137 0,-13.350454 1.34427,0 q 0.38219,0 0.52716,0.144971 0.14497,0.14497 0.19769,0.500806 l 0.14497,2.029585 q 0.6326,-1.370629 1.55513,-2.135018 0.93572,-0.777568 2.26681,-0.777568 0.42174,0 0.80393,0.09225 0.39537,0.09225 0.69849,0.289941 l -0.17133,1.752823 q -0.0791,0.329478 -0.39537,0.329478 -0.18451,0 -0.54034,-0.07907 -0.35584,-0.07908 -0.80393,-0.07908 -0.6326,0 -1.1334,0.197687 -0.50081,0.184508 -0.89618,0.553523 -0.3822,0.355837 -0.68532,0.883002 -0.30312,0.527164 -0.55352,1.212479 l 0,8.434641 -2.35906,0 z" />
    <path
       id="path71"
       style=""
       d="m 651.87569,101.47137 q -0.34266,0 -0.52717,-0.10544 -0.1845,-0.11861 -0.28994,-0.44809 L 650.795,99.665827 q -0.52716,0.474453 -1.04115,0.856643 -0.50081,0.36902 -1.05433,0.6326 -0.54034,0.2504 -1.17294,0.38219 -0.61942,0.14497 -1.38381,0.14497 -0.77757,0 -1.46288,-0.21086 -0.68532,-0.22405 -1.1993,-0.65896 -0.50081,-0.43491 -0.80393,-1.093866 -0.28994,-0.672136 -0.28994,-1.581495 0,-0.790747 0.43491,-1.515599 0.43491,-0.738031 1.41017,-1.304733 0.97525,-0.566702 2.54357,-0.922539 1.56831,-0.369015 3.8483,-0.421732 l 0,-1.04115 q 0,-1.555137 -0.67213,-2.345884 -0.67214,-0.803926 -1.96369,-0.803926 -0.86982,0 -1.46288,0.224045 -0.57989,0.210866 -1.0148,0.487627 -0.42173,0.263583 -0.73803,0.487628 -0.30312,0.210866 -0.60624,0.210866 -0.23722,0 -0.40855,-0.118612 -0.17133,-0.131792 -0.28994,-0.316299 l -0.42173,-0.75121 q 1.10704,-1.067509 2.38542,-1.594674 1.27837,-0.527165 2.83351,-0.527165 1.12023,0 1.99005,0.369016 0.86982,0.369015 1.46288,1.027971 0.59306,0.658956 0.89618,1.594674 0.30312,0.935717 0.30312,2.055943 l 0,8.540074 -1.04115,0 z m -5.03442,-1.43653 q 0.61941,0 1.1334,-0.11861 0.51399,-0.131791 0.96208,-0.355836 0.46126,-0.237224 0.86982,-0.566702 0.42173,-0.342657 0.8171,-0.764389 l 0,-2.767616 q -1.62103,0.05272 -2.76761,0.263583 -1.13341,0.197687 -1.85826,0.527165 -0.71167,0.329478 -1.04115,0.777568 -0.3163,0.44809 -0.3163,1.001613 0,0.527165 0.17133,0.909359 0.17133,0.382195 0.46127,0.632598 0.30312,0.237225 0.69849,0.355837 0.40856,0.10543 0.86983,0.10543 z" />
    <path
       id="path73"
       style=""
       d="m 657.12839,101.47137 0,-11.347227 -1.47606,-0.171329 q -0.27676,-0.06589 -0.46127,-0.197687 -0.17133,-0.14497 -0.17133,-0.408552 l 0,-0.962076 2.10866,0 0,-1.093867 q 0,-1.146584 0.3163,-2.029585 0.32948,-0.89618 0.92254,-1.50242 0.60624,-0.619419 1.4497,-0.935718 0.84347,-0.316299 1.8978,-0.316299 0.89618,0 1.64739,0.263583 l -0.0527,1.186121 q -0.0264,0.316299 -0.35584,0.342657 -0.31629,0.02636 -0.85664,0.02636 -0.60624,0 -1.10704,0.15815 -0.48763,0.14497 -0.84347,0.500806 -0.35583,0.355837 -0.55352,0.948897 -0.18451,0.579881 -0.18451,1.436524 l 0,1.014793 6.02286,0 0,-1.436525 q 0,-1.146583 0.3163,-2.029584 0.32948,-0.896181 0.92254,-1.50242 0.60624,-0.619419 1.4497,-0.935718 0.84346,-0.316299 1.89779,-0.316299 0.88301,0 1.64739,0.263583 l -0.0527,1.172941 q -0.0264,0.316299 -0.35584,0.342658 -0.3163,0.02636 -0.85664,0.02636 -0.60624,0 -1.10705,0.158149 -0.48763,0.15815 -0.84346,0.513986 -0.35584,0.355836 -0.55352,0.935718 -0.18451,0.579881 -0.18451,1.436524 l 0,1.370629 3.8483,0 0,1.700106 -3.76923,0 0,11.386765 -2.35906,0 0,-11.386765 -5.94378,0 0,11.386765 -2.35907,0 z" />
    <path
       id="path75"
       style=""
       d="m 678.87106,87.91005 q 1.1993,0 2.2141,0.408553 1.02797,0.395374 1.766,1.159763 0.75121,0.75121 1.17294,1.871435 0.42173,1.107046 0.42173,2.530392 0,0.553523 -0.11861,0.73803 -0.11861,0.184508 -0.44809,0.184508 l -8.92227,0 q 0.0264,1.265196 0.34266,2.200914 0.3163,0.935717 0.86982,1.568315 0.55353,0.619419 1.31792,0.935718 0.76439,0.30312 1.71328,0.30312 0.883,0 1.5156,-0.197687 0.64578,-0.210866 1.10705,-0.44809 0.46127,-0.237225 0.76439,-0.434911 0.3163,-0.210866 0.54034,-0.210866 0.28994,0 0.44809,0.224045 l 0.65896,0.856643 q -0.43491,0.527168 -1.04115,0.922538 -0.60624,0.38219 -1.30474,0.6326 -0.68531,0.2504 -1.42334,0.36901 -0.73803,0.13179 -1.46288,0.13179 -1.38381,0 -2.55675,-0.46126 -1.15977,-0.47445 -2.01641,-1.370633 -0.84346,-0.90936 -1.31791,-2.240451 -0.47445,-1.331091 -0.47445,-3.057556 0,-1.396987 0.42173,-2.609467 0.43491,-1.212479 1.23884,-2.09548 0.80393,-0.89618 1.96369,-1.396987 1.15976,-0.513986 2.60946,-0.513986 z m 0.0527,1.726465 q -1.70011,0 -2.67536,0.988435 -0.97526,0.975255 -1.21248,2.714899 l 7.30123,0 q 0,-0.817106 -0.23722,-1.489241 -0.22405,-0.685314 -0.67214,-1.172942 -0.43491,-0.500807 -1.06751,-0.764389 -0.63259,-0.276762 -1.43652,-0.276762 z" />
  </g>
  <g
     id="text2492"
     style="font-style:normal;font-variant:normal;font-weight:normal;font-stretch:normal;font-size:26.35824394px;line-height:125%;font-family:Lato;-inkscape-font-specification:'Bitstream Vera Sans';text-align:start;writing-mode:lr-tb;text-anchor:start;fill:#000000;fill-opacity:1;stroke:none">
    <path
       id="path78"
       style=""
       d="m 918.48545,291.7496 0,-13.35045 1.34427,0 q 0.3822,0 0.52717,0.14497 0.14497,0.14497 0.19769,0.50081 l 0.14497,2.02958 q 0.63259,-1.37062 1.55513,-2.13501 0.93572,-0.77757 2.26681,-0.77757 0.42173,0 0.80393,0.0923 0.39537,0.0923 0.69849,0.28994 l -0.17133,1.75283 q -0.0791,0.32947 -0.39537,0.32947 -0.18451,0 -0.54035,-0.0791 -0.35583,-0.0791 -0.80392,-0.0791 -0.6326,0 -1.13341,0.19769 -0.5008,0.18451 -0.89618,0.55352 -0.38219,0.35584 -0.68531,0.88301 -0.30312,0.52716 -0.55352,1.21248 l 0,8.43463 -2.35907,0 z" />
    <path
       id="path80"
       style=""
       d="m 936.34234,291.7496 q -0.34266,0 -0.52717,-0.10543 -0.1845,-0.11861 -0.28994,-0.44809 l -0.26358,-1.25202 q -0.52716,0.47445 -1.04115,0.85665 -0.50081,0.36901 -1.05433,0.63259 -0.54034,0.25041 -1.17294,0.3822 -0.61942,0.14497 -1.38381,0.14497 -0.77757,0 -1.46288,-0.21087 -0.68532,-0.22404 -1.1993,-0.65895 -0.50081,-0.43491 -0.80393,-1.09387 -0.28994,-0.67214 -0.28994,-1.58149 0,-0.79075 0.43491,-1.5156 0.43491,-0.73803 1.41017,-1.30474 0.97525,-0.5667 2.54357,-0.92254 1.56831,-0.36901 3.8483,-0.42173 l 0,-1.04115 q 0,-1.55513 -0.67213,-2.34588 -0.67214,-0.80393 -1.96369,-0.80393 -0.86982,0 -1.46288,0.22405 -0.57989,0.21086 -1.0148,0.48762 -0.42173,0.26359 -0.73803,0.48763 -0.30312,0.21087 -0.60624,0.21087 -0.23722,0 -0.40855,-0.11861 -0.17133,-0.1318 -0.28994,-0.3163 l -0.42173,-0.75121 q 1.10704,-1.06751 2.38542,-1.59468 1.27837,-0.52716 2.83351,-0.52716 1.12023,0 1.99005,0.36901 0.86982,0.36902 1.46288,1.02798 0.59306,0.65895 0.89618,1.59467 0.30312,0.93572 0.30312,2.05594 l 0,8.54007 -1.04115,0 z m -5.03442,-1.43652 q 0.61941,0 1.1334,-0.11861 0.51399,-0.13179 0.96208,-0.35584 0.46126,-0.23722 0.86982,-0.5667 0.42173,-0.34266 0.8171,-0.76439 l 0,-2.76762 q -1.62103,0.0527 -2.76761,0.26359 -1.13341,0.19768 -1.85826,0.52716 -0.71167,0.32948 -1.04115,0.77757 -0.3163,0.44809 -0.3163,1.00161 0,0.52717 0.17133,0.90936 0.17133,0.3822 0.46127,0.6326 0.30312,0.23722 0.69849,0.35584 0.40856,0.10543 0.86983,0.10543 z" />
    <path
       id="path82"
       style=""
       d="m 944.87541,291.96047 q -1.5815,0 -2.43814,-0.883 -0.84346,-0.883 -0.84346,-2.54357 l 0,-8.17106 -1.60786,0 q -0.21086,0 -0.35583,-0.11861 -0.14497,-0.13179 -0.14497,-0.39537 l 0,-0.93572 2.18773,-0.27676 0.54035,-4.12507 q 0.0395,-0.19769 0.17132,-0.3163 0.14498,-0.13179 0.36902,-0.13179 l 1.18612,0 0,4.59952 3.86148,0 0,1.7001 -3.86148,0 0,8.01291 q 0,0.84346 0.40855,1.25201 0.40856,0.40856 1.05433,0.40856 0.36902,0 0.6326,-0.0923 0.27676,-0.10543 0.47445,-0.22404 0.19769,-0.11861 0.32948,-0.21087 0.14497,-0.10543 0.2504,-0.10543 0.18451,0 0.32948,0.22404 l 0.68531,1.12023 q -0.60624,0.5667 -1.46288,0.89618 -0.85664,0.3163 -1.766,0.3163 z" />
  </g>
  <g
     id="text2496"
     style="font-style:normal;font-variant:normal;font-weight:normal;font-stretch:normal;font-size:26.35824394px;line-height:125%;font-family:Lato;-inkscape-font-specification:'Bitstream Vera Sans';text-align:start;writing-mode:lr-tb;text-anchor:start;fill:#000000;fill-opacity:1;stroke:none">
    <path
       id="path85"
       style=""
       d="m 919.387,99.236412 0,-19.412847 2.35907,0 0,7.854757 q 0.85664,-0.909359 1.89779,-1.449703 1.04115,-0.553523 2.3986,-0.553523 1.09387,0 1.92415,0.369015 0.84347,0.355836 1.39699,1.027971 0.5667,0.658957 0.85664,1.594674 0.28994,0.935718 0.28994,2.069122 l 0,8.500534 -2.35906,0 0,-8.500534 q 0,-1.515599 -0.69849,-2.345883 -0.68532,-0.843464 -2.09548,-0.843464 -1.05433,0 -1.96369,0.500806 -0.89618,0.500807 -1.64739,1.35745 l 0,9.831625 -2.35907,0 z" />
    <path
       id="path87"
       style=""
       d="m 936.32465,85.885961 0,8.513713 q 0,1.515599 0.68531,2.345884 0.69849,0.830285 2.12184,0.830285 1.02797,0 1.93733,-0.487628 0.90936,-0.487627 1.67375,-1.357449 l 0,-9.844805 2.34588,0 0,13.350451 -1.39698,0 q -0.50081,0 -0.6326,-0.487627 l -0.18451,-1.436525 q -0.86982,0.962076 -1.95051,1.555137 -1.08069,0.579881 -2.47767,0.579881 -1.09387,0 -1.93734,-0.355836 -0.83028,-0.369016 -1.39698,-1.027972 -0.5667,-0.658956 -0.85665,-1.594674 -0.27676,-0.935717 -0.27676,-2.069122 l 0,-8.513713 2.34589,0 z" />
    <path
       id="path89"
       style=""
       d="m 948.78262,99.236412 0,-13.350451 1.41017,0 q 0.50081,0 0.61942,0.487628 l 0.17133,1.370629 q 0.73803,-0.90936 1.66057,-1.489241 0.92254,-0.579881 2.13501,-0.579881 1.34428,0 2.17456,0.751209 0.84346,0.75121 1.21248,2.029585 0.28994,-0.724851 0.73803,-1.252016 0.46127,-0.527165 1.02797,-0.869822 0.5667,-0.342658 1.1993,-0.500807 0.64578,-0.158149 1.30473,-0.158149 1.05433,0 1.87144,0.342657 0.83028,0.329478 1.39699,0.975255 0.57988,0.645777 0.883,1.594673 0.30312,0.935718 0.30312,2.148197 l 0,8.500534 -2.35907,0 0,-8.500534 q 0,-1.568315 -0.68531,-2.372242 -0.68531,-0.817105 -1.97687,-0.817105 -0.57988,0 -1.10704,0.210866 -0.51399,0.197687 -0.90936,0.59306 -0.39538,0.395374 -0.6326,1.001614 -0.22405,0.59306 -0.22405,1.383807 l 0,8.500534 -2.35906,0 0,-8.500534 q 0,-1.607853 -0.64578,-2.3986 -0.64577,-0.790747 -1.88461,-0.790747 -0.86982,0 -1.60785,0.474448 -0.73803,0.46127 -1.35745,1.265196 l 0,9.950237 -2.35907,0 z" />
    <path
       id="path91"
       style=""
       d="m 978.94346,99.236412 q -0.34266,0 -0.52717,-0.105433 -0.1845,-0.118612 -0.28994,-0.44809 l -0.26358,-1.252017 q -0.52717,0.474449 -1.04115,0.856643 -0.50081,0.369016 -1.05433,0.632598 -0.54034,0.250403 -1.17294,0.382195 -0.61942,0.14497 -1.38381,0.14497 -0.77757,0 -1.46288,-0.210866 -0.68532,-0.224045 -1.1993,-0.658956 -0.50081,-0.434911 -0.80393,-1.093867 -0.28994,-0.672135 -0.28994,-1.581495 0,-0.790747 0.43491,-1.515599 0.43491,-0.738031 1.41017,-1.304733 0.97525,-0.566702 2.54357,-0.922538 1.56831,-0.369016 3.8483,-0.421732 l 0,-1.041151 q 0,-1.555136 -0.67213,-2.345884 -0.67214,-0.803926 -1.96369,-0.803926 -0.86983,0 -1.46289,0.224045 -0.57988,0.210866 -1.01479,0.487627 -0.42173,0.263583 -0.73803,0.487628 -0.30312,0.210866 -0.60624,0.210866 -0.23722,0 -0.40855,-0.118612 -0.17133,-0.131791 -0.28994,-0.316299 l -0.42173,-0.75121 q 1.10704,-1.067509 2.38542,-1.594674 1.27837,-0.527165 2.83351,-0.527165 1.12022,0 1.99005,0.369016 0.86982,0.369015 1.46288,1.027971 0.59306,0.658956 0.89618,1.594674 0.30312,0.935718 0.30312,2.055943 l 0,8.540071 -1.04115,0 z m -5.03443,-1.436524 q 0.61942,0 1.13341,-0.118612 0.51398,-0.131792 0.96207,-0.355837 0.46127,-0.237224 0.86983,-0.566702 0.42173,-0.342657 0.8171,-0.764389 l 0,-2.767616 q -1.62103,0.05272 -2.76761,0.263583 -1.13341,0.197687 -1.85826,0.527165 -0.71167,0.329478 -1.04115,0.777568 -0.3163,0.44809 -0.3163,1.001613 0,0.527165 0.17133,0.90936 0.17133,0.382194 0.46127,0.632597 0.30312,0.237225 0.69849,0.355837 0.40855,0.105433 0.86982,0.105433 z" />
    <path
       id="path93"
       style=""
       d="m 983.53226,99.236412 0,-13.350451 1.41017,0 q 0.5008,0 0.61941,0.487628 l 0.18451,1.449703 q 0.86982,-0.962075 1.95051,-1.555136 1.08069,-0.59306 2.49086,-0.59306 1.09386,0 1.92415,0.369015 0.84346,0.355836 1.39699,1.027971 0.5667,0.658957 0.85664,1.594674 0.28994,0.935718 0.28994,2.069122 l 0,8.500534 -2.35906,0 0,-8.500534 q 0,-1.515599 -0.6985,-2.345883 -0.68531,-0.843464 -2.09548,-0.843464 -1.05433,0 -1.96369,0.500806 -0.89618,0.500807 -1.64739,1.35745 l 0,9.831625 -2.35906,0 z" />
  </g>
  <g
     id="text3270"
     style="font-style:normal;font-variant:normal;font-weight:bold;font-stretch:normal;font-size:48px;line-height:125%;font-family:Serif;-inkscape-font-specification:'Bitstream Charter Bold';text-align:start;writing-mode:lr-tb;text-anchor:start;fill:#000000;fill-opacity:1;stroke:none">
    <path
       id="path96"
       style="font-style:normal;font-variant:normal;font-weight:bold;font-stretch:normal;font-family:Lato;-inkscape-font-specification:'Lato Bold'"
       d="m 18.912,212.65997 q -1.176,0 -1.488,-1.08 l -0.504,-2.376 q -0.768,0.864 -1.608,1.56 -0.84,0.696 -1.824,1.2 -0.96,0.504 -2.088,0.768 -1.104,0.288 -2.4,0.288 -2.016,0 -3.696,-0.84 -1.68,-0.84 -2.904,-2.424 -1.2,-1.608 -1.87200002,-3.96 -0.648,-2.352 -0.648,-5.376 0,-2.736 0.744,-5.088 0.74400002,-2.352 2.13600002,-4.08 1.392,-1.728 3.336,-2.688 1.944,-0.984 4.368,-0.984 2.064,0 3.528,0.672 1.464,0.648 2.616,1.752 l 0,-13.008 5.928,0 0,35.664 -3.624,0 z m -7.896,-4.344 q 1.848,0 3.144,-0.768 1.296,-0.768 2.448,-2.184 l 0,-11.04 q -1.008,-1.224 -2.208,-1.728 -1.176,-0.504 -2.544,-0.504 -1.344,0 -2.424,0.504 -1.08,0.504 -1.848,1.536 -0.768,1.008 -1.176,2.592 -0.408,1.56 -0.408,3.696 0,2.16 0.336,3.672 0.36,1.488 1.008,2.448 0.648,0.936 1.584,1.368 0.936,0.408 2.088,0.408 z" />
    <path
       id="path98"
       style="font-style:normal;font-variant:normal;font-weight:bold;font-stretch:normal;font-family:Lato;-inkscape-font-specification:'Lato Bold'"
       d="m 44.53725,212.65997 q -0.84,0 -1.296,-0.24 -0.456,-0.264 -0.72,-1.032 l -0.528,-1.752 q -0.936,0.84 -1.824,1.488 -0.888,0.624 -1.848,1.056 -0.96,0.432 -2.064,0.648 -1.08,0.216 -2.4,0.216 -1.56,0 -2.88,-0.408 -1.32,-0.432 -2.28,-1.272 -0.96,-0.84 -1.488,-2.088 -0.528,-1.248 -0.528,-2.904 0,-1.392 0.72,-2.736 0.744,-1.368 2.448,-2.448 1.704,-1.104 4.536,-1.824 2.832,-0.72 7.056,-0.816 l 0,-1.44 q 0,-2.472 -1.056,-3.648 -1.056,-1.2 -3.048,-1.2 -1.44,0 -2.4,0.336 -0.936,0.336 -1.656,0.768 -0.72,0.408 -1.32,0.744 -0.576,0.336 -1.296,0.336 -0.624,0 -1.056,-0.312 -0.432,-0.336 -0.696,-0.768 l -1.056,-1.896 q 4.248,-3.888 10.224,-3.888 2.16,0 3.864,0.72 1.704,0.696 2.88,1.968 1.176,1.248 1.776,3 0.624,1.752 0.624,3.84 l 0,15.552 -2.688,0 z m -8.856,-3.696 q 1.824,0 3.144,-0.648 1.344,-0.672 2.616,-2.016 l 0,-4.152 q -2.592,0.12 -4.344,0.456 -1.728,0.312 -2.784,0.816 -1.056,0.504 -1.512,1.176 -0.456,0.672 -0.456,1.464 0,1.56 0.912,2.232 0.936,0.672 2.424,0.672 z" />
    <path
       id="path100"
       style="font-style:normal;font-variant:normal;font-weight:bold;font-stretch:normal;font-family:Lato;-inkscape-font-specification:'Lato Bold'"
       d="m 60.64125,213.04397 q -3.216,0 -4.944,-1.8 -1.704,-1.824 -1.704,-5.016 l 0,-13.752 -2.52,0 q -0.48,0 -0.816,-0.312 -0.336,-0.312 -0.336,-0.936 l 0,-2.352 3.96,-0.648 1.248,-6.72 q 0.12,-0.48 0.456,-0.744 0.336,-0.264 0.864,-0.264 l 3.072,0 0,7.752 6.576,0 0,4.224 -6.576,0 0,13.344 q 0,1.152 0.552,1.8 0.576,0.648 1.56,0.648 0.552,0 0.912,-0.12 0.384,-0.144 0.648,-0.288 0.288,-0.144 0.504,-0.264 0.216,-0.144 0.432,-0.144 0.264,0 0.432,0.144 0.168,0.12 0.36,0.384 l 1.776,2.88 q -1.296,1.08 -2.976,1.632 -1.68,0.552 -3.48,0.552 z" />
    <path
       id="path102"
       style="font-style:normal;font-variant:normal;font-weight:bold;font-stretch:normal;font-family:Lato;-inkscape-font-specification:'Lato Bold'"
       d="m 86.34975,212.65997 q -0.84,0 -1.296,-0.24 -0.456,-0.264 -0.72,-1.032 l -0.528,-1.752 q -0.936,0.84 -1.824,1.488 -0.888,0.624 -1.848,1.056 -0.96,0.432 -2.064,0.648 -1.08,0.216 -2.4,0.216 -1.56,0 -2.88,-0.408 -1.32,-0.432 -2.28,-1.272 -0.96,-0.84 -1.488,-2.088 -0.528,-1.248 -0.528,-2.904 0,-1.392 0.72,-2.736 0.744,-1.368 2.448,-2.448 1.704,-1.104 4.536,-1.824 2.832,-0.72 7.056,-0.816 l 0,-1.44 q 0,-2.472 -1.056,-3.648 -1.056,-1.2 -3.048,-1.2 -1.44,0 -2.4,0.336 -0.936,0.336 -1.656,0.768 -0.72,0.408 -1.32,0.744 -0.576,0.336 -1.296,0.336 -0.624,0 -1.056,-0.312 -0.432,-0.336 -0.696,-0.768 l -1.056,-1.896 q 4.248,-3.888 10.224,-3.888 2.16,0 3.864,0.72 1.704,0.696 2.88,1.968 1.176,1.248 1.776,3 0.624,1.752 0.624,3.84 l 0,15.552 -2.688,0 z m -8.856,-3.696 q 1.824,0 3.144,-0.648 1.344,-0.672 2.616,-2.016 l 0,-4.152 q -2.592,0.12 -4.344,0.456 -1.728,0.312 -2.784,0.816 -1.056,0.504 -1.512,1.176 -0.456,0.672 -0.456,1.464 0,1.56 0.912,2.232 0.936,0.672 2.424,0.672 z" />
  </g>
  <g
     id="text3274"
     style="font-style:normal;font-variant:normal;font-weight:normal;font-stretch:normal;font-size:40px;line-height:125%;font-family:Serif;-inkscape-font-specification:Serif;text-align:start;writing-mode:lr-tb;text-anchor:start;fill:#000000;fill-opacity:1;stroke:none">
    <path
       id="path105"
       style="font-style:normal;font-variant:normal;font-weight:normal;font-stretch:normal;font-family:Lato;-inkscape-font-specification:Lato"
       d="m 214.78995,139.78743 0,0 z m 3.1,-10.24 0,5.8 -0.32,3.1 q -0.1,0.64 -0.38,1 -0.26,0.34 -0.86,0.34 -0.54,0 -0.84,-0.34 -0.28,-0.36 -0.38,-1 l -0.32,-3.1 0,-5.8 3.1,0 z m 6.66,0 0,5.8 -0.32,3.1 q -0.1,0.64 -0.38,1 -0.26,0.34 -0.86,0.34 -0.54,0 -0.84,-0.34 -0.28,-0.36 -0.38,-1 l -0.32,-3.1 0,-5.8 3.1,0 z" />
    <path
       id="path107"
       style="font-style:normal;font-variant:normal;font-weight:normal;font-stretch:normal;font-family:Lato;-inkscape-font-specification:Lato"
       d="m 229.9137,165.06743 0,-27.12 2.14,0 q 0.76,0 0.94,0.74 l 0.3,2.4 q 1.3,-1.58 2.98,-2.54 1.68,-0.96 3.84,-0.96 1.76,0 3.18,0.68 1.42,0.66 2.42,1.98 1,1.3 1.54,3.24 0.54,1.94 0.54,4.46 0,2.24 -0.6,4.18 -0.6,1.92 -1.74,3.34 -1.12,1.4 -2.76,2.22 -1.62,0.8 -3.66,0.8 -1.86,0 -3.2,-0.62 -1.32,-0.62 -2.34,-1.76 l 0,8.96 -3.58,0 z m 9.04,-24.6 q -1.74,0 -3.06,0.8 -1.3,0.8 -2.4,2.26 l 0,9.8 q 0.96,1.32 2.12,1.86 1.18,0.54 2.62,0.54 2.84,0 4.36,-2.02 1.52,-2.02 1.52,-5.76 0,-1.98 -0.36,-3.4 -0.34,-1.42 -1,-2.32 -0.66,-0.92 -1.62,-1.34 -0.96,-0.42 -2.18,-0.42 z" />
    <path
       id="path109"
       style="font-style:normal;font-variant:normal;font-weight:normal;font-stretch:normal;font-family:Lato;-inkscape-font-specification:Lato"
       d="m 252.33558,158.20743 0,-29.46 3.58,0 0,11.92 q 1.3,-1.38 2.88,-2.2 1.58,-0.84 3.64,-0.84 1.66,0 2.92,0.56 1.28,0.54 2.12,1.56 0.86,1 1.3,2.42 0.44,1.42 0.44,3.14 l 0,12.9 -3.58,0 0,-12.9 q 0,-2.3 -1.06,-3.56 -1.04,-1.28 -3.18,-1.28 -1.6,0 -2.98,0.76 -1.36,0.76 -2.5,2.06 l 0,14.92 -3.58,0 z" />
    <path
       id="path111"
       style="font-style:normal;font-variant:normal;font-weight:normal;font-stretch:normal;font-family:Lato;-inkscape-font-specification:Lato"
       d="m 280.39058,164.18743 q -0.18,0.4 -0.46,0.64 -0.26,0.24 -0.82,0.24 l -2.64,0 3.7,-8.04 -8.36,-19.08 3.08,0 q 0.46,0 0.72,0.24 0.28,0.22 0.38,0.5 l 5.42,12.76 q 0.16,0.46 0.3,0.9 0.14,0.42 0.24,0.88 0.26,-0.9 0.6,-1.8 l 5.26,-12.74 q 0.12,-0.32 0.4,-0.52 0.3,-0.22 0.66,-0.22 l 2.82,0 -11.3,26.24 z" />
    <path
       id="path113"
       style="font-style:normal;font-variant:normal;font-weight:normal;font-stretch:normal;font-family:Lato;-inkscape-font-specification:Lato"
       d="m 298.51558,128.74743 0,29.46 -3.56,0 0,-29.46 3.56,0 z" />
    <path
       id="path115"
       style="font-style:normal;font-variant:normal;font-weight:normal;font-stretch:normal;font-family:Lato;-inkscape-font-specification:Lato"
       d="m 312.8287,137.62743 q 2.22,0 4,0.74 1.78,0.74 3.04,2.1 1.26,1.36 1.92,3.3 0.68,1.92 0.68,4.3 0,2.4 -0.68,4.32 -0.66,1.92 -1.92,3.28 -1.26,1.36 -3.04,2.1 -1.78,0.72 -4,0.72 -2.24,0 -4.04,-0.72 -1.78,-0.74 -3.04,-2.1 -1.26,-1.36 -1.94,-3.28 -0.66,-1.92 -0.66,-4.32 0,-2.38 0.66,-4.3 0.68,-1.94 1.94,-3.3 1.26,-1.36 3.04,-2.1 1.8,-0.74 4.04,-0.74 z m 0,18.08 q 3,0 4.48,-2 1.48,-2.02 1.48,-5.62 0,-3.62 -1.48,-5.64 -1.48,-2.02 -4.48,-2.02 -1.52,0 -2.66,0.52 -1.12,0.52 -1.88,1.5 -0.74,0.98 -1.12,2.42 -0.36,1.42 -0.36,3.22 0,3.6 1.48,5.62 1.5,2 4.54,2 z" />
    <path
       id="path117"
       style="font-style:normal;font-variant:normal;font-weight:normal;font-stretch:normal;font-family:Lato;-inkscape-font-specification:Lato"
       d="m 334.00495,137.60743 q 1.32,0 2.46,0.3 1.14,0.28 2.08,0.84 l 5.5,0 0,1.32 q 0,0.66 -0.84,0.84 l -2.3,0.32 q 0.68,1.3 0.68,2.9 0,1.48 -0.58,2.7 -0.56,1.2 -1.56,2.06 -1,0.86 -2.4,1.32 -1.4,0.46 -3.04,0.46 -1.44,0 -2.7,-0.34 -0.64,0.4 -0.98,0.86 -0.32,0.46 -0.32,0.9 0,0.72 0.58,1.1 0.6,0.36 1.56,0.52 0.96,0.16 2.18,0.2 1.24,0.04 2.52,0.14 1.3,0.08 2.52,0.3 1.24,0.22 2.2,0.72 0.96,0.5 1.54,1.38 0.6,0.88 0.6,2.28 0,1.3 -0.66,2.52 -0.64,1.22 -1.86,2.16 -1.22,0.96 -3,1.52 -1.76,0.58 -3.98,0.58 -2.22,0 -3.88,-0.44 -1.66,-0.44 -2.76,-1.18 -1.1,-0.74 -1.66,-1.72 -0.54,-0.96 -0.54,-2.02 0,-1.5 0.94,-2.54 0.94,-1.04 2.56,-1.66 -0.9,-0.4 -1.42,-1.06 -0.52,-0.68 -0.52,-1.82 0,-0.44 0.16,-0.9 0.16,-0.48 0.48,-0.94 0.34,-0.46 0.82,-0.88 0.48,-0.42 1.12,-0.74 -1.5,-0.84 -2.34,-2.24 -0.84,-1.4 -0.84,-3.24 0,-1.48 0.56,-2.68 0.58,-1.22 1.6,-2.06 1.02,-0.86 2.42,-1.32 1.42,-0.46 3.1,-0.46 z m 6.42,21.7 q 0,-0.74 -0.42,-1.2 -0.42,-0.46 -1.14,-0.72 -0.7,-0.26 -1.64,-0.36 -0.94,-0.12 -2,-0.18 -1.04,-0.06 -2.12,-0.12 -1.08,-0.06 -2.08,-0.2 -1.12,0.52 -1.84,1.3 -0.7,0.78 -0.7,1.86 0,0.68 0.34,1.26 0.36,0.6 1.08,1.02 0.72,0.44 1.8,0.68 1.1,0.26 2.58,0.26 1.44,0 2.58,-0.26 1.14,-0.26 1.92,-0.74 0.8,-0.48 1.22,-1.14 0.42,-0.66 0.42,-1.46 z m -6.42,-11 q 1.08,0 1.9,-0.3 0.82,-0.3 1.38,-0.84 0.56,-0.54 0.84,-1.28 0.28,-0.76 0.28,-1.66 0,-1.86 -1.14,-2.96 -1.12,-1.1 -3.26,-1.1 -2.16,0 -3.3,1.1 -1.12,1.1 -1.12,2.96 0,0.9 0.28,1.66 0.3,0.74 0.86,1.28 0.56,0.54 1.38,0.84 0.82,0.3 1.9,0.3 z" />
    <path
       id="path119"
       style="font-style:normal;font-variant:normal;font-weight:normal;font-stretch:normal;font-family:Lato;-inkscape-font-specification:Lato"
       d="m 355.7137,137.62743 q 1.82,0 3.36,0.62 1.56,0.6 2.68,1.76 1.14,1.14 1.78,2.84 0.64,1.68 0.64,3.84 0,0.84 -0.18,1.12 -0.18,0.28 -0.68,0.28 l -13.54,0 q 0.04,1.92 0.52,3.34 0.48,1.42 1.32,2.38 0.84,0.94 2,1.42 1.16,0.46 2.6,0.46 1.34,0 2.3,-0.3 0.98,-0.32 1.68,-0.68 0.7,-0.36 1.16,-0.66 0.48,-0.32 0.82,-0.32 0.44,0 0.68,0.34 l 1,1.3 q -0.66,0.8 -1.58,1.4 -0.92,0.58 -1.98,0.96 -1.04,0.38 -2.16,0.56 -1.12,0.2 -2.22,0.2 -2.1,0 -3.88,-0.7 -1.76,-0.72 -3.06,-2.08 -1.28,-1.38 -2,-3.4 -0.72,-2.02 -0.72,-4.64 0,-2.12 0.64,-3.96 0.66,-1.84 1.88,-3.18 1.22,-1.36 2.98,-2.12 1.76,-0.78 3.96,-0.78 z m 0.08,2.62 q -2.58,0 -4.06,1.5 -1.48,1.48 -1.84,4.12 l 11.08,0 q 0,-1.24 -0.36,-2.26 -0.34,-1.04 -1.02,-1.78 -0.66,-0.76 -1.62,-1.16 -0.96,-0.42 -2.18,-0.42 z" />
    <path
       id="path121"
       style="font-style:normal;font-variant:normal;font-weight:normal;font-stretch:normal;font-family:Lato;-inkscape-font-specification:Lato"
       d="m 368.50745,158.20743 0,-20.26 2.14,0 q 0.76,0 0.94,0.74 l 0.28,2.2 q 1.32,-1.46 2.96,-2.36 1.64,-0.9 3.78,-0.9 1.66,0 2.92,0.56 1.28,0.54 2.12,1.56 0.86,1 1.3,2.42 0.44,1.42 0.44,3.14 l 0,12.9 -3.58,0 0,-12.9 q 0,-2.3 -1.06,-3.56 -1.04,-1.28 -3.18,-1.28 -1.6,0 -2.98,0.76 -1.36,0.76 -2.5,2.06 l 0,14.92 -3.58,0 z" />
    <path
       id="path123"
       style="font-style:normal;font-variant:normal;font-weight:normal;font-stretch:normal;font-family:Lato;-inkscape-font-specification:Lato"
       d="m 399.1512,137.62743 q 1.82,0 3.36,0.62 1.56,0.6 2.68,1.76 1.14,1.14 1.78,2.84 0.64,1.68 0.64,3.84 0,0.84 -0.18,1.12 -0.18,0.28 -0.68,0.28 l -13.54,0 q 0.04,1.92 0.52,3.34 0.48,1.42 1.32,2.38 0.84,0.94 2,1.42 1.16,0.46 2.6,0.46 1.34,0 2.3,-0.3 0.98,-0.32 1.68,-0.68 0.7,-0.36 1.16,-0.66 0.48,-0.32 0.82,-0.32 0.44,0 0.68,0.34 l 1,1.3 q -0.66,0.8 -1.58,1.4 -0.92,0.58 -1.98,0.96 -1.04,0.38 -2.16,0.56 -1.12,0.2 -2.22,0.2 -2.1,0 -3.88,-0.7 -1.76,-0.72 -3.06,-2.08 -1.28,-1.38 -2,-3.4 -0.72,-2.02 -0.72,-4.64 0,-2.12 0.64,-3.96 0.66,-1.84 1.88,-3.18 1.22,-1.36 2.98,-2.12 1.76,-0.78 3.96,-0.78 z m 0.08,2.62 q -2.58,0 -4.06,1.5 -1.48,1.48 -1.84,4.12 l 11.08,0 q 0,-1.24 -0.36,-2.26 -0.34,-1.04 -1.02,-1.78 -0.66,-0.76 -1.62,-1.16 -0.96,-0.42 -2.18,-0.42 z" />
    <path
       id="path125"
       style="font-style:normal;font-variant:normal;font-weight:normal;font-stretch:normal;font-family:Lato;-inkscape-font-specification:Lato"
       d="m 409.75058,158.20743 0,0 z m 8.18,0.32 q -2.4,0 -3.7,-1.34 -1.28,-1.34 -1.28,-3.86 l 0,-12.4 -2.44,0 q -0.32,0 -0.54,-0.18 -0.22,-0.2 -0.22,-0.6 l 0,-1.42 3.32,-0.42 0.82,-6.26 q 0.06,-0.3 0.26,-0.48 0.22,-0.2 0.56,-0.2 l 1.8,0 0,6.98 14,0 0,19.86 -3.56,0 0,-17.28 -10.44,0 0,12.16 q 0,1.28 0.62,1.9 0.62,0.62 1.6,0.62 0.56,0 0.96,-0.14 0.42,-0.16 0.72,-0.34 0.3,-0.18 0.5,-0.32 0.22,-0.16 0.38,-0.16 0.28,0 0.5,0.34 l 1.04,1.7 q -0.92,0.86 -2.22,1.36 -1.3,0.48 -2.68,0.48 z m 13.46,-27.08 q 0,0.52 -0.22,0.98 -0.2,0.44 -0.56,0.78 -0.34,0.34 -0.8,0.54 -0.46,0.2 -0.98,0.2 -0.52,0 -0.98,-0.2 -0.44,-0.2 -0.78,-0.54 -0.34,-0.34 -0.54,-0.78 -0.2,-0.46 -0.2,-0.98 0,-0.52 0.2,-0.98 0.2,-0.48 0.54,-0.82 0.34,-0.36 0.78,-0.56 0.46,-0.2 0.98,-0.2 0.52,0 0.98,0.2 0.46,0.2 0.8,0.56 0.36,0.34 0.56,0.82 0.22,0.46 0.22,0.98 z" />
    <path
       id="path127"
       style="font-style:normal;font-variant:normal;font-weight:normal;font-stretch:normal;font-family:Lato;-inkscape-font-specification:Lato"
       d="m 450.41995,141.54743 q -0.16,0.22 -0.32,0.34 -0.16,0.12 -0.44,0.12 -0.3,0 -0.66,-0.24 -0.36,-0.26 -0.9,-0.56 -0.52,-0.3 -1.3,-0.54 -0.76,-0.26 -1.88,-0.26 -1.5,0 -2.64,0.54 -1.14,0.52 -1.92,1.52 -0.76,1 -1.16,2.42 -0.38,1.42 -0.38,3.18 0,1.84 0.42,3.28 0.42,1.42 1.18,2.4 0.78,0.96 1.86,1.48 1.1,0.5 2.46,0.5 1.3,0 2.14,-0.3 0.84,-0.32 1.38,-0.7 0.56,-0.38 0.92,-0.68 0.38,-0.32 0.74,-0.32 0.44,0 0.68,0.34 l 1,1.3 q -0.66,0.82 -1.5,1.4 -0.84,0.58 -1.82,0.98 -0.96,0.38 -2.02,0.56 -1.06,0.18 -2.16,0.18 -1.9,0 -3.54,-0.7 -1.62,-0.7 -2.82,-2.02 -1.2,-1.34 -1.88,-3.28 -0.68,-1.94 -0.68,-4.42 0,-2.26 0.62,-4.18 0.64,-1.92 1.84,-3.3 1.22,-1.4 2.98,-2.18 1.78,-0.78 4.08,-0.78 2.14,0 3.76,0.7 1.64,0.68 2.9,1.94 l -0.94,1.28 z" />
    <path
       id="path129"
       style="font-style:normal;font-variant:normal;font-weight:normal;font-stretch:normal;font-family:Lato;-inkscape-font-specification:Lato"
       d="m 467.18245,141.28743 q -0.24,0.44 -0.74,0.44 -0.3,0 -0.68,-0.22 -0.38,-0.22 -0.94,-0.48 -0.54,-0.28 -1.3,-0.5 -0.76,-0.24 -1.8,-0.24 -0.9,0 -1.62,0.24 -0.72,0.22 -1.24,0.62 -0.5,0.4 -0.78,0.94 -0.26,0.52 -0.26,1.14 0,0.78 0.44,1.3 0.46,0.52 1.2,0.9 0.74,0.38 1.68,0.68 0.94,0.28 1.92,0.62 1,0.32 1.94,0.72 0.94,0.4 1.68,1 0.74,0.6 1.18,1.48 0.46,0.86 0.46,2.08 0,1.4 -0.5,2.6 -0.5,1.18 -1.48,2.06 -0.98,0.86 -2.4,1.36 -1.42,0.5 -3.28,0.5 -2.12,0 -3.84,-0.68 -1.72,-0.7 -2.92,-1.78 l 0.84,-1.36 q 0.16,-0.26 0.38,-0.4 0.22,-0.14 0.56,-0.14 0.36,0 0.76,0.28 0.4,0.28 0.96,0.62 0.58,0.34 1.4,0.62 0.82,0.28 2.04,0.28 1.04,0 1.82,-0.26 0.78,-0.28 1.3,-0.74 0.52,-0.46 0.76,-1.06 0.26,-0.6 0.26,-1.28 0,-0.84 -0.46,-1.38 -0.44,-0.56 -1.18,-0.94 -0.74,-0.4 -1.7,-0.68 -0.94,-0.3 -1.94,-0.62 -0.98,-0.32 -1.94,-0.72 -0.94,-0.42 -1.68,-1.04 -0.74,-0.62 -1.2,-1.52 -0.44,-0.92 -0.44,-2.22 0,-1.16 0.48,-2.22 0.48,-1.08 1.4,-1.88 0.92,-0.82 2.26,-1.3 1.34,-0.48 3.06,-0.48 2,0 3.58,0.64 1.6,0.62 2.76,1.72 l -0.8,1.3 z" />
    <path
       id="path131"
       style="font-style:normal;font-variant:normal;font-weight:normal;font-stretch:normal;font-family:Lato;-inkscape-font-specification:Lato"
       d="m 472.4462,139.78743 0,0 z m 3.1,-10.24 0,5.8 -0.32,3.1 q -0.1,0.64 -0.38,1 -0.26,0.34 -0.86,0.34 -0.54,0 -0.84,-0.34 -0.28,-0.36 -0.38,-1 l -0.32,-3.1 0,-5.8 3.1,0 z m 6.66,0 0,5.8 -0.32,3.1 q -0.1,0.64 -0.38,1 -0.26,0.34 -0.86,0.34 -0.54,0 -0.84,-0.34 -0.28,-0.36 -0.38,-1 l -0.32,-3.1 0,-5.8 3.1,0 z" />
  </g>
  <path
     id="path3302"
     d="m 168.85495,199.72398 c 356.9646,0 356.9646,0 356.9646,0"
     style="fill:none;stroke:#000000;stroke-width:4.49696064;stroke-linecap:butt;stroke-linejoin:miter;stroke-miterlimit:4;stroke-opacity:1;stroke-dasharray:none;marker-end:url(#Arrow1Mend)" />
  <g
     transform="matrix(7.1719379,0,0,7.1719379,-70.694099,-124.07896)"
     id="g52"
     style="font-style:normal;font-variant:normal;font-weight:normal;font-stretch:normal;font-size:5.50337791px;line-height:125%;font-family:Lato;text-align:start;writing-mode:lr-tb;text-anchor:start;fill:#000000;stroke:#000000;stroke-width:0.40000001">
    <path
       id="circle54"
       d="m 104.0356,34.393379 a 0.5,0.5 0 0 1 -0.5,0.5 0.5,0.5 0 0 1 -0.5,-0.5 0.5,0.5 0 0 1 0.5,-0.5 0.5,0.5 0 0 1 0.5,0.5 z"
       style="font-style:normal;font-variant:normal;font-weight:normal;font-stretch:normal;font-size:5.50337791px;line-height:125%;font-family:Lato;text-align:start;writing-mode:lr-tb;text-anchor:start" />
    <path
       id="circle56"
       d="m 100.5,59.14209 a 0.5,0.5 0 0 1 -0.5,0.5 0.5,0.5 0 0 1 -0.5,-0.5 0.5,0.5 0 0 1 0.5,-0.5 0.5,0.5 0 0 1 0.5,0.5 z"
       style="font-style:normal;font-variant:normal;font-weight:normal;font-stretch:normal;font-size:5.50337791px;line-height:125%;font-family:Lato;text-align:start;writing-mode:lr-tb;text-anchor:start" />
    <path
       id="circle58"
       d="m 140.9559,33.686298 a 0.5,0.5 0 0 1 -0.5,0.5 0.5,0.5 0 0 1 -0.5,-0.5 0.5,0.5 0 0 1 0.5,-0.5 0.5,0.5 0 0 1 0.5,0.5 z"
       style="font-style:normal;font-variant:normal;font-weight:normal;font-stretch:normal;font-size:5.50337791px;line-height:125%;font-family:Lato;text-align:start;writing-mode:lr-tb;text-anchor:start" />
    <path
       id="circle60"
       d="m 138.481,53.838829 a 0.5,0.5 0 0 1 -0.5,0.5 0.5,0.5 0 0 1 -0.5,-0.5 0.5,0.5 0 0 1 0.5,-0.5 0.5,0.5 0 0 1 0.5,0.5 z"
       style="font-style:normal;font-variant:normal;font-weight:normal;font-stretch:normal;font-size:5.50337791px;line-height:125%;font-family:Lato;text-align:start;writing-mode:lr-tb;text-anchor:start" />
    <path
       id="circle62"
       d="m 114.6422,45 a 0.5,0.5 0 0 1 -0.5,0.5 0.5,0.5 0 0 1 -0.5,-0.5 0.5,0.5 0 0 1 0.5,-0.5 0.5,0.5 0 0 1 0.5,0.5 z"
       style="font-style:normal;font-variant:normal;font-weight:normal;font-stretch:normal;font-size:5.50337791px;line-height:125%;font-family:Lato;text-align:start;writing-mode:lr-tb;text-anchor:start" />
    <path
       id="circle64"
       d="m 129.6422,45 a 0.5,0.5 0 0 1 -0.5,0.5 0.5,0.5 0 0 1 -0.5,-0.5 0.5,0.5 0 0 1 0.5,-0.5 0.5,0.5 0 0 1 0.5,0.5 z"
       style="font-style:normal;font-variant:normal;font-weight:normal;font-stretch:normal;font-size:5.50337791px;line-height:125%;font-family:Lato;text-align:start;writing-mode:lr-tb;text-anchor:start" />
    <path
       id="line66"
       d="M 114.1422,45 103.5356,34.393379"
       style="font-style:normal;font-variant:normal;font-weight:normal;font-stretch:normal;font-size:5.50337791px;line-height:125%;font-family:Lato;text-align:start;writing-mode:lr-tb;text-anchor:start" />
    <path
       id="line68"
       d="M 114.1422,45 100,59.14209"
       style="font-style:normal;font-variant:normal;font-weight:normal;font-stretch:normal;font-size:5.50337791px;line-height:125%;font-family:Lato;text-align:start;writing-mode:lr-tb;text-anchor:start" />
    <path
       id="line70"
       d="M 129.1422,45 140.4559,33.686298"
       style="font-style:normal;font-variant:normal;font-weight:normal;font-stretch:normal;font-size:5.50337791px;line-height:125%;font-family:Lato;text-align:start;writing-mode:lr-tb;text-anchor:start" />
    <path
       id="line72"
       d="m 129.1422,45 8.8388,8.838829"
       style="font-style:normal;font-variant:normal;font-weight:normal;font-stretch:normal;font-size:5.50337791px;line-height:125%;font-family:Lato;text-align:start;writing-mode:lr-tb;text-anchor:start" />
    <path
       id="line74"
       d="m 114.1422,45 15,0"
       style="font-style:normal;font-variant:normal;font-weight:normal;font-stretch:normal;font-size:5.50337791px;line-height:125%;font-family:Lato;text-align:start;writing-mode:lr-tb;text-anchor:start" />
  </g>
  <g
     id="text3274-9"
     style="font-style:normal;font-variant:normal;font-weight:normal;font-stretch:normal;font-size:40px;line-height:125%;font-family:Serif;-inkscape-font-specification:Serif;text-align:start;writing-mode:lr-tb;text-anchor:start;fill:#000000;fill-opacity:1;stroke:none">
    <path
       id="path145"
       style="font-style:normal;font-variant:normal;font-weight:normal;font-stretch:normal;font-family:Lato;-inkscape-font-specification:Lato"
       d="m 673.7308,18.155542 0,0 z m 3.1,-10.2399996 0,5.7999996 -0.32,3.1 q -0.1,0.64 -0.38,1 -0.26,0.34 -0.86,0.34 -0.54,0 -0.84,-0.34 -0.28,-0.36 -0.38,-1 l -0.32,-3.1 0,-5.7999996 3.1,0 z m 6.66,0 0,5.7999996 -0.32,3.1 q -0.1,0.64 -0.38,1 -0.26,0.34 -0.86,0.34 -0.54,0 -0.84,-0.34 -0.28,-0.36 -0.38,-1 l -0.32,-3.1 0,-5.7999996 3.1,0 z" />
    <path
       id="path147"
       style="font-style:normal;font-variant:normal;font-weight:normal;font-stretch:normal;font-family:Lato;-inkscape-font-specification:Lato"
       d="m 692.21455,16.315542 0,12.92 q 0,2.3 1.04,3.56 1.06,1.26 3.22,1.26 1.56,0 2.94,-0.74 1.38,-0.74 2.54,-2.06 l 0,-14.94 3.56,0 0,20.26 -2.12,0 q -0.76,0 -0.96,-0.74 l -0.28,-2.18 q -1.32,1.46 -2.96,2.36 -1.64,0.88 -3.76,0.88 -1.66,0 -2.94,-0.54 -1.26,-0.56 -2.12,-1.56 -0.86,-1 -1.3,-2.42 -0.42,-1.42 -0.42,-3.14 l 0,-12.92 3.56,0 z" />
    <path
       id="path149"
       style="font-style:normal;font-variant:normal;font-weight:normal;font-stretch:normal;font-family:Lato;-inkscape-font-specification:Lato"
       d="m 711.12017,36.575542 0,-20.26 2.14,0 q 0.76,0 0.94,0.74 l 0.28,2.2 q 1.32,-1.46 2.96,-2.36 1.64,-0.9 3.78,-0.9 1.66,0 2.92,0.56 1.28,0.54 2.12,1.56 0.86,1 1.3,2.42 0.44,1.42 0.44,3.14 l 0,12.9 -3.58,0 0,-12.9 q 0,-2.3 -1.06,-3.56 -1.04,-1.28 -3.18,-1.28 -1.6,0 -2.98,0.76 -1.36,0.76 -2.5,2.06 l 0,14.92 -3.58,0 z" />
    <path
       id="path151"
       style="font-style:normal;font-variant:normal;font-weight:normal;font-stretch:normal;font-family:Lato;-inkscape-font-specification:Lato"
       d="m 733.46392,36.575542 0,-20.26 2.04,0 q 0.58,0 0.8,0.22 0.22,0.22 0.3,0.76 l 0.22,3.08 q 0.96,-2.08 2.36,-3.24 1.42,-1.18 3.44,-1.18 0.64,0 1.22,0.14 0.6,0.14 1.06,0.44 l -0.26,2.66 q -0.12,0.5 -0.6,0.5 -0.28,0 -0.82,-0.12 -0.54,-0.12 -1.22,-0.12 -0.96,0 -1.72,0.3 -0.76,0.28 -1.36,0.84 -0.58,0.54 -1.04,1.34 -0.46,0.8 -0.84,1.84 l 0,12.8 -3.58,0 z" />
    <path
       id="path153"
       style="font-style:normal;font-variant:normal;font-weight:normal;font-stretch:normal;font-family:Lato;-inkscape-font-specification:Lato"
       d="m 755.75392,15.995542 q 2.22,0 4,0.74 1.78,0.74 3.04,2.1 1.26,1.36 1.92,3.3 0.68,1.92 0.68,4.3 0,2.4 -0.68,4.32 -0.66,1.92 -1.92,3.28 -1.26,1.36 -3.04,2.1 -1.78,0.72 -4,0.72 -2.24,0 -4.04,-0.72 -1.78,-0.74 -3.04,-2.1 -1.26,-1.36 -1.94,-3.28 -0.66,-1.92 -0.66,-4.32 0,-2.38 0.66,-4.3 0.68,-1.94 1.94,-3.3 1.26,-1.36 3.04,-2.1 1.8,-0.74 4.04,-0.74 z m 0,18.08 q 3,0 4.48,-2 1.48,-2.02 1.48,-5.62 0,-3.62 -1.48,-5.64 -1.48,-2.02 -4.48,-2.02 -1.52,0 -2.66,0.52 -1.12,0.52 -1.88,1.5 -0.74,0.98 -1.12,2.42 -0.36,1.42 -0.36,3.22 0,3.6 1.48,5.62 1.5,2 4.54,2 z" />
    <path
       id="path155"
       style="font-style:normal;font-variant:normal;font-weight:normal;font-stretch:normal;font-family:Lato;-inkscape-font-specification:Lato"
       d="m 778.41017,15.995542 q 2.22,0 4,0.74 1.78,0.74 3.04,2.1 1.26,1.36 1.92,3.3 0.68,1.92 0.68,4.3 0,2.4 -0.68,4.32 -0.66,1.92 -1.92,3.28 -1.26,1.36 -3.04,2.1 -1.78,0.72 -4,0.72 -2.24,0 -4.04,-0.72 -1.78,-0.74 -3.04,-2.1 -1.26,-1.36 -1.94,-3.28 -0.66,-1.92 -0.66,-4.32 0,-2.38 0.66,-4.3 0.68,-1.94 1.94,-3.3 1.26,-1.36 3.04,-2.1 1.8,-0.74 4.04,-0.74 z m 0,18.08 q 3,0 4.48,-2 1.48,-2.02 1.48,-5.62 0,-3.62 -1.48,-5.64 -1.48,-2.02 -4.48,-2.02 -1.52,0 -2.66,0.52 -1.12,0.52 -1.88,1.5 -0.74,0.98 -1.12,2.42 -0.36,1.42 -0.36,3.22 0,3.6 1.48,5.62 1.5,2 4.54,2 z" />
    <path
       id="path157"
       style="font-style:normal;font-variant:normal;font-weight:normal;font-stretch:normal;font-family:Lato;-inkscape-font-specification:Lato"
       d="m 798.3558,36.895542 q -2.4,0 -3.7,-1.34 -1.28,-1.34 -1.28,-3.86 l 0,-12.4 -2.44,0 q -0.32,0 -0.54,-0.18 -0.22,-0.2 -0.22,-0.6 l 0,-1.42 3.32,-0.42 0.82,-6.26 q 0.06,-0.3 0.26,-0.4799996 0.22,-0.2 0.56,-0.2 l 1.8,0 0,6.9799996 5.86,0 0,2.58 -5.86,0 0,12.16 q 0,1.28 0.62,1.9 0.62,0.62 1.6,0.62 0.56,0 0.96,-0.14 0.42,-0.16 0.72,-0.34 0.3,-0.18 0.5,-0.32 0.22,-0.16 0.38,-0.16 0.28,0 0.5,0.34 l 1.04,1.7 q -0.92,0.86 -2.22,1.36 -1.3,0.48 -2.68,0.48 z" />
    <path
       id="path159"
       style="font-style:normal;font-variant:normal;font-weight:normal;font-stretch:normal;font-family:Lato;-inkscape-font-specification:Lato"
       d="m 814.8108,15.995542 q 1.82,0 3.36,0.62 1.56,0.6 2.68,1.76 1.14,1.14 1.78,2.84 0.64,1.68 0.64,3.84 0,0.84 -0.18,1.12 -0.18,0.28 -0.68,0.28 l -13.54,0 q 0.04,1.92 0.52,3.34 0.48,1.42 1.32,2.38 0.84,0.94 2,1.42 1.16,0.46 2.6,0.46 1.34,0 2.3,-0.3 0.98,-0.32 1.68,-0.68 0.7,-0.36 1.16,-0.66 0.48,-0.32 0.82,-0.32 0.44,0 0.68,0.34 l 1,1.3 q -0.66,0.8 -1.58,1.4 -0.92,0.58 -1.98,0.96 -1.04,0.38 -2.16,0.56 -1.12,0.2 -2.22,0.2 -2.1,0 -3.88,-0.7 -1.76,-0.72 -3.06,-2.08 -1.28,-1.38 -2,-3.4 -0.72,-2.02 -0.72,-4.64 0,-2.12 0.64,-3.96 0.66,-1.84 1.88,-3.18 1.22,-1.36 2.98,-2.12 1.76,-0.78 3.96,-0.78 z m 0.08,2.62 q -2.58,0 -4.06,1.5 -1.48,1.48 -1.84,4.12 l 11.08,0 q 0,-1.24 -0.36,-2.26 -0.34,-1.04 -1.02,-1.78 -0.66,-0.76 -1.62,-1.16 -0.96,-0.42 -2.18,-0.42 z" />
    <path
       id="path161"
       style="font-style:normal;font-variant:normal;font-weight:normal;font-stretch:normal;font-family:Lato;-inkscape-font-specification:Lato"
       d="m 842.24455,36.575542 q -0.76,0 -0.96,-0.74 l -0.32,-2.46 q -1.3,1.58 -2.98,2.54 -1.66,0.94 -3.82,0.94 -1.74,0 -3.16,-0.66 -1.42,-0.68 -2.42,-1.98 -1,-1.3 -1.54,-3.24 -0.54,-1.94 -0.54,-4.46 0,-2.24 0.6,-4.16 0.6,-1.94 1.72,-3.36 1.12,-1.42 2.74,-2.22 1.64,-0.82 3.68,-0.82 1.86,0 3.18,0.64 1.34,0.62 2.38,1.76 l 0,-11.2399996 3.56,0 0,29.4599996 -2.12,0 z m -6.92,-2.6 q 1.76,0 3.06,-0.8 1.32,-0.8 2.42,-2.26 l 0,-9.78 q -1,-1.32 -2.16,-1.86 -1.16,-0.54 -2.6,-0.54 -2.82,0 -4.34,2.02 -1.52,2.02 -1.52,5.76 0,1.98 0.34,3.4 0.34,1.4 1,2.32 0.66,0.9 1.62,1.32 0.96,0.42 2.18,0.42 z" />
    <path
       id="path163"
       style="font-style:normal;font-variant:normal;font-weight:normal;font-stretch:normal;font-family:Lato;-inkscape-font-specification:Lato"
       d="m 866.4808,36.895542 q -2.4,0 -3.7,-1.34 -1.28,-1.34 -1.28,-3.86 l 0,-12.4 -2.44,0 q -0.32,0 -0.54,-0.18 -0.22,-0.2 -0.22,-0.6 l 0,-1.42 3.32,-0.42 0.82,-6.26 q 0.06,-0.3 0.26,-0.4799996 0.22,-0.2 0.56,-0.2 l 1.8,0 0,6.9799996 5.86,0 0,2.58 -5.86,0 0,12.16 q 0,1.28 0.62,1.9 0.62,0.62 1.6,0.62 0.56,0 0.96,-0.14 0.42,-0.16 0.72,-0.34 0.3,-0.18 0.5,-0.32 0.22,-0.16 0.38,-0.16 0.28,0 0.5,0.34 l 1.04,1.7 q -0.92,0.86 -2.22,1.36 -1.3,0.48 -2.68,0.48 z" />
    <path
       id="path165"
       style="font-style:normal;font-variant:normal;font-weight:normal;font-stretch:normal;font-family:Lato;-inkscape-font-specification:Lato"
       d="m 874.6358,36.575542 0,-20.26 2.04,0 q 0.58,0 0.8,0.22 0.22,0.22 0.3,0.76 l 0.22,3.08 q 0.96,-2.08 2.36,-3.24 1.42,-1.18 3.44,-1.18 0.64,0 1.22,0.14 0.6,0.14 1.06,0.44 l -0.26,2.66 q -0.12,0.5 -0.6,0.5 -0.28,0 -0.82,-0.12 -0.54,-0.12 -1.22,-0.12 -0.96,0 -1.72,0.3 -0.76,0.28 -1.36,0.84 -0.58,0.54 -1.04,1.34 -0.46,0.8 -0.84,1.84 l 0,12.8 -3.58,0 z" />
    <path
       id="path167"
       style="font-style:normal;font-variant:normal;font-weight:normal;font-stretch:normal;font-family:Lato;-inkscape-font-specification:Lato"
       d="m 896.6858,15.995542 q 1.82,0 3.36,0.62 1.56,0.6 2.68,1.76 1.14,1.14 1.78,2.84 0.64,1.68 0.64,3.84 0,0.84 -0.18,1.12 -0.18,0.28 -0.68,0.28 l -13.54,0 q 0.04,1.92 0.52,3.34 0.48,1.42 1.32,2.38 0.84,0.94 2,1.42 1.16,0.46 2.6,0.46 1.34,0 2.3,-0.3 0.98,-0.32 1.68,-0.68 0.7,-0.36 1.16,-0.66 0.48,-0.32 0.82,-0.32 0.44,0 0.68,0.34 l 1,1.3 q -0.66,0.8 -1.58,1.4 -0.92,0.58 -1.98,0.96 -1.04,0.38 -2.16,0.56 -1.12,0.2 -2.22,0.2 -2.1,0 -3.88,-0.7 -1.76,-0.72 -3.06,-2.08 -1.28,-1.38 -2,-3.4 -0.72,-2.02 -0.72,-4.64 0,-2.12 0.64,-3.96 0.66,-1.84 1.88,-3.18 1.22,-1.36 2.98,-2.12 1.76,-0.78 3.96,-0.78 z m 0.08,2.62 q -2.58,0 -4.06,1.5 -1.48,1.48 -1.84,4.12 l 11.08,0 q 0,-1.24 -0.36,-2.26 -0.34,-1.04 -1.02,-1.78 -0.66,-0.76 -1.62,-1.16 -0.96,-0.42 -2.18,-0.42 z" />
    <path
       id="path169"
       style="font-style:normal;font-variant:normal;font-weight:normal;font-stretch:normal;font-family:Lato;-inkscape-font-specification:Lato"
       d="m 917.77955,15.995542 q 1.82,0 3.36,0.62 1.56,0.6 2.68,1.76 1.14,1.14 1.78,2.84 0.64,1.68 0.64,3.84 0,0.84 -0.18,1.12 -0.18,0.28 -0.68,0.28 l -13.54,0 q 0.04,1.92 0.52,3.34 0.48,1.42 1.32,2.38 0.84,0.94 2,1.42 1.16,0.46 2.6,0.46 1.34,0 2.3,-0.3 0.98,-0.32 1.68,-0.68 0.7,-0.36 1.16,-0.66 0.48,-0.32 0.82,-0.32 0.44,0 0.68,0.34 l 1,1.3 q -0.66,0.8 -1.58,1.4 -0.92,0.58 -1.98,0.96 -1.04,0.38 -2.16,0.56 -1.12,0.2 -2.22,0.2 -2.1,0 -3.88,-0.7 -1.76,-0.72 -3.06,-2.08 -1.28,-1.38 -2,-3.4 -0.72,-2.02 -0.72,-4.64 0,-2.12 0.64,-3.96 0.66,-1.84 1.88,-3.18 1.22,-1.36 2.98,-2.12 1.76,-0.78 3.96,-0.78 z m 0.08,2.62 q -2.58,0 -4.06,1.5 -1.48,1.48 -1.84,4.12 l 11.08,0 q 0,-1.24 -0.36,-2.26 -0.34,-1.04 -1.02,-1.78 -0.66,-0.76 -1.62,-1.16 -0.96,-0.42 -2.18,-0.42 z" />
    <path
       id="path171"
       style="font-style:normal;font-variant:normal;font-weight:normal;font-stretch:normal;font-family:Lato;-inkscape-font-specification:Lato"
       d="m 929.59017,18.155542 0,0 z m 3.1,-10.2399996 0,5.7999996 -0.32,3.1 q -0.1,0.64 -0.38,1 -0.26,0.34 -0.86,0.34 -0.54,0 -0.84,-0.34 -0.28,-0.36 -0.38,-1 l -0.32,-3.1 0,-5.7999996 3.1,0 z m 6.66,0 0,5.7999996 -0.32,3.1 q -0.1,0.64 -0.38,1 -0.26,0.34 -0.86,0.34 -0.54,0 -0.84,-0.34 -0.28,-0.36 -0.38,-1 l -0.32,-3.1 0,-5.7999996 3.1,0 z" />
  </g>
</svg>
