<?xml version="1.0" encoding="UTF-8" standalone="no"?>
<svg
   xmlns:dc="http://purl.org/dc/elements/1.1/"
   xmlns:cc="http://creativecommons.org/ns#"
   xmlns:rdf="http://www.w3.org/1999/02/22-rdf-syntax-ns#"
   xmlns:svg="http://www.w3.org/2000/svg"
   xmlns="http://www.w3.org/2000/svg"
   viewBox="0 0 951.46362 317.94733"
   x="0px"
   y="0px"
   version="1.1"
   height="317.94733"
   width="951.46362"
   id="svg2">
  <metadata
     id="metadata73">
    <rdf:RDF>
      <cc:Work
         rdf:about="">
        <dc:format>image/svg+xml</dc:format>
        <dc:type
           rdf:resource="http://purl.org/dc/dcmitype/StillImage" />
        <dc:title />
      </cc:Work>
    </rdf:RDF>
  </metadata>
  <defs
     id="defs71">
    <marker
       style="overflow:visible"
       overflow="visible"
       orient="auto"
       refX="0"
       refY="0"
       id="Arrow1Mend">
      <path
         style="fill-rule:evenodd;stroke:#000000;stroke-width:1pt"
         transform="matrix(-0.4,0,0,-0.4,-4,0)"
         d="M 0,0 5,-5 -12.5,0 5,5 0,0 Z"
         id="path3316" />
    </marker>
  </defs>
  <desc
     id="desc6">Creator: FreeHEP Graphics2D Driver Producer: org.freehep.graphicsio.svg.SVGGraphics2D Revision: 12753  Source:  Date: Tuesday, February 17, 2009 4:12:33 PM PST</desc>
  <g
     style="fill:none;stroke:#2d3680;stroke-width:10;stroke-linecap:round;stroke-linejoin:round;stroke-miterlimit:10;stroke-opacity:0.50196043"
     stroke-miterlimit="10"
     transform="matrix(0.47466,0,0,0.47466,-14.564314,-131.8571)"
     id="g62" />
  <g
     style="fill:#2d3680;fill-opacity:0.50196037"
     transform="matrix(0.47466,0,0,0.47466,-14.564314,-131.8571)"
     id="g66" />
  <!-- default stroke -->
  <g
     transform="translate(-16.140314,-35.728998)"
     id="g3016">
    <g
       id="g3278"
       transform="matrix(0.77907694,0,0,0.77867431,582.94418,29.269536)">
      <g
         id="g10"
         transform="matrix(0.47466,0,0,0.47466,1.576,7.8719)"
         stroke-miterlimit="10"
         style="fill:none;stroke:#000000;stroke-width:11.24704647;stroke-miterlimit:10">
        <path
           id="path12"
           d="m 286.11,634.5 -271.95,0 -0.002,-300"
           stroke-miterlimit="10"
           style="stroke-width:11.24704647;stroke-miterlimit:10" />
      </g>
      <g
         id="g14"
         transform="matrix(0.47466,0,0,0.47466,1.576,7.8719)"
         stroke-miterlimit="10"
         style="fill:none;stroke:#000000;stroke-width:11.24704647;stroke-miterlimit:10">
        <path
           id="path16"
           d="m 150.13,34.5 -135.97,0 -0.002,300"
           stroke-miterlimit="10"
           style="stroke-width:11.24704647;stroke-miterlimit:10" />
      </g>
      <g
         id="g18"
         transform="matrix(0.47466,0,0,0.47466,1.576,7.8719)"
         stroke-miterlimit="10"
         style="fill:none;stroke:#000000;stroke-width:11.24704647;stroke-miterlimit:10">
        <path
           id="path20"
           d="m 6,334.5 8.158,0"
           stroke-miterlimit="10"
           style="stroke-width:11.24704647;stroke-miterlimit:10" />
      </g>
      <g
         id="g22"
         transform="matrix(0.47466,0,0,0.47466,1.576,7.8719)"
         stroke-miterlimit="10"
         style="fill:none;stroke:#000000;stroke-width:11.24704647;stroke-miterlimit:10">
        <path
           id="path24"
           d="m 558.05,434.5 -271.94,0 0,200"
           stroke-miterlimit="10"
           style="stroke-width:11.24704647;stroke-miterlimit:10" />
      </g>
      <g
         id="g26"
         transform="matrix(0.47466,0,0,0.47466,1.576,7.8719)"
         stroke-miterlimit="10"
         style="fill:none;stroke:#000000;stroke-width:11.24704647;stroke-miterlimit:10">
        <path
           id="path28"
           d="m 449.27,834.5 -163.16,0 0,-200"
           stroke-miterlimit="10"
           style="stroke-width:11.24704647;stroke-miterlimit:10" />
      </g>
      <g
         id="g30"
         transform="matrix(0.47466,0,0,0.47466,1.576,7.8719)"
         stroke-miterlimit="10"
         style="fill:none;stroke:#000000;stroke-width:11.24704647;stroke-miterlimit:10">
        <path
           id="path32"
           d="m 639.64,567.83 -81.59,0 0,-133.33"
           stroke-miterlimit="10"
           style="stroke-width:11.24704647;stroke-miterlimit:10" />
      </g>
      <g
         id="g34"
         transform="matrix(0.47466,0,0,0.47466,1.576,7.8719)"
         stroke-miterlimit="10"
         style="fill:none;stroke:#000000;stroke-width:11.24704647;stroke-miterlimit:10">
        <path
           id="path36"
           d="m 830,301.17 -271.95,0 0,133.33"
           stroke-miterlimit="10"
           style="stroke-width:11.24704647;stroke-miterlimit:10" />
      </g>
      <g
         id="text2484"
         style="font-size:32px;line-height:125%;font-family:Lato, Arial, Helvetica, sans-serif;fill:#000000">
        <path
           id="path43"
           style=""
           d="m 91.570643,31.863461 q -0.416,0 -0.64,-0.128 -0.224,-0.144 -0.352,-0.544 l -0.32,-1.52 q -0.64,0.576 -1.264,1.04 -0.608,0.448 -1.28,0.768 -0.656,0.304 -1.424,0.464 -0.752,0.176 -1.68,0.176 -0.944,0 -1.776,-0.256 -0.832,-0.272 -1.456,-0.8 -0.608,-0.528 -0.976,-1.328 -0.352,-0.816 -0.352,-1.92 0,-0.96 0.528,-1.84 0.528,-0.896 1.712,-1.584 1.184,-0.688 3.088,-1.12 1.904,-0.448 4.672,-0.512 l 0,-1.264 q 0,-1.888 -0.816,-2.848 -0.816,-0.976 -2.384,-0.976 -1.056,0 -1.776,0.272 -0.704,0.256 -1.232,0.592 -0.512,0.32 -0.896,0.592 -0.368,0.256 -0.736,0.256 -0.288,0 -0.496,-0.144 -0.208,-0.16 -0.352,-0.384 l -0.512,-0.912 q 1.344,-1.296 2.896,-1.936 1.552,-0.64 3.44,-0.64 1.36,0 2.416,0.448 1.056,0.448 1.776,1.248 0.72,0.8 1.088,1.936 0.368,1.136 0.368,2.496 l 0,10.368 -1.264,0 z m -6.112,-1.744 q 0.752,0 1.376,-0.144 0.624,-0.16 1.168,-0.432 0.56,-0.288 1.056,-0.688 0.512,-0.416 0.992,-0.928 l 0,-3.36 q -1.968,0.064 -3.36,0.32 -1.376,0.24 -2.256,0.64 -0.864,0.4 -1.264,0.944 -0.384,0.544 -0.384,1.216 0,0.64 0.208,1.104 0.208,0.464 0.56,0.768 0.368,0.288 0.848,0.432 0.496,0.128 1.056,0.128 z" />
        <path
           id="path45"
           style=""
           d="m 97.141643,31.863461 0,-16.208 1.632,0 q 0.464,0 0.64,0.176 0.176,0.176 0.24,0.608 l 0.176,2.464 q 0.767997,-1.664 1.887997,-2.592 1.136,-0.944 2.752,-0.944 0.512,0 0.976,0.112 0.48,0.112 0.848,0.352 l -0.208,2.128 q -0.096,0.4 -0.48,0.4 -0.224,0 -0.656,-0.096 -0.432,-0.096 -0.976,-0.096 -0.768,0 -1.376,0.24 -0.608,0.224 -1.088,0.672 -0.464,0.432 -0.832,1.072 -0.368,0.64 -0.672,1.472 l 0,10.24 -2.863997,0 z" />
        <path
           id="path47"
           style=""
           d="m 108.76664,31.863461 0,-16.208 1.712,0 q 0.608,0 0.752,0.592 l 0.208,1.664 q 0.896,-1.104 2.016,-1.808 1.12,-0.704 2.592,-0.704 1.632,0 2.64,0.912 1.024,0.912 1.472,2.464 0.352,-0.88 0.896,-1.52 0.56,-0.64 1.248,-1.056 0.688,-0.416 1.456,-0.608 0.784,-0.192 1.584,-0.192 1.28,0 2.272,0.416 1.008,0.4 1.696,1.184 0.704,0.784 1.072,1.936 0.368,1.136 0.368,2.608 l 0,10.32 -2.864,0 0,-10.32 q 0,-1.904 -0.832,-2.88 -0.832,-0.992 -2.4,-0.992 -0.704,0 -1.344,0.256 -0.624,0.24 -1.104,0.72 -0.48,0.48 -0.768,1.216 -0.272,0.72 -0.272,1.68 l 0,10.32 -2.864,0 0,-10.32 q 0,-1.952 -0.784,-2.912 -0.784,-0.96 -2.288,-0.96 -1.056,0 -1.952,0.576 -0.896,0.56 -1.648,1.536 l 0,12.08 -2.864,0 z" />
        <path
           id="path49"
           style=""
           d="m 145.38314,31.863461 q -0.416,0 -0.64,-0.128 -0.224,-0.144 -0.352,-0.544 l -0.32,-1.52 q -0.64,0.576 -1.264,1.04 -0.608,0.448 -1.28,0.768 -0.656,0.304 -1.424,0.464 -0.752,0.176 -1.68,0.176 -0.944,0 -1.776,-0.256 -0.832,-0.272 -1.456,-0.8 -0.608,-0.528 -0.976,-1.328 -0.352,-0.816 -0.352,-1.92 0,-0.96 0.528,-1.84 0.528,-0.896 1.712,-1.584 1.184,-0.688 3.088,-1.12 1.904,-0.448 4.672,-0.512 l 0,-1.264 q 0,-1.888 -0.816,-2.848 -0.816,-0.976 -2.384,-0.976 -1.056,0 -1.776,0.272 -0.704,0.256 -1.232,0.592 -0.512,0.32 -0.896,0.592 -0.368,0.256 -0.736,0.256 -0.288,0 -0.496,-0.144 -0.208,-0.16 -0.352,-0.384 l -0.512,-0.912 q 1.344,-1.296 2.896,-1.936 1.552,-0.64 3.44,-0.64 1.36,0 2.416,0.448 1.056,0.448 1.776,1.248 0.72,0.8 1.088,1.936 0.368,1.136 0.368,2.496 l 0,10.368 -1.264,0 z m -6.112,-1.744 q 0.752,0 1.376,-0.144 0.624,-0.16 1.168,-0.432 0.56,-0.288 1.056,-0.688 0.512,-0.416 0.992,-0.928 l 0,-3.36 q -1.968,0.064 -3.36,0.32 -1.376,0.24 -2.256,0.64 -0.864,0.4 -1.264,0.944 -0.384,0.544 -0.384,1.216 0,0.64 0.208,1.104 0.208,0.464 0.56,0.768 0.368,0.288 0.848,0.432 0.496,0.128 1.056,0.128 z" />
        <path
           id="path51"
           style=""
           d="m 162.66614,31.863461 q -0.608,0 -0.768,-0.592 l -0.256,-1.968 q -1.04,1.264 -2.384,2.032 -1.328,0.752 -3.056,0.752 -1.392,0 -2.528,-0.528 -1.136,-0.544 -1.936,-1.584 -0.8,-1.04 -1.232,-2.592 -0.432,-1.552 -0.432,-3.568 0,-1.792 0.48,-3.328 0.48,-1.552 1.376,-2.688 0.896,-1.136 2.192,-1.776 1.312,-0.656 2.944,-0.656 1.488,0 2.544,0.512 1.072,0.496 1.904,1.408 l 0,-8.9920005 2.848,0 0,23.5680005 -1.696,0 z m -5.536,-2.08 q 1.408,0 2.448,-0.64 1.056,-0.64 1.936,-1.808 l 0,-7.824 q -0.8,-1.056 -1.728,-1.488 -0.928,-0.432 -2.08,-0.432 -2.256,0 -3.472,1.616 -1.216,1.616 -1.216,4.608 0,1.584 0.272,2.72 0.272,1.12 0.8,1.856 0.528,0.72 1.296,1.056 0.768,0.336 1.744,0.336 z" />
        <path
           id="path53"
           style=""
           d="m 171.89964,15.655461 0,16.208 -2.848,0 0,-16.208 2.848,0 z m 0.608,-5.088 q 0,0.416 -0.176,0.784 -0.16,0.352 -0.448,0.64 -0.272,0.272 -0.656,0.432 -0.368,0.16 -0.784,0.16 -0.416,0 -0.784,-0.16 -0.352,-0.16 -0.624,-0.432 -0.272,-0.288 -0.432,-0.64 -0.16,-0.368 -0.16,-0.784 0,-0.416 0.16,-0.7840005 0.16,-0.384 0.432,-0.656 0.272,-0.288 0.624,-0.448 0.368,-0.16 0.784,-0.16 0.416,0 0.784,0.16 0.384,0.16 0.656,0.448 0.288,0.272 0.448,0.656 0.176,0.3680005 0.176,0.7840005 z" />
        <path
           id="path55"
           style=""
           d="m 179.52314,8.2954605 0,23.5680005 -2.848,0 0,-23.5680005 2.848,0 z" />
        <path
           id="path57"
           style=""
           d="m 187.08564,8.2954605 0,23.5680005 -2.848,0 0,-23.5680005 2.848,0 z" />
        <path
           id="path59"
           style=""
           d="m 198.53614,15.399461 q 1.776,0 3.2,0.592 1.424,0.592 2.432,1.68 1.008,1.088 1.536,2.64 0.544,1.536 0.544,3.44 0,1.92 -0.544,3.456 -0.528,1.536 -1.536,2.624 -1.008,1.088 -2.432,1.68 -1.424,0.576 -3.2,0.576 -1.792,0 -3.232,-0.576 -1.424,-0.592 -2.432,-1.68 -1.008,-1.088 -1.552,-2.624 -0.528,-1.536 -0.528,-3.456 0,-1.904 0.528,-3.44 0.544,-1.552 1.552,-2.64 1.008,-1.088 2.432,-1.68 1.44,-0.592 3.232,-0.592 z m 0,14.464 q 2.4,0 3.584,-1.6 1.184,-1.616 1.184,-4.496 0,-2.896 -1.184,-4.512 -1.184,-1.616 -3.584,-1.616 -1.216,0 -2.128,0.416 -0.896,0.416 -1.504,1.2 -0.592,0.784 -0.896,1.936 -0.288,1.136 -0.288,2.576 0,2.88 1.184,4.496 1.2,1.6 3.632,1.6 z" />
      </g>
      <g
         id="text2488"
         style="font-size:32px;line-height:125%;font-family:Lato, Arial, Helvetica, sans-serif;fill:#000000">
        <path
           id="path62"
           style=""
           d="m 233.10476,394.2942 q 1.056,0 1.968,0.24 0.912,0.224 1.664,0.672 l 4.4,0 0,1.056 q 0,0.528 -0.672,0.672 l -1.84,0.256 q 0.544,1.04 0.544,2.32 0,1.184 -0.464,2.16 -0.448,0.96 -1.248,1.648 -0.8,0.688 -1.92,1.056 -1.12,0.368 -2.432,0.368 -1.152,0 -2.16,-0.272 -0.512,0.32 -0.784,0.688 -0.256,0.368 -0.256,0.72 0,0.576 0.464,0.88 0.48,0.288 1.248,0.416 0.768,0.128 1.744,0.16 0.992,0.032 2.016,0.112 1.04,0.064 2.016,0.24 0.992,0.176 1.76,0.576 0.768,0.4 1.232,1.104 0.48,0.704 0.48,1.824 0,1.04 -0.528,2.016 -0.512,0.976 -1.488,1.728 -0.976,0.768 -2.4,1.216 -1.408,0.464 -3.184,0.464 -1.776,0 -3.104,-0.352 -1.328,-0.352 -2.208,-0.944 -0.88,-0.592 -1.328,-1.376 -0.432,-0.768 -0.432,-1.616 0,-1.2 0.752,-2.032 0.752,-0.832 2.048,-1.328 -0.72,-0.32 -1.136,-0.848 -0.416,-0.544 -0.416,-1.456 0,-0.352 0.128,-0.72 0.128,-0.384 0.384,-0.752 0.272,-0.368 0.656,-0.704 0.384,-0.336 0.896,-0.592 -1.2,-0.672 -1.872,-1.792 -0.672,-1.12 -0.672,-2.592 0,-1.184 0.448,-2.144 0.464,-0.976 1.28,-1.648 0.816,-0.688 1.936,-1.056 1.136,-0.368 2.48,-0.368 z m 5.136,17.36 q 0,-0.592 -0.336,-0.96 -0.336,-0.368 -0.912,-0.576 -0.56,-0.208 -1.312,-0.288 -0.752,-0.096 -1.6,-0.144 -0.832,-0.048 -1.696,-0.096 -0.864,-0.048 -1.664,-0.16 -0.896,0.416 -1.472,1.04 -0.56,0.624 -0.56,1.488 0,0.544 0.272,1.008 0.288,0.48 0.864,0.816 0.576,0.352 1.44,0.544 0.88,0.208 2.064,0.208 1.152,0 2.064,-0.208 0.912,-0.208 1.536,-0.592 0.64,-0.384 0.976,-0.912 0.336,-0.528 0.336,-1.168 z m -5.136,-8.8 q 0.864,0 1.52,-0.24 0.656,-0.24 1.104,-0.672 0.448,-0.432 0.672,-1.024 0.224,-0.608 0.224,-1.328 0,-1.488 -0.912,-2.368 -0.896,-0.88 -2.608,-0.88 -1.728,0 -2.64,0.88 -0.896,0.88 -0.896,2.368 0,0.72 0.224,1.328 0.24,0.592 0.688,1.024 0.448,0.432 1.104,0.672 0.656,0.24 1.52,0.24 z" />
        <path
           id="path64"
           style=""
           d="m 247.08976,394.5662 0,16.208 -2.848,0 0,-16.208 2.848,0 z m 0.608,-5.088 q 0,0.416 -0.176,0.784 -0.16,0.352 -0.448,0.64 -0.272,0.272 -0.656,0.432 -0.368,0.16 -0.784,0.16 -0.416,0 -0.784,-0.16 -0.352,-0.16 -0.624,-0.432 -0.272,-0.288 -0.432,-0.64 -0.16,-0.368 -0.16,-0.784 0,-0.416 0.16,-0.784 0.16,-0.384 0.432,-0.656 0.272,-0.288 0.624,-0.448 0.368,-0.16 0.784,-0.16 0.416,0 0.784,0.16 0.384,0.16 0.656,0.448 0.288,0.272 0.448,0.656 0.176,0.368 0.176,0.784 z" />
        <path
           id="path66"
           style=""
           d="m 251.76926,410.7742 0,-16.208 1.632,0 q 0.464,0 0.64,0.176 0.176,0.176 0.24,0.608 l 0.176,2.464 q 0.768,-1.664 1.888,-2.592 1.136,-0.944 2.752,-0.944 0.512,0 0.976,0.112 0.48,0.112 0.848,0.352 l -0.208,2.128 q -0.096,0.4 -0.48,0.4 -0.224,0 -0.656,-0.096 -0.432,-0.096 -0.976,-0.096 -0.768,0 -1.376,0.24 -0.608,0.224 -1.088,0.672 -0.464,0.432 -0.832,1.072 -0.368,0.64 -0.672,1.472 l 0,10.24 -2.864,0 z" />
        <path
           id="path68"
           style=""
           d="m 273.44826,410.7742 q -0.416,0 -0.64,-0.128 -0.224,-0.144 -0.352,-0.544 l -0.32,-1.52 q -0.64,0.576 -1.264,1.04 -0.608,0.448 -1.28,0.768 -0.656,0.304 -1.424,0.464 -0.752,0.176 -1.68,0.176 -0.944,0 -1.776,-0.256 -0.832,-0.272 -1.456,-0.8 -0.608,-0.528 -0.976,-1.328 -0.352,-0.816 -0.352,-1.92 0,-0.96 0.528,-1.84 0.528,-0.896 1.712,-1.584 1.184,-0.688 3.088,-1.12 1.904,-0.448 4.672,-0.512 l 0,-1.264 q 0,-1.888 -0.816,-2.848 -0.816,-0.976 -2.384,-0.976 -1.056,0 -1.776,0.272 -0.704,0.256 -1.232,0.592 -0.512,0.32 -0.896,0.592 -0.368,0.256 -0.736,0.256 -0.288,0 -0.496,-0.144 -0.208,-0.16 -0.352,-0.384 l -0.512,-0.912 q 1.344,-1.296 2.896,-1.936 1.552,-0.64 3.44,-0.64 1.36,0 2.416,0.448 1.056,0.448 1.776,1.248 0.72,0.8 1.088,1.936 0.368,1.136 0.368,2.496 l 0,10.368 -1.264,0 z m -6.112,-1.744 q 0.752,0 1.376,-0.144 0.624,-0.16 1.168,-0.432 0.56,-0.288 1.056,-0.688 0.512,-0.416 0.992,-0.928 l 0,-3.36 q -1.968,0.064 -3.36,0.32 -1.376,0.24 -2.256,0.64 -0.864,0.4 -1.264,0.944 -0.384,0.544 -0.384,1.216 0,0.64 0.208,1.104 0.208,0.464 0.56,0.768 0.368,0.288 0.848,0.432 0.496,0.128 1.056,0.128 z" />
        <path
           id="path70"
           style=""
           d="m 279.82526,410.7742 0,-13.776 -1.792,-0.208 q -0.336,-0.08 -0.56,-0.24 -0.208,-0.176 -0.208,-0.496 l 0,-1.168 2.56,0 0,-1.328 q 0,-1.392 0.384,-2.464 0.4,-1.088 1.12,-1.824 0.736,-0.752 1.76,-1.136 1.024,-0.384 2.304,-0.384 1.088,0 2,0.32 l -0.064,1.44 q -0.032,0.384 -0.432,0.416 -0.384,0.032 -1.04,0.032 -0.736,0 -1.344,0.192 -0.592,0.176 -1.024,0.608 -0.432,0.432 -0.672,1.152 -0.224,0.704 -0.224,1.744 l 0,1.232 7.312,0 0,-1.744 q 0,-1.392 0.384,-2.464 0.4,-1.088 1.12,-1.824 0.736,-0.752 1.76,-1.136 1.024,-0.384 2.304,-0.384 1.072,0 2,0.32 l -0.064,1.424 q -0.032,0.384 -0.432,0.416 -0.384,0.032 -1.04,0.032 -0.736,0 -1.344,0.192 -0.592,0.192 -1.024,0.624 -0.432,0.432 -0.672,1.136 -0.224,0.704 -0.224,1.744 l 0,1.664 4.672,0 0,2.064 -4.576,0 0,13.824 -2.864,0 0,-13.824 -7.216,0 0,13.824 -2.864,0 z" />
        <path
           id="path72"
           style=""
           d="m 306.22176,394.3102 q 1.456,0 2.688,0.496 1.248,0.48 2.144,1.408 0.912,0.912 1.424,2.272 0.512,1.344 0.512,3.072 0,0.672 -0.144,0.896 -0.144,0.224 -0.544,0.224 l -10.832,0 q 0.032,1.536 0.416,2.672 0.384,1.136 1.056,1.904 0.672,0.752 1.6,1.136 0.928,0.368 2.08,0.368 1.072,0 1.84,-0.24 0.784,-0.256 1.344,-0.544 0.56,-0.288 0.928,-0.528 0.384,-0.256 0.656,-0.256 0.352,0 0.544,0.272 l 0.8,1.04 q -0.528,0.64 -1.264,1.12 -0.736,0.464 -1.584,0.768 -0.832,0.304 -1.728,0.448 -0.896,0.16 -1.776,0.16 -1.68,0 -3.104,-0.56 -1.408,-0.576 -2.448,-1.664 -1.024,-1.104 -1.6,-2.72 -0.576,-1.616 -0.576,-3.712 0,-1.696 0.512,-3.168 0.528,-1.472 1.504,-2.544 0.976,-1.088 2.384,-1.696 1.408,-0.624 3.168,-0.624 z m 0.064,2.096 q -2.064,0 -3.248,1.2 -1.184,1.184 -1.472,3.296 l 8.864,0 q 0,-0.992 -0.288,-1.808 -0.272,-0.832 -0.816,-1.424 -0.528,-0.608 -1.296,-0.928 -0.768,-0.336 -1.744,-0.336 z" />
      </g>
      <g
         id="text2492"
         style="font-size:32px;line-height:125%;font-family:Lato, Arial, Helvetica, sans-serif;fill:#000000">
        <path
           id="path75"
           style=""
           d="m 312.06093,285.94501 0,-16.208 1.632,0 q 0.464,0 0.64,0.176 0.176,0.176 0.24,0.608 l 0.176,2.464 q 0.768,-1.664 1.888,-2.592 1.136,-0.944 2.752,-0.944 0.512,0 0.976,0.112 0.48,0.112 0.848,0.352 l -0.208,2.128 q -0.096,0.4 -0.48,0.4 -0.224,0 -0.656,-0.096 -0.432,-0.096 -0.976,-0.096 -0.768,0 -1.376,0.24 -0.608,0.224 -1.088,0.672 -0.464,0.432 -0.832,1.072 -0.368,0.64 -0.672,1.472 l 0,10.24 -2.864,0 z" />
        <path
           id="path77"
           style=""
           d="m 333.73993,285.94501 q -0.416,0 -0.64,-0.128 -0.224,-0.144 -0.352,-0.544 l -0.32,-1.52 q -0.64,0.576 -1.264,1.04 -0.608,0.448 -1.28,0.768 -0.656,0.304 -1.424,0.464 -0.752,0.176 -1.68,0.176 -0.944,0 -1.776,-0.256 -0.832,-0.272 -1.456,-0.8 -0.608,-0.528 -0.976,-1.328 -0.352,-0.816 -0.352,-1.92 0,-0.96 0.528,-1.84 0.528,-0.896 1.712,-1.584 1.184,-0.688 3.088,-1.12 1.904,-0.448 4.672,-0.512 l 0,-1.264 q 0,-1.888 -0.816,-2.848 -0.816,-0.976 -2.384,-0.976 -1.056,0 -1.776,0.272 -0.704,0.256 -1.232,0.592 -0.512,0.32 -0.896,0.592 -0.368,0.256 -0.736,0.256 -0.288,0 -0.496,-0.144 -0.208,-0.16 -0.352,-0.384 l -0.512,-0.912 q 1.344,-1.296 2.896,-1.936 1.552,-0.64 3.44,-0.64 1.36,0 2.416,0.448 1.056,0.448 1.776,1.248 0.72,0.8 1.088,1.936 0.368,1.136 0.368,2.496 l 0,10.368 -1.264,0 z m -6.112,-1.744 q 0.752,0 1.376,-0.144 0.624,-0.16 1.168,-0.432 0.56,-0.288 1.056,-0.688 0.512,-0.416 0.992,-0.928 l 0,-3.36 q -1.968,0.064 -3.36,0.32 -1.376,0.24 -2.256,0.64 -0.864,0.4 -1.264,0.944 -0.384,0.544 -0.384,1.216 0,0.64 0.208,1.104 0.208,0.464 0.56,0.768 0.368,0.288 0.848,0.432 0.496,0.128 1.056,0.128 z" />
        <path
           id="path79"
           style=""
           d="m 344.09943,286.20101 q -1.92,0 -2.96,-1.072 -1.024,-1.072 -1.024,-3.088 l 0,-9.92 -1.952,0 q -0.256,0 -0.432,-0.144 -0.176,-0.16 -0.176,-0.48 l 0,-1.136 2.656,-0.336 0.656,-5.008 q 0.048,-0.24 0.208,-0.384 0.176,-0.16 0.448,-0.16 l 1.44,0 0,5.584 4.688,0 0,2.064 -4.688,0 0,9.728 q 0,1.024 0.496,1.52 0.496,0.496 1.28,0.496 0.448,0 0.768,-0.112 0.336,-0.128 0.576,-0.272 0.24,-0.144 0.4,-0.256 0.176,-0.128 0.304,-0.128 0.224,0 0.4,0.272 l 0.832,1.36 q -0.736,0.688 -1.776,1.088 -1.04,0.384 -2.144,0.384 z" />
      </g>
      <g
         id="text2496"
         style="font-size:32px;line-height:125%;font-family:Lato, Arial, Helvetica, sans-serif;fill:#000000">
        <path
           id="path82"
           style=""
           d="m 402.35884,157.90427 0,-23.568 2.864,0 0,9.536 q 1.04,-1.104 2.304,-1.76 1.264,-0.672 2.912,-0.672 1.328,0 2.336,0.448 1.024,0.432 1.696,1.248 0.688,0.8 1.04,1.936 0.352,1.136 0.352,2.512 l 0,10.32 -2.864,0 0,-10.32 q 0,-1.84 -0.848,-2.848 -0.832,-1.024 -2.544,-1.024 -1.28,0 -2.384,0.608 -1.088,0.608 -2,1.648 l 0,11.936 -2.864,0 z" />
        <path
           id="path84"
           style=""
           d="m 422.92184,141.69627 0,10.336 q 0,1.84 0.832,2.848 0.848,1.008 2.576,1.008 1.248,0 2.352,-0.592 1.104,-0.592 2.032,-1.648 l 0,-11.952 2.848,0 0,16.208 -1.696,0 q -0.608,0 -0.768,-0.592 l -0.224,-1.744 q -1.056,1.168 -2.368,1.888 -1.312,0.704 -3.008,0.704 -1.328,0 -2.352,-0.432 -1.008,-0.448 -1.696,-1.248 -0.688,-0.8 -1.04,-1.936 -0.336,-1.136 -0.336,-2.512 l 0,-10.336 2.848,0 z" />
        <path
           id="path86"
           style=""
           d="m 438.04634,157.90427 0,-16.208 1.712,0 q 0.608,0 0.752,0.592 l 0.208,1.664 q 0.896,-1.104 2.016,-1.808 1.12,-0.704 2.592,-0.704 1.632,0 2.64,0.912 1.024,0.912 1.472,2.464 0.352,-0.88 0.896,-1.52 0.56,-0.64 1.248,-1.056 0.688,-0.416 1.456,-0.608 0.784,-0.192 1.584,-0.192 1.28,0 2.272,0.416 1.008,0.4 1.696,1.184 0.704,0.784 1.072,1.936 0.368,1.136 0.368,2.608 l 0,10.32 -2.864,0 0,-10.32 q 0,-1.904 -0.832,-2.88 -0.832,-0.992 -2.4,-0.992 -0.704,0 -1.344,0.256 -0.624,0.24 -1.104,0.72 -0.48,0.48 -0.768,1.216 -0.272,0.72 -0.272,1.68 l 0,10.32 -2.864,0 0,-10.32 q 0,-1.952 -0.784,-2.912 -0.784,-0.96 -2.288,-0.96 -1.056,0 -1.952,0.576 -0.896,0.56 -1.648,1.536 l 0,12.08 -2.864,0 z" />
        <path
           id="path88"
           style=""
           d="m 474.66284,157.90427 q -0.416,0 -0.64,-0.128 -0.224,-0.144 -0.352,-0.544 l -0.32,-1.52 q -0.64,0.576 -1.264,1.04 -0.608,0.448 -1.28,0.768 -0.656,0.304 -1.424,0.464 -0.752,0.176 -1.68,0.176 -0.944,0 -1.776,-0.256 -0.832,-0.272 -1.456,-0.8 -0.608,-0.528 -0.976,-1.328 -0.352,-0.816 -0.352,-1.92 0,-0.96 0.528,-1.84 0.528,-0.896 1.712,-1.584 1.184,-0.688 3.088,-1.12 1.904,-0.448 4.672,-0.512 l 0,-1.264 q 0,-1.888 -0.816,-2.848 -0.816,-0.976 -2.384,-0.976 -1.056,0 -1.776,0.272 -0.704,0.256 -1.232,0.592 -0.512,0.32 -0.896,0.592 -0.368,0.256 -0.736,0.256 -0.288,0 -0.496,-0.144 -0.208,-0.16 -0.352,-0.384 l -0.512,-0.912 q 1.344,-1.296 2.896,-1.936 1.552,-0.64 3.44,-0.64 1.36,0 2.416,0.448 1.056,0.448 1.776,1.248 0.72,0.8 1.088,1.936 0.368,1.136 0.368,2.496 l 0,10.368 -1.264,0 z m -6.112,-1.744 q 0.752,0 1.376,-0.144 0.624,-0.16 1.168,-0.432 0.56,-0.288 1.056,-0.688 0.512,-0.416 0.992,-0.928 l 0,-3.36 q -1.968,0.064 -3.36,0.32 -1.376,0.24 -2.256,0.64 -0.864,0.4 -1.264,0.944 -0.384,0.544 -0.384,1.216 0,0.64 0.208,1.104 0.208,0.464 0.56,0.768 0.368,0.288 0.848,0.432 0.496,0.128 1.056,0.128 z" />
        <path
           id="path90"
           style=""
           d="m 480.23384,157.90427 0,-16.208 1.712,0 q 0.608,0 0.752,0.592 l 0.224,1.76 q 1.056,-1.168 2.368,-1.888 1.312,-0.72 3.024,-0.72 1.328,0 2.336,0.448 1.024,0.432 1.696,1.248 0.688,0.8 1.04,1.936 0.352,1.136 0.352,2.512 l 0,10.32 -2.864,0 0,-10.32 q 0,-1.84 -0.848,-2.848 -0.832,-1.024 -2.544,-1.024 -1.28,0 -2.384,0.608 -1.088,0.608 -2,1.648 l 0,11.936 -2.864,0 z" />
      </g>
    </g>
    <g
       id="text3270"
       style="font-weight:bold;font-size:45.38792038px;line-height:125%;font-family:Serif, serif;fill:#000000"
       transform="scale(1.0002585,0.99974156)">
      <path
         id="path93"
         style="font-style:normal;font-variant:normal;font-weight:bold;font-stretch:normal;font-family:Lato, Arial, Helvetica, sans-serif;-inkscape-font-specification:'Sans Bold'"
         d="m 34.132453,191.54897 q -1.112004,0 -1.407026,-1.02123 l -0.476573,-2.2467 q -0.726207,0.81698 -1.520495,1.4751 -0.794289,0.65813 -1.724741,1.1347 -0.907759,0.47657 -1.974375,0.72621 -1.043922,0.27232 -2.269396,0.27232 -1.906292,0 -3.49487,-0.79428 -1.588577,-0.79429 -2.745969,-2.29209 -1.134698,-1.5205 -1.770129,-3.74451 -0.612737,-2.22401 -0.612737,-5.08344 0,-2.58712 0.703513,-4.81112 0.703513,-2.22401 2.019763,-3.85798 1.316249,-1.63396 3.15446,-2.54172 1.838211,-0.93045 4.130301,-0.93045 1.95168,0 3.336012,0.63543 1.384332,0.61273 2.473642,1.65666 l 0,-12.30013 5.605408,0 0,33.72323 -3.426788,0 z m -7.466313,-4.10761 q 1.747435,0 2.972909,-0.72621 1.225474,-0.7262 2.314784,-2.06515 l 0,-10.43922 q -0.953147,-1.15739 -2.087845,-1.63397 -1.112004,-0.47657 -2.40556,-0.47657 -1.270861,0 -2.292089,0.47657 -1.021229,0.47658 -1.747435,1.45242 -0.726207,0.95314 -1.112004,2.45095 -0.385798,1.4751 -0.385798,3.49487 0,2.04245 0.317716,3.47217 0.340409,1.40703 0.953146,2.31479 0.612737,0.88506 1.497801,1.29355 0.885065,0.3858 1.974375,0.3858 z" />
      <path
         id="path95"
         style="font-style:normal;font-variant:normal;font-weight:bold;font-stretch:normal;font-family:Lato, Arial, Helvetica, sans-serif;-inkscape-font-specification:'Sans Bold'"
         d="m 58.363219,191.54897 q -0.794288,0 -1.225473,-0.22694 -0.431186,-0.24964 -0.680819,-0.97584 l -0.499267,-1.65666 q -0.885065,0.79429 -1.724741,1.40702 -0.839677,0.59004 -1.747435,0.99854 -0.907759,0.40849 -1.951681,0.61273 -1.021228,0.20425 -2.269396,0.20425 -1.475107,0 -2.723275,-0.3858 -1.248168,-0.40849 -2.155926,-1.20278 -0.907759,-0.79429 -1.407026,-1.97437 -0.499267,-1.18009 -0.499267,-2.74597 0,-1.31625 0.680819,-2.58711 0.703513,-1.29356 2.314784,-2.31479 1.611271,-1.04392 4.289158,-1.72474 2.677888,-0.68082 6.672025,-0.77159 l 0,-1.36164 q 0,-2.33748 -0.998535,-3.44948 -0.998534,-1.1347 -2.882133,-1.1347 -1.361637,0 -2.269396,0.31771 -0.885064,0.31772 -1.565883,0.72621 -0.680819,0.3858 -1.248168,0.70351 -0.544655,0.31772 -1.225474,0.31772 -0.590042,0 -0.998534,-0.29502 -0.408491,-0.31772 -0.658125,-0.72621 l -0.998534,-1.79282 q 4.016831,-3.67642 9.667627,-3.67642 2.042457,0 3.653728,0.68082 1.611271,0.65812 2.723275,1.8609 1.112004,1.18009 1.679353,2.83675 0.590043,1.65665 0.590043,3.63103 l 0,14.70569 -2.541724,0 z m -8.374071,-3.49487 q 1.724741,0 2.972909,-0.61274 1.270862,-0.63543 2.473642,-1.90629 l 0,-3.92606 q -2.450948,0.11347 -4.107607,0.43119 -1.633965,0.29502 -2.6325,0.77159 -0.998534,0.47657 -1.429719,1.112 -0.431185,0.63544 -0.431185,1.38434 0,1.4751 0.86237,2.11053 0.885065,0.63544 2.29209,0.63544 z" />
      <path
         id="path97"
         style="font-style:normal;font-variant:normal;font-weight:bold;font-stretch:normal;font-family:Lato, Arial, Helvetica, sans-serif;-inkscape-font-specification:'Sans Bold'"
         d="m 73.590865,191.91207 q -3.040991,0 -4.674956,-1.70205 -1.611271,-1.72474 -1.611271,-4.74304 l 0,-13.00364 -2.382866,0 q -0.453879,0 -0.771595,-0.29502 -0.317715,-0.29502 -0.317715,-0.88506 l 0,-2.22401 3.744503,-0.61274 1.180086,-6.3543 q 0.11347,-0.45388 0.431186,-0.70352 0.317715,-0.24963 0.816982,-0.24963 l 2.904827,0 0,7.33015 6.218145,0 0,3.99413 -6.218145,0 0,12.61785 q 0,1.08931 0.521961,1.70204 0.544655,0.61274 1.475108,0.61274 0.521961,0 0.86237,-0.11347 0.363103,-0.13616 0.612737,-0.27233 0.272327,-0.13616 0.476573,-0.24963 0.204246,-0.13616 0.408491,-0.13616 0.249634,0 0.408492,0.13616 0.158857,0.11347 0.340409,0.3631 l 1.679353,2.72328 q -1.225474,1.02123 -2.814051,1.54319 -1.588577,0.52196 -3.290624,0.52196 z" />
      <path
         id="path99"
         style="font-style:normal;font-variant:normal;font-weight:bold;font-stretch:normal;font-family:Lato, Arial, Helvetica, sans-serif;-inkscape-font-specification:'Sans Bold'"
         d="m 97.900356,191.54897 q -0.794289,0 -1.225474,-0.22694 -0.431186,-0.24964 -0.680819,-0.97584 l -0.499267,-1.65666 q -0.885065,0.79429 -1.724741,1.40702 -0.839677,0.59004 -1.747435,0.99854 -0.907759,0.40849 -1.951681,0.61273 -1.021228,0.20425 -2.269396,0.20425 -1.475107,0 -2.723275,-0.3858 -1.248168,-0.40849 -2.155926,-1.20278 -0.907759,-0.79429 -1.407026,-1.97437 -0.499267,-1.18009 -0.499267,-2.74597 0,-1.31625 0.680819,-2.58711 0.703513,-1.29356 2.314784,-2.31479 1.611271,-1.04392 4.289158,-1.72474 2.677888,-0.68082 6.672025,-0.77159 l 0,-1.36164 q 0,-2.33748 -0.998535,-3.44948 -0.998534,-1.1347 -2.882133,-1.1347 -1.361637,0 -2.269396,0.31771 -0.885064,0.31772 -1.565883,0.72621 -0.680819,0.3858 -1.248168,0.70351 -0.544655,0.31772 -1.225473,0.31772 -0.590043,0 -0.998535,-0.29502 -0.408491,-0.31772 -0.658125,-0.72621 l -0.998534,-1.79282 q 4.016831,-3.67642 9.667627,-3.67642 2.042457,0 3.653728,0.68082 1.611271,0.65812 2.723275,1.8609 1.112004,1.18009 1.679353,2.83675 0.590044,1.65665 0.590044,3.63103 l 0,14.70569 -2.541724,0 z m -8.374072,-3.49487 q 1.724741,0 2.972909,-0.61274 1.270862,-0.63543 2.473642,-1.90629 l 0,-3.92606 q -2.450948,0.11347 -4.107607,0.43119 -1.633965,0.29502 -2.6325,0.77159 -0.998534,0.47657 -1.429719,1.112 -0.431185,0.63544 -0.431185,1.38434 0,1.4751 0.86237,2.11053 0.885065,0.63544 2.29209,0.63544 z" />
    </g>
    <g
       id="text3274"
       style="font-size:37.82326508px;line-height:125%;font-family:Serif, serif;fill:#000000"
       transform="scale(1.0002585,0.99974156)">
      <path
         id="path102"
         style="font-style:normal;font-variant:normal;font-weight:normal;font-stretch:normal;font-family:Lato, Arial, Helvetica, sans-serif;-inkscape-font-specification:Lato"
         d="m 199.03363,122.64202 0,0 z m 2.9313,-9.68276 0,5.48438 -0.30258,2.9313 q -0.0946,0.60517 -0.35933,0.94558 -0.24585,0.3215 -0.8132,0.3215 -0.51061,0 -0.79428,-0.3215 -0.26477,-0.34041 -0.35933,-0.94558 l -0.30258,-2.9313 0,-5.48438 2.9313,0 z m 6.29758,0 0,5.48438 -0.30259,2.9313 q -0.0946,0.60517 -0.35932,0.94558 -0.24585,0.3215 -0.8132,0.3215 -0.51062,0 -0.79429,-0.3215 -0.26476,-0.34041 -0.35932,-0.94558 l -0.30259,-2.9313 0,-5.48438 2.93131,0 z" />
      <path
         id="path104"
         style="font-style:normal;font-variant:normal;font-weight:normal;font-stretch:normal;font-family:Lato, Arial, Helvetica, sans-serif;-inkscape-font-specification:Lato"
         d="m 213.33437,146.54632 0,-25.64417 2.02354,0 q 0.71865,0 0.88885,0.69973 l 0.28367,2.26939 q 1.22926,-1.49402 2.81784,-2.40177 1.58858,-0.90776 3.63103,-0.90776 1.66423,0 3.00695,0.64299 1.34273,0.62409 2.28831,1.87226 0.94558,1.22925 1.45619,3.06368 0.51062,1.83443 0.51062,4.21729 0,2.11811 -0.56735,3.95254 -0.56735,1.81551 -1.64531,3.15824 -1.05905,1.32381 -2.60981,2.09919 -1.53184,0.75646 -3.46083,0.75646 -1.75878,0 -3.02586,-0.58626 -1.24817,-0.58626 -2.21266,-1.66422 l 0,8.47241 -3.38518,0 z m 8.54806,-23.26131 q -1.64532,0 -2.89348,0.75647 -1.22926,0.75646 -2.2694,2.13701 l 0,9.2667 q 0.90776,1.24817 2.00463,1.75878 1.11579,0.51062 2.47743,0.51062 2.68545,0 4.12273,-1.91008 1.43729,-1.91007 1.43729,-5.44655 0,-1.87225 -0.34041,-3.21497 -0.3215,-1.34273 -0.94558,-2.19375 -0.62409,-0.86994 -1.53185,-1.26708 -0.90775,-0.39715 -2.06136,-0.39715 z" />
      <path
         id="path106"
         style="font-style:normal;font-variant:normal;font-weight:normal;font-stretch:normal;font-family:Lato, Arial, Helvetica, sans-serif;-inkscape-font-specification:Lato"
         d="m 234.53608,140.05963 0,-27.85683 3.38518,0 0,11.27133 q 1.22926,-1.3049 2.72328,-2.08028 1.49402,-0.79429 3.44192,-0.79429 1.56966,0 2.76109,0.52953 1.21035,0.51061 2.00464,1.4751 0.8132,0.94559 1.22925,2.28831 0.41606,1.34273 0.41606,2.96913 l 0,12.198 -3.38518,0 0,-12.198 q 0,-2.17484 -1.00232,-3.36627 -0.9834,-1.21035 -3.00695,-1.21035 -1.51293,0 -2.81783,0.71865 -1.28599,0.71864 -2.36396,1.94789 l 0,14.10808 -3.38518,0 z" />
      <path
         id="path108"
         style="font-style:normal;font-variant:normal;font-weight:normal;font-stretch:normal;font-family:Lato, Arial, Helvetica, sans-serif;-inkscape-font-specification:Lato"
         d="m 261.06438,145.71421 q -0.17021,0.37823 -0.43497,0.60517 -0.24585,0.22694 -0.77538,0.22694 l -2.49633,0 3.49865,-7.60247 -7.90506,-18.0417 2.91239,0 q 0.43497,0 0.68082,0.22694 0.26476,0.20803 0.35932,0.47279 l 5.12505,12.06562 q 0.15129,0.43497 0.28367,0.85102 0.13239,0.39715 0.22694,0.83211 0.24586,-0.85102 0.56735,-1.70204 l 4.97376,-12.04671 q 0.11347,-0.30259 0.37823,-0.4917 0.28368,-0.20803 0.62409,-0.20803 l 2.66654,0 -10.68507,24.81206 z" />
      <path
         id="path110"
         style="font-style:normal;font-variant:normal;font-weight:normal;font-stretch:normal;font-family:Lato, Arial, Helvetica, sans-serif;-inkscape-font-specification:Lato"
         d="m 278.20304,112.2028 0,27.85683 -3.36627,0 0,-27.85683 3.36627,0 z" />
      <path
         id="path112"
         style="font-style:normal;font-variant:normal;font-weight:normal;font-stretch:normal;font-family:Lato, Arial, Helvetica, sans-serif;-inkscape-font-specification:Lato"
         d="m 291.73727,120.59956 q 2.09919,0 3.78232,0.69973 1.68314,0.69973 2.87457,1.98572 1.19144,1.28599 1.81552,3.12042 0.64299,1.81552 0.64299,4.066 0,2.2694 -0.64299,4.08492 -0.62408,1.81551 -1.81552,3.1015 -1.19143,1.286 -2.87457,1.98573 -1.68313,0.68081 -3.78232,0.68081 -2.11811,0 -3.82015,-0.68081 -1.68314,-0.69973 -2.87457,-1.98573 -1.19143,-1.28599 -1.83443,-3.1015 -0.62408,-1.81552 -0.62408,-4.08492 0,-2.25048 0.62408,-4.066 0.643,-1.83443 1.83443,-3.12042 1.19143,-1.28599 2.87457,-1.98572 1.70204,-0.69973 3.82015,-0.69973 z m 0,17.09612 q 2.83674,0 4.2362,-1.89117 1.39946,-1.91007 1.39946,-5.31416 0,-3.42301 -1.39946,-5.33309 -1.39946,-1.91007 -4.2362,-1.91007 -1.43729,0 -2.51525,0.4917 -1.05905,0.4917 -1.77769,1.41837 -0.69973,0.92667 -1.05905,2.28831 -0.34041,1.34273 -0.34041,3.04478 0,3.40409 1.39946,5.31416 1.41837,1.89117 4.29294,1.89117 z" />
      <path
         id="path114"
         style="font-style:normal;font-variant:normal;font-weight:normal;font-stretch:normal;font-family:Lato, Arial, Helvetica, sans-serif;-inkscape-font-specification:Lato"
         d="m 311.76115,120.58065 q 1.24816,0 2.32613,0.28367 1.07796,0.26477 1.96681,0.79429 l 5.2007,0 0,1.24817 q 0,0.62408 -0.79429,0.79429 l -2.17484,0.30259 q 0.643,1.22925 0.643,2.74218 0,1.39946 -0.54844,2.55307 -0.52953,1.1347 -1.47511,1.9479 -0.94558,0.8132 -2.2694,1.24817 -1.32381,0.43497 -2.87456,0.43497 -1.36164,0 -2.55307,-0.3215 -0.60518,0.37823 -0.92667,0.8132 -0.30259,0.43497 -0.30259,0.85102 0,0.68082 0.54844,1.04014 0.56735,0.34041 1.47511,0.4917 0.90775,0.1513 2.06136,0.18912 1.17252,0.0378 2.38287,0.13238 1.22925,0.0756 2.38286,0.28368 1.17253,0.20802 2.08028,0.68082 0.90776,0.47279 1.4562,1.3049 0.56735,0.83211 0.56735,2.15592 0,1.22926 -0.62409,2.38287 -0.60517,1.15361 -1.75878,2.04246 -1.15361,0.90775 -2.83674,1.43728 -1.66423,0.54844 -3.76342,0.54844 -2.09919,0 -3.66885,-0.41606 -1.56967,-0.41605 -2.60981,-1.11579 -1.04014,-0.69973 -1.56966,-1.6264 -0.51062,-0.90775 -0.51062,-1.91007 0,-1.41837 0.88885,-2.40178 0.88885,-0.9834 2.42069,-1.56966 -0.85103,-0.37824 -1.34273,-1.00232 -0.4917,-0.643 -0.4917,-1.72096 0,-0.41605 0.15129,-0.85102 0.1513,-0.45388 0.45388,-0.88885 0.3215,-0.43497 0.77538,-0.83211 0.45388,-0.39714 1.05905,-0.69973 -1.41837,-0.79429 -2.21266,-2.1181 -0.79429,-1.32382 -0.79429,-3.06369 0,-1.39946 0.52953,-2.53416 0.54843,-1.15361 1.51293,-1.94789 0.96449,-0.81321 2.2883,-1.24817 1.34273,-0.43497 2.93131,-0.43497 z m 6.07063,20.51912 q 0,-0.69973 -0.39714,-1.1347 -0.39715,-0.43496 -1.07797,-0.68082 -0.6619,-0.24585 -1.55075,-0.3404 -0.88885,-0.11347 -1.89116,-0.17021 -0.98341,-0.0567 -2.00464,-0.11347 -1.02122,-0.0567 -1.96681,-0.18912 -1.05905,0.49171 -1.73987,1.22926 -0.6619,0.73755 -0.6619,1.75878 0,0.643 0.32149,1.19144 0.34041,0.56734 1.02123,0.96449 0.68082,0.41605 1.70205,0.64299 1.04014,0.24585 2.4396,0.24585 1.36164,0 2.4396,-0.24585 1.07796,-0.24585 1.81552,-0.69973 0.75646,-0.45388 1.15361,-1.07796 0.39714,-0.62408 0.39714,-1.38055 z m -6.07063,-10.4014 q 1.02122,0 1.7966,-0.28367 0.77538,-0.28368 1.3049,-0.79429 0.52953,-0.51061 0.79429,-1.21034 0.26477,-0.71865 0.26477,-1.56967 0,-1.75878 -1.07797,-2.79892 -1.05905,-1.04014 -3.08259,-1.04014 -2.04246,0 -3.12042,1.04014 -1.05905,1.04014 -1.05905,2.79892 0,0.85102 0.26476,1.56967 0.28367,0.69973 0.8132,1.21034 0.52952,0.51061 1.3049,0.79429 0.77538,0.28367 1.79661,0.28367 z" />
      <path
         id="path116"
         style="font-style:normal;font-variant:normal;font-weight:normal;font-stretch:normal;font-family:Lato, Arial, Helvetica, sans-serif;-inkscape-font-specification:Lato"
         d="m 332.28854,120.59956 q 1.72096,0 3.17716,0.58626 1.4751,0.56735 2.53415,1.66423 1.07797,1.07796 1.68314,2.68545 0.60517,1.58857 0.60517,3.63103 0,0.79429 -0.1702,1.05905 -0.17021,0.26477 -0.643,0.26477 l -12.80317,0 q 0.0378,1.81551 0.4917,3.15824 0.45388,1.34272 1.24817,2.25048 0.79429,0.88885 1.89116,1.34273 1.09687,0.43497 2.45851,0.43497 1.26708,0 2.17484,-0.28368 0.92667,-0.30258 1.58858,-0.64299 0.6619,-0.34041 1.09687,-0.62409 0.45388,-0.30258 0.77538,-0.30258 0.41605,0 0.64299,0.32149 l 0.94559,1.22926 q -0.62409,0.75646 -1.49402,1.32381 -0.86994,0.54844 -1.87225,0.90776 -0.98341,0.35932 -2.04246,0.52953 -1.05905,0.18911 -2.09919,0.18911 -1.98572,0 -3.66886,-0.6619 -1.66422,-0.68082 -2.89348,-1.96681 -1.21034,-1.30491 -1.89116,-3.21498 -0.68082,-1.91008 -0.68082,-4.3875 0,-2.00463 0.60517,-3.7445 0.62409,-1.73987 1.7777,-3.00695 1.1536,-1.28599 2.81783,-2.00463 1.66422,-0.73756 3.7445,-0.73756 z m 0.0756,2.47743 q -2.4396,0 -3.83906,1.41837 -1.39946,1.39946 -1.73987,3.89579 l 10.47704,0 q 0,-1.17252 -0.34041,-2.13701 -0.3215,-0.98341 -0.96449,-1.68314 -0.62409,-0.71864 -1.53184,-1.09687 -0.90776,-0.39714 -2.06137,-0.39714 z" />
      <path
         id="path118"
         style="font-style:normal;font-variant:normal;font-weight:normal;font-stretch:normal;font-family:Lato, Arial, Helvetica, sans-serif;-inkscape-font-specification:Lato"
         d="m 344.38607,140.05963 0,-19.15748 2.02354,0 q 0.71865,0 0.88885,0.69973 l 0.26476,2.08028 q 1.24817,-1.38055 2.79892,-2.23158 1.55076,-0.85102 3.5743,-0.85102 1.56967,0 2.7611,0.52953 1.21035,0.51061 2.00463,1.4751 0.8132,0.94559 1.22926,2.28831 0.41606,1.34273 0.41606,2.96913 l 0,12.198 -3.38519,0 0,-12.198 q 0,-2.17484 -1.00231,-3.36627 -0.98341,-1.21035 -3.00695,-1.21035 -1.51293,0 -2.81784,0.71865 -1.28599,0.71864 -2.36395,1.94789 l 0,14.10808 -3.38518,0 z" />
      <path
         id="path120"
         style="font-style:normal;font-variant:normal;font-weight:normal;font-stretch:normal;font-family:Lato, Arial, Helvetica, sans-serif;-inkscape-font-specification:Lato"
         d="m 373.36223,120.59956 q 1.72096,0 3.17716,0.58626 1.47511,0.56735 2.53416,1.66423 1.07796,1.07796 1.68313,2.68545 0.60517,1.58857 0.60517,3.63103 0,0.79429 -0.1702,1.05905 -0.1702,0.26477 -0.643,0.26477 l -12.80317,0 q 0.0378,1.81551 0.4917,3.15824 0.45388,1.34272 1.24817,2.25048 0.79429,0.88885 1.89116,1.34273 1.09688,0.43497 2.45851,0.43497 1.26708,0 2.17484,-0.28368 0.92667,-0.30258 1.58858,-0.64299 0.66191,-0.34041 1.09687,-0.62409 0.45388,-0.30258 0.77538,-0.30258 0.41606,0 0.643,0.32149 l 0.94558,1.22926 q -0.62409,0.75646 -1.49402,1.32381 -0.86994,0.54844 -1.87225,0.90776 -0.98341,0.35932 -2.04246,0.52953 -1.05905,0.18911 -2.09919,0.18911 -1.98572,0 -3.66886,-0.6619 -1.66422,-0.68082 -2.89348,-1.96681 -1.21034,-1.30491 -1.89116,-3.21498 -0.68082,-1.91008 -0.68082,-4.3875 0,-2.00463 0.60517,-3.7445 0.62409,-1.73987 1.7777,-3.00695 1.15361,-1.28599 2.81783,-2.00463 1.66422,-0.73756 3.7445,-0.73756 z m 0.0756,2.47743 q -2.4396,0 -3.83906,1.41837 -1.39946,1.39946 -1.73987,3.89579 l 10.47704,0 q 0,-1.17252 -0.34041,-2.13701 -0.32149,-0.98341 -0.96449,-1.68314 -0.62408,-0.71864 -1.53184,-1.09687 -0.90776,-0.39714 -2.06137,-0.39714 z" />
      <path
         id="path122"
         style="font-style:normal;font-variant:normal;font-weight:normal;font-stretch:normal;font-family:Lato, Arial, Helvetica, sans-serif;-inkscape-font-specification:Lato"
         d="m 383.38481,140.05963 0,0 z m 7.73486,0.30259 q -2.2694,0 -3.49865,-1.26708 -1.21035,-1.26708 -1.21035,-3.64995 l 0,-11.72521 -2.30722,0 q -0.30258,0 -0.51061,-0.1702 -0.20803,-0.18912 -0.20803,-0.56735 l 0,-1.34273 3.13933,-0.39714 0.77538,-5.91934 q 0.0567,-0.28368 0.24585,-0.45388 0.20803,-0.18912 0.52952,-0.18912 l 1.70205,0 0,6.60016 13.23814,0 0,18.77925 -3.36627,0 0,-16.33965 -9.87187,0 0,11.49827 q 0,1.21035 0.58626,1.79661 0.58626,0.58626 1.51293,0.58626 0.52953,0 0.90776,-0.13238 0.39715,-0.1513 0.68082,-0.3215 0.28367,-0.1702 0.47279,-0.30259 0.20803,-0.15129 0.35932,-0.15129 0.26476,0 0.47279,0.3215 l 0.98341,1.60749 q -0.86994,0.8132 -2.09919,1.28599 -1.22926,0.45388 -2.53416,0.45388 z m 12.72753,-25.60635 q 0,0.4917 -0.20803,0.92667 -0.18912,0.41605 -0.52953,0.73755 -0.3215,0.3215 -0.75646,0.51061 -0.43497,0.18912 -0.92667,0.18912 -0.49171,0 -0.92667,-0.18912 -0.41606,-0.18911 -0.73756,-0.51061 -0.32149,-0.3215 -0.51061,-0.73755 -0.18912,-0.43497 -0.18912,-0.92667 0,-0.49171 0.18912,-0.92667 0.18912,-0.45388 0.51061,-0.77538 0.3215,-0.34041 0.73756,-0.52953 0.43496,-0.18911 0.92667,-0.18911 0.4917,0 0.92667,0.18911 0.43496,0.18912 0.75646,0.52953 0.34041,0.3215 0.52953,0.77538 0.20803,0.43496 0.20803,0.92667 z" />
      <path
         id="path124"
         style="font-style:normal;font-variant:normal;font-weight:normal;font-stretch:normal;font-family:Lato, Arial, Helvetica, sans-serif;-inkscape-font-specification:Lato"
         d="m 421.84102,124.30624 q -0.15129,0.20803 -0.30258,0.3215 -0.1513,0.11347 -0.41606,0.11347 -0.28367,0 -0.62408,-0.22694 -0.34041,-0.24585 -0.85103,-0.52953 -0.4917,-0.28367 -1.22925,-0.51061 -0.71864,-0.24585 -1.7777,-0.24585 -1.41837,0 -2.49633,0.51061 -1.07796,0.4917 -1.81552,1.43729 -0.71864,0.94558 -1.09687,2.2883 -0.35932,1.34273 -0.35932,3.00695 0,1.73987 0.39714,3.10151 0.39714,1.34273 1.11579,2.2694 0.73755,0.90776 1.75878,1.39946 1.04014,0.47279 2.32613,0.47279 1.22926,0 2.02354,-0.28368 0.79429,-0.30258 1.30491,-0.6619 0.52952,-0.35932 0.86993,-0.643 0.35932,-0.30258 0.69973,-0.30258 0.41606,0 0.643,0.32149 l 0.94558,1.22926 q -0.62408,0.77538 -1.41837,1.32381 -0.79429,0.54844 -1.72096,0.92667 -0.90776,0.35932 -1.91008,0.52953 -1.00231,0.1702 -2.04245,0.1702 -1.79661,0 -3.34736,-0.6619 -1.53184,-0.66191 -2.66654,-1.91008 -1.1347,-1.26708 -1.7777,-3.10151 -0.64299,-1.83442 -0.64299,-4.17947 0,-2.13701 0.58626,-3.95253 0.60517,-1.81551 1.73987,-3.12042 1.15361,-1.32381 2.81783,-2.06136 1.68314,-0.73756 3.85798,-0.73756 2.02354,0 3.55538,0.66191 1.55076,0.64299 2.74219,1.83443 l -0.88885,1.21034 z" />
      <path
         id="path126"
         style="font-style:normal;font-variant:normal;font-weight:normal;font-stretch:normal;font-family:Lato, Arial, Helvetica, sans-serif;-inkscape-font-specification:Lato"
         d="m 437.69135,124.06039 q -0.22694,0.41606 -0.69973,0.41606 -0.28368,0 -0.643,-0.20803 -0.35932,-0.20803 -0.88885,-0.45388 -0.51061,-0.26476 -1.22925,-0.47279 -0.71864,-0.22694 -1.70205,-0.22694 -0.85102,0 -1.53184,0.22694 -0.68082,0.20803 -1.17252,0.58626 -0.47279,0.37823 -0.73756,0.88885 -0.24585,0.4917 -0.24585,1.07796 0,0.73755 0.41606,1.22925 0.43497,0.49171 1.1347,0.85103 0.69973,0.35932 1.58857,0.64299 0.88885,0.26477 1.81552,0.58626 0.94558,0.30259 1.83443,0.68082 0.88885,0.37824 1.58858,0.94558 0.69973,0.56735 1.11578,1.39947 0.43497,0.8132 0.43497,1.96681 0,1.32381 -0.47279,2.45851 -0.47279,1.11578 -1.39946,1.9479 -0.92667,0.8132 -2.2694,1.28599 -1.34272,0.47279 -3.10151,0.47279 -2.00463,0 -3.63103,-0.643 -1.6264,-0.66191 -2.7611,-1.68313 l 0.79429,-1.28599 q 0.15129,-0.24586 0.35932,-0.37824 0.20803,-0.13238 0.52953,-0.13238 0.34041,0 0.71864,0.26476 0.37823,0.26477 0.90776,0.58627 0.54844,0.32149 1.32381,0.58626 0.77538,0.26476 1.92899,0.26476 0.9834,0 1.72096,-0.24585 0.73755,-0.26477 1.22925,-0.69973 0.49171,-0.43497 0.71865,-1.00232 0.24585,-0.56735 0.24585,-1.21034 0,-0.79429 -0.43497,-1.30491 -0.41606,-0.52952 -1.11579,-0.88884 -0.69973,-0.37824 -1.60749,-0.643 -0.88884,-0.28367 -1.83442,-0.58626 -0.92667,-0.30259 -1.83443,-0.68082 -0.88885,-0.39714 -1.58858,-0.9834 -0.69973,-0.58626 -1.1347,-1.43729 -0.41605,-0.86993 -0.41605,-2.09919 0,-1.09687 0.45388,-2.09919 0.45388,-1.02123 1.32381,-1.77769 0.86994,-0.77538 2.13701,-1.22926 1.26708,-0.45388 2.89348,-0.45388 1.89117,0 3.38519,0.60517 1.51293,0.58626 2.6098,1.6264 l -0.75646,1.22926 z" />
      <path
         id="path128"
         style="font-style:normal;font-variant:normal;font-weight:normal;font-stretch:normal;font-family:Lato, Arial, Helvetica, sans-serif;-inkscape-font-specification:Lato"
         d="m 442.66864,122.64202 0,0 z m 2.9313,-9.68276 0,5.48438 -0.30258,2.9313 q -0.0946,0.60517 -0.35933,0.94558 -0.24585,0.3215 -0.8132,0.3215 -0.51061,0 -0.79428,-0.3215 -0.26477,-0.34041 -0.35933,-0.94558 l -0.30258,-2.9313 0,-5.48438 2.9313,0 z m 6.29757,0 0,5.48438 -0.30258,2.9313 q -0.0946,0.60517 -0.35932,0.94558 -0.24585,0.3215 -0.8132,0.3215 -0.51062,0 -0.79429,-0.3215 -0.26476,-0.34041 -0.35932,-0.94558 l -0.30259,-2.9313 0,-5.48438 2.9313,0 z" />
    </g>
    <path
       id="path3302"
       d="m 175.96468,179.2662 337.62208,0"
       style="fill:none;stroke:#000000;stroke-width:4.49700022;marker-end:url(#Arrow1Mend)" />
  </g>
  <g
     id="text3045"
     style="font-style:normal;font-weight:normal;font-size:24px;line-height:125%;font-family:Lato, Arial, Helvetica, sans-serif;letter-spacing:0px;word-spacing:0px;fill:#000000;fill-opacity:1;stroke:none" />
</svg>
