<?xml version="1.0" encoding="UTF-8" standalone="no"?>
<svg
   xmlns:dc="http://purl.org/dc/elements/1.1/"
   xmlns:cc="http://creativecommons.org/ns#"
   xmlns:rdf="http://www.w3.org/1999/02/22-rdf-syntax-ns#"
   xmlns:svg="http://www.w3.org/2000/svg"
   xmlns="http://www.w3.org/2000/svg"
   viewBox="0 0 951.46362 317.94733"
   x="0px"
   y="0px"
   version="1.1"
   height="317.94733"
   width="951.46362"
   id="svg2">
  <metadata
     id="metadata73">
    <rdf:RDF>
      <cc:Work
         rdf:about="">
        <dc:format>image/svg+xml</dc:format>
        <dc:type
           rdf:resource="http://purl.org/dc/dcmitype/StillImage" />
        <dc:title />
      </cc:Work>
    </rdf:RDF>
  </metadata>
  <defs
     id="defs71">
    <marker
       style="overflow:visible"
       overflow="visible"
       orient="auto"
       refX="0"
       refY="0"
       id="Arrow1Mend">
      <path
         style="fill-rule:evenodd;stroke:#000000;stroke-width:1pt"
         transform="matrix(-0.4,0,0,-0.4,-4,0)"
         d="M 0,0 5,-5 -12.5,0 5,5 0,0 Z"
         id="path3316" />
    </marker>
  </defs>
  <desc
     id="desc6">Creator: FreeHEP Graphics2D Driver Producer: org.freehep.graphicsio.svg.SVGGraphics2D Revision: 12753  Source:  Date: Tuesday, February 17, 2009 4:12:33 PM PST</desc>
  <g
     style="fill:none;stroke:#2d3680;stroke-width:10;stroke-linecap:round;stroke-linejoin:round;stroke-miterlimit:10;stroke-opacity:0.50196043"
     stroke-miterlimit="10"
     transform="matrix(0.47466,0,0,0.47466,-14.564314,-131.8571)"
     id="g62" />
  <g
     style="fill:#2d3680;fill-opacity:0.50196037"
     transform="matrix(0.47466,0,0,0.47466,-14.564314,-131.8571)"
     id="g66" />
  <!-- default stroke -->
  <g
     transform="translate(-16.140314,-35.728998)"
     id="g3016">
    <g
       id="g3278"
       transform="matrix(0.77907694,0,0,0.77867431,582.94418,29.269536)">
      <g
         id="g10"
         transform="matrix(0.47466,0,0,0.47466,1.576,7.8719)"
         stroke-miterlimit="10"
         style="fill:none;stroke:#000000;stroke-width:11.24704647;stroke-miterlimit:10">
        <path
           id="path12"
           d="M 286.11,634.5 H 14.16 l -0.002,-300"
           stroke-miterlimit="10"
           style="stroke-width:11.24704647;stroke-miterlimit:10" />
      </g>
      <g
         id="g14"
         transform="matrix(0.47466,0,0,0.47466,1.576,7.8719)"
         stroke-miterlimit="10"
         style="fill:none;stroke:#000000;stroke-width:11.24704647;stroke-miterlimit:10">
        <path
           id="path16"
           d="M 150.13,34.5 H 14.16 l -0.002,300"
           stroke-miterlimit="10"
           style="stroke-width:11.24704647;stroke-miterlimit:10" />
      </g>
      <g
         id="g18"
         transform="matrix(0.47466,0,0,0.47466,1.576,7.8719)"
         stroke-miterlimit="10"
         style="fill:none;stroke:#000000;stroke-width:11.24704647;stroke-miterlimit:10">
        <path
           id="path20"
           d="m 6,334.5 h 8.158"
           stroke-miterlimit="10"
           style="stroke-width:11.24704647;stroke-miterlimit:10" />
      </g>
      <g
         id="g22"
         transform="matrix(0.47466,0,0,0.47466,1.576,7.8719)"
         stroke-miterlimit="10"
         style="fill:none;stroke:#000000;stroke-width:11.24704647;stroke-miterlimit:10">
        <path
           id="path24"
           d="M 558.05,434.5 H 286.11 v 200"
           stroke-miterlimit="10"
           style="stroke-width:11.24704647;stroke-miterlimit:10" />
      </g>
      <g
         id="g26"
         transform="matrix(0.47466,0,0,0.47466,1.576,7.8719)"
         stroke-miterlimit="10"
         style="fill:none;stroke:#000000;stroke-width:11.24704647;stroke-miterlimit:10">
        <path
           id="path28"
           d="M 449.27,834.5 H 286.11 v -200"
           stroke-miterlimit="10"
           style="stroke-width:11.24704647;stroke-miterlimit:10" />
      </g>
      <g
         id="g30"
         transform="matrix(0.47466,0,0,0.47466,1.576,7.8719)"
         stroke-miterlimit="10"
         style="fill:none;stroke:#000000;stroke-width:11.24704647;stroke-miterlimit:10">
        <path
           id="path32"
           d="M 639.64,567.83 H 558.05 V 434.5"
           stroke-miterlimit="10"
           style="stroke-width:11.24704647;stroke-miterlimit:10" />
      </g>
      <g
         id="g34"
         transform="matrix(0.47466,0,0,0.47466,1.576,7.8719)"
         stroke-miterlimit="10"
         style="fill:none;stroke:#000000;stroke-width:11.24704647;stroke-miterlimit:10">
        <path
           id="path36"
           d="M 830,301.17 H 558.05 V 434.5"
           stroke-miterlimit="10"
           style="stroke-width:11.24704647;stroke-miterlimit:10" />
      </g>
      <g
         id="text2484"
         style="font-size:32px;line-height:0%;font-family:Lato, Arial, Helvetica, sans-serif;fill:#000000"
         aria-label="armadillo">
        <path
           id="path42"
           style=""
           d="m 90.050643,24.567461 q -1.968,0.064 -3.36,0.32 -1.376,0.24 -2.256,0.64 -0.864,0.4 -1.264,0.944 -0.384,0.544 -0.384,1.216 0,0.64 0.208,1.104 0.208,0.464 0.56,0.768 0.368,0.288 0.848,0.432 0.496,0.128 1.056,0.128 0.752,0 1.376,-0.144 0.624,-0.16 1.168,-0.448 0.56,-0.288 1.056,-0.688 0.512,-0.4 0.992,-0.912 z m -9.2,-6.624 q 1.344,-1.296 2.896,-1.936 1.552,-0.64 3.44,-0.64 1.36,0 2.416,0.448 1.056,0.448 1.776,1.248 0.72,0.8 1.088,1.936 0.368,1.136 0.368,2.496 v 10.368 h -1.264 q -0.416,0 -0.64,-0.128 -0.224,-0.144 -0.352,-0.544 l -0.32,-1.536 q -0.64,0.592 -1.248,1.056 -0.608,0.448 -1.28,0.768 -0.672,0.304 -1.44,0.464 -0.752,0.176 -1.68,0.176 -0.944,0 -1.776,-0.256 -0.832,-0.272 -1.456,-0.8 -0.608,-0.528 -0.976,-1.328 -0.352,-0.816 -0.352,-1.92 0,-0.96 0.528,-1.84 0.528,-0.896 1.712,-1.584 1.184,-0.688 3.088,-1.12 1.904,-0.448 4.672,-0.512 v -1.264 q 0,-1.888 -0.816,-2.848 -0.816,-0.976 -2.384,-0.976 -1.056,0 -1.776,0.272 -0.704,0.256 -1.232,0.592 -0.512,0.32 -0.896,0.592 -0.368,0.256 -0.736,0.256 -0.288,0 -0.496,-0.144 -0.208,-0.16 -0.352,-0.384 z" />
        <path
           id="path44"
           style=""
           d="m 99.845643,18.903461 q 0.767997,-1.664 1.887997,-2.592 1.12,-0.944 2.736,-0.944 0.512,0 0.976,0.112 0.48,0.112 0.848,0.352 l -0.208,2.128 q -0.096,0.4 -0.48,0.4 -0.224,0 -0.656,-0.096 -0.432,-0.096 -0.976,-0.096 -0.768,0 -1.376,0.224 -0.592,0.224 -1.072,0.672 -0.464,0.432 -0.848,1.088 -0.368,0.64 -0.672,1.472 v 10.24 h -2.863997 v -16.208 h 1.632 q 0.464,0 0.64,0.176 0.176,0.176 0.24,0.608 z" />
        <path
           id="path46"
           style=""
           d="m 108.76664,31.863461 v -16.208 h 1.712 q 0.608,0 0.752,0.592 l 0.208,1.664 q 0.896,-1.104 2.016,-1.808 1.12,-0.704 2.592,-0.704 1.632,0 2.64,0.912 1.024,0.912 1.472,2.464 0.352,-0.88 0.896,-1.52 0.56,-0.64 1.248,-1.056 0.688,-0.416 1.456,-0.608 0.784,-0.192 1.584,-0.192 1.28,0 2.272,0.416 1.008,0.4 1.696,1.184 0.704,0.784 1.072,1.936 0.368,1.136 0.368,2.608 v 10.32 h -2.864 v -10.32 q 0,-1.904 -0.832,-2.88 -0.832,-0.992 -2.4,-0.992 -0.704,0 -1.344,0.256 -0.624,0.24 -1.104,0.72 -0.48,0.48 -0.768,1.216 -0.272,0.72 -0.272,1.68 v 10.32 h -2.864 v -10.32 q 0,-1.952 -0.784,-2.912 -0.784,-0.96 -2.288,-0.96 -1.056,0 -1.952,0.576 -0.896,0.56 -1.648,1.536 v 12.08 z" />
        <path
           id="path48"
           style=""
           d="m 143.86314,24.567461 q -1.968,0.064 -3.36,0.32 -1.376,0.24 -2.256,0.64 -0.864,0.4 -1.264,0.944 -0.384,0.544 -0.384,1.216 0,0.64 0.208,1.104 0.208,0.464 0.56,0.768 0.368,0.288 0.848,0.432 0.496,0.128 1.056,0.128 0.752,0 1.376,-0.144 0.624,-0.16 1.168,-0.448 0.56,-0.288 1.056,-0.688 0.512,-0.4 0.992,-0.912 z m -9.2,-6.624 q 1.344,-1.296 2.896,-1.936 1.552,-0.64 3.44,-0.64 1.36,0 2.416,0.448 1.056,0.448 1.776,1.248 0.72,0.8 1.088,1.936 0.368,1.136 0.368,2.496 v 10.368 h -1.264 q -0.416,0 -0.64,-0.128 -0.224,-0.144 -0.352,-0.544 l -0.32,-1.536 q -0.64,0.592 -1.248,1.056 -0.608,0.448 -1.28,0.768 -0.672,0.304 -1.44,0.464 -0.752,0.176 -1.68,0.176 -0.944,0 -1.776,-0.256 -0.832,-0.272 -1.456,-0.8 -0.608,-0.528 -0.976,-1.328 -0.352,-0.816 -0.352,-1.92 0,-0.96 0.528,-1.84 0.528,-0.896 1.712,-1.584 1.184,-0.688 3.088,-1.12 1.904,-0.448 4.672,-0.512 v -1.264 q 0,-1.888 -0.816,-2.848 -0.816,-0.976 -2.384,-0.976 -1.056,0 -1.776,0.272 -0.704,0.256 -1.232,0.592 -0.512,0.32 -0.896,0.592 -0.368,0.256 -0.736,0.256 -0.288,0 -0.496,-0.144 -0.208,-0.16 -0.352,-0.384 z" />
        <path
           id="path50"
           style=""
           d="m 161.51414,19.511461 q -0.8,-1.072 -1.728,-1.488 -0.928,-0.432 -2.08,-0.432 -2.256,0 -3.472,1.616 -1.216,1.616 -1.216,4.608 0,1.584 0.272,2.72 0.272,1.12 0.8,1.856 0.528,0.72 1.296,1.056 0.768,0.336 1.744,0.336 1.408,0 2.448,-0.64 1.056,-0.64 1.936,-1.808 z m 2.848,-11.2160005 V 31.863461 h -1.696 q -0.608,0 -0.768,-0.592 l -0.256,-1.968 q -1.04,1.248 -2.368,2.016 -1.328,0.768 -3.072,0.768 -1.392,0 -2.528,-0.528 -1.136,-0.544 -1.936,-1.584 -0.8,-1.04 -1.232,-2.592 -0.432,-1.552 -0.432,-3.568 0,-1.792 0.48,-3.328 0.48,-1.552 1.376,-2.688 0.896,-1.136 2.192,-1.776 1.312,-0.656 2.944,-0.656 1.488,0 2.544,0.512 1.072,0.496 1.904,1.392 V 8.2954605 Z" />
        <path
           id="path52"
           style=""
           d="m 171.89964,15.655461 v 16.208 h -2.848 v -16.208 z m 0.608,-5.088 q 0,0.416 -0.176,0.784 -0.16,0.352 -0.448,0.64 -0.272,0.272 -0.656,0.432 -0.368,0.16 -0.784,0.16 -0.416,0 -0.784,-0.16 -0.352,-0.16 -0.624,-0.432 -0.272,-0.288 -0.432,-0.64 -0.16,-0.368 -0.16,-0.784 0,-0.416 0.16,-0.7840005 0.16,-0.384 0.432,-0.656 0.272,-0.288 0.624,-0.448 0.368,-0.16 0.784,-0.16 0.416,0 0.784,0.16 0.384,0.16 0.656,0.448 0.288,0.272 0.448,0.656 0.176,0.3680005 0.176,0.7840005 z" />
        <path
           id="path54"
           style=""
           d="M 179.52314,8.2954605 V 31.863461 h -2.848 V 8.2954605 Z" />
        <path
           id="path56"
           style=""
           d="M 187.08564,8.2954605 V 31.863461 h -2.848 V 8.2954605 Z" />
        <path
           id="path58"
           style=""
           d="m 198.53614,15.399461 q 1.776,0 3.2,0.592 1.424,0.592 2.432,1.68 1.008,1.088 1.536,2.64 0.544,1.536 0.544,3.44 0,1.92 -0.544,3.456 -0.528,1.536 -1.536,2.624 -1.008,1.088 -2.432,1.68 -1.424,0.576 -3.2,0.576 -1.792,0 -3.232,-0.576 -1.424,-0.592 -2.432,-1.68 -1.008,-1.088 -1.552,-2.624 -0.528,-1.536 -0.528,-3.456 0,-1.904 0.528,-3.44 0.544,-1.552 1.552,-2.64 1.008,-1.088 2.432,-1.68 1.44,-0.592 3.232,-0.592 z m 0,14.464 q 2.4,0 3.584,-1.6 1.184,-1.616 1.184,-4.496 0,-2.896 -1.184,-4.512 -1.184,-1.616 -3.584,-1.616 -1.216,0 -2.128,0.416 -0.896,0.416 -1.504,1.2 -0.592,0.784 -0.896,1.936 -0.288,1.136 -0.288,2.576 0,2.88 1.184,4.496 1.2,1.6 3.632,1.6 z" />
      </g>
      <g
         id="text2488"
         style="font-size:32px;line-height:0%;font-family:Lato, Arial, Helvetica, sans-serif;fill:#000000"
         aria-label="giraffe">
        <path
           id="path61"
           style=""
           d="m 233.10476,402.8542 q 0.864,0 1.52,-0.24 0.656,-0.24 1.104,-0.672 0.448,-0.432 0.672,-1.024 0.224,-0.608 0.224,-1.328 0,-1.488 -0.912,-2.368 -0.896,-0.88 -2.608,-0.88 -1.728,0 -2.64,0.88 -0.896,0.88 -0.896,2.368 0,0.72 0.224,1.328 0.24,0.592 0.688,1.024 0.448,0.432 1.104,0.672 0.656,0.24 1.52,0.24 z m 5.136,8.8 q 0,-0.592 -0.336,-0.96 -0.336,-0.368 -0.912,-0.576 -0.56,-0.208 -1.312,-0.288 -0.752,-0.096 -1.6,-0.144 -0.832,-0.048 -1.696,-0.096 -0.864,-0.048 -1.664,-0.16 -0.896,0.416 -1.472,1.056 -0.56,0.624 -0.56,1.472 0,0.544 0.272,1.008 0.288,0.48 0.864,0.816 0.576,0.352 1.44,0.544 0.88,0.208 2.064,0.208 1.152,0 2.064,-0.208 0.912,-0.208 1.536,-0.592 0.64,-0.384 0.976,-0.912 0.336,-0.528 0.336,-1.168 z m 2.896,-16.448 v 1.056 q 0,0.528 -0.672,0.672 l -1.84,0.24 q 0.544,1.056 0.544,2.336 0,1.184 -0.464,2.16 -0.448,0.96 -1.248,1.648 -0.8,0.688 -1.92,1.056 -1.12,0.368 -2.432,0.368 -1.136,0 -2.144,-0.272 -0.512,0.32 -0.784,0.688 -0.272,0.352 -0.272,0.72 0,0.576 0.464,0.88 0.48,0.288 1.248,0.416 0.768,0.128 1.744,0.16 0.992,0.032 2.016,0.112 1.04,0.064 2.016,0.24 0.992,0.176 1.76,0.576 0.768,0.4 1.232,1.104 0.48,0.704 0.48,1.824 0,1.04 -0.528,2.016 -0.512,0.976 -1.488,1.728 -0.976,0.768 -2.4,1.216 -1.408,0.464 -3.184,0.464 -1.776,0 -3.104,-0.352 -1.328,-0.352 -2.208,-0.944 -0.88,-0.592 -1.328,-1.376 -0.432,-0.768 -0.432,-1.616 0,-1.2 0.752,-2.032 0.752,-0.832 2.064,-1.328 -0.72,-0.32 -1.152,-0.848 -0.416,-0.544 -0.416,-1.456 0,-0.352 0.128,-0.72 0.128,-0.384 0.384,-0.752 0.272,-0.384 0.656,-0.72 0.384,-0.336 0.896,-0.592 -1.2,-0.672 -1.872,-1.776 -0.672,-1.12 -0.672,-2.592 0,-1.184 0.448,-2.144 0.464,-0.976 1.28,-1.648 0.816,-0.688 1.936,-1.056 1.136,-0.368 2.48,-0.368 1.056,0 1.968,0.24 0.912,0.224 1.664,0.672 z" />
        <path
           id="path63"
           style=""
           d="m 247.08976,394.5662 v 16.208 h -2.848 v -16.208 z m 0.608,-5.088 q 0,0.416 -0.176,0.784 -0.16,0.352 -0.448,0.64 -0.272,0.272 -0.656,0.432 -0.368,0.16 -0.784,0.16 -0.416,0 -0.784,-0.16 -0.352,-0.16 -0.624,-0.432 -0.272,-0.288 -0.432,-0.64 -0.16,-0.368 -0.16,-0.784 0,-0.416 0.16,-0.784 0.16,-0.384 0.432,-0.656 0.272,-0.288 0.624,-0.448 0.368,-0.16 0.784,-0.16 0.416,0 0.784,0.16 0.384,0.16 0.656,0.448 0.288,0.272 0.448,0.656 0.176,0.368 0.176,0.784 z" />
        <path
           id="path65"
           style=""
           d="m 254.47326,397.8142 q 0.768,-1.664 1.888,-2.592 1.12,-0.944 2.736,-0.944 0.512,0 0.976,0.112 0.48,0.112 0.848,0.352 l -0.208,2.128 q -0.096,0.4 -0.48,0.4 -0.224,0 -0.656,-0.096 -0.432,-0.096 -0.976,-0.096 -0.768,0 -1.376,0.224 -0.592,0.224 -1.072,0.672 -0.464,0.432 -0.848,1.088 -0.368,0.64 -0.672,1.472 v 10.24 h -2.864 v -16.208 h 1.632 q 0.464,0 0.64,0.176 0.176,0.176 0.24,0.608 z" />
        <path
           id="path67"
           style=""
           d="m 271.92826,403.4782 q -1.968,0.064 -3.36,0.32 -1.376,0.24 -2.256,0.64 -0.864,0.4 -1.264,0.944 -0.384,0.544 -0.384,1.216 0,0.64 0.208,1.104 0.208,0.464 0.56,0.768 0.368,0.288 0.848,0.432 0.496,0.128 1.056,0.128 0.752,0 1.376,-0.144 0.624,-0.16 1.168,-0.448 0.56,-0.288 1.056,-0.688 0.512,-0.4 0.992,-0.912 z m -9.2,-6.624 q 1.344,-1.296 2.896,-1.936 1.552,-0.64 3.44,-0.64 1.36,0 2.416,0.448 1.056,0.448 1.776,1.248 0.72,0.8 1.088,1.936 0.368,1.136 0.368,2.496 v 10.368 h -1.264 q -0.416,0 -0.64,-0.128 -0.224,-0.144 -0.352,-0.544 l -0.32,-1.536 q -0.64,0.592 -1.248,1.056 -0.608,0.448 -1.28,0.768 -0.672,0.304 -1.44,0.464 -0.752,0.176 -1.68,0.176 -0.944,0 -1.776,-0.256 -0.832,-0.272 -1.456,-0.8 -0.608,-0.528 -0.976,-1.328 -0.352,-0.816 -0.352,-1.92 0,-0.96 0.528,-1.84 0.528,-0.896 1.712,-1.584 1.184,-0.688 3.088,-1.12 1.904,-0.448 4.672,-0.512 v -1.264 q 0,-1.888 -0.816,-2.848 -0.816,-0.976 -2.384,-0.976 -1.056,0 -1.776,0.272 -0.704,0.256 -1.232,0.592 -0.512,0.32 -0.896,0.592 -0.368,0.256 -0.736,0.256 -0.288,0 -0.496,-0.144 -0.208,-0.16 -0.352,-0.384 z" />
        <path
           id="path69"
           style=""
           d="m 279.82526,410.7742 v -13.776 l -1.792,-0.208 q -0.336,-0.08 -0.56,-0.24 -0.208,-0.176 -0.208,-0.496 v -1.168 h 2.56 v -1.328 q 0,-1.392 0.384,-2.464 0.4,-1.088 1.12,-1.824 0.736,-0.752 1.76,-1.136 1.024,-0.384 2.304,-0.384 1.088,0 2,0.32 l -0.064,1.44 q -0.032,0.384 -0.432,0.416 -0.384,0.032 -1.04,0.032 -0.736,0 -1.344,0.192 -0.592,0.176 -1.024,0.608 -0.432,0.432 -0.672,1.152 -0.224,0.704 -0.224,1.744 v 1.232 h 7.312 v -1.744 q 0,-1.392 0.384,-2.464 0.4,-1.088 1.12,-1.824 0.736,-0.752 1.76,-1.136 1.024,-0.384 2.304,-0.384 1.072,0 2,0.32 l -0.064,1.424 q -0.032,0.384 -0.432,0.416 -0.384,0.032 -1.04,0.032 -0.736,0 -1.344,0.192 -0.592,0.192 -1.024,0.624 -0.432,0.432 -0.672,1.136 -0.224,0.704 -0.224,1.744 v 1.664 h 4.672 v 2.064 h -4.576 v 13.824 h -2.864 v -13.824 h -7.216 v 13.824 z" />
        <path
           id="path71"
           style=""
           d="m 310.42976,400.9022 q 0,-0.992 -0.288,-1.808 -0.272,-0.832 -0.816,-1.424 -0.528,-0.608 -1.296,-0.928 -0.768,-0.336 -1.744,-0.336 -2.048,0 -3.248,1.2 -1.184,1.184 -1.472,3.296 z m 2.304,7.6 q -0.528,0.64 -1.264,1.12 -0.736,0.464 -1.584,0.768 -0.832,0.304 -1.728,0.448 -0.896,0.16 -1.776,0.16 -1.68,0 -3.104,-0.56 -1.408,-0.576 -2.448,-1.664 -1.024,-1.104 -1.6,-2.72 -0.576,-1.616 -0.576,-3.712 0,-1.696 0.512,-3.168 0.528,-1.472 1.504,-2.544 0.976,-1.088 2.384,-1.696 1.408,-0.624 3.168,-0.624 1.456,0 2.688,0.496 1.248,0.48 2.144,1.408 0.912,0.912 1.424,2.272 0.512,1.344 0.512,3.072 0,0.672 -0.144,0.896 -0.144,0.224 -0.544,0.224 h -10.832 q 0.048,1.536 0.416,2.672 0.384,1.136 1.056,1.904 0.672,0.752 1.6,1.136 0.928,0.368 2.08,0.368 1.072,0 1.84,-0.24 0.784,-0.256 1.344,-0.544 0.56,-0.288 0.928,-0.528 0.384,-0.256 0.656,-0.256 0.352,0 0.544,0.272 z" />
      </g>
      <g
         id="text2492"
         style="font-size:32px;line-height:0%;font-family:Lato, Arial, Helvetica, sans-serif;fill:#000000"
         aria-label="rat">
        <path
           id="path74"
           style=""
           d="m 314.76493,272.98501 q 0.768,-1.664 1.888,-2.592 1.12,-0.944 2.736,-0.944 0.512,0 0.976,0.112 0.48,0.112 0.848,0.352 l -0.208,2.128 q -0.096,0.4 -0.48,0.4 -0.224,0 -0.656,-0.096 -0.432,-0.096 -0.976,-0.096 -0.768,0 -1.376,0.224 -0.592,0.224 -1.072,0.672 -0.464,0.432 -0.848,1.088 -0.368,0.64 -0.672,1.472 v 10.24 h -2.864 v -16.208 h 1.632 q 0.464,0 0.64,0.176 0.176,0.176 0.24,0.608 z" />
        <path
           id="path76"
           style=""
           d="m 332.21993,278.64901 q -1.968,0.064 -3.36,0.32 -1.376,0.24 -2.256,0.64 -0.864,0.4 -1.264,0.944 -0.384,0.544 -0.384,1.216 0,0.64 0.208,1.104 0.208,0.464 0.56,0.768 0.368,0.288 0.848,0.432 0.496,0.128 1.056,0.128 0.752,0 1.376,-0.144 0.624,-0.16 1.168,-0.448 0.56,-0.288 1.056,-0.688 0.512,-0.4 0.992,-0.912 z m -9.2,-6.624 q 1.344,-1.296 2.896,-1.936 1.552,-0.64 3.44,-0.64 1.36,0 2.416,0.448 1.056,0.448 1.776,1.248 0.72,0.8 1.088,1.936 0.368,1.136 0.368,2.496 v 10.368 h -1.264 q -0.416,0 -0.64,-0.128 -0.224,-0.144 -0.352,-0.544 l -0.32,-1.536 q -0.64,0.592 -1.248,1.056 -0.608,0.448 -1.28,0.768 -0.672,0.304 -1.44,0.464 -0.752,0.176 -1.68,0.176 -0.944,0 -1.776,-0.256 -0.832,-0.272 -1.456,-0.8 -0.608,-0.528 -0.976,-1.328 -0.352,-0.816 -0.352,-1.92 0,-0.96 0.528,-1.84 0.528,-0.896 1.712,-1.584 1.184,-0.688 3.088,-1.12 1.904,-0.448 4.672,-0.512 v -1.264 q 0,-1.888 -0.816,-2.848 -0.816,-0.976 -2.384,-0.976 -1.056,0 -1.776,0.272 -0.704,0.256 -1.232,0.592 -0.512,0.32 -0.896,0.592 -0.368,0.256 -0.736,0.256 -0.288,0 -0.496,-0.144 -0.208,-0.16 -0.352,-0.384 z" />
        <path
           id="path78"
           style=""
           d="m 344.09943,286.20101 q -1.92,0 -2.96,-1.072 -1.024,-1.072 -1.024,-3.088 v -9.92 h -1.952 q -0.256,0 -0.432,-0.144 -0.176,-0.16 -0.176,-0.48 v -1.136 l 2.656,-0.336 0.656,-5.008 q 0.048,-0.24 0.208,-0.384 0.176,-0.16 0.448,-0.16 h 1.44 v 5.584 h 4.688 v 2.064 h -4.688 v 9.728 q 0,1.024 0.496,1.52 0.496,0.496 1.28,0.496 0.448,0 0.768,-0.112 0.336,-0.128 0.576,-0.272 0.24,-0.144 0.4,-0.256 0.176,-0.128 0.304,-0.128 0.224,0 0.4,0.272 l 0.832,1.36 q -0.736,0.688 -1.776,1.088 -1.04,0.384 -2.144,0.384 z" />
      </g>
      <g
         id="text2496"
         style="font-size:32px;line-height:0%;font-family:Lato, Arial, Helvetica, sans-serif;fill:#000000"
         aria-label="human">
        <path
           id="path81"
           style=""
           d="m 405.22284,143.85627 q 1.04,-1.104 2.304,-1.76 1.264,-0.656 2.912,-0.656 1.328,0 2.336,0.448 1.024,0.432 1.696,1.248 0.688,0.8 1.04,1.936 0.352,1.136 0.352,2.512 v 10.32 h -2.864 v -10.32 q 0,-1.84 -0.848,-2.848 -0.832,-1.024 -2.544,-1.024 -1.264,0 -2.368,0.608 -1.088,0.608 -2.016,1.648 v 11.936 h -2.864 v -23.568 h 2.864 z" />
        <path
           id="path83"
           style=""
           d="m 433.56184,141.69627 v 16.208 h -1.696 q -0.608,0 -0.768,-0.592 l -0.224,-1.744 q -1.056,1.168 -2.368,1.888 -1.312,0.704 -3.008,0.704 -1.328,0 -2.352,-0.432 -1.008,-0.448 -1.696,-1.248 -0.688,-0.8 -1.04,-1.936 -0.336,-1.136 -0.336,-2.512 v -10.336 h 2.848 v 10.336 q 0,1.84 0.832,2.848 0.848,1.008 2.576,1.008 1.264,0 2.352,-0.592 1.104,-0.608 2.032,-1.664 v -11.936 z" />
        <path
           id="path85"
           style=""
           d="m 438.04634,157.90427 v -16.208 h 1.712 q 0.608,0 0.752,0.592 l 0.208,1.664 q 0.896,-1.104 2.016,-1.808 1.12,-0.704 2.592,-0.704 1.632,0 2.64,0.912 1.024,0.912 1.472,2.464 0.352,-0.88 0.896,-1.52 0.56,-0.64 1.248,-1.056 0.688,-0.416 1.456,-0.608 0.784,-0.192 1.584,-0.192 1.28,0 2.272,0.416 1.008,0.4 1.696,1.184 0.704,0.784 1.072,1.936 0.368,1.136 0.368,2.608 v 10.32 h -2.864 v -10.32 q 0,-1.904 -0.832,-2.88 -0.832,-0.992 -2.4,-0.992 -0.704,0 -1.344,0.256 -0.624,0.24 -1.104,0.72 -0.48,0.48 -0.768,1.216 -0.272,0.72 -0.272,1.68 v 10.32 h -2.864 v -10.32 q 0,-1.952 -0.784,-2.912 -0.784,-0.96 -2.288,-0.96 -1.056,0 -1.952,0.576 -0.896,0.56 -1.648,1.536 v 12.08 z" />
        <path
           id="path87"
           style=""
           d="m 473.14284,150.60827 q -1.968,0.064 -3.36,0.32 -1.376,0.24 -2.256,0.64 -0.864,0.4 -1.264,0.944 -0.384,0.544 -0.384,1.216 0,0.64 0.208,1.104 0.208,0.464 0.56,0.768 0.368,0.288 0.848,0.432 0.496,0.128 1.056,0.128 0.752,0 1.376,-0.144 0.624,-0.16 1.168,-0.448 0.56,-0.288 1.056,-0.688 0.512,-0.4 0.992,-0.912 z m -9.2,-6.624 q 1.344,-1.296 2.896,-1.936 1.552,-0.64 3.44,-0.64 1.36,0 2.416,0.448 1.056,0.448 1.776,1.248 0.72,0.8 1.088,1.936 0.368,1.136 0.368,2.496 v 10.368 h -1.264 q -0.416,0 -0.64,-0.128 -0.224,-0.144 -0.352,-0.544 l -0.32,-1.536 q -0.64,0.592 -1.248,1.056 -0.608,0.448 -1.28,0.768 -0.672,0.304 -1.44,0.464 -0.752,0.176 -1.68,0.176 -0.944,0 -1.776,-0.256 -0.832,-0.272 -1.456,-0.8 -0.608,-0.528 -0.976,-1.328 -0.352,-0.816 -0.352,-1.92 0,-0.96 0.528,-1.84 0.528,-0.896 1.712,-1.584 1.184,-0.688 3.088,-1.12 1.904,-0.448 4.672,-0.512 v -1.264 q 0,-1.888 -0.816,-2.848 -0.816,-0.976 -2.384,-0.976 -1.056,0 -1.776,0.272 -0.704,0.256 -1.232,0.592 -0.512,0.32 -0.896,0.592 -0.368,0.256 -0.736,0.256 -0.288,0 -0.496,-0.144 -0.208,-0.16 -0.352,-0.384 z" />
        <path
           id="path89"
           style=""
           d="m 482.92184,144.04827 q 0.528,-0.592 1.12,-1.072 0.592,-0.48 1.248,-0.816 0.672,-0.352 1.408,-0.528 0.752,-0.192 1.616,-0.192 1.328,0 2.336,0.448 1.024,0.432 1.696,1.248 0.688,0.8 1.04,1.936 0.352,1.136 0.352,2.512 v 10.32 h -2.864 v -10.32 q 0,-1.84 -0.848,-2.848 -0.832,-1.024 -2.544,-1.024 -1.264,0 -2.368,0.608 -1.088,0.608 -2.016,1.648 v 11.936 h -2.864 v -16.208 h 1.712 q 0.608,0 0.752,0.592 z" />
      </g>
    </g>
    <g
       id="text3270"
       style="font-weight:bold;font-size:45.38792038px;line-height:0%;font-family:Serif, serif;fill:#000000"
       transform="scale(1.0002585,0.99974156)"
       aria-label="data">
      <path
         id="path92"
         style="font-style:normal;font-variant:normal;font-weight:bold;font-stretch:normal;font-family:Lato, Arial, Helvetica, sans-serif;-inkscape-font-specification:'Sans Bold'"
         d="m 31.953833,174.21078 q -0.953147,-1.15739 -2.087845,-1.63397 -1.112004,-0.47657 -2.40556,-0.47657 -1.270861,0 -2.292089,0.47657 -1.021229,0.47658 -1.747435,1.45242 -0.726207,0.95314 -1.112004,2.45095 -0.385798,1.4751 -0.385798,3.49487 0,2.04245 0.317716,3.47217 0.340409,1.40703 0.953146,2.31479 0.612737,0.88506 1.497801,1.29355 0.885065,0.3858 1.974375,0.3858 1.747435,0 2.972909,-0.72621 1.225474,-0.7262 2.314784,-2.06515 z m 5.605408,-16.38504 v 33.72323 h -3.426788 q -1.112004,0 -1.407026,-1.02123 l -0.476573,-2.2467 q -1.407025,1.61127 -3.245236,2.6098 -1.815517,0.99853 -4.243771,0.99853 -1.906292,0 -3.49487,-0.79428 -1.588577,-0.79429 -2.745969,-2.29209 -1.134698,-1.5205 -1.770129,-3.74451 -0.612737,-2.22401 -0.612737,-5.08344 0,-2.58712 0.703513,-4.81112 0.703513,-2.22401 2.019763,-3.85798 1.316249,-1.63396 3.15446,-2.54172 1.838211,-0.93045 4.130301,-0.93045 1.95168,0 3.336012,0.61273 1.384332,0.61274 2.473642,1.65666 v -12.27743 z" />
      <path
         id="path94"
         style="font-style:normal;font-variant:normal;font-weight:bold;font-stretch:normal;font-family:Lato, Arial, Helvetica, sans-serif;-inkscape-font-specification:'Sans Bold'"
         d="m 55.435699,181.60901 q -2.428254,0.11347 -4.084913,0.43119 -1.656659,0.29502 -2.655194,0.77159 -0.998534,0.47657 -1.429719,1.112 -0.431185,0.63544 -0.431185,1.38434 0,1.4751 0.86237,2.11053 0.885065,0.63544 2.29209,0.63544 1.724741,0 2.972909,-0.61274 1.270862,-0.63543 2.473642,-1.90629 z M 42.590917,171.5102 q 4.016831,-3.67642 9.667627,-3.67642 2.042457,0 3.653728,0.68082 1.611271,0.65812 2.723275,1.8609 1.112004,1.18009 1.679353,2.83675 0.590043,1.65665 0.590043,3.63103 v 14.70569 h -2.541724 q -0.794288,0 -1.225473,-0.22694 -0.431186,-0.24964 -0.680819,-0.97584 l -0.499267,-1.67936 q -0.885065,0.79429 -1.724741,1.40703 -0.839677,0.59004 -1.747435,0.99853 -0.907759,0.40849 -1.951681,0.61274 -1.021228,0.22694 -2.269396,0.22694 -1.475107,0 -2.723275,-0.3858 -1.248168,-0.40849 -2.155926,-1.20278 -0.907759,-0.79429 -1.407026,-1.97437 -0.499267,-1.18009 -0.499267,-2.74597 0,-0.88507 0.295022,-1.74744 0.295021,-0.88506 0.953146,-1.67935 0.680819,-0.79429 1.747435,-1.4978 1.066616,-0.70351 2.609805,-1.22548 1.565883,-0.52196 3.631034,-0.83967 2.06515,-0.34041 4.720344,-0.40849 v -1.36164 q 0,-2.33748 -0.998535,-3.44948 -0.998534,-1.1347 -2.882133,-1.1347 -1.361637,0 -2.269396,0.31771 -0.885064,0.31772 -1.565883,0.72621 -0.680819,0.3858 -1.248168,0.70351 -0.544655,0.31772 -1.225474,0.31772 -0.590042,0 -0.998534,-0.29502 -0.408491,-0.31772 -0.658125,-0.72621 z" />
      <path
         id="path96"
         style="font-style:normal;font-variant:normal;font-weight:bold;font-stretch:normal;font-family:Lato, Arial, Helvetica, sans-serif;-inkscape-font-specification:'Sans Bold'"
         d="m 73.590865,191.91207 q -3.040991,0 -4.674956,-1.70205 -1.611271,-1.72474 -1.611271,-4.74304 v -13.00364 h -2.382866 q -0.453879,0 -0.771595,-0.29502 -0.317715,-0.29502 -0.317715,-0.88506 v -2.22401 l 3.744503,-0.61274 1.180086,-6.3543 q 0.11347,-0.45388 0.431186,-0.70352 0.317715,-0.24963 0.816982,-0.24963 h 2.904827 v 7.33015 h 6.218145 v 3.99413 h -6.218145 v 12.61785 q 0,1.08931 0.521961,1.70204 0.544655,0.61274 1.475108,0.61274 0.521961,0 0.86237,-0.11347 0.363103,-0.13616 0.612737,-0.27233 0.272327,-0.13616 0.476573,-0.24963 0.204246,-0.13616 0.408491,-0.13616 0.249634,0 0.408492,0.13616 0.158857,0.11347 0.340409,0.3631 l 1.679353,2.72328 q -1.225474,1.02123 -2.814051,1.54319 -1.588577,0.52196 -3.290624,0.52196 z" />
      <path
         id="path98"
         style="font-style:normal;font-variant:normal;font-weight:bold;font-stretch:normal;font-family:Lato, Arial, Helvetica, sans-serif;-inkscape-font-specification:'Sans Bold'"
         d="m 94.972835,181.60901 q -2.428254,0.11347 -4.084913,0.43119 -1.656659,0.29502 -2.655194,0.77159 -0.998534,0.47657 -1.429719,1.112 -0.431185,0.63544 -0.431185,1.38434 0,1.4751 0.86237,2.11053 0.885065,0.63544 2.29209,0.63544 1.724741,0 2.972909,-0.61274 1.270862,-0.63543 2.473642,-1.90629 z M 82.128053,171.5102 q 4.016831,-3.67642 9.667627,-3.67642 2.042457,0 3.653728,0.68082 1.611271,0.65812 2.723275,1.8609 1.112004,1.18009 1.679353,2.83675 0.590044,1.65665 0.590044,3.63103 v 14.70569 h -2.541724 q -0.794289,0 -1.225474,-0.22694 -0.431186,-0.24964 -0.680819,-0.97584 l -0.499267,-1.67936 q -0.885065,0.79429 -1.724741,1.40703 -0.839677,0.59004 -1.747435,0.99853 -0.907759,0.40849 -1.951681,0.61274 -1.021228,0.22694 -2.269396,0.22694 -1.475107,0 -2.723275,-0.3858 -1.248168,-0.40849 -2.155926,-1.20278 -0.907759,-0.79429 -1.407026,-1.97437 -0.499267,-1.18009 -0.499267,-2.74597 0,-0.88507 0.295022,-1.74744 0.295021,-0.88506 0.953146,-1.67935 0.680819,-0.79429 1.747435,-1.4978 1.066616,-0.70351 2.609805,-1.22548 1.565884,-0.52196 3.631034,-0.83967 2.06515,-0.34041 4.720344,-0.40849 v -1.36164 q 0,-2.33748 -0.998535,-3.44948 -0.998534,-1.1347 -2.882133,-1.1347 -1.361637,0 -2.269396,0.31771 -0.885064,0.31772 -1.565883,0.72621 -0.680819,0.3858 -1.248168,0.70351 -0.544655,0.31772 -1.225473,0.31772 -0.590043,0 -0.998535,-0.29502 -0.408491,-0.31772 -0.658125,-0.72621 z" />
    </g>
    <g
       id="text3274"
       style="font-size:37.82326508px;line-height:0%;font-family:Serif, serif;fill:#000000"
       transform="scale(1.0002585,0.99974156)"
       aria-label="&quot;phylogenetics&quot;">
      <path
         id="path101"
         style="font-style:normal;font-variant:normal;font-weight:normal;font-stretch:normal;font-family:Lato, Arial, Helvetica, sans-serif;-inkscape-font-specification:Lato"
         d="m 201.96493,112.95926 v 5.48438 l -0.30258,2.9313 q -0.0946,0.60517 -0.35933,0.94558 -0.24585,0.3215 -0.8132,0.3215 -0.51061,0 -0.79428,-0.3215 -0.26477,-0.34041 -0.35933,-0.94558 l -0.30258,-2.9313 v -5.48438 z m 6.29758,0 v 5.48438 l -0.30259,2.9313 q -0.0946,0.60517 -0.35932,0.94558 -0.24585,0.3215 -0.8132,0.3215 -0.51062,0 -0.79429,-0.3215 -0.26476,-0.34041 -0.35932,-0.94558 l -0.30259,-2.9313 v -5.48438 z" />
      <path
         id="path103"
         style="font-style:normal;font-variant:normal;font-weight:normal;font-stretch:normal;font-family:Lato, Arial, Helvetica, sans-serif;-inkscape-font-specification:Lato"
         d="m 216.71955,135.44519 q 0.92667,1.24817 2.02355,1.75878 1.09687,0.51062 2.45851,0.51062 2.68545,0 4.12273,-1.91008 1.43729,-1.91007 1.43729,-5.44655 0,-1.87225 -0.34041,-3.21497 -0.3215,-1.34273 -0.94558,-2.19375 -0.62409,-0.86994 -1.53185,-1.26708 -0.90775,-0.39715 -2.06136,-0.39715 -1.64532,0 -2.89348,0.75647 -1.22926,0.75646 -2.2694,2.13701 z m -0.1702,-11.57392 q 1.21034,-1.49402 2.79892,-2.40177 1.58858,-0.90776 3.63103,-0.90776 1.66423,0 3.00695,0.64299 1.34273,0.62409 2.28831,1.87226 0.94558,1.22925 1.45619,3.06368 0.51062,1.83443 0.51062,4.21729 0,2.11811 -0.56735,3.95254 -0.56735,1.81551 -1.64531,3.15824 -1.05905,1.32381 -2.60981,2.09919 -1.53184,0.75646 -3.46083,0.75646 -1.75878,0 -3.02586,-0.58626 -1.24817,-0.60517 -2.21266,-1.66422 v 8.47241 h -3.38518 v -25.64417 h 2.02354 q 0.71865,0 0.88885,0.69973 z" />
      <path
         id="path105"
         style="font-style:normal;font-variant:normal;font-weight:normal;font-stretch:normal;font-family:Lato, Arial, Helvetica, sans-serif;-inkscape-font-specification:Lato"
         d="m 237.92126,123.45522 q 1.22926,-1.3049 2.72328,-2.08028 1.49402,-0.77538 3.44192,-0.77538 1.56966,0 2.76109,0.52953 1.21035,0.51061 2.00464,1.4751 0.8132,0.94559 1.22925,2.28831 0.41606,1.34273 0.41606,2.96913 v 12.198 h -3.38518 v -12.198 q 0,-2.17484 -1.00232,-3.36627 -0.9834,-1.21035 -3.00695,-1.21035 -1.49402,0 -2.79892,0.71865 -1.28599,0.71864 -2.38287,1.94789 v 14.10808 h -3.38518 V 112.2028 h 3.38518 z" />
      <path
         id="path107"
         style="font-style:normal;font-variant:normal;font-weight:normal;font-stretch:normal;font-family:Lato, Arial, Helvetica, sans-serif;-inkscape-font-specification:Lato"
         d="m 271.74945,120.90215 -10.68507,24.81206 q -0.17021,0.37823 -0.43497,0.60517 -0.24585,0.22694 -0.77538,0.22694 h -2.49633 l 3.49865,-7.60247 -7.90506,-18.0417 h 2.91239 q 0.43497,0 0.68082,0.22694 0.26476,0.20803 0.35932,0.47279 l 5.12505,12.06562 q 0.30259,0.79429 0.51061,1.66422 0.26477,-0.88884 0.56735,-1.68313 l 4.97376,-12.04671 q 0.11347,-0.30259 0.37823,-0.4917 0.28368,-0.20803 0.62409,-0.20803 z" />
      <path
         id="path109"
         style="font-style:normal;font-variant:normal;font-weight:normal;font-stretch:normal;font-family:Lato, Arial, Helvetica, sans-serif;-inkscape-font-specification:Lato"
         d="m 278.20304,112.2028 v 27.85683 h -3.36627 V 112.2028 Z" />
      <path
         id="path111"
         style="font-style:normal;font-variant:normal;font-weight:normal;font-stretch:normal;font-family:Lato, Arial, Helvetica, sans-serif;-inkscape-font-specification:Lato"
         d="m 291.73727,120.59956 q 2.09919,0 3.78232,0.69973 1.68314,0.69973 2.87457,1.98572 1.19144,1.28599 1.81552,3.12042 0.64299,1.81552 0.64299,4.066 0,2.2694 -0.64299,4.08492 -0.62408,1.81551 -1.81552,3.1015 -1.19143,1.286 -2.87457,1.98573 -1.68313,0.68081 -3.78232,0.68081 -2.11811,0 -3.82015,-0.68081 -1.68314,-0.69973 -2.87457,-1.98573 -1.19143,-1.28599 -1.83443,-3.1015 -0.62408,-1.81552 -0.62408,-4.08492 0,-2.25048 0.62408,-4.066 0.643,-1.83443 1.83443,-3.12042 1.19143,-1.28599 2.87457,-1.98572 1.70204,-0.69973 3.82015,-0.69973 z m 0,17.09612 q 2.83674,0 4.2362,-1.89117 1.39946,-1.91007 1.39946,-5.31416 0,-3.42301 -1.39946,-5.33309 -1.39946,-1.91007 -4.2362,-1.91007 -1.43729,0 -2.51525,0.4917 -1.05905,0.4917 -1.77769,1.41837 -0.69973,0.92667 -1.05905,2.28831 -0.34041,1.34273 -0.34041,3.04478 0,3.40409 1.39946,5.31416 1.41837,1.89117 4.29294,1.89117 z" />
      <path
         id="path113"
         style="font-style:normal;font-variant:normal;font-weight:normal;font-stretch:normal;font-family:Lato, Arial, Helvetica, sans-serif;-inkscape-font-specification:Lato"
         d="m 311.68727,130.69837 q 1.02123,0 1.79661,-0.28367 0.77537,-0.28368 1.3049,-0.79429 0.52952,-0.51061 0.79429,-1.21034 0.26476,-0.71865 0.26476,-1.56967 0,-1.75878 -1.07796,-2.79892 -1.05905,-1.04014 -3.0826,-1.04014 -2.04245,0 -3.12042,1.04014 -1.05905,1.04014 -1.05905,2.79892 0,0.85102 0.26476,1.56967 0.28368,0.69973 0.8132,1.21034 0.52953,0.51061 1.30491,0.79429 0.77537,0.28367 1.7966,0.28367 z m 6.07064,10.4014 q 0,-0.69973 -0.39715,-1.1347 -0.39714,-0.43496 -1.07796,-0.68082 -0.66191,-0.24585 -1.55076,-0.3404 -0.88884,-0.11347 -1.89116,-0.17021 -0.9834,-0.0567 -2.00463,-0.11347 -1.02123,-0.0567 -1.96681,-0.18912 -1.05905,0.49171 -1.73987,1.24817 -0.66191,0.73756 -0.66191,1.73987 0,0.643 0.3215,1.19144 0.34041,0.56734 1.02123,0.96449 0.68082,0.41605 1.70204,0.64299 1.04014,0.24585 2.4396,0.24585 1.36164,0 2.4396,-0.24585 1.07797,-0.24585 1.81552,-0.69973 0.75647,-0.45388 1.15361,-1.07796 0.39715,-0.62408 0.39715,-1.38055 z m 3.423,-19.44116 v 1.24817 q 0,0.62408 -0.79429,0.79429 l -2.17484,0.28367 q 0.643,1.24817 0.643,2.7611 0,1.39946 -0.54844,2.55307 -0.52952,1.1347 -1.4751,1.9479 -0.94559,0.8132 -2.2694,1.24817 -1.32381,0.43497 -2.87457,0.43497 -1.34272,0 -2.53416,-0.3215 -0.60517,0.37823 -0.92667,0.8132 -0.3215,0.41605 -0.3215,0.85102 0,0.68082 0.54844,1.04014 0.56735,0.34041 1.47511,0.4917 0.90776,0.1513 2.06137,0.18912 1.17252,0.0378 2.38286,0.13238 1.22926,0.0756 2.38287,0.28368 1.17252,0.20802 2.08028,0.68082 0.90776,0.47279 1.45619,1.3049 0.56735,0.83211 0.56735,2.15592 0,1.22926 -0.62408,2.38287 -0.60517,1.15361 -1.75878,2.04246 -1.15361,0.90775 -2.83675,1.43728 -1.66422,0.54844 -3.76341,0.54844 -2.09919,0 -3.66886,-0.41606 -1.56966,-0.41605 -2.6098,-1.11579 -1.04014,-0.69973 -1.56967,-1.6264 -0.51061,-0.90775 -0.51061,-1.91007 0,-1.41837 0.88884,-2.40178 0.88885,-0.9834 2.4396,-1.56966 -0.85102,-0.37824 -1.36163,-1.00232 -0.49171,-0.643 -0.49171,-1.72096 0,-0.41605 0.1513,-0.85102 0.15129,-0.45388 0.45388,-0.88885 0.32149,-0.45388 0.77537,-0.85102 0.45388,-0.39715 1.05905,-0.69973 -1.41837,-0.79429 -2.21266,-2.09919 -0.79429,-1.32382 -0.79429,-3.06369 0,-1.39946 0.52953,-2.53416 0.54844,-1.15361 1.51293,-1.94789 0.96449,-0.81321 2.28831,-1.24817 1.34272,-0.43497 2.9313,-0.43497 1.24817,0 2.32613,0.28367 1.07797,0.26477 1.96681,0.79429 z" />
      <path
         id="path115"
         style="font-style:normal;font-variant:normal;font-weight:normal;font-stretch:normal;font-family:Lato, Arial, Helvetica, sans-serif;-inkscape-font-specification:Lato"
         d="m 337.18843,128.39115 q 0,-1.17252 -0.34041,-2.13701 -0.3215,-0.98341 -0.9645,-1.68314 -0.62408,-0.71864 -1.53184,-1.09687 -0.90776,-0.39714 -2.06137,-0.39714 -2.42069,0 -3.83906,1.41837 -1.39946,1.39946 -1.73987,3.89579 z m 2.72327,8.98303 q -0.62408,0.75646 -1.49402,1.32381 -0.86993,0.54844 -1.87225,0.90776 -0.9834,0.35932 -2.04246,0.52953 -1.05905,0.18911 -2.09919,0.18911 -1.98572,0 -3.66885,-0.6619 -1.66423,-0.68082 -2.89348,-1.96681 -1.21035,-1.30491 -1.89117,-3.21498 -0.68082,-1.91008 -0.68082,-4.3875 0,-2.00463 0.60518,-3.7445 0.62408,-1.73987 1.77769,-3.00695 1.15361,-1.28599 2.81783,-2.00463 1.66423,-0.73756 3.74451,-0.73756 1.72095,0 3.17715,0.58626 1.47511,0.56735 2.53416,1.66423 1.07796,1.07796 1.68313,2.68545 0.60518,1.58857 0.60518,3.63103 0,0.79429 -0.17021,1.05905 -0.1702,0.26477 -0.64299,0.26477 h -12.80318 q 0.0567,1.81551 0.4917,3.15824 0.45388,1.34272 1.24817,2.25048 0.79429,0.88885 1.89116,1.34273 1.09688,0.43497 2.45852,0.43497 1.26708,0 2.17483,-0.28368 0.92667,-0.30258 1.58858,-0.64299 0.66191,-0.34041 1.09688,-0.62409 0.45388,-0.30258 0.77537,-0.30258 0.41606,0 0.643,0.32149 z" />
      <path
         id="path117"
         style="font-style:normal;font-variant:normal;font-weight:normal;font-stretch:normal;font-family:Lato, Arial, Helvetica, sans-serif;-inkscape-font-specification:Lato"
         d="m 347.48935,123.68216 q 0.62409,-0.69973 1.32382,-1.26708 0.69973,-0.56735 1.47511,-0.9645 0.79429,-0.41605 1.66422,-0.62408 0.88885,-0.22694 1.91008,-0.22694 1.56966,0 2.76109,0.52953 1.21035,0.51061 2.00464,1.4751 0.8132,0.94559 1.22925,2.28831 0.41606,1.34273 0.41606,2.96913 v 12.198 h -3.38518 v -12.198 q 0,-2.17484 -1.00232,-3.36627 -0.98341,-1.21035 -3.00695,-1.21035 -1.49402,0 -2.79892,0.71865 -1.28599,0.71864 -2.38287,1.94789 v 14.10808 h -3.38518 v -19.15748 h 2.02355 q 0.71864,0 0.88884,0.69973 z" />
      <path
         id="path119"
         style="font-style:normal;font-variant:normal;font-weight:normal;font-stretch:normal;font-family:Lato, Arial, Helvetica, sans-serif;-inkscape-font-specification:Lato"
         d="m 378.26213,128.39115 q 0,-1.17252 -0.34041,-2.13701 -0.3215,-0.98341 -0.9645,-1.68314 -0.62408,-0.71864 -1.53184,-1.09687 -0.90776,-0.39714 -2.06137,-0.39714 -2.42069,0 -3.83906,1.41837 -1.39946,1.39946 -1.73987,3.89579 z m 2.72327,8.98303 q -0.62408,0.75646 -1.49402,1.32381 -0.86993,0.54844 -1.87225,0.90776 -0.9834,0.35932 -2.04246,0.52953 -1.05905,0.18911 -2.09919,0.18911 -1.98572,0 -3.66885,-0.6619 -1.66423,-0.68082 -2.89348,-1.96681 -1.21035,-1.30491 -1.89117,-3.21498 -0.68082,-1.91008 -0.68082,-4.3875 0,-2.00463 0.60518,-3.7445 0.62408,-1.73987 1.77769,-3.00695 1.15361,-1.28599 2.81783,-2.00463 1.66423,-0.73756 3.74451,-0.73756 1.72095,0 3.17715,0.58626 1.47511,0.56735 2.53416,1.66423 1.07796,1.07796 1.68313,2.68545 0.60518,1.58857 0.60518,3.63103 0,0.79429 -0.17021,1.05905 -0.1702,0.26477 -0.64299,0.26477 h -12.80318 q 0.0567,1.81551 0.4917,3.15824 0.45388,1.34272 1.24817,2.25048 0.79429,0.88885 1.89116,1.34273 1.09688,0.43497 2.45852,0.43497 1.26708,0 2.17483,-0.28368 0.92667,-0.30258 1.58858,-0.64299 0.66191,-0.34041 1.09688,-0.62409 0.45388,-0.30258 0.77537,-0.30258 0.41606,0 0.643,0.32149 z" />
      <path
         id="path121"
         style="font-style:normal;font-variant:normal;font-weight:normal;font-stretch:normal;font-family:Lato, Arial, Helvetica, sans-serif;-inkscape-font-specification:Lato"
         d="m 403.01508,140.05963 h -3.36627 v -16.33965 h -9.87187 v 11.49827 q 0,1.21035 0.58626,1.79661 0.58626,0.58626 1.51293,0.58626 0.52953,0 0.90776,-0.13238 0.39715,-0.1513 0.68082,-0.3215 0.28367,-0.1702 0.47279,-0.30259 0.20803,-0.15129 0.35932,-0.15129 0.26476,0 0.47279,0.3215 l 0.98341,1.60749 q -0.86994,0.8132 -2.09919,1.28599 -1.22926,0.45388 -2.53416,0.45388 -2.2694,0 -3.49865,-1.26708 -1.21035,-1.26708 -1.21035,-3.64995 v -11.72521 h -2.30722 q -0.30258,0 -0.51061,-0.1702 -0.20803,-0.18912 -0.20803,-0.56735 v -1.34273 l 3.13933,-0.41605 0.77538,-5.90043 q 0.0567,-0.28368 0.24585,-0.45388 0.20803,-0.18912 0.52952,-0.18912 h 1.70205 v 6.60016 h 13.23814 z m 0.83212,-25.30376 q 0,0.4917 -0.20803,0.92667 -0.18912,0.41605 -0.52953,0.73755 -0.3215,0.3215 -0.75646,0.51061 -0.43497,0.18912 -0.92667,0.18912 -0.49171,0 -0.92667,-0.18912 -0.41606,-0.18911 -0.73756,-0.51061 -0.32149,-0.3215 -0.51061,-0.73755 -0.18912,-0.43497 -0.18912,-0.92667 0,-0.49171 0.18912,-0.92667 0.18912,-0.45388 0.51061,-0.77538 0.3215,-0.34041 0.73756,-0.52953 0.43496,-0.18911 0.92667,-0.18911 0.4917,0 0.92667,0.18911 0.43496,0.18912 0.75646,0.52953 0.34041,0.3215 0.52953,0.77538 0.20803,0.43496 0.20803,0.92667 z" />
      <path
         id="path123"
         style="font-style:normal;font-variant:normal;font-weight:normal;font-stretch:normal;font-family:Lato, Arial, Helvetica, sans-serif;-inkscape-font-specification:Lato"
         d="m 421.84102,124.30624 q -0.15129,0.20803 -0.30258,0.3215 -0.1513,0.11347 -0.41606,0.11347 -0.28367,0 -0.62408,-0.22694 -0.34041,-0.24585 -0.85103,-0.52953 -0.4917,-0.28367 -1.22925,-0.51061 -0.71864,-0.24585 -1.7777,-0.24585 -1.41837,0 -2.49633,0.51061 -1.07796,0.4917 -1.81552,1.43729 -0.71864,0.94558 -1.09687,2.2883 -0.35932,1.34273 -0.35932,3.00695 0,1.73987 0.39714,3.10151 0.39714,1.34273 1.11579,2.2694 0.73755,0.90776 1.75878,1.39946 1.04014,0.47279 2.32613,0.47279 1.22926,0 2.02354,-0.28368 0.79429,-0.30258 1.30491,-0.6619 0.52952,-0.35932 0.86993,-0.643 0.35932,-0.30258 0.69973,-0.30258 0.41606,0 0.643,0.32149 l 0.94558,1.22926 q -0.62408,0.77538 -1.41837,1.32381 -0.79429,0.54844 -1.72096,0.92667 -0.90776,0.35932 -1.91008,0.52953 -1.00231,0.1702 -2.04245,0.1702 -1.79661,0 -3.34736,-0.6619 -1.53184,-0.66191 -2.66654,-1.91008 -1.1347,-1.26708 -1.7777,-3.10151 -0.64299,-1.83442 -0.64299,-4.17947 0,-2.13701 0.58626,-3.95253 0.60517,-1.81551 1.73987,-3.12042 1.15361,-1.32381 2.81783,-2.06136 1.68314,-0.73756 3.85798,-0.73756 2.02354,0 3.55538,0.66191 1.55076,0.64299 2.74219,1.83443 z" />
      <path
         id="path125"
         style="font-style:normal;font-variant:normal;font-weight:normal;font-stretch:normal;font-family:Lato, Arial, Helvetica, sans-serif;-inkscape-font-specification:Lato"
         d="m 437.69135,124.06039 q -0.22694,0.41606 -0.69973,0.41606 -0.28368,0 -0.643,-0.20803 -0.35932,-0.20803 -0.88885,-0.45388 -0.51061,-0.26476 -1.22925,-0.47279 -0.71864,-0.22694 -1.70205,-0.22694 -0.85102,0 -1.53184,0.22694 -0.68082,0.20803 -1.17252,0.58626 -0.47279,0.37823 -0.73756,0.88885 -0.24585,0.4917 -0.24585,1.07796 0,0.73755 0.41606,1.22925 0.43497,0.49171 1.1347,0.85103 0.69973,0.35932 1.58857,0.64299 0.88885,0.26477 1.81552,0.58626 0.94558,0.30259 1.83443,0.68082 0.88885,0.37824 1.58858,0.94558 0.69973,0.56735 1.11578,1.39947 0.43497,0.8132 0.43497,1.96681 0,1.32381 -0.47279,2.45851 -0.47279,1.11578 -1.39946,1.9479 -0.92667,0.8132 -2.2694,1.28599 -1.34272,0.47279 -3.10151,0.47279 -2.00463,0 -3.63103,-0.643 -1.6264,-0.66191 -2.7611,-1.68313 l 0.79429,-1.28599 q 0.15129,-0.24586 0.35932,-0.37824 0.20803,-0.13238 0.52953,-0.13238 0.34041,0 0.71864,0.26476 0.37823,0.26477 0.90776,0.58627 0.54844,0.32149 1.32381,0.58626 0.77538,0.26476 1.92899,0.26476 0.9834,0 1.72096,-0.24585 0.73755,-0.26477 1.22925,-0.69973 0.49171,-0.43497 0.71865,-1.00232 0.24585,-0.56735 0.24585,-1.21034 0,-0.79429 -0.43497,-1.30491 -0.41606,-0.52952 -1.11579,-0.88884 -0.69973,-0.37824 -1.60749,-0.643 -0.88884,-0.28367 -1.83442,-0.58626 -0.92667,-0.30259 -1.83443,-0.68082 -0.88885,-0.39714 -1.58858,-0.9834 -0.69973,-0.58626 -1.1347,-1.43729 -0.41605,-0.86993 -0.41605,-2.09919 0,-1.09687 0.45388,-2.09919 0.45388,-1.02123 1.32381,-1.77769 0.86994,-0.77538 2.13701,-1.22926 1.26708,-0.45388 2.89348,-0.45388 1.89117,0 3.38519,0.60517 1.51293,0.58626 2.6098,1.6264 z" />
      <path
         id="path127"
         style="font-style:normal;font-variant:normal;font-weight:normal;font-stretch:normal;font-family:Lato, Arial, Helvetica, sans-serif;-inkscape-font-specification:Lato"
         d="m 445.59994,112.95926 v 5.48438 l -0.30258,2.9313 q -0.0946,0.60517 -0.35933,0.94558 -0.24585,0.3215 -0.8132,0.3215 -0.51061,0 -0.79428,-0.3215 -0.26477,-0.34041 -0.35933,-0.94558 l -0.30258,-2.9313 v -5.48438 z m 6.29757,0 v 5.48438 l -0.30258,2.9313 q -0.0946,0.60517 -0.35932,0.94558 -0.24585,0.3215 -0.8132,0.3215 -0.51062,0 -0.79429,-0.3215 -0.26476,-0.34041 -0.35932,-0.94558 l -0.30259,-2.9313 v -5.48438 z" />
    </g>
    <path
       id="path3302"
       d="M 175.96468,179.2662 H 513.58676"
       style="fill:none;stroke:#000000;stroke-width:4.49700022;marker-end:url(#Arrow1Mend)" />
  </g>
  <g
     id="text3045"
     style="font-style:normal;font-weight:normal;line-height:0%;font-family:Lato, Arial, Helvetica, sans-serif;letter-spacing:0px;word-spacing:0px;fill:#000000;fill-opacity:1;stroke:none"
     aria-label=" " />
</svg>
